<svg version="1.1" xmlns="http://www.w3.org/2000/svg" viewBox="0 0 795.6793823242188 740.0000000000018" width="795.6793823242188" height="740.0000000000018">
  <!-- svg-source:excalidraw -->
  
  <defs>
    <style class="style-fonts">
      @font-face {
        font-family: "Virgil";
        src: url("https://excalidraw.com/Virgil.woff2");
      }
      @font-face {
        font-family: "Cascadia";
        src: url("https://excalidraw.com/Cascadia.woff2");
      }
      @font-face {
        font-family: "Assistant";
        src: url("https://excalidraw.com/Assistant-Regular.woff2");
      }
    </style>
    
  </defs>
  <rect x="0" y="0" width="795.6793823242188" height="740.0000000000018" fill="#ffffff"></rect><g stroke-linecap="round" transform="translate(185.6174689398872 10) rotate(0 212.22222222222217 57.77777777777919)"><path d="M28.89 0 C115.32 1.88, 200.33 5.25, 395.56 0 M28.89 0 C113.86 -1.11, 200.44 -1.17, 395.56 0 M395.56 0 C416.49 -0.9, 428.1 11.07, 424.44 28.89 M395.56 0 C415.64 -4.26, 425.35 13.36, 424.44 28.89 M424.44 28.89 C421.94 48.79, 423.64 70.26, 424.44 86.67 M424.44 28.89 C425.69 51.11, 425.66 73.69, 424.44 86.67 M424.44 86.67 C425.75 103.97, 415.69 116.22, 395.56 115.56 M424.44 86.67 C427.36 103.48, 417.28 113.98, 395.56 115.56 M395.56 115.56 C310.75 114.82, 228.11 113.43, 28.89 115.56 M395.56 115.56 C294.61 114.65, 194.78 114.32, 28.89 115.56 M28.89 115.56 C9.1 114.74, 1.54 105.21, 0 86.67 M28.89 115.56 C7.92 118.64, -4.26 110.06, 0 86.67 M0 86.67 C2.44 64.8, 2.76 45.71, 0 28.89 M0 86.67 C0.69 69.33, -0.99 51.94, 0 28.89 M0 28.89 C0.23 9.38, 12.09 -3.41, 28.89 0 M0 28.89 C1.85 12.71, 9.33 -3.01, 28.89 0" stroke="#343a40" stroke-width="4" fill="none"></path></g><g transform="translate(310.33975982666016 55.27777777777919) rotate(0 87.49993133544922 12.5)"><text x="0" y="17.52" font-family="Virgil, Segoe UI Emoji" font-size="20px" fill="#343a40" text-anchor="start" style="white-space: pre;" direction="ltr" dominant-baseline="alphabetic">EBS Multi-Attach</text></g><g transform="translate(10 181.11111111111313) rotate(0 387.8396911621094 12.5)"><text x="0" y="17.52" font-family="Virgil, Segoe UI Emoji" font-size="20px" fill="#be4bdb" text-anchor="start" style="white-space: pre;" direction="ltr" dominant-baseline="alphabetic">-&gt; Attach same EBS volume to multiple EC2 instance only within the same AZ</text></g><g transform="translate(10 240.37037037037226) rotate(0 154.7398681640625 12.5)"><text x="0" y="17.52" font-family="Virgil, Segoe UI Emoji" font-size="20px" fill="#be4bdb" text-anchor="start" style="white-space: pre;" direction="ltr" dominant-baseline="alphabetic">-&gt; Higher Application Availability</text></g><g transform="translate(10 299.6296296296314) rotate(0 99.82991027832031 12.5)"><text x="0" y="17.52" font-family="Virgil, Segoe UI Emoji" font-size="20px" fill="#be4bdb" text-anchor="start" style="white-space: pre;" direction="ltr" dominant-baseline="alphabetic">-&gt; Concurrent writes</text></g><g transform="translate(10 358.8888888888905) rotate(0 246.37985229492188 12.5)"><text x="0" y="17.52" font-family="Virgil, Segoe UI Emoji" font-size="20px" fill="#be4bdb" text-anchor="start" style="white-space: pre;" direction="ltr" dominant-baseline="alphabetic">-&gt; Can attach up to 16 EC2 instances at a time</text></g><g transform="translate(161.73988342285156 140.83333333333576) rotate(0 236.0998077392578 12.5)"><text x="0" y="17.52" font-family="Virgil, Segoe UI Emoji" font-size="20px" fill="#1971c2" text-anchor="start" style="white-space: pre;" direction="ltr" dominant-baseline="alphabetic">Only supported by io1 and io2 EBS volume types</text></g><g stroke-linecap="round" transform="translate(193.95080227322023 403.33333333333576) rotate(0 203.88888888888914 163.33333333333303)"><path d="M32 0 C109.5 1.16, 190.77 -1.72, 375.78 0 M32 0 C120.18 0.1, 205.43 0.33, 375.78 0 M375.78 0 C399.2 2.3, 406.17 13.63, 407.78 32 M375.78 0 C396.98 4.02, 406.69 10.58, 407.78 32 M407.78 32 C411.4 122.73, 409.17 211.7, 407.78 294.67 M407.78 32 C408.78 126.22, 409.37 221.7, 407.78 294.67 M407.78 294.67 C407.75 315.84, 395.09 330.48, 375.78 326.67 M407.78 294.67 C408.21 312.03, 394.32 328.34, 375.78 326.67 M375.78 326.67 C241.26 330.23, 108.96 330.49, 32 326.67 M375.78 326.67 C278.36 322.58, 182.4 323.77, 32 326.67 M32 326.67 C8.68 328.32, 2.7 315.09, 0 294.67 M32 326.67 C13.86 325.29, 0.82 315.38, 0 294.67 M0 294.67 C0.43 235.18, 1.2 177.26, 0 32 M0 294.67 C-0.39 241.3, -0.45 186.8, 0 32 M0 32 C2.95 7.98, 8.72 2.4, 32 0 M0 32 C3.14 8.98, 12.54 -0.56, 32 0" stroke="#343a40" stroke-width="4" fill="none"></path></g><g transform="translate(341.3763987223306 427.777777777781) rotate(0 58.12995910644531 12.5)"><text x="0" y="17.52" font-family="Virgil, Segoe UI Emoji" font-size="20px" fill="#343a40" text-anchor="start" style="white-space: pre;" direction="ltr" dominant-baseline="alphabetic">US-EAST-1A</text></g><g stroke-linecap="round" transform="translate(246.92529675851438 476.9519761029442) rotate(0 37.025505514705856 38.048023897058556)"><path d="M74.05 38.05 C74.05 40.03, 73.9 42.04, 73.6 44 C73.29 45.96, 72.84 47.92, 72.24 49.81 C71.64 51.69, 70.89 53.55, 70.02 55.32 C69.14 57.09, 68.11 58.81, 66.98 60.41 C65.84 62.02, 64.57 63.55, 63.21 64.95 C61.84 66.35, 60.35 67.66, 58.79 68.83 C57.23 70, 55.55 71.05, 53.83 71.95 C52.11 72.85, 50.3 73.62, 48.47 74.23 C46.63 74.85, 44.72 75.32, 42.82 75.63 C40.91 75.94, 38.96 76.1, 37.03 76.1 C35.09 76.1, 33.14 75.94, 31.23 75.63 C29.33 75.32, 27.42 74.85, 25.58 74.23 C23.75 73.62, 21.94 72.85, 20.22 71.95 C18.5 71.05, 16.82 70, 15.26 68.83 C13.7 67.66, 12.21 66.35, 10.84 64.95 C9.48 63.55, 8.21 62.02, 7.07 60.41 C5.94 58.81, 4.91 57.09, 4.04 55.32 C3.16 53.55, 2.41 51.69, 1.81 49.81 C1.22 47.92, 0.76 45.96, 0.46 44 C0.15 42.04, 0 40.03, 0 38.05 C0 36.06, 0.15 34.06, 0.46 32.1 C0.76 30.14, 1.22 28.18, 1.81 26.29 C2.41 24.4, 3.16 22.54, 4.04 20.77 C4.91 19.01, 5.94 17.29, 7.07 15.68 C8.21 14.08, 9.48 12.55, 10.84 11.14 C12.21 9.74, 13.7 8.43, 15.26 7.27 C16.82 6.1, 18.5 5.05, 20.22 4.15 C21.94 3.25, 23.75 2.48, 25.58 1.86 C27.42 1.25, 29.33 0.78, 31.23 0.47 C33.14 0.16, 35.09 0, 37.03 0 C38.96 0, 40.91 0.16, 42.82 0.47 C44.72 0.78, 46.63 1.25, 48.47 1.86 C50.3 2.48, 52.11 3.25, 53.83 4.15 C55.55 5.05, 57.23 6.1, 58.79 7.27 C60.35 8.43, 61.84 9.74, 63.21 11.14 C64.57 12.55, 65.84 14.08, 66.98 15.68 C68.11 17.29, 69.14 19.01, 70.02 20.77 C70.89 22.54, 71.64 24.4, 72.24 26.29 C72.84 28.18, 73.29 30.14, 73.6 32.1 C73.9 34.06, 73.98 37.06, 74.05 38.05 C74.13 39.04, 74.13 37.06, 74.05 38.05" stroke="none" stroke-width="0" fill="#fd7e14"></path><path d="M74.05 38.05 C74.05 40.03, 73.9 42.04, 73.6 44 C73.29 45.96, 72.84 47.92, 72.24 49.81 C71.64 51.69, 70.89 53.55, 70.02 55.32 C69.14 57.09, 68.11 58.81, 66.98 60.41 C65.84 62.02, 64.57 63.55, 63.21 64.95 C61.84 66.35, 60.35 67.66, 58.79 68.83 C57.23 70, 55.55 71.05, 53.83 71.95 C52.11 72.85, 50.3 73.62, 48.47 74.23 C46.63 74.85, 44.72 75.32, 42.82 75.63 C40.91 75.94, 38.96 76.1, 37.03 76.1 C35.09 76.1, 33.14 75.94, 31.23 75.63 C29.33 75.32, 27.42 74.85, 25.58 74.23 C23.75 73.62, 21.94 72.85, 20.22 71.95 C18.5 71.05, 16.82 70, 15.26 68.83 C13.7 67.66, 12.21 66.35, 10.84 64.95 C9.48 63.55, 8.21 62.02, 7.07 60.41 C5.94 58.81, 4.91 57.09, 4.04 55.32 C3.16 53.55, 2.41 51.69, 1.81 49.81 C1.22 47.92, 0.76 45.96, 0.46 44 C0.15 42.04, 0 40.03, 0 38.05 C0 36.06, 0.15 34.06, 0.46 32.1 C0.76 30.14, 1.22 28.18, 1.81 26.29 C2.41 24.4, 3.16 22.54, 4.04 20.77 C4.91 19.01, 5.94 17.29, 7.07 15.68 C8.21 14.08, 9.48 12.55, 10.84 11.14 C12.21 9.74, 13.7 8.43, 15.26 7.27 C16.82 6.1, 18.5 5.05, 20.22 4.15 C21.94 3.25, 23.75 2.48, 25.58 1.86 C27.42 1.25, 29.33 0.78, 31.23 0.47 C33.14 0.16, 35.09 0, 37.03 0 C38.96 0, 40.91 0.16, 42.82 0.47 C44.72 0.78, 46.63 1.25, 48.47 1.86 C50.3 2.48, 52.11 3.25, 53.83 4.15 C55.55 5.05, 57.23 6.1, 58.79 7.27 C60.35 8.43, 61.84 9.74, 63.21 11.14 C64.57 12.55, 65.84 14.08, 66.98 15.68 C68.11 17.29, 69.14 19.01, 70.02 20.77 C70.89 22.54, 71.64 24.4, 72.24 26.29 C72.84 28.18, 73.29 30.14, 73.6 32.1 C73.9 34.06, 73.98 37.06, 74.05 38.05 C74.13 39.04, 74.13 37.06, 74.05 38.05" stroke="#fd7e14" stroke-width="2" fill="none"></path></g><g stroke-linecap="round" transform="translate(267.7260780085144 490.2412683823568) rotate(0 15.088981586224236 16.206341911764866)"><path d="M7.54 0 C13.51 0, 19.47 0, 22.63 0 C27.66 0, 30.18 2.51, 30.18 7.54 C30.18 11.52, 30.18 15.49, 30.18 24.87 C30.18 29.9, 27.66 32.41, 22.63 32.41 C19.16 32.41, 15.69 32.41, 7.54 32.41 C2.51 32.41, 0 29.9, 0 24.87 C0 19.88, 0 14.9, 0 7.54 C0 2.51, 2.51 0, 7.54 0" stroke="none" stroke-width="0" fill="#fd7e14"></path><path d="M7.54 0 C12.75 0, 17.95 0, 22.63 0 M7.54 0 C11.1 0, 14.65 0, 22.63 0 M22.63 0 C27.66 0, 30.18 2.51, 30.18 7.54 M22.63 0 C27.66 0, 30.18 2.51, 30.18 7.54 M30.18 7.54 C30.18 12.88, 30.18 18.21, 30.18 24.87 M30.18 7.54 C30.18 11.81, 30.18 16.08, 30.18 24.87 M30.18 24.87 C30.18 29.9, 27.66 32.41, 22.63 32.41 M30.18 24.87 C30.18 29.9, 27.66 32.41, 22.63 32.41 M22.63 32.41 C17.71 32.41, 12.79 32.41, 7.54 32.41 M22.63 32.41 C17.26 32.41, 11.88 32.41, 7.54 32.41 M7.54 32.41 C2.51 32.41, 0 29.9, 0 24.87 M7.54 32.41 C2.51 32.41, 0 29.9, 0 24.87 M0 24.87 C0 19.06, 0 13.24, 0 7.54 M0 24.87 C0 18.8, 0 12.73, 0 7.54 M0 7.54 C0 2.51, 2.51 0, 7.54 0 M0 7.54 C0 2.51, 2.51 0, 7.54 0" stroke="#fff" stroke-width="2" fill="none"></path></g><g transform="translate(274.5744235967495 530.5903033088271) rotate(0 8.5 5.5)"><text x="0" y="8.78423918395483" font-family="Cascadia, Segoe UI Emoji" font-size="9.453912815126058px" fill="#fff" text-anchor="start" style="white-space: pre;" direction="ltr" dominant-baseline="alphabetic">EC2</text></g><g stroke-linecap="round" transform="translate(362.48085231407003 476.9519761029442) rotate(0 37.025505514705856 38.048023897058556)"><path d="M74.05 38.05 C74.05 40.03, 73.9 42.04, 73.6 44 C73.29 45.96, 72.84 47.92, 72.24 49.81 C71.64 51.69, 70.89 53.55, 70.02 55.32 C69.14 57.09, 68.11 58.81, 66.98 60.41 C65.84 62.02, 64.57 63.55, 63.21 64.95 C61.84 66.35, 60.35 67.66, 58.79 68.83 C57.23 70, 55.55 71.05, 53.83 71.95 C52.11 72.85, 50.3 73.62, 48.47 74.23 C46.63 74.85, 44.72 75.32, 42.82 75.63 C40.91 75.94, 38.96 76.1, 37.03 76.1 C35.09 76.1, 33.14 75.94, 31.23 75.63 C29.33 75.32, 27.42 74.85, 25.58 74.23 C23.75 73.62, 21.94 72.85, 20.22 71.95 C18.5 71.05, 16.82 70, 15.26 68.83 C13.7 67.66, 12.21 66.35, 10.84 64.95 C9.48 63.55, 8.21 62.02, 7.07 60.41 C5.94 58.81, 4.91 57.09, 4.04 55.32 C3.16 53.55, 2.41 51.69, 1.81 49.81 C1.22 47.92, 0.76 45.96, 0.46 44 C0.15 42.04, 0 40.03, 0 38.05 C0 36.06, 0.15 34.06, 0.46 32.1 C0.76 30.14, 1.22 28.18, 1.81 26.29 C2.41 24.4, 3.16 22.54, 4.04 20.77 C4.91 19.01, 5.94 17.29, 7.07 15.68 C8.21 14.08, 9.48 12.55, 10.84 11.14 C12.21 9.74, 13.7 8.43, 15.26 7.27 C16.82 6.1, 18.5 5.05, 20.22 4.15 C21.94 3.25, 23.75 2.48, 25.58 1.86 C27.42 1.25, 29.33 0.78, 31.23 0.47 C33.14 0.16, 35.09 0, 37.03 0 C38.96 0, 40.91 0.16, 42.82 0.47 C44.72 0.78, 46.63 1.25, 48.47 1.86 C50.3 2.48, 52.11 3.25, 53.83 4.15 C55.55 5.05, 57.23 6.1, 58.79 7.27 C60.35 8.43, 61.84 9.74, 63.21 11.14 C64.57 12.55, 65.84 14.08, 66.98 15.68 C68.11 17.29, 69.14 19.01, 70.02 20.77 C70.89 22.54, 71.64 24.4, 72.24 26.29 C72.84 28.18, 73.29 30.14, 73.6 32.1 C73.9 34.06, 73.98 37.06, 74.05 38.05 C74.13 39.04, 74.13 37.06, 74.05 38.05" stroke="none" stroke-width="0" fill="#fd7e14"></path><path d="M74.05 38.05 C74.05 40.03, 73.9 42.04, 73.6 44 C73.29 45.96, 72.84 47.92, 72.24 49.81 C71.64 51.69, 70.89 53.55, 70.02 55.32 C69.14 57.09, 68.11 58.81, 66.98 60.41 C65.84 62.02, 64.57 63.55, 63.21 64.95 C61.84 66.35, 60.35 67.66, 58.79 68.83 C57.23 70, 55.55 71.05, 53.83 71.95 C52.11 72.85, 50.3 73.62, 48.47 74.23 C46.63 74.85, 44.72 75.32, 42.82 75.63 C40.91 75.94, 38.96 76.1, 37.03 76.1 C35.09 76.1, 33.14 75.94, 31.23 75.63 C29.33 75.32, 27.42 74.85, 25.58 74.23 C23.75 73.62, 21.94 72.85, 20.22 71.95 C18.5 71.05, 16.82 70, 15.26 68.83 C13.7 67.66, 12.21 66.35, 10.84 64.95 C9.48 63.55, 8.21 62.02, 7.07 60.41 C5.94 58.81, 4.91 57.09, 4.04 55.32 C3.16 53.55, 2.41 51.69, 1.81 49.81 C1.22 47.92, 0.76 45.96, 0.46 44 C0.15 42.04, 0 40.03, 0 38.05 C0 36.06, 0.15 34.06, 0.46 32.1 C0.76 30.14, 1.22 28.18, 1.81 26.29 C2.41 24.4, 3.16 22.54, 4.04 20.77 C4.91 19.01, 5.94 17.29, 7.07 15.68 C8.21 14.08, 9.48 12.55, 10.84 11.14 C12.21 9.74, 13.7 8.43, 15.26 7.27 C16.82 6.1, 18.5 5.05, 20.22 4.15 C21.94 3.25, 23.75 2.48, 25.58 1.86 C27.42 1.25, 29.33 0.78, 31.23 0.47 C33.14 0.16, 35.09 0, 37.03 0 C38.96 0, 40.91 0.16, 42.82 0.47 C44.72 0.78, 46.63 1.25, 48.47 1.86 C50.3 2.48, 52.11 3.25, 53.83 4.15 C55.55 5.05, 57.23 6.1, 58.79 7.27 C60.35 8.43, 61.84 9.74, 63.21 11.14 C64.57 12.55, 65.84 14.08, 66.98 15.68 C68.11 17.29, 69.14 19.01, 70.02 20.77 C70.89 22.54, 71.64 24.4, 72.24 26.29 C72.84 28.18, 73.29 30.14, 73.6 32.1 C73.9 34.06, 73.98 37.06, 74.05 38.05 C74.13 39.04, 74.13 37.06, 74.05 38.05" stroke="#fd7e14" stroke-width="2" fill="none"></path></g><g stroke-linecap="round" transform="translate(383.28163356407003 490.2412683823568) rotate(0 15.088981586224236 16.206341911764866)"><path d="M7.54 0 C12.78 0, 18.01 0, 22.63 0 C27.66 0, 30.18 2.51, 30.18 7.54 C30.18 12.77, 30.18 18, 30.18 24.87 C30.18 29.9, 27.66 32.41, 22.63 32.41 C16.77 32.41, 10.9 32.41, 7.54 32.41 C2.51 32.41, 0 29.9, 0 24.87 C0 20.49, 0 16.12, 0 7.54 C0 2.51, 2.51 0, 7.54 0" stroke="none" stroke-width="0" fill="#fd7e14"></path><path d="M7.54 0 C11.99 0, 16.43 0, 22.63 0 M7.54 0 C12.72 0, 17.9 0, 22.63 0 M22.63 0 C27.66 0, 30.18 2.51, 30.18 7.54 M22.63 0 C27.66 0, 30.18 2.51, 30.18 7.54 M30.18 7.54 C30.18 12.06, 30.18 16.57, 30.18 24.87 M30.18 7.54 C30.18 14.07, 30.18 20.59, 30.18 24.87 M30.18 24.87 C30.18 29.9, 27.66 32.41, 22.63 32.41 M30.18 24.87 C30.18 29.9, 27.66 32.41, 22.63 32.41 M22.63 32.41 C19.24 32.41, 15.85 32.41, 7.54 32.41 M22.63 32.41 C19.21 32.41, 15.79 32.41, 7.54 32.41 M7.54 32.41 C2.51 32.41, 0 29.9, 0 24.87 M7.54 32.41 C2.51 32.41, 0 29.9, 0 24.87 M0 24.87 C0 18.93, 0 13, 0 7.54 M0 24.87 C0 19.44, 0 14.01, 0 7.54 M0 7.54 C0 2.51, 2.51 0, 7.54 0 M0 7.54 C0 2.51, 2.51 0, 7.54 0" stroke="#fff" stroke-width="2" fill="none"></path></g><g transform="translate(390.12997915230426 530.5903033088289) rotate(0 8.5 5.5)"><text x="0" y="8.78423918395483" font-family="Cascadia, Segoe UI Emoji" font-size="9.453912815126058px" fill="#fff" text-anchor="start" style="white-space: pre;" direction="ltr" dominant-baseline="alphabetic">EC2</text></g><g stroke-linecap="round" transform="translate(478.0364078696257 476.9519761029442) rotate(0 37.025505514705856 38.048023897058556)"><path d="M74.05 38.05 C74.05 40.03, 73.9 42.04, 73.6 44 C73.29 45.96, 72.84 47.92, 72.24 49.81 C71.64 51.69, 70.89 53.55, 70.02 55.32 C69.14 57.09, 68.11 58.81, 66.98 60.41 C65.84 62.02, 64.57 63.55, 63.21 64.95 C61.84 66.35, 60.35 67.66, 58.79 68.83 C57.23 70, 55.55 71.05, 53.83 71.95 C52.11 72.85, 50.3 73.62, 48.47 74.23 C46.63 74.85, 44.72 75.32, 42.82 75.63 C40.91 75.94, 38.96 76.1, 37.03 76.1 C35.09 76.1, 33.14 75.94, 31.23 75.63 C29.33 75.32, 27.42 74.85, 25.58 74.23 C23.75 73.62, 21.94 72.85, 20.22 71.95 C18.5 71.05, 16.82 70, 15.26 68.83 C13.7 67.66, 12.21 66.35, 10.84 64.95 C9.48 63.55, 8.21 62.02, 7.07 60.41 C5.94 58.81, 4.91 57.09, 4.04 55.32 C3.16 53.55, 2.41 51.69, 1.81 49.81 C1.22 47.92, 0.76 45.96, 0.46 44 C0.15 42.04, 0 40.03, 0 38.05 C0 36.06, 0.15 34.06, 0.46 32.1 C0.76 30.14, 1.22 28.18, 1.81 26.29 C2.41 24.4, 3.16 22.54, 4.04 20.77 C4.91 19.01, 5.94 17.29, 7.07 15.68 C8.21 14.08, 9.48 12.55, 10.84 11.14 C12.21 9.74, 13.7 8.43, 15.26 7.27 C16.82 6.1, 18.5 5.05, 20.22 4.15 C21.94 3.25, 23.75 2.48, 25.58 1.86 C27.42 1.25, 29.33 0.78, 31.23 0.47 C33.14 0.16, 35.09 0, 37.03 0 C38.96 0, 40.91 0.16, 42.82 0.47 C44.72 0.78, 46.63 1.25, 48.47 1.86 C50.3 2.48, 52.11 3.25, 53.83 4.15 C55.55 5.05, 57.23 6.1, 58.79 7.27 C60.35 8.43, 61.84 9.74, 63.21 11.14 C64.57 12.55, 65.84 14.08, 66.98 15.68 C68.11 17.29, 69.14 19.01, 70.02 20.77 C70.89 22.54, 71.64 24.4, 72.24 26.29 C72.84 28.18, 73.29 30.14, 73.6 32.1 C73.9 34.06, 73.98 37.06, 74.05 38.05 C74.13 39.04, 74.13 37.06, 74.05 38.05" stroke="none" stroke-width="0" fill="#fd7e14"></path><path d="M74.05 38.05 C74.05 40.03, 73.9 42.04, 73.6 44 C73.29 45.96, 72.84 47.92, 72.24 49.81 C71.64 51.69, 70.89 53.55, 70.02 55.32 C69.14 57.09, 68.11 58.81, 66.98 60.41 C65.84 62.02, 64.57 63.55, 63.21 64.95 C61.84 66.35, 60.35 67.66, 58.79 68.83 C57.23 70, 55.55 71.05, 53.83 71.95 C52.11 72.85, 50.3 73.62, 48.47 74.23 C46.63 74.85, 44.72 75.32, 42.82 75.63 C40.91 75.94, 38.96 76.1, 37.03 76.1 C35.09 76.1, 33.14 75.94, 31.23 75.63 C29.33 75.32, 27.42 74.85, 25.58 74.23 C23.75 73.62, 21.94 72.85, 20.22 71.95 C18.5 71.05, 16.82 70, 15.26 68.83 C13.7 67.66, 12.21 66.35, 10.84 64.95 C9.48 63.55, 8.21 62.02, 7.07 60.41 C5.94 58.81, 4.91 57.09, 4.04 55.32 C3.16 53.55, 2.41 51.69, 1.81 49.81 C1.22 47.92, 0.76 45.96, 0.46 44 C0.15 42.04, 0 40.03, 0 38.05 C0 36.06, 0.15 34.06, 0.46 32.1 C0.76 30.14, 1.22 28.18, 1.81 26.29 C2.41 24.4, 3.16 22.54, 4.04 20.77 C4.91 19.01, 5.94 17.29, 7.07 15.68 C8.21 14.08, 9.48 12.55, 10.84 11.14 C12.21 9.74, 13.7 8.43, 15.26 7.27 C16.82 6.1, 18.5 5.05, 20.22 4.15 C21.94 3.25, 23.75 2.48, 25.58 1.86 C27.42 1.25, 29.33 0.78, 31.23 0.47 C33.14 0.16, 35.09 0, 37.03 0 C38.96 0, 40.91 0.16, 42.82 0.47 C44.72 0.78, 46.63 1.25, 48.47 1.86 C50.3 2.48, 52.11 3.25, 53.83 4.15 C55.55 5.05, 57.23 6.1, 58.79 7.27 C60.35 8.43, 61.84 9.74, 63.21 11.14 C64.57 12.55, 65.84 14.08, 66.98 15.68 C68.11 17.29, 69.14 19.01, 70.02 20.77 C70.89 22.54, 71.64 24.4, 72.24 26.29 C72.84 28.18, 73.29 30.14, 73.6 32.1 C73.9 34.06, 73.98 37.06, 74.05 38.05 C74.13 39.04, 74.13 37.06, 74.05 38.05" stroke="#fd7e14" stroke-width="2" fill="none"></path></g><g stroke-linecap="round" transform="translate(498.8371891196257 490.2412683823568) rotate(0 15.088981586224236 16.206341911764866)"><path d="M7.54 0 C11.13 0, 14.71 0, 22.63 0 C27.66 0, 30.18 2.51, 30.18 7.54 C30.18 12.82, 30.18 18.1, 30.18 24.87 C30.18 29.9, 27.66 32.41, 22.63 32.41 C16.98 32.41, 11.32 32.41, 7.54 32.41 C2.51 32.41, 0 29.9, 0 24.87 C0 19.15, 0 13.43, 0 7.54 C0 2.51, 2.51 0, 7.54 0" stroke="none" stroke-width="0" fill="#fd7e14"></path><path d="M7.54 0 C10.73 0, 13.92 0, 22.63 0 M7.54 0 C12.72 0, 17.89 0, 22.63 0 M22.63 0 C27.66 0, 30.18 2.51, 30.18 7.54 M22.63 0 C27.66 0, 30.18 2.51, 30.18 7.54 M30.18 7.54 C30.18 12.77, 30.18 18, 30.18 24.87 M30.18 7.54 C30.18 14.35, 30.18 21.15, 30.18 24.87 M30.18 24.87 C30.18 29.9, 27.66 32.41, 22.63 32.41 M30.18 24.87 C30.18 29.9, 27.66 32.41, 22.63 32.41 M22.63 32.41 C16.65 32.41, 10.67 32.41, 7.54 32.41 M22.63 32.41 C18.45 32.41, 14.27 32.41, 7.54 32.41 M7.54 32.41 C2.51 32.41, 0 29.9, 0 24.87 M7.54 32.41 C2.51 32.41, 0 29.9, 0 24.87 M0 24.87 C0 19, 0 13.13, 0 7.54 M0 24.87 C0 18.74, 0 12.61, 0 7.54 M0 7.54 C0 2.51, 2.51 0, 7.54 0 M0 7.54 C0 2.51, 2.51 0, 7.54 0" stroke="#fff" stroke-width="2" fill="none"></path></g><g transform="translate(505.6855347078599 530.5903033088289) rotate(0 8.5 5.5)"><text x="0" y="8.78423918395483" font-family="Cascadia, Segoe UI Emoji" font-size="9.453912815126058px" fill="#fff" text-anchor="start" style="white-space: pre;" direction="ltr" dominant-baseline="alphabetic">EC2</text></g><g stroke-linecap="round" transform="translate(361.7285800509976 623.3333333333358) rotate(0 34.44444444444434 30.555555555555657)"><path d="M23.79 0.45 C29.26 -1.48, 38.51 0, 44.92 2.26 C51.33 4.52, 58.14 9.3, 62.25 14.01 C66.36 18.72, 69.79 24.53, 69.59 30.54 C69.39 36.54, 65.41 45.44, 61.06 50.04 C56.72 54.64, 50.19 56.82, 43.52 58.15 C36.85 59.47, 27.64 59.48, 21.03 57.96 C14.41 56.45, 7.53 53.59, 3.83 49.03 C0.13 44.48, -1.65 36.55, -1.17 30.65 C-0.7 24.74, -0.9 18.59, 6.69 13.6 C14.27 8.62, 36.07 1.34, 44.34 0.75 C52.62 0.17, 56.75 9.37, 56.32 10.09 M28.02 3.82 C34.08 2.02, 38.59 2.96, 44.58 4.19 C50.58 5.42, 60.15 6.94, 63.97 11.21 C67.79 15.47, 68.39 23.36, 67.5 29.8 C66.61 36.24, 62.89 45.29, 58.64 49.87 C54.38 54.45, 48.21 55.62, 41.97 57.27 C35.73 58.91, 27.41 61.16, 21.2 59.73 C15 58.29, 7.99 53.89, 4.74 48.68 C1.49 43.47, 0.88 34.76, 1.71 28.46 C2.54 22.17, 5.81 15.64, 9.73 10.89 C13.66 6.15, 22.59 1.26, 25.28 -0.03 C27.96 -1.31, 25.35 2.56, 25.87 3.16" stroke="#1971c2" stroke-width="4" fill="none"></path></g><g transform="translate(380.2451332877754 643.7828483526355) rotate(0 16.071990966796875 10)"><text x="16.071990966796875" y="14.016" font-family="Virgil, Segoe UI Emoji" font-size="16px" fill="#1971c2" text-anchor="middle" style="white-space: pre;" direction="ltr" dominant-baseline="alphabetic">EBS</text></g><g transform="translate(285.06191338433064 688.8888888888905) rotate(0 112.6319351196289 10)"><text x="0" y="14.016" font-family="Virgil, Segoe UI Emoji" font-size="16px" fill="#1971c2" text-anchor="start" style="white-space: pre;" direction="ltr" dominant-baseline="alphabetic">io2 volume with multi-attach</text></g><g stroke-linecap="round"><g transform="translate(372.83969116210847 627.7777777777792) rotate(0 -33.888888888888914 -37.777777777777374)"><path d="M1.27 -1.38 C-9.97 -13.86, -57.13 -64.41, -68.38 -76.63 M-1.48 4.04 C-13.06 -7.89, -60 -59.62, -70.94 -73.58" stroke="#1971c2" stroke-width="4" fill="none"></path></g><g transform="translate(372.83969116210847 627.7777777777792) rotate(0 -33.888888888888914 -37.777777777777374)"><path d="M-50.17 -61.69 C-55.66 -63.32, -60.04 -66.82, -71.49 -74.4 M-49.27 -60.82 C-54.76 -64.56, -58.35 -67.12, -71.77 -72.92" stroke="#1971c2" stroke-width="4" fill="none"></path></g><g transform="translate(372.83969116210847 627.7777777777792) rotate(0 -33.888888888888914 -37.777777777777374)"><path d="M-63.18 -50.59 C-65.14 -55.22, -66.07 -61.68, -71.49 -74.4 M-62.27 -49.72 C-64.76 -56.01, -65.42 -61.08, -71.77 -72.92" stroke="#1971c2" stroke-width="4" fill="none"></path></g></g><mask></mask><g stroke-linecap="round"><g transform="translate(397.2841356065528 620.0000000000018) rotate(0 -2.777777777777601 -31.111111111111313)"><path d="M-2.8 -2.06 C-3.92 -12.68, -6.29 -53.71, -7.16 -63.53 M0.88 3 C0.72 -7.29, -1.07 -49.13, -1.63 -60.6" stroke="#1971c2" stroke-width="4" fill="none"></path></g><g transform="translate(397.2841356065528 620.0000000000018) rotate(0 -2.777777777777601 -31.111111111111313)"><path d="M6.5 -38.67 C4.29 -45.91, 3.4 -51.64, 0.2 -60.17 M8.57 -37.15 C5.54 -44.84, 1.88 -51.9, -1.46 -60.4" stroke="#1971c2" stroke-width="4" fill="none"></path></g><g transform="translate(397.2841356065528 620.0000000000018) rotate(0 -2.777777777777601 -31.111111111111313)"><path d="M-10.58 -37.9 C-7.94 -45.19, -3.99 -51.14, 0.2 -60.17 M-8.52 -36.38 C-6.47 -44.4, -5.06 -51.69, -1.46 -60.4" stroke="#1971c2" stroke-width="4" fill="none"></path></g></g><mask></mask><g stroke-linecap="round"><g transform="translate(422.83969116210847 635.5555555555584) rotate(0 37.22222222222217 -37.222222222222626)"><path d="M0.72 -0.95 C13.08 -13.67, 60.59 -61.83, 73.34 -73.63 M-2.33 -3.93 C9.62 -16.33, 57.29 -66.22, 70.5 -78.19" stroke="#1971c2" stroke-width="4" fill="none"></path></g><g transform="translate(422.83969116210847 635.5555555555584) rotate(0 37.22222222222217 -37.222222222222626)"><path d="M59.07 -56.41 C63.04 -59.8, 67.32 -67.91, 68.93 -79.56 M59.82 -56.31 C64.38 -64.27, 68.02 -71.52, 71.16 -77.78" stroke="#1971c2" stroke-width="4" fill="none"></path></g><g transform="translate(422.83969116210847 635.5555555555584) rotate(0 37.22222222222217 -37.222222222222626)"><path d="M47.08 -68.61 C54.43 -68.71, 61.97 -73.5, 68.93 -79.56 M47.83 -68.51 C56.94 -71.79, 65.09 -74.46, 71.16 -77.78" stroke="#1971c2" stroke-width="4" fill="none"></path></g></g><mask></mask></svg>