<svg version="1.1" xmlns="http://www.w3.org/2000/svg" viewBox="0 0 801.8174040082772 1002.1539909231833" width="801.8174040082772" height="1002.1539909231833">
  <!-- svg-source:excalidraw -->
  
  <defs>
    <style class="style-fonts">
      @font-face {
        font-family: "Virgil";
        src: url("https://excalidraw.com/Virgil.woff2");
      }
      @font-face {
        font-family: "Cascadia";
        src: url("https://excalidraw.com/Cascadia.woff2");
      }
      @font-face {
        font-family: "Assistant";
        src: url("https://excalidraw.com/Assistant-Regular.woff2");
      }
    </style>
    
  </defs>
  <rect x="0" y="0" width="801.8174040082772" height="1002.1539909231833" fill="#ffffff"></rect><g stroke-linecap="round" transform="translate(203.74767780394677 10) rotate(0 197.1610242001916 64.677161377841)"><path d="M32 0 C101.98 -1.85, 172.02 -1.62, 362.32 0 M32 0 C113.05 3, 196.06 2.54, 362.32 0 M362.32 0 C382.48 -3.38, 391.38 9.57, 394.32 32 M362.32 0 C384.86 -2.6, 397.73 7.26, 394.32 32 M394.32 32 C395.4 47.48, 396.46 65.93, 394.32 97.35 M394.32 32 C394.8 57.63, 395.2 81.48, 394.32 97.35 M394.32 97.35 C391.7 116.67, 382.74 132.38, 362.32 129.35 M394.32 97.35 C394.23 121.89, 386 127.15, 362.32 129.35 M362.32 129.35 C240.42 135.28, 118.68 135.75, 32 129.35 M362.32 129.35 C262.38 130.51, 161.51 128.41, 32 129.35 M32 129.35 C10.9 125.85, 3.2 118.22, 0 97.35 M32 129.35 C13.33 128.69, -4.05 122.27, 0 97.35 M0 97.35 C1.81 87.15, -1.66 70.16, 0 32 M0 97.35 C1.68 79.06, -0.6 61.97, 0 32 M0 32 C-1.8 14.52, 10.43 0.44, 32 0 M0 32 C-4.13 8.05, 13.58 2.36, 32 0" stroke="#1971c2" stroke-width="4" fill="none"></path></g><g transform="translate(266.4287978293337 62.17716137784009) rotate(0 134.4799041748047 12.5)"><text x="134.4799041748047" y="17.52" font-family="Virgil, Segoe UI Emoji" font-size="20px" fill="#1971c2" text-anchor="middle" style="white-space: pre;" direction="ltr" dominant-baseline="alphabetic">Cross Zone Load Balancing</text></g><g transform="translate(89.86896811741963 165.43382331126304) rotate(0 311.03973388671875 25)"><text x="311.03973388671875" y="17.52" font-family="Virgil, Segoe UI Emoji" font-size="20px" fill="#2f9e44" text-anchor="middle" style="white-space: pre;" direction="ltr" dominant-baseline="alphabetic">Each load balancer instance distributes traffic evenly across </text><text x="311.03973388671875" y="42.519999999999996" font-family="Virgil, Segoe UI Emoji" font-size="20px" fill="#2f9e44" text-anchor="middle" style="white-space: pre;" direction="ltr" dominant-baseline="alphabetic">all registered instances in all AZ</text></g><g stroke-linecap="round" transform="translate(10 550.3672515116377) rotate(0 107.44754228899342 131.96227281123993)"><path d="M32 0 C93.41 -0.25, 147.93 1.82, 182.9 0 M32 0 C82.96 -1.96, 130.93 -3.62, 182.9 0 M182.9 0 C207.66 -3.09, 214.87 8.62, 214.9 32 M182.9 0 C199.76 -1.19, 217.81 11, 214.9 32 M214.9 32 C217.84 100.42, 212.18 163.84, 214.9 231.92 M214.9 32 C214.11 93.17, 213.33 151.02, 214.9 231.92 M214.9 231.92 C217.44 251.7, 205.4 267.82, 182.9 263.92 M214.9 231.92 C217.11 250.92, 199.88 267.5, 182.9 263.92 M182.9 263.92 C127.96 260.8, 72.43 264.07, 32 263.92 M182.9 263.92 C122.22 264.96, 62.26 265.53, 32 263.92 M32 263.92 C7.05 264.89, -1.07 255.14, 0 231.92 M32 263.92 C10.71 261.37, -1.59 256.09, 0 231.92 M0 231.92 C-1.38 182.05, -6.07 142.86, 0 32 M0 231.92 C-2.18 164.68, -3.41 98.39, 0 32 M0 32 C-3.89 9.1, 11.38 1.45, 32 0 M0 32 C0.55 7.5, 6.7 0.33, 32 0" stroke="#2f9e44" stroke-width="1" fill="none"></path></g><g transform="translate(37.83265083234028 558.7126916894231) rotate(0 22.239990234375 12.5)"><text x="0" y="17.52" font-family="Virgil, Segoe UI Emoji" font-size="20px" fill="#2f9e44" text-anchor="start" style="white-space: pre;" direction="ltr" dominant-baseline="alphabetic">AZ 1</text></g><g stroke-linecap="round" transform="translate(134.66739792989574 730.3438522592351) rotate(0 28.90434415922323 29.702583719272297)"><path d="M57.81 29.7 C57.81 31.42, 57.66 33.17, 57.37 34.86 C57.08 36.55, 56.64 38.25, 56.07 39.86 C55.49 41.48, 54.77 43.06, 53.94 44.55 C53.1 46.04, 52.12 47.48, 51.05 48.8 C49.97 50.11, 48.77 51.35, 47.48 52.46 C46.2 53.56, 44.81 54.57, 43.36 55.43 C41.91 56.29, 40.36 57.03, 38.79 57.61 C37.22 58.2, 35.57 58.66, 33.92 58.95 C32.28 59.25, 30.58 59.41, 28.9 59.41 C27.23 59.41, 25.53 59.25, 23.89 58.95 C22.24 58.66, 20.59 58.2, 19.02 57.61 C17.45 57.03, 15.9 56.29, 14.45 55.43 C13 54.57, 11.61 53.56, 10.32 52.46 C9.04 51.35, 7.84 50.11, 6.76 48.8 C5.69 47.48, 4.71 46.04, 3.87 44.55 C3.04 43.06, 2.32 41.48, 1.74 39.86 C1.17 38.25, 0.73 36.55, 0.44 34.86 C0.15 33.17, 0 31.42, 0 29.7 C0 27.98, 0.15 26.24, 0.44 24.54 C0.73 22.85, 1.17 21.16, 1.74 19.54 C2.32 17.93, 3.04 16.34, 3.87 14.85 C4.71 13.36, 5.69 11.93, 6.76 10.61 C7.84 9.29, 9.04 8.05, 10.32 6.95 C11.61 5.84, 13 4.84, 14.45 3.98 C15.9 3.12, 17.45 2.38, 19.02 1.79 C20.59 1.2, 22.24 0.75, 23.89 0.45 C25.53 0.15, 27.23 0, 28.9 0 C30.58 0, 32.28 0.15, 33.92 0.45 C35.57 0.75, 37.22 1.2, 38.79 1.79 C40.36 2.38, 41.91 3.12, 43.36 3.98 C44.81 4.84, 46.2 5.84, 47.48 6.95 C48.77 8.05, 49.97 9.29, 51.05 10.61 C52.12 11.93, 53.1 13.36, 53.94 14.85 C54.77 16.34, 55.49 17.93, 56.07 19.54 C56.64 21.16, 57.08 22.85, 57.37 24.54 C57.66 26.24, 57.74 28.84, 57.81 29.7 C57.88 30.56, 57.88 28.84, 57.81 29.7" stroke="none" stroke-width="0" fill="#fd7e14"></path><path d="M57.81 29.7 C57.81 31.42, 57.66 33.17, 57.37 34.86 C57.08 36.55, 56.64 38.25, 56.07 39.86 C55.49 41.48, 54.77 43.06, 53.94 44.55 C53.1 46.04, 52.12 47.48, 51.05 48.8 C49.97 50.11, 48.77 51.35, 47.48 52.46 C46.2 53.56, 44.81 54.57, 43.36 55.43 C41.91 56.29, 40.36 57.03, 38.79 57.61 C37.22 58.2, 35.57 58.66, 33.92 58.95 C32.28 59.25, 30.58 59.41, 28.9 59.41 C27.23 59.41, 25.53 59.25, 23.89 58.95 C22.24 58.66, 20.59 58.2, 19.02 57.61 C17.45 57.03, 15.9 56.29, 14.45 55.43 C13 54.57, 11.61 53.56, 10.32 52.46 C9.04 51.35, 7.84 50.11, 6.76 48.8 C5.69 47.48, 4.71 46.04, 3.87 44.55 C3.04 43.06, 2.32 41.48, 1.74 39.86 C1.17 38.25, 0.73 36.55, 0.44 34.86 C0.15 33.17, 0 31.42, 0 29.7 C0 27.98, 0.15 26.24, 0.44 24.54 C0.73 22.85, 1.17 21.16, 1.74 19.54 C2.32 17.93, 3.04 16.34, 3.87 14.85 C4.71 13.36, 5.69 11.93, 6.76 10.61 C7.84 9.29, 9.04 8.05, 10.32 6.95 C11.61 5.84, 13 4.84, 14.45 3.98 C15.9 3.12, 17.45 2.38, 19.02 1.79 C20.59 1.2, 22.24 0.75, 23.89 0.45 C25.53 0.15, 27.23 0, 28.9 0 C30.58 0, 32.28 0.15, 33.92 0.45 C35.57 0.75, 37.22 1.2, 38.79 1.79 C40.36 2.38, 41.91 3.12, 43.36 3.98 C44.81 4.84, 46.2 5.84, 47.48 6.95 C48.77 8.05, 49.97 9.29, 51.05 10.61 C52.12 11.93, 53.1 13.36, 53.94 14.85 C54.77 16.34, 55.49 17.93, 56.07 19.54 C56.64 21.16, 57.08 22.85, 57.37 24.54 C57.66 26.24, 57.74 28.84, 57.81 29.7 C57.88 30.56, 57.88 28.84, 57.81 29.7" stroke="#fd7e14" stroke-width="2" fill="none"></path></g><g stroke-linecap="round" transform="translate(148.2652743005774 744.2502616733527) rotate(0 14.655319563152261 17.5)"><path d="M7.33 0 C11.87 0, 16.41 0, 21.98 0 C26.87 0, 29.31 2.44, 29.31 7.33 C29.31 12.94, 29.31 18.54, 29.31 27.67 C29.31 32.56, 26.87 35, 21.98 35 C18.19 35, 14.4 35, 7.33 35 C2.44 35, 0 32.56, 0 27.67 C0 19.83, 0 12, 0 7.33 C0 2.44, 2.44 0, 7.33 0" stroke="none" stroke-width="0" fill="#fd7e14"></path><path d="M7.33 0 C12.28 0, 17.24 0, 21.98 0 M7.33 0 C10.54 0, 13.75 0, 21.98 0 M21.98 0 C26.87 0, 29.31 2.44, 29.31 7.33 M21.98 0 C26.87 0, 29.31 2.44, 29.31 7.33 M29.31 7.33 C29.31 12.95, 29.31 18.57, 29.31 27.67 M29.31 7.33 C29.31 12.94, 29.31 18.55, 29.31 27.67 M29.31 27.67 C29.31 32.56, 26.87 35, 21.98 35 M29.31 27.67 C29.31 32.56, 26.87 35, 21.98 35 M21.98 35 C16.86 35, 11.74 35, 7.33 35 M21.98 35 C16.55 35, 11.11 35, 7.33 35 M7.33 35 C2.44 35, 0 32.56, 0 27.67 M7.33 35 C2.44 35, 0 32.56, 0 27.67 M0 27.67 C0 20.48, 0 13.28, 0 7.33 M0 27.67 C0 20.33, 0 12.98, 0 7.33 M0 7.33 C0 2.44, 2.44 0, 7.33 0 M0 7.33 C0 2.44, 2.44 0, 7.33 0" stroke="#fff" stroke-width="2" fill="none"></path></g><g transform="translate(153.33059752583904 749.2502616733527) rotate(0 9.589996337890625 12.5)"><text x="9.589996337890625" y="17.52" font-family="Virgil, Segoe UI Emoji" font-size="20px" fill="#ffffff" text-anchor="middle" style="white-space: pre;" direction="ltr" dominant-baseline="alphabetic">10</text></g><g stroke-linecap="round" transform="translate(33.25465695193907 730.3438522592351) rotate(0 28.904344159223 29.702583719272297)"><path d="M57.81 29.7 C57.81 31.42, 57.66 33.17, 57.37 34.86 C57.08 36.55, 56.64 38.25, 56.07 39.86 C55.49 41.48, 54.77 43.06, 53.94 44.55 C53.1 46.04, 52.12 47.48, 51.05 48.8 C49.97 50.11, 48.77 51.35, 47.48 52.46 C46.2 53.56, 44.81 54.57, 43.36 55.43 C41.91 56.29, 40.36 57.03, 38.79 57.61 C37.22 58.2, 35.57 58.66, 33.92 58.95 C32.28 59.25, 30.58 59.41, 28.9 59.41 C27.23 59.41, 25.53 59.25, 23.89 58.95 C22.24 58.66, 20.59 58.2, 19.02 57.61 C17.45 57.03, 15.9 56.29, 14.45 55.43 C13 54.57, 11.61 53.56, 10.32 52.46 C9.04 51.35, 7.84 50.11, 6.76 48.8 C5.69 47.48, 4.71 46.04, 3.87 44.55 C3.04 43.06, 2.32 41.48, 1.74 39.86 C1.17 38.25, 0.73 36.55, 0.44 34.86 C0.15 33.17, 0 31.42, 0 29.7 C0 27.98, 0.15 26.24, 0.44 24.54 C0.73 22.85, 1.17 21.16, 1.74 19.54 C2.32 17.93, 3.04 16.34, 3.87 14.85 C4.71 13.36, 5.69 11.93, 6.76 10.61 C7.84 9.29, 9.04 8.05, 10.32 6.95 C11.61 5.84, 13 4.84, 14.45 3.98 C15.9 3.12, 17.45 2.38, 19.02 1.79 C20.59 1.2, 22.24 0.75, 23.89 0.45 C25.53 0.15, 27.23 0, 28.9 0 C30.58 0, 32.28 0.15, 33.92 0.45 C35.57 0.75, 37.22 1.2, 38.79 1.79 C40.36 2.38, 41.91 3.12, 43.36 3.98 C44.81 4.84, 46.2 5.84, 47.48 6.95 C48.77 8.05, 49.97 9.29, 51.05 10.61 C52.12 11.93, 53.1 13.36, 53.94 14.85 C54.77 16.34, 55.49 17.93, 56.07 19.54 C56.64 21.16, 57.08 22.85, 57.37 24.54 C57.66 26.24, 57.74 28.84, 57.81 29.7 C57.88 30.56, 57.88 28.84, 57.81 29.7" stroke="none" stroke-width="0" fill="#fd7e14"></path><path d="M57.81 29.7 C57.81 31.42, 57.66 33.17, 57.37 34.86 C57.08 36.55, 56.64 38.25, 56.07 39.86 C55.49 41.48, 54.77 43.06, 53.94 44.55 C53.1 46.04, 52.12 47.48, 51.05 48.8 C49.97 50.11, 48.77 51.35, 47.48 52.46 C46.2 53.56, 44.81 54.57, 43.36 55.43 C41.91 56.29, 40.36 57.03, 38.79 57.61 C37.22 58.2, 35.57 58.66, 33.92 58.95 C32.28 59.25, 30.58 59.41, 28.9 59.41 C27.23 59.41, 25.53 59.25, 23.89 58.95 C22.24 58.66, 20.59 58.2, 19.02 57.61 C17.45 57.03, 15.9 56.29, 14.45 55.43 C13 54.57, 11.61 53.56, 10.32 52.46 C9.04 51.35, 7.84 50.11, 6.76 48.8 C5.69 47.48, 4.71 46.04, 3.87 44.55 C3.04 43.06, 2.32 41.48, 1.74 39.86 C1.17 38.25, 0.73 36.55, 0.44 34.86 C0.15 33.17, 0 31.42, 0 29.7 C0 27.98, 0.15 26.24, 0.44 24.54 C0.73 22.85, 1.17 21.16, 1.74 19.54 C2.32 17.93, 3.04 16.34, 3.87 14.85 C4.71 13.36, 5.69 11.93, 6.76 10.61 C7.84 9.29, 9.04 8.05, 10.32 6.95 C11.61 5.84, 13 4.84, 14.45 3.98 C15.9 3.12, 17.45 2.38, 19.02 1.79 C20.59 1.2, 22.24 0.75, 23.89 0.45 C25.53 0.15, 27.23 0, 28.9 0 C30.58 0, 32.28 0.15, 33.92 0.45 C35.57 0.75, 37.22 1.2, 38.79 1.79 C40.36 2.38, 41.91 3.12, 43.36 3.98 C44.81 4.84, 46.2 5.84, 47.48 6.95 C48.77 8.05, 49.97 9.29, 51.05 10.61 C52.12 11.93, 53.1 13.36, 53.94 14.85 C54.77 16.34, 55.49 17.93, 56.07 19.54 C56.64 21.16, 57.08 22.85, 57.37 24.54 C57.66 26.24, 57.74 28.84, 57.81 29.7 C57.88 30.56, 57.88 28.84, 57.81 29.7" stroke="#fd7e14" stroke-width="2" fill="none"></path></g><g stroke-linecap="round" transform="translate(46.85253332262073 744.2502616733564) rotate(0 14.655319563152261 17.5)"><path d="M7.33 0 C12.05 0, 16.76 0, 21.98 0 C26.87 0, 29.31 2.44, 29.31 7.33 C29.31 14.57, 29.31 21.81, 29.31 27.67 C29.31 32.56, 26.87 35, 21.98 35 C16.97 35, 11.95 35, 7.33 35 C2.44 35, 0 32.56, 0 27.67 C0 22.12, 0 16.57, 0 7.33 C0 2.44, 2.44 0, 7.33 0" stroke="none" stroke-width="0" fill="#fd7e14"></path><path d="M7.33 0 C12.17 0, 17.01 0, 21.98 0 M7.33 0 C10.93 0, 14.53 0, 21.98 0 M21.98 0 C26.87 0, 29.31 2.44, 29.31 7.33 M21.98 0 C26.87 0, 29.31 2.44, 29.31 7.33 M29.31 7.33 C29.31 13.95, 29.31 20.57, 29.31 27.67 M29.31 7.33 C29.31 13.61, 29.31 19.9, 29.31 27.67 M29.31 27.67 C29.31 32.56, 26.87 35, 21.98 35 M29.31 27.67 C29.31 32.56, 26.87 35, 21.98 35 M21.98 35 C16.52 35, 11.06 35, 7.33 35 M21.98 35 C17.6 35, 13.23 35, 7.33 35 M7.33 35 C2.44 35, 0 32.56, 0 27.67 M7.33 35 C2.44 35, 0 32.56, 0 27.67 M0 27.67 C0 21.97, 0 16.27, 0 7.33 M0 27.67 C0 20.24, 0 12.81, 0 7.33 M0 7.33 C0 2.44, 2.44 0, 7.33 0 M0 7.33 C0 2.44, 2.44 0, 7.33 0" stroke="#ffffff" stroke-width="2" fill="none"></path></g><g transform="translate(51.917856547882366 749.2502616733564) rotate(0 9.589996337890625 12.5)"><text x="9.589996337890625" y="17.52" font-family="Virgil, Segoe UI Emoji" font-size="20px" fill="#ffffff" text-anchor="middle" style="white-space: pre;" direction="ltr" dominant-baseline="alphabetic">10</text></g><g stroke-linecap="round" transform="translate(434.09870168178577 543.5865813671917) rotate(0 178.85935116324572 224.2837047779958)"><path d="M32 0 C104.99 -6.25, 172.46 -4.21, 325.72 0 M32 0 C101.16 0.32, 169.14 0.01, 325.72 0 M325.72 0 C347.94 3.57, 356.67 11.59, 357.72 32 M325.72 0 C342.92 -3.14, 356.39 7.18, 357.72 32 M357.72 32 C355.25 157.47, 358.97 284.82, 357.72 416.57 M357.72 32 C360.13 147.54, 360.06 264.32, 357.72 416.57 M357.72 416.57 C355.27 437.77, 345.93 444.63, 325.72 448.57 M357.72 416.57 C358.22 440.84, 349.99 448.42, 325.72 448.57 M325.72 448.57 C215.04 445.23, 101.82 445.69, 32 448.57 M325.72 448.57 C222.96 450.24, 121.4 449.23, 32 448.57 M32 448.57 C13.75 450.11, 0.95 441.09, 0 416.57 M32 448.57 C15.02 451.06, 1.65 433.74, 0 416.57 M0 416.57 C-0.72 325.63, -2.79 235.31, 0 32 M0 416.57 C0.35 328.07, 1.62 240.9, 0 32 M0 32 C-3.54 10.42, 13.1 -0.96, 32 0 M0 32 C-4.26 6.24, 10.8 -0.43, 32 0" stroke="#2f9e44" stroke-width="1" fill="none"></path></g><g transform="translate(454.5355172155728 560.7875460718606) rotate(0 25.6639404296875 12.040441176470267)"><text x="0" y="16.87588235294111" font-family="Virgil, Segoe UI Emoji" font-size="19.264705882352864px" fill="#2f9e44" text-anchor="start" style="white-space: pre;" direction="ltr" dominant-baseline="alphabetic">AZ 2</text></g><g stroke-linecap="round" transform="translate(475.7818975389432 732.7628453654233) rotate(0 27.84168444748684 28.610576964887514)"><path d="M55.68 28.61 C55.68 30.27, 55.54 31.95, 55.26 33.58 C54.98 35.21, 54.56 36.84, 54 38.4 C53.45 39.95, 52.76 41.48, 51.95 42.92 C51.15 44.35, 50.21 45.73, 49.17 47 C48.13 48.27, 46.97 49.46, 45.74 50.53 C44.5 51.59, 43.16 52.56, 41.76 53.39 C40.37 54.22, 38.88 54.93, 37.36 55.5 C35.85 56.06, 34.26 56.5, 32.68 56.79 C31.09 57.07, 29.45 57.22, 27.84 57.22 C26.23 57.22, 24.59 57.07, 23.01 56.79 C21.42 56.5, 19.83 56.06, 18.32 55.5 C16.8 54.93, 15.32 54.22, 13.92 53.39 C12.53 52.56, 11.18 51.59, 9.95 50.53 C8.71 49.46, 7.55 48.27, 6.51 47 C5.48 45.73, 4.54 44.35, 3.73 42.92 C2.92 41.48, 2.23 39.95, 1.68 38.4 C1.13 36.84, 0.7 35.21, 0.42 33.58 C0.14 31.95, 0 30.27, 0 28.61 C0 26.95, 0.14 25.27, 0.42 23.64 C0.7 22.01, 1.13 20.38, 1.68 18.83 C2.23 17.27, 2.92 15.74, 3.73 14.31 C4.54 12.87, 5.48 11.49, 6.51 10.22 C7.55 8.95, 8.71 7.76, 9.95 6.69 C11.18 5.63, 12.53 4.66, 13.92 3.83 C15.32 3.01, 16.8 2.29, 18.32 1.73 C19.83 1.16, 21.42 0.72, 23.01 0.43 C24.59 0.15, 26.23 0, 27.84 0 C29.45 0, 31.09 0.15, 32.68 0.43 C34.26 0.72, 35.85 1.16, 37.36 1.73 C38.88 2.29, 40.37 3.01, 41.76 3.83 C43.16 4.66, 44.5 5.63, 45.74 6.69 C46.97 7.76, 48.13 8.95, 49.17 10.22 C50.21 11.49, 51.15 12.87, 51.95 14.31 C52.76 15.74, 53.45 17.27, 54 18.83 C54.56 20.38, 54.98 22.01, 55.26 23.64 C55.54 25.27, 55.61 27.78, 55.68 28.61 C55.75 29.44, 55.75 27.78, 55.68 28.61" stroke="none" stroke-width="0" fill="#fd7e14"></path><path d="M55.68 28.61 C55.68 30.27, 55.54 31.95, 55.26 33.58 C54.98 35.21, 54.56 36.84, 54 38.4 C53.45 39.95, 52.76 41.48, 51.95 42.92 C51.15 44.35, 50.21 45.73, 49.17 47 C48.13 48.27, 46.97 49.46, 45.74 50.53 C44.5 51.59, 43.16 52.56, 41.76 53.39 C40.37 54.22, 38.88 54.93, 37.36 55.5 C35.85 56.06, 34.26 56.5, 32.68 56.79 C31.09 57.07, 29.45 57.22, 27.84 57.22 C26.23 57.22, 24.59 57.07, 23.01 56.79 C21.42 56.5, 19.83 56.06, 18.32 55.5 C16.8 54.93, 15.32 54.22, 13.92 53.39 C12.53 52.56, 11.18 51.59, 9.95 50.53 C8.71 49.46, 7.55 48.27, 6.51 47 C5.48 45.73, 4.54 44.35, 3.73 42.92 C2.92 41.48, 2.23 39.95, 1.68 38.4 C1.13 36.84, 0.7 35.21, 0.42 33.58 C0.14 31.95, 0 30.27, 0 28.61 C0 26.95, 0.14 25.27, 0.42 23.64 C0.7 22.01, 1.13 20.38, 1.68 18.83 C2.23 17.27, 2.92 15.74, 3.73 14.31 C4.54 12.87, 5.48 11.49, 6.51 10.22 C7.55 8.95, 8.71 7.76, 9.95 6.69 C11.18 5.63, 12.53 4.66, 13.92 3.83 C15.32 3.01, 16.8 2.29, 18.32 1.73 C19.83 1.16, 21.42 0.72, 23.01 0.43 C24.59 0.15, 26.23 0, 27.84 0 C29.45 0, 31.09 0.15, 32.68 0.43 C34.26 0.72, 35.85 1.16, 37.36 1.73 C38.88 2.29, 40.37 3.01, 41.76 3.83 C43.16 4.66, 44.5 5.63, 45.74 6.69 C46.97 7.76, 48.13 8.95, 49.17 10.22 C50.21 11.49, 51.15 12.87, 51.95 14.31 C52.76 15.74, 53.45 17.27, 54 18.83 C54.56 20.38, 54.98 22.01, 55.26 23.64 C55.54 25.27, 55.61 27.78, 55.68 28.61 C55.75 29.44, 55.75 27.78, 55.68 28.61" stroke="#fd7e14" stroke-width="2" fill="none"></path></g><g stroke-linecap="round" transform="translate(488.87985198423166 746.1579897275478) rotate(0 14.638111060912706 17.5)"><path d="M7.32 0 C11.87 0, 16.41 0, 21.96 0 C26.84 0, 29.28 2.44, 29.28 7.32 C29.28 11.89, 29.28 16.46, 29.28 27.68 C29.28 32.56, 26.84 35, 21.96 35 C18.35 35, 14.75 35, 7.32 35 C2.44 35, 0 32.56, 0 27.68 C0 21.7, 0 15.72, 0 7.32 C0 2.44, 2.44 0, 7.32 0" stroke="none" stroke-width="0" fill="#fd7e14"></path><path d="M7.32 0 C12.95 0, 18.59 0, 21.96 0 M7.32 0 C12.86 0, 18.4 0, 21.96 0 M21.96 0 C26.84 0, 29.28 2.44, 29.28 7.32 M21.96 0 C26.84 0, 29.28 2.44, 29.28 7.32 M29.28 7.32 C29.28 13.93, 29.28 20.54, 29.28 27.68 M29.28 7.32 C29.28 15.22, 29.28 23.13, 29.28 27.68 M29.28 27.68 C29.28 32.56, 26.84 35, 21.96 35 M29.28 27.68 C29.28 32.56, 26.84 35, 21.96 35 M21.96 35 C17.64 35, 13.32 35, 7.32 35 M21.96 35 C16.56 35, 11.16 35, 7.32 35 M7.32 35 C2.44 35, 0 32.56, 0 27.68 M7.32 35 C2.44 35, 0 32.56, 0 27.68 M0 27.68 C0 20.09, 0 12.5, 0 7.32 M0 27.68 C0 23.16, 0 18.64, 0 7.32 M0 7.32 C0 2.44, 2.44 0, 7.32 0 M0 7.32 C0 2.44, 2.44 0, 7.32 0" stroke="#fff" stroke-width="2" fill="none"></path></g><g transform="translate(493.92796670725374 751.1579897275478) rotate(0 9.589996337890625 12.5)"><text x="9.589996337890625" y="17.52" font-family="Virgil, Segoe UI Emoji" font-size="20px" fill="#ffffff" text-anchor="middle" style="white-space: pre;" direction="ltr" dominant-baseline="alphabetic">10</text></g><g stroke-linecap="round" transform="translate(548.799385467008 732.7628453654233) rotate(0 27.84168444748684 28.610576964887514)"><path d="M55.68 28.61 C55.68 30.27, 55.54 31.95, 55.26 33.58 C54.98 35.21, 54.56 36.84, 54 38.4 C53.45 39.95, 52.76 41.48, 51.95 42.92 C51.15 44.35, 50.21 45.73, 49.17 47 C48.13 48.27, 46.97 49.46, 45.74 50.53 C44.5 51.59, 43.16 52.56, 41.76 53.39 C40.37 54.22, 38.88 54.93, 37.36 55.5 C35.85 56.06, 34.26 56.5, 32.68 56.79 C31.09 57.07, 29.45 57.22, 27.84 57.22 C26.23 57.22, 24.59 57.07, 23.01 56.79 C21.42 56.5, 19.83 56.06, 18.32 55.5 C16.8 54.93, 15.32 54.22, 13.92 53.39 C12.53 52.56, 11.18 51.59, 9.95 50.53 C8.71 49.46, 7.55 48.27, 6.51 47 C5.48 45.73, 4.54 44.35, 3.73 42.92 C2.92 41.48, 2.23 39.95, 1.68 38.4 C1.13 36.84, 0.7 35.21, 0.42 33.58 C0.14 31.95, 0 30.27, 0 28.61 C0 26.95, 0.14 25.27, 0.42 23.64 C0.7 22.01, 1.13 20.38, 1.68 18.83 C2.23 17.27, 2.92 15.74, 3.73 14.31 C4.54 12.87, 5.48 11.49, 6.51 10.22 C7.55 8.95, 8.71 7.76, 9.95 6.69 C11.18 5.63, 12.53 4.66, 13.92 3.83 C15.32 3.01, 16.8 2.29, 18.32 1.73 C19.83 1.16, 21.42 0.72, 23.01 0.43 C24.59 0.15, 26.23 0, 27.84 0 C29.45 0, 31.09 0.15, 32.68 0.43 C34.26 0.72, 35.85 1.16, 37.36 1.73 C38.88 2.29, 40.37 3.01, 41.76 3.83 C43.16 4.66, 44.5 5.63, 45.74 6.69 C46.97 7.76, 48.13 8.95, 49.17 10.22 C50.21 11.49, 51.15 12.87, 51.95 14.31 C52.76 15.74, 53.45 17.27, 54 18.83 C54.56 20.38, 54.98 22.01, 55.26 23.64 C55.54 25.27, 55.61 27.78, 55.68 28.61 C55.75 29.44, 55.75 27.78, 55.68 28.61" stroke="none" stroke-width="0" fill="#fd7e14"></path><path d="M55.68 28.61 C55.68 30.27, 55.54 31.95, 55.26 33.58 C54.98 35.21, 54.56 36.84, 54 38.4 C53.45 39.95, 52.76 41.48, 51.95 42.92 C51.15 44.35, 50.21 45.73, 49.17 47 C48.13 48.27, 46.97 49.46, 45.74 50.53 C44.5 51.59, 43.16 52.56, 41.76 53.39 C40.37 54.22, 38.88 54.93, 37.36 55.5 C35.85 56.06, 34.26 56.5, 32.68 56.79 C31.09 57.07, 29.45 57.22, 27.84 57.22 C26.23 57.22, 24.59 57.07, 23.01 56.79 C21.42 56.5, 19.83 56.06, 18.32 55.5 C16.8 54.93, 15.32 54.22, 13.92 53.39 C12.53 52.56, 11.18 51.59, 9.95 50.53 C8.71 49.46, 7.55 48.27, 6.51 47 C5.48 45.73, 4.54 44.35, 3.73 42.92 C2.92 41.48, 2.23 39.95, 1.68 38.4 C1.13 36.84, 0.7 35.21, 0.42 33.58 C0.14 31.95, 0 30.27, 0 28.61 C0 26.95, 0.14 25.27, 0.42 23.64 C0.7 22.01, 1.13 20.38, 1.68 18.83 C2.23 17.27, 2.92 15.74, 3.73 14.31 C4.54 12.87, 5.48 11.49, 6.51 10.22 C7.55 8.95, 8.71 7.76, 9.95 6.69 C11.18 5.63, 12.53 4.66, 13.92 3.83 C15.32 3.01, 16.8 2.29, 18.32 1.73 C19.83 1.16, 21.42 0.72, 23.01 0.43 C24.59 0.15, 26.23 0, 27.84 0 C29.45 0, 31.09 0.15, 32.68 0.43 C34.26 0.72, 35.85 1.16, 37.36 1.73 C38.88 2.29, 40.37 3.01, 41.76 3.83 C43.16 4.66, 44.5 5.63, 45.74 6.69 C46.97 7.76, 48.13 8.95, 49.17 10.22 C50.21 11.49, 51.15 12.87, 51.95 14.31 C52.76 15.74, 53.45 17.27, 54 18.83 C54.56 20.38, 54.98 22.01, 55.26 23.64 C55.54 25.27, 55.61 27.78, 55.68 28.61 C55.75 29.44, 55.75 27.78, 55.68 28.61" stroke="#fd7e14" stroke-width="2" fill="none"></path></g><g stroke-linecap="round" transform="translate(561.8973399122965 746.1579897275478) rotate(0 14.116521049801122 15.161869303794447)"><path d="M7.06 0 C11.38 0, 15.69 0, 21.17 0 C25.88 0, 28.23 2.35, 28.23 7.06 C28.23 12.27, 28.23 17.47, 28.23 23.27 C28.23 27.97, 25.88 30.32, 21.17 30.32 C17.5 30.32, 13.82 30.32, 7.06 30.32 C2.35 30.32, 0 27.97, 0 23.27 C0 17.44, 0 11.62, 0 7.06 C0 2.35, 2.35 0, 7.06 0" stroke="none" stroke-width="0" fill="#fd7e14"></path><path d="M7.06 0 C10.41 0, 13.77 0, 21.17 0 M7.06 0 C12.18 0, 17.29 0, 21.17 0 M21.17 0 C25.88 0, 28.23 2.35, 28.23 7.06 M21.17 0 C25.88 0, 28.23 2.35, 28.23 7.06 M28.23 7.06 C28.23 10.69, 28.23 14.31, 28.23 23.27 M28.23 7.06 C28.23 11.67, 28.23 16.29, 28.23 23.27 M28.23 23.27 C28.23 27.97, 25.88 30.32, 21.17 30.32 M28.23 23.27 C28.23 27.97, 25.88 30.32, 21.17 30.32 M21.17 30.32 C17.27 30.32, 13.36 30.32, 7.06 30.32 M21.17 30.32 C16.17 30.32, 11.17 30.32, 7.06 30.32 M7.06 30.32 C2.35 30.32, 0 27.97, 0 23.27 M7.06 30.32 C2.35 30.32, 0 27.97, 0 23.27 M0 23.27 C0 17.84, 0 12.41, 0 7.06 M0 23.27 C0 19.19, 0 15.12, 0 7.06 M0 7.06 C0 2.35, 2.35 0, 7.06 0 M0 7.06 C0 2.35, 2.35 0, 7.06 0" stroke="#fff" stroke-width="2" fill="none"></path></g><g transform="translate(568.3418638917851 751.3198590313423) rotate(0 7.6719970703125 10)"><text x="7.6719970703125" y="14.016" font-family="Virgil, Segoe UI Emoji" font-size="16px" fill="#ffffff" text-anchor="middle" style="white-space: pre;" direction="ltr" dominant-baseline="alphabetic">10</text></g><g stroke-linecap="round" transform="translate(621.8168733950738 732.7628453654233) rotate(0 27.84168444748684 28.610576964887514)"><path d="M55.68 28.61 C55.68 30.27, 55.54 31.95, 55.26 33.58 C54.98 35.21, 54.56 36.84, 54 38.4 C53.45 39.95, 52.76 41.48, 51.95 42.92 C51.15 44.35, 50.21 45.73, 49.17 47 C48.13 48.27, 46.97 49.46, 45.74 50.53 C44.5 51.59, 43.16 52.56, 41.76 53.39 C40.37 54.22, 38.88 54.93, 37.36 55.5 C35.85 56.06, 34.26 56.5, 32.68 56.79 C31.09 57.07, 29.45 57.22, 27.84 57.22 C26.23 57.22, 24.59 57.07, 23.01 56.79 C21.42 56.5, 19.83 56.06, 18.32 55.5 C16.8 54.93, 15.32 54.22, 13.92 53.39 C12.53 52.56, 11.18 51.59, 9.95 50.53 C8.71 49.46, 7.55 48.27, 6.51 47 C5.48 45.73, 4.54 44.35, 3.73 42.92 C2.92 41.48, 2.23 39.95, 1.68 38.4 C1.13 36.84, 0.7 35.21, 0.42 33.58 C0.14 31.95, 0 30.27, 0 28.61 C0 26.95, 0.14 25.27, 0.42 23.64 C0.7 22.01, 1.13 20.38, 1.68 18.83 C2.23 17.27, 2.92 15.74, 3.73 14.31 C4.54 12.87, 5.48 11.49, 6.51 10.22 C7.55 8.95, 8.71 7.76, 9.95 6.69 C11.18 5.63, 12.53 4.66, 13.92 3.83 C15.32 3.01, 16.8 2.29, 18.32 1.73 C19.83 1.16, 21.42 0.72, 23.01 0.43 C24.59 0.15, 26.23 0, 27.84 0 C29.45 0, 31.09 0.15, 32.68 0.43 C34.26 0.72, 35.85 1.16, 37.36 1.73 C38.88 2.29, 40.37 3.01, 41.76 3.83 C43.16 4.66, 44.5 5.63, 45.74 6.69 C46.97 7.76, 48.13 8.95, 49.17 10.22 C50.21 11.49, 51.15 12.87, 51.95 14.31 C52.76 15.74, 53.45 17.27, 54 18.83 C54.56 20.38, 54.98 22.01, 55.26 23.64 C55.54 25.27, 55.61 27.78, 55.68 28.61 C55.75 29.44, 55.75 27.78, 55.68 28.61" stroke="none" stroke-width="0" fill="#fd7e14"></path><path d="M55.68 28.61 C55.68 30.27, 55.54 31.95, 55.26 33.58 C54.98 35.21, 54.56 36.84, 54 38.4 C53.45 39.95, 52.76 41.48, 51.95 42.92 C51.15 44.35, 50.21 45.73, 49.17 47 C48.13 48.27, 46.97 49.46, 45.74 50.53 C44.5 51.59, 43.16 52.56, 41.76 53.39 C40.37 54.22, 38.88 54.93, 37.36 55.5 C35.85 56.06, 34.26 56.5, 32.68 56.79 C31.09 57.07, 29.45 57.22, 27.84 57.22 C26.23 57.22, 24.59 57.07, 23.01 56.79 C21.42 56.5, 19.83 56.06, 18.32 55.5 C16.8 54.93, 15.32 54.22, 13.92 53.39 C12.53 52.56, 11.18 51.59, 9.95 50.53 C8.71 49.46, 7.55 48.27, 6.51 47 C5.48 45.73, 4.54 44.35, 3.73 42.92 C2.92 41.48, 2.23 39.95, 1.68 38.4 C1.13 36.84, 0.7 35.21, 0.42 33.58 C0.14 31.95, 0 30.27, 0 28.61 C0 26.95, 0.14 25.27, 0.42 23.64 C0.7 22.01, 1.13 20.38, 1.68 18.83 C2.23 17.27, 2.92 15.74, 3.73 14.31 C4.54 12.87, 5.48 11.49, 6.51 10.22 C7.55 8.95, 8.71 7.76, 9.95 6.69 C11.18 5.63, 12.53 4.66, 13.92 3.83 C15.32 3.01, 16.8 2.29, 18.32 1.73 C19.83 1.16, 21.42 0.72, 23.01 0.43 C24.59 0.15, 26.23 0, 27.84 0 C29.45 0, 31.09 0.15, 32.68 0.43 C34.26 0.72, 35.85 1.16, 37.36 1.73 C38.88 2.29, 40.37 3.01, 41.76 3.83 C43.16 4.66, 44.5 5.63, 45.74 6.69 C46.97 7.76, 48.13 8.95, 49.17 10.22 C50.21 11.49, 51.15 12.87, 51.95 14.31 C52.76 15.74, 53.45 17.27, 54 18.83 C54.56 20.38, 54.98 22.01, 55.26 23.64 C55.54 25.27, 55.61 27.78, 55.68 28.61 C55.75 29.44, 55.75 27.78, 55.68 28.61" stroke="#fd7e14" stroke-width="2" fill="none"></path></g><g stroke-linecap="round" transform="translate(634.9148278403622 746.1579897275533) rotate(0 14.116521049801122 15.161869303794447)"><path d="M7.06 0 C11.38 0, 15.71 0, 21.17 0 C25.88 0, 28.23 2.35, 28.23 7.06 C28.23 10.32, 28.23 13.57, 28.23 23.27 C28.23 27.97, 25.88 30.32, 21.17 30.32 C17.1 30.32, 13.02 30.32, 7.06 30.32 C2.35 30.32, 0 27.97, 0 23.27 C0 19.76, 0 16.26, 0 7.06 C0 2.35, 2.35 0, 7.06 0" stroke="none" stroke-width="0" fill="#fd7e14"></path><path d="M7.06 0 C12 0, 16.95 0, 21.17 0 M7.06 0 C11.74 0, 16.41 0, 21.17 0 M21.17 0 C25.88 0, 28.23 2.35, 28.23 7.06 M21.17 0 C25.88 0, 28.23 2.35, 28.23 7.06 M28.23 7.06 C28.23 13.33, 28.23 19.61, 28.23 23.27 M28.23 7.06 C28.23 11.29, 28.23 15.51, 28.23 23.27 M28.23 23.27 C28.23 27.97, 25.88 30.32, 21.17 30.32 M28.23 23.27 C28.23 27.97, 25.88 30.32, 21.17 30.32 M21.17 30.32 C17.85 30.32, 14.53 30.32, 7.06 30.32 M21.17 30.32 C16.66 30.32, 12.15 30.32, 7.06 30.32 M7.06 30.32 C2.35 30.32, 0 27.97, 0 23.27 M7.06 30.32 C2.35 30.32, 0 27.97, 0 23.27 M0 23.27 C0 18.07, 0 12.88, 0 7.06 M0 23.27 C0 17.55, 0 11.83, 0 7.06 M0 7.06 C0 2.35, 2.35 0, 7.06 0 M0 7.06 C0 2.35, 2.35 0, 7.06 0" stroke="#fff" stroke-width="2" fill="none"></path></g><g transform="translate(641.3593518198509 751.3198590313477) rotate(0 7.6719970703125 10)"><text x="7.6719970703125" y="14.016" font-family="Virgil, Segoe UI Emoji" font-size="16px" fill="#ffffff" text-anchor="middle" style="white-space: pre;" direction="ltr" dominant-baseline="alphabetic">10</text></g><g stroke-linecap="round" transform="translate(694.8343613231395 732.7628453654233) rotate(0 27.84168444748684 28.610576964887514)"><path d="M55.68 28.61 C55.68 30.27, 55.54 31.95, 55.26 33.58 C54.98 35.21, 54.56 36.84, 54 38.4 C53.45 39.95, 52.76 41.48, 51.95 42.92 C51.15 44.35, 50.21 45.73, 49.17 47 C48.13 48.27, 46.97 49.46, 45.74 50.53 C44.5 51.59, 43.16 52.56, 41.76 53.39 C40.37 54.22, 38.88 54.93, 37.36 55.5 C35.85 56.06, 34.26 56.5, 32.68 56.79 C31.09 57.07, 29.45 57.22, 27.84 57.22 C26.23 57.22, 24.59 57.07, 23.01 56.79 C21.42 56.5, 19.83 56.06, 18.32 55.5 C16.8 54.93, 15.32 54.22, 13.92 53.39 C12.53 52.56, 11.18 51.59, 9.95 50.53 C8.71 49.46, 7.55 48.27, 6.51 47 C5.48 45.73, 4.54 44.35, 3.73 42.92 C2.92 41.48, 2.23 39.95, 1.68 38.4 C1.13 36.84, 0.7 35.21, 0.42 33.58 C0.14 31.95, 0 30.27, 0 28.61 C0 26.95, 0.14 25.27, 0.42 23.64 C0.7 22.01, 1.13 20.38, 1.68 18.83 C2.23 17.27, 2.92 15.74, 3.73 14.31 C4.54 12.87, 5.48 11.49, 6.51 10.22 C7.55 8.95, 8.71 7.76, 9.95 6.69 C11.18 5.63, 12.53 4.66, 13.92 3.83 C15.32 3.01, 16.8 2.29, 18.32 1.73 C19.83 1.16, 21.42 0.72, 23.01 0.43 C24.59 0.15, 26.23 0, 27.84 0 C29.45 0, 31.09 0.15, 32.68 0.43 C34.26 0.72, 35.85 1.16, 37.36 1.73 C38.88 2.29, 40.37 3.01, 41.76 3.83 C43.16 4.66, 44.5 5.63, 45.74 6.69 C46.97 7.76, 48.13 8.95, 49.17 10.22 C50.21 11.49, 51.15 12.87, 51.95 14.31 C52.76 15.74, 53.45 17.27, 54 18.83 C54.56 20.38, 54.98 22.01, 55.26 23.64 C55.54 25.27, 55.61 27.78, 55.68 28.61 C55.75 29.44, 55.75 27.78, 55.68 28.61" stroke="none" stroke-width="0" fill="#fd7e14"></path><path d="M55.68 28.61 C55.68 30.27, 55.54 31.95, 55.26 33.58 C54.98 35.21, 54.56 36.84, 54 38.4 C53.45 39.95, 52.76 41.48, 51.95 42.92 C51.15 44.35, 50.21 45.73, 49.17 47 C48.13 48.27, 46.97 49.46, 45.74 50.53 C44.5 51.59, 43.16 52.56, 41.76 53.39 C40.37 54.22, 38.88 54.93, 37.36 55.5 C35.85 56.06, 34.26 56.5, 32.68 56.79 C31.09 57.07, 29.45 57.22, 27.84 57.22 C26.23 57.22, 24.59 57.07, 23.01 56.79 C21.42 56.5, 19.83 56.06, 18.32 55.5 C16.8 54.93, 15.32 54.22, 13.92 53.39 C12.53 52.56, 11.18 51.59, 9.95 50.53 C8.71 49.46, 7.55 48.27, 6.51 47 C5.48 45.73, 4.54 44.35, 3.73 42.92 C2.92 41.48, 2.23 39.95, 1.68 38.4 C1.13 36.84, 0.7 35.21, 0.42 33.58 C0.14 31.95, 0 30.27, 0 28.61 C0 26.95, 0.14 25.27, 0.42 23.64 C0.7 22.01, 1.13 20.38, 1.68 18.83 C2.23 17.27, 2.92 15.74, 3.73 14.31 C4.54 12.87, 5.48 11.49, 6.51 10.22 C7.55 8.95, 8.71 7.76, 9.95 6.69 C11.18 5.63, 12.53 4.66, 13.92 3.83 C15.32 3.01, 16.8 2.29, 18.32 1.73 C19.83 1.16, 21.42 0.72, 23.01 0.43 C24.59 0.15, 26.23 0, 27.84 0 C29.45 0, 31.09 0.15, 32.68 0.43 C34.26 0.72, 35.85 1.16, 37.36 1.73 C38.88 2.29, 40.37 3.01, 41.76 3.83 C43.16 4.66, 44.5 5.63, 45.74 6.69 C46.97 7.76, 48.13 8.95, 49.17 10.22 C50.21 11.49, 51.15 12.87, 51.95 14.31 C52.76 15.74, 53.45 17.27, 54 18.83 C54.56 20.38, 54.98 22.01, 55.26 23.64 C55.54 25.27, 55.61 27.78, 55.68 28.61 C55.75 29.44, 55.75 27.78, 55.68 28.61" stroke="#fd7e14" stroke-width="2" fill="none"></path></g><g stroke-linecap="round" transform="translate(707.932315768428 746.1579897275533) rotate(0 14.116521049801122 15.161869303794447)"><path d="M7.06 0 C11.48 0, 15.89 0, 21.17 0 C25.88 0, 28.23 2.35, 28.23 7.06 C28.23 11.38, 28.23 15.71, 28.23 23.27 C28.23 27.97, 25.88 30.32, 21.17 30.32 C15.68 30.32, 10.19 30.32, 7.06 30.32 C2.35 30.32, 0 27.97, 0 23.27 C0 17.5, 0 11.74, 0 7.06 C0 2.35, 2.35 0, 7.06 0" stroke="none" stroke-width="0" fill="#fd7e14"></path><path d="M7.06 0 C10.75 0, 14.45 0, 21.17 0 M7.06 0 C11.26 0, 15.45 0, 21.17 0 M21.17 0 C25.88 0, 28.23 2.35, 28.23 7.06 M21.17 0 C25.88 0, 28.23 2.35, 28.23 7.06 M28.23 7.06 C28.23 11.02, 28.23 14.99, 28.23 23.27 M28.23 7.06 C28.23 13.45, 28.23 19.84, 28.23 23.27 M28.23 23.27 C28.23 27.97, 25.88 30.32, 21.17 30.32 M28.23 23.27 C28.23 27.97, 25.88 30.32, 21.17 30.32 M21.17 30.32 C16.22 30.32, 11.26 30.32, 7.06 30.32 M21.17 30.32 C15.73 30.32, 10.29 30.32, 7.06 30.32 M7.06 30.32 C2.35 30.32, 0 27.97, 0 23.27 M7.06 30.32 C2.35 30.32, 0 27.97, 0 23.27 M0 23.27 C0 17.88, 0 12.5, 0 7.06 M0 23.27 C0 18.44, 0 13.61, 0 7.06 M0 7.06 C0 2.35, 2.35 0, 7.06 0 M0 7.06 C0 2.35, 2.35 0, 7.06 0" stroke="#fff" stroke-width="2" fill="none"></path></g><g transform="translate(714.3768397479166 751.3198590313477) rotate(0 7.6719970703125 10)"><text x="7.6719970703125" y="14.016" font-family="Virgil, Segoe UI Emoji" font-size="16px" fill="#ffffff" text-anchor="middle" style="white-space: pre;" direction="ltr" dominant-baseline="alphabetic">10</text></g><g stroke-linecap="round" transform="translate(474.66201310331917 891.6637081623066) rotate(0 27.84168444748684 28.610576964887514)"><path d="M55.68 28.61 C55.68 30.27, 55.54 31.95, 55.26 33.58 C54.98 35.21, 54.56 36.84, 54 38.4 C53.45 39.95, 52.76 41.48, 51.95 42.92 C51.15 44.35, 50.21 45.73, 49.17 47 C48.13 48.27, 46.97 49.46, 45.74 50.53 C44.5 51.59, 43.16 52.56, 41.76 53.39 C40.37 54.22, 38.88 54.93, 37.36 55.5 C35.85 56.06, 34.26 56.5, 32.68 56.79 C31.09 57.07, 29.45 57.22, 27.84 57.22 C26.23 57.22, 24.59 57.07, 23.01 56.79 C21.42 56.5, 19.83 56.06, 18.32 55.5 C16.8 54.93, 15.32 54.22, 13.92 53.39 C12.53 52.56, 11.18 51.59, 9.95 50.53 C8.71 49.46, 7.55 48.27, 6.51 47 C5.48 45.73, 4.54 44.35, 3.73 42.92 C2.92 41.48, 2.23 39.95, 1.68 38.4 C1.13 36.84, 0.7 35.21, 0.42 33.58 C0.14 31.95, 0 30.27, 0 28.61 C0 26.95, 0.14 25.27, 0.42 23.64 C0.7 22.01, 1.13 20.38, 1.68 18.83 C2.23 17.27, 2.92 15.74, 3.73 14.31 C4.54 12.87, 5.48 11.49, 6.51 10.22 C7.55 8.95, 8.71 7.76, 9.95 6.69 C11.18 5.63, 12.53 4.66, 13.92 3.83 C15.32 3.01, 16.8 2.29, 18.32 1.73 C19.83 1.16, 21.42 0.72, 23.01 0.43 C24.59 0.15, 26.23 0, 27.84 0 C29.45 0, 31.09 0.15, 32.68 0.43 C34.26 0.72, 35.85 1.16, 37.36 1.73 C38.88 2.29, 40.37 3.01, 41.76 3.83 C43.16 4.66, 44.5 5.63, 45.74 6.69 C46.97 7.76, 48.13 8.95, 49.17 10.22 C50.21 11.49, 51.15 12.87, 51.95 14.31 C52.76 15.74, 53.45 17.27, 54 18.83 C54.56 20.38, 54.98 22.01, 55.26 23.64 C55.54 25.27, 55.61 27.78, 55.68 28.61 C55.75 29.44, 55.75 27.78, 55.68 28.61" stroke="none" stroke-width="0" fill="#fd7e14"></path><path d="M55.68 28.61 C55.68 30.27, 55.54 31.95, 55.26 33.58 C54.98 35.21, 54.56 36.84, 54 38.4 C53.45 39.95, 52.76 41.48, 51.95 42.92 C51.15 44.35, 50.21 45.73, 49.17 47 C48.13 48.27, 46.97 49.46, 45.74 50.53 C44.5 51.59, 43.16 52.56, 41.76 53.39 C40.37 54.22, 38.88 54.93, 37.36 55.5 C35.85 56.06, 34.26 56.5, 32.68 56.79 C31.09 57.07, 29.45 57.22, 27.84 57.22 C26.23 57.22, 24.59 57.07, 23.01 56.79 C21.42 56.5, 19.83 56.06, 18.32 55.5 C16.8 54.93, 15.32 54.22, 13.92 53.39 C12.53 52.56, 11.18 51.59, 9.95 50.53 C8.71 49.46, 7.55 48.27, 6.51 47 C5.48 45.73, 4.54 44.35, 3.73 42.92 C2.92 41.48, 2.23 39.95, 1.68 38.4 C1.13 36.84, 0.7 35.21, 0.42 33.58 C0.14 31.95, 0 30.27, 0 28.61 C0 26.95, 0.14 25.27, 0.42 23.64 C0.7 22.01, 1.13 20.38, 1.68 18.83 C2.23 17.27, 2.92 15.74, 3.73 14.31 C4.54 12.87, 5.48 11.49, 6.51 10.22 C7.55 8.95, 8.71 7.76, 9.95 6.69 C11.18 5.63, 12.53 4.66, 13.92 3.83 C15.32 3.01, 16.8 2.29, 18.32 1.73 C19.83 1.16, 21.42 0.72, 23.01 0.43 C24.59 0.15, 26.23 0, 27.84 0 C29.45 0, 31.09 0.15, 32.68 0.43 C34.26 0.72, 35.85 1.16, 37.36 1.73 C38.88 2.29, 40.37 3.01, 41.76 3.83 C43.16 4.66, 44.5 5.63, 45.74 6.69 C46.97 7.76, 48.13 8.95, 49.17 10.22 C50.21 11.49, 51.15 12.87, 51.95 14.31 C52.76 15.74, 53.45 17.27, 54 18.83 C54.56 20.38, 54.98 22.01, 55.26 23.64 C55.54 25.27, 55.61 27.78, 55.68 28.61 C55.75 29.44, 55.75 27.78, 55.68 28.61" stroke="#fd7e14" stroke-width="2" fill="none"></path></g><g stroke-linecap="round" transform="translate(487.7599675486067 905.0588525244348) rotate(0 14.116521049801122 15.161869303794447)"><path d="M7.06 0 C10.84 0, 14.61 0, 21.17 0 C25.88 0, 28.23 2.35, 28.23 7.06 C28.23 10.76, 28.23 14.46, 28.23 23.27 C28.23 27.97, 25.88 30.32, 21.17 30.32 C17.43 30.32, 13.69 30.32, 7.06 30.32 C2.35 30.32, 0 27.97, 0 23.27 C0 19.68, 0 16.1, 0 7.06 C0 2.35, 2.35 0, 7.06 0" stroke="none" stroke-width="0" fill="#fd7e14"></path><path d="M7.06 0 C11.3 0, 15.54 0, 21.17 0 M7.06 0 C10.43 0, 13.81 0, 21.17 0 M21.17 0 C25.88 0, 28.23 2.35, 28.23 7.06 M21.17 0 C25.88 0, 28.23 2.35, 28.23 7.06 M28.23 7.06 C28.23 10.95, 28.23 14.84, 28.23 23.27 M28.23 7.06 C28.23 11.63, 28.23 16.2, 28.23 23.27 M28.23 23.27 C28.23 27.97, 25.88 30.32, 21.17 30.32 M28.23 23.27 C28.23 27.97, 25.88 30.32, 21.17 30.32 M21.17 30.32 C15.69 30.32, 10.2 30.32, 7.06 30.32 M21.17 30.32 C16.28 30.32, 11.38 30.32, 7.06 30.32 M7.06 30.32 C2.35 30.32, 0 27.97, 0 23.27 M7.06 30.32 C2.35 30.32, 0 27.97, 0 23.27 M0 23.27 C0 17.16, 0 11.06, 0 7.06 M0 23.27 C0 18.95, 0 14.64, 0 7.06 M0 7.06 C0 2.35, 2.35 0, 7.06 0 M0 7.06 C0 2.35, 2.35 0, 7.06 0" stroke="#fff" stroke-width="2" fill="none"></path></g><g transform="translate(494.20449152809533 910.2207218282292) rotate(0 7.6719970703125 10)"><text x="7.6719970703125" y="14.016" font-family="Virgil, Segoe UI Emoji" font-size="16px" fill="#ffffff" text-anchor="middle" style="white-space: pre;" direction="ltr" dominant-baseline="alphabetic">10</text></g><g stroke-linecap="round" transform="translate(547.6795010313858 891.6637081623066) rotate(0 27.84168444748684 28.610576964887514)"><path d="M55.68 28.61 C55.68 30.27, 55.54 31.95, 55.26 33.58 C54.98 35.21, 54.56 36.84, 54 38.4 C53.45 39.95, 52.76 41.48, 51.95 42.92 C51.15 44.35, 50.21 45.73, 49.17 47 C48.13 48.27, 46.97 49.46, 45.74 50.53 C44.5 51.59, 43.16 52.56, 41.76 53.39 C40.37 54.22, 38.88 54.93, 37.36 55.5 C35.85 56.06, 34.26 56.5, 32.68 56.79 C31.09 57.07, 29.45 57.22, 27.84 57.22 C26.23 57.22, 24.59 57.07, 23.01 56.79 C21.42 56.5, 19.83 56.06, 18.32 55.5 C16.8 54.93, 15.32 54.22, 13.92 53.39 C12.53 52.56, 11.18 51.59, 9.95 50.53 C8.71 49.46, 7.55 48.27, 6.51 47 C5.48 45.73, 4.54 44.35, 3.73 42.92 C2.92 41.48, 2.23 39.95, 1.68 38.4 C1.13 36.84, 0.7 35.21, 0.42 33.58 C0.14 31.95, 0 30.27, 0 28.61 C0 26.95, 0.14 25.27, 0.42 23.64 C0.7 22.01, 1.13 20.38, 1.68 18.83 C2.23 17.27, 2.92 15.74, 3.73 14.31 C4.54 12.87, 5.48 11.49, 6.51 10.22 C7.55 8.95, 8.71 7.76, 9.95 6.69 C11.18 5.63, 12.53 4.66, 13.92 3.83 C15.32 3.01, 16.8 2.29, 18.32 1.73 C19.83 1.16, 21.42 0.72, 23.01 0.43 C24.59 0.15, 26.23 0, 27.84 0 C29.45 0, 31.09 0.15, 32.68 0.43 C34.26 0.72, 35.85 1.16, 37.36 1.73 C38.88 2.29, 40.37 3.01, 41.76 3.83 C43.16 4.66, 44.5 5.63, 45.74 6.69 C46.97 7.76, 48.13 8.95, 49.17 10.22 C50.21 11.49, 51.15 12.87, 51.95 14.31 C52.76 15.74, 53.45 17.27, 54 18.83 C54.56 20.38, 54.98 22.01, 55.26 23.64 C55.54 25.27, 55.61 27.78, 55.68 28.61 C55.75 29.44, 55.75 27.78, 55.68 28.61" stroke="none" stroke-width="0" fill="#fd7e14"></path><path d="M55.68 28.61 C55.68 30.27, 55.54 31.95, 55.26 33.58 C54.98 35.21, 54.56 36.84, 54 38.4 C53.45 39.95, 52.76 41.48, 51.95 42.92 C51.15 44.35, 50.21 45.73, 49.17 47 C48.13 48.27, 46.97 49.46, 45.74 50.53 C44.5 51.59, 43.16 52.56, 41.76 53.39 C40.37 54.22, 38.88 54.93, 37.36 55.5 C35.85 56.06, 34.26 56.5, 32.68 56.79 C31.09 57.07, 29.45 57.22, 27.84 57.22 C26.23 57.22, 24.59 57.07, 23.01 56.79 C21.42 56.5, 19.83 56.06, 18.32 55.5 C16.8 54.93, 15.32 54.22, 13.92 53.39 C12.53 52.56, 11.18 51.59, 9.95 50.53 C8.71 49.46, 7.55 48.27, 6.51 47 C5.48 45.73, 4.54 44.35, 3.73 42.92 C2.92 41.48, 2.23 39.95, 1.68 38.4 C1.13 36.84, 0.7 35.21, 0.42 33.58 C0.14 31.95, 0 30.27, 0 28.61 C0 26.95, 0.14 25.27, 0.42 23.64 C0.7 22.01, 1.13 20.38, 1.68 18.83 C2.23 17.27, 2.92 15.74, 3.73 14.31 C4.54 12.87, 5.48 11.49, 6.51 10.22 C7.55 8.95, 8.71 7.76, 9.95 6.69 C11.18 5.63, 12.53 4.66, 13.92 3.83 C15.32 3.01, 16.8 2.29, 18.32 1.73 C19.83 1.16, 21.42 0.72, 23.01 0.43 C24.59 0.15, 26.23 0, 27.84 0 C29.45 0, 31.09 0.15, 32.68 0.43 C34.26 0.72, 35.85 1.16, 37.36 1.73 C38.88 2.29, 40.37 3.01, 41.76 3.83 C43.16 4.66, 44.5 5.63, 45.74 6.69 C46.97 7.76, 48.13 8.95, 49.17 10.22 C50.21 11.49, 51.15 12.87, 51.95 14.31 C52.76 15.74, 53.45 17.27, 54 18.83 C54.56 20.38, 54.98 22.01, 55.26 23.64 C55.54 25.27, 55.61 27.78, 55.68 28.61 C55.75 29.44, 55.75 27.78, 55.68 28.61" stroke="#fd7e14" stroke-width="2" fill="none"></path></g><g stroke-linecap="round" transform="translate(560.7774554766734 905.0588525244348) rotate(0 14.116521049801122 15.161869303794447)"><path d="M7.06 0 C10.87 0, 14.69 0, 21.17 0 C25.88 0, 28.23 2.35, 28.23 7.06 C28.23 13.27, 28.23 19.48, 28.23 23.27 C28.23 27.97, 25.88 30.32, 21.17 30.32 C16.73 30.32, 12.29 30.32, 7.06 30.32 C2.35 30.32, 0 27.97, 0 23.27 C0 17.27, 0 11.27, 0 7.06 C0 2.35, 2.35 0, 7.06 0" stroke="none" stroke-width="0" fill="#fd7e14"></path><path d="M7.06 0 C10.12 0, 13.19 0, 21.17 0 M7.06 0 C12.09 0, 17.13 0, 21.17 0 M21.17 0 C25.88 0, 28.23 2.35, 28.23 7.06 M21.17 0 C25.88 0, 28.23 2.35, 28.23 7.06 M28.23 7.06 C28.23 12.54, 28.23 18.01, 28.23 23.27 M28.23 7.06 C28.23 12.72, 28.23 18.38, 28.23 23.27 M28.23 23.27 C28.23 27.97, 25.88 30.32, 21.17 30.32 M28.23 23.27 C28.23 27.97, 25.88 30.32, 21.17 30.32 M21.17 30.32 C17.36 30.32, 13.54 30.32, 7.06 30.32 M21.17 30.32 C17.7 30.32, 14.23 30.32, 7.06 30.32 M7.06 30.32 C2.35 30.32, 0 27.97, 0 23.27 M7.06 30.32 C2.35 30.32, 0 27.97, 0 23.27 M0 23.27 C0 18.63, 0 13.99, 0 7.06 M0 23.27 C0 18.27, 0 13.27, 0 7.06 M0 7.06 C0 2.35, 2.35 0, 7.06 0 M0 7.06 C0 2.35, 2.35 0, 7.06 0" stroke="#fff" stroke-width="2" fill="none"></path></g><g transform="translate(567.221979456162 910.2207218282292) rotate(0 7.6719970703125 10)"><text x="7.6719970703125" y="14.016" font-family="Virgil, Segoe UI Emoji" font-size="16px" fill="#ffffff" text-anchor="middle" style="white-space: pre;" direction="ltr" dominant-baseline="alphabetic">10</text></g><g stroke-linecap="round" transform="translate(620.6969889594525 891.6637081623066) rotate(0 27.84168444748684 28.610576964887514)"><path d="M55.68 28.61 C55.68 30.27, 55.54 31.95, 55.26 33.58 C54.98 35.21, 54.56 36.84, 54 38.4 C53.45 39.95, 52.76 41.48, 51.95 42.92 C51.15 44.35, 50.21 45.73, 49.17 47 C48.13 48.27, 46.97 49.46, 45.74 50.53 C44.5 51.59, 43.16 52.56, 41.76 53.39 C40.37 54.22, 38.88 54.93, 37.36 55.5 C35.85 56.06, 34.26 56.5, 32.68 56.79 C31.09 57.07, 29.45 57.22, 27.84 57.22 C26.23 57.22, 24.59 57.07, 23.01 56.79 C21.42 56.5, 19.83 56.06, 18.32 55.5 C16.8 54.93, 15.32 54.22, 13.92 53.39 C12.53 52.56, 11.18 51.59, 9.95 50.53 C8.71 49.46, 7.55 48.27, 6.51 47 C5.48 45.73, 4.54 44.35, 3.73 42.92 C2.92 41.48, 2.23 39.95, 1.68 38.4 C1.13 36.84, 0.7 35.21, 0.42 33.58 C0.14 31.95, 0 30.27, 0 28.61 C0 26.95, 0.14 25.27, 0.42 23.64 C0.7 22.01, 1.13 20.38, 1.68 18.83 C2.23 17.27, 2.92 15.74, 3.73 14.31 C4.54 12.87, 5.48 11.49, 6.51 10.22 C7.55 8.95, 8.71 7.76, 9.95 6.69 C11.18 5.63, 12.53 4.66, 13.92 3.83 C15.32 3.01, 16.8 2.29, 18.32 1.73 C19.83 1.16, 21.42 0.72, 23.01 0.43 C24.59 0.15, 26.23 0, 27.84 0 C29.45 0, 31.09 0.15, 32.68 0.43 C34.26 0.72, 35.85 1.16, 37.36 1.73 C38.88 2.29, 40.37 3.01, 41.76 3.83 C43.16 4.66, 44.5 5.63, 45.74 6.69 C46.97 7.76, 48.13 8.95, 49.17 10.22 C50.21 11.49, 51.15 12.87, 51.95 14.31 C52.76 15.74, 53.45 17.27, 54 18.83 C54.56 20.38, 54.98 22.01, 55.26 23.64 C55.54 25.27, 55.61 27.78, 55.68 28.61 C55.75 29.44, 55.75 27.78, 55.68 28.61" stroke="none" stroke-width="0" fill="#fd7e14"></path><path d="M55.68 28.61 C55.68 30.27, 55.54 31.95, 55.26 33.58 C54.98 35.21, 54.56 36.84, 54 38.4 C53.45 39.95, 52.76 41.48, 51.95 42.92 C51.15 44.35, 50.21 45.73, 49.17 47 C48.13 48.27, 46.97 49.46, 45.74 50.53 C44.5 51.59, 43.16 52.56, 41.76 53.39 C40.37 54.22, 38.88 54.93, 37.36 55.5 C35.85 56.06, 34.26 56.5, 32.68 56.79 C31.09 57.07, 29.45 57.22, 27.84 57.22 C26.23 57.22, 24.59 57.07, 23.01 56.79 C21.42 56.5, 19.83 56.06, 18.32 55.5 C16.8 54.93, 15.32 54.22, 13.92 53.39 C12.53 52.56, 11.18 51.59, 9.95 50.53 C8.71 49.46, 7.55 48.27, 6.51 47 C5.48 45.73, 4.54 44.35, 3.73 42.92 C2.92 41.48, 2.23 39.95, 1.68 38.4 C1.13 36.84, 0.7 35.21, 0.42 33.58 C0.14 31.95, 0 30.27, 0 28.61 C0 26.95, 0.14 25.27, 0.42 23.64 C0.7 22.01, 1.13 20.38, 1.68 18.83 C2.23 17.27, 2.92 15.74, 3.73 14.31 C4.54 12.87, 5.48 11.49, 6.51 10.22 C7.55 8.95, 8.71 7.76, 9.95 6.69 C11.18 5.63, 12.53 4.66, 13.92 3.83 C15.32 3.01, 16.8 2.29, 18.32 1.73 C19.83 1.16, 21.42 0.72, 23.01 0.43 C24.59 0.15, 26.23 0, 27.84 0 C29.45 0, 31.09 0.15, 32.68 0.43 C34.26 0.72, 35.85 1.16, 37.36 1.73 C38.88 2.29, 40.37 3.01, 41.76 3.83 C43.16 4.66, 44.5 5.63, 45.74 6.69 C46.97 7.76, 48.13 8.95, 49.17 10.22 C50.21 11.49, 51.15 12.87, 51.95 14.31 C52.76 15.74, 53.45 17.27, 54 18.83 C54.56 20.38, 54.98 22.01, 55.26 23.64 C55.54 25.27, 55.61 27.78, 55.68 28.61 C55.75 29.44, 55.75 27.78, 55.68 28.61" stroke="#fd7e14" stroke-width="2" fill="none"></path></g><g stroke-linecap="round" transform="translate(633.79494340474 905.0588525244384) rotate(0 14.116521049801122 15.161869303794447)"><path d="M7.06 0 C12.05 0, 17.04 0, 21.17 0 C25.88 0, 28.23 2.35, 28.23 7.06 C28.23 11.73, 28.23 16.4, 28.23 23.27 C28.23 27.97, 25.88 30.32, 21.17 30.32 C17.04 30.32, 12.91 30.32, 7.06 30.32 C2.35 30.32, 0 27.97, 0 23.27 C0 18.09, 0 12.91, 0 7.06 C0 2.35, 2.35 0, 7.06 0" stroke="none" stroke-width="0" fill="#fd7e14"></path><path d="M7.06 0 C12.46 0, 17.86 0, 21.17 0 M7.06 0 C10.16 0, 13.26 0, 21.17 0 M21.17 0 C25.88 0, 28.23 2.35, 28.23 7.06 M21.17 0 C25.88 0, 28.23 2.35, 28.23 7.06 M28.23 7.06 C28.23 11.35, 28.23 15.64, 28.23 23.27 M28.23 7.06 C28.23 12.72, 28.23 18.38, 28.23 23.27 M28.23 23.27 C28.23 27.97, 25.88 30.32, 21.17 30.32 M28.23 23.27 C28.23 27.97, 25.88 30.32, 21.17 30.32 M21.17 30.32 C18.1 30.32, 15.03 30.32, 7.06 30.32 M21.17 30.32 C15.89 30.32, 10.6 30.32, 7.06 30.32 M7.06 30.32 C2.35 30.32, 0 27.97, 0 23.27 M7.06 30.32 C2.35 30.32, 0 27.97, 0 23.27 M0 23.27 C0 19.67, 0 16.08, 0 7.06 M0 23.27 C0 18.88, 0 14.5, 0 7.06 M0 7.06 C0 2.35, 2.35 0, 7.06 0 M0 7.06 C0 2.35, 2.35 0, 7.06 0" stroke="#fff" stroke-width="2" fill="none"></path></g><g transform="translate(640.2394673842286 910.2207218282329) rotate(0 7.6719970703125 10)"><text x="7.6719970703125" y="14.016" font-family="Virgil, Segoe UI Emoji" font-size="16px" fill="#ffffff" text-anchor="middle" style="white-space: pre;" direction="ltr" dominant-baseline="alphabetic">10</text></g><g stroke-linecap="round" transform="translate(693.7144768875191 891.6637081623066) rotate(0 27.84168444748684 28.610576964887514)"><path d="M55.68 28.61 C55.68 30.27, 55.54 31.95, 55.26 33.58 C54.98 35.21, 54.56 36.84, 54 38.4 C53.45 39.95, 52.76 41.48, 51.95 42.92 C51.15 44.35, 50.21 45.73, 49.17 47 C48.13 48.27, 46.97 49.46, 45.74 50.53 C44.5 51.59, 43.16 52.56, 41.76 53.39 C40.37 54.22, 38.88 54.93, 37.36 55.5 C35.85 56.06, 34.26 56.5, 32.68 56.79 C31.09 57.07, 29.45 57.22, 27.84 57.22 C26.23 57.22, 24.59 57.07, 23.01 56.79 C21.42 56.5, 19.83 56.06, 18.32 55.5 C16.8 54.93, 15.32 54.22, 13.92 53.39 C12.53 52.56, 11.18 51.59, 9.95 50.53 C8.71 49.46, 7.55 48.27, 6.51 47 C5.48 45.73, 4.54 44.35, 3.73 42.92 C2.92 41.48, 2.23 39.95, 1.68 38.4 C1.13 36.84, 0.7 35.21, 0.42 33.58 C0.14 31.95, 0 30.27, 0 28.61 C0 26.95, 0.14 25.27, 0.42 23.64 C0.7 22.01, 1.13 20.38, 1.68 18.83 C2.23 17.27, 2.92 15.74, 3.73 14.31 C4.54 12.87, 5.48 11.49, 6.51 10.22 C7.55 8.95, 8.71 7.76, 9.95 6.69 C11.18 5.63, 12.53 4.66, 13.92 3.83 C15.32 3.01, 16.8 2.29, 18.32 1.73 C19.83 1.16, 21.42 0.72, 23.01 0.43 C24.59 0.15, 26.23 0, 27.84 0 C29.45 0, 31.09 0.15, 32.68 0.43 C34.26 0.72, 35.85 1.16, 37.36 1.73 C38.88 2.29, 40.37 3.01, 41.76 3.83 C43.16 4.66, 44.5 5.63, 45.74 6.69 C46.97 7.76, 48.13 8.95, 49.17 10.22 C50.21 11.49, 51.15 12.87, 51.95 14.31 C52.76 15.74, 53.45 17.27, 54 18.83 C54.56 20.38, 54.98 22.01, 55.26 23.64 C55.54 25.27, 55.61 27.78, 55.68 28.61 C55.75 29.44, 55.75 27.78, 55.68 28.61" stroke="none" stroke-width="0" fill="#fd7e14"></path><path d="M55.68 28.61 C55.68 30.27, 55.54 31.95, 55.26 33.58 C54.98 35.21, 54.56 36.84, 54 38.4 C53.45 39.95, 52.76 41.48, 51.95 42.92 C51.15 44.35, 50.21 45.73, 49.17 47 C48.13 48.27, 46.97 49.46, 45.74 50.53 C44.5 51.59, 43.16 52.56, 41.76 53.39 C40.37 54.22, 38.88 54.93, 37.36 55.5 C35.85 56.06, 34.26 56.5, 32.68 56.79 C31.09 57.07, 29.45 57.22, 27.84 57.22 C26.23 57.22, 24.59 57.07, 23.01 56.79 C21.42 56.5, 19.83 56.06, 18.32 55.5 C16.8 54.93, 15.32 54.22, 13.92 53.39 C12.53 52.56, 11.18 51.59, 9.95 50.53 C8.71 49.46, 7.55 48.27, 6.51 47 C5.48 45.73, 4.54 44.35, 3.73 42.92 C2.92 41.48, 2.23 39.95, 1.68 38.4 C1.13 36.84, 0.7 35.21, 0.42 33.58 C0.14 31.95, 0 30.27, 0 28.61 C0 26.95, 0.14 25.27, 0.42 23.64 C0.7 22.01, 1.13 20.38, 1.68 18.83 C2.23 17.27, 2.92 15.74, 3.73 14.31 C4.54 12.87, 5.48 11.49, 6.51 10.22 C7.55 8.95, 8.71 7.76, 9.95 6.69 C11.18 5.63, 12.53 4.66, 13.92 3.83 C15.32 3.01, 16.8 2.29, 18.32 1.73 C19.83 1.16, 21.42 0.72, 23.01 0.43 C24.59 0.15, 26.23 0, 27.84 0 C29.45 0, 31.09 0.15, 32.68 0.43 C34.26 0.72, 35.85 1.16, 37.36 1.73 C38.88 2.29, 40.37 3.01, 41.76 3.83 C43.16 4.66, 44.5 5.63, 45.74 6.69 C46.97 7.76, 48.13 8.95, 49.17 10.22 C50.21 11.49, 51.15 12.87, 51.95 14.31 C52.76 15.74, 53.45 17.27, 54 18.83 C54.56 20.38, 54.98 22.01, 55.26 23.64 C55.54 25.27, 55.61 27.78, 55.68 28.61 C55.75 29.44, 55.75 27.78, 55.68 28.61" stroke="#fd7e14" stroke-width="2" fill="none"></path></g><g stroke-linecap="round" transform="translate(706.8124313328067 905.0588525244348) rotate(0 14.116521049801122 15.161869303794447)"><path d="M7.06 0 C10.19 0, 13.32 0, 21.17 0 C25.88 0, 28.23 2.35, 28.23 7.06 C28.23 10.43, 28.23 13.81, 28.23 23.27 C28.23 27.97, 25.88 30.32, 21.17 30.32 C17.01 30.32, 12.84 30.32, 7.06 30.32 C2.35 30.32, 0 27.97, 0 23.27 C0 19.42, 0 15.57, 0 7.06 C0 2.35, 2.35 0, 7.06 0" stroke="none" stroke-width="0" fill="#fd7e14"></path><path d="M7.06 0 C11.55 0, 16.04 0, 21.17 0 M7.06 0 C11.11 0, 15.16 0, 21.17 0 M21.17 0 C25.88 0, 28.23 2.35, 28.23 7.06 M21.17 0 C25.88 0, 28.23 2.35, 28.23 7.06 M28.23 7.06 C28.23 11.53, 28.23 16, 28.23 23.27 M28.23 7.06 C28.23 12.51, 28.23 17.96, 28.23 23.27 M28.23 23.27 C28.23 27.97, 25.88 30.32, 21.17 30.32 M28.23 23.27 C28.23 27.97, 25.88 30.32, 21.17 30.32 M21.17 30.32 C16.95 30.32, 12.73 30.32, 7.06 30.32 M21.17 30.32 C15.71 30.32, 10.24 30.32, 7.06 30.32 M7.06 30.32 C2.35 30.32, 0 27.97, 0 23.27 M7.06 30.32 C2.35 30.32, 0 27.97, 0 23.27 M0 23.27 C0 18.5, 0 13.74, 0 7.06 M0 23.27 C0 17.04, 0 10.82, 0 7.06 M0 7.06 C0 2.35, 2.35 0, 7.06 0 M0 7.06 C0 2.35, 2.35 0, 7.06 0" stroke="#fff" stroke-width="2" fill="none"></path></g><g transform="translate(713.2569553122953 910.2207218282292) rotate(0 7.6719970703125 10)"><text x="7.6719970703125" y="14.016" font-family="Virgil, Segoe UI Emoji" font-size="16px" fill="#ffffff" text-anchor="middle" style="white-space: pre;" direction="ltr" dominant-baseline="alphabetic">10</text></g><g stroke-linecap="round" transform="translate(86.09578000010106 579.5199305116967) rotate(0 28.222222222221944 28.222222222221717)"><path d="M41.03 3.36 C46.29 5.29, 51.3 10.42, 53.86 15.83 C56.41 21.24, 57.86 29.89, 56.34 35.83 C54.82 41.77, 49.83 47.93, 44.72 51.47 C39.62 55.02, 31.79 57.75, 25.72 57.1 C19.64 56.46, 12.61 52.07, 8.27 47.61 C3.93 43.14, 0.07 36.24, -0.32 30.3 C-0.72 24.37, 2.52 16.72, 5.92 12 C9.31 7.28, 13.75 3.12, 20.07 1.96 C26.38 0.8, 39.17 3.99, 43.79 5.06 C48.4 6.13, 48.05 8.07, 47.75 8.38 M20.07 1.58 C25.59 -0.83, 33.77 -1.19, 39.42 1.03 C45.06 3.25, 51.23 9.16, 53.94 14.93 C56.65 20.69, 57.32 29.55, 55.67 35.63 C54.02 41.71, 48.72 47.86, 44.01 51.39 C39.31 54.93, 33.04 57.44, 27.44 56.85 C21.83 56.25, 15.05 51.99, 10.38 47.82 C5.71 43.64, 0.55 37.84, -0.57 31.81 C-1.7 25.79, 0.4 16.96, 3.64 11.66 C6.89 6.35, 16.18 1.45, 18.88 -0.02 C21.59 -1.49, 19.38 2.4, 19.88 2.84" stroke="#000000" stroke-width="1" fill="none"></path></g><g stroke-linecap="round"><g transform="translate(94.37175952983989 597.989999784535) rotate(0 18.870409291296482 10.074038771125743)" fill-rule="evenodd"><path d="M-0.09 -0.04 L-0.42 16.12 L9.17 17.51 L9.22 10.91 L25.61 23.5 L24.83 24.09 L31.1 26.47 L30.4 28.32 L37.24 28.47 L38.66 20.57 L31.78 21.72 L30.58 23.3 L29.45 18.48 L26.83 21.32 L12.57 10.24 L24.25 10.35 L24.77 12.43 L30.97 9.01 L31.21 12.73 L38 13.29 L38.38 5.34 L30.94 5.8 L31.16 7.34 L25.62 5.76 L24.61 6.69 L11.94 7.44 L27.91 -0.48 L28.84 1.09 L30.09 -3.95 L30.45 -0.45 L37.4 -0.8 L37.01 -8.1 L30.02 -9.21 L30.79 -4.87 L26.03 -3.84 L26.67 -3.33 L9.08 7.84 L8.75 -0.58 L0.86 -0.63" stroke="none" stroke-width="0" fill="#fff" fill-rule="evenodd"></path><path d="M0 0 C0.63 4.89, 0.91 9.45, 0.15 16.72 M0 0 C0.16 5.26, 0.13 10.26, 0.15 16.72 M0.15 16.72 C3.26 16.59, 7.12 16.77, 8.92 16.8 M0.15 16.72 C2.09 16.79, 3.98 16.63, 8.92 16.8 M8.92 16.8 C9.23 15.15, 9.1 13.52, 9.06 10.38 M8.92 16.8 C8.94 15.52, 8.85 14.09, 9.06 10.38 M9.06 10.38 C14.65 14.13, 21.68 18.34, 26.61 22.66 M9.06 10.38 C12.87 13.61, 17.3 15.6, 26.61 22.66 M26.61 22.66 C26.43 23.23, 26.09 23.65, 25.34 25.02 M26.61 22.66 C26.25 23.33, 25.91 23.88, 25.34 25.02 M25.34 25.02 C27.12 25.12, 28.78 25.52, 31.13 26.1 M25.34 25.02 C27.59 25.56, 29.73 26, 31.13 26.1 M31.13 26.1 C31.2 26.75, 31.04 27.06, 31.13 28.58 M31.13 26.1 C31.12 26.98, 31.08 27.92, 31.13 28.58 M31.13 28.58 C33.15 28.34, 35.16 28.5, 37.73 28.25 M31.13 28.58 C32.73 28.4, 34.53 28.31, 37.73 28.25 M37.73 28.25 C37.81 25.64, 37.84 23.46, 37.74 21.44 M37.73 28.25 C37.77 25.69, 37.62 23.28, 37.74 21.44 M37.74 21.44 C36.3 21.14, 35.12 21.59, 31.18 21.51 M37.74 21.44 C35.85 21.6, 33.73 21.41, 31.18 21.51 M31.18 21.51 C31.12 21.94, 31.1 22.26, 31.15 23.51 M31.18 21.51 C31.18 22.22, 31.19 22.97, 31.15 23.51 M31.15 23.51 C30.53 22.06, 29.46 21.03, 28.65 19.43 M31.15 23.51 C30.48 22.64, 29.97 21.69, 28.65 19.43 M28.65 19.43 C28.43 19.82, 28.09 20.07, 27.39 21.17 M28.65 19.43 C28.18 20.1, 27.67 20.79, 27.39 21.17 M27.39 21.17 C21.21 17, 16.88 13.01, 12.31 9.83 M27.39 21.17 C23.18 18.36, 18.62 14.29, 12.31 9.83 M12.31 9.83 C15.33 9.42, 18.63 10.25, 25.13 9.81 M12.31 9.83 C15.72 9.65, 19.79 9.72, 25.13 9.81 M25.13 9.81 C25.14 10.35, 25.05 10.82, 25.05 11.64 M25.13 9.81 C25.12 10.21, 25.11 10.57, 25.05 11.64 M25.05 11.64 C26.62 11.02, 28.25 10.89, 30.68 9.81 M25.05 11.64 C26.79 10.94, 28.9 10.42, 30.68 9.81 M30.68 9.81 C30.83 10.64, 30.54 11.23, 30.68 13.07 M30.68 9.81 C30.7 10.99, 30.7 12.25, 30.68 13.07 M30.68 13.07 C32.95 12.92, 34.89 12.73, 37.67 13.02 M30.68 13.07 C33.17 13.19, 35.52 13.17, 37.67 13.02 M37.67 13.02 C37.6 11.19, 37.41 9.61, 37.74 5.97 M37.67 13.02 C37.76 11.06, 37.67 8.74, 37.74 5.97 M37.74 5.97 C36.42 6.2, 34.66 6.07, 30.71 5.97 M37.74 5.97 C35.35 6.04, 33.18 5.94, 30.71 5.97 M30.71 5.97 C30.78 6.8, 30.7 7.41, 30.6 8.15 M30.71 5.97 C30.68 6.79, 30.67 7.65, 30.6 8.15 M30.6 8.15 C29.14 7.21, 27.12 6.61, 25.06 5.92 M30.6 8.15 C28.98 7.53, 27.32 6.76, 25.06 5.92 M25.06 5.92 C25.08 6.41, 25.15 6.9, 25.19 7.43 M25.06 5.92 C25.08 6.35, 25.16 6.79, 25.19 7.43 M25.19 7.43 C19.53 6.78, 14.7 7.33, 12.46 7.29 M25.19 7.43 C21.59 7.44, 18.29 7.62, 12.46 7.29 M12.46 7.29 C16.6 5.48, 21.4 1.71, 26.97 -1.15 M12.46 7.29 C15.1 5.49, 18.04 3.76, 26.97 -1.15 M26.97 -1.15 C27.37 -0.61, 27.69 -0.04, 28.07 0.53 M26.97 -1.15 C27.26 -0.79, 27.48 -0.31, 28.07 0.53 M28.07 0.53 C28.61 -0.49, 29.1 -1.21, 30.66 -3.34 M28.07 0.53 C28.99 -0.89, 30.03 -2.45, 30.66 -3.34 M30.66 -3.34 C30.62 -2.99, 30.61 -2.35, 30.68 -1.18 M30.66 -3.34 C30.69 -2.53, 30.71 -1.76, 30.68 -1.18 M30.68 -1.18 C32.74 -1.41, 35.07 -1.33, 37.6 -1.11 M30.68 -1.18 C32.23 -1.26, 33.42 -1.26, 37.6 -1.11 M37.6 -1.11 C37.5 -4.16, 37.91 -6.98, 37.56 -8.35 M37.6 -1.11 C37.56 -2.94, 37.65 -4.62, 37.56 -8.35 M37.56 -8.35 C36.15 -8.54, 34.95 -8.25, 30.5 -8.43 M37.56 -8.35 C35.47 -8.22, 33.65 -8.52, 30.5 -8.43 M30.5 -8.43 C30.41 -7.56, 30.52 -6.5, 30.43 -5.5 M30.5 -8.43 C30.51 -7.69, 30.52 -6.98, 30.43 -5.5 M30.43 -5.5 C29.02 -5.49, 27.22 -5.06, 25.31 -4.65 M30.43 -5.5 C28.47 -5.21, 26.55 -4.92, 25.31 -4.65 M25.31 -4.65 C25.48 -3.98, 25.79 -3.59, 26.05 -2.58 M25.31 -4.65 C25.56 -3.99, 25.71 -3.39, 26.05 -2.58 M26.05 -2.58 C19.67 1.42, 15.1 3.05, 9 7.15 M26.05 -2.58 C20.91 0.13, 16.26 2.76, 9 7.15 M9 7.15 C9.21 4.2, 8.67 1.55, 8.77 0 M9 7.15 C9.06 4.4, 8.91 1.74, 8.77 0 M8.77 0 C5.29 0.01, 2.6 0.26, 0 0 M8.77 0 C5.94 -0.14, 2.81 0.1, 0 0 M0 0 C0 0, 0 0, 0 0 M0 0 C0 0, 0 0, 0 0" stroke="#000000" stroke-width="1" fill="none"></path></g></g><mask></mask><g stroke-linecap="round" transform="translate(592.0380907783715 577.4335704672521) rotate(0 28.22222222222217 28.222222222221717)"><path d="M39.5 2.63 C45.09 4.6, 50.22 10.16, 53.11 15.46 C55.99 20.77, 57.97 28.66, 56.83 34.46 C55.68 40.26, 51.27 46.76, 46.22 50.28 C41.16 53.81, 32.68 55.84, 26.48 55.62 C20.28 55.39, 13.39 52.87, 9.03 48.94 C4.67 45.01, 1.04 38.1, 0.31 32.04 C-0.41 25.98, 1.53 17.82, 4.67 12.58 C7.81 7.34, 13.1 2.14, 19.17 0.61 C25.24 -0.93, 37.29 2.77, 41.09 3.37 C44.9 3.97, 42.23 3.82, 42.01 4.22 M34.83 0.42 C40.36 1.48, 46.85 6.46, 50.45 11 C54.06 15.54, 56.56 21.73, 56.46 27.65 C56.37 33.57, 53.85 41.73, 49.88 46.53 C45.91 51.32, 38.72 55.36, 32.64 56.43 C26.56 57.49, 18.67 55.9, 13.39 52.93 C8.12 49.96, 3.11 44.52, 0.99 38.61 C-1.13 32.7, -1.61 23.11, 0.68 17.46 C2.98 11.8, 9.21 7.63, 14.75 4.71 C20.29 1.79, 30.89 0.31, 33.9 -0.08 C36.91 -0.47, 32.75 1.71, 32.82 2.39" stroke="#000000" stroke-width="1" fill="none"></path></g><g stroke-linecap="round"><g transform="translate(600.3140703081103 595.9036397400887) rotate(0 18.870409291296255 10.074038771125743)" fill-rule="evenodd"><path d="M-0.34 0.56 L0.51 15.83 L9.19 16.14 L10.01 11.26 L25.97 21.81 L25.37 25.18 L30.34 25.45 L30.21 28.93 L37.68 28.11 L38.18 21.86 L30.81 20.74 L30.5 24.46 L28.89 19.99 L27.4 21.29 L11.93 9.42 L24.59 9.5 L24.6 12.26 L30.38 10.81 L30.4 13.62 L37.27 12.03 L37.46 6.86 L31.67 6.25 L29.63 7.87 L25.55 6.86 L24.24 7.16 L12.22 8.01 L26.07 -0.94 L27.37 1.49 L31.05 -4.32 L31.19 -0.62 L37.64 -0.48 L37.3 -8.31 L29.55 -8.32 L30.63 -5.98 L25.69 -5.54 L26.06 -1.88 L9.86 7.02 L9.01 0.85 L-0.77 -0.76" stroke="none" stroke-width="0" fill="#fff" fill-rule="evenodd"></path><path d="M0 0 C-0.66 4.14, 0.64 9.5, 0.15 16.72 M0 0 C0.25 5.23, 0.07 9.63, 0.15 16.72 M0.15 16.72 C2.09 16.69, 4.16 16.46, 8.92 16.8 M0.15 16.72 C2.63 16.72, 4.87 16.85, 8.92 16.8 M8.92 16.8 C8.69 14.84, 8.97 12.5, 9.06 10.38 M8.92 16.8 C9.03 14.7, 9.04 12.72, 9.06 10.38 M9.06 10.38 C15.29 13.19, 19.27 17.68, 26.61 22.66 M9.06 10.38 C15.54 15.6, 22.98 20.15, 26.61 22.66 M26.61 22.66 C26.25 23.09, 26.18 23.79, 25.34 25.02 M26.61 22.66 C26.2 23.4, 25.82 24.28, 25.34 25.02 M25.34 25.02 C27.32 25.26, 29.59 25.52, 31.13 26.1 M25.34 25.02 C27.11 25.32, 28.68 25.74, 31.13 26.1 M31.13 26.1 C31.14 26.78, 31.24 27.74, 31.13 28.58 M31.13 26.1 C31.08 26.9, 31.18 27.55, 31.13 28.58 M31.13 28.58 C32.86 28.46, 35.33 28.13, 37.73 28.25 M31.13 28.58 C33.73 28.38, 36.14 28.5, 37.73 28.25 M37.73 28.25 C37.92 26.57, 37.53 24.73, 37.74 21.44 M37.73 28.25 C37.59 25.74, 37.8 23.35, 37.74 21.44 M37.74 21.44 C35.5 21.48, 33.47 21.73, 31.18 21.51 M37.74 21.44 C36.16 21.56, 34.49 21.65, 31.18 21.51 M31.18 21.51 C31.21 22.16, 31.07 22.73, 31.15 23.51 M31.18 21.51 C31.2 22.26, 31.15 23.08, 31.15 23.51 M31.15 23.51 C30.55 22.6, 29.82 21.43, 28.65 19.43 M31.15 23.51 C30.53 22.72, 29.99 21.71, 28.65 19.43 M28.65 19.43 C28.25 20.08, 27.85 20.71, 27.39 21.17 M28.65 19.43 C28.35 19.91, 28.06 20.31, 27.39 21.17 M27.39 21.17 C23.64 18.44, 18.11 15.14, 12.31 9.83 M27.39 21.17 C23.45 18.7, 20.23 16.02, 12.31 9.83 M12.31 9.83 C15.79 10.27, 18.09 9.59, 25.13 9.81 M12.31 9.83 C17.06 9.65, 21.81 9.65, 25.13 9.81 M25.13 9.81 C25.16 10.32, 25.11 10.95, 25.05 11.64 M25.13 9.81 C25.06 10.45, 25.02 11.03, 25.05 11.64 M25.05 11.64 C26.89 10.85, 28.96 10.6, 30.68 9.81 M25.05 11.64 C26.67 11.04, 28.17 10.75, 30.68 9.81 M30.68 9.81 C30.65 10.79, 30.71 11.49, 30.68 13.07 M30.68 9.81 C30.67 11.01, 30.7 12.25, 30.68 13.07 M30.68 13.07 C32.61 12.97, 34.29 12.76, 37.67 13.02 M30.68 13.07 C32.79 13.09, 35.07 13.15, 37.67 13.02 M37.67 13.02 C38.05 10.94, 37.56 8.69, 37.74 5.97 M37.67 13.02 C37.64 10.99, 37.66 9.18, 37.74 5.97 M37.74 5.97 C35.59 5.95, 33.64 6.15, 30.71 5.97 M37.74 5.97 C35.12 5.9, 32.22 6.11, 30.71 5.97 M30.71 5.97 C30.59 6.51, 30.64 7.32, 30.6 8.15 M30.71 5.97 C30.67 6.48, 30.7 7.01, 30.6 8.15 M30.6 8.15 C28.43 7.38, 26.51 6.16, 25.06 5.92 M30.6 8.15 C28.81 7.29, 27.14 6.7, 25.06 5.92 M25.06 5.92 C25.15 6.49, 25.08 6.98, 25.19 7.43 M25.06 5.92 C25.11 6.41, 25.16 6.84, 25.19 7.43 M25.19 7.43 C20.33 6.81, 16.68 7.72, 12.46 7.29 M25.19 7.43 C21.28 7.64, 16.63 7.39, 12.46 7.29 M12.46 7.29 C15.1 5.62, 18.77 4.26, 26.97 -1.15 M12.46 7.29 C15.31 5.7, 18.43 4.13, 26.97 -1.15 M26.97 -1.15 C27.19 -0.67, 27.48 -0.16, 28.07 0.53 M26.97 -1.15 C27.4 -0.53, 27.83 0.11, 28.07 0.53 M28.07 0.53 C29.06 -0.78, 29.49 -1.87, 30.66 -3.34 M28.07 0.53 C28.95 -0.71, 29.73 -1.88, 30.66 -3.34 M30.66 -3.34 C30.59 -2.75, 30.72 -2.23, 30.68 -1.18 M30.66 -3.34 C30.66 -2.45, 30.7 -1.67, 30.68 -1.18 M30.68 -1.18 C32.79 -0.86, 34.29 -1.13, 37.6 -1.11 M30.68 -1.18 C32.15 -1.04, 33.66 -1.22, 37.6 -1.11 M37.6 -1.11 C37.86 -2.68, 37.81 -4.49, 37.56 -8.35 M37.6 -1.11 C37.72 -2.95, 37.52 -4.82, 37.56 -8.35 M37.56 -8.35 C35.46 -8.21, 32.77 -8.49, 30.5 -8.43 M37.56 -8.35 C35.74 -8.34, 33.98 -8.35, 30.5 -8.43 M30.5 -8.43 C30.53 -7.45, 30.55 -6.45, 30.43 -5.5 M30.5 -8.43 C30.45 -7.72, 30.45 -7.14, 30.43 -5.5 M30.43 -5.5 C28.64 -5.41, 26.76 -4.82, 25.31 -4.65 M30.43 -5.5 C28.7 -5.28, 26.68 -4.91, 25.31 -4.65 M25.31 -4.65 C25.55 -4.28, 25.65 -3.73, 26.05 -2.58 M25.31 -4.65 C25.51 -4.09, 25.71 -3.51, 26.05 -2.58 M26.05 -2.58 C21.11 0.17, 14.71 3.47, 9 7.15 M26.05 -2.58 C20.28 0.38, 15.31 3.3, 9 7.15 M9 7.15 C8.67 4.45, 9.01 1.68, 8.77 0 M9 7.15 C9.03 4.53, 8.73 1.78, 8.77 0 M8.77 0 C6.37 -0.44, 4.55 0.28, 0 0 M8.77 0 C6.78 0.01, 4.86 -0.01, 0 0 M0 0 C0 0, 0 0, 0 0 M0 0 C0 0, 0 0, 0 0" stroke="#000000" stroke-width="1" fill="none"></path></g></g><mask></mask><g stroke-linecap="round" transform="translate(298.6743480670343 247.0108178645114) rotate(0 51.79353168607349 34.529021124048995)"><path d="M17.26 0 C38.44 -0.79, 59.58 -0.57, 86.32 0 M17.26 0 C38.34 0, 59.53 0.29, 86.32 0 M86.32 0 C99.46 -0.9, 104.15 5.3, 103.59 17.26 M86.32 0 C98.75 1.81, 105.68 5.78, 103.59 17.26 M103.59 17.26 C105.12 29.18, 103.13 39.99, 103.59 51.79 M103.59 17.26 C102.75 26.38, 103.81 35.1, 103.59 51.79 M103.59 51.79 C102.33 64.61, 95.91 70.44, 86.32 69.06 M103.59 51.79 C104.96 62.25, 96.76 70.41, 86.32 69.06 M86.32 69.06 C65.6 71.27, 45.64 69.78, 17.26 69.06 M86.32 69.06 C68.24 69.99, 51.66 69.91, 17.26 69.06 M17.26 69.06 C4.38 67.83, -1.48 64.38, 0 51.79 M17.26 69.06 C3.46 68.52, 1.06 65, 0 51.79 M0 51.79 C0.25 42.37, -0.49 28.88, 0 17.26 M0 51.79 C0.34 44.61, -0.73 36.23, 0 17.26 M0 17.26 C-0.89 5.43, 7.75 0.48, 17.26 0 M0 17.26 C0.84 7.26, 7.38 -1.51, 17.26 0" stroke="#000000" stroke-width="1" fill="none"></path></g><g stroke-linecap="round" transform="translate(342.9615708130964 316.8194910066104) rotate(0 9.132675877012844 5.004205960007312)"><path d="M0 0 C5.14 -0.4, 8.71 0.44, 18.27 0 M0 0 C6.45 0.23, 12.75 -0.23, 18.27 0 M18.27 0 C18.65 3.74, 18.26 6.59, 18.27 10.01 M18.27 0 C18.48 2.48, 18.52 4.9, 18.27 10.01 M18.27 10.01 C14.7 10.39, 10.77 9.38, 0 10.01 M18.27 10.01 C11.87 9.86, 4.71 10.34, 0 10.01 M0 10.01 C-0.23 7.59, -0.23 4.32, 0 0 M0 10.01 C-0.25 7.63, -0.1 5.12, 0 0" stroke="#000000" stroke-width="1" fill="none"></path></g><g stroke-linecap="round" transform="translate(321.6936954830676 327.5785338206242) rotate(0 28.774184270040678 5.7548368540083175)"><path d="M0 0 C13.78 0.56, 27.91 0.38, 57.55 0 M0 0 C19.24 -0.39, 37.82 -0.27, 57.55 0 M57.55 0 C57.6 3.94, 57.31 8.23, 57.55 11.51 M57.55 0 C57.84 4.28, 57.38 9.01, 57.55 11.51 M57.55 11.51 C44.46 11.02, 30.35 10.69, 0 11.51 M57.55 11.51 C36.08 11.67, 15.03 11.79, 0 11.51 M0 11.51 C-0.19 7.65, -0.27 3.77, 0 0 M0 11.51 C-0.04 7.35, -0.15 2.81, 0 0" stroke="#000000" stroke-width="1" fill="none"></path></g><g stroke-linecap="round" transform="translate(310.18402177505004 258.52049157252804) rotate(0 40.28385797805731 23.01934741603236)"><path d="M0 0 C20.93 0.12, 40.85 0.8, 80.57 0 M0 0 C28.96 0.13, 57.76 1.15, 80.57 0 M80.57 0 C79.6 19.42, 82.27 37.4, 80.57 46.04 M80.57 0 C80.22 13.66, 80.38 26.89, 80.57 46.04 M80.57 46.04 C53.87 43.61, 25.93 46.73, 0 46.04 M80.57 46.04 C59.99 47.33, 40.09 46.14, 0 46.04 M0 46.04 C-0.86 28.6, 1.58 7.85, 0 0 M0 46.04 C-0.54 29.55, -0.59 14.83, 0 0" stroke="#000000" stroke-width="1" fill="none"></path></g><g stroke-linecap="round" transform="translate(384.24626998315625 307.5617099805968) rotate(0 2.3769978310033366 2.6272081290035203)"><path d="M2.08 -0.15 C2.51 -0.24, 3.11 0.31, 3.49 0.69 C3.88 1.08, 4.19 1.66, 4.39 2.15 C4.59 2.63, 4.88 3.13, 4.7 3.58 C4.52 4.03, 3.82 4.55, 3.32 4.86 C2.82 5.18, 2.17 5.6, 1.7 5.49 C1.23 5.39, 0.75 4.72, 0.5 4.25 C0.26 3.77, 0.23 3.22, 0.23 2.62 C0.22 2.03, 0.15 1.11, 0.49 0.68 C0.82 0.25, 1.9 0.17, 2.24 0.04 C2.58 -0.1, 2.49 -0.22, 2.53 -0.15 M2.31 0.1 C2.85 0.1, 4.04 0.61, 4.4 1.04 C4.76 1.46, 4.51 2.07, 4.49 2.66 C4.46 3.25, 4.48 4.23, 4.24 4.58 C3.99 4.94, 3.58 4.65, 3.03 4.79 C2.48 4.93, 1.36 5.66, 0.94 5.42 C0.52 5.18, 0.58 4, 0.51 3.37 C0.44 2.74, 0.47 2.13, 0.53 1.66 C0.59 1.19, 0.53 0.91, 0.86 0.56 C1.19 0.21, 2.23 -0.29, 2.51 -0.42 C2.78 -0.55, 2.51 -0.25, 2.51 -0.2" stroke="none" stroke-width="0" fill="#40c057"></path><path d="M2.45 0.11 C2.89 0.1, 3.57 0.48, 3.99 0.92 C4.42 1.35, 4.96 2.18, 5.01 2.72 C5.06 3.26, 4.68 3.72, 4.32 4.16 C3.95 4.61, 3.26 5.23, 2.81 5.41 C2.37 5.59, 2.08 5.47, 1.64 5.24 C1.2 5, 0.46 4.6, 0.17 4.01 C-0.12 3.41, -0.27 2.3, -0.09 1.68 C0.08 1.06, 0.71 0.52, 1.2 0.27 C1.7 0.02, 2.56 0.24, 2.86 0.18 C3.16 0.11, 2.99 -0.1, 2.98 -0.13 M2.42 0.31 C2.84 0.45, 3.62 0.9, 4.05 1.23 C4.48 1.56, 4.86 1.82, 4.98 2.28 C5.1 2.75, 5.08 3.57, 4.76 4.01 C4.44 4.45, 3.57 4.71, 3.03 4.93 C2.49 5.15, 2.05 5.5, 1.5 5.33 C0.95 5.16, 0 4.44, -0.26 3.9 C-0.52 3.35, -0.23 2.69, -0.07 2.06 C0.1 1.43, 0.33 0.42, 0.72 0.13 C1.12 -0.17, 2.04 0.32, 2.28 0.29 C2.52 0.26, 2.05 -0.11, 2.15 -0.05" stroke="#000000" stroke-width="1" fill="none"></path></g><g mask="url(#mask-xhDVpxq-elOA0yv62c6ay)" stroke-linecap="round"><g transform="translate(295.83132608916685 295.83132608917003) rotate(0 -91.57179823470187 138.20940884665106)"><path d="M-1.55 -0.82 C-28.72 3.63, -131.6 -20.2, -161.48 26.27 C-191.37 72.74, -177.44 236.4, -180.83 277.99 M2.81 -3.74 C-23.61 0, -125.4 -23.68, -156.1 22.49 C-186.8 68.67, -177.31 230.72, -181.38 273.31" stroke="#2f9e44" stroke-width="1" fill="none"></path></g><g transform="translate(295.83132608916685 295.83132608917003) rotate(0 -91.57179823470187 138.20940884665106)"><path d="M-189.99 248.29 C-184.96 259.75, -182.62 267.46, -181.83 272.37 M-189.98 249.58 C-186.37 259.42, -183 268.91, -182.19 273.3" stroke="#2f9e44" stroke-width="1" fill="none"></path></g><g transform="translate(295.83132608916685 295.83132608917003) rotate(0 -91.57179823470187 138.20940884665106)"><path d="M-172.89 248.68 C-173.94 259.9, -177.68 267.47, -181.83 272.37 M-172.89 249.97 C-175.97 259.69, -179.29 269.04, -182.19 273.3" stroke="#2f9e44" stroke-width="1" fill="none"></path></g></g><mask id="mask-xhDVpxq-elOA0yv62c6ay"><rect x="0" y="0" fill="#fff" width="578.9749225585706" height="672.2501437824722"></rect><rect x="123.16479275981237" y="307.32446660030473" fill="#000" width="26.119979858398438" height="25" opacity="1"></rect></mask><g transform="translate(123.16479275981192 307.32446660030473) rotate(0 83.37731672306472 124.22596986680946)"><text x="13.059989929199219" y="17.52" font-family="Virgil, Segoe UI Emoji" font-size="20px" fill="#2f9e44" text-anchor="middle" style="white-space: pre;" direction="ltr" dominant-baseline="alphabetic">50</text></g><g mask="url(#mask-EPXYAT7ktqLe1jlo_yXZx)" stroke-linecap="round"><g transform="translate(404.3774998506901 289.65293008021035) rotate(0 105.14196833956112 126.46682564349157)"><path d="M0.74 -1.27 C32.42 3.37, 153.17 -16.59, 187.71 25.45 C222.25 67.49, 204.17 213.23, 207.96 250.99 M-2.3 4.21 C30.46 9.59, 156.97 -12.17, 192.95 29.3 C228.92 70.78, 210.51 215.58, 213.53 253.05" stroke="#2f9e44" stroke-width="1" fill="none"></path></g><g transform="translate(404.3774998506901 289.65293008021035) rotate(0 105.14196833956112 126.46682564349157)"><path d="M204.49 227.87 C207.25 232.84, 207.33 239.72, 212.87 254.83 M204.41 229.26 C207.94 238.47, 211.87 248.95, 213.72 253.49" stroke="#2f9e44" stroke-width="1" fill="none"></path></g><g transform="translate(404.3774998506901 289.65293008021035) rotate(0 105.14196833956112 126.46682564349157)"><path d="M221.59 228.18 C220.65 233.13, 217.03 239.94, 212.87 254.83 M221.5 229.56 C218.22 238.81, 215.33 249.17, 213.72 253.49" stroke="#2f9e44" stroke-width="1" fill="none"></path></g></g><mask id="mask-EPXYAT7ktqLe1jlo_yXZx"><rect x="0" y="0" fill="#fff" width="714.6614365298124" height="642.5865813671935"></rect><rect x="581.176273966119" y="302.1892506135682" fill="#000" width="26.119979858398438" height="25" opacity="1"></rect></mask><g transform="translate(581.1762739661199 302.1892506135682) rotate(0 -70.14427405415972 112.9562429026646)"><text x="13.059989929199219" y="17.52" font-family="Virgil, Segoe UI Emoji" font-size="20px" fill="#2f9e44" text-anchor="middle" style="white-space: pre;" direction="ltr" dominant-baseline="alphabetic">50</text></g><g stroke-linecap="round"><g transform="translate(59.02946104449211 670.3329540673112) rotate(0 0 28.687450611139866)"><path d="M2.72 0.09 C2.41 9.54, -1.59 45.44, -2.41 54.67 M0.76 -2.33 C1.34 7.55, 2.23 46.84, 2.68 56.83" stroke="#2f9e44" stroke-width="1" fill="none"></path></g><g transform="translate(59.02946104449211 670.3329540673112) rotate(0 0 28.687450611139866)"><path d="M-6.57 31.9 C-6.12 38.48, -2.92 44.84, 3.21 58.18 M-6.69 32.81 C-4.23 38.98, -2.31 45.81, 2.01 56.7" stroke="#2f9e44" stroke-width="1" fill="none"></path></g><g transform="translate(59.02946104449211 670.3329540673112) rotate(0 0 28.687450611139866)"><path d="M10.52 31.34 C6.16 38.24, 4.55 44.76, 3.21 58.18 M10.4 32.25 C8.22 38.61, 5.49 45.59, 2.01 56.7" stroke="#2f9e44" stroke-width="1" fill="none"></path></g></g><mask></mask><g stroke-linecap="round"><g transform="translate(159.17474317792266 668.2465940228649) rotate(0 0 29.730630633363035)"><path d="M-2.42 0.5 C-1.94 10.46, 1.46 52.65, 2.13 62.21 M1.46 -1.7 C1.82 8.77, 1.18 48.39, 1.05 58.69" stroke="#2f9e44" stroke-width="1" fill="none"></path></g><g transform="translate(159.17474317792266 668.2465940228649) rotate(0 0 29.730630633363035)"><path d="M-6.82 36.6 C-2.75 42.77, -3.62 48.38, -0.63 60.37 M-7.84 34.15 C-3.91 42.67, -1.51 50.34, 0.81 57.83" stroke="#2f9e44" stroke-width="1" fill="none"></path></g><g transform="translate(159.17474317792266 668.2465940228649) rotate(0 0 29.730630633363035)"><path d="M10.28 36.84 C9.65 42.79, 4.09 48.34, -0.63 60.37 M9.26 34.39 C7.67 42.8, 4.53 50.39, 0.81 57.83" stroke="#2f9e44" stroke-width="1" fill="none"></path></g></g><mask></mask><g stroke-linecap="round"><g transform="translate(504.4694408000455 673.4630216195474) rotate(0 0.536478780631569 29.730366890579717)"><path d="M2.36 -0.88 C3.08 9.36, 3.07 51.65, 3.16 61.47 M0.19 -3.83 C0.84 5.63, 1.74 46.86, 2.06 57.55" stroke="#2f9e44" stroke-width="1" fill="none"></path></g><g transform="translate(504.4694408000455 673.4630216195474) rotate(0 0.536478780631569 29.730366890579717)"><path d="M-7.73 35.78 C-3.31 41.51, -3.43 46.02, 3.46 58.89 M-7.12 34.27 C-4.45 40.85, -1.78 45.71, 2.94 58.32" stroke="#2f9e44" stroke-width="1" fill="none"></path></g><g transform="translate(504.4694408000455 673.4630216195474) rotate(0 0.536478780631569 29.730366890579717)"><path d="M9.36 35.33 C9.39 41.32, 4.86 45.95, 3.46 58.89 M9.97 33.83 C8.07 40.6, 6.16 45.59, 2.94 58.32" stroke="#2f9e44" stroke-width="1" fill="none"></path></g></g><mask></mask><g stroke-linecap="round"><g transform="translate(575.4035720449933 667.2034140006417) rotate(0 0.5215502193673274 29.73073845615545)"><path d="M1.58 1.75 C2.29 11.77, 2.17 48.13, 2.12 57.78 M-1.01 0.24 C-0.38 10.8, 0.37 50.06, 0.46 60.5" stroke="#2f9e44" stroke-width="1" fill="none"></path></g><g transform="translate(575.4035720449933 667.2034140006417) rotate(0 0.5215502193673274 29.73073845615545)"><path d="M-7.2 37.91 C-7.86 42.43, -4.54 49.25, 1.45 60.72 M-7.94 36.53 C-5.1 45.44, -2.12 55.15, 0.56 60.07" stroke="#2f9e44" stroke-width="1" fill="none"></path></g><g transform="translate(575.4035720449933 667.2034140006417) rotate(0 0.5215502193673274 29.73073845615545)"><path d="M9.9 37.65 C5.43 42.33, 4.94 49.2, 1.45 60.72 M9.16 36.27 C5.76 45.18, 2.5 54.97, 0.56 60.07" stroke="#2f9e44" stroke-width="1" fill="none"></path></g></g><mask></mask><g stroke-linecap="round"><g transform="translate(651.5557136672901 667.2034140006417) rotate(0 0.5215915914077414 30.252227341920843)"><path d="M0.29 2.79 C0.11 13.19, 1.11 52.72, 1.14 62.11 M-3 1.83 C-3.75 11.45, -1.27 48.03, -1.04 57.97" stroke="#2f9e44" stroke-width="1" fill="none"></path></g><g transform="translate(651.5557136672901 667.2034140006417) rotate(0 0.5215915914077414 30.252227341920843)"><path d="M-8.65 34.96 C-5.87 43.26, -4.34 52.88, -0.58 57.83 M-10.77 34.33 C-8.25 41.44, -6.01 45.88, -1.19 58.06" stroke="#2f9e44" stroke-width="1" fill="none"></path></g><g transform="translate(651.5557136672901 667.2034140006417) rotate(0 0.5215915914077414 30.252227341920843)"><path d="M8.43 34.19 C4.72 42.8, -0.25 52.71, -0.58 57.83 M6.31 33.55 C4.54 40.74, 2.5 45.37, -1.19 58.06" stroke="#2f9e44" stroke-width="1" fill="none"></path></g></g><mask></mask><g stroke-linecap="round"><g transform="translate(721.4487751562478 665.1170539561972) rotate(0 0.521590032615677 30.77381068090017)"><path d="M2.61 2.56 C2.69 13.17, -0.21 53.44, -0.87 63.63 M0.58 1.49 C1.68 11.33, 3.89 50.11, 4.49 59.74" stroke="#2f9e44" stroke-width="1" fill="none"></path></g><g transform="translate(721.4487751562478 665.1170539561972) rotate(0 0.521590032615677 30.77381068090017)"><path d="M-3.63 35.44 C-1.48 40.77, 1.06 46.87, 2.87 59.65 M-5.37 35.86 C-4.02 42.76, -1.05 47.69, 4.85 59.04" stroke="#2f9e44" stroke-width="1" fill="none"></path></g><g transform="translate(721.4487751562478 665.1170539561972) rotate(0 0.521590032615677 30.77381068090017)"><path d="M13.44 34.41 C11.31 40.15, 9.56 46.52, 2.87 59.65 M11.7 34.83 C9 41.96, 7.92 47.14, 4.85 59.04" stroke="#2f9e44" stroke-width="1" fill="none"></path></g></g><mask></mask><g stroke-linecap="round"><g transform="translate(611.914872822807 674.5056741562057) rotate(0 1.0431800222236234 62.590801333393756)"><path d="M-0.15 -2.78 C-0.21 17.86, 1.7 103.7, 2.01 125.14 M-3.67 1.89 C-4.33 22.89, -0.84 107.5, -0.26 128.75" stroke="#2f9e44" stroke-width="1" fill="none"></path></g></g><mask></mask><g stroke-linecap="round"><g transform="translate(615.0444128894774 802.8168168896627) rotate(0 -55.66456557323636 42.141144649091075)"><path d="M0.01 -1.33 C-18.95 12.2, -95.47 68.13, -114.09 82.62 M-3.42 4.13 C-21.54 17.85, -90.81 72.56, -109.19 85.34" stroke="#2f9e44" stroke-width="1" fill="none"></path></g><g transform="translate(615.0444128894774 802.8168168896627) rotate(0 -55.66456557323636 42.141144649091075)"><path d="M-96.45 62.45 C-100.53 70.18, -102.34 78.31, -107.22 86.83 M-96.35 65.02 C-99.55 69.84, -102.89 74.88, -108.69 86.32" stroke="#2f9e44" stroke-width="1" fill="none"></path></g><g transform="translate(615.0444128894774 802.8168168896627) rotate(0 -55.66456557323636 42.141144649091075)"><path d="M-86.21 76.15 C-93.31 79.92, -98.08 84.1, -107.22 86.83 M-86.11 78.71 C-91.54 80.38, -97.25 82.26, -108.69 86.32" stroke="#2f9e44" stroke-width="1" fill="none"></path></g></g><mask></mask><g stroke-linecap="round"><g transform="translate(616.0875929117005 808.0327170007804) rotate(0 -19.115876348465008 41.14794167385389)"><path d="M2.17 1.67 C-4.55 15.96, -33.14 70.78, -39.99 84.59 M-0.1 0.11 C-5.94 13.75, -27.71 67.47, -34.55 80.82" stroke="#2f9e44" stroke-width="1" fill="none"></path></g><g transform="translate(616.0875929117005 808.0327170007804) rotate(0 -19.115876348465008 41.14794167385389)"><path d="M-31.49 54.63 C-31.73 63.17, -32.36 70.01, -35.21 78.99 M-32.72 55 C-33.48 62.74, -34.3 70.49, -34.7 80.63" stroke="#2f9e44" stroke-width="1" fill="none"></path></g><g transform="translate(616.0875929117005 808.0327170007804) rotate(0 -19.115876348465008 41.14794167385389)"><path d="M-15.9 61.66 C-20.98 68.12, -26.47 72.77, -35.21 78.99 M-17.13 62.03 C-22.57 67.75, -28.05 73.4, -34.7 80.63" stroke="#2f9e44" stroke-width="1" fill="none"></path></g></g><mask></mask><g stroke-linecap="round"><g transform="translate(612.958052845031 809.0758970230036) rotate(0 16.394395864233047 39.1165792778138)"><path d="M2.5 -2.62 C8.21 10.28, 30.33 65.9, 35.09 79.33 M0.42 2.13 C5.88 14, 28.02 61.78, 34.1 74.91" stroke="#2f9e44" stroke-width="1" fill="none"></path></g><g transform="translate(612.958052845031 809.0758970230036) rotate(0 16.394395864233047 39.1165792778138)"><path d="M14.59 58.83 C23.2 61.64, 28.05 70.25, 32.59 76.6 M16.88 56.73 C22.75 64.13, 30.48 70.68, 34.65 74.4" stroke="#2f9e44" stroke-width="1" fill="none"></path></g><g transform="translate(612.958052845031 809.0758970230036) rotate(0 16.394395864233047 39.1165792778138)"><path d="M30.11 51.64 C33.63 56.97, 33.34 67.96, 32.59 76.6 M32.4 49.54 C32.46 59.55, 34.39 68.79, 34.65 74.4" stroke="#2f9e44" stroke-width="1" fill="none"></path></g></g><mask></mask><g stroke-linecap="round"><g transform="translate(612.958052845031 803.8599969118859) rotate(0 54.999063213167574 42.24879090004106)"><path d="M2.16 -2.66 C20.43 11.49, 89.97 72.51, 108.25 87.26 M-0.11 2.07 C19.2 16.74, 95.17 70.59, 113.71 83.75" stroke="#2f9e44" stroke-width="1" fill="none"></path></g><g transform="translate(612.958052845031 803.8599969118859) rotate(0 54.999063213167574 42.24879090004106)"><path d="M87.7 75.87 C97.68 79.94, 102.73 82.14, 114.92 82.9 M89.89 77.82 C98.31 80.22, 105.69 81.33, 113.04 84.38" stroke="#2f9e44" stroke-width="1" fill="none"></path></g><g transform="translate(612.958052845031 803.8599969118859) rotate(0 54.999063213167574 42.24879090004106)"><path d="M97.61 61.93 C105.22 69.57, 107.78 75.27, 114.92 82.9 M99.8 63.88 C104.71 71.08, 108.68 76.98, 113.04 84.38" stroke="#2f9e44" stroke-width="1" fill="none"></path></g></g><mask></mask><g transform="translate(153.95884306680637 389.71752808926067) rotate(0 223.35986328124977 30)"><text x="0" y="14.016" font-family="Virgil, Segoe UI Emoji" font-size="16px" fill="#1e1e1e" text-anchor="start" style="white-space: pre;" direction="ltr" dominant-baseline="alphabetic">Here equal traffic is sent to 2 Load balancers in </text><text x="0" y="34.016" font-family="Virgil, Segoe UI Emoji" font-size="16px" fill="#1e1e1e" text-anchor="start" style="white-space: pre;" direction="ltr" dominant-baseline="alphabetic">different AZ and each lb instance is distributing traffic</text><text x="0" y="54.016" font-family="Virgil, Segoe UI Emoji" font-size="16px" fill="#1e1e1e" text-anchor="start" style="white-space: pre;" direction="ltr" dominant-baseline="alphabetic">evenly across all registered instances in all AZ </text></g><g stroke-linecap="round"><g transform="translate(60.07264106671528 667.2034140006417) rotate(0 330.6880670447663 1.0431800222231686)"><path d="M1.99 1.93 C112.98 1.65, 553.47 -0.26, 663.73 -0.62 M-0.38 0.51 C110.66 0.37, 552.21 1.35, 662.77 1.53" stroke="#1e1e1e" stroke-width="1" fill="none"></path></g></g><mask></mask><g stroke-linecap="round"><g transform="translate(617.1307729339237 636.951193356168) rotate(0 1.0431800222231686 13.561340288902102)"><path d="M-1.15 -1.03 C-0.82 3.57, 1.24 22.54, 1.81 27.06 M0.45 1.05 C0.61 5.89, 0.53 24.27, 0.71 28.56" stroke="#1e1e1e" stroke-width="1" fill="none"></path></g><g transform="translate(617.1307729339237 636.951193356168) rotate(0 1.0431800222231686 13.561340288902102)"><path d="M-5.3 15.54 C-2.88 19.73, -2.63 22.11, -0.46 28.32 M-3.48 15.96 C-3.07 20.39, -1.85 23.84, 0.46 28.91" stroke="#1e1e1e" stroke-width="1" fill="none"></path></g><g transform="translate(617.1307729339237 636.951193356168) rotate(0 1.0431800222231686 13.561340288902102)"><path d="M4 15.39 C3.75 19.53, 1.33 21.96, -0.46 28.32 M5.83 15.81 C3.33 20.28, 1.64 23.77, 0.46 28.91" stroke="#1e1e1e" stroke-width="1" fill="none"></path></g></g><mask></mask><g stroke-linecap="round"><g transform="translate(115.36118224454685 639.0375534006143) rotate(0 0.5215900111115843 14.60452031112527)"><path d="M0.1 0.5 C0.28 5.36, 0.53 23.29, 0.59 28.12 M-1.31 -0.28 C-1.28 4.78, -0.71 23.89, -0.59 29.08" stroke="#1e1e1e" stroke-width="1" fill="none"></path></g><g transform="translate(115.36118224454685 639.0375534006143) rotate(0 0.5215900111115843 14.60452031112527)"><path d="M-5.33 14.94 C-6.03 18.26, -3.05 23.39, -1.54 28.59 M-6.2 15.26 C-4.44 19.01, -2.85 22.56, -0.21 28.97" stroke="#1e1e1e" stroke-width="1" fill="none"></path></g><g transform="translate(115.36118224454685 639.0375534006143) rotate(0 0.5215900111115843 14.60452031112527)"><path d="M4.66 14.67 C1.41 18.07, 1.83 23.27, -1.54 28.59 M3.79 15 C2.92 18.85, 1.87 22.47, -0.21 28.97" stroke="#1e1e1e" stroke-width="1" fill="none"></path></g></g><mask></mask><g transform="translate(234.28370477799535 351.1198672670016) rotate(0 132.63992309570312 10)"><text x="0" y="14.016" font-family="Virgil, Segoe UI Emoji" font-size="16px" fill="#e03131" text-anchor="start" style="white-space: pre;" direction="ltr" dominant-baseline="alphabetic">Cross Zone Load Balancing is ON</text></g></svg>