<svg version="1.1" xmlns="http://www.w3.org/2000/svg" viewBox="0 0 800.8275322287964 934.8427099184701" width="800.8275322287964" height="934.8427099184701">
  <!-- svg-source:excalidraw -->
  
  <defs>
    <style class="style-fonts">
      @font-face {
        font-family: "Virgil";
        src: url("https://excalidraw.com/Virgil.woff2");
      }
      @font-face {
        font-family: "Cascadia";
        src: url("https://excalidraw.com/Cascadia.woff2");
      }
      @font-face {
        font-family: "Assistant";
        src: url("https://excalidraw.com/Assistant-Regular.woff2");
      }
    </style>
    
  </defs>
  <rect x="0" y="0" width="800.8275322287964" height="934.8427099184701" fill="#ffffff"></rect><g stroke-linecap="round" transform="translate(200.77806246550426 10) rotate(0 197.1610242001916 64.677161377841)"><path d="M32 0 C112.89 -2.87, 196.41 0.83, 362.32 0 M32 0 C115.63 -0.23, 199.53 -1.46, 362.32 0 M362.32 0 C382.13 2.06, 393.86 7.05, 394.32 32 M362.32 0 C383.6 0.61, 398.44 13.97, 394.32 32 M394.32 32 C397.81 60.35, 396.12 77.83, 394.32 97.35 M394.32 32 C394.79 50.32, 395.77 63.11, 394.32 97.35 M394.32 97.35 C393.07 122.5, 384.41 127.25, 362.32 129.35 M394.32 97.35 C390.14 119.21, 386.75 126.46, 362.32 129.35 M362.32 129.35 C248.54 126.74, 132.51 128.83, 32 129.35 M362.32 129.35 C245.61 127, 128.75 127.75, 32 129.35 M32 129.35 C11.69 129.04, -1.63 121.94, 0 97.35 M32 129.35 C9.52 131.84, -4.59 115.57, 0 97.35 M0 97.35 C-0.35 74.9, -1.06 46.53, 0 32 M0 97.35 C-0.67 76.3, -0.64 55.6, 0 32 M0 32 C-2.7 9.2, 11.88 0.39, 32 0 M0 32 C-0.3 13.43, 6.9 -2.77, 32 0" stroke="#1971c2" stroke-width="4" fill="none"></path></g><g transform="translate(263.4591824908912 62.17716137784009) rotate(0 134.4799041748047 12.5)"><text x="134.4799041748047" y="17.52" font-family="Virgil, Segoe UI Emoji" font-size="20px" fill="#1971c2" text-anchor="middle" style="white-space: pre;" direction="ltr" dominant-baseline="alphabetic">Cross Zone Load Balancing</text></g><g stroke-linecap="round" transform="translate(10 483.0559705069245) rotate(0 107.44754228899319 131.96227281123993)"><path d="M32 0 C84.58 -1.83, 137.31 -3.01, 182.9 0 M32 0 C68.91 -3.36, 106.26 -1.29, 182.9 0 M182.9 0 C207.81 2.87, 217.91 14.32, 214.9 32 M182.9 0 C200.01 2.64, 219.29 11.36, 214.9 32 M214.9 32 C215.88 75.35, 216.77 121.16, 214.9 231.92 M214.9 32 C214.03 73.96, 211.83 118.26, 214.9 231.92 M214.9 231.92 C217.58 250.74, 206.04 262.56, 182.9 263.92 M214.9 231.92 C212.09 253.76, 204.46 261.16, 182.9 263.92 M182.9 263.92 C124.24 265.49, 64.21 266.44, 32 263.92 M182.9 263.92 C141.63 265.31, 101.5 264.76, 32 263.92 M32 263.92 C6.68 261.21, 3.73 254.17, 0 231.92 M32 263.92 C13.49 263.87, 3.72 252.38, 0 231.92 M0 231.92 C-1.91 165.91, -1.22 103.15, 0 32 M0 231.92 C3.31 173.48, 2.57 115.86, 0 32 M0 32 C-3.27 8.26, 12.16 2.12, 32 0 M0 32 C-2.78 13.59, 10.12 -1.08, 32 0" stroke="#2f9e44" stroke-width="1" fill="none"></path></g><g transform="translate(37.83265083233982 491.40141068470984) rotate(0 22.239990234375 12.5)"><text x="0" y="17.52" font-family="Virgil, Segoe UI Emoji" font-size="20px" fill="#2f9e44" text-anchor="start" style="white-space: pre;" direction="ltr" dominant-baseline="alphabetic">AZ 1</text></g><g stroke-linecap="round" transform="translate(134.66739792989574 663.03257125452) rotate(0 28.904344159223 29.702583719272297)"><path d="M57.81 29.7 C57.81 31.42, 57.66 33.17, 57.37 34.86 C57.08 36.55, 56.64 38.25, 56.07 39.86 C55.49 41.48, 54.77 43.06, 53.94 44.55 C53.1 46.04, 52.12 47.48, 51.05 48.8 C49.97 50.11, 48.77 51.35, 47.48 52.46 C46.2 53.56, 44.81 54.57, 43.36 55.43 C41.91 56.29, 40.36 57.03, 38.79 57.61 C37.22 58.2, 35.57 58.66, 33.92 58.95 C32.28 59.25, 30.58 59.41, 28.9 59.41 C27.23 59.41, 25.53 59.25, 23.89 58.95 C22.24 58.66, 20.59 58.2, 19.02 57.61 C17.45 57.03, 15.9 56.29, 14.45 55.43 C13 54.57, 11.61 53.56, 10.32 52.46 C9.04 51.35, 7.84 50.11, 6.76 48.8 C5.69 47.48, 4.71 46.04, 3.87 44.55 C3.04 43.06, 2.32 41.48, 1.74 39.86 C1.17 38.25, 0.73 36.55, 0.44 34.86 C0.15 33.17, 0 31.42, 0 29.7 C0 27.98, 0.15 26.24, 0.44 24.54 C0.73 22.85, 1.17 21.16, 1.74 19.54 C2.32 17.93, 3.04 16.34, 3.87 14.85 C4.71 13.36, 5.69 11.93, 6.76 10.61 C7.84 9.29, 9.04 8.05, 10.32 6.95 C11.61 5.84, 13 4.84, 14.45 3.98 C15.9 3.12, 17.45 2.38, 19.02 1.79 C20.59 1.2, 22.24 0.75, 23.89 0.45 C25.53 0.15, 27.23 0, 28.9 0 C30.58 0, 32.28 0.15, 33.92 0.45 C35.57 0.75, 37.22 1.2, 38.79 1.79 C40.36 2.38, 41.91 3.12, 43.36 3.98 C44.81 4.84, 46.2 5.84, 47.48 6.95 C48.77 8.05, 49.97 9.29, 51.05 10.61 C52.12 11.93, 53.1 13.36, 53.94 14.85 C54.77 16.34, 55.49 17.93, 56.07 19.54 C56.64 21.16, 57.08 22.85, 57.37 24.54 C57.66 26.24, 57.74 28.84, 57.81 29.7 C57.88 30.56, 57.88 28.84, 57.81 29.7" stroke="none" stroke-width="0" fill="#fd7e14"></path><path d="M57.81 29.7 C57.81 31.42, 57.66 33.17, 57.37 34.86 C57.08 36.55, 56.64 38.25, 56.07 39.86 C55.49 41.48, 54.77 43.06, 53.94 44.55 C53.1 46.04, 52.12 47.48, 51.05 48.8 C49.97 50.11, 48.77 51.35, 47.48 52.46 C46.2 53.56, 44.81 54.57, 43.36 55.43 C41.91 56.29, 40.36 57.03, 38.79 57.61 C37.22 58.2, 35.57 58.66, 33.92 58.95 C32.28 59.25, 30.58 59.41, 28.9 59.41 C27.23 59.41, 25.53 59.25, 23.89 58.95 C22.24 58.66, 20.59 58.2, 19.02 57.61 C17.45 57.03, 15.9 56.29, 14.45 55.43 C13 54.57, 11.61 53.56, 10.32 52.46 C9.04 51.35, 7.84 50.11, 6.76 48.8 C5.69 47.48, 4.71 46.04, 3.87 44.55 C3.04 43.06, 2.32 41.48, 1.74 39.86 C1.17 38.25, 0.73 36.55, 0.44 34.86 C0.15 33.17, 0 31.42, 0 29.7 C0 27.98, 0.15 26.24, 0.44 24.54 C0.73 22.85, 1.17 21.16, 1.74 19.54 C2.32 17.93, 3.04 16.34, 3.87 14.85 C4.71 13.36, 5.69 11.93, 6.76 10.61 C7.84 9.29, 9.04 8.05, 10.32 6.95 C11.61 5.84, 13 4.84, 14.45 3.98 C15.9 3.12, 17.45 2.38, 19.02 1.79 C20.59 1.2, 22.24 0.75, 23.89 0.45 C25.53 0.15, 27.23 0, 28.9 0 C30.58 0, 32.28 0.15, 33.92 0.45 C35.57 0.75, 37.22 1.2, 38.79 1.79 C40.36 2.38, 41.91 3.12, 43.36 3.98 C44.81 4.84, 46.2 5.84, 47.48 6.95 C48.77 8.05, 49.97 9.29, 51.05 10.61 C52.12 11.93, 53.1 13.36, 53.94 14.85 C54.77 16.34, 55.49 17.93, 56.07 19.54 C56.64 21.16, 57.08 22.85, 57.37 24.54 C57.66 26.24, 57.74 28.84, 57.81 29.7 C57.88 30.56, 57.88 28.84, 57.81 29.7" stroke="#fd7e14" stroke-width="2" fill="none"></path></g><g stroke-linecap="round" transform="translate(148.2652743005765 676.9389806686413) rotate(0 15.645191342633098 16.5860898744113)"><path d="M7.82 0 C13.48 0, 19.14 0, 23.47 0 C28.68 0, 31.29 2.61, 31.29 7.82 C31.29 11.74, 31.29 15.65, 31.29 25.35 C31.29 30.56, 28.68 33.17, 23.47 33.17 C20.14 33.17, 16.81 33.17, 7.82 33.17 C2.61 33.17, 0 30.56, 0 25.35 C0 20.62, 0 15.9, 0 7.82 C0 2.61, 2.61 0, 7.82 0" stroke="none" stroke-width="0" fill="#fd7e14"></path><path d="M7.82 0 C11.29 0, 14.76 0, 23.47 0 M7.82 0 C12.72 0, 17.63 0, 23.47 0 M23.47 0 C28.68 0, 31.29 2.61, 31.29 7.82 M23.47 0 C28.68 0, 31.29 2.61, 31.29 7.82 M31.29 7.82 C31.29 13.73, 31.29 19.63, 31.29 25.35 M31.29 7.82 C31.29 13.28, 31.29 18.73, 31.29 25.35 M31.29 25.35 C31.29 30.56, 28.68 33.17, 23.47 33.17 M31.29 25.35 C31.29 30.56, 28.68 33.17, 23.47 33.17 M23.47 33.17 C17.87 33.17, 12.27 33.17, 7.82 33.17 M23.47 33.17 C17.93 33.17, 12.39 33.17, 7.82 33.17 M7.82 33.17 C2.61 33.17, 0 30.56, 0 25.35 M7.82 33.17 C2.61 33.17, 0 30.56, 0 25.35 M0 25.35 C0 21.46, 0 17.57, 0 7.82 M0 25.35 C0 19.04, 0 12.73, 0 7.82 M0 7.82 C0 2.61, 2.61 0, 7.82 0 M0 7.82 C0 2.61, 2.61 0, 7.82 0" stroke="#fff" stroke-width="2" fill="none"></path></g><g transform="translate(153.27047388295568 683.5250705430535) rotate(0 10.639991760253679 10)"><text x="10.639991760253906" y="14.016" font-family="Virgil, Segoe UI Emoji" font-size="16px" fill="#ffffff" text-anchor="middle" style="white-space: pre;" direction="ltr" dominant-baseline="alphabetic">25</text></g><g stroke-linecap="round" transform="translate(33.25465695193816 663.03257125452) rotate(0 28.904344159223 29.702583719272297)"><path d="M57.81 29.7 C57.81 31.42, 57.66 33.17, 57.37 34.86 C57.08 36.55, 56.64 38.25, 56.07 39.86 C55.49 41.48, 54.77 43.06, 53.94 44.55 C53.1 46.04, 52.12 47.48, 51.05 48.8 C49.97 50.11, 48.77 51.35, 47.48 52.46 C46.2 53.56, 44.81 54.57, 43.36 55.43 C41.91 56.29, 40.36 57.03, 38.79 57.61 C37.22 58.2, 35.57 58.66, 33.92 58.95 C32.28 59.25, 30.58 59.41, 28.9 59.41 C27.23 59.41, 25.53 59.25, 23.89 58.95 C22.24 58.66, 20.59 58.2, 19.02 57.61 C17.45 57.03, 15.9 56.29, 14.45 55.43 C13 54.57, 11.61 53.56, 10.32 52.46 C9.04 51.35, 7.84 50.11, 6.76 48.8 C5.69 47.48, 4.71 46.04, 3.87 44.55 C3.04 43.06, 2.32 41.48, 1.74 39.86 C1.17 38.25, 0.73 36.55, 0.44 34.86 C0.15 33.17, 0 31.42, 0 29.7 C0 27.98, 0.15 26.24, 0.44 24.54 C0.73 22.85, 1.17 21.16, 1.74 19.54 C2.32 17.93, 3.04 16.34, 3.87 14.85 C4.71 13.36, 5.69 11.93, 6.76 10.61 C7.84 9.29, 9.04 8.05, 10.32 6.95 C11.61 5.84, 13 4.84, 14.45 3.98 C15.9 3.12, 17.45 2.38, 19.02 1.79 C20.59 1.2, 22.24 0.75, 23.89 0.45 C25.53 0.15, 27.23 0, 28.9 0 C30.58 0, 32.28 0.15, 33.92 0.45 C35.57 0.75, 37.22 1.2, 38.79 1.79 C40.36 2.38, 41.91 3.12, 43.36 3.98 C44.81 4.84, 46.2 5.84, 47.48 6.95 C48.77 8.05, 49.97 9.29, 51.05 10.61 C52.12 11.93, 53.1 13.36, 53.94 14.85 C54.77 16.34, 55.49 17.93, 56.07 19.54 C56.64 21.16, 57.08 22.85, 57.37 24.54 C57.66 26.24, 57.74 28.84, 57.81 29.7 C57.88 30.56, 57.88 28.84, 57.81 29.7" stroke="none" stroke-width="0" fill="#fd7e14"></path><path d="M57.81 29.7 C57.81 31.42, 57.66 33.17, 57.37 34.86 C57.08 36.55, 56.64 38.25, 56.07 39.86 C55.49 41.48, 54.77 43.06, 53.94 44.55 C53.1 46.04, 52.12 47.48, 51.05 48.8 C49.97 50.11, 48.77 51.35, 47.48 52.46 C46.2 53.56, 44.81 54.57, 43.36 55.43 C41.91 56.29, 40.36 57.03, 38.79 57.61 C37.22 58.2, 35.57 58.66, 33.92 58.95 C32.28 59.25, 30.58 59.41, 28.9 59.41 C27.23 59.41, 25.53 59.25, 23.89 58.95 C22.24 58.66, 20.59 58.2, 19.02 57.61 C17.45 57.03, 15.9 56.29, 14.45 55.43 C13 54.57, 11.61 53.56, 10.32 52.46 C9.04 51.35, 7.84 50.11, 6.76 48.8 C5.69 47.48, 4.71 46.04, 3.87 44.55 C3.04 43.06, 2.32 41.48, 1.74 39.86 C1.17 38.25, 0.73 36.55, 0.44 34.86 C0.15 33.17, 0 31.42, 0 29.7 C0 27.98, 0.15 26.24, 0.44 24.54 C0.73 22.85, 1.17 21.16, 1.74 19.54 C2.32 17.93, 3.04 16.34, 3.87 14.85 C4.71 13.36, 5.69 11.93, 6.76 10.61 C7.84 9.29, 9.04 8.05, 10.32 6.95 C11.61 5.84, 13 4.84, 14.45 3.98 C15.9 3.12, 17.45 2.38, 19.02 1.79 C20.59 1.2, 22.24 0.75, 23.89 0.45 C25.53 0.15, 27.23 0, 28.9 0 C30.58 0, 32.28 0.15, 33.92 0.45 C35.57 0.75, 37.22 1.2, 38.79 1.79 C40.36 2.38, 41.91 3.12, 43.36 3.98 C44.81 4.84, 46.2 5.84, 47.48 6.95 C48.77 8.05, 49.97 9.29, 51.05 10.61 C52.12 11.93, 53.1 13.36, 53.94 14.85 C54.77 16.34, 55.49 17.93, 56.07 19.54 C56.64 21.16, 57.08 22.85, 57.37 24.54 C57.66 26.24, 57.74 28.84, 57.81 29.7 C57.88 30.56, 57.88 28.84, 57.81 29.7" stroke="#fd7e14" stroke-width="2" fill="none"></path></g><g stroke-linecap="round" transform="translate(46.85253332262073 676.9389806686413) rotate(0 14.655319563152261 16.58608987441039)"><path d="M7.33 0 C11.93 0, 16.54 0, 21.98 0 C26.87 0, 29.31 2.44, 29.31 7.33 C29.31 13.9, 29.31 20.47, 29.31 25.84 C29.31 30.73, 26.87 33.17, 21.98 33.17 C16.92 33.17, 11.86 33.17, 7.33 33.17 C2.44 33.17, 0 30.73, 0 25.84 C0 21.51, 0 17.17, 0 7.33 C0 2.44, 2.44 0, 7.33 0" stroke="none" stroke-width="0" fill="#fd7e14"></path><path d="M7.33 0 C11.71 0, 16.08 0, 21.98 0 M7.33 0 C12.57 0, 17.8 0, 21.98 0 M21.98 0 C26.87 0, 29.31 2.44, 29.31 7.33 M21.98 0 C26.87 0, 29.31 2.44, 29.31 7.33 M29.31 7.33 C29.31 11.2, 29.31 15.07, 29.31 25.84 M29.31 7.33 C29.31 13.09, 29.31 18.84, 29.31 25.84 M29.31 25.84 C29.31 30.73, 26.87 33.17, 21.98 33.17 M29.31 25.84 C29.31 30.73, 26.87 33.17, 21.98 33.17 M21.98 33.17 C17.95 33.17, 13.92 33.17, 7.33 33.17 M21.98 33.17 C17.6 33.17, 13.23 33.17, 7.33 33.17 M7.33 33.17 C2.44 33.17, 0 30.73, 0 25.84 M7.33 33.17 C2.44 33.17, 0 30.73, 0 25.84 M0 25.84 C0 20.41, 0 14.98, 0 7.33 M0 25.84 C0 19.11, 0 12.38, 0 7.33 M0 7.33 C0 2.44, 2.44 0, 7.33 0 M0 7.33 C0 2.44, 2.44 0, 7.33 0" stroke="#ffffff" stroke-width="2" fill="none"></path></g><g transform="translate(52.862856242706584 685.4000705430517) rotate(0 8.644996643066406 8.125)"><text x="8.644996643066406" y="11.388" font-family="Virgil, Segoe UI Emoji" font-size="13px" fill="#ffffff" text-anchor="middle" style="white-space: pre;" direction="ltr" dominant-baseline="alphabetic">25</text></g><g stroke-linecap="round" transform="translate(433.10882990230493 476.27530036247845) rotate(0 178.85935116324572 224.2837047779958)"><path d="M32 0 C143.95 6.85, 252.93 1.61, 325.72 0 M32 0 C105.53 -1.79, 179.98 -4.48, 325.72 0 M325.72 0 C345.8 3.81, 358.47 8.56, 357.72 32 M325.72 0 C342.87 0.52, 360.81 7.77, 357.72 32 M357.72 32 C356.42 164.94, 354.74 299.57, 357.72 416.57 M357.72 32 C358.42 167.4, 358.7 304.47, 357.72 416.57 M357.72 416.57 C358.74 437.58, 345.42 451.82, 325.72 448.57 M357.72 416.57 C356.57 440.38, 342.46 445.45, 325.72 448.57 M325.72 448.57 C210.2 453.66, 94.18 451.68, 32 448.57 M325.72 448.57 C231 447.1, 137.49 447.18, 32 448.57 M32 448.57 C7.97 447.1, 1.21 438.29, 0 416.57 M32 448.57 C10.37 451.33, -3.77 435.13, 0 416.57 M0 416.57 C-0.91 286.58, -2.97 155.72, 0 32 M0 416.57 C2.39 293.76, 2.5 171.37, 0 32 M0 32 C-3.79 9.91, 10.12 -1.5, 32 0 M0 32 C0.65 13.49, 11.67 -2.87, 32 0" stroke="#2f9e44" stroke-width="1" fill="none"></path></g><g transform="translate(453.54564543609195 493.4762650671473) rotate(0 25.6639404296875 12.040441176470267)"><text x="0" y="16.87588235294111" font-family="Virgil, Segoe UI Emoji" font-size="19.264705882352864px" fill="#2f9e44" text-anchor="start" style="white-space: pre;" direction="ltr" dominant-baseline="alphabetic">AZ 2</text></g><g stroke-linecap="round" transform="translate(547.8095136875272 665.4515643607119) rotate(0 27.84168444748684 28.610576964887514)"><path d="M55.68 28.61 C55.68 30.27, 55.54 31.95, 55.26 33.58 C54.98 35.21, 54.56 36.84, 54 38.4 C53.45 39.95, 52.76 41.48, 51.95 42.92 C51.15 44.35, 50.21 45.73, 49.17 47 C48.13 48.27, 46.97 49.46, 45.74 50.53 C44.5 51.59, 43.16 52.56, 41.76 53.39 C40.37 54.22, 38.88 54.93, 37.36 55.5 C35.85 56.06, 34.26 56.5, 32.68 56.79 C31.09 57.07, 29.45 57.22, 27.84 57.22 C26.23 57.22, 24.59 57.07, 23.01 56.79 C21.42 56.5, 19.83 56.06, 18.32 55.5 C16.8 54.93, 15.32 54.22, 13.92 53.39 C12.53 52.56, 11.18 51.59, 9.95 50.53 C8.71 49.46, 7.55 48.27, 6.51 47 C5.48 45.73, 4.54 44.35, 3.73 42.92 C2.92 41.48, 2.23 39.95, 1.68 38.4 C1.13 36.84, 0.7 35.21, 0.42 33.58 C0.14 31.95, 0 30.27, 0 28.61 C0 26.95, 0.14 25.27, 0.42 23.64 C0.7 22.01, 1.13 20.38, 1.68 18.83 C2.23 17.27, 2.92 15.74, 3.73 14.31 C4.54 12.87, 5.48 11.49, 6.51 10.22 C7.55 8.95, 8.71 7.76, 9.95 6.69 C11.18 5.63, 12.53 4.66, 13.92 3.83 C15.32 3.01, 16.8 2.29, 18.32 1.73 C19.83 1.16, 21.42 0.72, 23.01 0.43 C24.59 0.15, 26.23 0, 27.84 0 C29.45 0, 31.09 0.15, 32.68 0.43 C34.26 0.72, 35.85 1.16, 37.36 1.73 C38.88 2.29, 40.37 3.01, 41.76 3.83 C43.16 4.66, 44.5 5.63, 45.74 6.69 C46.97 7.76, 48.13 8.95, 49.17 10.22 C50.21 11.49, 51.15 12.87, 51.95 14.31 C52.76 15.74, 53.45 17.27, 54 18.83 C54.56 20.38, 54.98 22.01, 55.26 23.64 C55.54 25.27, 55.61 27.78, 55.68 28.61 C55.75 29.44, 55.75 27.78, 55.68 28.61" stroke="none" stroke-width="0" fill="#fd7e14"></path><path d="M55.68 28.61 C55.68 30.27, 55.54 31.95, 55.26 33.58 C54.98 35.21, 54.56 36.84, 54 38.4 C53.45 39.95, 52.76 41.48, 51.95 42.92 C51.15 44.35, 50.21 45.73, 49.17 47 C48.13 48.27, 46.97 49.46, 45.74 50.53 C44.5 51.59, 43.16 52.56, 41.76 53.39 C40.37 54.22, 38.88 54.93, 37.36 55.5 C35.85 56.06, 34.26 56.5, 32.68 56.79 C31.09 57.07, 29.45 57.22, 27.84 57.22 C26.23 57.22, 24.59 57.07, 23.01 56.79 C21.42 56.5, 19.83 56.06, 18.32 55.5 C16.8 54.93, 15.32 54.22, 13.92 53.39 C12.53 52.56, 11.18 51.59, 9.95 50.53 C8.71 49.46, 7.55 48.27, 6.51 47 C5.48 45.73, 4.54 44.35, 3.73 42.92 C2.92 41.48, 2.23 39.95, 1.68 38.4 C1.13 36.84, 0.7 35.21, 0.42 33.58 C0.14 31.95, 0 30.27, 0 28.61 C0 26.95, 0.14 25.27, 0.42 23.64 C0.7 22.01, 1.13 20.38, 1.68 18.83 C2.23 17.27, 2.92 15.74, 3.73 14.31 C4.54 12.87, 5.48 11.49, 6.51 10.22 C7.55 8.95, 8.71 7.76, 9.95 6.69 C11.18 5.63, 12.53 4.66, 13.92 3.83 C15.32 3.01, 16.8 2.29, 18.32 1.73 C19.83 1.16, 21.42 0.72, 23.01 0.43 C24.59 0.15, 26.23 0, 27.84 0 C29.45 0, 31.09 0.15, 32.68 0.43 C34.26 0.72, 35.85 1.16, 37.36 1.73 C38.88 2.29, 40.37 3.01, 41.76 3.83 C43.16 4.66, 44.5 5.63, 45.74 6.69 C46.97 7.76, 48.13 8.95, 49.17 10.22 C50.21 11.49, 51.15 12.87, 51.95 14.31 C52.76 15.74, 53.45 17.27, 54 18.83 C54.56 20.38, 54.98 22.01, 55.26 23.64 C55.54 25.27, 55.61 27.78, 55.68 28.61 C55.75 29.44, 55.75 27.78, 55.68 28.61" stroke="#fd7e14" stroke-width="2" fill="none"></path></g><g stroke-linecap="round" transform="translate(560.9074681328148 678.8467087228346) rotate(0 14.116521049801122 15.161869303794447)"><path d="M7.06 0 C10.06 0, 13.07 0, 21.17 0 C25.88 0, 28.23 2.35, 28.23 7.06 C28.23 11.43, 28.23 15.8, 28.23 23.27 C28.23 27.97, 25.88 30.32, 21.17 30.32 C16.66 30.32, 12.15 30.32, 7.06 30.32 C2.35 30.32, 0 27.97, 0 23.27 C0 18.56, 0 13.85, 0 7.06 C0 2.35, 2.35 0, 7.06 0" stroke="none" stroke-width="0" fill="#fd7e14"></path><path d="M7.06 0 C11.81 0, 16.57 0, 21.17 0 M7.06 0 C11.45 0, 15.85 0, 21.17 0 M21.17 0 C25.88 0, 28.23 2.35, 28.23 7.06 M21.17 0 C25.88 0, 28.23 2.35, 28.23 7.06 M28.23 7.06 C28.23 12.86, 28.23 18.66, 28.23 23.27 M28.23 7.06 C28.23 12.79, 28.23 18.53, 28.23 23.27 M28.23 23.27 C28.23 27.97, 25.88 30.32, 21.17 30.32 M28.23 23.27 C28.23 27.97, 25.88 30.32, 21.17 30.32 M21.17 30.32 C18.04 30.32, 14.91 30.32, 7.06 30.32 M21.17 30.32 C16.09 30.32, 11.01 30.32, 7.06 30.32 M7.06 30.32 C2.35 30.32, 0 27.97, 0 23.27 M7.06 30.32 C2.35 30.32, 0 27.97, 0 23.27 M0 23.27 C0 17.4, 0 11.54, 0 7.06 M0 23.27 C0 17.41, 0 11.55, 0 7.06 M0 7.06 C0 2.35, 2.35 0, 7.06 0 M0 7.06 C0 2.35, 2.35 0, 7.06 0" stroke="#fff" stroke-width="2" fill="none"></path></g><g transform="translate(567.3519921123034 684.008578026629) rotate(0 7.6719970703125 10)"><text x="7.6719970703125" y="14.016" font-family="Virgil, Segoe UI Emoji" font-size="16px" fill="#ffffff" text-anchor="middle" style="white-space: pre;" direction="ltr" dominant-baseline="alphabetic">10</text></g><g stroke-linecap="round" transform="translate(620.827001615593 665.4515643607119) rotate(0 27.84168444748684 28.610576964887514)"><path d="M55.68 28.61 C55.68 30.27, 55.54 31.95, 55.26 33.58 C54.98 35.21, 54.56 36.84, 54 38.4 C53.45 39.95, 52.76 41.48, 51.95 42.92 C51.15 44.35, 50.21 45.73, 49.17 47 C48.13 48.27, 46.97 49.46, 45.74 50.53 C44.5 51.59, 43.16 52.56, 41.76 53.39 C40.37 54.22, 38.88 54.93, 37.36 55.5 C35.85 56.06, 34.26 56.5, 32.68 56.79 C31.09 57.07, 29.45 57.22, 27.84 57.22 C26.23 57.22, 24.59 57.07, 23.01 56.79 C21.42 56.5, 19.83 56.06, 18.32 55.5 C16.8 54.93, 15.32 54.22, 13.92 53.39 C12.53 52.56, 11.18 51.59, 9.95 50.53 C8.71 49.46, 7.55 48.27, 6.51 47 C5.48 45.73, 4.54 44.35, 3.73 42.92 C2.92 41.48, 2.23 39.95, 1.68 38.4 C1.13 36.84, 0.7 35.21, 0.42 33.58 C0.14 31.95, 0 30.27, 0 28.61 C0 26.95, 0.14 25.27, 0.42 23.64 C0.7 22.01, 1.13 20.38, 1.68 18.83 C2.23 17.27, 2.92 15.74, 3.73 14.31 C4.54 12.87, 5.48 11.49, 6.51 10.22 C7.55 8.95, 8.71 7.76, 9.95 6.69 C11.18 5.63, 12.53 4.66, 13.92 3.83 C15.32 3.01, 16.8 2.29, 18.32 1.73 C19.83 1.16, 21.42 0.72, 23.01 0.43 C24.59 0.15, 26.23 0, 27.84 0 C29.45 0, 31.09 0.15, 32.68 0.43 C34.26 0.72, 35.85 1.16, 37.36 1.73 C38.88 2.29, 40.37 3.01, 41.76 3.83 C43.16 4.66, 44.5 5.63, 45.74 6.69 C46.97 7.76, 48.13 8.95, 49.17 10.22 C50.21 11.49, 51.15 12.87, 51.95 14.31 C52.76 15.74, 53.45 17.27, 54 18.83 C54.56 20.38, 54.98 22.01, 55.26 23.64 C55.54 25.27, 55.61 27.78, 55.68 28.61 C55.75 29.44, 55.75 27.78, 55.68 28.61" stroke="none" stroke-width="0" fill="#fd7e14"></path><path d="M55.68 28.61 C55.68 30.27, 55.54 31.95, 55.26 33.58 C54.98 35.21, 54.56 36.84, 54 38.4 C53.45 39.95, 52.76 41.48, 51.95 42.92 C51.15 44.35, 50.21 45.73, 49.17 47 C48.13 48.27, 46.97 49.46, 45.74 50.53 C44.5 51.59, 43.16 52.56, 41.76 53.39 C40.37 54.22, 38.88 54.93, 37.36 55.5 C35.85 56.06, 34.26 56.5, 32.68 56.79 C31.09 57.07, 29.45 57.22, 27.84 57.22 C26.23 57.22, 24.59 57.07, 23.01 56.79 C21.42 56.5, 19.83 56.06, 18.32 55.5 C16.8 54.93, 15.32 54.22, 13.92 53.39 C12.53 52.56, 11.18 51.59, 9.95 50.53 C8.71 49.46, 7.55 48.27, 6.51 47 C5.48 45.73, 4.54 44.35, 3.73 42.92 C2.92 41.48, 2.23 39.95, 1.68 38.4 C1.13 36.84, 0.7 35.21, 0.42 33.58 C0.14 31.95, 0 30.27, 0 28.61 C0 26.95, 0.14 25.27, 0.42 23.64 C0.7 22.01, 1.13 20.38, 1.68 18.83 C2.23 17.27, 2.92 15.74, 3.73 14.31 C4.54 12.87, 5.48 11.49, 6.51 10.22 C7.55 8.95, 8.71 7.76, 9.95 6.69 C11.18 5.63, 12.53 4.66, 13.92 3.83 C15.32 3.01, 16.8 2.29, 18.32 1.73 C19.83 1.16, 21.42 0.72, 23.01 0.43 C24.59 0.15, 26.23 0, 27.84 0 C29.45 0, 31.09 0.15, 32.68 0.43 C34.26 0.72, 35.85 1.16, 37.36 1.73 C38.88 2.29, 40.37 3.01, 41.76 3.83 C43.16 4.66, 44.5 5.63, 45.74 6.69 C46.97 7.76, 48.13 8.95, 49.17 10.22 C50.21 11.49, 51.15 12.87, 51.95 14.31 C52.76 15.74, 53.45 17.27, 54 18.83 C54.56 20.38, 54.98 22.01, 55.26 23.64 C55.54 25.27, 55.61 27.78, 55.68 28.61 C55.75 29.44, 55.75 27.78, 55.68 28.61" stroke="#fd7e14" stroke-width="2" fill="none"></path></g><g stroke-linecap="round" transform="translate(633.9249560608823 678.8467087228382) rotate(0 14.116521049801122 15.161869303794447)"><path d="M7.06 0 C11.93 0, 16.81 0, 21.17 0 C25.88 0, 28.23 2.35, 28.23 7.06 C28.23 10.86, 28.23 14.65, 28.23 23.27 C28.23 27.97, 25.88 30.32, 21.17 30.32 C17.5 30.32, 13.82 30.32, 7.06 30.32 C2.35 30.32, 0 27.97, 0 23.27 C0 17.19, 0 11.12, 0 7.06 C0 2.35, 2.35 0, 7.06 0" stroke="none" stroke-width="0" fill="#fd7e14"></path><path d="M7.06 0 C10.01 0, 12.96 0, 21.17 0 M7.06 0 C11.45 0, 15.84 0, 21.17 0 M21.17 0 C25.88 0, 28.23 2.35, 28.23 7.06 M21.17 0 C25.88 0, 28.23 2.35, 28.23 7.06 M28.23 7.06 C28.23 11.52, 28.23 15.97, 28.23 23.27 M28.23 7.06 C28.23 11.9, 28.23 16.74, 28.23 23.27 M28.23 23.27 C28.23 27.97, 25.88 30.32, 21.17 30.32 M28.23 23.27 C28.23 27.97, 25.88 30.32, 21.17 30.32 M21.17 30.32 C17.03 30.32, 12.89 30.32, 7.06 30.32 M21.17 30.32 C16.04 30.32, 10.91 30.32, 7.06 30.32 M7.06 30.32 C2.35 30.32, 0 27.97, 0 23.27 M7.06 30.32 C2.35 30.32, 0 27.97, 0 23.27 M0 23.27 C0 18.17, 0 13.08, 0 7.06 M0 23.27 C0 19.95, 0 16.63, 0 7.06 M0 7.06 C0 2.35, 2.35 0, 7.06 0 M0 7.06 C0 2.35, 2.35 0, 7.06 0" stroke="#fff" stroke-width="2" fill="none"></path></g><g transform="translate(640.369480040371 684.0085780266327) rotate(0 7.6719970703125 10)"><text x="7.6719970703125" y="14.016" font-family="Virgil, Segoe UI Emoji" font-size="16px" fill="#ffffff" text-anchor="middle" style="white-space: pre;" direction="ltr" dominant-baseline="alphabetic">10</text></g><g stroke-linecap="round" transform="translate(693.8444895436587 665.4515643607119) rotate(0 27.84168444748684 28.610576964887514)"><path d="M55.68 28.61 C55.68 30.27, 55.54 31.95, 55.26 33.58 C54.98 35.21, 54.56 36.84, 54 38.4 C53.45 39.95, 52.76 41.48, 51.95 42.92 C51.15 44.35, 50.21 45.73, 49.17 47 C48.13 48.27, 46.97 49.46, 45.74 50.53 C44.5 51.59, 43.16 52.56, 41.76 53.39 C40.37 54.22, 38.88 54.93, 37.36 55.5 C35.85 56.06, 34.26 56.5, 32.68 56.79 C31.09 57.07, 29.45 57.22, 27.84 57.22 C26.23 57.22, 24.59 57.07, 23.01 56.79 C21.42 56.5, 19.83 56.06, 18.32 55.5 C16.8 54.93, 15.32 54.22, 13.92 53.39 C12.53 52.56, 11.18 51.59, 9.95 50.53 C8.71 49.46, 7.55 48.27, 6.51 47 C5.48 45.73, 4.54 44.35, 3.73 42.92 C2.92 41.48, 2.23 39.95, 1.68 38.4 C1.13 36.84, 0.7 35.21, 0.42 33.58 C0.14 31.95, 0 30.27, 0 28.61 C0 26.95, 0.14 25.27, 0.42 23.64 C0.7 22.01, 1.13 20.38, 1.68 18.83 C2.23 17.27, 2.92 15.74, 3.73 14.31 C4.54 12.87, 5.48 11.49, 6.51 10.22 C7.55 8.95, 8.71 7.76, 9.95 6.69 C11.18 5.63, 12.53 4.66, 13.92 3.83 C15.32 3.01, 16.8 2.29, 18.32 1.73 C19.83 1.16, 21.42 0.72, 23.01 0.43 C24.59 0.15, 26.23 0, 27.84 0 C29.45 0, 31.09 0.15, 32.68 0.43 C34.26 0.72, 35.85 1.16, 37.36 1.73 C38.88 2.29, 40.37 3.01, 41.76 3.83 C43.16 4.66, 44.5 5.63, 45.74 6.69 C46.97 7.76, 48.13 8.95, 49.17 10.22 C50.21 11.49, 51.15 12.87, 51.95 14.31 C52.76 15.74, 53.45 17.27, 54 18.83 C54.56 20.38, 54.98 22.01, 55.26 23.64 C55.54 25.27, 55.61 27.78, 55.68 28.61 C55.75 29.44, 55.75 27.78, 55.68 28.61" stroke="none" stroke-width="0" fill="#fd7e14"></path><path d="M55.68 28.61 C55.68 30.27, 55.54 31.95, 55.26 33.58 C54.98 35.21, 54.56 36.84, 54 38.4 C53.45 39.95, 52.76 41.48, 51.95 42.92 C51.15 44.35, 50.21 45.73, 49.17 47 C48.13 48.27, 46.97 49.46, 45.74 50.53 C44.5 51.59, 43.16 52.56, 41.76 53.39 C40.37 54.22, 38.88 54.93, 37.36 55.5 C35.85 56.06, 34.26 56.5, 32.68 56.79 C31.09 57.07, 29.45 57.22, 27.84 57.22 C26.23 57.22, 24.59 57.07, 23.01 56.79 C21.42 56.5, 19.83 56.06, 18.32 55.5 C16.8 54.93, 15.32 54.22, 13.92 53.39 C12.53 52.56, 11.18 51.59, 9.95 50.53 C8.71 49.46, 7.55 48.27, 6.51 47 C5.48 45.73, 4.54 44.35, 3.73 42.92 C2.92 41.48, 2.23 39.95, 1.68 38.4 C1.13 36.84, 0.7 35.21, 0.42 33.58 C0.14 31.95, 0 30.27, 0 28.61 C0 26.95, 0.14 25.27, 0.42 23.64 C0.7 22.01, 1.13 20.38, 1.68 18.83 C2.23 17.27, 2.92 15.74, 3.73 14.31 C4.54 12.87, 5.48 11.49, 6.51 10.22 C7.55 8.95, 8.71 7.76, 9.95 6.69 C11.18 5.63, 12.53 4.66, 13.92 3.83 C15.32 3.01, 16.8 2.29, 18.32 1.73 C19.83 1.16, 21.42 0.72, 23.01 0.43 C24.59 0.15, 26.23 0, 27.84 0 C29.45 0, 31.09 0.15, 32.68 0.43 C34.26 0.72, 35.85 1.16, 37.36 1.73 C38.88 2.29, 40.37 3.01, 41.76 3.83 C43.16 4.66, 44.5 5.63, 45.74 6.69 C46.97 7.76, 48.13 8.95, 49.17 10.22 C50.21 11.49, 51.15 12.87, 51.95 14.31 C52.76 15.74, 53.45 17.27, 54 18.83 C54.56 20.38, 54.98 22.01, 55.26 23.64 C55.54 25.27, 55.61 27.78, 55.68 28.61 C55.75 29.44, 55.75 27.78, 55.68 28.61" stroke="#fd7e14" stroke-width="2" fill="none"></path></g><g stroke-linecap="round" transform="translate(706.9424439889463 678.8467087228382) rotate(0 14.116521049801122 15.161869303794447)"><path d="M7.06 0 C10.83 0, 14.6 0, 21.17 0 C25.88 0, 28.23 2.35, 28.23 7.06 C28.23 13.37, 28.23 19.68, 28.23 23.27 C28.23 27.97, 25.88 30.32, 21.17 30.32 C18.17 30.32, 15.17 30.32, 7.06 30.32 C2.35 30.32, 0 27.97, 0 23.27 C0 18.71, 0 14.15, 0 7.06 C0 2.35, 2.35 0, 7.06 0" stroke="none" stroke-width="0" fill="#fd7e14"></path><path d="M7.06 0 C10.43 0, 13.8 0, 21.17 0 M7.06 0 C10.93 0, 14.79 0, 21.17 0 M21.17 0 C25.88 0, 28.23 2.35, 28.23 7.06 M21.17 0 C25.88 0, 28.23 2.35, 28.23 7.06 M28.23 7.06 C28.23 12.92, 28.23 18.78, 28.23 23.27 M28.23 7.06 C28.23 11.44, 28.23 15.83, 28.23 23.27 M28.23 23.27 C28.23 27.97, 25.88 30.32, 21.17 30.32 M28.23 23.27 C28.23 27.97, 25.88 30.32, 21.17 30.32 M21.17 30.32 C17.79 30.32, 14.41 30.32, 7.06 30.32 M21.17 30.32 C18.01 30.32, 14.85 30.32, 7.06 30.32 M7.06 30.32 C2.35 30.32, 0 27.97, 0 23.27 M7.06 30.32 C2.35 30.32, 0 27.97, 0 23.27 M0 23.27 C0 17.66, 0 12.06, 0 7.06 M0 23.27 C0 16.86, 0 10.45, 0 7.06 M0 7.06 C0 2.35, 2.35 0, 7.06 0 M0 7.06 C0 2.35, 2.35 0, 7.06 0" stroke="#fff" stroke-width="2" fill="none"></path></g><g transform="translate(713.3869679684349 684.0085780266327) rotate(0 7.6719970703125 10)"><text x="7.6719970703125" y="14.016" font-family="Virgil, Segoe UI Emoji" font-size="16px" fill="#ffffff" text-anchor="middle" style="white-space: pre;" direction="ltr" dominant-baseline="alphabetic">10</text></g><g stroke-linecap="round" transform="translate(85.10590822062022 512.2086495069852) rotate(0 28.222222222221944 28.222222222221717)"><path d="M17.13 2.42 C22.33 0.01, 30.96 -0.38, 36.88 1.26 C42.8 2.91, 49.55 7.12, 52.67 12.31 C55.79 17.49, 56.41 26.33, 55.59 32.36 C54.77 38.38, 52.03 44.49, 47.76 48.48 C43.5 52.47, 36.18 56.06, 30.01 56.3 C23.84 56.55, 15.61 53.7, 10.75 49.96 C5.88 46.22, 2.23 39.58, 0.85 33.87 C-0.53 28.15, -0.72 20.98, 2.46 15.65 C5.65 10.32, 16.54 4.45, 19.95 1.88 C23.37 -0.7, 22.86 -0.1, 22.96 0.22 M23.29 -0.44 C28.8 -2.21, 36.47 -0.42, 41.81 2.45 C47.14 5.32, 53.32 10.94, 55.3 16.8 C57.27 22.65, 55.95 31.49, 53.66 37.57 C51.36 43.66, 46.53 49.98, 41.54 53.3 C36.55 56.62, 29.69 58.52, 23.71 57.51 C17.73 56.49, 9.83 52.14, 5.66 47.2 C1.49 42.27, -1.63 34.15, -1.3 27.91 C-0.98 21.67, 3.48 14.12, 7.58 9.79 C11.68 5.46, 20.6 3.39, 23.29 1.93 C25.99 0.46, 23.74 0.8, 23.75 1" stroke="#000000" stroke-width="1" fill="none"></path></g><g stroke-linecap="round"><g transform="translate(93.38188775035906 530.6787187798218) rotate(0 18.870409291296482 10.074038771125743)" fill-rule="evenodd"><path d="M0.43 -0.94 L-0.61 17.06 L9.41 16.02 L8.91 9.98 L25.82 21.98 L26.14 24.02 L30.54 27 L31.71 28.22 L38.51 27.36 L37.34 20.63 L31.1 22.19 L31.3 23.46 L29 19.34 L27.85 21.93 L12.79 10.6 L25.76 8.94 L24.66 12.38 L31.38 8.89 L30.68 14 L38.27 12.3 L38.51 6.03 L30.87 6.96 L30.56 8.56 L24.19 5.96 L25.71 7.3 L11.61 8.16 L27.28 -1.22 L27.86 1.05 L30.73 -3.7 L31.17 -0.59 L37.08 -1.4 L38.21 -9.04 L29.6 -8.04 L29.96 -5.99 L25.74 -5.11 L26.35 -2.02 L8.83 7.74 L8.84 0.47 L0.61 0.61" stroke="none" stroke-width="0" fill="#fff" fill-rule="evenodd"></path><path d="M0 0 C-0.03 3.12, -0.25 7.63, 0.15 16.72 M0 0 C-0.3 4.93, 0.24 10.58, 0.15 16.72 M0.15 16.72 C2.15 16.48, 4.44 16.6, 8.92 16.8 M0.15 16.72 C2.25 16.85, 3.87 16.72, 8.92 16.8 M8.92 16.8 C9.17 15.03, 8.81 13.08, 9.06 10.38 M8.92 16.8 C8.81 15.37, 8.85 14.02, 9.06 10.38 M9.06 10.38 C14.79 13.29, 19.26 18.67, 26.61 22.66 M9.06 10.38 C13.89 13.49, 18.21 16.68, 26.61 22.66 M26.61 22.66 C26.26 23.34, 25.69 24.28, 25.34 25.02 M26.61 22.66 C26.32 23.16, 26.03 23.82, 25.34 25.02 M25.34 25.02 C27.46 25.23, 28.81 25.65, 31.13 26.1 M25.34 25.02 C27.21 25.34, 29.49 25.78, 31.13 26.1 M31.13 26.1 C31.02 27.02, 31.25 27.65, 31.13 28.58 M31.13 26.1 C31.1 26.74, 31.14 27.44, 31.13 28.58 M31.13 28.58 C33.63 28.55, 35.87 28.12, 37.73 28.25 M31.13 28.58 C33.41 28.44, 35.91 28.46, 37.73 28.25 M37.73 28.25 C38.03 26.43, 38.05 25.07, 37.74 21.44 M37.73 28.25 C37.55 25.84, 37.81 23.43, 37.74 21.44 M37.74 21.44 C36.12 21.52, 34.66 21.65, 31.18 21.51 M37.74 21.44 C35.1 21.39, 32.65 21.49, 31.18 21.51 M31.18 21.51 C31.17 22.11, 31.07 22.44, 31.15 23.51 M31.18 21.51 C31.17 22.18, 31.17 22.86, 31.15 23.51 M31.15 23.51 C30.61 22.75, 30.26 21.65, 28.65 19.43 M31.15 23.51 C30.7 22.59, 30.08 21.86, 28.65 19.43 M28.65 19.43 C28.17 19.96, 27.96 20.6, 27.39 21.17 M28.65 19.43 C28.27 19.97, 27.81 20.52, 27.39 21.17 M27.39 21.17 C23.18 18.3, 18.27 14.6, 12.31 9.83 M27.39 21.17 C23.99 18.61, 20.81 16.19, 12.31 9.83 M12.31 9.83 C15.95 9.7, 20.82 10.03, 25.13 9.81 M12.31 9.83 C16.23 10.07, 19.33 9.85, 25.13 9.81 M25.13 9.81 C25.04 10.41, 24.98 10.99, 25.05 11.64 M25.13 9.81 C25.12 10.35, 25.07 10.98, 25.05 11.64 M25.05 11.64 C26.69 11.17, 28.37 10.59, 30.68 9.81 M25.05 11.64 C26.42 11.08, 28.12 10.72, 30.68 9.81 M30.68 9.81 C30.6 10.8, 30.77 11.81, 30.68 13.07 M30.68 9.81 C30.65 10.54, 30.61 11.23, 30.68 13.07 M30.68 13.07 C32.55 12.98, 34.63 13.09, 37.67 13.02 M30.68 13.07 C33.24 12.96, 35.91 13, 37.67 13.02 M37.67 13.02 C37.7 10.61, 37.84 7.68, 37.74 5.97 M37.67 13.02 C37.66 10.46, 37.78 7.7, 37.74 5.97 M37.74 5.97 C35.97 5.87, 34.51 6.2, 30.71 5.97 M37.74 5.97 C35.34 6.09, 32.95 6.1, 30.71 5.97 M30.71 5.97 C30.58 6.89, 30.6 7.61, 30.6 8.15 M30.71 5.97 C30.63 6.86, 30.6 7.71, 30.6 8.15 M30.6 8.15 C29.46 7.86, 27.45 7.05, 25.06 5.92 M30.6 8.15 C29.38 7.82, 28.51 7.33, 25.06 5.92 M25.06 5.92 C25.04 6.37, 25.21 6.81, 25.19 7.43 M25.06 5.92 C25.07 6.26, 25.08 6.64, 25.19 7.43 M25.19 7.43 C21.58 7.61, 17.76 7.47, 12.46 7.29 M25.19 7.43 C22.36 7.59, 19.97 7.52, 12.46 7.29 M12.46 7.29 C15.67 5.07, 20.24 3.84, 26.97 -1.15 M12.46 7.29 C15.31 5.85, 18.44 3.87, 26.97 -1.15 M26.97 -1.15 C27.37 -0.6, 27.72 -0.03, 28.07 0.53 M26.97 -1.15 C27.36 -0.62, 27.7 -0.07, 28.07 0.53 M28.07 0.53 C28.54 -0.33, 29.29 -1.47, 30.66 -3.34 M28.07 0.53 C28.7 -0.43, 29.36 -1.38, 30.66 -3.34 M30.66 -3.34 C30.74 -2.68, 30.63 -2.02, 30.68 -1.18 M30.66 -3.34 C30.67 -2.7, 30.65 -1.98, 30.68 -1.18 M30.68 -1.18 C33.27 -1.27, 36.44 -1.18, 37.6 -1.11 M30.68 -1.18 C33.22 -1.16, 35.72 -1.25, 37.6 -1.11 M37.6 -1.11 C37.69 -3.48, 37.51 -5.05, 37.56 -8.35 M37.6 -1.11 C37.44 -2.59, 37.74 -4.55, 37.56 -8.35 M37.56 -8.35 C35.86 -8.31, 33.69 -8.45, 30.5 -8.43 M37.56 -8.35 C34.97 -8.44, 32.23 -8.55, 30.5 -8.43 M30.5 -8.43 C30.38 -7.42, 30.4 -6.28, 30.43 -5.5 M30.5 -8.43 C30.47 -7.34, 30.48 -6.19, 30.43 -5.5 M30.43 -5.5 C28.57 -5.12, 26.51 -4.88, 25.31 -4.65 M30.43 -5.5 C29.12 -5.43, 28 -4.99, 25.31 -4.65 M25.31 -4.65 C25.48 -3.94, 25.82 -3.26, 26.05 -2.58 M25.31 -4.65 C25.52 -3.93, 25.85 -3.14, 26.05 -2.58 M26.05 -2.58 C22.16 -0.41, 18.21 3.4, 9 7.15 M26.05 -2.58 C21.22 0.7, 15.7 3.63, 9 7.15 M9 7.15 C8.85 5.15, 8.7 3.36, 8.77 0 M9 7.15 C9.09 4.42, 8.92 1.67, 8.77 0 M8.77 0 C7.03 0.14, 4.67 -0.37, 0 0 M8.77 0 C6.66 -0.1, 5.01 0.19, 0 0 M0 0 C0 0, 0 0, 0 0 M0 0 C0 0, 0 0, 0 0" stroke="#000000" stroke-width="1" fill="none"></path></g></g><mask></mask><g stroke-linecap="round" transform="translate(591.0482189988907 510.1222894625389) rotate(0 28.22222222222217 28.222222222221717)"><path d="M33.08 -0.5 C38.7 0.09, 44.84 5.38, 48.82 9.96 C52.8 14.54, 56.62 21.01, 56.97 26.97 C57.31 32.93, 54.8 41.02, 50.89 45.74 C46.98 50.46, 39.53 54.15, 33.53 55.29 C27.52 56.43, 20.26 55.31, 14.87 52.59 C9.48 49.88, 3.39 44.47, 1.17 39.01 C-1.05 33.54, -0.6 25.77, 1.55 19.8 C3.69 13.83, 8.55 6.36, 14.04 3.17 C19.53 -0.03, 30.77 0.8, 34.48 0.61 C38.18 0.42, 36.24 1.5, 36.26 2.02 M20.24 -0.06 C25.43 -1.97, 32.33 -0.53, 37.63 2.12 C42.94 4.77, 49.02 10.27, 52.05 15.84 C55.09 21.42, 57.12 29.7, 55.84 35.57 C54.56 41.44, 49.37 47.69, 44.37 51.06 C39.38 54.42, 31.52 56.16, 25.88 55.75 C20.23 55.33, 14.72 52.29, 10.51 48.58 C6.3 44.88, 1.52 39.43, 0.6 33.53 C-0.32 27.62, 1.86 18.55, 5 13.17 C8.13 7.78, 16.83 3.18, 19.4 1.22 C21.97 -0.73, 20.31 0.79, 20.4 1.45" stroke="#000000" stroke-width="1" fill="none"></path></g><g stroke-linecap="round"><g transform="translate(599.3241985286295 528.5923587353755) rotate(0 18.870409291296255 10.074038771125743)" fill-rule="evenodd"><path d="M0.48 -0.78 L0 16.32 L8.13 16.12 L9.86 9.39 L26.02 23.56 L25.92 24.66 L31.91 25.21 L30.73 27.78 L37.65 28.92 L37.89 21.38 L31.53 21.43 L31.6 24.27 L29.12 20.2 L28.03 20.29 L11.93 10.57 L25.83 8.89 L25.05 12.57 L31.28 9.1 L31.45 13.13 L37.83 14.01 L37.7 6.37 L29.83 6.01 L31.12 8.02 L24.21 6.8 L25.49 7.35 L12.25 7.8 L27.04 -1.5 L28.57 1.13 L30.14 -3.63 L31.33 -1.86 L36.71 -0.72 L37.09 -8.85 L30.92 -8.9 L30.74 -4.94 L25.14 -4.06 L26.11 -2.1 L9.61 7.76 L8.58 -0.15 L0.95 0.23" stroke="none" stroke-width="0" fill="#fff" fill-rule="evenodd"></path><path d="M0 0 C0.09 3.83, 0.54 7.09, 0.15 16.72 M0 0 C-0.19 4.28, 0.05 7.92, 0.15 16.72 M0.15 16.72 C1.92 16.99, 4.38 17.05, 8.92 16.8 M0.15 16.72 C3.18 16.68, 6.3 16.92, 8.92 16.8 M8.92 16.8 C8.74 14.88, 8.73 12.41, 9.06 10.38 M8.92 16.8 C8.99 15.01, 8.9 12.97, 9.06 10.38 M9.06 10.38 C12.39 13.15, 17.46 15.99, 26.61 22.66 M9.06 10.38 C14.48 13.88, 19.29 18.03, 26.61 22.66 M26.61 22.66 C26.26 23.17, 26.01 23.61, 25.34 25.02 M26.61 22.66 C26.34 23.17, 26.09 23.79, 25.34 25.02 M25.34 25.02 C26.98 25.36, 28.32 25.33, 31.13 26.1 M25.34 25.02 C26.9 25.41, 28.35 25.44, 31.13 26.1 M31.13 26.1 C31.12 27.1, 31.09 27.95, 31.13 28.58 M31.13 26.1 C31.17 26.59, 31.09 27.19, 31.13 28.58 M31.13 28.58 C33.47 28.73, 35.64 28.07, 37.73 28.25 M31.13 28.58 C33.07 28.29, 35.22 28.48, 37.73 28.25 M37.73 28.25 C37.91 26.52, 37.45 24.05, 37.74 21.44 M37.73 28.25 C37.62 25.87, 37.78 23.74, 37.74 21.44 M37.74 21.44 C35.96 21.41, 33.81 21.32, 31.18 21.51 M37.74 21.44 C36.07 21.51, 34.47 21.46, 31.18 21.51 M31.18 21.51 C31.19 22.29, 31.09 23.1, 31.15 23.51 M31.18 21.51 C31.13 22.09, 31.18 22.71, 31.15 23.51 M31.15 23.51 C29.99 21.89, 29.34 20.63, 28.65 19.43 M31.15 23.51 C30.53 22.51, 29.93 21.35, 28.65 19.43 M28.65 19.43 C28.29 19.95, 27.79 20.53, 27.39 21.17 M28.65 19.43 C28.27 19.97, 27.83 20.51, 27.39 21.17 M27.39 21.17 C20.68 16.71, 15.18 11.97, 12.31 9.83 M27.39 21.17 C23.42 17.86, 19.64 14.58, 12.31 9.83 M12.31 9.83 C15.91 9.37, 19.89 10.39, 25.13 9.81 M12.31 9.83 C17.32 9.51, 22.2 9.63, 25.13 9.81 M25.13 9.81 C25.11 10.36, 25.15 10.83, 25.05 11.64 M25.13 9.81 C25.1 10.14, 25.13 10.55, 25.05 11.64 M25.05 11.64 C26.79 10.95, 28.44 10.15, 30.68 9.81 M25.05 11.64 C26.38 11.07, 27.69 10.71, 30.68 9.81 M30.68 9.81 C30.56 10.74, 30.55 11.8, 30.68 13.07 M30.68 9.81 C30.64 10.68, 30.59 11.71, 30.68 13.07 M30.68 13.07 C32.83 12.84, 34.14 12.95, 37.67 13.02 M30.68 13.07 C32.44 13.24, 33.81 13.07, 37.67 13.02 M37.67 13.02 C37.95 10.39, 37.76 7.55, 37.74 5.97 M37.67 13.02 C37.58 10.32, 37.61 7.89, 37.74 5.97 M37.74 5.97 C35.95 5.94, 33.57 6.06, 30.71 5.97 M37.74 5.97 C35.19 5.88, 32.34 5.87, 30.71 5.97 M30.71 5.97 C30.76 6.8, 30.62 7.48, 30.6 8.15 M30.71 5.97 C30.64 6.85, 30.67 7.7, 30.6 8.15 M30.6 8.15 C28.19 7.08, 26.48 6.22, 25.06 5.92 M30.6 8.15 C28.49 7.28, 26.43 6.37, 25.06 5.92 M25.06 5.92 C25.05 6.34, 25.09 6.84, 25.19 7.43 M25.06 5.92 C25.08 6.33, 25.16 6.79, 25.19 7.43 M25.19 7.43 C20.51 7.94, 17.46 7.21, 12.46 7.29 M25.19 7.43 C20.67 7.44, 16.42 7.18, 12.46 7.29 M12.46 7.29 C15.93 5.08, 20.4 1.78, 26.97 -1.15 M12.46 7.29 C18.09 4.21, 23.63 0.99, 26.97 -1.15 M26.97 -1.15 C27.36 -0.54, 27.75 -0.01, 28.07 0.53 M26.97 -1.15 C27.26 -0.7, 27.58 -0.22, 28.07 0.53 M28.07 0.53 C28.8 -0.5, 29.9 -1.98, 30.66 -3.34 M28.07 0.53 C28.88 -0.75, 29.62 -1.77, 30.66 -3.34 M30.66 -3.34 C30.67 -2.74, 30.76 -2.06, 30.68 -1.18 M30.66 -3.34 C30.71 -2.76, 30.65 -2.24, 30.68 -1.18 M30.68 -1.18 C32.72 -1.08, 33.99 -1.14, 37.6 -1.11 M30.68 -1.18 C32.59 -1.28, 34.6 -1.08, 37.6 -1.11 M37.6 -1.11 C37.33 -2.89, 37.23 -4.85, 37.56 -8.35 M37.6 -1.11 C37.5 -4.06, 37.49 -6.58, 37.56 -8.35 M37.56 -8.35 C35.57 -8.66, 33.08 -8.23, 30.5 -8.43 M37.56 -8.35 C35.81 -8.48, 33.69 -8.53, 30.5 -8.43 M30.5 -8.43 C30.6 -7.73, 30.4 -6.97, 30.43 -5.5 M30.5 -8.43 C30.55 -7.74, 30.5 -7.04, 30.43 -5.5 M30.43 -5.5 C28.68 -4.98, 27.04 -5.04, 25.31 -4.65 M30.43 -5.5 C29.46 -5.37, 28.48 -5.22, 25.31 -4.65 M25.31 -4.65 C25.61 -4.06, 25.87 -3.43, 26.05 -2.58 M25.31 -4.65 C25.47 -4.13, 25.71 -3.61, 26.05 -2.58 M26.05 -2.58 C21.73 0.37, 16.69 3.21, 9 7.15 M26.05 -2.58 C19.58 0.86, 13.01 4.64, 9 7.15 M9 7.15 C9.25 4.59, 9.17 2.95, 8.77 0 M9 7.15 C8.76 4.77, 8.72 2.74, 8.77 0 M8.77 0 C5.47 0.05, 3.18 -0.28, 0 0 M8.77 0 C6.46 -0.06, 4.59 0.18, 0 0 M0 0 C0 0, 0 0, 0 0 M0 0 C0 0, 0 0, 0 0" stroke="#000000" stroke-width="1" fill="none"></path></g></g><mask></mask><g stroke-linecap="round" transform="translate(297.6844762875535 179.69953685979635) rotate(0 51.79353168607349 34.529021124048995)"><path d="M17.26 0 C41.28 -1.59, 61.68 0.79, 86.32 0 M17.26 0 C41.53 -0.67, 65.42 -0.24, 86.32 0 M86.32 0 C97.05 -1.52, 104.64 5.88, 103.59 17.26 M86.32 0 C99.25 1.12, 101.41 5.32, 103.59 17.26 M103.59 17.26 C104.68 27.59, 102.21 36.77, 103.59 51.79 M103.59 17.26 C102.94 25.01, 103 33.24, 103.59 51.79 M103.59 51.79 C103.62 65.21, 96.25 69.81, 86.32 69.06 M103.59 51.79 C101.58 62.26, 99.69 68.18, 86.32 69.06 M86.32 69.06 C64 69.17, 41.64 70.27, 17.26 69.06 M86.32 69.06 C66.71 69.25, 49.04 68.9, 17.26 69.06 M17.26 69.06 C6.25 67.85, 0.13 61.83, 0 51.79 M17.26 69.06 C6.21 71.12, 0.55 62.38, 0 51.79 M0 51.79 C-2.2 38.42, 0.63 26.08, 0 17.26 M0 51.79 C1.29 41.83, 0.58 32.47, 0 17.26 M0 17.26 C-0.4 3.77, 7.46 1.74, 17.26 0 M0 17.26 C-1.35 5.32, 6.49 -0.89, 17.26 0" stroke="#000000" stroke-width="1" fill="none"></path></g><g stroke-linecap="round" transform="translate(341.97169903361464 249.50821000189535) rotate(0 9.132675877012844 5.004205960007312)"><path d="M0 0 C4.81 0.42, 11.21 -0.48, 18.27 0 M0 0 C6.36 0.11, 13.1 -0.33, 18.27 0 M18.27 0 C18.51 3.05, 18.17 6.99, 18.27 10.01 M18.27 0 C18.33 2.47, 18.24 5.06, 18.27 10.01 M18.27 10.01 C11.98 9.26, 6.14 9.95, 0 10.01 M18.27 10.01 C10.65 9.84, 4.2 9.87, 0 10.01 M0 10.01 C-0.07 6.73, -0.09 3.78, 0 0 M0 10.01 C-0.23 7.23, 0 4.45, 0 0" stroke="#000000" stroke-width="1" fill="none"></path></g><g stroke-linecap="round" transform="translate(320.70382370358675 260.2672528159128) rotate(0 28.774184270040678 5.7548368540083175)"><path d="M0 0 C13.08 -0.71, 25.74 -0.23, 57.55 0 M0 0 C15.72 -0.44, 32.09 -0.03, 57.55 0 M57.55 0 C57.47 4.09, 57.36 8.41, 57.55 11.51 M57.55 0 C57.52 3.94, 57.69 8.04, 57.55 11.51 M57.55 11.51 C45.48 11.31, 33.26 10.51, 0 11.51 M57.55 11.51 C38.54 11.19, 18.83 11.86, 0 11.51 M0 11.51 C-0.05 7.79, -0.17 3.37, 0 0 M0 11.51 C0.04 7.03, 0.13 2.75, 0 0" stroke="#000000" stroke-width="1" fill="none"></path></g><g stroke-linecap="round" transform="translate(309.1941499955683 191.209210567813) rotate(0 40.28385797805731 23.01934741603236)"><path d="M0 0 C28.44 0.25, 53.88 -0.73, 80.57 0 M0 0 C26.27 0.67, 52.11 1.1, 80.57 0 M80.57 0 C79.73 9.74, 81.71 19.34, 80.57 46.04 M80.57 0 C80.96 9.99, 79.7 21.9, 80.57 46.04 M80.57 46.04 C64.28 44.48, 44.93 44.31, 0 46.04 M80.57 46.04 C60.27 46.68, 39.97 45.7, 0 46.04 M0 46.04 C-0.57 32.03, 1.5 17.36, 0 0 M0 46.04 C0.27 33.08, 0.09 20.59, 0 0" stroke="#000000" stroke-width="1" fill="none"></path></g><g stroke-linecap="round" transform="translate(383.2563982036754 240.25042897588355) rotate(0 2.3769978310033366 2.6272081290035203)"><path d="M2.37 0.07 C2.9 -0.03, 3.39 -0.16, 3.75 0.22 C4.11 0.59, 4.43 1.72, 4.56 2.33 C4.69 2.94, 4.69 3.44, 4.53 3.88 C4.37 4.32, 4.11 4.71, 3.58 4.97 C3.06 5.22, 1.86 5.61, 1.38 5.43 C0.9 5.26, 0.93 4.39, 0.69 3.89 C0.45 3.39, -0.03 3, -0.05 2.45 C-0.06 1.89, 0.26 0.96, 0.6 0.56 C0.95 0.15, 1.76 0.07, 2.02 0.01 C2.27 -0.04, 2.11 0.24, 2.11 0.25 M2.17 0.36 C2.7 0.44, 4.03 0.87, 4.37 1.2 C4.72 1.54, 4.31 1.81, 4.25 2.38 C4.2 2.94, 4.27 4.2, 4.03 4.58 C3.79 4.96, 3.22 4.52, 2.82 4.66 C2.42 4.8, 2.07 5.5, 1.63 5.42 C1.18 5.34, 0.33 4.71, 0.16 4.19 C-0.02 3.67, 0.38 2.98, 0.56 2.3 C0.75 1.62, 1.03 0.48, 1.28 0.13 C1.52 -0.23, 1.8 0.12, 2.06 0.16 C2.31 0.2, 2.78 0.43, 2.82 0.39" stroke="none" stroke-width="0" fill="#40c057"></path><path d="M1.88 0.19 C2.35 0.16, 3.24 0.43, 3.73 0.66 C4.22 0.89, 4.7 1.1, 4.83 1.6 C4.95 2.1, 4.74 3.09, 4.48 3.66 C4.23 4.23, 3.7 4.78, 3.29 5.04 C2.87 5.3, 2.51 5.4, 2 5.25 C1.49 5.09, 0.62 4.56, 0.24 4.12 C-0.13 3.67, -0.27 3.19, -0.25 2.59 C-0.23 1.99, -0.05 1, 0.36 0.53 C0.76 0.06, 1.85 -0.16, 2.19 -0.24 C2.53 -0.32, 2.35 0.02, 2.4 0.06 M2.93 -0.19 C3.51 -0.07, 3.79 0.78, 4.13 1.2 C4.47 1.62, 4.94 1.84, 4.97 2.32 C5 2.79, 4.59 3.59, 4.31 4.03 C4.02 4.48, 3.78 4.77, 3.27 5 C2.77 5.22, 1.85 5.63, 1.26 5.4 C0.67 5.17, -0.05 4.26, -0.25 3.64 C-0.45 3.02, -0.18 2.25, 0.04 1.68 C0.27 1.11, 0.67 0.55, 1.09 0.21 C1.51 -0.13, 2.3 -0.41, 2.56 -0.36 C2.81 -0.31, 2.61 0.43, 2.62 0.51" stroke="#000000" stroke-width="1" fill="none"></path></g><g mask="url(#mask-Y6GeNRE59pd6-jfsPUiJG)" stroke-linecap="round"><g transform="translate(294.841454309686 228.52004508445862) rotate(0 -91.57179823470187 138.20940884665015)"><path d="M-1.7 0.55 C-28.43 4.3, -130.7 -24.14, -160.69 21.87 C-190.69 67.87, -178.22 233.94, -181.67 276.59 M2.57 -1.62 C-24.6 2.48, -132.65 -22.56, -163.52 24.34 C-194.4 71.24, -179.95 238.44, -182.68 279.8" stroke="#2f9e44" stroke-width="1" fill="none"></path></g><g transform="translate(294.841454309686 228.52004508445862) rotate(0 -91.57179823470187 138.20940884665015)"><path d="M-191.02 255.59 C-190.47 264.22, -186.31 271.16, -181.71 277.9 M-191.27 256.98 C-188.77 262.36, -186.67 268.81, -182.22 278.84" stroke="#2f9e44" stroke-width="1" fill="none"></path></g><g transform="translate(294.841454309686 228.52004508445862) rotate(0 -91.57179823470187 138.20940884665015)"><path d="M-173.92 255.46 C-178.3 264.03, -179.07 271, -181.71 277.9 M-174.17 256.85 C-176.48 262.2, -179.19 268.68, -182.22 278.84" stroke="#2f9e44" stroke-width="1" fill="none"></path></g></g><mask id="mask-Y6GeNRE59pd6-jfsPUiJG"><rect x="0" y="0" fill="#fff" width="577.9850507790898" height="604.9388627777589"></rect><rect x="122.17492098033199" y="240.0131855955915" fill="#000" width="26.119979858398438" height="25" opacity="1"></rect></mask><g transform="translate(122.17492098033154 240.0131855955915) rotate(0 82.08425268594283 126.03229410270342)"><text x="13.059989929199219" y="17.52" font-family="Virgil, Segoe UI Emoji" font-size="20px" fill="#2f9e44" text-anchor="middle" style="white-space: pre;" direction="ltr" dominant-baseline="alphabetic">50</text></g><g mask="url(#mask-PMr56YATzQqM_BrOhNJZi)" stroke-linecap="round"><g transform="translate(403.3876280712084 222.34164907549712) rotate(0 105.14196833956112 126.46682564349067)"><path d="M1.47 0.17 C33.58 4.93, 157.23 -15.64, 191.59 26.4 C225.95 68.43, 204.58 214.82, 207.63 252.4 M-1.17 -2.2 C30.82 1.91, 154.59 -20.78, 190.29 22.12 C225.99 65.03, 209.69 216.59, 213.03 255.23" stroke="#2f9e44" stroke-width="1" fill="none"></path></g><g transform="translate(403.3876280712084 222.34164907549712) rotate(0 105.14196833956112 126.46682564349067)"><path d="M204.75 232.92 C207.61 235.89, 208.45 243.66, 212.28 255.51 M204.48 230.92 C208.17 239.29, 209.94 248.78, 212.28 255.78" stroke="#2f9e44" stroke-width="1" fill="none"></path></g><g transform="translate(403.3876280712084 222.34164907549712) rotate(0 105.14196833956112 126.46682564349067)"><path d="M221.85 233.02 C220.24 236.06, 216.62 243.8, 212.28 255.51 M221.58 231.02 C219.09 239.25, 214.68 248.7, 212.28 255.78" stroke="#2f9e44" stroke-width="1" fill="none"></path></g></g><mask id="mask-PMr56YATzQqM_BrOhNJZi"><rect x="0" y="0" fill="#fff" width="713.6715647503306" height="575.2753003624784"></rect><rect x="580.1864021866377" y="234.87796960885498" fill="#000" width="26.119979858398438" height="25" opacity="1"></rect></mask><g transform="translate(580.1864021866377 234.87796960885498) rotate(0 -70.42204426008902 112.78064748002089)"><text x="13.059989929199219" y="17.52" font-family="Virgil, Segoe UI Emoji" font-size="20px" fill="#2f9e44" text-anchor="middle" style="white-space: pre;" direction="ltr" dominant-baseline="alphabetic">50</text></g><g stroke-linecap="round"><g transform="translate(58.03958926501127 603.021673062598) rotate(0 0.31667609841315425 28.706634830420626)"><path d="M-2.65 -0.53 C-2.9 8.64, -0.36 46.42, 0.25 56.36 M1.11 -3.28 C0.3 6.15, -1.91 49.79, -2.19 59.42" stroke="#2f9e44" stroke-width="1" fill="none"></path></g><g transform="translate(58.03958926501127 603.021673062598) rotate(0 0.31667609841315425 28.706634830420626)"><path d="M-10.11 35.32 C-7.64 44.57, -2.93 53.34, -3.44 59.15 M-10.54 35.62 C-8.68 41.53, -6.24 47.26, -2.98 59.8" stroke="#2f9e44" stroke-width="1" fill="none"></path></g><g transform="translate(58.03958926501127 603.021673062598) rotate(0 0.31667609841315425 28.706634830420626)"><path d="M6.97 36.04 C3.26 44.87, 1.79 53.38, -3.44 59.15 M6.54 36.34 C4.58 41.93, 3.21 47.5, -2.98 59.8" stroke="#2f9e44" stroke-width="1" fill="none"></path></g></g><mask></mask><g stroke-linecap="round"><g transform="translate(158.18487139844183 600.9353130181516) rotate(0 0.32077538341491163 29.756538050006384)"><path d="M-0.38 -1.05 C0.24 9.24, 0.77 51.43, 1.04 61.23 M-4.03 -4.09 C-3.51 5.45, -1.62 46.48, -0.99 57.15" stroke="#2f9e44" stroke-width="1" fill="none"></path></g><g transform="translate(158.18487139844183 600.9353130181516) rotate(0 0.32077538341491163 29.756538050006384)"><path d="M-11.5 34.42 C-7.56 39.31, -8.03 43.33, -2.52 58.07 M-11.49 34.69 C-8.91 39.8, -7.72 43.94, -1.86 56.7" stroke="#2f9e44" stroke-width="1" fill="none"></path></g><g transform="translate(158.18487139844183 600.9353130181516) rotate(0 0.32077538341491163 29.756538050006384)"><path d="M5.58 33.53 C6.01 38.58, 2.03 42.78, -2.52 58.07 M5.59 33.8 C4.66 39.1, 2.35 43.42, -1.86 56.7" stroke="#2f9e44" stroke-width="1" fill="none"></path></g></g><mask></mask><g stroke-linecap="round"><g transform="translate(503.47956902056467 606.1517406148341) rotate(0 0.5364787806320237 29.730366890580626)"><path d="M0.4 1.72 C0.74 11.51, 1.64 48.45, 1.69 57.71 M-2.83 0.18 C-2.77 10.4, -0.47 50.55, -0.22 60.39" stroke="#2f9e44" stroke-width="1" fill="none"></path></g><g transform="translate(503.47956902056467 606.1517406148341) rotate(0 0.5364787806320237 29.730366890580626)"><path d="M-8.55 37.73 C-8.37 43.62, -5.92 51.42, -2.12 58.78 M-9.75 38.24 C-7.84 44.61, -5.03 50.78, 0.59 60.01" stroke="#2f9e44" stroke-width="1" fill="none"></path></g><g transform="translate(503.47956902056467 606.1517406148341) rotate(0 0.5364787806320237 29.730366890580626)"><path d="M8.54 36.99 C3.82 43.12, 1.38 51.13, -2.12 58.78 M7.33 37.51 C4.07 44.19, 1.7 50.59, 0.59 60.01" stroke="#2f9e44" stroke-width="1" fill="none"></path></g></g><mask></mask><g stroke-linecap="round"><g transform="translate(574.4137002655134 606.8212354522966) rotate(0 0.5215502199134789 28.24593081806961)"><path d="M0.61 -1.75 C0.66 7.02, 0.37 45.08, 0.66 54.35 M-2.5 3.47 C-2.9 12.38, -2.41 48.14, -1.79 56.81" stroke="#2f9e44" stroke-width="1" fill="none"></path></g><g transform="translate(574.4137002655134 606.8212354522966) rotate(0 0.5215502199134789 28.24593081806961)"><path d="M-12.45 33.37 C-9.63 41.82, -7.05 46.57, -1.73 55.33 M-11.99 34.02 C-8.73 41.33, -3.71 49.61, -1.57 57.77" stroke="#2f9e44" stroke-width="1" fill="none"></path></g><g transform="translate(574.4137002655134 606.8212354522966) rotate(0 0.5215502199134789 28.24593081806961)"><path d="M4.64 32.75 C2.09 41.42, -0.69 46.37, -1.73 55.33 M5.1 33.4 C2.3 41.08, 1.25 49.6, -1.57 57.77" stroke="#2f9e44" stroke-width="1" fill="none"></path></g></g><mask></mask><g stroke-linecap="round"><g transform="translate(651.5557136672915 604.8414918933358) rotate(0 -0.46828007491330936 27.777554456495636)"><path d="M-0.39 -2.15 C-0.43 6.96, 0.81 43.26, 0.34 52.89 M-4.04 2.86 C-4.4 12.37, -2.28 45.75, -1.2 55.07" stroke="#2f9e44" stroke-width="1" fill="none"></path></g><g transform="translate(651.5557136672915 604.8414918933358) rotate(0 -0.46828007491330936 27.777554456495636)"><path d="M-13.24 33.3 C-10.37 38.09, -5.03 45.52, -0.11 55.11 M-12.58 31.94 C-6.93 40.93, -3.36 51.23, -0.75 55.04" stroke="#2f9e44" stroke-width="1" fill="none"></path></g><g transform="translate(651.5557136672915 604.8414918933358) rotate(0 -0.46828007491330936 27.777554456495636)"><path d="M3.8 31.85 C1.17 37.09, 1.03 44.98, -0.11 55.11 M4.46 30.49 C3.37 40.12, 0.2 51, -0.75 55.04" stroke="#2f9e44" stroke-width="1" fill="none"></path></g></g><mask></mask><g stroke-linecap="round"><g transform="translate(720.4589033767679 603.7450036283699) rotate(0 0.521590033089069 27.804195370378693)"><path d="M1.28 -2.66 C1.14 6.98, -0.83 45.72, -1.22 55.69 M-1.47 2.06 C-0.71 12.38, 2.93 50.97, 3.96 59.36" stroke="#2f9e44" stroke-width="1" fill="none"></path></g><g transform="translate(720.4589033767679 603.7450036283699) rotate(0 0.521590033089069 27.804195370378693)"><path d="M-8.9 35.28 C-3.97 41.79, 0.2 49.74, 5.86 57.79 M-6.19 36.51 C-3.27 45.48, 0.65 52.07, 3.86 59.27" stroke="#2f9e44" stroke-width="1" fill="none"></path></g><g transform="translate(720.4589033767679 603.7450036283699) rotate(0 0.521590033089069 27.804195370378693)"><path d="M8.11 33.49 C8.15 40.59, 7.46 49.06, 5.86 57.79 M10.82 34.73 C7.98 44.22, 6.17 51.41, 3.86 59.27" stroke="#2f9e44" stroke-width="1" fill="none"></path></g></g><mask></mask><g transform="translate(152.96897128732599 322.40624708454925) rotate(0 218.7358856201172 20)"><text x="0" y="14.016" font-family="Virgil, Segoe UI Emoji" font-size="16px" fill="#1e1e1e" text-anchor="start" style="white-space: pre;" direction="ltr" dominant-baseline="alphabetic">Here equal traffic is sent to Load Balancers but </text><text x="0" y="34.016" font-family="Virgil, Segoe UI Emoji" font-size="16px" fill="#1e1e1e" text-anchor="start" style="white-space: pre;" direction="ltr" dominant-baseline="alphabetic">traffic is not balanced across instances in multiple AZ</text></g><g stroke-linecap="round"><g transform="translate(616.1409011544429 569.639912351453) rotate(0 1.0431800222236234 13.561340288902102)"><path d="M0.54 -0.04 C0.83 4.27, 1.62 22.54, 1.97 27.01 M-0.63 -1.11 C-0.54 3.9, 0.49 23.66, 0.95 28.49" stroke="#1e1e1e" stroke-width="1" fill="none"></path></g><g transform="translate(616.1409011544429 569.639912351453) rotate(0 1.0431800222236234 13.561340288902102)"><path d="M-4.62 15.92 C-2.8 20.65, -1.31 23.59, 1.94 27.14 M-4.41 15.65 C-3.05 18.93, -1.48 23.38, 1.12 28.21" stroke="#1e1e1e" stroke-width="1" fill="none"></path></g><g transform="translate(616.1409011544429 569.639912351453) rotate(0 1.0431800222236234 13.561340288902102)"><path d="M4.66 15.28 C3.49 20.25, 2 23.41, 1.94 27.14 M4.87 15 C3.74 18.4, 2.82 23.02, 1.12 28.21" stroke="#1e1e1e" stroke-width="1" fill="none"></path></g></g><mask></mask><g stroke-linecap="round"><g transform="translate(114.37131046506602 571.7262723959029) rotate(0 -0.4682817683697067 13.61464853164398)"><path d="M-0.12 -0.11 C-0.28 4.37, -0.2 22.16, -0.4 26.86 M-1.64 -1.22 C-1.96 3.44, -0.95 23.64, -1.06 28.21" stroke="#1e1e1e" stroke-width="1" fill="none"></path></g><g transform="translate(114.37131046506602 571.7262723959029) rotate(0 -0.4682817683697067 13.61464853164398)"><path d="M-6.08 16.11 C-4.69 19.44, -1.59 22.93, -1.5 28.14 M-5.91 14.99 C-4.65 19.11, -3.47 21.21, -0.53 28.78" stroke="#1e1e1e" stroke-width="1" fill="none"></path></g><g transform="translate(114.37131046506602 571.7262723959029) rotate(0 -0.4682817683697067 13.61464853164398)"><path d="M3.23 15.94 C1.41 19.32, 1.29 22.87, -1.5 28.14 M3.41 14.82 C2.49 18.93, 1.48 21.06, -0.53 28.78" stroke="#1e1e1e" stroke-width="1" fill="none"></path></g></g><mask></mask><g transform="translate(233.29383299851452 283.80858626228655) rotate(0 136.67193603515625 10)"><text x="0" y="14.016" font-family="Virgil, Segoe UI Emoji" font-size="16px" fill="#e03131" text-anchor="start" style="white-space: pre;" direction="ltr" dominant-baseline="alphabetic">Cross Zone Load Balancing is OFF</text></g><g stroke-linecap="round"><g transform="translate(56.400359800571096 602.6372413374465) rotate(0 48.00878130483147 -1.4848076692214818)"><path d="M-0.79 -0.01 C15.36 -0.31, 80.15 -2.05, 96.09 -2.66 M3.98 -2.49 C19.84 -2.19, 79.15 0.89, 93.9 1.13" stroke="#e03131" stroke-width="1" fill="none"></path></g></g><mask></mask><g stroke-linecap="round"><g transform="translate(501.8426605670493 609.5663437938147) rotate(0 110.37070341213848 -2.4746794487045918)"><path d="M-0.11 -1.18 C36.36 -1.98, 183.25 -7.37, 220.31 -7.56 M-3.61 -4.29 C32.31 -4.59, 180.36 -4.99, 217.83 -5.36" stroke="#e03131" stroke-width="1" fill="none"></path></g></g><mask></mask><g stroke-linecap="round" transform="translate(471.0313607811195 666.0847398642982) rotate(0 27.84168444748684 28.610576964887514)"><path d="M55.68 28.61 C55.68 30.27, 55.54 31.95, 55.26 33.58 C54.98 35.21, 54.56 36.84, 54 38.4 C53.45 39.95, 52.76 41.48, 51.95 42.92 C51.15 44.35, 50.21 45.73, 49.17 47 C48.13 48.27, 46.97 49.46, 45.74 50.53 C44.5 51.59, 43.16 52.56, 41.76 53.39 C40.37 54.22, 38.88 54.93, 37.36 55.5 C35.85 56.06, 34.26 56.5, 32.68 56.79 C31.09 57.07, 29.45 57.22, 27.84 57.22 C26.23 57.22, 24.59 57.07, 23.01 56.79 C21.42 56.5, 19.83 56.06, 18.32 55.5 C16.8 54.93, 15.32 54.22, 13.92 53.39 C12.53 52.56, 11.18 51.59, 9.95 50.53 C8.71 49.46, 7.55 48.27, 6.51 47 C5.48 45.73, 4.54 44.35, 3.73 42.92 C2.92 41.48, 2.23 39.95, 1.68 38.4 C1.13 36.84, 0.7 35.21, 0.42 33.58 C0.14 31.95, 0 30.27, 0 28.61 C0 26.95, 0.14 25.27, 0.42 23.64 C0.7 22.01, 1.13 20.38, 1.68 18.83 C2.23 17.27, 2.92 15.74, 3.73 14.31 C4.54 12.87, 5.48 11.49, 6.51 10.22 C7.55 8.95, 8.71 7.76, 9.95 6.69 C11.18 5.63, 12.53 4.66, 13.92 3.83 C15.32 3.01, 16.8 2.29, 18.32 1.73 C19.83 1.16, 21.42 0.72, 23.01 0.43 C24.59 0.15, 26.23 0, 27.84 0 C29.45 0, 31.09 0.15, 32.68 0.43 C34.26 0.72, 35.85 1.16, 37.36 1.73 C38.88 2.29, 40.37 3.01, 41.76 3.83 C43.16 4.66, 44.5 5.63, 45.74 6.69 C46.97 7.76, 48.13 8.95, 49.17 10.22 C50.21 11.49, 51.15 12.87, 51.95 14.31 C52.76 15.74, 53.45 17.27, 54 18.83 C54.56 20.38, 54.98 22.01, 55.26 23.64 C55.54 25.27, 55.61 27.78, 55.68 28.61 C55.75 29.44, 55.75 27.78, 55.68 28.61" stroke="none" stroke-width="0" fill="#fd7e14"></path><path d="M55.68 28.61 C55.68 30.27, 55.54 31.95, 55.26 33.58 C54.98 35.21, 54.56 36.84, 54 38.4 C53.45 39.95, 52.76 41.48, 51.95 42.92 C51.15 44.35, 50.21 45.73, 49.17 47 C48.13 48.27, 46.97 49.46, 45.74 50.53 C44.5 51.59, 43.16 52.56, 41.76 53.39 C40.37 54.22, 38.88 54.93, 37.36 55.5 C35.85 56.06, 34.26 56.5, 32.68 56.79 C31.09 57.07, 29.45 57.22, 27.84 57.22 C26.23 57.22, 24.59 57.07, 23.01 56.79 C21.42 56.5, 19.83 56.06, 18.32 55.5 C16.8 54.93, 15.32 54.22, 13.92 53.39 C12.53 52.56, 11.18 51.59, 9.95 50.53 C8.71 49.46, 7.55 48.27, 6.51 47 C5.48 45.73, 4.54 44.35, 3.73 42.92 C2.92 41.48, 2.23 39.95, 1.68 38.4 C1.13 36.84, 0.7 35.21, 0.42 33.58 C0.14 31.95, 0 30.27, 0 28.61 C0 26.95, 0.14 25.27, 0.42 23.64 C0.7 22.01, 1.13 20.38, 1.68 18.83 C2.23 17.27, 2.92 15.74, 3.73 14.31 C4.54 12.87, 5.48 11.49, 6.51 10.22 C7.55 8.95, 8.71 7.76, 9.95 6.69 C11.18 5.63, 12.53 4.66, 13.92 3.83 C15.32 3.01, 16.8 2.29, 18.32 1.73 C19.83 1.16, 21.42 0.72, 23.01 0.43 C24.59 0.15, 26.23 0, 27.84 0 C29.45 0, 31.09 0.15, 32.68 0.43 C34.26 0.72, 35.85 1.16, 37.36 1.73 C38.88 2.29, 40.37 3.01, 41.76 3.83 C43.16 4.66, 44.5 5.63, 45.74 6.69 C46.97 7.76, 48.13 8.95, 49.17 10.22 C50.21 11.49, 51.15 12.87, 51.95 14.31 C52.76 15.74, 53.45 17.27, 54 18.83 C54.56 20.38, 54.98 22.01, 55.26 23.64 C55.54 25.27, 55.61 27.78, 55.68 28.61 C55.75 29.44, 55.75 27.78, 55.68 28.61" stroke="#fd7e14" stroke-width="2" fill="none"></path></g><g stroke-linecap="round" transform="translate(484.129315226407 679.4798842264208) rotate(0 14.116521049801122 15.161869303794447)"><path d="M7.06 0 C10 0, 12.94 0, 21.17 0 C25.88 0, 28.23 2.35, 28.23 7.06 C28.23 10.94, 28.23 14.82, 28.23 23.27 C28.23 27.97, 25.88 30.32, 21.17 30.32 C16.95 30.32, 12.72 30.32, 7.06 30.32 C2.35 30.32, 0 27.97, 0 23.27 C0 17.41, 0 11.56, 0 7.06 C0 2.35, 2.35 0, 7.06 0" stroke="none" stroke-width="0" fill="#fd7e14"></path><path d="M7.06 0 C11.04 0, 15.02 0, 21.17 0 M7.06 0 C10.81 0, 14.56 0, 21.17 0 M21.17 0 C25.88 0, 28.23 2.35, 28.23 7.06 M21.17 0 C25.88 0, 28.23 2.35, 28.23 7.06 M28.23 7.06 C28.23 12.42, 28.23 17.78, 28.23 23.27 M28.23 7.06 C28.23 13.42, 28.23 19.78, 28.23 23.27 M28.23 23.27 C28.23 27.97, 25.88 30.32, 21.17 30.32 M28.23 23.27 C28.23 27.97, 25.88 30.32, 21.17 30.32 M21.17 30.32 C17.54 30.32, 13.91 30.32, 7.06 30.32 M21.17 30.32 C16.89 30.32, 12.61 30.32, 7.06 30.32 M7.06 30.32 C2.35 30.32, 0 27.97, 0 23.27 M7.06 30.32 C2.35 30.32, 0 27.97, 0 23.27 M0 23.27 C0 18.65, 0 14.03, 0 7.06 M0 23.27 C0 19.32, 0 15.38, 0 7.06 M0 7.06 C0 2.35, 2.35 0, 7.06 0 M0 7.06 C0 2.35, 2.35 0, 7.06 0" stroke="#fff" stroke-width="2" fill="none"></path></g><g transform="translate(490.57383920589564 684.6417535302153) rotate(0 7.6719970703125 10)"><text x="7.6719970703125" y="14.016" font-family="Virgil, Segoe UI Emoji" font-size="16px" fill="#ffffff" text-anchor="middle" style="white-space: pre;" direction="ltr" dominant-baseline="alphabetic">10</text></g><g stroke-linecap="round"><g transform="translate(613.6981716484088 602.6372413374465) rotate(0 -1.4848076692214818 71.76570401237768)"><path d="M0.82 0.38 C1.1 23.67, 0.33 116.99, -0.71 141.14 M-2.18 -1.88 C-1.85 21.54, -2.1 119.71, -1.72 143.47" stroke="#e03131" stroke-width="1" fill="none"></path></g><g transform="translate(613.6981716484088 602.6372413374465) rotate(0 -1.4848076692214818 71.76570401237768)"><path d="M-10.13 121.65 C-10.13 123.3, -5.33 128.99, -3.64 143.37 M-9.83 119.15 C-8.05 125.84, -6.77 129.6, -2.2 143.01" stroke="#e03131" stroke-width="1" fill="none"></path></g><g transform="translate(613.6981716484088 602.6372413374465) rotate(0 -1.4848076692214818 71.76570401237768)"><path d="M6.97 121.55 C3.31 123.27, 4.45 128.99, -3.64 143.37 M7.27 119.05 C5.43 125.87, 3.09 129.65, -2.2 143.01" stroke="#e03131" stroke-width="1" fill="none"></path></g></g><mask></mask><g stroke-linecap="round" transform="translate(582.886871862479 745.2744822227851) rotate(0 27.84168444748684 28.610576964887514)"><path d="M55.68 28.61 C55.68 30.27, 55.54 31.95, 55.26 33.58 C54.98 35.21, 54.56 36.84, 54 38.4 C53.45 39.95, 52.76 41.48, 51.95 42.92 C51.15 44.35, 50.21 45.73, 49.17 47 C48.13 48.27, 46.97 49.46, 45.74 50.53 C44.5 51.59, 43.16 52.56, 41.76 53.39 C40.37 54.22, 38.88 54.93, 37.36 55.5 C35.85 56.06, 34.26 56.5, 32.68 56.79 C31.09 57.07, 29.45 57.22, 27.84 57.22 C26.23 57.22, 24.59 57.07, 23.01 56.79 C21.42 56.5, 19.83 56.06, 18.32 55.5 C16.8 54.93, 15.32 54.22, 13.92 53.39 C12.53 52.56, 11.18 51.59, 9.95 50.53 C8.71 49.46, 7.55 48.27, 6.51 47 C5.48 45.73, 4.54 44.35, 3.73 42.92 C2.92 41.48, 2.23 39.95, 1.68 38.4 C1.13 36.84, 0.7 35.21, 0.42 33.58 C0.14 31.95, 0 30.27, 0 28.61 C0 26.95, 0.14 25.27, 0.42 23.64 C0.7 22.01, 1.13 20.38, 1.68 18.83 C2.23 17.27, 2.92 15.74, 3.73 14.31 C4.54 12.87, 5.48 11.49, 6.51 10.22 C7.55 8.95, 8.71 7.76, 9.95 6.69 C11.18 5.63, 12.53 4.66, 13.92 3.83 C15.32 3.01, 16.8 2.29, 18.32 1.73 C19.83 1.16, 21.42 0.72, 23.01 0.43 C24.59 0.15, 26.23 0, 27.84 0 C29.45 0, 31.09 0.15, 32.68 0.43 C34.26 0.72, 35.85 1.16, 37.36 1.73 C38.88 2.29, 40.37 3.01, 41.76 3.83 C43.16 4.66, 44.5 5.63, 45.74 6.69 C46.97 7.76, 48.13 8.95, 49.17 10.22 C50.21 11.49, 51.15 12.87, 51.95 14.31 C52.76 15.74, 53.45 17.27, 54 18.83 C54.56 20.38, 54.98 22.01, 55.26 23.64 C55.54 25.27, 55.61 27.78, 55.68 28.61 C55.75 29.44, 55.75 27.78, 55.68 28.61" stroke="none" stroke-width="0" fill="#fd7e14"></path><path d="M55.68 28.61 C55.68 30.27, 55.54 31.95, 55.26 33.58 C54.98 35.21, 54.56 36.84, 54 38.4 C53.45 39.95, 52.76 41.48, 51.95 42.92 C51.15 44.35, 50.21 45.73, 49.17 47 C48.13 48.27, 46.97 49.46, 45.74 50.53 C44.5 51.59, 43.16 52.56, 41.76 53.39 C40.37 54.22, 38.88 54.93, 37.36 55.5 C35.85 56.06, 34.26 56.5, 32.68 56.79 C31.09 57.07, 29.45 57.22, 27.84 57.22 C26.23 57.22, 24.59 57.07, 23.01 56.79 C21.42 56.5, 19.83 56.06, 18.32 55.5 C16.8 54.93, 15.32 54.22, 13.92 53.39 C12.53 52.56, 11.18 51.59, 9.95 50.53 C8.71 49.46, 7.55 48.27, 6.51 47 C5.48 45.73, 4.54 44.35, 3.73 42.92 C2.92 41.48, 2.23 39.95, 1.68 38.4 C1.13 36.84, 0.7 35.21, 0.42 33.58 C0.14 31.95, 0 30.27, 0 28.61 C0 26.95, 0.14 25.27, 0.42 23.64 C0.7 22.01, 1.13 20.38, 1.68 18.83 C2.23 17.27, 2.92 15.74, 3.73 14.31 C4.54 12.87, 5.48 11.49, 6.51 10.22 C7.55 8.95, 8.71 7.76, 9.95 6.69 C11.18 5.63, 12.53 4.66, 13.92 3.83 C15.32 3.01, 16.8 2.29, 18.32 1.73 C19.83 1.16, 21.42 0.72, 23.01 0.43 C24.59 0.15, 26.23 0, 27.84 0 C29.45 0, 31.09 0.15, 32.68 0.43 C34.26 0.72, 35.85 1.16, 37.36 1.73 C38.88 2.29, 40.37 3.01, 41.76 3.83 C43.16 4.66, 44.5 5.63, 45.74 6.69 C46.97 7.76, 48.13 8.95, 49.17 10.22 C50.21 11.49, 51.15 12.87, 51.95 14.31 C52.76 15.74, 53.45 17.27, 54 18.83 C54.56 20.38, 54.98 22.01, 55.26 23.64 C55.54 25.27, 55.61 27.78, 55.68 28.61 C55.75 29.44, 55.75 27.78, 55.68 28.61" stroke="#fd7e14" stroke-width="2" fill="none"></path></g><g stroke-linecap="round" transform="translate(595.9848263077665 758.6696265849077) rotate(0 14.116521049801122 15.161869303794447)"><path d="M7.06 0 C11.05 0, 15.04 0, 21.17 0 C25.88 0, 28.23 2.35, 28.23 7.06 C28.23 12.43, 28.23 17.8, 28.23 23.27 C28.23 27.97, 25.88 30.32, 21.17 30.32 C16.49 30.32, 11.81 30.32, 7.06 30.32 C2.35 30.32, 0 27.97, 0 23.27 C0 17.62, 0 11.97, 0 7.06 C0 2.35, 2.35 0, 7.06 0" stroke="none" stroke-width="0" fill="#fd7e14"></path><path d="M7.06 0 C11.37 0, 15.69 0, 21.17 0 M7.06 0 C12.47 0, 17.88 0, 21.17 0 M21.17 0 C25.88 0, 28.23 2.35, 28.23 7.06 M21.17 0 C25.88 0, 28.23 2.35, 28.23 7.06 M28.23 7.06 C28.23 13.1, 28.23 19.15, 28.23 23.27 M28.23 7.06 C28.23 11.83, 28.23 16.61, 28.23 23.27 M28.23 23.27 C28.23 27.97, 25.88 30.32, 21.17 30.32 M28.23 23.27 C28.23 27.97, 25.88 30.32, 21.17 30.32 M21.17 30.32 C16.72 30.32, 12.26 30.32, 7.06 30.32 M21.17 30.32 C16.25 30.32, 11.33 30.32, 7.06 30.32 M7.06 30.32 C2.35 30.32, 0 27.97, 0 23.27 M7.06 30.32 C2.35 30.32, 0 27.97, 0 23.27 M0 23.27 C0 16.81, 0 10.35, 0 7.06 M0 23.27 C0 18.63, 0 14, 0 7.06 M0 7.06 C0 2.35, 2.35 0, 7.06 0 M0 7.06 C0 2.35, 2.35 0, 7.06 0" stroke="#fff" stroke-width="2" fill="none"></path></g><g transform="translate(602.4293502872551 763.8314958887022) rotate(0 7.6719970703125 10)"><text x="7.6719970703125" y="14.016" font-family="Virgil, Segoe UI Emoji" font-size="16px" fill="#ffffff" text-anchor="middle" style="white-space: pre;" direction="ltr" dominant-baseline="alphabetic">10</text></g><g transform="translate(208.84061384065535 384.18980874901536) rotate(0 172.7329741117078 22.30970081878968)"><text x="0" y="15.634638333807597" font-family="Virgil, Segoe UI Emoji" font-size="17.847760655031504px" fill="#e03131" text-anchor="start" style="white-space: pre;" direction="ltr" dominant-baseline="alphabetic">ALB -&gt; Enabled by default</text><text x="0" y="37.94433915259698" font-family="Virgil, Segoe UI Emoji" font-size="17.847760655031504px" fill="#e03131" text-anchor="start" style="white-space: pre;" direction="ltr" dominant-baseline="alphabetic">NLB &amp; GWLB -&gt; Disabled by default</text></g></svg>