<svg version="1.1" xmlns="http://www.w3.org/2000/svg" viewBox="0 0 804.0194091796875 847.0368971092639" width="804.0194091796875" height="847.0368971092639">
  <!-- svg-source:excalidraw -->
  
  <defs>
    <style class="style-fonts">
      @font-face {
        font-family: "Virgil";
        src: url("https://excalidraw.com/Virgil.woff2");
      }
      @font-face {
        font-family: "Cascadia";
        src: url("https://excalidraw.com/Cascadia.woff2");
      }
      @font-face {
        font-family: "Assistant";
        src: url("https://excalidraw.com/Assistant-Regular.woff2");
      }
    </style>
    
  </defs>
  <rect x="0" y="0" width="804.0194091796875" height="847.0368971092639" fill="#ffffff"></rect><g stroke-linecap="round" transform="translate(193.6284629741158 10) rotate(0 208.38124161572796 45.86640443975966)"><path d="M22.93 0 C151.45 3.12, 284.15 4.14, 393.83 0 M22.93 0 C134.07 -1.46, 244.29 -0.75, 393.83 0 M393.83 0 C406.4 0.25, 415.57 3.89, 416.76 22.93 M393.83 0 C410.06 1.94, 412.87 11.04, 416.76 22.93 M416.76 22.93 C412.7 40.68, 417.58 55.8, 416.76 68.8 M416.76 22.93 C418.85 36.74, 418.35 45.85, 416.76 68.8 M416.76 68.8 C417.58 83.21, 412.01 91.87, 393.83 91.73 M416.76 68.8 C417.68 87.51, 410.89 88.21, 393.83 91.73 M393.83 91.73 C308.39 89.11, 225.06 88.28, 22.93 91.73 M393.83 91.73 C284.68 91.77, 172.89 90.58, 22.93 91.73 M22.93 91.73 C9.96 93.25, 0.36 87.63, 0 68.8 M22.93 91.73 C5.12 94.51, -0.4 86.49, 0 68.8 M0 68.8 C-1.34 59.2, 3.13 50.1, 0 22.93 M0 68.8 C-0.4 52.77, 2.14 35.54, 0 22.93 M0 22.93 C-2.09 6.6, 11.39 1.19, 22.93 0 M0 22.93 C-0.5 6.71, 3.7 -0.81, 22.93 0" stroke="#1971c2" stroke-width="4" fill="none"></path></g><g transform="translate(352.50975036621094 43.36640443976012) rotate(0 49.49995422363281 12.5)"><text x="49.49995422363281" y="17.52" font-family="Virgil, Segoe UI Emoji" font-size="20px" fill="#1971c2" text-anchor="middle" style="white-space: pre;" direction="ltr" dominant-baseline="alphabetic">Scalability</text></g><g transform="translate(28.1500244140625 116.72928783496081) rotate(0 373.85968017578125 25)"><text x="0" y="17.52" font-family="Virgil, Segoe UI Emoji" font-size="20px" fill="#7950f2" text-anchor="start" style="white-space: pre;" direction="ltr" dominant-baseline="alphabetic">It refers to the ability of application to handle increased load or traffic </text><text x="0" y="42.519999999999996" font-family="Virgil, Segoe UI Emoji" font-size="20px" fill="#7950f2" text-anchor="start" style="white-space: pre;" direction="ltr" dominant-baseline="alphabetic">by automatically adjusting resources.</text></g><g transform="translate(17.3599853515625 227.2852206479165) rotate(0 384.64971923828125 87.5)"><text x="0" y="17.52" font-family="Virgil, Segoe UI Emoji" font-size="20px" fill="#c2255c" text-anchor="start" style="white-space: pre;" direction="ltr" dominant-baseline="alphabetic">Types of Scaling:</text><text x="0" y="42.519999999999996" font-family="Virgil, Segoe UI Emoji" font-size="20px" fill="#c2255c" text-anchor="start" style="white-space: pre;" direction="ltr" dominant-baseline="alphabetic"></text><text x="0" y="67.52" font-family="Virgil, Segoe UI Emoji" font-size="20px" fill="#c2255c" text-anchor="start" style="white-space: pre;" direction="ltr" dominant-baseline="alphabetic">-&gt; Vertical Scaling (Scaling Up) : Increasing the capacity of a single resource,</text><text x="0" y="92.52" font-family="Virgil, Segoe UI Emoji" font-size="20px" fill="#c2255c" text-anchor="start" style="white-space: pre;" direction="ltr" dominant-baseline="alphabetic">                                like upgrading to more powerful server</text><text x="0" y="117.52" font-family="Virgil, Segoe UI Emoji" font-size="20px" fill="#c2255c" text-anchor="start" style="white-space: pre;" direction="ltr" dominant-baseline="alphabetic"></text><text x="0" y="142.52" font-family="Virgil, Segoe UI Emoji" font-size="20px" fill="#c2255c" text-anchor="start" style="white-space: pre;" direction="ltr" dominant-baseline="alphabetic">Example: Moving from a small instance to large instance in AWS EC2</text><text x="0" y="167.52" font-family="Virgil, Segoe UI Emoji" font-size="20px" fill="#c2255c" text-anchor="start" style="white-space: pre;" direction="ltr" dominant-baseline="alphabetic"></text></g><g mask="url(#mask-hVjyWmSLaSNKzwxynNMn0)" stroke-linecap="round"><g transform="translate(242.45584855631887 425.48910019546656) rotate(0 126.98992282569179 -1.4939990920670425)"><path d="M2.5 0.45 C44.52 0.15, 212.31 -2.08, 253.95 -2.95 M0.41 -1.77 C41.89 -1.48, 210.15 0.84, 251.69 0.7" stroke="#c2255c" stroke-width="4" fill="none"></path></g><g transform="translate(242.45584855631887 425.48910019546656) rotate(0 126.98992282569179 -1.4939990920670425)"><path d="M228.47 9.08 C236.81 4.67, 244.14 2.06, 253.62 2.09 M228.48 9.71 C235.84 5.3, 244.79 3.42, 251.04 1.06" stroke="#c2255c" stroke-width="4" fill="none"></path></g><g transform="translate(242.45584855631887 425.48910019546656) rotate(0 126.98992282569179 -1.4939990920670425)"><path d="M228.58 -8.02 C236.81 -6.19, 244.1 -2.54, 253.62 2.09 M228.59 -7.39 C236.02 -5.99, 244.93 -2.05, 251.04 1.06" stroke="#c2255c" stroke-width="4" fill="none"></path></g></g><mask id="mask-hVjyWmSLaSNKzwxynNMn0"><rect x="0" y="0" fill="#fff" width="596.4356942077025" height="528.4770983796006"></rect><rect x="299.00582997576066" y="411.4951011034" fill="#000" width="140.8798828125" height="25" opacity="1"></rect></mask><g transform="translate(299.00582997576066 411.4951011034) rotate(0 70.63048926979286 12.873540278263135)"><text x="70.43994140625" y="17.52" font-family="Virgil, Segoe UI Emoji" font-size="20px" fill="#c2255c" text-anchor="middle" style="white-space: pre;" direction="ltr" dominant-baseline="alphabetic">increased load</text></g><g stroke-linecap="round" transform="translate(139.69438299066633 389.43307508783073) rotate(0 37.025505514705856 38.04802389705901)"><path d="M74.05 38.05 C74.05 40.03, 73.9 42.04, 73.6 44 C73.29 45.96, 72.84 47.92, 72.24 49.81 C71.64 51.69, 70.89 53.55, 70.02 55.32 C69.14 57.09, 68.11 58.81, 66.98 60.41 C65.84 62.02, 64.57 63.55, 63.21 64.95 C61.84 66.35, 60.35 67.66, 58.79 68.83 C57.23 70, 55.55 71.05, 53.83 71.95 C52.11 72.85, 50.3 73.62, 48.47 74.23 C46.63 74.85, 44.72 75.32, 42.82 75.63 C40.91 75.94, 38.96 76.1, 37.03 76.1 C35.09 76.1, 33.14 75.94, 31.23 75.63 C29.33 75.32, 27.42 74.85, 25.58 74.23 C23.75 73.62, 21.94 72.85, 20.22 71.95 C18.5 71.05, 16.82 70, 15.26 68.83 C13.7 67.66, 12.21 66.35, 10.84 64.95 C9.48 63.55, 8.21 62.02, 7.07 60.41 C5.94 58.81, 4.91 57.09, 4.04 55.32 C3.16 53.55, 2.41 51.69, 1.81 49.81 C1.22 47.92, 0.76 45.96, 0.46 44 C0.15 42.04, 0 40.03, 0 38.05 C0 36.06, 0.15 34.06, 0.46 32.1 C0.76 30.14, 1.22 28.18, 1.81 26.29 C2.41 24.4, 3.16 22.54, 4.04 20.77 C4.91 19.01, 5.94 17.29, 7.07 15.68 C8.21 14.08, 9.48 12.55, 10.84 11.14 C12.21 9.74, 13.7 8.43, 15.26 7.27 C16.82 6.1, 18.5 5.05, 20.22 4.15 C21.94 3.25, 23.75 2.48, 25.58 1.86 C27.42 1.25, 29.33 0.78, 31.23 0.47 C33.14 0.16, 35.09 0, 37.03 0 C38.96 0, 40.91 0.16, 42.82 0.47 C44.72 0.78, 46.63 1.25, 48.47 1.86 C50.3 2.48, 52.11 3.25, 53.83 4.15 C55.55 5.05, 57.23 6.1, 58.79 7.27 C60.35 8.43, 61.84 9.74, 63.21 11.14 C64.57 12.55, 65.84 14.08, 66.98 15.68 C68.11 17.29, 69.14 19.01, 70.02 20.77 C70.89 22.54, 71.64 24.4, 72.24 26.29 C72.84 28.18, 73.29 30.14, 73.6 32.1 C73.9 34.06, 73.98 37.06, 74.05 38.05 C74.13 39.04, 74.13 37.06, 74.05 38.05" stroke="none" stroke-width="0" fill="#fd7e14"></path><path d="M74.05 38.05 C74.05 40.03, 73.9 42.04, 73.6 44 C73.29 45.96, 72.84 47.92, 72.24 49.81 C71.64 51.69, 70.89 53.55, 70.02 55.32 C69.14 57.09, 68.11 58.81, 66.98 60.41 C65.84 62.02, 64.57 63.55, 63.21 64.95 C61.84 66.35, 60.35 67.66, 58.79 68.83 C57.23 70, 55.55 71.05, 53.83 71.95 C52.11 72.85, 50.3 73.62, 48.47 74.23 C46.63 74.85, 44.72 75.32, 42.82 75.63 C40.91 75.94, 38.96 76.1, 37.03 76.1 C35.09 76.1, 33.14 75.94, 31.23 75.63 C29.33 75.32, 27.42 74.85, 25.58 74.23 C23.75 73.62, 21.94 72.85, 20.22 71.95 C18.5 71.05, 16.82 70, 15.26 68.83 C13.7 67.66, 12.21 66.35, 10.84 64.95 C9.48 63.55, 8.21 62.02, 7.07 60.41 C5.94 58.81, 4.91 57.09, 4.04 55.32 C3.16 53.55, 2.41 51.69, 1.81 49.81 C1.22 47.92, 0.76 45.96, 0.46 44 C0.15 42.04, 0 40.03, 0 38.05 C0 36.06, 0.15 34.06, 0.46 32.1 C0.76 30.14, 1.22 28.18, 1.81 26.29 C2.41 24.4, 3.16 22.54, 4.04 20.77 C4.91 19.01, 5.94 17.29, 7.07 15.68 C8.21 14.08, 9.48 12.55, 10.84 11.14 C12.21 9.74, 13.7 8.43, 15.26 7.27 C16.82 6.1, 18.5 5.05, 20.22 4.15 C21.94 3.25, 23.75 2.48, 25.58 1.86 C27.42 1.25, 29.33 0.78, 31.23 0.47 C33.14 0.16, 35.09 0, 37.03 0 C38.96 0, 40.91 0.16, 42.82 0.47 C44.72 0.78, 46.63 1.25, 48.47 1.86 C50.3 2.48, 52.11 3.25, 53.83 4.15 C55.55 5.05, 57.23 6.1, 58.79 7.27 C60.35 8.43, 61.84 9.74, 63.21 11.14 C64.57 12.55, 65.84 14.08, 66.98 15.68 C68.11 17.29, 69.14 19.01, 70.02 20.77 C70.89 22.54, 71.64 24.4, 72.24 26.29 C72.84 28.18, 73.29 30.14, 73.6 32.1 C73.9 34.06, 73.98 37.06, 74.05 38.05 C74.13 39.04, 74.13 37.06, 74.05 38.05" stroke="#fd7e14" stroke-width="2" fill="none"></path></g><g stroke-linecap="round" transform="translate(160.49516424066633 402.72236736724244) rotate(0 15.088981586224236 16.206341911764866)"><path d="M7.54 0 C13.25 0, 18.96 0, 22.63 0 C27.66 0, 30.18 2.51, 30.18 7.54 C30.18 11.97, 30.18 16.4, 30.18 24.87 C30.18 29.9, 27.66 32.41, 22.63 32.41 C19.46 32.41, 16.28 32.41, 7.54 32.41 C2.51 32.41, 0 29.9, 0 24.87 C0 18.3, 0 11.73, 0 7.54 C0 2.51, 2.51 0, 7.54 0" stroke="none" stroke-width="0" fill="#fd7e14"></path><path d="M7.54 0 C13.39 0, 19.24 0, 22.63 0 M7.54 0 C12.3 0, 17.06 0, 22.63 0 M22.63 0 C27.66 0, 30.18 2.51, 30.18 7.54 M22.63 0 C27.66 0, 30.18 2.51, 30.18 7.54 M30.18 7.54 C30.18 12.59, 30.18 17.63, 30.18 24.87 M30.18 7.54 C30.18 13.59, 30.18 19.63, 30.18 24.87 M30.18 24.87 C30.18 29.9, 27.66 32.41, 22.63 32.41 M30.18 24.87 C30.18 29.9, 27.66 32.41, 22.63 32.41 M22.63 32.41 C17.87 32.41, 13.1 32.41, 7.54 32.41 M22.63 32.41 C17.3 32.41, 11.97 32.41, 7.54 32.41 M7.54 32.41 C2.51 32.41, 0 29.9, 0 24.87 M7.54 32.41 C2.51 32.41, 0 29.9, 0 24.87 M0 24.87 C0 20.1, 0 15.33, 0 7.54 M0 24.87 C0 19.65, 0 14.42, 0 7.54 M0 7.54 C0 2.51, 2.51 0, 7.54 0 M0 7.54 C0 2.51, 2.51 0, 7.54 0" stroke="#fff" stroke-width="2" fill="none"></path></g><g transform="translate(157.38351588178875 442.07540289900135) rotate(0 19.3798828125 5.5)"><text x="0" y="8.78423918395483" font-family="Cascadia, Segoe UI Emoji" font-size="9.453912815126058px" fill="#fff" text-anchor="start" style="white-space: pre;" direction="ltr" dominant-baseline="alphabetic">t2micro</text></g><g stroke-linecap="round" transform="translate(518.1741529809628 389.43307508783073) rotate(0 37.025505514705856 38.04802389705901)"><path d="M74.05 38.05 C74.05 40.03, 73.9 42.04, 73.6 44 C73.29 45.96, 72.84 47.92, 72.24 49.81 C71.64 51.69, 70.89 53.55, 70.02 55.32 C69.14 57.09, 68.11 58.81, 66.98 60.41 C65.84 62.02, 64.57 63.55, 63.21 64.95 C61.84 66.35, 60.35 67.66, 58.79 68.83 C57.23 70, 55.55 71.05, 53.83 71.95 C52.11 72.85, 50.3 73.62, 48.47 74.23 C46.63 74.85, 44.72 75.32, 42.82 75.63 C40.91 75.94, 38.96 76.1, 37.03 76.1 C35.09 76.1, 33.14 75.94, 31.23 75.63 C29.33 75.32, 27.42 74.85, 25.58 74.23 C23.75 73.62, 21.94 72.85, 20.22 71.95 C18.5 71.05, 16.82 70, 15.26 68.83 C13.7 67.66, 12.21 66.35, 10.84 64.95 C9.48 63.55, 8.21 62.02, 7.07 60.41 C5.94 58.81, 4.91 57.09, 4.04 55.32 C3.16 53.55, 2.41 51.69, 1.81 49.81 C1.22 47.92, 0.76 45.96, 0.46 44 C0.15 42.04, 0 40.03, 0 38.05 C0 36.06, 0.15 34.06, 0.46 32.1 C0.76 30.14, 1.22 28.18, 1.81 26.29 C2.41 24.4, 3.16 22.54, 4.04 20.77 C4.91 19.01, 5.94 17.29, 7.07 15.68 C8.21 14.08, 9.48 12.55, 10.84 11.14 C12.21 9.74, 13.7 8.43, 15.26 7.27 C16.82 6.1, 18.5 5.05, 20.22 4.15 C21.94 3.25, 23.75 2.48, 25.58 1.86 C27.42 1.25, 29.33 0.78, 31.23 0.47 C33.14 0.16, 35.09 0, 37.03 0 C38.96 0, 40.91 0.16, 42.82 0.47 C44.72 0.78, 46.63 1.25, 48.47 1.86 C50.3 2.48, 52.11 3.25, 53.83 4.15 C55.55 5.05, 57.23 6.1, 58.79 7.27 C60.35 8.43, 61.84 9.74, 63.21 11.14 C64.57 12.55, 65.84 14.08, 66.98 15.68 C68.11 17.29, 69.14 19.01, 70.02 20.77 C70.89 22.54, 71.64 24.4, 72.24 26.29 C72.84 28.18, 73.29 30.14, 73.6 32.1 C73.9 34.06, 73.98 37.06, 74.05 38.05 C74.13 39.04, 74.13 37.06, 74.05 38.05" stroke="none" stroke-width="0" fill="#fd7e14"></path><path d="M74.05 38.05 C74.05 40.03, 73.9 42.04, 73.6 44 C73.29 45.96, 72.84 47.92, 72.24 49.81 C71.64 51.69, 70.89 53.55, 70.02 55.32 C69.14 57.09, 68.11 58.81, 66.98 60.41 C65.84 62.02, 64.57 63.55, 63.21 64.95 C61.84 66.35, 60.35 67.66, 58.79 68.83 C57.23 70, 55.55 71.05, 53.83 71.95 C52.11 72.85, 50.3 73.62, 48.47 74.23 C46.63 74.85, 44.72 75.32, 42.82 75.63 C40.91 75.94, 38.96 76.1, 37.03 76.1 C35.09 76.1, 33.14 75.94, 31.23 75.63 C29.33 75.32, 27.42 74.85, 25.58 74.23 C23.75 73.62, 21.94 72.85, 20.22 71.95 C18.5 71.05, 16.82 70, 15.26 68.83 C13.7 67.66, 12.21 66.35, 10.84 64.95 C9.48 63.55, 8.21 62.02, 7.07 60.41 C5.94 58.81, 4.91 57.09, 4.04 55.32 C3.16 53.55, 2.41 51.69, 1.81 49.81 C1.22 47.92, 0.76 45.96, 0.46 44 C0.15 42.04, 0 40.03, 0 38.05 C0 36.06, 0.15 34.06, 0.46 32.1 C0.76 30.14, 1.22 28.18, 1.81 26.29 C2.41 24.4, 3.16 22.54, 4.04 20.77 C4.91 19.01, 5.94 17.29, 7.07 15.68 C8.21 14.08, 9.48 12.55, 10.84 11.14 C12.21 9.74, 13.7 8.43, 15.26 7.27 C16.82 6.1, 18.5 5.05, 20.22 4.15 C21.94 3.25, 23.75 2.48, 25.58 1.86 C27.42 1.25, 29.33 0.78, 31.23 0.47 C33.14 0.16, 35.09 0, 37.03 0 C38.96 0, 40.91 0.16, 42.82 0.47 C44.72 0.78, 46.63 1.25, 48.47 1.86 C50.3 2.48, 52.11 3.25, 53.83 4.15 C55.55 5.05, 57.23 6.1, 58.79 7.27 C60.35 8.43, 61.84 9.74, 63.21 11.14 C64.57 12.55, 65.84 14.08, 66.98 15.68 C68.11 17.29, 69.14 19.01, 70.02 20.77 C70.89 22.54, 71.64 24.4, 72.24 26.29 C72.84 28.18, 73.29 30.14, 73.6 32.1 C73.9 34.06, 73.98 37.06, 74.05 38.05 C74.13 39.04, 74.13 37.06, 74.05 38.05" stroke="#fd7e14" stroke-width="2" fill="none"></path></g><g stroke-linecap="round" transform="translate(538.9749342309628 402.72236736724153) rotate(0 15.088981586224236 16.206341911764866)"><path d="M7.54 0 C12.13 0, 16.72 0, 22.63 0 C27.66 0, 30.18 2.51, 30.18 7.54 C30.18 13.43, 30.18 19.31, 30.18 24.87 C30.18 29.9, 27.66 32.41, 22.63 32.41 C17.47 32.41, 12.3 32.41, 7.54 32.41 C2.51 32.41, 0 29.9, 0 24.87 C0 19.67, 0 14.48, 0 7.54 C0 2.51, 2.51 0, 7.54 0" stroke="none" stroke-width="0" fill="#fd7e14"></path><path d="M7.54 0 C12.26 0, 16.97 0, 22.63 0 M7.54 0 C11.45 0, 15.35 0, 22.63 0 M22.63 0 C27.66 0, 30.18 2.51, 30.18 7.54 M22.63 0 C27.66 0, 30.18 2.51, 30.18 7.54 M30.18 7.54 C30.18 12.78, 30.18 18.01, 30.18 24.87 M30.18 7.54 C30.18 14.23, 30.18 20.91, 30.18 24.87 M30.18 24.87 C30.18 29.9, 27.66 32.41, 22.63 32.41 M30.18 24.87 C30.18 29.9, 27.66 32.41, 22.63 32.41 M22.63 32.41 C17.81 32.41, 12.98 32.41, 7.54 32.41 M22.63 32.41 C16.72 32.41, 10.8 32.41, 7.54 32.41 M7.54 32.41 C2.51 32.41, 0 29.9, 0 24.87 M7.54 32.41 C2.51 32.41, 0 29.9, 0 24.87 M0 24.87 C0 19.05, 0 13.23, 0 7.54 M0 24.87 C0 20.13, 0 15.39, 0 7.54 M0 7.54 C0 2.51, 2.51 0, 7.54 0 M0 7.54 C0 2.51, 2.51 0, 7.54 0" stroke="#fff" stroke-width="2" fill="none"></path></g><g transform="translate(535.8632858720853 442.0754028989995) rotate(0 19.3798828125 5.5)"><text x="0" y="8.78423918395483" font-family="Cascadia, Segoe UI Emoji" font-size="9.453912815126058px" fill="#fff" text-anchor="start" style="white-space: pre;" direction="ltr" dominant-baseline="alphabetic">t2large</text></g><g transform="translate(10 523.0970408771745) rotate(0 392.00970458984375 25)"><text x="0" y="17.52" font-family="Virgil, Segoe UI Emoji" font-size="20px" fill="#c2255c" text-anchor="start" style="white-space: pre;" direction="ltr" dominant-baseline="alphabetic">-&gt; Horizontal Scaling (Scaling Out) :  Adding more instances of a resources to </text><text x="0" y="42.519999999999996" font-family="Virgil, Segoe UI Emoji" font-size="20px" fill="#c2255c" text-anchor="start" style="white-space: pre;" direction="ltr" dominant-baseline="alphabetic">                                     handle increased load</text></g><g transform="translate(10 590.8249997175435) rotate(0 317.479736328125 12.5)"><text x="0" y="17.52" font-family="Virgil, Segoe UI Emoji" font-size="20px" fill="#c2255c" text-anchor="start" style="white-space: pre;" direction="ltr" dominant-baseline="alphabetic">Example: Adding more EC2 instances to handle increased traffic</text></g><g stroke-linecap="round" transform="translate(146.3489484854922 718.1128753425592) rotate(0 36.0562730210213 37.05202450234765)"><path d="M72.11 37.05 C72.11 38.98, 71.96 40.94, 71.67 42.85 C71.37 44.76, 70.93 46.66, 70.35 48.5 C69.77 50.34, 69.04 52.15, 68.18 53.87 C67.33 55.59, 66.33 57.27, 65.23 58.83 C64.12 60.39, 62.88 61.89, 61.55 63.25 C60.22 64.62, 58.77 65.89, 57.25 67.03 C55.73 68.16, 54.1 69.19, 52.43 70.07 C50.75 70.94, 48.99 71.69, 47.2 72.29 C45.41 72.89, 43.55 73.35, 41.7 73.65 C39.84 73.95, 37.94 74.1, 36.06 74.1 C34.18 74.1, 32.27 73.95, 30.42 73.65 C28.56 73.35, 26.7 72.89, 24.91 72.29 C23.13 71.69, 21.36 70.94, 19.69 70.07 C18.01 69.19, 16.38 68.16, 14.86 67.03 C13.34 65.89, 11.89 64.62, 10.56 63.25 C9.23 61.89, 7.99 60.39, 6.89 58.83 C5.78 57.27, 4.78 55.59, 3.93 53.87 C3.08 52.15, 2.35 50.34, 1.76 48.5 C1.18 46.66, 0.74 44.76, 0.44 42.85 C0.15 40.94, 0 38.98, 0 37.05 C0 35.12, 0.15 33.16, 0.44 31.26 C0.74 29.35, 1.18 27.44, 1.76 25.6 C2.35 23.76, 3.08 21.95, 3.93 20.23 C4.78 18.51, 5.78 16.84, 6.89 15.27 C7.99 13.71, 9.23 12.22, 10.56 10.85 C11.89 9.49, 13.34 8.21, 14.86 7.08 C16.38 5.94, 18.01 4.92, 19.69 4.04 C21.36 3.16, 23.13 2.41, 24.91 1.81 C26.7 1.22, 28.56 0.76, 30.42 0.46 C32.27 0.15, 34.18 0, 36.06 0 C37.94 0, 39.84 0.15, 41.7 0.46 C43.55 0.76, 45.41 1.22, 47.2 1.81 C48.99 2.41, 50.75 3.16, 52.43 4.04 C54.1 4.92, 55.73 5.94, 57.25 7.08 C58.77 8.21, 60.22 9.49, 61.55 10.85 C62.88 12.22, 64.12 13.71, 65.23 15.27 C66.33 16.84, 67.33 18.51, 68.18 20.23 C69.04 21.95, 69.77 23.76, 70.35 25.6 C70.93 27.44, 71.37 29.35, 71.67 31.26 C71.96 33.16, 72.04 36.09, 72.11 37.05 C72.19 38.02, 72.19 36.09, 72.11 37.05" stroke="none" stroke-width="0" fill="#fd7e14"></path><path d="M72.11 37.05 C72.11 38.98, 71.96 40.94, 71.67 42.85 C71.37 44.76, 70.93 46.66, 70.35 48.5 C69.77 50.34, 69.04 52.15, 68.18 53.87 C67.33 55.59, 66.33 57.27, 65.23 58.83 C64.12 60.39, 62.88 61.89, 61.55 63.25 C60.22 64.62, 58.77 65.89, 57.25 67.03 C55.73 68.16, 54.1 69.19, 52.43 70.07 C50.75 70.94, 48.99 71.69, 47.2 72.29 C45.41 72.89, 43.55 73.35, 41.7 73.65 C39.84 73.95, 37.94 74.1, 36.06 74.1 C34.18 74.1, 32.27 73.95, 30.42 73.65 C28.56 73.35, 26.7 72.89, 24.91 72.29 C23.13 71.69, 21.36 70.94, 19.69 70.07 C18.01 69.19, 16.38 68.16, 14.86 67.03 C13.34 65.89, 11.89 64.62, 10.56 63.25 C9.23 61.89, 7.99 60.39, 6.89 58.83 C5.78 57.27, 4.78 55.59, 3.93 53.87 C3.08 52.15, 2.35 50.34, 1.76 48.5 C1.18 46.66, 0.74 44.76, 0.44 42.85 C0.15 40.94, 0 38.98, 0 37.05 C0 35.12, 0.15 33.16, 0.44 31.26 C0.74 29.35, 1.18 27.44, 1.76 25.6 C2.35 23.76, 3.08 21.95, 3.93 20.23 C4.78 18.51, 5.78 16.84, 6.89 15.27 C7.99 13.71, 9.23 12.22, 10.56 10.85 C11.89 9.49, 13.34 8.21, 14.86 7.08 C16.38 5.94, 18.01 4.92, 19.69 4.04 C21.36 3.16, 23.13 2.41, 24.91 1.81 C26.7 1.22, 28.56 0.76, 30.42 0.46 C32.27 0.15, 34.18 0, 36.06 0 C37.94 0, 39.84 0.15, 41.7 0.46 C43.55 0.76, 45.41 1.22, 47.2 1.81 C48.99 2.41, 50.75 3.16, 52.43 4.04 C54.1 4.92, 55.73 5.94, 57.25 7.08 C58.77 8.21, 60.22 9.49, 61.55 10.85 C62.88 12.22, 64.12 13.71, 65.23 15.27 C66.33 16.84, 67.33 18.51, 68.18 20.23 C69.04 21.95, 69.77 23.76, 70.35 25.6 C70.93 27.44, 71.37 29.35, 71.67 31.26 C71.96 33.16, 72.04 36.09, 72.11 37.05 C72.19 38.02, 72.19 36.09, 72.11 37.05" stroke="#fd7e14" stroke-width="2" fill="none"></path></g><g stroke-linecap="round" transform="translate(166.6052187882069 731.0542881341362) rotate(0 14.693990861677321 15.782101568080634)"><path d="M7.35 0 C10.72 0, 14.09 0, 22.04 0 C26.94 0, 29.39 2.45, 29.39 7.35 C29.39 12.33, 29.39 17.31, 29.39 24.22 C29.39 29.12, 26.94 31.56, 22.04 31.56 C16.6 31.56, 11.17 31.56, 7.35 31.56 C2.45 31.56, 0 29.12, 0 24.22 C0 18.31, 0 12.41, 0 7.35 C0 2.45, 2.45 0, 7.35 0" stroke="none" stroke-width="0" fill="#fd7e14"></path><path d="M7.35 0 C10.32 0, 13.3 0, 22.04 0 M7.35 0 C11.09 0, 14.83 0, 22.04 0 M22.04 0 C26.94 0, 29.39 2.45, 29.39 7.35 M22.04 0 C26.94 0, 29.39 2.45, 29.39 7.35 M29.39 7.35 C29.39 11.02, 29.39 14.7, 29.39 24.22 M29.39 7.35 C29.39 11.71, 29.39 16.07, 29.39 24.22 M29.39 24.22 C29.39 29.12, 26.94 31.56, 22.04 31.56 M29.39 24.22 C29.39 29.12, 26.94 31.56, 22.04 31.56 M22.04 31.56 C18.53 31.56, 15.03 31.56, 7.35 31.56 M22.04 31.56 C18.97 31.56, 15.89 31.56, 7.35 31.56 M7.35 31.56 C2.45 31.56, 0 29.12, 0 24.22 M7.35 31.56 C2.45 31.56, 0 29.12, 0 24.22 M0 24.22 C0 20.41, 0 16.59, 0 7.35 M0 24.22 C0 20.46, 0 16.7, 0 7.35 M0 7.35 C0 2.45, 2.45 0, 7.35 0 M0 7.35 C0 2.45, 2.45 0, 7.35 0" stroke="#fff" stroke-width="2" fill="none"></path></g><g transform="translate(165.3062971472482 769.3510897213237) rotate(0 18.8671875 5.356024147647531)"><text x="0" y="8.55429039781324" font-family="Cascadia, Segoe UI Emoji" font-size="9.206433695921573px" fill="#fff" text-anchor="start" style="white-space: pre;" direction="ltr" dominant-baseline="alphabetic">t2micro</text></g><g stroke-linecap="round" transform="translate(585.5579146521532 673.2929025805506) rotate(0 36.0562730210213 37.05202450234765)"><path d="M72.11 37.05 C72.11 38.98, 71.96 40.94, 71.67 42.85 C71.37 44.76, 70.93 46.66, 70.35 48.5 C69.77 50.34, 69.04 52.15, 68.18 53.87 C67.33 55.59, 66.33 57.27, 65.23 58.83 C64.12 60.39, 62.88 61.89, 61.55 63.25 C60.22 64.62, 58.77 65.89, 57.25 67.03 C55.73 68.16, 54.1 69.19, 52.43 70.07 C50.75 70.94, 48.99 71.69, 47.2 72.29 C45.41 72.89, 43.55 73.35, 41.7 73.65 C39.84 73.95, 37.94 74.1, 36.06 74.1 C34.18 74.1, 32.27 73.95, 30.42 73.65 C28.56 73.35, 26.7 72.89, 24.91 72.29 C23.13 71.69, 21.36 70.94, 19.69 70.07 C18.01 69.19, 16.38 68.16, 14.86 67.03 C13.34 65.89, 11.89 64.62, 10.56 63.25 C9.23 61.89, 7.99 60.39, 6.89 58.83 C5.78 57.27, 4.78 55.59, 3.93 53.87 C3.08 52.15, 2.35 50.34, 1.76 48.5 C1.18 46.66, 0.74 44.76, 0.44 42.85 C0.15 40.94, 0 38.98, 0 37.05 C0 35.12, 0.15 33.16, 0.44 31.26 C0.74 29.35, 1.18 27.44, 1.76 25.6 C2.35 23.76, 3.08 21.95, 3.93 20.23 C4.78 18.51, 5.78 16.84, 6.89 15.27 C7.99 13.71, 9.23 12.22, 10.56 10.85 C11.89 9.49, 13.34 8.21, 14.86 7.08 C16.38 5.94, 18.01 4.92, 19.69 4.04 C21.36 3.16, 23.13 2.41, 24.91 1.81 C26.7 1.22, 28.56 0.76, 30.42 0.46 C32.27 0.15, 34.18 0, 36.06 0 C37.94 0, 39.84 0.15, 41.7 0.46 C43.55 0.76, 45.41 1.22, 47.2 1.81 C48.99 2.41, 50.75 3.16, 52.43 4.04 C54.1 4.92, 55.73 5.94, 57.25 7.08 C58.77 8.21, 60.22 9.49, 61.55 10.85 C62.88 12.22, 64.12 13.71, 65.23 15.27 C66.33 16.84, 67.33 18.51, 68.18 20.23 C69.04 21.95, 69.77 23.76, 70.35 25.6 C70.93 27.44, 71.37 29.35, 71.67 31.26 C71.96 33.16, 72.04 36.09, 72.11 37.05 C72.19 38.02, 72.19 36.09, 72.11 37.05" stroke="none" stroke-width="0" fill="#fd7e14"></path><path d="M72.11 37.05 C72.11 38.98, 71.96 40.94, 71.67 42.85 C71.37 44.76, 70.93 46.66, 70.35 48.5 C69.77 50.34, 69.04 52.15, 68.18 53.87 C67.33 55.59, 66.33 57.27, 65.23 58.83 C64.12 60.39, 62.88 61.89, 61.55 63.25 C60.22 64.62, 58.77 65.89, 57.25 67.03 C55.73 68.16, 54.1 69.19, 52.43 70.07 C50.75 70.94, 48.99 71.69, 47.2 72.29 C45.41 72.89, 43.55 73.35, 41.7 73.65 C39.84 73.95, 37.94 74.1, 36.06 74.1 C34.18 74.1, 32.27 73.95, 30.42 73.65 C28.56 73.35, 26.7 72.89, 24.91 72.29 C23.13 71.69, 21.36 70.94, 19.69 70.07 C18.01 69.19, 16.38 68.16, 14.86 67.03 C13.34 65.89, 11.89 64.62, 10.56 63.25 C9.23 61.89, 7.99 60.39, 6.89 58.83 C5.78 57.27, 4.78 55.59, 3.93 53.87 C3.08 52.15, 2.35 50.34, 1.76 48.5 C1.18 46.66, 0.74 44.76, 0.44 42.85 C0.15 40.94, 0 38.98, 0 37.05 C0 35.12, 0.15 33.16, 0.44 31.26 C0.74 29.35, 1.18 27.44, 1.76 25.6 C2.35 23.76, 3.08 21.95, 3.93 20.23 C4.78 18.51, 5.78 16.84, 6.89 15.27 C7.99 13.71, 9.23 12.22, 10.56 10.85 C11.89 9.49, 13.34 8.21, 14.86 7.08 C16.38 5.94, 18.01 4.92, 19.69 4.04 C21.36 3.16, 23.13 2.41, 24.91 1.81 C26.7 1.22, 28.56 0.76, 30.42 0.46 C32.27 0.15, 34.18 0, 36.06 0 C37.94 0, 39.84 0.15, 41.7 0.46 C43.55 0.76, 45.41 1.22, 47.2 1.81 C48.99 2.41, 50.75 3.16, 52.43 4.04 C54.1 4.92, 55.73 5.94, 57.25 7.08 C58.77 8.21, 60.22 9.49, 61.55 10.85 C62.88 12.22, 64.12 13.71, 65.23 15.27 C66.33 16.84, 67.33 18.51, 68.18 20.23 C69.04 21.95, 69.77 23.76, 70.35 25.6 C70.93 27.44, 71.37 29.35, 71.67 31.26 C71.96 33.16, 72.04 36.09, 72.11 37.05 C72.19 38.02, 72.19 36.09, 72.11 37.05" stroke="#fd7e14" stroke-width="2" fill="none"></path></g><g stroke-linecap="round" transform="translate(605.8141849548683 686.2343153721276) rotate(0 14.693990861677321 15.782101568080634)"><path d="M7.35 0 C11.61 0, 15.87 0, 22.04 0 C26.94 0, 29.39 2.45, 29.39 7.35 C29.39 11.85, 29.39 16.35, 29.39 24.22 C29.39 29.12, 26.94 31.56, 22.04 31.56 C16.92 31.56, 11.79 31.56, 7.35 31.56 C2.45 31.56, 0 29.12, 0 24.22 C0 18.99, 0 13.77, 0 7.35 C0 2.45, 2.45 0, 7.35 0" stroke="none" stroke-width="0" fill="#fd7e14"></path><path d="M7.35 0 C11.07 0, 14.78 0, 22.04 0 M7.35 0 C11.64 0, 15.93 0, 22.04 0 M22.04 0 C26.94 0, 29.39 2.45, 29.39 7.35 M22.04 0 C26.94 0, 29.39 2.45, 29.39 7.35 M29.39 7.35 C29.39 10.8, 29.39 14.26, 29.39 24.22 M29.39 7.35 C29.39 11.13, 29.39 14.92, 29.39 24.22 M29.39 24.22 C29.39 29.12, 26.94 31.56, 22.04 31.56 M29.39 24.22 C29.39 29.12, 26.94 31.56, 22.04 31.56 M22.04 31.56 C17.59 31.56, 13.15 31.56, 7.35 31.56 M22.04 31.56 C16.53 31.56, 11.02 31.56, 7.35 31.56 M7.35 31.56 C2.45 31.56, 0 29.12, 0 24.22 M7.35 31.56 C2.45 31.56, 0 29.12, 0 24.22 M0 24.22 C0 17.57, 0 10.93, 0 7.35 M0 24.22 C0 17.72, 0 11.22, 0 7.35 M0 7.35 C0 2.45, 2.45 0, 7.35 0 M0 7.35 C0 2.45, 2.45 0, 7.35 0" stroke="#fff" stroke-width="2" fill="none"></path></g><g transform="translate(604.5152633139096 724.531116959316) rotate(0 18.8671875 5.356024147647531)"><text x="0" y="8.55429039781324" font-family="Cascadia, Segoe UI Emoji" font-size="9.206433695921573px" fill="#fff" text-anchor="start" style="white-space: pre;" direction="ltr" dominant-baseline="alphabetic">t2micro</text></g><g stroke-linecap="round" transform="translate(585.5579146521532 762.9328481045686) rotate(0 36.0562730210213 37.05202450234765)"><path d="M72.11 37.05 C72.11 38.98, 71.96 40.94, 71.67 42.85 C71.37 44.76, 70.93 46.66, 70.35 48.5 C69.77 50.34, 69.04 52.15, 68.18 53.87 C67.33 55.59, 66.33 57.27, 65.23 58.83 C64.12 60.39, 62.88 61.89, 61.55 63.25 C60.22 64.62, 58.77 65.89, 57.25 67.03 C55.73 68.16, 54.1 69.19, 52.43 70.07 C50.75 70.94, 48.99 71.69, 47.2 72.29 C45.41 72.89, 43.55 73.35, 41.7 73.65 C39.84 73.95, 37.94 74.1, 36.06 74.1 C34.18 74.1, 32.27 73.95, 30.42 73.65 C28.56 73.35, 26.7 72.89, 24.91 72.29 C23.13 71.69, 21.36 70.94, 19.69 70.07 C18.01 69.19, 16.38 68.16, 14.86 67.03 C13.34 65.89, 11.89 64.62, 10.56 63.25 C9.23 61.89, 7.99 60.39, 6.89 58.83 C5.78 57.27, 4.78 55.59, 3.93 53.87 C3.08 52.15, 2.35 50.34, 1.76 48.5 C1.18 46.66, 0.74 44.76, 0.44 42.85 C0.15 40.94, 0 38.98, 0 37.05 C0 35.12, 0.15 33.16, 0.44 31.26 C0.74 29.35, 1.18 27.44, 1.76 25.6 C2.35 23.76, 3.08 21.95, 3.93 20.23 C4.78 18.51, 5.78 16.84, 6.89 15.27 C7.99 13.71, 9.23 12.22, 10.56 10.85 C11.89 9.49, 13.34 8.21, 14.86 7.08 C16.38 5.94, 18.01 4.92, 19.69 4.04 C21.36 3.16, 23.13 2.41, 24.91 1.81 C26.7 1.22, 28.56 0.76, 30.42 0.46 C32.27 0.15, 34.18 0, 36.06 0 C37.94 0, 39.84 0.15, 41.7 0.46 C43.55 0.76, 45.41 1.22, 47.2 1.81 C48.99 2.41, 50.75 3.16, 52.43 4.04 C54.1 4.92, 55.73 5.94, 57.25 7.08 C58.77 8.21, 60.22 9.49, 61.55 10.85 C62.88 12.22, 64.12 13.71, 65.23 15.27 C66.33 16.84, 67.33 18.51, 68.18 20.23 C69.04 21.95, 69.77 23.76, 70.35 25.6 C70.93 27.44, 71.37 29.35, 71.67 31.26 C71.96 33.16, 72.04 36.09, 72.11 37.05 C72.19 38.02, 72.19 36.09, 72.11 37.05" stroke="none" stroke-width="0" fill="#fd7e14"></path><path d="M72.11 37.05 C72.11 38.98, 71.96 40.94, 71.67 42.85 C71.37 44.76, 70.93 46.66, 70.35 48.5 C69.77 50.34, 69.04 52.15, 68.18 53.87 C67.33 55.59, 66.33 57.27, 65.23 58.83 C64.12 60.39, 62.88 61.89, 61.55 63.25 C60.22 64.62, 58.77 65.89, 57.25 67.03 C55.73 68.16, 54.1 69.19, 52.43 70.07 C50.75 70.94, 48.99 71.69, 47.2 72.29 C45.41 72.89, 43.55 73.35, 41.7 73.65 C39.84 73.95, 37.94 74.1, 36.06 74.1 C34.18 74.1, 32.27 73.95, 30.42 73.65 C28.56 73.35, 26.7 72.89, 24.91 72.29 C23.13 71.69, 21.36 70.94, 19.69 70.07 C18.01 69.19, 16.38 68.16, 14.86 67.03 C13.34 65.89, 11.89 64.62, 10.56 63.25 C9.23 61.89, 7.99 60.39, 6.89 58.83 C5.78 57.27, 4.78 55.59, 3.93 53.87 C3.08 52.15, 2.35 50.34, 1.76 48.5 C1.18 46.66, 0.74 44.76, 0.44 42.85 C0.15 40.94, 0 38.98, 0 37.05 C0 35.12, 0.15 33.16, 0.44 31.26 C0.74 29.35, 1.18 27.44, 1.76 25.6 C2.35 23.76, 3.08 21.95, 3.93 20.23 C4.78 18.51, 5.78 16.84, 6.89 15.27 C7.99 13.71, 9.23 12.22, 10.56 10.85 C11.89 9.49, 13.34 8.21, 14.86 7.08 C16.38 5.94, 18.01 4.92, 19.69 4.04 C21.36 3.16, 23.13 2.41, 24.91 1.81 C26.7 1.22, 28.56 0.76, 30.42 0.46 C32.27 0.15, 34.18 0, 36.06 0 C37.94 0, 39.84 0.15, 41.7 0.46 C43.55 0.76, 45.41 1.22, 47.2 1.81 C48.99 2.41, 50.75 3.16, 52.43 4.04 C54.1 4.92, 55.73 5.94, 57.25 7.08 C58.77 8.21, 60.22 9.49, 61.55 10.85 C62.88 12.22, 64.12 13.71, 65.23 15.27 C66.33 16.84, 67.33 18.51, 68.18 20.23 C69.04 21.95, 69.77 23.76, 70.35 25.6 C70.93 27.44, 71.37 29.35, 71.67 31.26 C71.96 33.16, 72.04 36.09, 72.11 37.05 C72.19 38.02, 72.19 36.09, 72.11 37.05" stroke="#fd7e14" stroke-width="2" fill="none"></path></g><g stroke-linecap="round" transform="translate(605.8141849548674 775.8742608961456) rotate(0 14.693990861677321 15.782101568080634)"><path d="M7.35 0 C12.25 0, 17.16 0, 22.04 0 C26.94 0, 29.39 2.45, 29.39 7.35 C29.39 11.43, 29.39 15.52, 29.39 24.22 C29.39 29.12, 26.94 31.56, 22.04 31.56 C16.61 31.56, 11.18 31.56, 7.35 31.56 C2.45 31.56, 0 29.12, 0 24.22 C0 19.16, 0 14.1, 0 7.35 C0 2.45, 2.45 0, 7.35 0" stroke="none" stroke-width="0" fill="#fd7e14"></path><path d="M7.35 0 C11.39 0, 15.44 0, 22.04 0 M7.35 0 C11.52 0, 15.7 0, 22.04 0 M22.04 0 C26.94 0, 29.39 2.45, 29.39 7.35 M22.04 0 C26.94 0, 29.39 2.45, 29.39 7.35 M29.39 7.35 C29.39 13.85, 29.39 20.35, 29.39 24.22 M29.39 7.35 C29.39 11.01, 29.39 14.67, 29.39 24.22 M29.39 24.22 C29.39 29.12, 26.94 31.56, 22.04 31.56 M29.39 24.22 C29.39 29.12, 26.94 31.56, 22.04 31.56 M22.04 31.56 C17.04 31.56, 12.04 31.56, 7.35 31.56 M22.04 31.56 C16.97 31.56, 11.9 31.56, 7.35 31.56 M7.35 31.56 C2.45 31.56, 0 29.12, 0 24.22 M7.35 31.56 C2.45 31.56, 0 29.12, 0 24.22 M0 24.22 C0 17.86, 0 11.49, 0 7.35 M0 24.22 C0 19.73, 0 15.24, 0 7.35 M0 7.35 C0 2.45, 2.45 0, 7.35 0 M0 7.35 C0 2.45, 2.45 0, 7.35 0" stroke="#fff" stroke-width="2" fill="none"></path></g><g transform="translate(604.5152633139087 814.171062483334) rotate(0 18.8671875 5.356024147647531)"><text x="0" y="8.55429039781324" font-family="Cascadia, Segoe UI Emoji" font-size="9.206433695921573px" fill="#fff" text-anchor="start" style="white-space: pre;" direction="ltr" dominant-baseline="alphabetic">t2micro</text></g><g mask="url(#mask-0fYuCyLZDZAwqYbZX2D57)" stroke-linecap="round"><g transform="translate(261.9814545941913 756.8186123570758) rotate(360.40720088669485 140.5684189297583 -1.6537461050561433)"><path d="M0.26 0.99 C47.61 0.29, 236.43 -2.91, 283.1 -3.27 M-3.05 -0.95 C44.21 -1.23, 235.09 1.14, 281.93 0.38" stroke="#c2255c" stroke-width="4" fill="none"></path></g><g transform="translate(261.9814545941913 756.8186123570758) rotate(360.40720088669485 140.5684189297583 -1.6537461050561433)"><path d="M259.14 10.33 C264.61 6.04, 272.29 4.95, 283.11 -1.25 M258.64 9.38 C266.96 5.13, 273.3 2.41, 282.51 1.31" stroke="#c2255c" stroke-width="4" fill="none"></path></g><g transform="translate(261.9814545941913 756.8186123570758) rotate(360.40720088669485 140.5684189297583 -1.6537461050561433)"><path d="M259.14 -6.77 C264.66 -6.57, 272.35 -3.18, 283.11 -1.25 M258.64 -7.72 C266.85 -6.25, 273.19 -3.25, 282.51 1.31" stroke="#c2255c" stroke-width="4" fill="none"></path></g></g><mask id="mask-0fYuCyLZDZAwqYbZX2D57"><rect x="0" y="0" fill="#fff" width="643.1182924537077" height="860.126104567188"></rect><rect x="324.6080705454342" y="741.3282940459412" fill="#000" width="155.88360595703125" height="27.673144412156322" opacity="1"></rect></mask><g transform="translate(324.6116999007777 741.3321689586692) rotate(360.40720088669485 77.39476549306232 14.345306202212669)"><text x="77.94180297851562" y="19.39333960403915" font-family="Virgil, Segoe UI Emoji" font-size="22.13851552972506px" fill="#c2255c" text-anchor="middle" style="white-space: pre;" direction="ltr" dominant-baseline="alphabetic">increased load</text></g></svg>