<svg version="1.1" xmlns="http://www.w3.org/2000/svg" viewBox="0 0 1280.8188476562505 495" width="1280.8188476562505" height="495">
  <!-- svg-source:excalidraw -->
  
  <defs>
    <style class="style-fonts">
      @font-face {
        font-family: "Virgil";
        src: url("https://excalidraw.com/Virgil.woff2");
      }
      @font-face {
        font-family: "Cascadia";
        src: url("https://excalidraw.com/Cascadia.woff2");
      }
      @font-face {
        font-family: "Assistant";
        src: url("https://excalidraw.com/Assistant-Regular.woff2");
      }
    </style>
    
  </defs>
  <rect x="0" y="0" width="1280.8188476562505" height="495" fill="#ffffff"></rect><g stroke-linecap="round" transform="translate(444.40942382812545 10) rotate(0 196 63.5)"><path d="M31.75 0 C148.44 -2.51, 267.7 -0.23, 360.25 0 M31.75 0 C157.56 -1.11, 280.63 -1.79, 360.25 0 M360.25 0 C382.85 -1.13, 395.55 12.83, 392 31.75 M360.25 0 C379.47 -2.62, 395.83 14.06, 392 31.75 M392 31.75 C394.71 52.22, 393.59 68.01, 392 95.25 M392 31.75 C393.2 50.72, 389.75 67.51, 392 95.25 M392 95.25 C393.29 117.57, 383.2 127.23, 360.25 127 M392 95.25 C393.97 112.45, 382.12 130.85, 360.25 127 M360.25 127 C231.05 126.53, 99.26 125.9, 31.75 127 M360.25 127 C235.23 127.96, 107.21 126.96, 31.75 127 M31.75 127 C13.59 123.87, 1.33 119.76, 0 95.25 M31.75 127 C12.35 131.25, -3.69 115.16, 0 95.25 M0 95.25 C2.3 81.15, -3.68 63.4, 0 31.75 M0 95.25 C-2.07 74.51, -1.01 55.49, 0 31.75 M0 31.75 C3.25 10.51, 7.67 1.63, 31.75 0 M0 31.75 C0.14 6.12, 13.94 -4.23, 31.75 0" stroke="#e03131" stroke-width="4" fill="none"></path></g><g transform="translate(572.0994949340825 61) rotate(0 68.30992889404297 12.5)"><text x="68.30992889404297" y="17.52" font-family="Virgil, Segoe UI Emoji" font-size="20px" fill="#e03131" text-anchor="middle" style="white-space: pre;" direction="ltr" dominant-baseline="alphabetic">Sticky Session</text></g><g transform="translate(95.419921875 169) rotate(0 544.9895019531252 12.5)"><text x="0" y="17.52" font-family="Virgil, Segoe UI Emoji" font-size="20px" fill="#1971c2" text-anchor="start" style="white-space: pre;" direction="ltr" dominant-baseline="alphabetic">Sticky sessions, ensures that a user's requests are always directed to the same server during their session.</text></g><g transform="translate(10 280.5) rotate(0 324.43972778320335 12.5)"><text x="0" y="17.52" font-family="Virgil, Segoe UI Emoji" font-size="20px" fill="#1971c2" text-anchor="start" style="white-space: pre;" direction="ltr" dominant-baseline="alphabetic">-&gt; Target Group &gt; Actions &gt; Edit attributes &gt; Enable stickiness.</text></g><g transform="translate(10 332) rotate(0 541.5295410156252 25)"><text x="0" y="17.52" font-family="Virgil, Segoe UI Emoji" font-size="20px" fill="#1971c2" text-anchor="start" style="white-space: pre;" direction="ltr" dominant-baseline="alphabetic">-&gt; Typically achieved through cookies or session identifiers that the load balancers uses to route requests </text><text x="0" y="42.519999999999996" font-family="Virgil, Segoe UI Emoji" font-size="20px" fill="#1971c2" text-anchor="start" style="white-space: pre;" direction="ltr" dominant-baseline="alphabetic">    consistently to the same server.</text></g><g transform="translate(10 408.5) rotate(0 459.8096618652346 12.5)"><text x="0" y="17.52" font-family="Virgil, Segoe UI Emoji" font-size="20px" fill="#1971c2" text-anchor="start" style="white-space: pre;" direction="ltr" dominant-baseline="alphabetic">-&gt; Useful for applications where user state or session data is stored locally on the server.</text></g><g transform="translate(10 460) rotate(0 630.4094238281252 12.5)"><text x="0" y="17.52" font-family="Virgil, Segoe UI Emoji" font-size="20px" fill="#1971c2" text-anchor="start" style="white-space: pre;" direction="ltr" dominant-baseline="alphabetic">-&gt; Common in applications that require session consistency, such as shopping carts, user login sessions, or stateful applications</text></g><g transform="translate(10 229) rotate(0 562.8395996093752 12.5)"><text x="0" y="17.52" font-family="Virgil, Segoe UI Emoji" font-size="20px" fill="#1971c2" text-anchor="start" style="white-space: pre;" direction="ltr" dominant-baseline="alphabetic">-&gt; Ensures that all requests from a particular users are handled by the same server, maintaining session state.</text></g></svg>