<svg version="1.1" xmlns="http://www.w3.org/2000/svg" viewBox="0 0 1198.5 533.5" width="1198.5" height="533.5">
  <!-- svg-source:excalidraw -->
  
  <defs>
    <style class="style-fonts">
      @font-face {
        font-family: "Virgil";
        src: url("https://excalidraw.com/Virgil.woff2");
      }
      @font-face {
        font-family: "Cascadia";
        src: url("https://excalidraw.com/Cascadia.woff2");
      }
      @font-face {
        font-family: "Assistant";
        src: url("https://excalidraw.com/Assistant-Regular.woff2");
      }
    </style>
    
  </defs>
  <rect x="0" y="0" width="1198.5" height="533.5" fill="#ffffff"></rect><g stroke-linecap="round" transform="translate(10 10) rotate(0 584.25 48)"><path d="M24 0 C397.87 -4.58, 772.51 -2.52, 1144.5 0 M24 0 C321.07 6.25, 620.39 6.12, 1144.5 0 M1144.5 0 C1159.26 2.95, 1167.2 7.01, 1168.5 24 M1144.5 0 C1156.49 1.87, 1169.28 10.99, 1168.5 24 M1168.5 24 C1166.59 38.51, 1167 51.52, 1168.5 72 M1168.5 24 C1167.95 43.19, 1168 60.02, 1168.5 72 M1168.5 72 C1170.64 90.47, 1160.51 93.13, 1144.5 96 M1168.5 72 C1171.12 92.21, 1162.24 94.52, 1144.5 96 M1144.5 96 C859.23 87.68, 573.42 88.22, 24 96 M1144.5 96 C906.81 105.47, 669.35 104.84, 24 96 M24 96 C7.51 99.96, -2.38 90.78, 0 72 M24 96 C5.13 91.68, -4.37 92, 0 72 M0 72 C3.03 60.99, -2.61 46.23, 0 24 M0 72 C-0.46 56.44, 0.73 35.24, 0 24 M0 24 C3.48 8.54, 4.23 -1.6, 24 0 M0 24 C-1 4.57, 5.76 -0.46, 24 0" stroke="#1971c2" stroke-width="4" fill="none"></path></g><g transform="translate(431.16407775878906 32.5) rotate(0 163.08592224121094 17.5)"><text x="163.08592224121094" y="24.528" font-family="Virgil, Segoe UI Emoji" font-size="28px" fill="#1971c2" text-anchor="middle" style="white-space: pre;" direction="ltr" dominant-baseline="alphabetic">EC2 Purchasing Options</text></g><g stroke-linecap="round" transform="translate(15.999999999999773 125.5) rotate(0 101.50000000000003 199)"><path d="M32 0 C74.22 3.53, 109.01 3.89, 171 0 M32 0 C72.59 2.15, 111.17 2.08, 171 0 M171 0 C189.35 2.73, 203.42 11.52, 203 32 M171 0 C194.61 0.78, 199.14 12.87, 203 32 M203 32 C199.29 125, 202.56 222.27, 203 366 M203 32 C201.61 134.45, 201.51 236.49, 203 366 M203 366 C203.59 390.47, 194.97 401.45, 171 398 M203 366 C204.36 388.59, 188.89 401.3, 171 398 M171 398 C128.22 399.95, 91.26 402.26, 32 398 M171 398 C118.36 396.84, 65.66 395.05, 32 398 M32 398 C11.5 397.11, -1.91 383.62, 0 366 M32 398 C6.41 398.71, -1.77 391.52, 0 366 M0 366 C1.04 248.35, 0.28 135.46, 0 32 M0 366 C-2.37 236.26, -1.8 105.75, 0 32 M0 32 C2.08 7.81, 9.66 3.42, 32 0 M0 32 C4.07 9.24, 7.59 -3.41, 32 0" stroke="#f08c00" stroke-width="4" fill="none"></path></g><g stroke-linecap="round" transform="translate(261.4999999999997 125.5) rotate(0 101.50000000000003 199)"><path d="M32 0 C76.13 -3.62, 117.19 -1.14, 171 0 M32 0 C70.97 1.89, 105.33 0.34, 171 0 M171 0 C195.62 3.89, 199.6 7.16, 203 32 M171 0 C190.07 -1.4, 201.57 10.64, 203 32 M203 32 C201.29 153.31, 202.23 273.37, 203 366 M203 32 C199.39 148.58, 199.97 264.64, 203 366 M203 366 C206.44 387.1, 188.7 397.24, 171 398 M203 366 C200.5 384.11, 195.03 398.54, 171 398 M171 398 C136.69 395.88, 98.64 401.33, 32 398 M171 398 C126.46 396.23, 78.27 398.51, 32 398 M32 398 C11.36 397.67, 3.16 386.41, 0 366 M32 398 C12.03 401.99, -3.42 386.07, 0 366 M0 366 C-2.61 237.56, -6.4 106.36, 0 32 M0 366 C4.6 294.59, 3.55 221.21, 0 32 M0 32 C1.83 11.55, 11.8 1.36, 32 0 M0 32 C-2.56 7.09, 13.05 -1.86, 32 0" stroke="#2f9e44" stroke-width="4" fill="none"></path></g><g stroke-linecap="round" transform="translate(509.5 125.5) rotate(0 101.5 199)"><path d="M32 0 C71.9 3.45, 118.88 2.44, 171 0 M32 0 C66.96 2.86, 101.93 -0.4, 171 0 M171 0 C193.11 2.59, 203.5 12.25, 203 32 M171 0 C194.12 0.51, 203.28 6.98, 203 32 M203 32 C203.69 142.54, 208.08 253.23, 203 366 M203 32 C207.03 123.87, 207.62 216.79, 203 366 M203 366 C204.23 389.63, 190.8 394.09, 171 398 M203 366 C204.74 383.68, 194.95 398.68, 171 398 M171 398 C132.97 397.76, 103.38 395.05, 32 398 M171 398 C140.69 399.67, 112.3 397.03, 32 398 M32 398 C10.18 401.7, -2.13 390.61, 0 366 M32 398 C8.64 400.12, -2.6 390.03, 0 366 M0 366 C-6.39 270.19, -2.15 176.31, 0 32 M0 366 C-2.57 278.26, -2.91 193.12, 0 32 M0 32 C-0.92 14.44, 6.93 -0.39, 32 0 M0 32 C-3.19 14.81, 12.87 -2.4, 32 0" stroke="#6741d9" stroke-width="4" fill="none"></path></g><g stroke-linecap="round" transform="translate(758.5 125.5) rotate(0 101.5 199)"><path d="M32 0 C74.25 -4.59, 109.89 -0.53, 171 0 M32 0 C72.06 2.98, 112.9 1.39, 171 0 M171 0 C189.94 -3.09, 205.45 13.27, 203 32 M171 0 C193.78 1.47, 203.96 12.59, 203 32 M203 32 C200.47 132.06, 200.77 236.31, 203 366 M203 32 C203.29 158.91, 204.5 282.18, 203 366 M203 366 C205.73 384.9, 194.31 401.89, 171 398 M203 366 C200.49 382.92, 194.22 401.98, 171 398 M171 398 C138.54 396.3, 101.05 392.61, 32 398 M171 398 C118.14 396.28, 66.06 396.49, 32 398 M32 398 C14.16 398.39, -3.86 384.79, 0 366 M32 398 C6.49 395, 0.62 391.07, 0 366 M0 366 C-4.71 237.83, -3.4 108.43, 0 32 M0 366 C1.24 297.04, 0.89 229.11, 0 32 M0 32 C2.71 12.68, 7.04 0.76, 32 0 M0 32 C-3.34 11.96, 13.65 2, 32 0" stroke="#c2255c" stroke-width="4" fill="none"></path></g><g stroke-linecap="round" transform="translate(985.5 124.07142857142753) rotate(0 101.5 199)"><path d="M32 0 C58.85 -0.64, 90.04 -0.27, 171 0 M32 0 C81.91 1.4, 134.79 1.08, 171 0 M171 0 C193.15 -3.19, 206.61 12.09, 203 32 M171 0 C189.92 4.26, 199.21 8.07, 203 32 M203 32 C202.13 115.23, 201.76 196.34, 203 366 M203 32 C199.04 154.34, 200.06 276.5, 203 366 M203 366 C199.5 386.13, 192.17 396.09, 171 398 M203 366 C200.18 390.53, 193.67 398.61, 171 398 M171 398 C128.84 398.67, 87.23 396.05, 32 398 M171 398 C128.58 398.68, 84.72 398.08, 32 398 M32 398 C12.9 398.65, 2.36 383.98, 0 366 M32 398 C14.23 394.69, -4.55 391.62, 0 366 M0 366 C-1.69 239.51, 0.3 106.67, 0 32 M0 366 C-3.18 296.06, -5.22 225.97, 0 32 M0 32 C-0.14 10.18, 9.65 -0.13, 32 0 M0 32 C2.47 9.84, 9.13 -2.61, 32 0" stroke="#846358" stroke-width="4" fill="none"></path></g><g transform="translate(54.10669962565089 141.6111111111113) rotate(0 53.559967041015625 12.5)"><text x="53.559967041015625" y="17.52" font-family="Virgil, Segoe UI Emoji" font-size="20px" fill="#1e1e1e" text-anchor="middle" style="white-space: pre;" direction="ltr" dominant-baseline="alphabetic">On Demand</text></g><g transform="translate(29.64284812079501 213.27777777777737) rotate(0 8.959991455078125 12.5)"><text x="0" y="17.52" font-family="Virgil, Segoe UI Emoji" font-size="20px" fill="#f08c00" text-anchor="start" style="white-space: pre;" direction="ltr" dominant-baseline="alphabetic">-&gt;</text></g><g transform="translate(58.08617443508541 213.27777777777737) rotate(0 71.5799331665039 12.5)"><text x="0" y="17.52" font-family="Virgil, Segoe UI Emoji" font-size="20px" fill="#f08c00" text-anchor="start" style="white-space: pre;" direction="ltr" dominant-baseline="alphabetic">No Commitment</text></g><g transform="translate(29.64284812079501 294.1111111111113) rotate(0 8.959991455078125 12.5)"><text x="0" y="17.52" font-family="Virgil, Segoe UI Emoji" font-size="20px" fill="#f08c00" text-anchor="start" style="white-space: pre;" direction="ltr" dominant-baseline="alphabetic">-&gt;</text></g><g transform="translate(59.975063323974325 294.1111111111113) rotate(0 63.199951171875 25)"><text x="0" y="17.52" font-family="Virgil, Segoe UI Emoji" font-size="20px" fill="#f08c00" text-anchor="start" style="white-space: pre;" direction="ltr" dominant-baseline="alphabetic">Pay by hour </text><text x="0" y="42.519999999999996" font-family="Virgil, Segoe UI Emoji" font-size="20px" fill="#f08c00" text-anchor="start" style="white-space: pre;" direction="ltr" dominant-baseline="alphabetic">or seconds</text></g><g transform="translate(29.64284812079501 374.11111111111313) rotate(0 8.959991455078125 12.5)"><text x="0" y="17.52" font-family="Virgil, Segoe UI Emoji" font-size="20px" fill="#f08c00" text-anchor="start" style="white-space: pre;" direction="ltr" dominant-baseline="alphabetic">-&gt;</text></g><g transform="translate(56.975063323974325 374.11111111111313) rotate(0 48.12995910644531 25)"><text x="0" y="17.52" font-family="Virgil, Segoe UI Emoji" font-size="20px" fill="#f08c00" text-anchor="start" style="white-space: pre;" direction="ltr" dominant-baseline="alphabetic">Flexible </text><text x="0" y="42.519999999999996" font-family="Virgil, Segoe UI Emoji" font-size="20px" fill="#f08c00" text-anchor="start" style="white-space: pre;" direction="ltr" dominant-baseline="alphabetic">Workloads</text></g><g transform="translate(316.0489306979712 144.24999999999818) rotate(0 43.83995819091797 12.5)"><text x="43.83995819091797" y="17.52" font-family="Virgil, Segoe UI Emoji" font-size="20px" fill="#1e1e1e" text-anchor="middle" style="white-space: pre;" direction="ltr" dominant-baseline="alphabetic">Reserved</text></g><g transform="translate(281.86507034301763 215.91666666666606) rotate(0 8.959991455078125 12.5)"><text x="0" y="17.52" font-family="Virgil, Segoe UI Emoji" font-size="20px" fill="#2f9e44" text-anchor="start" style="white-space: pre;" direction="ltr" dominant-baseline="alphabetic">-&gt;</text></g><g transform="translate(310.30839665730804 215.91666666666606) rotate(0 60.919960021972685 12.5)"><text x="0" y="17.52" font-family="Virgil, Segoe UI Emoji" font-size="20px" fill="#2f9e44" text-anchor="start" style="white-space: pre;" direction="ltr" dominant-baseline="alphabetic">1 or 3 years</text></g><g transform="translate(281.86507034301763 296.7499999999982) rotate(0 8.959991455078125 12.5)"><text x="0" y="17.52" font-family="Virgil, Segoe UI Emoji" font-size="20px" fill="#2f9e44" text-anchor="start" style="white-space: pre;" direction="ltr" dominant-baseline="alphabetic">-&gt;</text></g><g transform="translate(312.19728554619695 296.7499999999982) rotate(0 53.13994598388675 25)"><text x="0" y="17.52" font-family="Virgil, Segoe UI Emoji" font-size="20px" fill="#2f9e44" text-anchor="start" style="white-space: pre;" direction="ltr" dominant-baseline="alphabetic">Discounted</text><text x="0" y="42.519999999999996" font-family="Virgil, Segoe UI Emoji" font-size="20px" fill="#2f9e44" text-anchor="start" style="white-space: pre;" direction="ltr" dominant-baseline="alphabetic">Pricing</text></g><g transform="translate(281.86507034301763 376.7500000000018) rotate(0 8.959991455078125 12.5)"><text x="0" y="17.52" font-family="Virgil, Segoe UI Emoji" font-size="20px" fill="#2f9e44" text-anchor="start" style="white-space: pre;" direction="ltr" dominant-baseline="alphabetic">-&gt;</text></g><g transform="translate(309.19728554619695 376.7500000000018) rotate(0 54.779945373535185 37.5)"><text x="0" y="17.52" font-family="Virgil, Segoe UI Emoji" font-size="20px" fill="#2f9e44" text-anchor="start" style="white-space: pre;" direction="ltr" dominant-baseline="alphabetic">Predictable</text><text x="0" y="42.519999999999996" font-family="Virgil, Segoe UI Emoji" font-size="20px" fill="#2f9e44" text-anchor="start" style="white-space: pre;" direction="ltr" dominant-baseline="alphabetic">workloads</text><text x="0" y="67.52" font-family="Virgil, Segoe UI Emoji" font-size="20px" fill="#2f9e44" text-anchor="start" style="white-space: pre;" direction="ltr" dominant-baseline="alphabetic"></text></g><g transform="translate(584.355581495497 143.13888888888687) rotate(0 22.199974060058594 12.5)"><text x="22.199974060058594" y="17.52" font-family="Virgil, Segoe UI Emoji" font-size="20px" fill="#1e1e1e" text-anchor="middle" style="white-space: pre;" direction="ltr" dominant-baseline="alphabetic">Spot</text></g><g transform="translate(528.5317370096841 214.80555555555475) rotate(0 8.959991455078125 12.5)"><text x="0" y="17.52" font-family="Virgil, Segoe UI Emoji" font-size="20px" fill="#6741d9" text-anchor="start" style="white-space: pre;" direction="ltr" dominant-baseline="alphabetic">-&gt;</text></g><g transform="translate(557.9750633239745 214.80555555555475) rotate(0 66.64994049072266 25)"><text x="0" y="17.52" font-family="Virgil, Segoe UI Emoji" font-size="20px" fill="#6741d9" text-anchor="start" style="white-space: pre;" direction="ltr" dominant-baseline="alphabetic">Bid for spare</text><text x="0" y="42.519999999999996" font-family="Virgil, Segoe UI Emoji" font-size="20px" fill="#6741d9" text-anchor="start" style="white-space: pre;" direction="ltr" dominant-baseline="alphabetic">capacity</text></g><g transform="translate(528.5317370096841 295.63888888888687) rotate(0 8.959991455078125 12.5)"><text x="0" y="17.52" font-family="Virgil, Segoe UI Emoji" font-size="20px" fill="#6741d9" text-anchor="start" style="white-space: pre;" direction="ltr" dominant-baseline="alphabetic">-&gt;</text></g><g transform="translate(558.8639522128634 295.63888888888687) rotate(0 65.52994537353516 12.5)"><text x="0" y="17.52" font-family="Virgil, Segoe UI Emoji" font-size="20px" fill="#6741d9" text-anchor="start" style="white-space: pre;" direction="ltr" dominant-baseline="alphabetic">Very low cost</text></g><g transform="translate(792.362267388238 142.02777777777374) rotate(0 60.859954833984375 12.5)"><text x="60.859954833984375" y="17.52" font-family="Virgil, Segoe UI Emoji" font-size="20px" fill="#1e1e1e" text-anchor="middle" style="white-space: pre;" direction="ltr" dominant-baseline="alphabetic">Saving Plans</text></g><g transform="translate(775.1984036763508 213.69444444444161) rotate(0 8.959991455078125 12.5)"><text x="0" y="17.52" font-family="Virgil, Segoe UI Emoji" font-size="20px" fill="#e03131" text-anchor="start" style="white-space: pre;" direction="ltr" dominant-baseline="alphabetic">-&gt;</text></g><g transform="translate(803.6417299906414 213.69444444444161) rotate(0 54.719947814941406 37.5)"><text x="0" y="17.52" font-family="Virgil, Segoe UI Emoji" font-size="20px" fill="#e03131" text-anchor="start" style="white-space: pre;" direction="ltr" dominant-baseline="alphabetic">Flexible, </text><text x="0" y="42.519999999999996" font-family="Virgil, Segoe UI Emoji" font-size="20px" fill="#e03131" text-anchor="start" style="white-space: pre;" direction="ltr" dominant-baseline="alphabetic">consistent </text><text x="0" y="67.52" font-family="Virgil, Segoe UI Emoji" font-size="20px" fill="#e03131" text-anchor="start" style="white-space: pre;" direction="ltr" dominant-baseline="alphabetic">usage</text></g><g transform="translate(775.1984036763508 294.52777777777374) rotate(0 8.959991455078125 12.5)"><text x="0" y="17.52" font-family="Virgil, Segoe UI Emoji" font-size="20px" fill="#e03131" text-anchor="start" style="white-space: pre;" direction="ltr" dominant-baseline="alphabetic">-&gt;</text></g><g transform="translate(805.5306188795303 294.52777777777374) rotate(0 49.199951171875 25)"><text x="0" y="17.52" font-family="Virgil, Segoe UI Emoji" font-size="20px" fill="#e03131" text-anchor="start" style="white-space: pre;" direction="ltr" dominant-baseline="alphabetic">Significant</text><text x="0" y="42.519999999999996" font-family="Virgil, Segoe UI Emoji" font-size="20px" fill="#e03131" text-anchor="start" style="white-space: pre;" direction="ltr" dominant-baseline="alphabetic">savings</text></g><g transform="translate(1005.331180996365 143.1388888888887) rotate(0 76.7799301147461 12.5)"><text x="76.7799301147461" y="17.52" font-family="Virgil, Segoe UI Emoji" font-size="20px" fill="#1e1e1e" text-anchor="middle" style="white-space: pre;" direction="ltr" dominant-baseline="alphabetic">Dedicated Host</text></g><g transform="translate(1004.0872925652395 214.80555555555293) rotate(0 8.959991455078125 12.5)"><text x="0" y="17.52" font-family="Virgil, Segoe UI Emoji" font-size="20px" fill="#846358" text-anchor="start" style="white-space: pre;" direction="ltr" dominant-baseline="alphabetic">-&gt;</text></g><g transform="translate(1032.53061887953 214.80555555555293) rotate(0 56.449951171875 12.5)"><text x="0" y="17.52" font-family="Virgil, Segoe UI Emoji" font-size="20px" fill="#846358" text-anchor="start" style="white-space: pre;" direction="ltr" dominant-baseline="alphabetic">Full Control</text></g><g transform="translate(1004.0872925652395 295.6388888888887) rotate(0 8.959991455078125 12.5)"><text x="0" y="17.52" font-family="Virgil, Segoe UI Emoji" font-size="20px" fill="#846358" text-anchor="start" style="white-space: pre;" direction="ltr" dominant-baseline="alphabetic">-&gt;</text></g><g transform="translate(1034.419507768419 295.6388888888887) rotate(0 49.88995361328125 25)"><text x="0" y="17.52" font-family="Virgil, Segoe UI Emoji" font-size="20px" fill="#846358" text-anchor="start" style="white-space: pre;" direction="ltr" dominant-baseline="alphabetic">Compliance</text><text x="0" y="42.519999999999996" font-family="Virgil, Segoe UI Emoji" font-size="20px" fill="#846358" text-anchor="start" style="white-space: pre;" direction="ltr" dominant-baseline="alphabetic">needs</text></g><g transform="translate(1004.0872925652395 375.6388888888887) rotate(0 8.959991455078125 12.5)"><text x="0" y="17.52" font-family="Virgil, Segoe UI Emoji" font-size="20px" fill="#846358" text-anchor="start" style="white-space: pre;" direction="ltr" dominant-baseline="alphabetic">-&gt;</text></g><g transform="translate(1031.419507768419 375.6388888888887) rotate(0 40.63996124267578 12.5)"><text x="0" y="17.52" font-family="Virgil, Segoe UI Emoji" font-size="20px" fill="#846358" text-anchor="start" style="white-space: pre;" direction="ltr" dominant-baseline="alphabetic">Licensing</text></g></svg>