<svg version="1.1" xmlns="http://www.w3.org/2000/svg" viewBox="0 0 844.019287109375 533.0000000000027" width="844.019287109375" height="533.0000000000027">
  <!-- svg-source:excalidraw -->
  
  <defs>
    <style class="style-fonts">
      @font-face {
        font-family: "Virgil";
        src: url("https://excalidraw.com/Virgil.woff2");
      }
      @font-face {
        font-family: "Cascadia";
        src: url("https://excalidraw.com/Cascadia.woff2");
      }
      @font-face {
        font-family: "Assistant";
        src: url("https://excalidraw.com/Assistant-Regular.woff2");
      }
    </style>
    
  </defs>
  <rect x="0" y="0" width="844.019287109375" height="533.0000000000027" fill="#ffffff"></rect><g stroke-linecap="round" transform="translate(238.0096435546875 10) rotate(0 184 61)"><path d="M30.5 0 C96.18 3.29, 162.44 7.09, 337.5 0 M30.5 0 C118.34 -3.53, 207.98 -2.69, 337.5 0 M337.5 0 C357.22 1.52, 364.82 6.76, 368 30.5 M337.5 0 C355.34 1.68, 370.6 12.57, 368 30.5 M368 30.5 C365.34 50.43, 368.55 73.66, 368 91.5 M368 30.5 C368.19 51.63, 366.86 76.53, 368 91.5 M368 91.5 C366.87 114.21, 355.77 119.33, 337.5 122 M368 91.5 C371.31 107.37, 353.96 124.94, 337.5 122 M337.5 122 C253.03 118.04, 166.18 117.06, 30.5 122 M337.5 122 C267.47 121.75, 197.49 122.63, 30.5 122 M30.5 122 C14.13 125.92, 1.55 111.06, 0 91.5 M30.5 122 C13.82 118.4, 3.72 107.37, 0 91.5 M0 91.5 C0.07 66.32, -3.1 45.39, 0 30.5 M0 91.5 C-0.65 76.57, 0.68 63.58, 0 30.5 M0 30.5 C2.78 6.41, 13.06 -1.3, 30.5 0 M0 30.5 C-3.22 5.92, 10.09 -2.94, 30.5 0" stroke="#6741d9" stroke-width="4" fill="none"></path></g><g transform="translate(325.1096954345703 58.5) rotate(0 96.89994812011719 12.5)"><text x="96.89994812011719" y="17.52" font-family="Virgil, Segoe UI Emoji" font-size="20px" fill="#6741d9" text-anchor="middle" style="white-space: pre;" direction="ltr" dominant-baseline="alphabetic">RDS vs DB on EC2</text></g><g transform="translate(10 174) rotate(0 412.0096435546875 12.5)"><text x="0" y="17.52" font-family="Virgil, Segoe UI Emoji" font-size="20px" fill="#6741d9" text-anchor="start" style="white-space: pre;" direction="ltr" dominant-baseline="alphabetic">* Managed Service so no need to maintain or worry about underlying configurations.</text></g><g transform="translate(10 220.28571428571468) rotate(0 124.70988464355469 12.5)"><text x="0" y="17.52" font-family="Virgil, Segoe UI Emoji" font-size="20px" fill="#6741d9" text-anchor="start" style="white-space: pre;" direction="ltr" dominant-baseline="alphabetic">* Automated Provisioning.</text></g><g transform="translate(10 266.57142857142935) rotate(0 166.23988342285156 12.5)"><text x="0" y="17.52" font-family="Virgil, Segoe UI Emoji" font-size="20px" fill="#6741d9" text-anchor="start" style="white-space: pre;" direction="ltr" dominant-baseline="alphabetic">* OS patching taken care by AWS</text></g><g transform="translate(10 312.857142857144) rotate(0 280.2097473144531 12.5)"><text x="0" y="17.52" font-family="Virgil, Segoe UI Emoji" font-size="20px" fill="#6741d9" text-anchor="start" style="white-space: pre;" direction="ltr" dominant-baseline="alphabetic">* Continuous backups and restore to specific timestamp.</text></g><g transform="translate(10 359.1428571428587) rotate(0 105.70990753173828 12.5)"><text x="0" y="17.52" font-family="Virgil, Segoe UI Emoji" font-size="20px" fill="#6741d9" text-anchor="start" style="white-space: pre;" direction="ltr" dominant-baseline="alphabetic">* Scaling Capabilities.</text></g><g transform="translate(10 405.4285714285734) rotate(0 135.64988708496094 12.5)"><text x="0" y="17.52" font-family="Virgil, Segoe UI Emoji" font-size="20px" fill="#6741d9" text-anchor="start" style="white-space: pre;" direction="ltr" dominant-baseline="alphabetic">* EBS is used for storage.</text></g><g transform="translate(10 498.00000000000273) rotate(0 239.49984741210938 12.5)"><text x="0" y="17.52" font-family="Virgil, Segoe UI Emoji" font-size="20px" fill="#e03131" text-anchor="start" style="white-space: pre;" direction="ltr" dominant-baseline="alphabetic">* SSH not available as it is a Managed Service.</text></g><g transform="translate(10 451.71428571428805) rotate(0 176.62985229492188 12.5)"><text x="0" y="17.52" font-family="Virgil, Segoe UI Emoji" font-size="20px" fill="#6741d9" text-anchor="start" style="white-space: pre;" direction="ltr" dominant-baseline="alphabetic">* Maintenance windows for updates.</text></g></svg>