<svg version="1.1" xmlns="http://www.w3.org/2000/svg" viewBox="0 0 1044.3585792352678 592.7877350070776" width="1044.3585792352678" height="592.7877350070776">
  <!-- svg-source:excalidraw -->
  
  <defs>
    <style class="style-fonts">
      @font-face {
        font-family: "Virgil";
        src: url("https://excalidraw.com/Virgil.woff2");
      }
      @font-face {
        font-family: "Cascadia";
        src: url("https://excalidraw.com/Cascadia.woff2");
      }
      @font-face {
        font-family: "Assistant";
        src: url("https://excalidraw.com/Assistant-Regular.woff2");
      }
    </style>
    
  </defs>
  <rect x="0" y="0" width="1044.3585792352678" height="592.7877350070776" fill="#ffffff"></rect><g stroke-linecap="round" transform="translate(256.3856827590862 10) rotate(0 265.7936068585475 53.761655829611755)"><path d="M26.88 0 C146.88 2.18, 268.05 3.93, 504.71 0 M26.88 0 C150.16 -3.64, 272.23 -3.98, 504.71 0 M504.71 0 C523.79 -0.45, 533.72 5.8, 531.59 26.88 M504.71 0 C521.09 -0.34, 534.82 10.16, 531.59 26.88 M531.59 26.88 C533.96 39.52, 528.94 57.44, 531.59 80.64 M531.59 26.88 C532.6 41.87, 530.86 52.21, 531.59 80.64 M531.59 80.64 C531.08 99.39, 521.66 106.03, 504.71 107.52 M531.59 80.64 C532.54 95.16, 524.47 104.53, 504.71 107.52 M504.71 107.52 C403.51 112.15, 299.21 111.5, 26.88 107.52 M504.71 107.52 C338.99 106.1, 174.06 106.36, 26.88 107.52 M26.88 107.52 C7.24 106.12, -0.49 99.1, 0 80.64 M26.88 107.52 C11.94 105.17, 0.47 94.45, 0 80.64 M0 80.64 C0.64 59.92, 2.41 38.27, 0 26.88 M0 80.64 C-0.73 69.22, -0.86 56.43, 0 26.88 M0 26.88 C2.42 7.6, 11.72 1.15, 26.88 0 M0 26.88 C4.54 11.99, 7.25 2.01, 26.88 0" stroke="#228be6" stroke-width="4" fill="none"></path></g><g transform="translate(456.06933478364954 51.2616558296113) rotate(0 66.10995483398438 12.5)"><text x="0" y="17.52" font-family="Virgil, Segoe UI Emoji" font-size="20px" fill="#228be6" text-anchor="start" style="white-space: pre;" direction="ltr" dominant-baseline="alphabetic">ALB Workflow</text></g><g stroke-linecap="round" transform="translate(359.73144654710586 184.8509927916357) rotate(0 98.04238576322496 198.96837110772094)"><path d="M2.35 0.01 C46.83 -0.62, 94.37 -1.14, 192.72 1.02 M0.61 1.55 C50.31 -1.13, 103.59 -2.52, 197.57 0.98 M194.1 1.85 C192.99 125.17, 194.86 246.86, 196.73 396.57 M195.67 -0.13 C191.63 158.33, 193.41 318.09, 197.14 398.53 M196.55 399.78 C134.85 392.86, 75.71 398.54, -2.67 399.06 M197.4 396.99 C118.23 401.11, 40.89 398.55, 0.57 398.84 M-0.51 399.84 C-0.9 273.89, 0.49 147.13, -1.13 -0.31 M1.08 398.51 C4.15 267.66, 4.41 136.63, -1.01 -0.81" stroke="#f08c00" stroke-width="4" fill="none"></path></g><g transform="translate(435.0239283743599 369.47153781240195) rotate(0 22.74990393597136 14.347826086956957)"><text x="0" y="20.109913043478258" font-family="Virgil, Segoe UI Emoji" font-size="22.95652173913043px" fill="#f08c00" text-anchor="start" style="white-space: pre;" direction="ltr" dominant-baseline="alphabetic">ALB</text></g><g stroke-linecap="round" transform="translate(689.6949801155215 201.06270705684437) rotate(0 171.01628963956864 59.32127546872562)"><path d="M29.66 0 C130.83 4.63, 237.94 3.73, 312.37 0 M29.66 0 C105.89 -1.6, 181.15 -1, 312.37 0 M312.37 0 C330.35 1.42, 342.27 9.01, 342.03 29.66 M312.37 0 C333.18 -1.4, 339.1 11.97, 342.03 29.66 M342.03 29.66 C338.69 46.81, 340.18 67.71, 342.03 88.98 M342.03 29.66 C343.39 48.09, 343.15 62.17, 342.03 88.98 M342.03 88.98 C343 109.44, 333.71 119.57, 312.37 118.64 M342.03 88.98 C342.68 109.42, 333.75 122.81, 312.37 118.64 M312.37 118.64 C235.35 119.3, 160.98 118.83, 29.66 118.64 M312.37 118.64 C246.63 120.11, 178.51 117.58, 29.66 118.64 M29.66 118.64 C12.84 118.71, -0.4 108.85, 0 88.98 M29.66 118.64 C9.67 118.47, 0.81 111.51, 0 88.98 M0 88.98 C-0.73 68.13, -1.54 54.5, 0 29.66 M0 88.98 C1.12 69.94, -0.38 45.39, 0 29.66 M0 29.66 C2.51 7.01, 6.38 1.15, 29.66 0 M0 29.66 C3.56 11.7, 10.59 -3.4, 29.66 0" stroke="#fd7e14" stroke-width="4" fill="none"></path></g><g transform="translate(708.0547562492593 215.58119906560023) rotate(0 150.64673197949014 10.636497512179176)"><text x="0" y="14.908114913070584" font-family="Virgil, Segoe UI Emoji" font-size="17.018396019486968px" fill="#fd7e14" text-anchor="start" style="white-space: pre;" direction="ltr" dominant-baseline="alphabetic">Target Group for Users application</text></g><g stroke-linecap="round" transform="translate(688.1163682111569 435.08369994198983) rotate(0 173.12110551205546 61.039660302122684)"><path d="M30.52 0 C126.37 0.17, 220.36 2.82, 315.72 0 M30.52 0 C139.76 -1.23, 250.49 -2.63, 315.72 0 M315.72 0 C336.03 -2.16, 347.25 11.55, 346.24 30.52 M315.72 0 C331.68 -2.06, 349.2 8.96, 346.24 30.52 M346.24 30.52 C343.3 46.99, 347.19 65.76, 346.24 91.56 M346.24 30.52 C344.49 44.24, 344.17 62.49, 346.24 91.56 M346.24 91.56 C347.98 112.74, 335.67 125.02, 315.72 122.08 M346.24 91.56 C350.04 110.59, 333.89 121.81, 315.72 122.08 M315.72 122.08 C242.48 118.88, 170.65 119.25, 30.52 122.08 M315.72 122.08 C241.09 124.05, 164.53 122.38, 30.52 122.08 M30.52 122.08 C12.25 120.78, 3.55 112.22, 0 91.56 M30.52 122.08 C12.44 123.36, 2.6 113.47, 0 91.56 M0 91.56 C0.58 69.25, -1.45 49.42, 0 30.52 M0 91.56 C2.02 77.72, 1.77 65.46, 0 30.52 M0 30.52 C-0.25 13.74, 11.61 2.59, 30.52 0 M0 30.52 C1.22 6.18, 13.32 3.7, 30.52 0" stroke="#fd7e14" stroke-width="4" fill="none"></path></g><g transform="translate(710.9719863707414 449.47443368106724) rotate(0 152.2752688788105 10.472859088915357)"><text x="0" y="14.678759299023334" font-family="Virgil, Segoe UI Emoji" font-size="16.75657454226408px" fill="#fd7e14" text-anchor="start" style="white-space: pre;" direction="ltr" dominant-baseline="alphabetic">Target Group for Search application</text></g><g stroke-opacity="0" fill-opacity="0" stroke-linecap="round" transform="translate(9.999999999999545 226.96140752683004) rotate(0 58.37866158183556 58.378661581835786)"><path d="M67.42 1.58 C76.08 2.31, 87.44 6.97, 94.69 12.16 C101.93 17.34, 107.19 24.5, 110.87 32.69 C114.56 40.87, 117.16 51.95, 116.79 61.27 C116.42 70.6, 113.08 80.91, 108.66 88.66 C104.23 96.41, 97.97 103.01, 90.26 107.79 C82.54 112.57, 71.48 116.49, 62.39 117.34 C53.31 118.19, 43.92 116.53, 35.75 112.89 C27.58 109.25, 19.14 102.72, 13.36 95.51 C7.58 88.3, 2.93 78.5, 1.06 69.64 C-0.81 60.78, -0.45 50.94, 2.16 42.34 C4.77 33.73, 10.5 24.55, 16.72 18.04 C22.95 11.53, 30.23 5.91, 39.51 3.27 C48.78 0.64, 66.29 2.09, 72.37 2.24 C78.45 2.38, 76.27 3.26, 75.97 4.12 M51.7 0.88 C60.02 -0.79, 71.1 1.35, 79.45 4.76 C87.8 8.16, 95.88 14.56, 101.81 21.34 C107.75 28.11, 112.88 36.74, 115.05 45.4 C117.22 54.06, 117.33 64.51, 114.86 73.31 C112.38 82.1, 106.6 91.37, 100.19 98.16 C93.79 104.95, 84.99 110.88, 76.44 114.04 C67.88 117.2, 57.5 118.42, 48.86 117.13 C40.21 115.85, 31.84 111.99, 24.58 106.34 C17.32 100.68, 9.21 91.39, 5.31 83.2 C1.41 75.01, 1.07 66.16, 1.17 57.2 C1.27 48.24, 1.64 37.47, 5.92 29.43 C10.2 21.39, 19.12 13.99, 26.86 8.97 C34.61 3.94, 48.09 0.76, 52.39 -0.72 C56.69 -2.19, 52.37 -1.1, 52.65 0.1" stroke="#1e1e1e" stroke-width="1" fill="none"></path></g><g stroke-linecap="round" transform="translate(35.28791457329089 234.55177632250798) rotate(0 32.857030380383776 32.857030380384)"><path d="M23.06 2.04 C28.74 -0.67, 36 -1.43, 42.01 0.43 C48.03 2.3, 55.23 7.8, 59.16 13.23 C63.09 18.66, 65.34 26.63, 65.61 33.01 C65.88 39.4, 64.5 46.27, 60.78 51.54 C57.06 56.81, 49.43 62.37, 43.28 64.65 C37.13 66.93, 29.92 67.15, 23.88 65.24 C17.85 63.32, 11.07 58.46, 7.08 53.16 C3.09 47.86, 0.19 39.85, -0.04 33.42 C-0.28 26.99, 0.82 20.07, 5.66 14.6 C10.51 9.13, 24.14 2.85, 29.02 0.61 C33.9 -1.63, 34.82 0.57, 34.93 1.16 M44.52 1.75 C50.31 3.48, 56.79 9.42, 60.14 14.92 C63.49 20.43, 65.03 28.31, 64.62 34.76 C64.21 41.22, 61.7 48.59, 57.69 53.64 C53.68 58.69, 46.66 63.46, 40.56 65.07 C34.47 66.67, 26.95 65.67, 21.14 63.27 C15.33 60.87, 9.36 55.96, 5.69 50.67 C2.02 45.39, -0.9 37.83, -0.89 31.56 C-0.88 25.3, 1.8 17.98, 5.77 13.09 C9.73 8.2, 16.38 3.94, 22.89 2.22 C29.39 0.5, 41.37 2.88, 44.77 2.78 C48.17 2.68, 43.37 1.19, 43.29 1.62" stroke="#1e1e1e" stroke-width="1" fill="none"></path></g><g stroke-linecap="round" transform="translate(49.997631337258554 235.19132922528934) rotate(0 18.06736950356867 32.457309816145425)"><path d="M24.44 1.38 C27.79 3.46, 32.25 10.98, 34.12 17.41 C35.98 23.85, 36.3 33.24, 35.64 40 C34.98 46.75, 33.26 53.65, 30.17 57.92 C27.08 62.19, 21.04 65.71, 17.11 65.64 C13.17 65.57, 9.31 62.22, 6.56 57.52 C3.81 52.82, 1.25 44.51, 0.61 37.46 C-0.04 30.4, 0.76 21.08, 2.7 15.19 C4.64 9.3, 8.36 4.08, 12.24 2.13 C16.12 0.17, 23.72 3.01, 25.98 3.47 C28.24 3.93, 25.89 4.36, 25.81 4.9 M24.61 1.72 C28.03 3.66, 32.02 10.48, 33.72 16.67 C35.41 22.86, 35.62 31.99, 34.78 38.85 C33.94 45.71, 31.65 53.41, 28.65 57.85 C25.65 62.29, 20.55 65.67, 16.78 65.5 C13.01 65.32, 8.78 61.48, 6.05 56.81 C3.33 52.15, 1.17 44.3, 0.42 37.51 C-0.33 30.73, -0.16 21.94, 1.55 16.1 C3.26 10.26, 7.05 4.67, 10.67 2.49 C14.29 0.3, 20.92 2.86, 23.26 3 C25.61 3.15, 24.78 3.19, 24.74 3.36" stroke="#1e1e1e" stroke-width="1" fill="none"></path></g><g stroke-linecap="round"><g transform="translate(67.9051126151312 234.3918880968131) rotate(0 0 32.617198041840766)"><path d="M0.92 1.14 C1.1 12.07, 0.63 54.05, 0.28 64.75 M-0.05 0.7 C0.06 11.86, -0.71 55.03, -0.52 66.04" stroke="#1e1e1e" stroke-width="1" fill="none"></path></g></g><mask></mask><g stroke-linecap="round"><g transform="translate(39.60489666706371 250.70048711773325) rotate(0 27.980439496677263 0)"><path d="M0.28 -0.48 C9.26 -0.65, 45.46 0.05, 54.78 0.12 M-1.03 -1.78 C8.21 -1.22, 47.44 1.23, 56.86 1.71" stroke="#1e1e1e" stroke-width="1" fill="none"></path></g></g><mask></mask><g stroke-linecap="round"><g transform="translate(40.48180374042522 284.4592379950782) rotate(0 27.980439496677263 0)"><path d="M-1.19 0.12 C8.13 0.18, 46.51 -0.3, 56.19 -0.12 M0.39 -0.87 C9.55 -0.57, 45.98 1.3, 55.36 1.35" stroke="#1e1e1e" stroke-width="1" fill="none"></path></g></g><mask></mask><g stroke-linecap="round"><g transform="translate(35.44896667565672 268.06748709449494) rotate(0 32.61661610350575 0)"><path d="M0.23 -0.12 C11.45 0.06, 55.36 1.22, 66.18 1.17 M-1.11 -1.23 C10.14 -1.36, 54.83 -0.66, 65.72 -0.33" stroke="#1e1e1e" stroke-width="1" fill="none"></path></g></g><mask></mask><g transform="translate(26.47582251043559 303.24093489294864) rotate(0 41.32996368408203 12.5)"><text x="41.32996368408203" y="17.52" font-family="Virgil, Segoe UI Emoji" font-size="20px" fill="#1e1e1e" text-anchor="middle" style="white-space: pre;" direction="ltr" dominant-baseline="alphabetic">Internet</text></g><g stroke-opacity="0" fill-opacity="0" stroke-linecap="round" transform="translate(9.999999999999545 452.05693847697876) rotate(0 58.37866158183556 58.37866158183533)"><path d="M45.26 1.75 C53.49 -1.27, 63.34 -1.23, 71.98 0.86 C80.63 2.94, 90.28 8.02, 97.15 14.29 C104.03 20.56, 110.07 30.06, 113.23 38.48 C116.39 46.89, 117.34 56.06, 116.09 64.76 C114.84 73.46, 110.69 83.21, 105.73 90.69 C100.77 98.18, 94.35 105.38, 86.32 109.65 C78.29 113.92, 66.7 116.29, 57.54 116.31 C48.39 116.32, 39.21 113.8, 31.39 109.73 C23.56 105.66, 15.63 99.28, 10.58 91.88 C5.52 84.47, 2.03 74.23, 1.05 65.33 C0.07 56.43, 1.75 46.98, 4.71 38.47 C7.67 29.95, 11.79 20.62, 18.8 14.23 C25.82 7.84, 41.46 2.12, 46.8 0.14 C52.14 -1.84, 50.48 1.21, 50.85 2.33 M57.32 1.12 C65.84 0.18, 76.54 3.86, 84.45 7.78 C92.36 11.69, 99.3 17.54, 104.78 24.59 C110.25 31.65, 115.85 40.91, 117.29 50.1 C118.73 59.29, 116.51 71.25, 113.43 79.75 C110.35 88.26, 105.68 95.06, 98.82 101.12 C91.97 107.18, 81.07 113.8, 72.32 116.13 C63.57 118.46, 55.26 117.58, 46.34 115.12 C37.42 112.65, 25.72 107.39, 18.8 101.32 C11.87 95.26, 8.01 87.08, 4.8 78.73 C1.59 70.37, -1.44 59.8, -0.47 51.2 C0.51 42.59, 5.36 34.69, 10.62 27.1 C15.88 19.51, 23.18 10.28, 31.09 5.67 C39 1.05, 53.61 0.23, 58.09 -0.59 C62.56 -1.41, 57.88 -0.45, 57.94 0.77" stroke="#1e1e1e" stroke-width="1" fill="none"></path></g><g stroke-linecap="round" transform="translate(35.28791457329089 459.6473072726567) rotate(0 32.857030380383776 32.85703038038355)"><path d="M32.84 -0.87 C38.83 -1.32, 47.24 1.96, 52.51 6.07 C57.79 10.19, 62.6 17.73, 64.47 23.83 C66.34 29.93, 65.95 36.85, 63.73 42.67 C61.51 48.49, 56.24 55, 51.17 58.76 C46.1 62.52, 39.76 65.24, 33.31 65.23 C26.86 65.22, 17.73 62.53, 12.46 58.71 C7.2 54.88, 3.45 48.28, 1.72 42.28 C-0.01 36.28, -0.06 28.74, 2.08 22.7 C4.22 16.66, 9.04 9.67, 14.57 6.04 C20.1 2.42, 31.94 1.89, 35.25 0.95 C38.56 0.01, 34.68 0.15, 34.41 0.39 M40.31 0.81 C46.21 1.83, 53.46 7.49, 57.6 12.54 C61.75 17.59, 64.71 24.68, 65.21 31.12 C65.7 37.56, 64.01 45.87, 60.55 51.19 C57.08 56.51, 50.09 60.85, 44.42 63.03 C38.74 65.22, 32.52 65.51, 26.49 64.29 C20.47 63.07, 12.47 60.55, 8.28 55.7 C4.09 50.86, 2.07 41.62, 1.36 35.2 C0.65 28.77, 0.69 22.6, 4.02 17.16 C7.35 11.71, 15.5 5.42, 21.31 2.5 C27.13 -0.41, 35.63 -0.02, 38.89 -0.35 C42.15 -0.68, 40.91 -0.09, 40.88 0.51" stroke="#1e1e1e" stroke-width="1" fill="none"></path></g><g stroke-linecap="round" transform="translate(49.997631337258554 460.28686017543805) rotate(0 18.06736950356867 32.457309816145425)"><path d="M18.81 -0.46 C22.62 -0.32, 27.67 4.55, 30.49 9.2 C33.31 13.84, 35.39 20.8, 35.76 27.42 C36.12 34.05, 34.58 43.02, 32.69 48.93 C30.81 54.85, 28.14 60.75, 24.44 62.93 C20.73 65.11, 14.15 64.62, 10.46 62 C6.77 59.37, 3.92 53.19, 2.3 47.17 C0.68 41.16, -0.15 32.62, 0.75 25.88 C1.65 19.15, 3.9 10.73, 7.71 6.76 C11.52 2.78, 20.68 2.5, 23.61 2.02 C26.54 1.54, 25.59 3.66, 25.27 3.88 M22.19 0.8 C25.67 1.96, 30.19 8.42, 32.44 14.16 C34.7 19.91, 36 28.31, 35.72 35.28 C35.45 42.26, 33.6 51.12, 30.81 56 C28.02 60.89, 22.59 64.09, 19 64.6 C15.41 65.12, 12.26 62.65, 9.26 59.09 C6.27 55.53, 2.12 49.87, 1.02 43.24 C-0.08 36.6, 1.31 25.67, 2.67 19.25 C4.04 12.84, 5.73 7.85, 9.19 4.76 C12.65 1.68, 21.51 1.48, 23.42 0.73 C25.34 -0.02, 20.84 -0.11, 20.69 0.27" stroke="#1e1e1e" stroke-width="1" fill="none"></path></g><g stroke-linecap="round"><g transform="translate(67.9051126151312 459.4874190469618) rotate(0 0 32.61719804184122)"><path d="M0.1 -0.6 C-0.08 10.12, -0.93 54.17, -1.05 65.19 M-1.3 1.71 C-1.12 12.55, 1.17 55.83, 1.11 66.7" stroke="#1e1e1e" stroke-width="1" fill="none"></path></g></g><mask></mask><g stroke-linecap="round"><g transform="translate(39.60489666706371 475.79601806788196) rotate(0 27.980439496677263 0)"><path d="M-1.05 -0.05 C8.16 0.1, 45.74 0.3, 55.38 0.26 M0.6 -1.12 C10.21 -1.3, 48.48 -2.06, 57.78 -1.72" stroke="#1e1e1e" stroke-width="1" fill="none"></path></g></g><mask></mask><g stroke-linecap="round"><g transform="translate(40.48180374042522 509.5547689452269) rotate(0 27.980439496677263 0)"><path d="M-0.58 0.26 C9.05 0.23, 47.5 -0.1, 56.77 -0.27 M1.31 -0.64 C10.95 -0.5, 46.89 0.99, 56.24 1.13" stroke="#1e1e1e" stroke-width="1" fill="none"></path></g></g><mask></mask><g stroke-linecap="round"><g transform="translate(35.44896667565581 493.16301804464274) rotate(0 32.61661610350575 0)"><path d="M0.81 -0.27 C11.62 -0.44, 53.74 -0.97, 64.29 -0.74 M-0.23 -1.46 C11 -1.51, 55.4 0.28, 66.5 0.41" stroke="#1e1e1e" stroke-width="1" fill="none"></path></g></g><mask></mask><g transform="translate(26.47582251043559 528.3364658430964) rotate(0 41.32996368408203 12.5)"><text x="41.32996368408203" y="17.52" font-family="Virgil, Segoe UI Emoji" font-size="20px" fill="#1e1e1e" text-anchor="middle" style="white-space: pre;" direction="ltr" dominant-baseline="alphabetic">Internet</text></g><g mask="url(#mask-Z5kU8IJvSC6FNnUBoXK_g)" stroke-linecap="round"><g transform="translate(107.56940134547722 266.24714460843006) rotate(0 123.60156386994868 0)"><path d="M-0.99 -2 C57.64 -1.12, 122.25 2.04, 249.11 -2.26 M-0.7 -0.48 C74.66 1.07, 151.07 1.13, 246.56 -1.38" stroke="#6741d9" stroke-width="4" fill="none"></path></g><g transform="translate(107.56940134547722 266.24714460843006) rotate(0 123.60156386994868 0)"><path d="M222.64 6.42 C227.16 4.88, 235.33 4.6, 247.73 -2.75 M222.82 7.34 C229.92 5.12, 237.68 2.41, 246.18 -2.22" stroke="#6741d9" stroke-width="4" fill="none"></path></g><g transform="translate(107.56940134547722 266.24714460843006) rotate(0 123.60156386994868 0)"><path d="M222.31 -10.68 C226.92 -8.03, 235.17 -4.12, 247.73 -2.75 M222.48 -9.76 C229.72 -6.77, 237.58 -4.26, 246.18 -2.22" stroke="#6741d9" stroke-width="4" fill="none"></path></g></g><mask id="mask-Z5kU8IJvSC6FNnUBoXK_g"><rect x="0" y="0" fill="#fff" width="454.7725290853746" height="366.24714460843006"></rect><rect x="210.46697809384386" y="256.24714460843006" fill="#000" width="41.40797424316406" height="20" opacity="1"></rect></mask><g transform="translate(210.46697809384386 256.24714460843006) rotate(0 21.163396393038738 9.176110082637479)"><text x="20.70398712158203" y="14.016" font-family="Virgil, Segoe UI Emoji" font-size="16px" fill="#6741d9" text-anchor="middle" style="white-space: pre;" direction="ltr" dominant-baseline="alphabetic">/user</text></g><g mask="url(#mask-hi-w6ijhjnR8nkyjHTbr6)" stroke-linecap="round"><g transform="translate(556.8162180735567 260.1070001744074) rotate(0 63.195004095743116 -0.15074830382263826)"><path d="M1.47 1.18 C54.43 -0.79, 99.27 -0.52, 127.69 0.91 M1.08 0.89 C40.02 0.7, 77.58 -2.59, 127.77 -0.79" stroke="#7950f2" stroke-width="4" fill="none"></path></g><g transform="translate(556.8162180735567 260.1070001744074) rotate(0 63.195004095743116 -0.15074830382263826)"><path d="M104.92 8.09 C115.55 4.49, 122.14 1.37, 128.42 -0.19 M104.73 7.94 C111.92 5.57, 118.41 1.4, 128.46 -1.04" stroke="#7950f2" stroke-width="4" fill="none"></path></g><g transform="translate(556.8162180735567 260.1070001744074) rotate(0 63.195004095743116 -0.15074830382263826)"><path d="M105.11 -9.01 C115.71 -5.77, 122.22 -2.06, 128.42 -0.19 M104.91 -9.16 C112.01 -6.22, 118.45 -5.09, 128.46 -1.04" stroke="#7950f2" stroke-width="4" fill="none"></path></g></g><mask id="mask-hi-w6ijhjnR8nkyjHTbr6"><rect x="0" y="0" fill="#fff" width="783.2062262650429" height="360.4084967820527"></rect><rect x="597.4512322401001" y="249.9562518705834" fill="#000" width="45.11997985839844" height="20" opacity="1"></rect></mask><g transform="translate(597.4512322401006 249.9562518705843) rotate(0 23.791043750941753 10.07787010133552)"><text x="22.55998992919922" y="14.016" font-family="Virgil, Segoe UI Emoji" font-size="16px" fill="#7950f2" text-anchor="middle" style="white-space: pre;" direction="ltr" dominant-baseline="alphabetic">HTTP</text></g><g mask="url(#mask-MRu9lmB6AYeUOwISPiPL4)" stroke-linecap="round"><g transform="translate(105.55961981913697 489.332894032239) rotate(0 126.58591336398445 -0.5023250530311998)"><path d="M-1.87 -2.55 C80.33 2.85, 164.26 0.54, 252.61 -1.76 M0.9 0.68 C80.09 2.18, 162.4 0.45, 252.41 0.43" stroke="#7950f2" stroke-width="4" fill="none"></path></g><g transform="translate(105.55961981913697 489.332894032239) rotate(0 126.58591336398445 -0.5023250530311998)"><path d="M227.8 7.51 C234.84 6.7, 242.93 2.63, 252.06 -0.03 M229.51 9.5 C236.18 6.52, 244.78 2.9, 251.94 1.32" stroke="#7950f2" stroke-width="4" fill="none"></path></g><g transform="translate(105.55961981913697 489.332894032239) rotate(0 126.58591336398445 -0.5023250530311998)"><path d="M227.73 -9.59 C234.77 -4.78, 242.89 -3.22, 252.06 -0.03 M229.44 -7.6 C236.15 -5.15, 244.77 -3.33, 251.94 1.32" stroke="#7950f2" stroke-width="4" fill="none"></path></g></g><mask id="mask-MRu9lmB6AYeUOwISPiPL4"><rect x="0" y="0" fill="#fff" width="458.73144654710586" height="590.3375441383014"></rect><rect x="202.68155155470322" y="478.8305689792069" fill="#000" width="58.92796325683594" height="20" opacity="1"></rect></mask><g transform="translate(202.68155155470322 478.8305689792069) rotate(0 28.24764593439727 9.872443092094727)"><text x="29.46398162841797" y="14.016" font-family="Virgil, Segoe UI Emoji" font-size="16px" fill="#7950f2" text-anchor="middle" style="white-space: pre;" direction="ltr" dominant-baseline="alphabetic">/search</text></g><g mask="url(#mask-N27NBVPlfEnITriA0kTXz)" stroke-linecap="round"><g transform="translate(559.981538160403 500.9557930403316) rotate(0 62.80567269814446 -0.8120811768039857)"><path d="M3.29 -0.47 C40.16 -0.28, 73.71 1.86, 126.62 0.76 M0.22 1.6 C49.86 1.09, 98.39 -1.78, 124.88 -3.55" stroke="#7950f2" stroke-width="4" fill="none"></path></g><g transform="translate(559.981538160403 500.9557930403316) rotate(0 62.80567269814446 -0.8120811768039857)"><path d="M103.61 6.19 C109.92 3.14, 114.58 1.43, 125.39 -2.36 M102.07 7.22 C111.42 3.24, 120.25 -1.74, 124.52 -4.51" stroke="#7950f2" stroke-width="4" fill="none"></path></g><g transform="translate(559.981538160403 500.9557930403316) rotate(0 62.80567269814446 -0.8120811768039857)"><path d="M102.56 -10.88 C109.21 -8.74, 114.19 -5.27, 125.39 -2.36 M101.02 -9.85 C110.86 -7.22, 120.1 -5.59, 124.52 -4.51" stroke="#7950f2" stroke-width="4" fill="none"></path></g></g><mask id="mask-N27NBVPlfEnITriA0kTXz"><rect x="0" y="0" fill="#fff" width="785.592883556692" height="602.5799553939396"></rect><rect x="600.2272209293487" y="490.14371186352764" fill="#000" width="45.11997985839844" height="20" opacity="1"></rect></mask><g transform="translate(600.2272209293483 490.14371186352764) rotate(0 23.169838305562735 9.834662906825542)"><text x="22.55998992919922" y="14.016" font-family="Virgil, Segoe UI Emoji" font-size="16px" fill="#7950f2" text-anchor="middle" style="white-space: pre;" direction="ltr" dominant-baseline="alphabetic">HTTP</text></g><g stroke-linecap="round" transform="translate(739.8011441021995 476.40713921443785) rotate(0 30.669253587886487 31.5162339364515)"><path d="M61.34 31.52 C61.34 33.34, 61.18 35.19, 60.87 36.99 C60.56 38.79, 60.1 40.58, 59.49 42.3 C58.88 44.01, 58.12 45.69, 57.23 47.27 C56.34 48.85, 55.3 50.38, 54.16 51.77 C53.02 53.17, 51.74 54.49, 50.38 55.66 C49.02 56.83, 47.54 57.9, 46 58.81 C44.47 59.72, 42.83 60.51, 41.16 61.13 C39.49 61.76, 37.74 62.24, 35.99 62.55 C34.25 62.87, 32.44 63.03, 30.67 63.03 C28.89 63.03, 27.09 62.87, 25.34 62.55 C23.6 62.24, 21.85 61.76, 20.18 61.13 C18.51 60.51, 16.87 59.72, 15.33 58.81 C13.8 57.9, 12.32 56.83, 10.96 55.66 C9.6 54.49, 8.32 53.17, 7.18 51.77 C6.03 50.38, 5 48.85, 4.11 47.27 C3.22 45.69, 2.46 44.01, 1.85 42.3 C1.24 40.58, 0.77 38.79, 0.47 36.99 C0.16 35.19, 0 33.34, 0 31.52 C0 29.69, 0.16 27.84, 0.47 26.04 C0.77 24.25, 1.24 22.45, 1.85 20.74 C2.46 19.02, 3.22 17.34, 4.11 15.76 C5 14.18, 6.03 12.66, 7.18 11.26 C8.32 9.86, 9.6 8.55, 10.96 7.37 C12.32 6.2, 13.8 5.13, 15.33 4.22 C16.87 3.31, 18.51 2.52, 20.18 1.9 C21.85 1.28, 23.6 0.8, 25.34 0.48 C27.09 0.16, 28.89 0, 30.67 0 C32.44 0, 34.25 0.16, 35.99 0.48 C37.74 0.8, 39.49 1.28, 41.16 1.9 C42.83 2.52, 44.47 3.31, 46 4.22 C47.54 5.13, 49.02 6.2, 50.38 7.37 C51.74 8.55, 53.02 9.86, 54.16 11.26 C55.3 12.66, 56.34 14.18, 57.23 15.76 C58.12 17.34, 58.88 19.02, 59.49 20.74 C60.1 22.45, 60.56 24.25, 60.87 26.04 C61.18 27.84, 61.26 30.6, 61.34 31.52 C61.42 32.43, 61.42 30.6, 61.34 31.52" stroke="none" stroke-width="0" fill="#fd7e14"></path><path d="M61.34 31.52 C61.34 33.34, 61.18 35.19, 60.87 36.99 C60.56 38.79, 60.1 40.58, 59.49 42.3 C58.88 44.01, 58.12 45.69, 57.23 47.27 C56.34 48.85, 55.3 50.38, 54.16 51.77 C53.02 53.17, 51.74 54.49, 50.38 55.66 C49.02 56.83, 47.54 57.9, 46 58.81 C44.47 59.72, 42.83 60.51, 41.16 61.13 C39.49 61.76, 37.74 62.24, 35.99 62.55 C34.25 62.87, 32.44 63.03, 30.67 63.03 C28.89 63.03, 27.09 62.87, 25.34 62.55 C23.6 62.24, 21.85 61.76, 20.18 61.13 C18.51 60.51, 16.87 59.72, 15.33 58.81 C13.8 57.9, 12.32 56.83, 10.96 55.66 C9.6 54.49, 8.32 53.17, 7.18 51.77 C6.03 50.38, 5 48.85, 4.11 47.27 C3.22 45.69, 2.46 44.01, 1.85 42.3 C1.24 40.58, 0.77 38.79, 0.47 36.99 C0.16 35.19, 0 33.34, 0 31.52 C0 29.69, 0.16 27.84, 0.47 26.04 C0.77 24.25, 1.24 22.45, 1.85 20.74 C2.46 19.02, 3.22 17.34, 4.11 15.76 C5 14.18, 6.03 12.66, 7.18 11.26 C8.32 9.86, 9.6 8.55, 10.96 7.37 C12.32 6.2, 13.8 5.13, 15.33 4.22 C16.87 3.31, 18.51 2.52, 20.18 1.9 C21.85 1.28, 23.6 0.8, 25.34 0.48 C27.09 0.16, 28.89 0, 30.67 0 C32.44 0, 34.25 0.16, 35.99 0.48 C37.74 0.8, 39.49 1.28, 41.16 1.9 C42.83 2.52, 44.47 3.31, 46 4.22 C47.54 5.13, 49.02 6.2, 50.38 7.37 C51.74 8.55, 53.02 9.86, 54.16 11.26 C55.3 12.66, 56.34 14.18, 57.23 15.76 C58.12 17.34, 58.88 19.02, 59.49 20.74 C60.1 22.45, 60.56 24.25, 60.87 26.04 C61.18 27.84, 61.26 30.6, 61.34 31.52 C61.42 32.43, 61.42 30.6, 61.34 31.52" stroke="#fd7e14" stroke-width="2" fill="none"></path></g><g stroke-linecap="round" transform="translate(757.0310083839722 487.4150287558514) rotate(0 12.49862213135907 13.424162693106155)"><path d="M6.25 0 C8.97 0, 11.68 0, 18.75 0 C22.91 0, 25 2.08, 25 6.25 C25 9.97, 25 13.68, 25 20.6 C25 24.77, 22.91 26.85, 18.75 26.85 C15.42 26.85, 12.1 26.85, 6.25 26.85 C2.08 26.85, 0 24.77, 0 20.6 C0 15.59, 0 10.59, 0 6.25 C0 2.08, 2.08 0, 6.25 0" stroke="none" stroke-width="0" fill="#fd7e14"></path><path d="M6.25 0 C10.6 0, 14.96 0, 18.75 0 M6.25 0 C8.77 0, 11.28 0, 18.75 0 M18.75 0 C22.91 0, 25 2.08, 25 6.25 M18.75 0 C22.91 0, 25 2.08, 25 6.25 M25 6.25 C25 11.8, 25 17.36, 25 20.6 M25 6.25 C25 11.02, 25 15.79, 25 20.6 M25 20.6 C25 24.77, 22.91 26.85, 18.75 26.85 M25 20.6 C25 24.77, 22.91 26.85, 18.75 26.85 M18.75 26.85 C14.6 26.85, 10.46 26.85, 6.25 26.85 M18.75 26.85 C15.55 26.85, 12.35 26.85, 6.25 26.85 M6.25 26.85 C2.08 26.85, 0 24.77, 0 20.6 M6.25 26.85 C2.08 26.85, 0 24.77, 0 20.6 M0 20.6 C0 15.59, 0 10.59, 0 6.25 M0 20.6 C0 16.1, 0 11.6, 0 6.25 M0 6.25 C0 2.08, 2.08 0, 6.25 0 M0 6.25 C0 2.08, 2.08 0, 6.25 0" stroke="#fff" stroke-width="2" fill="none"></path></g><g transform="translate(762.7036830600719 520.8372539755674) rotate(0 7.040785854861497 4.555802611968829)"><text x="0" y="7.276229057895126" font-family="Cascadia, Segoe UI Emoji" font-size="7.830938308450898px" fill="#fff" text-anchor="start" style="white-space: pre;" direction="ltr" dominant-baseline="alphabetic">EC2</text></g><g stroke-linecap="round" transform="translate(909.9545904257793 474.8998030696821) rotate(0 30.669253587886487 31.5162339364515)"><path d="M61.34 31.52 C61.34 33.34, 61.18 35.19, 60.87 36.99 C60.56 38.79, 60.1 40.58, 59.49 42.3 C58.88 44.01, 58.12 45.69, 57.23 47.27 C56.34 48.85, 55.3 50.38, 54.16 51.77 C53.02 53.17, 51.74 54.49, 50.38 55.66 C49.02 56.83, 47.54 57.9, 46 58.81 C44.47 59.72, 42.83 60.51, 41.16 61.13 C39.49 61.76, 37.74 62.24, 35.99 62.55 C34.25 62.87, 32.44 63.03, 30.67 63.03 C28.89 63.03, 27.09 62.87, 25.34 62.55 C23.6 62.24, 21.85 61.76, 20.18 61.13 C18.51 60.51, 16.87 59.72, 15.33 58.81 C13.8 57.9, 12.32 56.83, 10.96 55.66 C9.6 54.49, 8.32 53.17, 7.18 51.77 C6.03 50.38, 5 48.85, 4.11 47.27 C3.22 45.69, 2.46 44.01, 1.85 42.3 C1.24 40.58, 0.77 38.79, 0.47 36.99 C0.16 35.19, 0 33.34, 0 31.52 C0 29.69, 0.16 27.84, 0.47 26.04 C0.77 24.25, 1.24 22.45, 1.85 20.74 C2.46 19.02, 3.22 17.34, 4.11 15.76 C5 14.18, 6.03 12.66, 7.18 11.26 C8.32 9.86, 9.6 8.55, 10.96 7.37 C12.32 6.2, 13.8 5.13, 15.33 4.22 C16.87 3.31, 18.51 2.52, 20.18 1.9 C21.85 1.28, 23.6 0.8, 25.34 0.48 C27.09 0.16, 28.89 0, 30.67 0 C32.44 0, 34.25 0.16, 35.99 0.48 C37.74 0.8, 39.49 1.28, 41.16 1.9 C42.83 2.52, 44.47 3.31, 46 4.22 C47.54 5.13, 49.02 6.2, 50.38 7.37 C51.74 8.55, 53.02 9.86, 54.16 11.26 C55.3 12.66, 56.34 14.18, 57.23 15.76 C58.12 17.34, 58.88 19.02, 59.49 20.74 C60.1 22.45, 60.56 24.25, 60.87 26.04 C61.18 27.84, 61.26 30.6, 61.34 31.52 C61.42 32.43, 61.42 30.6, 61.34 31.52" stroke="none" stroke-width="0" fill="#fd7e14"></path><path d="M61.34 31.52 C61.34 33.34, 61.18 35.19, 60.87 36.99 C60.56 38.79, 60.1 40.58, 59.49 42.3 C58.88 44.01, 58.12 45.69, 57.23 47.27 C56.34 48.85, 55.3 50.38, 54.16 51.77 C53.02 53.17, 51.74 54.49, 50.38 55.66 C49.02 56.83, 47.54 57.9, 46 58.81 C44.47 59.72, 42.83 60.51, 41.16 61.13 C39.49 61.76, 37.74 62.24, 35.99 62.55 C34.25 62.87, 32.44 63.03, 30.67 63.03 C28.89 63.03, 27.09 62.87, 25.34 62.55 C23.6 62.24, 21.85 61.76, 20.18 61.13 C18.51 60.51, 16.87 59.72, 15.33 58.81 C13.8 57.9, 12.32 56.83, 10.96 55.66 C9.6 54.49, 8.32 53.17, 7.18 51.77 C6.03 50.38, 5 48.85, 4.11 47.27 C3.22 45.69, 2.46 44.01, 1.85 42.3 C1.24 40.58, 0.77 38.79, 0.47 36.99 C0.16 35.19, 0 33.34, 0 31.52 C0 29.69, 0.16 27.84, 0.47 26.04 C0.77 24.25, 1.24 22.45, 1.85 20.74 C2.46 19.02, 3.22 17.34, 4.11 15.76 C5 14.18, 6.03 12.66, 7.18 11.26 C8.32 9.86, 9.6 8.55, 10.96 7.37 C12.32 6.2, 13.8 5.13, 15.33 4.22 C16.87 3.31, 18.51 2.52, 20.18 1.9 C21.85 1.28, 23.6 0.8, 25.34 0.48 C27.09 0.16, 28.89 0, 30.67 0 C32.44 0, 34.25 0.16, 35.99 0.48 C37.74 0.8, 39.49 1.28, 41.16 1.9 C42.83 2.52, 44.47 3.31, 46 4.22 C47.54 5.13, 49.02 6.2, 50.38 7.37 C51.74 8.55, 53.02 9.86, 54.16 11.26 C55.3 12.66, 56.34 14.18, 57.23 15.76 C58.12 17.34, 58.88 19.02, 59.49 20.74 C60.1 22.45, 60.56 24.25, 60.87 26.04 C61.18 27.84, 61.26 30.6, 61.34 31.52 C61.42 32.43, 61.42 30.6, 61.34 31.52" stroke="#fd7e14" stroke-width="2" fill="none"></path></g><g stroke-linecap="round" transform="translate(927.1844547075516 485.90769261109745) rotate(0 12.498622131359298 13.424162693106155)"><path d="M6.25 0 C8.92 0, 11.6 0, 18.75 0 C22.91 0, 25 2.08, 25 6.25 C25 9.26, 25 12.27, 25 20.6 C25 24.77, 22.91 26.85, 18.75 26.85 C15.81 26.85, 12.87 26.85, 6.25 26.85 C2.08 26.85, 0 24.77, 0 20.6 C0 16.82, 0 13.03, 0 6.25 C0 2.08, 2.08 0, 6.25 0" stroke="none" stroke-width="0" fill="#fd7e14"></path><path d="M6.25 0 C9.36 0, 12.47 0, 18.75 0 M6.25 0 C9.08 0, 11.91 0, 18.75 0 M18.75 0 C22.91 0, 25 2.08, 25 6.25 M18.75 0 C22.91 0, 25 2.08, 25 6.25 M25 6.25 C25 10.56, 25 14.87, 25 20.6 M25 6.25 C25 11.62, 25 17, 25 20.6 M25 20.6 C25 24.77, 22.91 26.85, 18.75 26.85 M25 20.6 C25 24.77, 22.91 26.85, 18.75 26.85 M18.75 26.85 C15.1 26.85, 11.45 26.85, 6.25 26.85 M18.75 26.85 C14.31 26.85, 9.87 26.85, 6.25 26.85 M6.25 26.85 C2.08 26.85, 0 24.77, 0 20.6 M6.25 26.85 C2.08 26.85, 0 24.77, 0 20.6 M0 20.6 C0 17.1, 0 13.6, 0 6.25 M0 20.6 C0 14.94, 0 9.27, 0 6.25 M0 6.25 C0 2.08, 2.08 0, 6.25 0 M0 6.25 C0 2.08, 2.08 0, 6.25 0" stroke="#fff" stroke-width="2" fill="none"></path></g><g transform="translate(932.8571293836512 519.3299178308116) rotate(0 7.040785854861497 4.555802611968829)"><text x="0" y="7.276229057895126" font-family="Cascadia, Segoe UI Emoji" font-size="7.830938308450898px" fill="#fff" text-anchor="start" style="white-space: pre;" direction="ltr" dominant-baseline="alphabetic">EC2</text></g><g stroke-linecap="round" transform="translate(734.0987068709751 239.75536448783168) rotate(0 30.669253587886487 31.516233936451954)"><path d="M61.34 31.52 C61.34 33.34, 61.18 35.19, 60.87 36.99 C60.56 38.79, 60.1 40.58, 59.49 42.3 C58.88 44.01, 58.12 45.69, 57.23 47.27 C56.34 48.85, 55.3 50.38, 54.16 51.77 C53.02 53.17, 51.74 54.49, 50.38 55.66 C49.02 56.83, 47.54 57.9, 46 58.81 C44.47 59.72, 42.83 60.51, 41.16 61.13 C39.49 61.76, 37.74 62.24, 35.99 62.55 C34.25 62.87, 32.44 63.03, 30.67 63.03 C28.89 63.03, 27.09 62.87, 25.34 62.55 C23.6 62.24, 21.85 61.76, 20.18 61.13 C18.51 60.51, 16.87 59.72, 15.33 58.81 C13.8 57.9, 12.32 56.83, 10.96 55.66 C9.6 54.49, 8.32 53.17, 7.18 51.77 C6.03 50.38, 5 48.85, 4.11 47.27 C3.22 45.69, 2.46 44.01, 1.85 42.3 C1.24 40.58, 0.77 38.79, 0.47 36.99 C0.16 35.19, 0 33.34, 0 31.52 C0 29.69, 0.16 27.84, 0.47 26.04 C0.77 24.25, 1.24 22.45, 1.85 20.74 C2.46 19.02, 3.22 17.34, 4.11 15.76 C5 14.18, 6.03 12.66, 7.18 11.26 C8.32 9.86, 9.6 8.55, 10.96 7.37 C12.32 6.2, 13.8 5.13, 15.33 4.22 C16.87 3.31, 18.51 2.52, 20.18 1.9 C21.85 1.28, 23.6 0.8, 25.34 0.48 C27.09 0.16, 28.89 0, 30.67 0 C32.44 0, 34.25 0.16, 35.99 0.48 C37.74 0.8, 39.49 1.28, 41.16 1.9 C42.83 2.52, 44.47 3.31, 46 4.22 C47.54 5.13, 49.02 6.2, 50.38 7.37 C51.74 8.55, 53.02 9.86, 54.16 11.26 C55.3 12.66, 56.34 14.18, 57.23 15.76 C58.12 17.34, 58.88 19.02, 59.49 20.74 C60.1 22.45, 60.56 24.25, 60.87 26.04 C61.18 27.84, 61.26 30.6, 61.34 31.52 C61.42 32.43, 61.42 30.6, 61.34 31.52" stroke="none" stroke-width="0" fill="#fd7e14"></path><path d="M61.34 31.52 C61.34 33.34, 61.18 35.19, 60.87 36.99 C60.56 38.79, 60.1 40.58, 59.49 42.3 C58.88 44.01, 58.12 45.69, 57.23 47.27 C56.34 48.85, 55.3 50.38, 54.16 51.77 C53.02 53.17, 51.74 54.49, 50.38 55.66 C49.02 56.83, 47.54 57.9, 46 58.81 C44.47 59.72, 42.83 60.51, 41.16 61.13 C39.49 61.76, 37.74 62.24, 35.99 62.55 C34.25 62.87, 32.44 63.03, 30.67 63.03 C28.89 63.03, 27.09 62.87, 25.34 62.55 C23.6 62.24, 21.85 61.76, 20.18 61.13 C18.51 60.51, 16.87 59.72, 15.33 58.81 C13.8 57.9, 12.32 56.83, 10.96 55.66 C9.6 54.49, 8.32 53.17, 7.18 51.77 C6.03 50.38, 5 48.85, 4.11 47.27 C3.22 45.69, 2.46 44.01, 1.85 42.3 C1.24 40.58, 0.77 38.79, 0.47 36.99 C0.16 35.19, 0 33.34, 0 31.52 C0 29.69, 0.16 27.84, 0.47 26.04 C0.77 24.25, 1.24 22.45, 1.85 20.74 C2.46 19.02, 3.22 17.34, 4.11 15.76 C5 14.18, 6.03 12.66, 7.18 11.26 C8.32 9.86, 9.6 8.55, 10.96 7.37 C12.32 6.2, 13.8 5.13, 15.33 4.22 C16.87 3.31, 18.51 2.52, 20.18 1.9 C21.85 1.28, 23.6 0.8, 25.34 0.48 C27.09 0.16, 28.89 0, 30.67 0 C32.44 0, 34.25 0.16, 35.99 0.48 C37.74 0.8, 39.49 1.28, 41.16 1.9 C42.83 2.52, 44.47 3.31, 46 4.22 C47.54 5.13, 49.02 6.2, 50.38 7.37 C51.74 8.55, 53.02 9.86, 54.16 11.26 C55.3 12.66, 56.34 14.18, 57.23 15.76 C58.12 17.34, 58.88 19.02, 59.49 20.74 C60.1 22.45, 60.56 24.25, 60.87 26.04 C61.18 27.84, 61.26 30.6, 61.34 31.52 C61.42 32.43, 61.42 30.6, 61.34 31.52" stroke="#fd7e14" stroke-width="2" fill="none"></path></g><g stroke-linecap="round" transform="translate(751.3285711527474 250.7632540292434) rotate(0 12.49862213135907 13.424162693106155)"><path d="M6.25 0 C11 0, 15.76 0, 18.75 0 C22.91 0, 25 2.08, 25 6.25 C25 9.18, 25 12.12, 25 20.6 C25 24.77, 22.91 26.85, 18.75 26.85 C15.18 26.85, 11.61 26.85, 6.25 26.85 C2.08 26.85, 0 24.77, 0 20.6 C0 15.26, 0 9.92, 0 6.25 C0 2.08, 2.08 0, 6.25 0" stroke="none" stroke-width="0" fill="#fd7e14"></path><path d="M6.25 0 C10.79 0, 15.34 0, 18.75 0 M6.25 0 C11.07 0, 15.88 0, 18.75 0 M18.75 0 C22.91 0, 25 2.08, 25 6.25 M18.75 0 C22.91 0, 25 2.08, 25 6.25 M25 6.25 C25 9.88, 25 13.5, 25 20.6 M25 6.25 C25 10.49, 25 14.74, 25 20.6 M25 20.6 C25 24.77, 22.91 26.85, 18.75 26.85 M25 20.6 C25 24.77, 22.91 26.85, 18.75 26.85 M18.75 26.85 C16 26.85, 13.25 26.85, 6.25 26.85 M18.75 26.85 C14.71 26.85, 10.67 26.85, 6.25 26.85 M6.25 26.85 C2.08 26.85, 0 24.77, 0 20.6 M6.25 26.85 C2.08 26.85, 0 24.77, 0 20.6 M0 20.6 C0 16.04, 0 11.48, 0 6.25 M0 20.6 C0 17.05, 0 13.51, 0 6.25 M0 6.25 C0 2.08, 2.08 0, 6.25 0 M0 6.25 C0 2.08, 2.08 0, 6.25 0" stroke="#fff" stroke-width="2" fill="none"></path></g><g transform="translate(757.0012458288465 284.18547924895756) rotate(0 7.040785854861497 4.555802611969284)"><text x="0" y="7.276229057895126" font-family="Cascadia, Segoe UI Emoji" font-size="7.830938308450898px" fill="#fff" text-anchor="start" style="white-space: pre;" direction="ltr" dominant-baseline="alphabetic">EC2</text></g><g stroke-linecap="round" transform="translate(910.9594811889501 241.76514601417057) rotate(0 30.669253587886487 31.516233936451954)"><path d="M61.34 31.52 C61.34 33.34, 61.18 35.19, 60.87 36.99 C60.56 38.79, 60.1 40.58, 59.49 42.3 C58.88 44.01, 58.12 45.69, 57.23 47.27 C56.34 48.85, 55.3 50.38, 54.16 51.77 C53.02 53.17, 51.74 54.49, 50.38 55.66 C49.02 56.83, 47.54 57.9, 46 58.81 C44.47 59.72, 42.83 60.51, 41.16 61.13 C39.49 61.76, 37.74 62.24, 35.99 62.55 C34.25 62.87, 32.44 63.03, 30.67 63.03 C28.89 63.03, 27.09 62.87, 25.34 62.55 C23.6 62.24, 21.85 61.76, 20.18 61.13 C18.51 60.51, 16.87 59.72, 15.33 58.81 C13.8 57.9, 12.32 56.83, 10.96 55.66 C9.6 54.49, 8.32 53.17, 7.18 51.77 C6.03 50.38, 5 48.85, 4.11 47.27 C3.22 45.69, 2.46 44.01, 1.85 42.3 C1.24 40.58, 0.77 38.79, 0.47 36.99 C0.16 35.19, 0 33.34, 0 31.52 C0 29.69, 0.16 27.84, 0.47 26.04 C0.77 24.25, 1.24 22.45, 1.85 20.74 C2.46 19.02, 3.22 17.34, 4.11 15.76 C5 14.18, 6.03 12.66, 7.18 11.26 C8.32 9.86, 9.6 8.55, 10.96 7.37 C12.32 6.2, 13.8 5.13, 15.33 4.22 C16.87 3.31, 18.51 2.52, 20.18 1.9 C21.85 1.28, 23.6 0.8, 25.34 0.48 C27.09 0.16, 28.89 0, 30.67 0 C32.44 0, 34.25 0.16, 35.99 0.48 C37.74 0.8, 39.49 1.28, 41.16 1.9 C42.83 2.52, 44.47 3.31, 46 4.22 C47.54 5.13, 49.02 6.2, 50.38 7.37 C51.74 8.55, 53.02 9.86, 54.16 11.26 C55.3 12.66, 56.34 14.18, 57.23 15.76 C58.12 17.34, 58.88 19.02, 59.49 20.74 C60.1 22.45, 60.56 24.25, 60.87 26.04 C61.18 27.84, 61.26 30.6, 61.34 31.52 C61.42 32.43, 61.42 30.6, 61.34 31.52" stroke="none" stroke-width="0" fill="#fd7e14"></path><path d="M61.34 31.52 C61.34 33.34, 61.18 35.19, 60.87 36.99 C60.56 38.79, 60.1 40.58, 59.49 42.3 C58.88 44.01, 58.12 45.69, 57.23 47.27 C56.34 48.85, 55.3 50.38, 54.16 51.77 C53.02 53.17, 51.74 54.49, 50.38 55.66 C49.02 56.83, 47.54 57.9, 46 58.81 C44.47 59.72, 42.83 60.51, 41.16 61.13 C39.49 61.76, 37.74 62.24, 35.99 62.55 C34.25 62.87, 32.44 63.03, 30.67 63.03 C28.89 63.03, 27.09 62.87, 25.34 62.55 C23.6 62.24, 21.85 61.76, 20.18 61.13 C18.51 60.51, 16.87 59.72, 15.33 58.81 C13.8 57.9, 12.32 56.83, 10.96 55.66 C9.6 54.49, 8.32 53.17, 7.18 51.77 C6.03 50.38, 5 48.85, 4.11 47.27 C3.22 45.69, 2.46 44.01, 1.85 42.3 C1.24 40.58, 0.77 38.79, 0.47 36.99 C0.16 35.19, 0 33.34, 0 31.52 C0 29.69, 0.16 27.84, 0.47 26.04 C0.77 24.25, 1.24 22.45, 1.85 20.74 C2.46 19.02, 3.22 17.34, 4.11 15.76 C5 14.18, 6.03 12.66, 7.18 11.26 C8.32 9.86, 9.6 8.55, 10.96 7.37 C12.32 6.2, 13.8 5.13, 15.33 4.22 C16.87 3.31, 18.51 2.52, 20.18 1.9 C21.85 1.28, 23.6 0.8, 25.34 0.48 C27.09 0.16, 28.89 0, 30.67 0 C32.44 0, 34.25 0.16, 35.99 0.48 C37.74 0.8, 39.49 1.28, 41.16 1.9 C42.83 2.52, 44.47 3.31, 46 4.22 C47.54 5.13, 49.02 6.2, 50.38 7.37 C51.74 8.55, 53.02 9.86, 54.16 11.26 C55.3 12.66, 56.34 14.18, 57.23 15.76 C58.12 17.34, 58.88 19.02, 59.49 20.74 C60.1 22.45, 60.56 24.25, 60.87 26.04 C61.18 27.84, 61.26 30.6, 61.34 31.52 C61.42 32.43, 61.42 30.6, 61.34 31.52" stroke="#fd7e14" stroke-width="2" fill="none"></path></g><g stroke-linecap="round" transform="translate(928.1893454707224 252.77303555558228) rotate(0 12.498622131359298 13.424162693106155)"><path d="M6.25 0 C8.97 0, 11.7 0, 18.75 0 C22.91 0, 25 2.08, 25 6.25 C25 11.37, 25 16.48, 25 20.6 C25 24.77, 22.91 26.85, 18.75 26.85 C15.32 26.85, 11.89 26.85, 6.25 26.85 C2.08 26.85, 0 24.77, 0 20.6 C0 17.31, 0 14.01, 0 6.25 C0 2.08, 2.08 0, 6.25 0" stroke="none" stroke-width="0" fill="#fd7e14"></path><path d="M6.25 0 C10.77 0, 15.3 0, 18.75 0 M6.25 0 C9.63 0, 13 0, 18.75 0 M18.75 0 C22.91 0, 25 2.08, 25 6.25 M18.75 0 C22.91 0, 25 2.08, 25 6.25 M25 6.25 C25 10.88, 25 15.52, 25 20.6 M25 6.25 C25 9.14, 25 12.03, 25 20.6 M25 20.6 C25 24.77, 22.91 26.85, 18.75 26.85 M25 20.6 C25 24.77, 22.91 26.85, 18.75 26.85 M18.75 26.85 C14.46 26.85, 10.16 26.85, 6.25 26.85 M18.75 26.85 C16.11 26.85, 13.47 26.85, 6.25 26.85 M6.25 26.85 C2.08 26.85, 0 24.77, 0 20.6 M6.25 26.85 C2.08 26.85, 0 24.77, 0 20.6 M0 20.6 C0 16.39, 0 12.18, 0 6.25 M0 20.6 C0 15.13, 0 9.66, 0 6.25 M0 6.25 C0 2.08, 2.08 0, 6.25 0 M0 6.25 C0 2.08, 2.08 0, 6.25 0" stroke="#fff" stroke-width="2" fill="none"></path></g><g transform="translate(933.862020146822 286.1952607753001) rotate(0 7.040785854861497 4.555802611969284)"><text x="0" y="7.276229057895126" font-family="Cascadia, Segoe UI Emoji" font-size="7.830938308450898px" fill="#fff" text-anchor="start" style="white-space: pre;" direction="ltr" dominant-baseline="alphabetic">EC2</text></g></svg>