<svg version="1.1" xmlns="http://www.w3.org/2000/svg" viewBox="0 0 938.6554578480882 797.2395823508041" width="938.6554578480882" height="797.2395823508041">
  <!-- svg-source:excalidraw -->
  
  <defs>
    <style class="style-fonts">
      @font-face {
        font-family: "Virgil";
        src: url("https://excalidraw.com/Virgil.woff2");
      }
      @font-face {
        font-family: "Cascadia";
        src: url("https://excalidraw.com/Cascadia.woff2");
      }
      @font-face {
        font-family: "Assistant";
        src: url("https://excalidraw.com/Assistant-Regular.woff2");
      }
    </style>
    
  </defs>
  <rect x="0" y="0" width="938.6554578480882" height="797.2395823508041" fill="#ffffff"></rect><g stroke-linecap="round" transform="translate(211.8618853911703 10) rotate(0 257.4658435328736 60.75596307738988)"><path d="M30.38 0 C188.66 -2.26, 349.95 -2.71, 484.55 0 M30.38 0 C188.31 4.67, 346.15 3.66, 484.55 0 M484.55 0 C503.49 -0.14, 513.7 9.66, 514.93 30.38 M484.55 0 C505.43 1.03, 516.44 14.12, 514.93 30.38 M514.93 30.38 C515.75 45.03, 515.27 62.75, 514.93 91.13 M514.93 30.38 C513.17 45.69, 515.01 58.24, 514.93 91.13 M514.93 91.13 C514.27 107.69, 505.2 124.07, 484.55 121.51 M514.93 91.13 C511.26 107.87, 501.19 117.63, 484.55 121.51 M484.55 121.51 C331.31 118.76, 179.51 119.1, 30.38 121.51 M484.55 121.51 C369.34 122.1, 253.08 121.69, 30.38 121.51 M30.38 121.51 C11.35 121.03, -2.91 113.43, 0 91.13 M30.38 121.51 C10.12 121.52, -2.96 111.36, 0 91.13 M0 91.13 C1.11 72.26, 3.69 51.44, 0 30.38 M0 91.13 C-1.5 72.65, 0.9 54.93, 0 30.38 M0 30.38 C-0.41 9.37, 13.93 -0.33, 30.38 0 M0 30.38 C-0.62 11.25, 11.89 3.33, 30.38 0" stroke="#c2255c" stroke-width="4" fill="none"></path></g><g transform="translate(290.90983739954754 58.255963077390334) rotate(0 145.54991149902344 12.5)"><text x="0" y="17.52" font-family="Virgil, Segoe UI Emoji" font-size="20px" fill="#c2255c" text-anchor="start" style="white-space: pre;" direction="ltr" dominant-baseline="alphabetic">Elastic Load Balancing (ELB)</text></g><g transform="translate(34.958100017794095 160.39590860140652) rotate(0 434.36962890625 50)"><text x="0" y="17.52" font-family="Virgil, Segoe UI Emoji" font-size="20px" fill="#1971c2" text-anchor="start" style="white-space: pre;" direction="ltr" dominant-baseline="alphabetic">Elastic load balancing is AWS service that automatically distributes incoming traffic </text><text x="0" y="42.519999999999996" font-family="Virgil, Segoe UI Emoji" font-size="20px" fill="#1971c2" text-anchor="start" style="white-space: pre;" direction="ltr" dominant-baseline="alphabetic">across multiple targets, such as EC2 instances, containers, IP addresses.</text><text x="0" y="67.52" font-family="Virgil, Segoe UI Emoji" font-size="20px" fill="#1971c2" text-anchor="start" style="white-space: pre;" direction="ltr" dominant-baseline="alphabetic">This ensures that no single server becomes a bottleneck, improving the availability and </text><text x="0" y="92.52" font-family="Virgil, Segoe UI Emoji" font-size="20px" fill="#1971c2" text-anchor="start" style="white-space: pre;" direction="ltr" dominant-baseline="alphabetic">fault tolerance of your applications.</text></g><g stroke-linecap="round" transform="translate(614.0752006504308 35.52598375598427) rotate(0 28.556422953381343 28.556422953381116)"><path d="M0 0 C18.83 0, 37.65 0, 57.11 0 M0 0 C16.36 0, 32.71 0, 57.11 0 M57.11 0 C57.11 20.43, 57.11 40.86, 57.11 57.11 M57.11 0 C57.11 19.26, 57.11 38.53, 57.11 57.11 M57.11 57.11 C36.32 57.11, 15.54 57.11, 0 57.11 M57.11 57.11 C40.1 57.11, 23.09 57.11, 0 57.11 M0 57.11 C0 35.89, 0 14.66, 0 0 M0 57.11 C0 39.83, 0 22.55, 0 0" stroke="#1e1e1e" stroke-width="2" fill="none"></path></g><g stroke-linecap="round" transform="translate(619.3263860076945 50.94839066577333) rotate(0 13.607734922573172 13.6077349225734)"><path d="M27.22 13.61 C27.22 14.4, 27.15 15.2, 27.01 15.97 C26.87 16.75, 26.66 17.52, 26.39 18.26 C26.13 19, 25.79 19.73, 25.39 20.41 C25 21.09, 24.54 21.75, 24.03 22.35 C23.53 22.96, 22.96 23.53, 22.35 24.03 C21.75 24.54, 21.09 25, 20.41 25.39 C19.73 25.79, 19 26.13, 18.26 26.39 C17.52 26.66, 16.75 26.87, 15.97 27.01 C15.2 27.15, 14.4 27.22, 13.61 27.22 C12.82 27.22, 12.02 27.15, 11.24 27.01 C10.47 26.87, 9.69 26.66, 8.95 26.39 C8.21 26.13, 7.49 25.79, 6.8 25.39 C6.12 25, 5.46 24.54, 4.86 24.03 C4.26 23.53, 3.69 22.96, 3.18 22.35 C2.68 21.75, 2.22 21.09, 1.82 20.41 C1.43 19.73, 1.09 19, 0.82 18.26 C0.55 17.52, 0.34 16.75, 0.21 15.97 C0.07 15.2, 0 14.4, 0 13.61 C0 12.82, 0.07 12.02, 0.21 11.24 C0.34 10.47, 0.55 9.69, 0.82 8.95 C1.09 8.21, 1.43 7.49, 1.82 6.8 C2.22 6.12, 2.68 5.46, 3.18 4.86 C3.69 4.26, 4.26 3.69, 4.86 3.18 C5.46 2.68, 6.12 2.22, 6.8 1.82 C7.49 1.43, 8.21 1.09, 8.95 0.82 C9.69 0.55, 10.47 0.34, 11.24 0.21 C12.02 0.07, 12.82 0, 13.61 0 C14.4 0, 15.2 0.07, 15.97 0.21 C16.75 0.34, 17.52 0.55, 18.26 0.82 C19 1.09, 19.73 1.43, 20.41 1.82 C21.09 2.22, 21.75 2.68, 22.35 3.18 C22.96 3.69, 23.53 4.26, 24.03 4.86 C24.54 5.46, 25 6.12, 25.39 6.8 C25.79 7.49, 26.13 8.21, 26.39 8.95 C26.66 9.69, 26.87 10.47, 27.01 11.24 C27.15 12.02, 27.18 13.21, 27.22 13.61 C27.25 14, 27.25 13.21, 27.22 13.61" stroke="#000000" stroke-width="2" fill="none"></path></g><g stroke-linecap="round" transform="translate(653.6255946930387 46.221642592037824) rotate(0 4.107995448324118 4.107995448323891)"><path d="M8.22 4.11 C8.22 4.35, 8.19 4.59, 8.15 4.82 C8.11 5.06, 8.05 5.29, 7.97 5.51 C7.89 5.74, 7.78 5.96, 7.67 6.16 C7.55 6.37, 7.41 6.57, 7.25 6.75 C7.1 6.93, 6.93 7.1, 6.75 7.25 C6.57 7.41, 6.37 7.55, 6.16 7.67 C5.96 7.78, 5.74 7.89, 5.51 7.97 C5.29 8.05, 5.06 8.11, 4.82 8.15 C4.59 8.19, 4.35 8.22, 4.11 8.22 C3.87 8.22, 3.63 8.19, 3.39 8.15 C3.16 8.11, 2.93 8.05, 2.7 7.97 C2.48 7.89, 2.26 7.78, 2.05 7.67 C1.85 7.55, 1.65 7.41, 1.47 7.25 C1.29 7.1, 1.11 6.93, 0.96 6.75 C0.81 6.57, 0.67 6.37, 0.55 6.16 C0.43 5.96, 0.33 5.74, 0.25 5.51 C0.17 5.29, 0.1 5.06, 0.06 4.82 C0.02 4.59, 0 4.35, 0 4.11 C0 3.87, 0.02 3.63, 0.06 3.39 C0.1 3.16, 0.17 2.93, 0.25 2.7 C0.33 2.48, 0.43 2.26, 0.55 2.05 C0.67 1.85, 0.81 1.65, 0.96 1.47 C1.11 1.29, 1.29 1.11, 1.47 0.96 C1.65 0.81, 1.85 0.67, 2.05 0.55 C2.26 0.43, 2.48 0.33, 2.7 0.25 C2.93 0.17, 3.16 0.1, 3.39 0.06 C3.63 0.02, 3.87 0, 4.11 0 C4.35 0, 4.59 0.02, 4.82 0.06 C5.06 0.1, 5.29 0.17, 5.51 0.25 C5.74 0.33, 5.96 0.43, 6.16 0.55 C6.37 0.67, 6.57 0.81, 6.75 0.96 C6.93 1.11, 7.1 1.29, 7.25 1.47 C7.41 1.65, 7.55 1.85, 7.67 2.05 C7.78 2.26, 7.89 2.48, 7.97 2.7 C8.05 2.93, 8.11 3.16, 8.15 3.39 C8.19 3.63, 8.21 3.99, 8.22 4.11 C8.23 4.23, 8.23 3.99, 8.22 4.11" stroke="#000000" stroke-width="2" fill="none"></path></g><g stroke-linecap="round" transform="translate(653.7308478874102 74.56936449363457) rotate(0 4.107995448324118 4.107995448323891)"><path d="M8.22 4.11 C8.22 4.35, 8.19 4.59, 8.15 4.82 C8.11 5.06, 8.05 5.29, 7.97 5.51 C7.89 5.74, 7.78 5.96, 7.67 6.16 C7.55 6.37, 7.41 6.57, 7.25 6.75 C7.1 6.93, 6.93 7.1, 6.75 7.25 C6.57 7.41, 6.37 7.55, 6.16 7.67 C5.96 7.78, 5.74 7.89, 5.51 7.97 C5.29 8.05, 5.06 8.11, 4.82 8.15 C4.59 8.19, 4.35 8.22, 4.11 8.22 C3.87 8.22, 3.63 8.19, 3.39 8.15 C3.16 8.11, 2.93 8.05, 2.7 7.97 C2.48 7.89, 2.26 7.78, 2.05 7.67 C1.85 7.55, 1.65 7.41, 1.47 7.25 C1.29 7.1, 1.11 6.93, 0.96 6.75 C0.81 6.57, 0.67 6.37, 0.55 6.16 C0.43 5.96, 0.33 5.74, 0.25 5.51 C0.17 5.29, 0.1 5.06, 0.06 4.82 C0.02 4.59, 0 4.35, 0 4.11 C0 3.87, 0.02 3.63, 0.06 3.39 C0.1 3.16, 0.17 2.93, 0.25 2.7 C0.33 2.48, 0.43 2.26, 0.55 2.05 C0.67 1.85, 0.81 1.65, 0.96 1.47 C1.11 1.29, 1.29 1.11, 1.47 0.96 C1.65 0.81, 1.85 0.67, 2.05 0.55 C2.26 0.43, 2.48 0.33, 2.7 0.25 C2.93 0.17, 3.16 0.1, 3.39 0.06 C3.63 0.02, 3.87 0, 4.11 0 C4.35 0, 4.59 0.02, 4.82 0.06 C5.06 0.1, 5.29 0.17, 5.51 0.25 C5.74 0.33, 5.96 0.43, 6.16 0.55 C6.37 0.67, 6.57 0.81, 6.75 0.96 C6.93 1.11, 7.1 1.29, 7.25 1.47 C7.41 1.65, 7.55 1.85, 7.67 2.05 C7.78 2.26, 7.89 2.48, 7.97 2.7 C8.05 2.93, 8.11 3.16, 8.15 3.39 C8.19 3.63, 8.21 3.99, 8.22 4.11 C8.23 4.23, 8.23 3.99, 8.22 4.11" stroke="#000000" stroke-width="2" fill="none"></path></g><g stroke-linecap="round" transform="translate(657.8388433357318 59.16438156242202) rotate(0 4.107995448324118 4.107995448323891)"><path d="M8.22 4.11 C8.22 4.35, 8.19 4.59, 8.15 4.82 C8.11 5.06, 8.05 5.29, 7.97 5.51 C7.89 5.74, 7.78 5.96, 7.67 6.16 C7.55 6.37, 7.41 6.57, 7.25 6.75 C7.1 6.93, 6.93 7.1, 6.75 7.25 C6.57 7.41, 6.37 7.55, 6.16 7.67 C5.96 7.78, 5.74 7.89, 5.51 7.97 C5.29 8.05, 5.06 8.11, 4.82 8.15 C4.59 8.19, 4.35 8.22, 4.11 8.22 C3.87 8.22, 3.63 8.19, 3.39 8.15 C3.16 8.11, 2.93 8.05, 2.7 7.97 C2.48 7.89, 2.26 7.78, 2.05 7.67 C1.85 7.55, 1.65 7.41, 1.47 7.25 C1.29 7.1, 1.11 6.93, 0.96 6.75 C0.81 6.57, 0.67 6.37, 0.55 6.16 C0.43 5.96, 0.33 5.74, 0.25 5.51 C0.17 5.29, 0.1 5.06, 0.06 4.82 C0.02 4.59, 0 4.35, 0 4.11 C0 3.87, 0.02 3.63, 0.06 3.39 C0.1 3.16, 0.17 2.93, 0.25 2.7 C0.33 2.48, 0.43 2.26, 0.55 2.05 C0.67 1.85, 0.81 1.65, 0.96 1.47 C1.11 1.29, 1.29 1.11, 1.47 0.96 C1.65 0.81, 1.85 0.67, 2.05 0.55 C2.26 0.43, 2.48 0.33, 2.7 0.25 C2.93 0.17, 3.16 0.1, 3.39 0.06 C3.63 0.02, 3.87 0, 4.11 0 C4.35 0, 4.59 0.02, 4.82 0.06 C5.06 0.1, 5.29 0.17, 5.51 0.25 C5.74 0.33, 5.96 0.43, 6.16 0.55 C6.37 0.67, 6.57 0.81, 6.75 0.96 C6.93 1.11, 7.1 1.29, 7.25 1.47 C7.41 1.65, 7.55 1.85, 7.67 2.05 C7.78 2.26, 7.89 2.48, 7.97 2.7 C8.05 2.93, 8.11 3.16, 8.15 3.39 C8.19 3.63, 8.21 3.99, 8.22 4.11 C8.23 4.23, 8.23 3.99, 8.22 4.11" stroke="#000000" stroke-width="2" fill="none"></path></g><g stroke-linecap="round"><g transform="translate(647.0553552838815 64.2993758728262) rotate(0 5.134994310405091 0)"><path d="M0 0 C1.71 0, 8.56 0, 10.27 0 M0 0 C1.71 0, 8.56 0, 10.27 0" stroke="#000000" stroke-width="2" fill="none"></path></g></g><mask></mask><g stroke-linecap="round"><g transform="translate(643.8691055032682 75.08286392467653) rotate(23.749494492867285 5.134994310405091 0)"><path d="M0 0 C1.71 0, 8.56 0, 10.27 0 M0 0 C1.71 0, 8.56 0, 10.27 0" stroke="#000000" stroke-width="2" fill="none"></path></g></g><mask></mask><g stroke-linecap="round"><g transform="translate(643.8691055032687 53.62114101534735) rotate(338.0702750671431 5.134994310405091 0)"><path d="M0 0 C1.71 0, 8.56 0, 10.27 0 M0 0 C1.71 0, 8.56 0, 10.27 0" stroke="#000000" stroke-width="2" fill="none"></path></g></g><mask></mask><g transform="translate(624.6414851553996 96.87630963475021) rotate(0 17.551354583816874 10.530812750290352)"><text x="0" y="14.497418886232825" font-family="Virgil, Segoe UI Emoji" font-size="17.55135458381698px" fill="#000000" text-anchor="start" style="white-space: pre;" direction="ltr" dominant-baseline="alphabetic">ELB</text></g><g transform="translate(269.9558420196522 300.83182325570124) rotate(0 165.30987548828125 12.5)"><text x="0" y="17.52" font-family="Virgil, Segoe UI Emoji" font-size="20px" fill="#1971c2" text-anchor="start" style="white-space: pre;" direction="ltr" dominant-baseline="alphabetic">Types of Elastic Load Balancers</text></g><g stroke-linecap="round" transform="translate(86.19261846409518 512.4833416719594) rotate(0 26.57325490300309 26.57325490300309)"><path d="M0 0 C19.47 0, 38.93 0, 53.15 0 M0 0 C16.52 0, 33.03 0, 53.15 0 M53.15 0 C53.15 17.64, 53.15 35.27, 53.15 53.15 M53.15 0 C53.15 17.15, 53.15 34.3, 53.15 53.15 M53.15 53.15 C37.45 53.15, 21.75 53.15, 0 53.15 M53.15 53.15 C40.53 53.15, 27.91 53.15, 0 53.15 M0 53.15 C0 34.32, 0 15.48, 0 0 M0 53.15 C0 40.3, 0 27.46, 0 0" stroke="#1e1e1e" stroke-width="2" fill="none"></path></g><g stroke-linecap="round" transform="translate(91.07912288621083 526.8347032098063) rotate(0 12.662713720844977 12.662713720845204)"><path d="M25.33 12.66 C25.33 13.4, 25.26 14.14, 25.13 14.86 C25.01 15.58, 24.81 16.3, 24.56 16.99 C24.31 17.68, 24 18.36, 23.63 18.99 C23.26 19.63, 22.83 20.24, 22.36 20.8 C21.89 21.36, 21.36 21.89, 20.8 22.36 C20.24 22.83, 19.63 23.26, 18.99 23.63 C18.36 24, 17.68 24.31, 16.99 24.56 C16.3 24.81, 15.58 25.01, 14.86 25.13 C14.14 25.26, 13.4 25.33, 12.66 25.33 C11.93 25.33, 11.19 25.26, 10.46 25.13 C9.74 25.01, 9.02 24.81, 8.33 24.56 C7.64 24.31, 6.97 24, 6.33 23.63 C5.7 23.26, 5.08 22.83, 4.52 22.36 C3.96 21.89, 3.43 21.36, 2.96 20.8 C2.49 20.24, 2.06 19.63, 1.7 18.99 C1.33 18.36, 1.01 17.68, 0.76 16.99 C0.51 16.3, 0.32 15.58, 0.19 14.86 C0.07 14.14, 0 13.4, 0 12.66 C0 11.93, 0.07 11.19, 0.19 10.46 C0.32 9.74, 0.51 9.02, 0.76 8.33 C1.01 7.64, 1.33 6.97, 1.7 6.33 C2.06 5.7, 2.49 5.08, 2.96 4.52 C3.43 3.96, 3.96 3.43, 4.52 2.96 C5.08 2.49, 5.7 2.06, 6.33 1.7 C6.97 1.33, 7.64 1.01, 8.33 0.76 C9.02 0.51, 9.74 0.32, 10.46 0.19 C11.19 0.07, 11.93 0, 12.66 0 C13.4 0, 14.14 0.07, 14.86 0.19 C15.58 0.32, 16.3 0.51, 16.99 0.76 C17.68 1.01, 18.36 1.33, 18.99 1.7 C19.63 2.06, 20.24 2.49, 20.8 2.96 C21.36 3.43, 21.89 3.96, 22.36 4.52 C22.83 5.08, 23.26 5.7, 23.63 6.33 C24 6.97, 24.31 7.64, 24.56 8.33 C24.81 9.02, 25.01 9.74, 25.13 10.46 C25.26 11.19, 25.29 12.3, 25.33 12.66 C25.36 13.03, 25.36 12.3, 25.33 12.66" stroke="#000000" stroke-width="2" fill="none"></path></g><g stroke-linecap="round" transform="translate(122.99634224015017 522.436215288868) rotate(0 3.8227060289343626 3.82270602893459)"><path d="M7.65 3.82 C7.65 4.04, 7.63 4.27, 7.59 4.49 C7.55 4.7, 7.49 4.92, 7.41 5.13 C7.34 5.34, 7.24 5.54, 7.13 5.73 C7.02 5.93, 6.89 6.11, 6.75 6.28 C6.61 6.45, 6.45 6.61, 6.28 6.75 C6.11 6.89, 5.93 7.02, 5.73 7.13 C5.54 7.24, 5.34 7.34, 5.13 7.41 C4.92 7.49, 4.7 7.55, 4.49 7.59 C4.27 7.63, 4.04 7.65, 3.82 7.65 C3.6 7.65, 3.38 7.63, 3.16 7.59 C2.94 7.55, 2.72 7.49, 2.52 7.41 C2.31 7.34, 2.1 7.24, 1.91 7.13 C1.72 7.02, 1.54 6.89, 1.37 6.75 C1.2 6.61, 1.04 6.45, 0.89 6.28 C0.75 6.11, 0.62 5.93, 0.51 5.73 C0.4 5.54, 0.31 5.34, 0.23 5.13 C0.15 4.92, 0.1 4.7, 0.06 4.49 C0.02 4.27, 0 4.04, 0 3.82 C0 3.6, 0.02 3.38, 0.06 3.16 C0.1 2.94, 0.15 2.72, 0.23 2.52 C0.31 2.31, 0.4 2.1, 0.51 1.91 C0.62 1.72, 0.75 1.54, 0.89 1.37 C1.04 1.2, 1.2 1.04, 1.37 0.89 C1.54 0.75, 1.72 0.62, 1.91 0.51 C2.1 0.4, 2.31 0.31, 2.52 0.23 C2.72 0.15, 2.94 0.1, 3.16 0.06 C3.38 0.02, 3.6 0, 3.82 0 C4.04 0, 4.27 0.02, 4.49 0.06 C4.7 0.1, 4.92 0.15, 5.13 0.23 C5.34 0.31, 5.54 0.4, 5.73 0.51 C5.93 0.62, 6.11 0.75, 6.28 0.89 C6.45 1.04, 6.61 1.2, 6.75 1.37 C6.89 1.54, 7.02 1.72, 7.13 1.91 C7.24 2.1, 7.34 2.31, 7.41 2.52 C7.49 2.72, 7.55 2.94, 7.59 3.16 C7.63 3.38, 7.64 3.71, 7.65 3.82 C7.66 3.93, 7.66 3.71, 7.65 3.82" stroke="#000000" stroke-width="2" fill="none"></path></g><g stroke-linecap="round" transform="translate(123.09428587853745 548.8152628761773) rotate(0 3.8227060289343626 3.82270602893459)"><path d="M7.65 3.82 C7.65 4.04, 7.63 4.27, 7.59 4.49 C7.55 4.7, 7.49 4.92, 7.41 5.13 C7.34 5.34, 7.24 5.54, 7.13 5.73 C7.02 5.93, 6.89 6.11, 6.75 6.28 C6.61 6.45, 6.45 6.61, 6.28 6.75 C6.11 6.89, 5.93 7.02, 5.73 7.13 C5.54 7.24, 5.34 7.34, 5.13 7.41 C4.92 7.49, 4.7 7.55, 4.49 7.59 C4.27 7.63, 4.04 7.65, 3.82 7.65 C3.6 7.65, 3.38 7.63, 3.16 7.59 C2.94 7.55, 2.72 7.49, 2.52 7.41 C2.31 7.34, 2.1 7.24, 1.91 7.13 C1.72 7.02, 1.54 6.89, 1.37 6.75 C1.2 6.61, 1.04 6.45, 0.89 6.28 C0.75 6.11, 0.62 5.93, 0.51 5.73 C0.4 5.54, 0.31 5.34, 0.23 5.13 C0.15 4.92, 0.1 4.7, 0.06 4.49 C0.02 4.27, 0 4.04, 0 3.82 C0 3.6, 0.02 3.38, 0.06 3.16 C0.1 2.94, 0.15 2.72, 0.23 2.52 C0.31 2.31, 0.4 2.1, 0.51 1.91 C0.62 1.72, 0.75 1.54, 0.89 1.37 C1.04 1.2, 1.2 1.04, 1.37 0.89 C1.54 0.75, 1.72 0.62, 1.91 0.51 C2.1 0.4, 2.31 0.31, 2.52 0.23 C2.72 0.15, 2.94 0.1, 3.16 0.06 C3.38 0.02, 3.6 0, 3.82 0 C4.04 0, 4.27 0.02, 4.49 0.06 C4.7 0.1, 4.92 0.15, 5.13 0.23 C5.34 0.31, 5.54 0.4, 5.73 0.51 C5.93 0.62, 6.11 0.75, 6.28 0.89 C6.45 1.04, 6.61 1.2, 6.75 1.37 C6.89 1.54, 7.02 1.72, 7.13 1.91 C7.24 2.1, 7.34 2.31, 7.41 2.52 C7.49 2.72, 7.55 2.94, 7.59 3.16 C7.63 3.38, 7.64 3.71, 7.65 3.82 C7.66 3.93, 7.66 3.71, 7.65 3.82" stroke="#000000" stroke-width="2" fill="none"></path></g><g stroke-linecap="round" transform="translate(126.91699190747022 534.4801152676773) rotate(0 3.8227060289343626 3.82270602893459)"><path d="M7.65 3.82 C7.65 4.04, 7.63 4.27, 7.59 4.49 C7.55 4.7, 7.49 4.92, 7.41 5.13 C7.34 5.34, 7.24 5.54, 7.13 5.73 C7.02 5.93, 6.89 6.11, 6.75 6.28 C6.61 6.45, 6.45 6.61, 6.28 6.75 C6.11 6.89, 5.93 7.02, 5.73 7.13 C5.54 7.24, 5.34 7.34, 5.13 7.41 C4.92 7.49, 4.7 7.55, 4.49 7.59 C4.27 7.63, 4.04 7.65, 3.82 7.65 C3.6 7.65, 3.38 7.63, 3.16 7.59 C2.94 7.55, 2.72 7.49, 2.52 7.41 C2.31 7.34, 2.1 7.24, 1.91 7.13 C1.72 7.02, 1.54 6.89, 1.37 6.75 C1.2 6.61, 1.04 6.45, 0.89 6.28 C0.75 6.11, 0.62 5.93, 0.51 5.73 C0.4 5.54, 0.31 5.34, 0.23 5.13 C0.15 4.92, 0.1 4.7, 0.06 4.49 C0.02 4.27, 0 4.04, 0 3.82 C0 3.6, 0.02 3.38, 0.06 3.16 C0.1 2.94, 0.15 2.72, 0.23 2.52 C0.31 2.31, 0.4 2.1, 0.51 1.91 C0.62 1.72, 0.75 1.54, 0.89 1.37 C1.04 1.2, 1.2 1.04, 1.37 0.89 C1.54 0.75, 1.72 0.62, 1.91 0.51 C2.1 0.4, 2.31 0.31, 2.52 0.23 C2.72 0.15, 2.94 0.1, 3.16 0.06 C3.38 0.02, 3.6 0, 3.82 0 C4.04 0, 4.27 0.02, 4.49 0.06 C4.7 0.1, 4.92 0.15, 5.13 0.23 C5.34 0.31, 5.54 0.4, 5.73 0.51 C5.93 0.62, 6.11 0.75, 6.28 0.89 C6.45 1.04, 6.61 1.2, 6.75 1.37 C6.89 1.54, 7.02 1.72, 7.13 1.91 C7.24 2.1, 7.34 2.31, 7.41 2.52 C7.49 2.72, 7.55 2.94, 7.59 3.16 C7.63 3.38, 7.64 3.71, 7.65 3.82 C7.66 3.93, 7.66 3.71, 7.65 3.82" stroke="#000000" stroke-width="2" fill="none"></path></g><g stroke-linecap="round"><g transform="translate(116.8823885815168 539.258497803843) rotate(0 4.77838253616801 0)"><path d="M0 0 C1.59 0, 7.96 0, 9.56 0 M0 0 C1.59 0, 7.96 0, 9.56 0" stroke="#000000" stroke-width="2" fill="none"></path></g></g><mask></mask><g stroke-linecap="round"><g transform="translate(113.91741542143063 549.2931011297942) rotate(23.749494492867285 4.77838253616801 0)"><path d="M0 0 C1.59 0, 7.96 0, 9.56 0 M0 0 C1.59 0, 7.96 0, 9.56 0" stroke="#000000" stroke-width="2" fill="none"></path></g></g><mask></mask><g stroke-linecap="round"><g transform="translate(113.91741542143063 529.3218381162787) rotate(338.0702750671431 4.77838253616801 0)"><path d="M0 0 C1.59 0, 7.96 0, 9.56 0 M0 0 C1.59 0, 7.96 0, 9.56 0" stroke="#000000" stroke-width="2" fill="none"></path></g></g><mask></mask><g transform="translate(96.02510245505528 569.5730496728602) rotate(0 16.18419840487809 9.79947565583052)"><text x="0" y="13.490611486193183" font-family="Virgil, Segoe UI Emoji" font-size="16.332459426384px" fill="#000000" text-anchor="start" style="white-space: pre;" direction="ltr" dominant-baseline="alphabetic">ALB</text></g><g stroke-linecap="round" transform="translate(397.3018826487837 511.45862282883627) rotate(0.660271793939563 28.274753165242373 28.2747531652426)"><path d="M0 0 C18.63 0, 37.25 0, 56.55 0 M0 0 C16.79 0, 33.58 0, 56.55 0 M56.55 0 C56.55 12.37, 56.55 24.74, 56.55 56.55 M56.55 0 C56.55 20.73, 56.55 41.47, 56.55 56.55 M56.55 56.55 C39.48 56.55, 22.4 56.55, 0 56.55 M56.55 56.55 C43 56.55, 29.45 56.55, 0 56.55 M0 56.55 C0 40.33, 0 24.11, 0 0 M0 56.55 C0 39.06, 0 21.57, 0 0" stroke="#1e1e1e" stroke-width="2" fill="none"></path></g><g stroke-linecap="round" transform="translate(402.49650472189523 526.6182293147804) rotate(0.660271793939563 13.473513356414514 13.473513356414514)"><path d="M26.95 13.47 C26.95 14.25, 26.88 15.05, 26.74 15.81 C26.61 16.58, 26.4 17.35, 26.13 18.08 C25.87 18.81, 25.53 19.53, 25.14 20.21 C24.75 20.89, 24.3 21.54, 23.79 22.13 C23.29 22.73, 22.73 23.29, 22.13 23.79 C21.54 24.3, 20.89 24.75, 20.21 25.14 C19.53 25.53, 18.81 25.87, 18.08 26.13 C17.35 26.4, 16.58 26.61, 15.81 26.74 C15.05 26.88, 14.25 26.95, 13.47 26.95 C12.69 26.95, 11.9 26.88, 11.13 26.74 C10.37 26.61, 9.6 26.4, 8.87 26.13 C8.13 25.87, 7.41 25.53, 6.74 25.14 C6.06 24.75, 5.41 24.3, 4.81 23.79 C4.22 23.29, 3.65 22.73, 3.15 22.13 C2.65 21.54, 2.2 20.89, 1.81 20.21 C1.42 19.53, 1.08 18.81, 0.81 18.08 C0.55 17.35, 0.34 16.58, 0.2 15.81 C0.07 15.05, 0 14.25, 0 13.47 C0 12.69, 0.07 11.9, 0.2 11.13 C0.34 10.37, 0.55 9.6, 0.81 8.87 C1.08 8.13, 1.42 7.41, 1.81 6.74 C2.2 6.06, 2.65 5.41, 3.15 4.81 C3.65 4.22, 4.22 3.65, 4.81 3.15 C5.41 2.65, 6.06 2.2, 6.74 1.81 C7.41 1.42, 8.13 1.08, 8.87 0.81 C9.6 0.55, 10.37 0.34, 11.13 0.2 C11.9 0.07, 12.69 0, 13.47 0 C14.25 0, 15.05 0.07, 15.81 0.2 C16.58 0.34, 17.35 0.55, 18.08 0.81 C18.81 1.08, 19.53 1.42, 20.21 1.81 C20.89 2.2, 21.54 2.65, 22.13 3.15 C22.73 3.65, 23.29 4.22, 23.79 4.81 C24.3 5.41, 24.75 6.06, 25.14 6.74 C25.53 7.41, 25.87 8.13, 26.13 8.87 C26.4 9.6, 26.61 10.37, 26.74 11.13 C26.88 11.9, 26.91 13.08, 26.95 13.47 C26.98 13.86, 26.98 13.08, 26.95 13.47" stroke="#000000" stroke-width="2" fill="none"></path></g><g stroke-linecap="round" transform="translate(436.6180926887969 522.2220012777325) rotate(0.660271793939563 4.067475730238357 4.067475730238584)"><path d="M8.13 4.07 C8.13 4.3, 8.11 4.54, 8.07 4.77 C8.03 5.01, 7.97 5.24, 7.89 5.46 C7.81 5.68, 7.71 5.9, 7.59 6.1 C7.47 6.31, 7.33 6.5, 7.18 6.68 C7.03 6.86, 6.86 7.03, 6.68 7.18 C6.5 7.33, 6.31 7.47, 6.1 7.59 C5.9 7.71, 5.68 7.81, 5.46 7.89 C5.24 7.97, 5.01 8.03, 4.77 8.07 C4.54 8.11, 4.3 8.13, 4.07 8.13 C3.83 8.13, 3.59 8.11, 3.36 8.07 C3.13 8.03, 2.9 7.97, 2.68 7.89 C2.46 7.81, 2.24 7.71, 2.03 7.59 C1.83 7.47, 1.63 7.33, 1.45 7.18 C1.27 7.03, 1.1 6.86, 0.95 6.68 C0.8 6.5, 0.66 6.31, 0.54 6.1 C0.43 5.9, 0.33 5.68, 0.25 5.46 C0.16 5.24, 0.1 5.01, 0.06 4.77 C0.02 4.54, 0 4.3, 0 4.07 C0 3.83, 0.02 3.59, 0.06 3.36 C0.1 3.13, 0.16 2.9, 0.25 2.68 C0.33 2.46, 0.43 2.24, 0.54 2.03 C0.66 1.83, 0.8 1.63, 0.95 1.45 C1.1 1.27, 1.27 1.1, 1.45 0.95 C1.63 0.8, 1.83 0.66, 2.03 0.54 C2.24 0.43, 2.46 0.33, 2.68 0.25 C2.9 0.16, 3.13 0.1, 3.36 0.06 C3.59 0.02, 3.83 0, 4.07 0 C4.3 0, 4.54 0.02, 4.77 0.06 C5.01 0.1, 5.24 0.16, 5.46 0.25 C5.68 0.33, 5.9 0.43, 6.1 0.54 C6.31 0.66, 6.5 0.8, 6.68 0.95 C6.86 1.1, 7.03 1.27, 7.18 1.45 C7.33 1.63, 7.47 1.83, 7.59 2.03 C7.71 2.24, 7.81 2.46, 7.89 2.68 C7.97 2.9, 8.03 3.13, 8.07 3.36 C8.11 3.59, 8.12 3.95, 8.13 4.07 C8.15 4.19, 8.15 3.95, 8.13 4.07" stroke="#000000" stroke-width="2" fill="none"></path></g><g stroke-linecap="round" transform="translate(436.3988533736847 550.2894491671186) rotate(0.660271793939563 4.067475730238357 4.067475730238584)"><path d="M8.13 4.07 C8.13 4.3, 8.11 4.54, 8.07 4.77 C8.03 5.01, 7.97 5.24, 7.89 5.46 C7.81 5.68, 7.71 5.9, 7.59 6.1 C7.47 6.31, 7.33 6.5, 7.18 6.68 C7.03 6.86, 6.86 7.03, 6.68 7.18 C6.5 7.33, 6.31 7.47, 6.1 7.59 C5.9 7.71, 5.68 7.81, 5.46 7.89 C5.24 7.97, 5.01 8.03, 4.77 8.07 C4.54 8.11, 4.3 8.13, 4.07 8.13 C3.83 8.13, 3.59 8.11, 3.36 8.07 C3.13 8.03, 2.9 7.97, 2.68 7.89 C2.46 7.81, 2.24 7.71, 2.03 7.59 C1.83 7.47, 1.63 7.33, 1.45 7.18 C1.27 7.03, 1.1 6.86, 0.95 6.68 C0.8 6.5, 0.66 6.31, 0.54 6.1 C0.43 5.9, 0.33 5.68, 0.25 5.46 C0.16 5.24, 0.1 5.01, 0.06 4.77 C0.02 4.54, 0 4.3, 0 4.07 C0 3.83, 0.02 3.59, 0.06 3.36 C0.1 3.13, 0.16 2.9, 0.25 2.68 C0.33 2.46, 0.43 2.24, 0.54 2.03 C0.66 1.83, 0.8 1.63, 0.95 1.45 C1.1 1.27, 1.27 1.1, 1.45 0.95 C1.63 0.8, 1.83 0.66, 2.03 0.54 C2.24 0.43, 2.46 0.33, 2.68 0.25 C2.9 0.16, 3.13 0.1, 3.36 0.06 C3.59 0.02, 3.83 0, 4.07 0 C4.3 0, 4.54 0.02, 4.77 0.06 C5.01 0.1, 5.24 0.16, 5.46 0.25 C5.68 0.33, 5.9 0.43, 6.1 0.54 C6.31 0.66, 6.5 0.8, 6.68 0.95 C6.86 1.1, 7.03 1.27, 7.18 1.45 C7.33 1.63, 7.47 1.83, 7.59 2.03 C7.71 2.24, 7.81 2.46, 7.89 2.68 C7.97 2.9, 8.03 3.13, 8.07 3.36 C8.11 3.59, 8.12 3.95, 8.13 4.07 C8.15 4.19, 8.15 3.95, 8.13 4.07" stroke="#000000" stroke-width="2" fill="none"></path></g><g stroke-linecap="round" transform="translate(440.6418298287658 535.0843001882695) rotate(0.660271793939563 4.067475730238357 4.067475730238584)"><path d="M8.13 4.07 C8.13 4.3, 8.11 4.54, 8.07 4.77 C8.03 5.01, 7.97 5.24, 7.89 5.46 C7.81 5.68, 7.71 5.9, 7.59 6.1 C7.47 6.31, 7.33 6.5, 7.18 6.68 C7.03 6.86, 6.86 7.03, 6.68 7.18 C6.5 7.33, 6.31 7.47, 6.1 7.59 C5.9 7.71, 5.68 7.81, 5.46 7.89 C5.24 7.97, 5.01 8.03, 4.77 8.07 C4.54 8.11, 4.3 8.13, 4.07 8.13 C3.83 8.13, 3.59 8.11, 3.36 8.07 C3.13 8.03, 2.9 7.97, 2.68 7.89 C2.46 7.81, 2.24 7.71, 2.03 7.59 C1.83 7.47, 1.63 7.33, 1.45 7.18 C1.27 7.03, 1.1 6.86, 0.95 6.68 C0.8 6.5, 0.66 6.31, 0.54 6.1 C0.43 5.9, 0.33 5.68, 0.25 5.46 C0.16 5.24, 0.1 5.01, 0.06 4.77 C0.02 4.54, 0 4.3, 0 4.07 C0 3.83, 0.02 3.59, 0.06 3.36 C0.1 3.13, 0.16 2.9, 0.25 2.68 C0.33 2.46, 0.43 2.24, 0.54 2.03 C0.66 1.83, 0.8 1.63, 0.95 1.45 C1.1 1.27, 1.27 1.1, 1.45 0.95 C1.63 0.8, 1.83 0.66, 2.03 0.54 C2.24 0.43, 2.46 0.33, 2.68 0.25 C2.9 0.16, 3.13 0.1, 3.36 0.06 C3.59 0.02, 3.83 0, 4.07 0 C4.3 0, 4.54 0.02, 4.77 0.06 C5.01 0.1, 5.24 0.16, 5.46 0.25 C5.68 0.33, 5.9 0.43, 6.1 0.54 C6.31 0.66, 6.5 0.8, 6.68 0.95 C6.86 1.1, 7.03 1.27, 7.18 1.45 C7.33 1.63, 7.47 1.83, 7.59 2.03 C7.71 2.24, 7.81 2.46, 7.89 2.68 C7.97 2.9, 8.03 3.13, 8.07 3.36 C8.11 3.59, 8.12 3.95, 8.13 4.07 C8.15 4.19, 8.15 3.95, 8.13 4.07" stroke="#000000" stroke-width="2" fill="none"></path></g><g stroke-linecap="round"><g transform="translate(429.953629420314 540.0572558224521) rotate(0.660271793939563 5.084344662798003 0)"><path d="M0 0 C1.69 0, 8.47 0, 10.17 0 M0 0 C1.69 0, 8.47 0, 10.17 0" stroke="#000000" stroke-width="2" fill="none"></path></g></g><mask></mask><g stroke-linecap="round"><g transform="translate(426.67597752247 550.6973155583346) rotate(24.409766286806846 5.084344662798003 0)"><path d="M0 0 C1.69 0, 8.47 0, 10.17 0 M0 0 C1.69 0, 8.47 0, 10.17 0" stroke="#000000" stroke-width="2" fill="none"></path></g></g><mask></mask><g stroke-linecap="round"><g transform="translate(426.9208557088905 529.448693984662) rotate(338.7305468610827 5.084344662798003 0)"><path d="M0 0 C1.69 0, 8.47 0, 10.17 0 M0 0 C1.69 0, 8.47 0, 10.17 0" stroke="#000000" stroke-width="2" fill="none"></path></g></g><mask></mask><g transform="translate(407.2696566925865 572.1929379463645) rotate(0.660271793939563 17.11621813958459 10.426940784213002)"><text x="0" y="14.35442181293298" font-family="Virgil, Segoe UI Emoji" font-size="17.378234640354698px" fill="#000000" text-anchor="start" style="white-space: pre;" direction="ltr" dominant-baseline="alphabetic">NLB</text></g><g stroke-linecap="round" transform="translate(673.6839727936758 513.6056932174124) rotate(0 27.56042355866998 27.560423558669754)"><path d="M0 0 C20.99 0, 41.98 0, 55.12 0 M0 0 C14.17 0, 28.34 0, 55.12 0 M55.12 0 C55.12 17.41, 55.12 34.82, 55.12 55.12 M55.12 0 C55.12 21.35, 55.12 42.71, 55.12 55.12 M55.12 55.12 C36.69 55.12, 18.26 55.12, 0 55.12 M55.12 55.12 C33.93 55.12, 12.74 55.12, 0 55.12 M0 55.12 C0 36.33, 0 17.53, 0 0 M0 55.12 C0 37.73, 0 20.33, 0 0" stroke="#1e1e1e" stroke-width="2" fill="none"></path></g><g stroke-linecap="round" transform="translate(678.7520057496085 528.4901928419558) rotate(0 13.13312030545535 13.133120305455577)"><path d="M26.27 13.13 C26.27 13.89, 26.2 14.67, 26.07 15.41 C25.93 16.16, 25.73 16.91, 25.47 17.62 C25.21 18.34, 24.89 19.04, 24.51 19.7 C24.13 20.36, 23.68 20.99, 23.19 21.57 C22.71 22.16, 22.16 22.71, 21.57 23.19 C20.99 23.68, 20.36 24.13, 19.7 24.51 C19.04 24.89, 18.34 25.21, 17.62 25.47 C16.91 25.73, 16.16 25.93, 15.41 26.07 C14.67 26.2, 13.89 26.27, 13.13 26.27 C12.37 26.27, 11.6 26.2, 10.85 26.07 C10.1 25.93, 9.36 25.73, 8.64 25.47 C7.93 25.21, 7.22 24.89, 6.57 24.51 C5.91 24.13, 5.27 23.68, 4.69 23.19 C4.11 22.71, 3.56 22.16, 3.07 21.57 C2.58 20.99, 2.14 20.36, 1.76 19.7 C1.38 19.04, 1.05 18.34, 0.79 17.62 C0.53 16.91, 0.33 16.16, 0.2 15.41 C0.07 14.67, 0 13.89, 0 13.13 C0 12.37, 0.07 11.6, 0.2 10.85 C0.33 10.1, 0.53 9.36, 0.79 8.64 C1.05 7.93, 1.38 7.22, 1.76 6.57 C2.14 5.91, 2.58 5.27, 3.07 4.69 C3.56 4.11, 4.11 3.56, 4.69 3.07 C5.27 2.58, 5.91 2.14, 6.57 1.76 C7.22 1.38, 7.93 1.05, 8.64 0.79 C9.36 0.53, 10.1 0.33, 10.85 0.2 C11.6 0.07, 12.37 0, 13.13 0 C13.89 0, 14.67 0.07, 15.41 0.2 C16.16 0.33, 16.91 0.53, 17.62 0.79 C18.34 1.05, 19.04 1.38, 19.7 1.76 C20.36 2.14, 20.99 2.58, 21.57 3.07 C22.16 3.56, 22.71 4.11, 23.19 4.69 C23.68 5.27, 24.13 5.91, 24.51 6.57 C24.89 7.22, 25.21 7.93, 25.47 8.64 C25.73 9.36, 25.93 10.1, 26.07 10.85 C26.2 11.6, 26.23 12.75, 26.27 13.13 C26.3 13.51, 26.3 12.75, 26.27 13.13" stroke="#000000" stroke-width="2" fill="none"></path></g><g stroke-linecap="round" transform="translate(711.8549164551441 523.928305690335) rotate(0 3.9647155639111133 3.964715563910886)"><path d="M7.93 3.96 C7.93 4.19, 7.91 4.43, 7.87 4.65 C7.83 4.88, 7.77 5.11, 7.69 5.32 C7.61 5.54, 7.51 5.75, 7.4 5.95 C7.28 6.15, 7.15 6.34, 7 6.51 C6.85 6.69, 6.69 6.85, 6.51 7 C6.34 7.15, 6.15 7.28, 5.95 7.4 C5.75 7.51, 5.54 7.61, 5.32 7.69 C5.11 7.77, 4.88 7.83, 4.65 7.87 C4.43 7.91, 4.19 7.93, 3.96 7.93 C3.74 7.93, 3.5 7.91, 3.28 7.87 C3.05 7.83, 2.82 7.77, 2.61 7.69 C2.39 7.61, 2.18 7.51, 1.98 7.4 C1.78 7.28, 1.59 7.15, 1.42 7 C1.24 6.85, 1.08 6.69, 0.93 6.51 C0.78 6.34, 0.65 6.15, 0.53 5.95 C0.42 5.75, 0.32 5.54, 0.24 5.32 C0.16 5.11, 0.1 4.88, 0.06 4.65 C0.02 4.43, 0 4.19, 0 3.96 C0 3.74, 0.02 3.5, 0.06 3.28 C0.1 3.05, 0.16 2.82, 0.24 2.61 C0.32 2.39, 0.42 2.18, 0.53 1.98 C0.65 1.78, 0.78 1.59, 0.93 1.42 C1.08 1.24, 1.24 1.08, 1.42 0.93 C1.59 0.78, 1.78 0.65, 1.98 0.53 C2.18 0.42, 2.39 0.32, 2.61 0.24 C2.82 0.16, 3.05 0.1, 3.28 0.06 C3.5 0.02, 3.74 0, 3.96 0 C4.19 0, 4.43 0.02, 4.65 0.06 C4.88 0.1, 5.11 0.16, 5.32 0.24 C5.54 0.32, 5.75 0.42, 5.95 0.53 C6.15 0.65, 6.34 0.78, 6.51 0.93 C6.69 1.08, 6.85 1.24, 7 1.42 C7.15 1.59, 7.28 1.78, 7.4 1.98 C7.51 2.18, 7.61 2.39, 7.69 2.61 C7.77 2.82, 7.83 3.05, 7.87 3.28 C7.91 3.5, 7.92 3.85, 7.93 3.96 C7.94 4.08, 7.94 3.85, 7.93 3.96" stroke="#000000" stroke-width="2" fill="none"></path></g><g stroke-linecap="round" transform="translate(711.9564985973652 551.2873073344435) rotate(0 3.9647155639111133 3.964715563910886)"><path d="M7.93 3.96 C7.93 4.19, 7.91 4.43, 7.87 4.65 C7.83 4.88, 7.77 5.11, 7.69 5.32 C7.61 5.54, 7.51 5.75, 7.4 5.95 C7.28 6.15, 7.15 6.34, 7 6.51 C6.85 6.69, 6.69 6.85, 6.51 7 C6.34 7.15, 6.15 7.28, 5.95 7.4 C5.75 7.51, 5.54 7.61, 5.32 7.69 C5.11 7.77, 4.88 7.83, 4.65 7.87 C4.43 7.91, 4.19 7.93, 3.96 7.93 C3.74 7.93, 3.5 7.91, 3.28 7.87 C3.05 7.83, 2.82 7.77, 2.61 7.69 C2.39 7.61, 2.18 7.51, 1.98 7.4 C1.78 7.28, 1.59 7.15, 1.42 7 C1.24 6.85, 1.08 6.69, 0.93 6.51 C0.78 6.34, 0.65 6.15, 0.53 5.95 C0.42 5.75, 0.32 5.54, 0.24 5.32 C0.16 5.11, 0.1 4.88, 0.06 4.65 C0.02 4.43, 0 4.19, 0 3.96 C0 3.74, 0.02 3.5, 0.06 3.28 C0.1 3.05, 0.16 2.82, 0.24 2.61 C0.32 2.39, 0.42 2.18, 0.53 1.98 C0.65 1.78, 0.78 1.59, 0.93 1.42 C1.08 1.24, 1.24 1.08, 1.42 0.93 C1.59 0.78, 1.78 0.65, 1.98 0.53 C2.18 0.42, 2.39 0.32, 2.61 0.24 C2.82 0.16, 3.05 0.1, 3.28 0.06 C3.5 0.02, 3.74 0, 3.96 0 C4.19 0, 4.43 0.02, 4.65 0.06 C4.88 0.1, 5.11 0.16, 5.32 0.24 C5.54 0.32, 5.75 0.42, 5.95 0.53 C6.15 0.65, 6.34 0.78, 6.51 0.93 C6.69 1.08, 6.85 1.24, 7 1.42 C7.15 1.59, 7.28 1.78, 7.4 1.98 C7.51 2.18, 7.61 2.39, 7.69 2.61 C7.77 2.82, 7.83 3.05, 7.87 3.28 C7.91 3.5, 7.92 3.85, 7.93 3.96 C7.94 4.08, 7.94 3.85, 7.93 3.96" stroke="#000000" stroke-width="2" fill="none"></path></g><g stroke-linecap="round" transform="translate(715.9212141612743 536.4196239697794) rotate(0 3.9647155639111133 3.964715563910886)"><path d="M7.93 3.96 C7.93 4.19, 7.91 4.43, 7.87 4.65 C7.83 4.88, 7.77 5.11, 7.69 5.32 C7.61 5.54, 7.51 5.75, 7.4 5.95 C7.28 6.15, 7.15 6.34, 7 6.51 C6.85 6.69, 6.69 6.85, 6.51 7 C6.34 7.15, 6.15 7.28, 5.95 7.4 C5.75 7.51, 5.54 7.61, 5.32 7.69 C5.11 7.77, 4.88 7.83, 4.65 7.87 C4.43 7.91, 4.19 7.93, 3.96 7.93 C3.74 7.93, 3.5 7.91, 3.28 7.87 C3.05 7.83, 2.82 7.77, 2.61 7.69 C2.39 7.61, 2.18 7.51, 1.98 7.4 C1.78 7.28, 1.59 7.15, 1.42 7 C1.24 6.85, 1.08 6.69, 0.93 6.51 C0.78 6.34, 0.65 6.15, 0.53 5.95 C0.42 5.75, 0.32 5.54, 0.24 5.32 C0.16 5.11, 0.1 4.88, 0.06 4.65 C0.02 4.43, 0 4.19, 0 3.96 C0 3.74, 0.02 3.5, 0.06 3.28 C0.1 3.05, 0.16 2.82, 0.24 2.61 C0.32 2.39, 0.42 2.18, 0.53 1.98 C0.65 1.78, 0.78 1.59, 0.93 1.42 C1.08 1.24, 1.24 1.08, 1.42 0.93 C1.59 0.78, 1.78 0.65, 1.98 0.53 C2.18 0.42, 2.39 0.32, 2.61 0.24 C2.82 0.16, 3.05 0.1, 3.28 0.06 C3.5 0.02, 3.74 0, 3.96 0 C4.19 0, 4.43 0.02, 4.65 0.06 C4.88 0.1, 5.11 0.16, 5.32 0.24 C5.54 0.32, 5.75 0.42, 5.95 0.53 C6.15 0.65, 6.34 0.78, 6.51 0.93 C6.69 1.08, 6.85 1.24, 7 1.42 C7.15 1.59, 7.28 1.78, 7.4 1.98 C7.51 2.18, 7.61 2.39, 7.69 2.61 C7.77 2.82, 7.83 3.05, 7.87 3.28 C7.91 3.5, 7.92 3.85, 7.93 3.96 C7.94 4.08, 7.94 3.85, 7.93 3.96" stroke="#000000" stroke-width="2" fill="none"></path></g><g stroke-linecap="round"><g transform="translate(705.5138358060076 541.3755184246666) rotate(0 4.9558944548889485 0)"><path d="M0 0 C1.65 0, 8.26 0, 9.91 0 M0 0 C1.65 0, 8.26 0, 9.91 0" stroke="#000000" stroke-width="2" fill="none"></path></g></g><mask></mask><g stroke-linecap="round"><g transform="translate(702.438716990855 551.7828967799314) rotate(23.749494492867285 4.9558944548889485 0)"><path d="M0 0 C1.65 0, 8.26 0, 9.91 0 M0 0 C1.65 0, 8.26 0, 9.91 0" stroke="#000000" stroke-width="2" fill="none"></path></g></g><mask></mask><g stroke-linecap="round"><g transform="translate(702.438716990855 531.0697222116223) rotate(338.0702750671431 4.9558944548889485 0)"><path d="M0 0 C1.65 0, 8.26 0, 9.91 0 M0 0 C1.65 0, 8.26 0, 9.91 0" stroke="#000000" stroke-width="2" fill="none"></path></g></g><mask></mask><g transform="translate(674.6591557656902 576.9480178855993) rotate(0 25.105247497558594 10.530812750290352)"><text x="0" y="14.497418886232833" font-family="Virgil, Segoe UI Emoji" font-size="17.55135458381699px" fill="#000000" text-anchor="start" style="white-space: pre;" direction="ltr" dominant-baseline="alphabetic">GWLB</text></g><g stroke-linecap="round"><g transform="translate(444.24821798388393 326.83182325570124) rotate(0 125.75425569771164 86.69613671530897)"><path d="M-1 -0.93 C40.8 28.18, 209.52 143.58, 251.98 173.01 M3.65 -3.91 C45.02 25.81, 208.41 147.23, 250 176.43" stroke="#e03131" stroke-width="4" fill="none"></path></g><g transform="translate(444.24821798388393 326.83182325570124) rotate(0 125.75425569771164 86.69613671530897)"><path d="M225.3 169.9 C233.84 173.6, 243.9 174.27, 249.41 176.71 M226.21 170.22 C234.41 172.05, 244.73 173.95, 249.13 176.53" stroke="#e03131" stroke-width="4" fill="none"></path></g><g transform="translate(444.24821798388393 326.83182325570124) rotate(0 125.75425569771164 86.69613671530897)"><path d="M235.34 156.06 C240.38 164.44, 247.02 169.82, 249.41 176.71 M236.25 156.38 C240.68 163.44, 247.19 170.59, 249.13 176.53" stroke="#e03131" stroke-width="4" fill="none"></path></g></g><mask></mask><g stroke-linecap="round"><g transform="translate(415.0850619399589 326.83182325570215) rotate(0 -0.46655461137447674 84.96115058554233)"><path d="M2.07 -1.7 C2.32 26.05, 1.98 138.69, 1.53 167.76 M-0.25 3.54 C-0.16 31.47, 0.97 142.69, 0.62 170.21" stroke="#e03131" stroke-width="4" fill="none"></path></g><g transform="translate(415.0850619399589 326.83182325570215) rotate(0 -0.46655461137447674 84.96115058554233)"><path d="M-9.16 148.48 C-6.8 153.93, -0.71 158.91, 1 170.07 M-8.58 146.9 C-7.13 151.5, -4.04 157.77, -0.26 170.73" stroke="#e03131" stroke-width="4" fill="none"></path></g><g transform="translate(415.0850619399589 326.83182325570215) rotate(0 -0.46655461137447674 84.96115058554233)"><path d="M7.95 148.47 C5.15 154.05, 6.09 159.03, 1 170.07 M8.52 146.89 C6.06 151.51, 5.25 157.78, -0.26 170.73" stroke="#e03131" stroke-width="4" fill="none"></path></g></g><mask></mask><g stroke-linecap="round"><g transform="translate(390.4122327299524 328.82382204512305) rotate(0 -137.69907948381183 87.10007551465742)"><path d="M0.05 -1.83 C-45.99 27.07, -230.59 143.07, -276.19 172.1 M-3.37 3.35 C-49.86 32.66, -233.7 146.07, -278.86 174.6" stroke="#e03131" stroke-width="4" fill="none"></path></g><g transform="translate(390.4122327299524 328.82382204512305) rotate(0 -137.69907948381183 87.10007551465742)"><path d="M-264.76 154.34 C-269.69 162.17, -274.14 167.68, -277.41 172.91 M-262.68 154.89 C-267.94 161.55, -272.29 167.36, -278.09 174.97" stroke="#e03131" stroke-width="4" fill="none"></path></g><g transform="translate(390.4122327299524 328.82382204512305) rotate(0 -137.69907948381183 87.10007551465742)"><path d="M-255.71 168.86 C-263.3 172.31, -270.49 173.44, -277.41 172.91 M-253.64 169.4 C-261.6 171.68, -268.68 173.1, -278.09 174.97" stroke="#e03131" stroke-width="4" fill="none"></path></g></g><mask></mask><g transform="translate(36.891983657205856 591.1756483272693) rotate(0 102.05593872070312 10)"><text x="0" y="14.016" font-family="Virgil, Segoe UI Emoji" font-size="16px" fill="#e03131" text-anchor="start" style="white-space: pre;" direction="ltr" dominant-baseline="alphabetic">Application Load Balancer</text></g><g transform="translate(335.69180207059844 593.6556453008252) rotate(0 91.95994567871094 10)"><text x="0" y="14.016" font-family="Virgil, Segoe UI Emoji" font-size="16px" fill="#e03131" text-anchor="start" style="white-space: pre;" direction="ltr" dominant-baseline="alphabetic">Network Load Balancer</text></g><g transform="translate(624.5316265368783 589.6716477219807) rotate(0 95.77595520019531 10)"><text x="0" y="14.016" font-family="Virgil, Segoe UI Emoji" font-size="16px" fill="#e03131" text-anchor="start" style="white-space: pre;" direction="ltr" dominant-baseline="alphabetic">Gateway Load Balancer</text></g><g transform="translate(10 631.503622299856) rotate(0 138.23992919921875 70)"><text x="0" y="14.016" font-family="Virgil, Segoe UI Emoji" font-size="16px" fill="#2f9e44" text-anchor="start" style="white-space: pre;" direction="ltr" dominant-baseline="alphabetic">-&gt; For managing web traffic</text><text x="0" y="34.016" font-family="Virgil, Segoe UI Emoji" font-size="16px" fill="#2f9e44" text-anchor="start" style="white-space: pre;" direction="ltr" dominant-baseline="alphabetic">-&gt; HTTP/HTTPs/WebSocket</text><text x="0" y="54.016" font-family="Virgil, Segoe UI Emoji" font-size="16px" fill="#2f9e44" text-anchor="start" style="white-space: pre;" direction="ltr" dominant-baseline="alphabetic">-&gt; It decides where each requests</text><text x="0" y="74.016" font-family="Virgil, Segoe UI Emoji" font-size="16px" fill="#2f9e44" text-anchor="start" style="white-space: pre;" direction="ltr" dominant-baseline="alphabetic">   go based on rules you set, like </text><text x="0" y="94.016" font-family="Virgil, Segoe UI Emoji" font-size="16px" fill="#2f9e44" text-anchor="start" style="white-space: pre;" direction="ltr" dominant-baseline="alphabetic">   URL path or hostname.</text><text x="0" y="114.016" font-family="Virgil, Segoe UI Emoji" font-size="16px" fill="#2f9e44" text-anchor="start" style="white-space: pre;" direction="ltr" dominant-baseline="alphabetic">-&gt; URL routing</text><text x="0" y="134.016" font-family="Virgil, Segoe UI Emoji" font-size="16px" fill="#2f9e44" text-anchor="start" style="white-space: pre;" direction="ltr" dominant-baseline="alphabetic">-&gt; SSL termination</text></g><g transform="translate(314.979801447314 627.2395823508041) rotate(0 129.9359130859375 80)"><text x="0" y="14.016" font-family="Virgil, Segoe UI Emoji" font-size="16px" fill="#2f9e44" text-anchor="start" style="white-space: pre;" direction="ltr" dominant-baseline="alphabetic">-&gt; For handling high-performance </text><text x="0" y="34.016" font-family="Virgil, Segoe UI Emoji" font-size="16px" fill="#2f9e44" text-anchor="start" style="white-space: pre;" direction="ltr" dominant-baseline="alphabetic">   network traffic</text><text x="0" y="54.016" font-family="Virgil, Segoe UI Emoji" font-size="16px" fill="#2f9e44" text-anchor="start" style="white-space: pre;" direction="ltr" dominant-baseline="alphabetic">-&gt; TCP/UDP</text><text x="0" y="74.016" font-family="Virgil, Segoe UI Emoji" font-size="16px" fill="#2f9e44" text-anchor="start" style="white-space: pre;" direction="ltr" dominant-baseline="alphabetic">-&gt; It routes data based on IP </text><text x="0" y="94.016" font-family="Virgil, Segoe UI Emoji" font-size="16px" fill="#2f9e44" text-anchor="start" style="white-space: pre;" direction="ltr" dominant-baseline="alphabetic">   address and ports.</text><text x="0" y="114.016" font-family="Virgil, Segoe UI Emoji" font-size="16px" fill="#2f9e44" text-anchor="start" style="white-space: pre;" direction="ltr" dominant-baseline="alphabetic">-&gt; Good for gaming servers, </text><text x="0" y="134.016" font-family="Virgil, Segoe UI Emoji" font-size="16px" fill="#2f9e44" text-anchor="start" style="white-space: pre;" direction="ltr" dominant-baseline="alphabetic">   real-time applications</text><text x="0" y="154.016" font-family="Virgil, Segoe UI Emoji" font-size="16px" fill="#2f9e44" text-anchor="start" style="white-space: pre;" direction="ltr" dominant-baseline="alphabetic">-&gt; Static IP/High Throughput</text></g><g transform="translate(617.1036390004319 629.1915750873386) rotate(0 155.77590942382812 50)"><text x="0" y="14.016" font-family="Virgil, Segoe UI Emoji" font-size="16px" fill="#2f9e44" text-anchor="start" style="white-space: pre;" direction="ltr" dominant-baseline="alphabetic">-&gt; For managing and scaling network </text><text x="0" y="34.016" font-family="Virgil, Segoe UI Emoji" font-size="16px" fill="#2f9e44" text-anchor="start" style="white-space: pre;" direction="ltr" dominant-baseline="alphabetic">   security and traffic management </text><text x="0" y="54.016" font-family="Virgil, Segoe UI Emoji" font-size="16px" fill="#2f9e44" text-anchor="start" style="white-space: pre;" direction="ltr" dominant-baseline="alphabetic">   appliances.</text><text x="0" y="74.016" font-family="Virgil, Segoe UI Emoji" font-size="16px" fill="#2f9e44" text-anchor="start" style="white-space: pre;" direction="ltr" dominant-baseline="alphabetic">-&gt; Ensures security appliances are</text><text x="0" y="94.016" font-family="Virgil, Segoe UI Emoji" font-size="16px" fill="#2f9e44" text-anchor="start" style="white-space: pre;" direction="ltr" dominant-baseline="alphabetic">   always available address and ports.</text></g></svg>