<svg version="1.1" xmlns="http://www.w3.org/2000/svg" viewBox="0 0 1227.4531453450522 500.0000000000018" width="1227.4531453450522" height="500.0000000000018">
  <!-- svg-source:excalidraw -->
  
  <defs>
    <style class="style-fonts">
      @font-face {
        font-family: "Virgil";
        src: url("https://excalidraw.com/Virgil.woff2");
      }
      @font-face {
        font-family: "Cascadia";
        src: url("https://excalidraw.com/Cascadia.woff2");
      }
      @font-face {
        font-family: "Assistant";
        src: url("https://excalidraw.com/Assistant-Regular.woff2");
      }
    </style>
    
  </defs>
  <rect x="0" y="0" width="1227.4531453450522" height="500.0000000000018" fill="#ffffff"></rect><g stroke-linecap="round" transform="translate(385.00000000000045 10) rotate(0 218.8888888888887 50.55555555555566)"><path d="M25.28 0 C170.1 -1.6, 312.57 0.64, 412.5 0 M25.28 0 C132.22 -2.8, 238.01 -1.86, 412.5 0 M412.5 0 C427.2 -1.69, 435.23 4.74, 437.78 25.28 M412.5 0 C427.54 -1.36, 435.91 7.04, 437.78 25.28 M437.78 25.28 C437.93 35.51, 440.47 44.44, 437.78 75.83 M437.78 25.28 C438.56 37.86, 436.32 51.51, 437.78 75.83 M437.78 75.83 C438.19 95.8, 425.93 103.04, 412.5 101.11 M437.78 75.83 C439.53 95.69, 425.19 103.31, 412.5 101.11 M412.5 101.11 C268.64 104.95, 127.63 102.16, 25.28 101.11 M412.5 101.11 C258.17 101.05, 105.22 99.63, 25.28 101.11 M25.28 101.11 C10.12 102.47, -1.03 89.81, 0 75.83 M25.28 101.11 C10.84 102.13, 2.18 89.26, 0 75.83 M0 75.83 C-1.21 64.24, 3.08 48.45, 0 25.28 M0 75.83 C-0.14 63.1, -1.82 45.77, 0 25.28 M0 25.28 C2.79 11.85, 5.51 -2.31, 25.28 0 M0 25.28 C3.9 10.12, 4.16 -1.56, 25.28 0" stroke="#1971c2" stroke-width="4" fill="none"></path></g><g transform="translate(478.6309390597876 43.05555555555475) rotate(0 125.25794982910156 17.5)"><text x="0" y="24.528" font-family="Virgil, Segoe UI Emoji" font-size="28px" fill="#1971c2" text-anchor="start" style="white-space: pre;" direction="ltr" dominant-baseline="alphabetic">EBS Volume Types</text></g><g stroke-linecap="round"><g transform="translate(570.5555555555566 113.90053571727367) rotate(0 -209.4444444444448 67.22222222222263)"><path d="M2.75 -1.54 C-60.1 8.57, -307.41 35.73, -378.01 58.84 C-448.61 81.95, -414.48 124.86, -420.83 137.12 M0.8 3.79 C-61.12 13.21, -303.63 32.86, -372.94 54.4 C-442.25 75.94, -406.76 119.79, -415.06 133.04" stroke="#1971c2" stroke-width="4" fill="none"></path></g><g transform="translate(570.5555555555566 113.90053571727367) rotate(0 -209.4444444444448 67.22222222222263)"><path d="M-425.14 107.96 C-421.04 114.45, -417.49 124, -416.52 134.19 M-423.93 109.22 C-420.15 117.71, -417.78 126.33, -414.79 133.41" stroke="#1971c2" stroke-width="4" fill="none"></path></g><g transform="translate(570.5555555555566 113.90053571727367) rotate(0 -209.4444444444448 67.22222222222263)"><path d="M-408.04 107.64 C-408.5 114.39, -409.51 124.03, -416.52 134.19 M-406.83 108.91 C-408.85 117.34, -412.28 126.07, -414.79 133.41" stroke="#1971c2" stroke-width="4" fill="none"></path></g></g><mask></mask><g transform="translate(64.75881811071304 257.2222222222208) rotate(0 92.74779911747783 26.66666666666697)"><text x="0" y="18.68800000000022" font-family="Virgil, Segoe UI Emoji" font-size="21.333333333333584px" fill="#6741d9" text-anchor="start" style="white-space: pre;" direction="ltr" dominant-baseline="alphabetic">General Purpose</text><text x="0" y="45.3546666666672" font-family="Virgil, Segoe UI Emoji" font-size="21.333333333333584px" fill="#6741d9" text-anchor="start" style="white-space: pre;" direction="ltr" dominant-baseline="alphabetic">SSD volume</text></g><g stroke-linecap="round"><g transform="translate(579.4444444444448 116.62596163242597) rotate(0 -75 75)"><path d="M-0.57 -0.53 C-20.59 10.85, -96.68 42.02, -121.35 66.79 C-146.02 91.55, -144.08 133.91, -148.59 148.07 M4.32 -3.28 C-15.89 7.37, -97.45 36.85, -123.11 62.42 C-148.77 87.99, -145.66 136.09, -149.63 150.13" stroke="#1971c2" stroke-width="4" fill="none"></path></g><g transform="translate(579.4444444444448 116.62596163242597) rotate(0 -75 75)"><path d="M-155.47 126.36 C-152.96 133.02, -153.79 139.44, -148.39 148.81 M-154.24 124.94 C-153.31 130.81, -152.07 136.48, -149.45 150.07" stroke="#1971c2" stroke-width="4" fill="none"></path></g><g transform="translate(579.4444444444448 116.62596163242597) rotate(0 -75 75)"><path d="M-138.51 128.55 C-140.35 134.62, -145.54 140.47, -148.39 148.81 M-137.28 127.13 C-140.42 132.36, -143.24 137.5, -149.45 150.07" stroke="#1971c2" stroke-width="4" fill="none"></path></g></g><mask></mask><g transform="translate(359.4444444444448 276.6666666666697) rotate(0 83.25991821289062 25)"><text x="0" y="17.52" font-family="Virgil, Segoe UI Emoji" font-size="20px" fill="#6741d9" text-anchor="start" style="white-space: pre;" direction="ltr" dominant-baseline="alphabetic">Provisioned IOPS</text><text x="0" y="42.519999999999996" font-family="Virgil, Segoe UI Emoji" font-size="20px" fill="#6741d9" text-anchor="start" style="white-space: pre;" direction="ltr" dominant-baseline="alphabetic">SSD Volumes</text></g><g stroke-linecap="round"><g transform="translate(582.7777777777774 116.58831251511765) rotate(0 73.33333333333394 73.33333333333212)"><path d="M-0.32 1.42 C14.87 10.75, 67.06 31.18, 91.26 55.65 C115.45 80.13, 135.92 132.91, 144.87 148.25 M-3.94 -0.27 C11.08 8.33, 64.53 27.93, 90.3 51.9 C116.08 75.88, 141.68 127.08, 150.73 143.59" stroke="#1971c2" stroke-width="4" fill="none"></path></g><g transform="translate(582.7777777777774 116.58831251511765) rotate(0 73.33333333333394 73.33333333333212)"><path d="M133.06 128.66 C139.39 130.78, 144.56 135.91, 151.49 142.02 M132.75 127.17 C136.33 130.13, 140.8 136.01, 150.85 143.86" stroke="#1971c2" stroke-width="4" fill="none"></path></g><g transform="translate(582.7777777777774 116.58831251511765) rotate(0 73.33333333333394 73.33333333333212)"><path d="M148.11 120.54 C149.83 125.12, 150.42 132.73, 151.49 142.02 M147.8 119.05 C147.4 124.27, 147.96 132.25, 150.85 143.86" stroke="#1971c2" stroke-width="4" fill="none"></path></g></g><mask></mask><g transform="translate(659.4444444444453 266.6666666666679) rotate(0 105.13988494873047 25)"><text x="0" y="17.52" font-family="Virgil, Segoe UI Emoji" font-size="20px" fill="#6741d9" text-anchor="start" style="white-space: pre;" direction="ltr" dominant-baseline="alphabetic">Throughput Optimized</text><text x="0" y="42.519999999999996" font-family="Virgil, Segoe UI Emoji" font-size="20px" fill="#6741d9" text-anchor="start" style="white-space: pre;" direction="ltr" dominant-baseline="alphabetic">HDD Volume</text></g><g stroke-linecap="round"><g transform="translate(579.4444444444539 113.33333333333394) rotate(0 241.11111111110586 73.33333333333303)"><path d="M2.25 -0.22 C67.66 5.98, 312.42 12.88, 392.33 36.92 C472.24 60.95, 466.56 125.93, 481.71 143.98 M0.02 -2.81 C65.28 2.59, 311.42 7.9, 391.35 32.64 C471.29 57.38, 464.12 126.56, 479.63 145.63" stroke="#1971c2" stroke-width="4" fill="none"></path></g><g transform="translate(579.4444444444539 113.33333333333394) rotate(0 241.11111111110586 73.33333333333303)"><path d="M463.07 128.43 C469.02 131.84, 470.96 138.5, 478.61 144.87 M464.04 127.1 C467.29 132.08, 472.6 138.42, 480.38 145.17" stroke="#1971c2" stroke-width="4" fill="none"></path></g><g transform="translate(579.4444444444539 113.33333333333394) rotate(0 241.11111111110586 73.33333333333303)"><path d="M479.04 122.3 C480.27 127.64, 477.51 136.11, 478.61 144.87 M480 120.97 C478.51 127.71, 479.08 135.87, 480.38 145.17" stroke="#1971c2" stroke-width="4" fill="none"></path></g></g><mask></mask><g transform="translate(970.5555555555561 271.11111111111313) rotate(0 87.65992736816406 12.5)"><text x="0" y="17.52" font-family="Virgil, Segoe UI Emoji" font-size="20px" fill="#6741d9" text-anchor="start" style="white-space: pre;" direction="ltr" dominant-baseline="alphabetic">Cold HDD Volumes</text></g><g transform="translate(10 338.33333333333394) rotate(0 58.08997344970703 12.5)"><text x="0" y="17.52" font-family="Virgil, Segoe UI Emoji" font-size="20px" fill="#2f9e44" text-anchor="start" style="white-space: pre;" direction="ltr" dominant-baseline="alphabetic">* GP2/GP3</text></g><g transform="translate(10 399.44444444444525) rotate(0 147.04986572265625 12.5)"><text x="0" y="17.52" font-family="Virgil, Segoe UI Emoji" font-size="20px" fill="#2f9e44" text-anchor="start" style="white-space: pre;" direction="ltr" dominant-baseline="alphabetic">* Multi attach not supported</text></g><g transform="translate(10 460.55555555555475) rotate(0 75.4099349975586 12.5)"><text x="0" y="17.52" font-family="Virgil, Segoe UI Emoji" font-size="20px" fill="#2f9e44" text-anchor="start" style="white-space: pre;" direction="ltr" dominant-baseline="alphabetic">* Boot Volumes</text></g><g transform="translate(360.7011761135518 338.33333333333394) rotate(0 40.44996643066406 12.5)"><text x="0" y="17.52" font-family="Virgil, Segoe UI Emoji" font-size="20px" fill="#2f9e44" text-anchor="start" style="white-space: pre;" direction="ltr" dominant-baseline="alphabetic">* io2/io1</text></g><g transform="translate(360.7011761135518 392.08333333333394) rotate(0 67.97994232177734 12.5)"><text x="0" y="17.52" font-family="Virgil, Segoe UI Emoji" font-size="20px" fill="#2f9e44" text-anchor="start" style="white-space: pre;" direction="ltr" dominant-baseline="alphabetic">* Higher IOPS</text></g><g transform="translate(360.7011761135518 445.83333333333394) rotate(0 75.4099349975586 12.5)"><text x="0" y="17.52" font-family="Virgil, Segoe UI Emoji" font-size="20px" fill="#2f9e44" text-anchor="start" style="white-space: pre;" direction="ltr" dominant-baseline="alphabetic">* Boot Volumes</text></g><g transform="translate(663.8888888888887 338.33333333333394) rotate(0 23.949981689453125 12.5)"><text x="0" y="17.52" font-family="Virgil, Segoe UI Emoji" font-size="20px" fill="#e03131" text-anchor="start" style="white-space: pre;" direction="ltr" dominant-baseline="alphabetic">* st1</text></g><g transform="translate(663.8888888888887 390.55555555555657) rotate(0 87.22994232177734 25)"><text x="0" y="17.52" font-family="Virgil, Segoe UI Emoji" font-size="20px" fill="#e03131" text-anchor="start" style="white-space: pre;" direction="ltr" dominant-baseline="alphabetic">* Data Warehose</text><text x="0" y="42.519999999999996" font-family="Virgil, Segoe UI Emoji" font-size="20px" fill="#e03131" text-anchor="start" style="white-space: pre;" direction="ltr" dominant-baseline="alphabetic"></text></g><g transform="translate(958.3333333333335 338.33333333333394) rotate(0 23.319984436035156 12.5)"><text x="0" y="17.52" font-family="Virgil, Segoe UI Emoji" font-size="20px" fill="#e03131" text-anchor="start" style="white-space: pre;" direction="ltr" dominant-baseline="alphabetic">* sc1</text></g><g transform="translate(958.3333333333335 401.6666666666679) rotate(0 129.55990600585938 12.5)"><text x="0" y="17.52" font-family="Virgil, Segoe UI Emoji" font-size="20px" fill="#e03131" text-anchor="start" style="white-space: pre;" direction="ltr" dominant-baseline="alphabetic">* Infrequent data access</text></g><g transform="translate(958.3333333333335 465.0000000000018) rotate(0 70.96994018554688 12.5)"><text x="0" y="17.52" font-family="Virgil, Segoe UI Emoji" font-size="20px" fill="#e03131" text-anchor="start" style="white-space: pre;" direction="ltr" dominant-baseline="alphabetic">* Lowest cost</text></g></svg>