<svg version="1.1" xmlns="http://www.w3.org/2000/svg" viewBox="0 0 710.3449102752165 795.1691919191926" width="710.3449102752165" height="795.1691919191926">
  <!-- svg-source:excalidraw -->
  
  <defs>
    <style class="style-fonts">
      @font-face {
        font-family: "Virgil";
        src: url("https://excalidraw.com/Virgil.woff2");
      }
      @font-face {
        font-family: "Cascadia";
        src: url("https://excalidraw.com/Cascadia.woff2");
      }
      @font-face {
        font-family: "Assistant";
        src: url("https://excalidraw.com/Assistant-Regular.woff2");
      }
    </style>
    
  </defs>
  <rect x="0" y="0" width="710.3449102752165" height="795.1691919191926" fill="#ffffff"></rect><g stroke-linecap="round" transform="translate(145.62127229436328 10) rotate(0 209.55118284324544 67.5220478050469)"><path d="M32 0 C122.73 -1.61, 213.34 -2.59, 387.1 0 M32 0 C151.74 -1.63, 268.33 -2.55, 387.1 0 M387.1 0 C408.92 -2.42, 419.45 13.28, 419.1 32 M387.1 0 C405.36 -3.16, 422.77 9.26, 419.1 32 M419.1 32 C422.17 46.42, 415.27 66.51, 419.1 103.04 M419.1 32 C420.09 55.39, 419.89 75.86, 419.1 103.04 M419.1 103.04 C416.36 127.78, 412.3 131.05, 387.1 135.04 M419.1 103.04 C418.36 119.94, 412.02 134.43, 387.1 135.04 M387.1 135.04 C304.47 137.31, 219.37 140.19, 32 135.04 M387.1 135.04 C289.23 136.77, 190.69 138.83, 32 135.04 M32 135.04 C11.95 137.36, 3.4 126.68, 0 103.04 M32 135.04 C13 137.19, -4.38 127.89, 0 103.04 M0 103.04 C2.34 79.49, -0.22 62.69, 0 32 M0 103.04 C-1.4 85.23, -0.67 69.65, 0 32 M0 32 C-2 11.76, 13.67 3.64, 32 0 M0 32 C0.02 10.61, 14.94 2.79, 32 0" stroke="#1971c2" stroke-width="4" fill="none"></path></g><g transform="translate(320.1775820907337 53.947539735181635) rotate(0 34.994873046875 23.57450806986526)"><text x="34.994873046875" y="33.04203051072297" font-family="Virgil, Segoe UI Emoji" font-size="37.719212911784204px" fill="#1971c2" text-anchor="middle" style="white-space: pre;" direction="ltr" dominant-baseline="alphabetic">EFS</text></g><g transform="translate(10 176.82602500798566) rotate(0 345.17245513760827 13.096948927703124)"><text x="0" y="18.35668361706831" font-family="Virgil, Segoe UI Emoji" font-size="20.955118284324556px" fill="#f08c00" text-anchor="start" style="white-space: pre;" direction="ltr" dominant-baseline="alphabetic">Managed NFS (network file system) that can be attached to EC2</text></g><g transform="translate(47.22676635310381 234.80185226128197) rotate(0 235.06385389956745 13.096948927703124)"><text x="0" y="18.35668361706831" font-family="Virgil, Segoe UI Emoji" font-size="20.955118284324556px" fill="#e03131" text-anchor="start" style="white-space: pre;" direction="ltr" dominant-baseline="alphabetic">-&gt; Can attach to multiple EC2 in multiple-AZ</text></g><g transform="translate(47.22676635310381 280.7284865010952) rotate(0 307.94568878450445 13.096948927703124)"><text x="0" y="18.35668361706831" font-family="Virgil, Segoe UI Emoji" font-size="20.955118284324556px" fill="#e03131" text-anchor="start" style="white-space: pre;" direction="ltr" dominant-baseline="alphabetic">-&gt; Highly available, scalable, expensive (3Xgp2), pay per use</text></g><g transform="translate(47.22676635310381 326.65512074090657) rotate(0 257.70584385779307 13.096948927703124)"><text x="0" y="18.356683617068313" font-family="Virgil, Segoe UI Emoji" font-size="20.955118284324563px" fill="#e03131" text-anchor="start" style="white-space: pre;" direction="ltr" dominant-baseline="alphabetic">-&gt; Content management, web serving, data sharing</text></g><g transform="translate(47.22676635310381 372.58175498071796) rotate(0 108.3169076090071 13.096948927703124)"><text x="0" y="18.35668361706831" font-family="Virgil, Segoe UI Emoji" font-size="20.955118284324556px" fill="#e03131" text-anchor="start" style="white-space: pre;" direction="ltr" dominant-baseline="alphabetic">-&gt; uses NFS protocol</text></g><g transform="translate(47.22676635310381 418.50838922053117) rotate(0 255.2855302539515 13.096948927703124)"><text x="0" y="18.35668361706831" font-family="Virgil, Segoe UI Emoji" font-size="20.955118284324556px" fill="#e03131" text-anchor="start" style="white-space: pre;" direction="ltr" dominant-baseline="alphabetic">-&gt; Uses security group to control access to EFS</text></g><g transform="translate(47.22676635310381 464.43502346034256) rotate(0 207.9269981038483 13.096948927703124)"><text x="0" y="18.35668361706831" font-family="Virgil, Segoe UI Emoji" font-size="20.955118284324556px" fill="#e03131" text-anchor="start" style="white-space: pre;" direction="ltr" dominant-baseline="alphabetic">-&gt; Compatible with Linux based AMI only</text></g><g transform="translate(47.22676635310381 510.36165770015396) rotate(0 270.5094224085144 13.096948927703124)"><text x="0" y="18.35668361706831" font-family="Virgil, Segoe UI Emoji" font-size="20.955118284324556px" fill="#e03131" text-anchor="start" style="white-space: pre;" direction="ltr" dominant-baseline="alphabetic">-&gt; Auto scaling so no need to plan for the capacity</text></g><g transform="translate(10.791858201259856 606.7633661150667) rotate(0 180.31387924897922 9.898227515749568)"><text x="0" y="13.873355686075058" font-family="Virgil, Segoe UI Emoji" font-size="15.837164025199836px" fill="#2f9e44" text-anchor="start" style="white-space: pre;" direction="ltr" dominant-baseline="alphabetic">Performance Mode (set at EFS creation time)</text></g><g transform="translate(10.791858201259856 638.4376941654664) rotate(0 110.38493176014595 19.796455031500045)"><text x="0" y="13.873355686075058" font-family="Virgil, Segoe UI Emoji" font-size="15.837164025199836px" fill="#2f9e44" text-anchor="start" style="white-space: pre;" direction="ltr" dominant-baseline="alphabetic">* General Purpose (default)</text><text x="0" y="33.669810717574855" font-family="Virgil, Segoe UI Emoji" font-size="15.837164025199836px" fill="#2f9e44" text-anchor="start" style="white-space: pre;" direction="ltr" dominant-baseline="alphabetic">* Max I/O</text></g><g transform="translate(10 693.8677682536672) rotate(0 66.57145228288664 9.898227515749568)"><text x="0" y="13.873355686075058" font-family="Virgil, Segoe UI Emoji" font-size="15.837164025199836px" fill="#2f9e44" text-anchor="start" style="white-space: pre;" direction="ltr" dominant-baseline="alphabetic">Throughput Mode</text></g><g transform="translate(10 723.9583799015454) rotate(0 123.99695200745828 29.694682547249613)"><text x="0" y="13.873355686075058" font-family="Virgil, Segoe UI Emoji" font-size="15.837164025199836px" fill="#2f9e44" text-anchor="start" style="white-space: pre;" direction="ltr" dominant-baseline="alphabetic">* Bursting</text><text x="0" y="33.669810717574855" font-family="Virgil, Segoe UI Emoji" font-size="15.837164025199836px" fill="#2f9e44" text-anchor="start" style="white-space: pre;" direction="ltr" dominant-baseline="alphabetic">* Provisioned: fixed throughput </text><text x="0" y="53.46626574907465" font-family="Virgil, Segoe UI Emoji" font-size="15.837164025199836px" fill="#2f9e44" text-anchor="start" style="white-space: pre;" direction="ltr" dominant-baseline="alphabetic">* Elastic: Auto Scale</text></g><g transform="translate(408.45996956409954 624.7146464646448) rotate(0 71.3199462890625 12.5)"><text x="0" y="17.52" font-family="Virgil, Segoe UI Emoji" font-size="20px" fill="#6741d9" text-anchor="start" style="white-space: pre;" direction="ltr" dominant-baseline="alphabetic">EFS Life Cycle</text></g><g transform="translate(408.45996956409954 669.8661616161608) rotate(0 55.41996765136719 12.5)"><text x="0" y="17.52" font-family="Virgil, Segoe UI Emoji" font-size="20px" fill="#6741d9" text-anchor="start" style="white-space: pre;" direction="ltr" dominant-baseline="alphabetic">Standard  </text></g><g transform="translate(408.45996956409954 715.0176767676767) rotate(0 34.879966735839844 12.5)"><text x="0" y="17.52" font-family="Virgil, Segoe UI Emoji" font-size="20px" fill="#6741d9" text-anchor="start" style="white-space: pre;" direction="ltr" dominant-baseline="alphabetic">Achieve</text></g><g transform="translate(408.45996956409954 760.1691919191926) rotate(0 114.14990997314453 12.5)"><text x="0" y="17.52" font-family="Virgil, Segoe UI Emoji" font-size="20px" fill="#6741d9" text-anchor="start" style="white-space: pre;" direction="ltr" dominant-baseline="alphabetic">Infrequent Access (IA)</text></g></svg>