<svg version="1.1" xmlns="http://www.w3.org/2000/svg" viewBox="0 0 762.5 575.4827181060418" width="762.5" height="575.4827181060418">
  <!-- svg-source:excalidraw -->
  
  <defs>
    <style class="style-fonts">
      @font-face {
        font-family: "Virgil";
        src: url("https://excalidraw.com/Virgil.woff2");
      }
      @font-face {
        font-family: "Cascadia";
        src: url("https://excalidraw.com/Cascadia.woff2");
      }
      @font-face {
        font-family: "Assistant";
        src: url("https://excalidraw.com/Assistant-Regular.woff2");
      }
    </style>
    
  </defs>
  <rect x="0" y="0" width="762.5" height="575.4827181060418" fill="#ffffff"></rect><g stroke-linecap="round" transform="translate(171.75675675675666 10) rotate(0 209.49324324324334 38.4677419354839)"><path d="M19.23 0 C147.4 -2.03, 279.66 0.49, 399.75 0 M19.23 0 C120.35 3.28, 221.55 4.33, 399.75 0 M399.75 0 C410.81 -1.02, 416.45 3.19, 418.99 19.23 M399.75 0 C415.58 -3.31, 418.65 6.09, 418.99 19.23 M418.99 19.23 C416.32 29.17, 417.12 42.76, 418.99 57.7 M418.99 19.23 C420.13 34.87, 420.61 48.03, 418.99 57.7 M418.99 57.7 C421.06 68.61, 414.55 74.63, 399.75 76.94 M418.99 57.7 C414.67 69.52, 415.87 79.56, 399.75 76.94 M399.75 76.94 C322 78.65, 242.03 77.51, 19.23 76.94 M399.75 76.94 C320.08 82.09, 237.92 81.23, 19.23 76.94 M19.23 76.94 C9.16 75.12, 2.06 67.45, 0 57.7 M19.23 76.94 C6.24 79.83, 1.47 70.27, 0 57.7 M0 57.7 C-2.35 41.93, -2.97 29.68, 0 19.23 M0 57.7 C2.09 48.02, 0.66 37.2, 0 19.23 M0 19.23 C-0.64 7.09, 10.13 -3.86, 19.23 0 M0 19.23 C-2.25 8.07, 8.67 3.56, 19.23 0" stroke="#6741d9" stroke-width="4" fill="none"></path></g><g transform="translate(303.86752172668 35.47188317349537) rotate(0 77.3824782733202 12.99585876198762)"><text x="0" y="18.214995640802098" font-family="Virgil, Segoe UI Emoji" font-size="20.793374019180476px" fill="#6741d9" text-anchor="start" style="white-space: pre;" direction="ltr" dominant-baseline="alphabetic">EBS Snapshots</text></g><g transform="translate(44.050262451171875 118.9677419354839) rotate(0 223.23983764648438 12.5)"><text x="0" y="17.52" font-family="Virgil, Segoe UI Emoji" font-size="20px" fill="#e8590c" text-anchor="start" style="white-space: pre;" direction="ltr" dominant-baseline="alphabetic">-&gt; Backup of EBS volume at a point in time </text></g><g transform="translate(44.050262451171875 157.4677419354839) rotate(0 310.8797607421875 25)"><text x="0" y="17.52" font-family="Virgil, Segoe UI Emoji" font-size="20px" fill="#e8590c" text-anchor="start" style="white-space: pre;" direction="ltr" dominant-baseline="alphabetic">-&gt; Detach volume from EC2 then take snapshot (recommended)</text><text x="0" y="42.519999999999996" font-family="Virgil, Segoe UI Emoji" font-size="20px" fill="#e8590c" text-anchor="start" style="white-space: pre;" direction="ltr" dominant-baseline="alphabetic"> </text></g><g transform="translate(44.050262451171875 197.4677419354839) rotate(0 337.1997375488281 50)"><text x="0" y="17.52" font-family="Virgil, Segoe UI Emoji" font-size="20px" fill="#e8590c" text-anchor="start" style="white-space: pre;" direction="ltr" dominant-baseline="alphabetic">-&gt; After creating a snapshot we can restore the snapshot and </text><text x="0" y="42.519999999999996" font-family="Virgil, Segoe UI Emoji" font-size="20px" fill="#e8590c" text-anchor="start" style="white-space: pre;" direction="ltr" dominant-baseline="alphabetic">attach it in another region, quite similar to how we do in WhatsApp.</text><text x="0" y="67.52" font-family="Virgil, Segoe UI Emoji" font-size="20px" fill="#e8590c" text-anchor="start" style="white-space: pre;" direction="ltr" dominant-baseline="alphabetic"></text><text x="0" y="92.52" font-family="Virgil, Segoe UI Emoji" font-size="20px" fill="#e8590c" text-anchor="start" style="white-space: pre;" direction="ltr" dominant-baseline="alphabetic"></text></g><g transform="translate(45.41033935546784 255.9677419354839) rotate(0 333.2998046875 37.5)"><text x="0" y="17.52" font-family="Virgil, Segoe UI Emoji" font-size="20px" fill="#e8590c" text-anchor="start" style="white-space: pre;" direction="ltr" dominant-baseline="alphabetic">-&gt; In WhatsApp we take a backup of chats on current device and </text><text x="0" y="42.519999999999996" font-family="Virgil, Segoe UI Emoji" font-size="20px" fill="#e8590c" text-anchor="start" style="white-space: pre;" direction="ltr" dominant-baseline="alphabetic">restore them on other device</text><text x="0" y="67.52" font-family="Virgil, Segoe UI Emoji" font-size="20px" fill="#e8590c" text-anchor="start" style="white-space: pre;" direction="ltr" dominant-baseline="alphabetic"> </text></g><g stroke-linecap="round" transform="translate(10 345.9677419354839) rotate(0 131.5 108)"><path d="M32 0 C87.81 2.99, 138.15 3.28, 231 0 M32 0 C87.24 -0.95, 140 0.58, 231 0 M231 0 C254.17 -2.4, 264.48 13.18, 263 32 M231 0 C248.71 2.01, 263.3 8.04, 263 32 M263 32 C265.19 83.25, 262.92 130.72, 263 184 M263 32 C264.47 87.57, 264.89 141.25, 263 184 M263 184 C265.89 204.13, 252.55 217.02, 231 216 M263 184 C264.33 205.83, 256.92 213.24, 231 216 M231 216 C166.72 215.52, 96.79 219.17, 32 216 M231 216 C151.22 218.81, 70.92 218.15, 32 216 M32 216 C9.69 217.57, -3.41 204.97, 0 184 M32 216 C14.48 213.08, -1.53 208.28, 0 184 M0 184 C1.7 144.03, -4.15 102.36, 0 32 M0 184 C-3.83 133.21, -4.47 83.43, 0 32 M0 32 C1.29 13.07, 13.21 1.07, 32 0 M0 32 C4.48 13.04, 12.11 -3.95, 32 0" stroke="#9c36b5" stroke-width="4" fill="none"></path></g><g stroke-linecap="round" transform="translate(111.37602106463828 393.91971803842534) rotate(0 28.75393804180692 29.54802389705901)"><path d="M57.51 29.55 C57.51 31.26, 57.36 32.99, 57.07 34.68 C56.78 36.36, 56.34 38.05, 55.77 39.65 C55.2 41.26, 54.49 42.84, 53.66 44.32 C52.82 45.8, 51.85 47.23, 50.78 48.54 C49.71 49.85, 48.51 51.08, 47.24 52.18 C45.96 53.28, 44.57 54.28, 43.13 55.14 C41.69 55.99, 40.15 56.73, 38.59 57.31 C37.02 57.9, 35.39 58.35, 33.75 58.65 C32.11 58.94, 30.42 59.1, 28.75 59.1 C27.09 59.1, 25.4 58.94, 23.76 58.65 C22.12 58.35, 20.48 57.9, 18.92 57.31 C17.36 56.73, 15.82 55.99, 14.38 55.14 C12.94 54.28, 11.55 53.28, 10.27 52.18 C9 51.08, 7.8 49.85, 6.73 48.54 C5.66 47.23, 4.68 45.8, 3.85 44.32 C3.02 42.84, 2.3 41.26, 1.73 39.65 C1.16 38.05, 0.73 36.36, 0.44 34.68 C0.15 32.99, 0 31.26, 0 29.55 C0 27.84, 0.15 26.1, 0.44 24.42 C0.73 22.73, 1.16 21.05, 1.73 19.44 C2.3 17.83, 3.02 16.26, 3.85 14.77 C4.68 13.29, 5.66 11.87, 6.73 10.55 C7.8 9.24, 9 8.01, 10.27 6.91 C11.55 5.81, 12.94 4.81, 14.38 3.96 C15.82 3.1, 17.36 2.37, 18.92 1.78 C20.48 1.2, 22.12 0.75, 23.76 0.45 C25.4 0.15, 27.09 0, 28.75 0 C30.42 0, 32.11 0.15, 33.75 0.45 C35.39 0.75, 37.02 1.2, 38.59 1.78 C40.15 2.37, 41.69 3.1, 43.13 3.96 C44.57 4.81, 45.96 5.81, 47.24 6.91 C48.51 8.01, 49.71 9.24, 50.78 10.55 C51.85 11.87, 52.82 13.29, 53.66 14.77 C54.49 16.26, 55.2 17.83, 55.77 19.44 C56.34 21.05, 56.78 22.73, 57.07 24.42 C57.36 26.1, 57.44 28.69, 57.51 29.55 C57.58 30.4, 57.58 28.69, 57.51 29.55" stroke="none" stroke-width="0" fill="#fd7e14"></path><path d="M57.51 29.55 C57.51 31.26, 57.36 32.99, 57.07 34.68 C56.78 36.36, 56.34 38.05, 55.77 39.65 C55.2 41.26, 54.49 42.84, 53.66 44.32 C52.82 45.8, 51.85 47.23, 50.78 48.54 C49.71 49.85, 48.51 51.08, 47.24 52.18 C45.96 53.28, 44.57 54.28, 43.13 55.14 C41.69 55.99, 40.15 56.73, 38.59 57.31 C37.02 57.9, 35.39 58.35, 33.75 58.65 C32.11 58.94, 30.42 59.1, 28.75 59.1 C27.09 59.1, 25.4 58.94, 23.76 58.65 C22.12 58.35, 20.48 57.9, 18.92 57.31 C17.36 56.73, 15.82 55.99, 14.38 55.14 C12.94 54.28, 11.55 53.28, 10.27 52.18 C9 51.08, 7.8 49.85, 6.73 48.54 C5.66 47.23, 4.68 45.8, 3.85 44.32 C3.02 42.84, 2.3 41.26, 1.73 39.65 C1.16 38.05, 0.73 36.36, 0.44 34.68 C0.15 32.99, 0 31.26, 0 29.55 C0 27.84, 0.15 26.1, 0.44 24.42 C0.73 22.73, 1.16 21.05, 1.73 19.44 C2.3 17.83, 3.02 16.26, 3.85 14.77 C4.68 13.29, 5.66 11.87, 6.73 10.55 C7.8 9.24, 9 8.01, 10.27 6.91 C11.55 5.81, 12.94 4.81, 14.38 3.96 C15.82 3.1, 17.36 2.37, 18.92 1.78 C20.48 1.2, 22.12 0.75, 23.76 0.45 C25.4 0.15, 27.09 0, 28.75 0 C30.42 0, 32.11 0.15, 33.75 0.45 C35.39 0.75, 37.02 1.2, 38.59 1.78 C40.15 2.37, 41.69 3.1, 43.13 3.96 C44.57 4.81, 45.96 5.81, 47.24 6.91 C48.51 8.01, 49.71 9.24, 50.78 10.55 C51.85 11.87, 52.82 13.29, 53.66 14.77 C54.49 16.26, 55.2 17.83, 55.77 19.44 C56.34 21.05, 56.78 22.73, 57.07 24.42 C57.36 26.1, 57.44 28.69, 57.51 29.55 C57.58 30.4, 57.58 28.69, 57.51 29.55" stroke="#fd7e14" stroke-width="2" fill="none"></path></g><g stroke-linecap="round" transform="translate(127.5298687155805 404.2401574628075) rotate(0 11.718074759895899 12.585814690096413)"><path d="M5.86 0 C8.31 0, 10.75 0, 17.58 0 C21.48 0, 23.44 1.95, 23.44 5.86 C23.44 9.16, 23.44 12.47, 23.44 19.31 C23.44 23.22, 21.48 25.17, 17.58 25.17 C13.79 25.17, 10 25.17, 5.86 25.17 C1.95 25.17, 0 23.22, 0 19.31 C0 15.64, 0 11.97, 0 5.86 C0 1.95, 1.95 0, 5.86 0" stroke="none" stroke-width="0" fill="#fd7e14"></path><path d="M5.86 0 C10.51 0, 15.17 0, 17.58 0 M5.86 0 C8.23 0, 10.61 0, 17.58 0 M17.58 0 C21.48 0, 23.44 1.95, 23.44 5.86 M17.58 0 C21.48 0, 23.44 1.95, 23.44 5.86 M23.44 5.86 C23.44 8.72, 23.44 11.58, 23.44 19.31 M23.44 5.86 C23.44 9.98, 23.44 14.1, 23.44 19.31 M23.44 19.31 C23.44 23.22, 21.48 25.17, 17.58 25.17 M23.44 19.31 C23.44 23.22, 21.48 25.17, 17.58 25.17 M17.58 25.17 C14.01 25.17, 10.45 25.17, 5.86 25.17 M17.58 25.17 C12.9 25.17, 8.22 25.17, 5.86 25.17 M5.86 25.17 C1.95 25.17, 0 23.22, 0 19.31 M5.86 25.17 C1.95 25.17, 0 23.22, 0 19.31 M0 19.31 C0 14.94, 0 10.56, 0 5.86 M0 19.31 C0 16.01, 0 12.7, 0 5.86 M0 5.86 C0 1.95, 1.95 0, 5.86 0 M0 5.86 C0 1.95, 1.95 0, 5.86 0" stroke="#fff" stroke-width="2" fill="none"></path></g><g transform="translate(132.8482810369137 435.5751422035728) rotate(0 6.601084035389704 4.271289669958151)"><text x="0" y="6.821823651793997" font-family="Cascadia, Segoe UI Emoji" font-size="7.341890935987626px" fill="#fff" text-anchor="start" style="white-space: pre;" direction="ltr" dominant-baseline="alphabetic">EC2</text></g><g transform="translate(81.99999999999977 358.9677419354839) rotate(0 58.12995910644531 12.5)"><text x="0" y="17.52" font-family="Virgil, Segoe UI Emoji" font-size="20px" fill="#9c36b5" text-anchor="start" style="white-space: pre;" direction="ltr" dominant-baseline="alphabetic">US-EAST-1A</text></g><g stroke-linecap="round" transform="translate(122.08953857421852 497.8826196341224) rotate(0 18.04042053222645 18.040420532226562)"><path d="M0 0 C0 0, 0 0, 0 0 M0 0 C0 0, 0 0, 0 0 M0.13 12.04 C4.18 7.39, 8.22 2.74, 10.63 -0.03 M0.13 12.04 C3.86 7.76, 7.58 3.48, 10.63 -0.03 M0.27 24.08 C8.64 14.45, 17.01 4.82, 21.26 -0.07 M0.27 24.08 C7.81 15.4, 15.36 6.72, 21.26 -0.07 M0.4 36.12 C8.55 26.75, 16.7 17.37, 31.89 -0.1 M0.4 36.12 C9.02 26.21, 17.64 16.29, 31.89 -0.1 M11.03 36.09 C18.9 27.04, 26.76 17.99, 36.62 6.65 M11.03 36.09 C20.45 25.25, 29.87 14.41, 36.62 6.65 M21.66 36.05 C25.91 31.17, 30.16 26.28, 36.75 18.7 M21.66 36.05 C26.99 29.92, 32.32 23.79, 36.75 18.7 M32.29 36.02 C33.64 34.47, 34.99 32.91, 36.88 30.74 M32.29 36.02 C33.66 34.45, 35.03 32.87, 36.88 30.74 M0.25 36.3 C0.25 36.3, 0.25 36.3, 0.25 36.3 M0.25 36.3 C0.25 36.3, 0.25 36.3, 0.25 36.3 M12.29 36.16 C9.25 33.52, 6.22 30.89, 0.21 25.67 M12.29 36.16 C9.34 33.6, 6.39 31.03, 0.21 25.67 M24.33 36.03 C16.28 29.03, 8.23 22.03, 0.18 15.04 M24.33 36.03 C18.42 30.89, 12.51 25.76, 0.18 15.04 M36.37 35.9 C25.89 26.78, 15.4 17.67, 0.14 4.41 M36.37 35.9 C27.73 28.39, 19.09 20.88, 0.14 4.41 M36.34 25.27 C29.54 19.36, 22.74 13.45, 6.9 -0.32 M36.34 25.27 C28.46 18.42, 20.58 11.57, 6.9 -0.32 M36.3 14.64 C30.53 9.62, 24.75 4.59, 18.94 -0.45 M36.3 14.64 C32.05 10.94, 27.79 7.24, 18.94 -0.45 M36.27 4.01 C35.13 3.02, 34 2.04, 30.98 -0.59 M36.27 4.01 C34.82 2.75, 33.38 1.49, 30.98 -0.59" stroke="#40c05788" stroke-width="1" fill="none"></path><path d="M0 0 C8.54 0, 17.08 0, 36.08 0 M0 0 C11.21 0, 22.43 0, 36.08 0 M36.08 0 C36.08 7.96, 36.08 15.92, 36.08 36.08 M36.08 0 C36.08 12.76, 36.08 25.52, 36.08 36.08 M36.08 36.08 C24.61 36.08, 13.14 36.08, 0 36.08 M36.08 36.08 C21.97 36.08, 7.86 36.08, 0 36.08 M0 36.08 C0 28.3, 0 20.52, 0 0 M0 36.08 C0 26.11, 0 16.13, 0 0" stroke="#1971c2" stroke-width="2" fill="none"></path></g><g transform="translate(128.99205599034235 536.7850278014857) rotate(0 11.137903116102734 6.652804200004539)"><text x="11.137903116102716" y="9.158693782006523" font-family="Virgil, Segoe UI Emoji" font-size="11.088007000007899px" fill="#1971c2" text-anchor="middle" style="white-space: pre;" direction="ltr" dominant-baseline="alphabetic">EBS</text></g><g stroke-linecap="round"><g transform="translate(150.63894354892363 525.5108275574403) rotate(347.8150297286332 1.2515995486678548 1.8875723759156244)"><path d="M0 0 C0.93 1.41, 1.87 2.81, 2.5 3.78 M0 0 C0.74 1.11, 1.48 2.23, 2.5 3.78" stroke="#1971c2" stroke-width="2" fill="none"></path></g></g><mask></mask><g stroke-linecap="round"><g transform="translate(152.58104683527495 502.132318661932) rotate(1.7147489031136585 -1.3522439867465437 1.9924500433289722)"><path d="M0 0 C-1.02 1.5, -2.04 3, -2.7 3.98 M0 0 C-0.75 1.11, -1.5 2.21, -2.7 3.98" stroke="#1971c2" stroke-width="2" fill="none"></path></g></g><mask></mask><g stroke-linecap="round"><g transform="translate(154.92003945268038 527.2521290221839) rotate(330.3350417630171 -1.9480199453571458 1.3931589527710457)"><path d="M0 0 C-0.47 0.88, -0.93 1.77, -1.47 2.79 M0 0 C-0.37 0.7, -0.74 1.4, -1.47 2.79 M-1.47 2.79 C-2.21 2.28, -2.95 1.78, -3.9 1.13 M-1.47 2.79 C-2.26 2.25, -3.05 1.71, -3.9 1.13" stroke="#1971c2" stroke-width="2" fill="none"></path></g></g><mask></mask><g stroke-linecap="round"><g transform="translate(128.8121901781317 501.7754558152801) rotate(142.4753661383674 -1.7964259030173935 1.227647772653654)"><path d="M0 0 C-0.5 0.72, -0.99 1.44, -1.69 2.46 M0 0 C-0.4 0.58, -0.8 1.16, -1.69 2.46 M-1.69 2.46 C-2.18 1.88, -2.68 1.3, -3.59 0.23 M-1.69 2.46 C-2.15 1.92, -2.61 1.39, -3.59 0.23" stroke="#1971c2" stroke-width="2" fill="none"></path></g></g><mask></mask><g stroke-linecap="round"><g transform="translate(127.0277000297715 502.5148579959932) rotate(347.8150297286332 1.2515995486678548 1.8875723759156244)"><path d="M0 0 C0.67 1.01, 1.34 2.01, 2.5 3.78 M0 0 C0.59 0.89, 1.18 1.78, 2.5 3.78" stroke="#1971c2" stroke-width="2" fill="none"></path></g></g><mask></mask><g stroke-linecap="round"><g transform="translate(129.81283576215196 525.3729744132943) rotate(3.9451862290376525 -1.3522439867465437 1.9924500433289722)"><path d="M0 0 C-0.6 0.88, -1.19 1.76, -2.7 3.98 M0 0 C-0.96 1.41, -1.91 2.82, -2.7 3.98" stroke="#1971c2" stroke-width="2" fill="none"></path></g></g><mask></mask><g stroke-linecap="round"><g transform="translate(154.3756405985066 501.33719837513945) rotate(220.82937908555525 -1.7964259030173935 1.227647772653654)"><path d="M0 0 C-0.57 0.82, -1.13 1.65, -1.69 2.46 M0 0 C-0.57 0.83, -1.15 1.67, -1.69 2.46 M-1.69 2.46 C-2.42 1.61, -3.14 0.76, -3.59 0.23 M-1.69 2.46 C-2.2 1.86, -2.71 1.26, -3.59 0.23" stroke="#1971c2" stroke-width="2" fill="none"></path></g></g><mask></mask><g stroke-linecap="round"><g transform="translate(128.82763572879026 527.7312081567097) rotate(38.039922017610984 -1.7964259030173935 1.227647772653654)"><path d="M0 0 C-0.6 0.87, -1.2 1.74, -1.69 2.46 M0 0 C-0.53 0.76, -1.05 1.52, -1.69 2.46 M-1.69 2.46 C-2.27 1.78, -2.85 1.1, -3.59 0.23 M-1.69 2.46 C-2.39 1.64, -3.09 0.82, -3.59 0.23" stroke="#1971c2" stroke-width="2" fill="none"></path></g></g><mask></mask><g stroke-linecap="round"><g transform="translate(133.4904875086463 507.93969722272595) rotate(0 6.413141174108318 8.335602624925286)"><path d="M0 0 C0 2.36, -0.04 11.36, 0 14.14 C0.04 16.92, -0.07 16.11, 0.22 16.7 C0.52 17.28, 1.13 17.36, 1.77 17.64 C2.41 17.92, 3.28 18.22, 4.08 18.38 C4.87 18.53, 5.78 18.57, 6.54 18.57 C7.3 18.57, 7.97 18.49, 8.64 18.38 C9.32 18.27, 9.96 18.2, 10.62 17.91 C11.27 17.61, 12.23 17.22, 12.59 16.6 C12.94 15.97, 12.68 16.58, 12.72 14.14 C12.76 11.69, 12.84 4.29, 12.83 1.93 C12.82 -0.44, 12.96 0.45, 12.66 -0.06 C12.37 -0.57, 11.63 -0.84, 11.07 -1.12 C10.51 -1.4, 9.97 -1.59, 9.28 -1.72 C8.59 -1.85, 7.59 -1.87, 6.95 -1.9 C6.32 -1.93, 6.25 -1.96, 5.48 -1.89 C4.71 -1.83, 3.25 -1.83, 2.33 -1.51 C1.42 -1.2, 0.39 -0.25, 0 0 M0 0 C0 2.36, -0.04 11.36, 0 14.14 C0.04 16.92, -0.07 16.11, 0.22 16.7 C0.52 17.28, 1.13 17.36, 1.77 17.64 C2.41 17.92, 3.28 18.22, 4.08 18.38 C4.87 18.53, 5.78 18.57, 6.54 18.57 C7.3 18.57, 7.97 18.49, 8.64 18.38 C9.32 18.27, 9.96 18.2, 10.62 17.91 C11.27 17.61, 12.23 17.22, 12.59 16.6 C12.94 15.97, 12.68 16.58, 12.72 14.14 C12.76 11.69, 12.84 4.29, 12.83 1.93 C12.82 -0.44, 12.96 0.45, 12.66 -0.06 C12.37 -0.57, 11.63 -0.84, 11.07 -1.12 C10.51 -1.4, 9.97 -1.59, 9.28 -1.72 C8.59 -1.85, 7.59 -1.87, 6.95 -1.9 C6.32 -1.93, 6.25 -1.96, 5.48 -1.89 C4.71 -1.83, 3.25 -1.83, 2.33 -1.51 C1.42 -1.2, 0.39 -0.25, 0 0" stroke="#1971c2" stroke-width="2" fill="none"></path></g></g><mask></mask><g stroke-linecap="round" transform="translate(133.44326270491183 505.9727141688354) rotate(0 6.4017864397408175 1.7406129490950661)"><path d="M12.8 1.74 C12.8 1.84, 12.77 1.94, 12.71 2.04 C12.64 2.14, 12.54 2.24, 12.42 2.34 C12.29 2.43, 12.13 2.52, 11.95 2.61 C11.76 2.7, 11.54 2.78, 11.31 2.86 C11.07 2.94, 10.8 3.01, 10.52 3.07 C10.23 3.14, 9.92 3.2, 9.6 3.25 C9.28 3.3, 8.94 3.34, 8.59 3.38 C8.24 3.41, 7.88 3.44, 7.51 3.45 C7.15 3.47, 6.77 3.48, 6.4 3.48 C6.03 3.48, 5.66 3.47, 5.29 3.45 C4.93 3.44, 4.56 3.41, 4.21 3.38 C3.86 3.34, 3.52 3.3, 3.2 3.25 C2.88 3.2, 2.57 3.14, 2.29 3.07 C2 3.01, 1.74 2.94, 1.5 2.86 C1.26 2.78, 1.04 2.7, 0.86 2.61 C0.67 2.52, 0.51 2.43, 0.39 2.34 C0.26 2.24, 0.16 2.14, 0.1 2.04 C0.03 1.94, 0 1.84, 0 1.74 C0 1.64, 0.03 1.54, 0.1 1.44 C0.16 1.34, 0.26 1.24, 0.39 1.15 C0.51 1.05, 0.67 0.96, 0.86 0.87 C1.04 0.78, 1.26 0.7, 1.5 0.62 C1.74 0.54, 2 0.47, 2.29 0.41 C2.57 0.34, 2.88 0.28, 3.2 0.23 C3.52 0.18, 3.86 0.14, 4.21 0.1 C4.56 0.07, 4.93 0.04, 5.29 0.03 C5.66 0.01, 6.03 0, 6.4 0 C6.77 0, 7.15 0.01, 7.51 0.03 C7.88 0.04, 8.24 0.07, 8.59 0.1 C8.94 0.14, 9.28 0.18, 9.6 0.23 C9.92 0.28, 10.23 0.34, 10.52 0.41 C10.8 0.47, 11.07 0.54, 11.31 0.62 C11.54 0.7, 11.76 0.78, 11.95 0.87 C12.13 0.96, 12.29 1.05, 12.42 1.15 C12.54 1.24, 12.64 1.34, 12.71 1.44 C12.77 1.54, 12.79 1.69, 12.8 1.74 C12.82 1.79, 12.82 1.69, 12.8 1.74" stroke="none" stroke-width="0" fill="#ffffff"></path><path d="M12.8 1.74 C12.8 1.84, 12.77 1.94, 12.71 2.04 C12.64 2.14, 12.54 2.24, 12.42 2.34 C12.29 2.43, 12.13 2.52, 11.95 2.61 C11.76 2.7, 11.54 2.78, 11.31 2.86 C11.07 2.94, 10.8 3.01, 10.52 3.07 C10.23 3.14, 9.92 3.2, 9.6 3.25 C9.28 3.3, 8.94 3.34, 8.59 3.38 C8.24 3.41, 7.88 3.44, 7.51 3.45 C7.15 3.47, 6.77 3.48, 6.4 3.48 C6.03 3.48, 5.66 3.47, 5.29 3.45 C4.93 3.44, 4.56 3.41, 4.21 3.38 C3.86 3.34, 3.52 3.3, 3.2 3.25 C2.88 3.2, 2.57 3.14, 2.29 3.07 C2 3.01, 1.74 2.94, 1.5 2.86 C1.26 2.78, 1.04 2.7, 0.86 2.61 C0.67 2.52, 0.51 2.43, 0.39 2.34 C0.26 2.24, 0.16 2.14, 0.1 2.04 C0.03 1.94, 0 1.84, 0 1.74 C0 1.64, 0.03 1.54, 0.1 1.44 C0.16 1.34, 0.26 1.24, 0.39 1.15 C0.51 1.05, 0.67 0.96, 0.86 0.87 C1.04 0.78, 1.26 0.7, 1.5 0.62 C1.74 0.54, 2 0.47, 2.29 0.41 C2.57 0.34, 2.88 0.28, 3.2 0.23 C3.52 0.18, 3.86 0.14, 4.21 0.1 C4.56 0.07, 4.93 0.04, 5.29 0.03 C5.66 0.01, 6.03 0, 6.4 0 C6.77 0, 7.15 0.01, 7.51 0.03 C7.88 0.04, 8.24 0.07, 8.59 0.1 C8.94 0.14, 9.28 0.18, 9.6 0.23 C9.92 0.28, 10.23 0.34, 10.52 0.41 C10.8 0.47, 11.07 0.54, 11.31 0.62 C11.54 0.7, 11.76 0.78, 11.95 0.87 C12.13 0.96, 12.29 1.05, 12.42 1.15 C12.54 1.24, 12.64 1.34, 12.71 1.44 C12.77 1.54, 12.79 1.69, 12.8 1.74 C12.82 1.79, 12.82 1.69, 12.8 1.74" stroke="#1971c2" stroke-width="2" fill="none"></path></g><g stroke-linecap="round"><g transform="translate(139.32085098961034 493.97437476664163) rotate(0 0.06042812491409677 -18.003316415578865)"><path d="M0.89 -0.87 C0.73 -7.01, 0.01 -31.09, -0.02 -36.75 M-0.11 1.28 C-0.51 -4.72, -1.1 -29.29, -1.04 -35.61" stroke="#1971c2" stroke-width="4" fill="none"></path></g><g transform="translate(139.32085098961034 493.97437476664163) rotate(0 0.06042812491409677 -18.003316415578865)"><path d="M3.98 -18.96 C1.78 -24.14, 2.23 -30.78, -1.96 -35.14 M5.08 -18.63 C2.85 -24.34, 1.29 -31.06, -0.62 -35.65" stroke="#1971c2" stroke-width="4" fill="none"></path></g><g transform="translate(139.32085098961034 493.97437476664163) rotate(0 0.06042812491409677 -18.003316415578865)"><path d="M-8.34 -18.84 C-5.91 -24.16, -0.84 -30.84, -1.96 -35.14 M-7.24 -18.5 C-4.77 -24.29, -1.65 -31.06, -0.62 -35.65" stroke="#1971c2" stroke-width="4" fill="none"></path></g></g><mask></mask><g stroke-linecap="round" transform="translate(489.5 345.9677419354839) rotate(0 131.5 108)"><path d="M32 0 C101.82 -4.99, 160.69 -3.33, 231 0 M32 0 C111.36 1.82, 186.22 4.33, 231 0 M231 0 C249.44 -0.37, 260.93 14.29, 263 32 M231 0 C250.28 4.5, 261.12 10.49, 263 32 M263 32 C261.67 68.53, 265.72 108.09, 263 184 M263 32 C261.3 88.59, 264.3 142.83, 263 184 M263 184 C266.55 203.15, 253.05 214.37, 231 216 M263 184 C267.52 208.07, 254.1 212.99, 231 216 M231 216 C179.06 209.88, 123.73 214.92, 32 216 M231 216 C170.99 219.27, 110.38 218.92, 32 216 M32 216 C10.87 216.41, 3.85 202.81, 0 184 M32 216 C10.4 214.74, -0.58 202.04, 0 184 M0 184 C-0.21 138.4, -2.7 89.16, 0 32 M0 184 C2.47 135.39, 2.05 89.83, 0 32 M0 32 C3.33 12.37, 13.11 -0.51, 32 0 M0 32 C3.98 6.64, 6.49 -1.3, 32 0" stroke="#9c36b5" stroke-width="4" fill="none"></path></g><g stroke-linecap="round" transform="translate(590.8760210646378 393.91971803842443) rotate(0 28.753938041806805 29.54802389705901)"><path d="M57.51 29.55 C57.51 31.26, 57.36 32.99, 57.07 34.68 C56.78 36.36, 56.34 38.05, 55.77 39.65 C55.2 41.26, 54.49 42.84, 53.66 44.32 C52.82 45.8, 51.85 47.23, 50.78 48.54 C49.71 49.85, 48.51 51.08, 47.24 52.18 C45.96 53.28, 44.57 54.28, 43.13 55.14 C41.69 55.99, 40.15 56.73, 38.59 57.31 C37.02 57.9, 35.39 58.35, 33.75 58.65 C32.11 58.94, 30.42 59.1, 28.75 59.1 C27.09 59.1, 25.4 58.94, 23.76 58.65 C22.12 58.35, 20.48 57.9, 18.92 57.31 C17.36 56.73, 15.82 55.99, 14.38 55.14 C12.94 54.28, 11.55 53.28, 10.27 52.18 C9 51.08, 7.8 49.85, 6.73 48.54 C5.66 47.23, 4.68 45.8, 3.85 44.32 C3.02 42.84, 2.3 41.26, 1.73 39.65 C1.16 38.05, 0.73 36.36, 0.44 34.68 C0.15 32.99, 0 31.26, 0 29.55 C0 27.84, 0.15 26.1, 0.44 24.42 C0.73 22.73, 1.16 21.05, 1.73 19.44 C2.3 17.83, 3.02 16.26, 3.85 14.77 C4.68 13.29, 5.66 11.87, 6.73 10.55 C7.8 9.24, 9 8.01, 10.27 6.91 C11.55 5.81, 12.94 4.81, 14.38 3.96 C15.82 3.1, 17.36 2.37, 18.92 1.78 C20.48 1.2, 22.12 0.75, 23.76 0.45 C25.4 0.15, 27.09 0, 28.75 0 C30.42 0, 32.11 0.15, 33.75 0.45 C35.39 0.75, 37.02 1.2, 38.59 1.78 C40.15 2.37, 41.69 3.1, 43.13 3.96 C44.57 4.81, 45.96 5.81, 47.24 6.91 C48.51 8.01, 49.71 9.24, 50.78 10.55 C51.85 11.87, 52.82 13.29, 53.66 14.77 C54.49 16.26, 55.2 17.83, 55.77 19.44 C56.34 21.05, 56.78 22.73, 57.07 24.42 C57.36 26.1, 57.44 28.69, 57.51 29.55 C57.58 30.4, 57.58 28.69, 57.51 29.55" stroke="none" stroke-width="0" fill="#fd7e14"></path><path d="M57.51 29.55 C57.51 31.26, 57.36 32.99, 57.07 34.68 C56.78 36.36, 56.34 38.05, 55.77 39.65 C55.2 41.26, 54.49 42.84, 53.66 44.32 C52.82 45.8, 51.85 47.23, 50.78 48.54 C49.71 49.85, 48.51 51.08, 47.24 52.18 C45.96 53.28, 44.57 54.28, 43.13 55.14 C41.69 55.99, 40.15 56.73, 38.59 57.31 C37.02 57.9, 35.39 58.35, 33.75 58.65 C32.11 58.94, 30.42 59.1, 28.75 59.1 C27.09 59.1, 25.4 58.94, 23.76 58.65 C22.12 58.35, 20.48 57.9, 18.92 57.31 C17.36 56.73, 15.82 55.99, 14.38 55.14 C12.94 54.28, 11.55 53.28, 10.27 52.18 C9 51.08, 7.8 49.85, 6.73 48.54 C5.66 47.23, 4.68 45.8, 3.85 44.32 C3.02 42.84, 2.3 41.26, 1.73 39.65 C1.16 38.05, 0.73 36.36, 0.44 34.68 C0.15 32.99, 0 31.26, 0 29.55 C0 27.84, 0.15 26.1, 0.44 24.42 C0.73 22.73, 1.16 21.05, 1.73 19.44 C2.3 17.83, 3.02 16.26, 3.85 14.77 C4.68 13.29, 5.66 11.87, 6.73 10.55 C7.8 9.24, 9 8.01, 10.27 6.91 C11.55 5.81, 12.94 4.81, 14.38 3.96 C15.82 3.1, 17.36 2.37, 18.92 1.78 C20.48 1.2, 22.12 0.75, 23.76 0.45 C25.4 0.15, 27.09 0, 28.75 0 C30.42 0, 32.11 0.15, 33.75 0.45 C35.39 0.75, 37.02 1.2, 38.59 1.78 C40.15 2.37, 41.69 3.1, 43.13 3.96 C44.57 4.81, 45.96 5.81, 47.24 6.91 C48.51 8.01, 49.71 9.24, 50.78 10.55 C51.85 11.87, 52.82 13.29, 53.66 14.77 C54.49 16.26, 55.2 17.83, 55.77 19.44 C56.34 21.05, 56.78 22.73, 57.07 24.42 C57.36 26.1, 57.44 28.69, 57.51 29.55 C57.58 30.4, 57.58 28.69, 57.51 29.55" stroke="#fd7e14" stroke-width="2" fill="none"></path></g><g stroke-linecap="round" transform="translate(607.02986871558 404.2401574628084) rotate(0 11.718074759895899 12.585814690096413)"><path d="M5.86 0 C9.08 0, 12.3 0, 17.58 0 C21.48 0, 23.44 1.95, 23.44 5.86 C23.44 10.03, 23.44 14.19, 23.44 19.31 C23.44 23.22, 21.48 25.17, 17.58 25.17 C14.58 25.17, 11.59 25.17, 5.86 25.17 C1.95 25.17, 0 23.22, 0 19.31 C0 16, 0 12.69, 0 5.86 C0 1.95, 1.95 0, 5.86 0" stroke="none" stroke-width="0" fill="#fd7e14"></path><path d="M5.86 0 C8.26 0, 10.67 0, 17.58 0 M5.86 0 C8.9 0, 11.93 0, 17.58 0 M17.58 0 C21.48 0, 23.44 1.95, 23.44 5.86 M17.58 0 C21.48 0, 23.44 1.95, 23.44 5.86 M23.44 5.86 C23.44 9.9, 23.44 13.93, 23.44 19.31 M23.44 5.86 C23.44 11.06, 23.44 16.27, 23.44 19.31 M23.44 19.31 C23.44 23.22, 21.48 25.17, 17.58 25.17 M23.44 19.31 C23.44 23.22, 21.48 25.17, 17.58 25.17 M17.58 25.17 C15.12 25.17, 12.66 25.17, 5.86 25.17 M17.58 25.17 C14.29 25.17, 10.99 25.17, 5.86 25.17 M5.86 25.17 C1.95 25.17, 0 23.22, 0 19.31 M5.86 25.17 C1.95 25.17, 0 23.22, 0 19.31 M0 19.31 C0 14.11, 0 8.91, 0 5.86 M0 19.31 C0 16.55, 0 13.78, 0 5.86 M0 5.86 C0 1.95, 1.95 0, 5.86 0 M0 5.86 C0 1.95, 1.95 0, 5.86 0" stroke="#fff" stroke-width="2" fill="none"></path></g><g transform="translate(612.3482810369132 435.5751422035728) rotate(0 6.601084035389704 4.271289669958151)"><text x="0" y="6.821823651793997" font-family="Cascadia, Segoe UI Emoji" font-size="7.341890935987626px" fill="#fff" text-anchor="start" style="white-space: pre;" direction="ltr" dominant-baseline="alphabetic">EC2</text></g><g transform="translate(561.5 358.9677419354839) rotate(0 58.83995819091797 12.5)"><text x="0" y="17.52" font-family="Virgil, Segoe UI Emoji" font-size="20px" fill="#9c36b5" text-anchor="start" style="white-space: pre;" direction="ltr" dominant-baseline="alphabetic">US-EAST-1B</text></g><g stroke-linecap="round" transform="translate(601.5895385742188 497.8826196341224) rotate(0 18.040420532226335 18.040420532226562)"><path d="M0 0 C0 0, 0 0, 0 0 M0 0 C0 0, 0 0, 0 0 M0.13 12.04 C4.16 7.41, 8.18 2.78, 10.63 -0.03 M0.13 12.04 C2.99 8.76, 5.84 5.48, 10.63 -0.03 M0.27 24.08 C8.52 14.59, 16.77 5.1, 21.26 -0.07 M0.27 24.08 C7.74 15.49, 15.21 6.89, 21.26 -0.07 M0.4 36.12 C8.27 27.06, 16.15 18, 31.89 -0.1 M0.4 36.12 C7.69 27.74, 14.98 19.35, 31.89 -0.1 M11.03 36.09 C20.42 25.28, 29.81 14.48, 36.62 6.65 M11.03 36.09 C17.98 28.1, 24.92 20.1, 36.62 6.65 M21.66 36.05 C27.55 29.28, 33.44 22.51, 36.75 18.7 M21.66 36.05 C26.66 30.3, 31.66 24.55, 36.75 18.7 M32.29 36.02 C33.75 34.34, 35.21 32.66, 36.88 30.74 M32.29 36.02 C33.8 34.28, 35.31 32.54, 36.88 30.74 M0.25 36.3 C0.25 36.3, 0.25 36.3, 0.25 36.3 M0.25 36.3 C0.25 36.3, 0.25 36.3, 0.25 36.3 M12.29 36.16 C8.04 32.47, 3.79 28.77, 0.21 25.67 M12.29 36.16 C9.64 33.86, 6.99 31.56, 0.21 25.67 M24.33 36.03 C17.45 30.05, 10.56 24.06, 0.18 15.04 M24.33 36.03 C17.14 29.78, 9.96 23.54, 0.18 15.04 M36.37 35.9 C28.7 29.23, 21.02 22.56, 0.14 4.41 M36.37 35.9 C27.38 28.08, 18.38 20.26, 0.14 4.41 M36.34 25.27 C28.31 18.29, 20.28 11.31, 6.9 -0.32 M36.34 25.27 C29.68 19.48, 23.01 13.69, 6.9 -0.32 M36.3 14.64 C31.57 10.52, 26.83 6.41, 18.94 -0.45 M36.3 14.64 C30.44 9.55, 24.59 4.45, 18.94 -0.45 M36.27 4.01 C35.21 3.09, 34.15 2.17, 30.98 -0.59 M36.27 4.01 C35.11 3, 33.95 1.99, 30.98 -0.59" stroke="#40c05788" stroke-width="1" fill="none"></path><path d="M0 0 C13.5 0, 27.01 0, 36.08 0 M0 0 C14.1 0, 28.19 0, 36.08 0 M36.08 0 C36.08 10.17, 36.08 20.34, 36.08 36.08 M36.08 0 C36.08 11.56, 36.08 23.13, 36.08 36.08 M36.08 36.08 C24.61 36.08, 13.14 36.08, 0 36.08 M36.08 36.08 C26.45 36.08, 16.82 36.08, 0 36.08 M0 36.08 C0 24.92, 0 13.76, 0 0 M0 36.08 C0 24.88, 0 13.69, 0 0" stroke="#1971c2" stroke-width="2" fill="none"></path></g><g transform="translate(608.4920559903421 536.7850278014857) rotate(0 11.137903116102734 6.652804200004539)"><text x="11.137903116102716" y="9.158693782006523" font-family="Virgil, Segoe UI Emoji" font-size="11.088007000007899px" fill="#1971c2" text-anchor="middle" style="white-space: pre;" direction="ltr" dominant-baseline="alphabetic">EBS</text></g><g stroke-linecap="round"><g transform="translate(630.1389435489236 525.5108275574412) rotate(347.8150297286332 1.2515995486678548 1.8875723759156244)"><path d="M0 0 C0.57 0.86, 1.14 1.72, 2.5 3.78 M0 0 C0.74 1.12, 1.48 2.24, 2.5 3.78" stroke="#1971c2" stroke-width="2" fill="none"></path></g></g><mask></mask><g stroke-linecap="round"><g transform="translate(632.0810468352747 502.1323186619329) rotate(1.7147489031136585 -1.3522439867465437 1.9924500433289722)"><path d="M0 0 C-0.67 0.99, -1.34 1.98, -2.7 3.98 M0 0 C-0.83 1.23, -1.66 2.45, -2.7 3.98" stroke="#1971c2" stroke-width="2" fill="none"></path></g></g><mask></mask><g stroke-linecap="round"><g transform="translate(634.4200394526806 527.2521290221839) rotate(330.3350417630171 -1.9480199453571458 1.3931589527710457)"><path d="M0 0 C-0.38 0.71, -0.75 1.42, -1.47 2.79 M0 0 C-0.38 0.73, -0.77 1.45, -1.47 2.79 M-1.47 2.79 C-2.04 2.4, -2.61 2.01, -3.9 1.13 M-1.47 2.79 C-2.1 2.36, -2.73 1.93, -3.9 1.13" stroke="#1971c2" stroke-width="2" fill="none"></path></g></g><mask></mask><g stroke-linecap="round"><g transform="translate(608.3121901781315 501.7754558152801) rotate(142.4753661383674 -1.7964259030175072 1.227647772653654)"><path d="M0 0 C-0.44 0.64, -0.88 1.27, -1.69 2.46 M0 0 C-0.61 0.89, -1.23 1.78, -1.69 2.46 M-1.69 2.46 C-2.42 1.6, -3.16 0.74, -3.59 0.23 M-1.69 2.46 C-2.38 1.66, -3.06 0.86, -3.59 0.23" stroke="#1971c2" stroke-width="2" fill="none"></path></g></g><mask></mask><g stroke-linecap="round"><g transform="translate(606.527700029771 502.5148579959923) rotate(347.8150297286332 1.2515995486678548 1.8875723759156244)"><path d="M0 0 C0.6 0.91, 1.2 1.81, 2.5 3.78 M0 0 C0.9 1.36, 1.81 2.72, 2.5 3.78" stroke="#1971c2" stroke-width="2" fill="none"></path></g></g><mask></mask><g stroke-linecap="round"><g transform="translate(609.3128357621517 525.3729744132934) rotate(3.9451862290376525 -1.3522439867465437 1.9924500433289722)"><path d="M0 0 C-0.76 1.12, -1.52 2.25, -2.7 3.98 M0 0 C-0.87 1.28, -1.73 2.55, -2.7 3.98" stroke="#1971c2" stroke-width="2" fill="none"></path></g></g><mask></mask><g stroke-linecap="round"><g transform="translate(633.8756405985068 501.33719837513945) rotate(220.82937908555525 -1.7964259030175072 1.227647772653654)"><path d="M0 0 C-0.51 0.74, -1.02 1.47, -1.69 2.46 M0 0 C-0.65 0.95, -1.31 1.9, -1.69 2.46 M-1.69 2.46 C-2.45 1.57, -3.21 0.68, -3.59 0.23 M-1.69 2.46 C-2.27 1.78, -2.84 1.11, -3.59 0.23" stroke="#1971c2" stroke-width="2" fill="none"></path></g></g><mask></mask><g stroke-linecap="round"><g transform="translate(608.3276357287905 527.7312081567097) rotate(38.039922017610984 -1.7964259030175072 1.227647772653654)"><path d="M0 0 C-0.64 0.92, -1.27 1.85, -1.69 2.46 M0 0 C-0.6 0.87, -1.21 1.75, -1.69 2.46 M-1.69 2.46 C-2.34 1.7, -2.98 0.95, -3.59 0.23 M-1.69 2.46 C-2.11 1.96, -2.53 1.47, -3.59 0.23" stroke="#1971c2" stroke-width="2" fill="none"></path></g></g><mask></mask><g stroke-linecap="round"><g transform="translate(612.9904875086459 507.93969722272504) rotate(0 6.413141174108432 8.335602624925286)"><path d="M0 0 C0 2.36, -0.04 11.36, 0 14.14 C0.04 16.92, -0.07 16.11, 0.22 16.7 C0.52 17.28, 1.13 17.36, 1.77 17.64 C2.41 17.92, 3.28 18.22, 4.08 18.38 C4.87 18.53, 5.78 18.57, 6.54 18.57 C7.3 18.57, 7.97 18.49, 8.64 18.38 C9.32 18.27, 9.96 18.2, 10.62 17.91 C11.27 17.61, 12.23 17.22, 12.59 16.6 C12.94 15.97, 12.68 16.58, 12.72 14.14 C12.76 11.69, 12.84 4.29, 12.83 1.93 C12.82 -0.44, 12.96 0.45, 12.66 -0.06 C12.37 -0.57, 11.63 -0.84, 11.07 -1.12 C10.51 -1.4, 9.97 -1.59, 9.28 -1.72 C8.59 -1.85, 7.59 -1.87, 6.95 -1.9 C6.32 -1.93, 6.25 -1.96, 5.48 -1.89 C4.71 -1.83, 3.25 -1.83, 2.33 -1.51 C1.42 -1.2, 0.39 -0.25, 0 0 M0 0 C0 2.36, -0.04 11.36, 0 14.14 C0.04 16.92, -0.07 16.11, 0.22 16.7 C0.52 17.28, 1.13 17.36, 1.77 17.64 C2.41 17.92, 3.28 18.22, 4.08 18.38 C4.87 18.53, 5.78 18.57, 6.54 18.57 C7.3 18.57, 7.97 18.49, 8.64 18.38 C9.32 18.27, 9.96 18.2, 10.62 17.91 C11.27 17.61, 12.23 17.22, 12.59 16.6 C12.94 15.97, 12.68 16.58, 12.72 14.14 C12.76 11.69, 12.84 4.29, 12.83 1.93 C12.82 -0.44, 12.96 0.45, 12.66 -0.06 C12.37 -0.57, 11.63 -0.84, 11.07 -1.12 C10.51 -1.4, 9.97 -1.59, 9.28 -1.72 C8.59 -1.85, 7.59 -1.87, 6.95 -1.9 C6.32 -1.93, 6.25 -1.96, 5.48 -1.89 C4.71 -1.83, 3.25 -1.83, 2.33 -1.51 C1.42 -1.2, 0.39 -0.25, 0 0" stroke="#1971c2" stroke-width="2" fill="none"></path></g></g><mask></mask><g stroke-linecap="round" transform="translate(612.9432627049118 505.9727141688354) rotate(0 6.4017864397408175 1.7406129490950661)"><path d="M12.8 1.74 C12.8 1.84, 12.77 1.94, 12.71 2.04 C12.64 2.14, 12.54 2.24, 12.42 2.34 C12.29 2.43, 12.13 2.52, 11.95 2.61 C11.76 2.7, 11.54 2.78, 11.31 2.86 C11.07 2.94, 10.8 3.01, 10.52 3.07 C10.23 3.14, 9.92 3.2, 9.6 3.25 C9.28 3.3, 8.94 3.34, 8.59 3.38 C8.24 3.41, 7.88 3.44, 7.51 3.45 C7.15 3.47, 6.77 3.48, 6.4 3.48 C6.03 3.48, 5.66 3.47, 5.29 3.45 C4.93 3.44, 4.56 3.41, 4.21 3.38 C3.86 3.34, 3.52 3.3, 3.2 3.25 C2.88 3.2, 2.57 3.14, 2.29 3.07 C2 3.01, 1.74 2.94, 1.5 2.86 C1.26 2.78, 1.04 2.7, 0.86 2.61 C0.67 2.52, 0.51 2.43, 0.39 2.34 C0.26 2.24, 0.16 2.14, 0.1 2.04 C0.03 1.94, 0 1.84, 0 1.74 C0 1.64, 0.03 1.54, 0.1 1.44 C0.16 1.34, 0.26 1.24, 0.39 1.15 C0.51 1.05, 0.67 0.96, 0.86 0.87 C1.04 0.78, 1.26 0.7, 1.5 0.62 C1.74 0.54, 2 0.47, 2.29 0.41 C2.57 0.34, 2.88 0.28, 3.2 0.23 C3.52 0.18, 3.86 0.14, 4.21 0.1 C4.56 0.07, 4.93 0.04, 5.29 0.03 C5.66 0.01, 6.03 0, 6.4 0 C6.77 0, 7.15 0.01, 7.51 0.03 C7.88 0.04, 8.24 0.07, 8.59 0.1 C8.94 0.14, 9.28 0.18, 9.6 0.23 C9.92 0.28, 10.23 0.34, 10.52 0.41 C10.8 0.47, 11.07 0.54, 11.31 0.62 C11.54 0.7, 11.76 0.78, 11.95 0.87 C12.13 0.96, 12.29 1.05, 12.42 1.15 C12.54 1.24, 12.64 1.34, 12.71 1.44 C12.77 1.54, 12.79 1.69, 12.8 1.74 C12.82 1.79, 12.82 1.69, 12.8 1.74" stroke="none" stroke-width="0" fill="#ffffff"></path><path d="M12.8 1.74 C12.8 1.84, 12.77 1.94, 12.71 2.04 C12.64 2.14, 12.54 2.24, 12.42 2.34 C12.29 2.43, 12.13 2.52, 11.95 2.61 C11.76 2.7, 11.54 2.78, 11.31 2.86 C11.07 2.94, 10.8 3.01, 10.52 3.07 C10.23 3.14, 9.92 3.2, 9.6 3.25 C9.28 3.3, 8.94 3.34, 8.59 3.38 C8.24 3.41, 7.88 3.44, 7.51 3.45 C7.15 3.47, 6.77 3.48, 6.4 3.48 C6.03 3.48, 5.66 3.47, 5.29 3.45 C4.93 3.44, 4.56 3.41, 4.21 3.38 C3.86 3.34, 3.52 3.3, 3.2 3.25 C2.88 3.2, 2.57 3.14, 2.29 3.07 C2 3.01, 1.74 2.94, 1.5 2.86 C1.26 2.78, 1.04 2.7, 0.86 2.61 C0.67 2.52, 0.51 2.43, 0.39 2.34 C0.26 2.24, 0.16 2.14, 0.1 2.04 C0.03 1.94, 0 1.84, 0 1.74 C0 1.64, 0.03 1.54, 0.1 1.44 C0.16 1.34, 0.26 1.24, 0.39 1.15 C0.51 1.05, 0.67 0.96, 0.86 0.87 C1.04 0.78, 1.26 0.7, 1.5 0.62 C1.74 0.54, 2 0.47, 2.29 0.41 C2.57 0.34, 2.88 0.28, 3.2 0.23 C3.52 0.18, 3.86 0.14, 4.21 0.1 C4.56 0.07, 4.93 0.04, 5.29 0.03 C5.66 0.01, 6.03 0, 6.4 0 C6.77 0, 7.15 0.01, 7.51 0.03 C7.88 0.04, 8.24 0.07, 8.59 0.1 C8.94 0.14, 9.28 0.18, 9.6 0.23 C9.92 0.28, 10.23 0.34, 10.52 0.41 C10.8 0.47, 11.07 0.54, 11.31 0.62 C11.54 0.7, 11.76 0.78, 11.95 0.87 C12.13 0.96, 12.29 1.05, 12.42 1.15 C12.54 1.24, 12.64 1.34, 12.71 1.44 C12.77 1.54, 12.79 1.69, 12.8 1.74 C12.82 1.79, 12.82 1.69, 12.8 1.74" stroke="#1971c2" stroke-width="2" fill="none"></path></g><g stroke-linecap="round"><g transform="translate(618.8208509896103 493.97437476664163) rotate(0 0.06042812491409677 -18.00331641557841)"><path d="M1.06 -0.65 C0.95 -6.85, 0.3 -30.72, 0.34 -36.5 M0.16 1.62 C-0.18 -4.48, -0.67 -28.74, -0.5 -35.22" stroke="#1971c2" stroke-width="4" fill="none"></path></g><g transform="translate(618.8208509896103 493.97437476664163) rotate(0 0.06042812491409677 -18.00331641557841)"><path d="M4.69 -17.98 C2.46 -23, 1.89 -30.59, -1.68 -35.91 M4.86 -19.01 C4.45 -22.8, 2.57 -26.5, -0.55 -35.39" stroke="#1971c2" stroke-width="4" fill="none"></path></g><g transform="translate(618.8208509896103 493.97437476664163) rotate(0 0.06042812491409677 -18.00331641557841)"><path d="M-7.63 -17.97 C-5.11 -23.1, -0.93 -30.7, -1.68 -35.91 M-7.46 -19 C-4.58 -22.8, -3.18 -26.5, -0.55 -35.39" stroke="#1971c2" stroke-width="4" fill="none"></path></g></g><mask></mask><g transform="translate(316.5380401611328 543.9217423233868) rotate(0 61.96195983886719 10.780487891327539)"><text x="61.96195983886719" y="14.84113833039441" font-family="Virgil, Segoe UI Emoji" font-size="17.96747981887943px" fill="#000000" text-anchor="middle" style="white-space: pre;" direction="ltr" dominant-baseline="alphabetic">EBS Snapshot</text></g><g stroke-linecap="round" transform="translate(349.26653253946915 480.8826196341206) rotate(0 29.23346746053153 29.2334674605313)"><path d="M0 0 C0 0, 0 0, 0 0 M0 0 C0 0, 0 0, 0 0 M0.13 12.04 C3.25 8.45, 6.38 4.86, 10.63 -0.03 M0.13 12.04 C3.42 8.26, 6.7 4.49, 10.63 -0.03 M0.27 24.08 C8.61 14.48, 16.96 4.88, 21.26 -0.07 M0.27 24.08 C7.63 15.61, 14.99 7.15, 21.26 -0.07 M-0.26 36.88 C8.98 26.25, 18.22 15.62, 31.89 -0.1 M-0.26 36.88 C10.5 24.51, 21.25 12.14, 31.89 -0.1 M-0.12 48.92 C14.71 31.85, 29.54 14.79, 42.52 -0.14 M-0.12 48.92 C13.72 33, 27.55 17.08, 42.52 -0.14 M1.98 58.69 C14.69 44.07, 27.4 29.45, 53.15 -0.17 M1.98 58.69 C13.57 45.36, 25.16 32.03, 53.15 -0.17 M12.61 58.66 C27.89 41.08, 43.18 23.5, 59.19 5.08 M12.61 58.66 C27.09 42, 41.58 25.33, 59.19 5.08 M23.24 58.63 C36.85 42.97, 50.46 27.31, 59.32 17.12 M23.24 58.63 C35.21 44.85, 47.19 31.07, 59.32 17.12 M33.87 58.59 C39.44 52.18, 45.02 45.77, 59.45 29.16 M33.87 58.59 C40.14 51.37, 46.42 44.15, 59.45 29.16 M44.5 58.56 C48.63 53.81, 52.76 49.06, 58.93 41.95 M44.5 58.56 C49.24 53.11, 53.97 47.66, 58.93 41.95 M55.13 58.52 C55.96 57.56, 56.8 56.6, 59.06 53.99 M55.13 58.52 C56.3 57.18, 57.47 55.83, 59.06 53.99 M-0.27 58.23 C-0.27 58.23, -0.27 58.23, -0.27 58.23 M-0.27 58.23 C-0.27 58.23, -0.27 58.23, -0.27 58.23 M12.53 58.76 C9.68 56.28, 6.82 53.8, -0.3 47.6 M12.53 58.76 C9.05 55.74, 5.58 52.72, -0.3 47.6 M24.57 58.62 C15.31 50.57, 6.05 42.52, -0.34 36.97 M24.57 58.62 C15.22 50.49, 5.87 42.37, -0.34 36.97 M36.61 58.49 C26.48 49.68, 16.35 40.88, -0.37 26.34 M36.61 58.49 C29.06 51.92, 21.5 45.36, -0.37 26.34 M48.65 58.36 C36.51 47.8, 24.36 37.24, 0.35 16.37 M48.65 58.36 C36.42 47.73, 24.19 37.1, 0.35 16.37 M59.18 56.91 C40.96 41.07, 22.74 25.23, 0.31 5.74 M59.18 56.91 C37.37 37.95, 15.55 18.99, 0.31 5.74 M59.15 46.28 C41.93 31.32, 24.71 16.35, 4.81 -0.96 M59.15 46.28 C44.17 33.27, 29.2 20.25, 4.81 -0.96 M59.11 35.65 C43.06 21.7, 27.01 7.74, 17.6 -0.43 M59.11 35.65 C47.62 25.66, 36.12 15.67, 17.6 -0.43 M59.08 25.02 C51.47 18.41, 43.86 11.79, 29.64 -0.57 M59.08 25.02 C47.54 14.99, 36.01 4.97, 29.64 -0.57 M59.04 14.39 C54.2 10.18, 49.36 5.98, 41.68 -0.7 M59.04 14.39 C54.44 10.39, 49.85 6.4, 41.68 -0.7 M59.01 3.76 C56.99 2, 54.97 0.25, 53.72 -0.83 M59.01 3.76 C57.5 2.45, 55.99 1.13, 53.72 -0.83" stroke="#40c05788" stroke-width="1" fill="none"></path><path d="M0 0 C15.51 0, 31.01 0, 58.47 0 M0 0 C15.61 0, 31.22 0, 58.47 0 M58.47 0 C58.47 18.81, 58.47 37.62, 58.47 58.47 M58.47 0 C58.47 22.21, 58.47 44.42, 58.47 58.47 M58.47 58.47 C44.04 58.47, 29.62 58.47, 0 58.47 M58.47 58.47 C42.61 58.47, 26.75 58.47, 0 58.47 M0 58.47 C0 41.08, 0 23.7, 0 0 M0 58.47 C0 37.84, 0 17.22, 0 0" stroke="#000000" stroke-width="2" fill="none"></path></g><g stroke-linecap="round" transform="translate(374.90650403622476 484.9616153482193) rotate(0 3.317073197331638 3.3170731973314105)"><path d="M6.63 3.32 C6.63 3.51, 6.62 3.7, 6.58 3.89 C6.55 4.08, 6.5 4.27, 6.43 4.45 C6.37 4.63, 6.29 4.81, 6.19 4.98 C6.09 5.14, 5.98 5.3, 5.86 5.45 C5.73 5.6, 5.6 5.73, 5.45 5.86 C5.3 5.98, 5.14 6.09, 4.98 6.19 C4.81 6.29, 4.63 6.37, 4.45 6.43 C4.27 6.5, 4.08 6.55, 3.89 6.58 C3.7 6.62, 3.51 6.63, 3.32 6.63 C3.13 6.63, 2.93 6.62, 2.74 6.58 C2.55 6.55, 2.36 6.5, 2.18 6.43 C2 6.37, 1.82 6.29, 1.66 6.19 C1.49 6.09, 1.33 5.98, 1.18 5.86 C1.04 5.73, 0.9 5.6, 0.78 5.45 C0.65 5.3, 0.54 5.14, 0.44 4.98 C0.35 4.81, 0.27 4.63, 0.2 4.45 C0.13 4.27, 0.08 4.08, 0.05 3.89 C0.02 3.7, 0 3.51, 0 3.32 C0 3.13, 0.02 2.93, 0.05 2.74 C0.08 2.55, 0.13 2.36, 0.2 2.18 C0.27 2, 0.35 1.82, 0.44 1.66 C0.54 1.49, 0.65 1.33, 0.78 1.18 C0.9 1.04, 1.04 0.9, 1.18 0.78 C1.33 0.65, 1.49 0.54, 1.66 0.44 C1.82 0.35, 2 0.27, 2.18 0.2 C2.36 0.13, 2.55 0.08, 2.74 0.05 C2.93 0.02, 3.13 0, 3.32 0 C3.51 0, 3.7 0.02, 3.89 0.05 C4.08 0.08, 4.27 0.13, 4.45 0.2 C4.63 0.27, 4.81 0.35, 4.98 0.44 C5.14 0.54, 5.3 0.65, 5.45 0.78 C5.6 0.9, 5.73 1.04, 5.86 1.18 C5.98 1.33, 6.09 1.49, 6.19 1.66 C6.29 1.82, 6.37 2, 6.43 2.18 C6.5 2.36, 6.55 2.55, 6.58 2.74 C6.62 2.93, 6.63 3.22, 6.63 3.32 C6.64 3.41, 6.64 3.22, 6.63 3.32" stroke="#000000" stroke-width="2" fill="none"></path></g><g stroke-linecap="round" transform="translate(397.0203253517684 500.9941358019887) rotate(0 3.317073197331638 3.3170731973314105)"><path d="M6.63 3.32 C6.63 3.51, 6.62 3.7, 6.58 3.89 C6.55 4.08, 6.5 4.27, 6.43 4.45 C6.37 4.63, 6.29 4.81, 6.19 4.98 C6.09 5.14, 5.98 5.3, 5.86 5.45 C5.73 5.6, 5.6 5.73, 5.45 5.86 C5.3 5.98, 5.14 6.09, 4.98 6.19 C4.81 6.29, 4.63 6.37, 4.45 6.43 C4.27 6.5, 4.08 6.55, 3.89 6.58 C3.7 6.62, 3.51 6.63, 3.32 6.63 C3.13 6.63, 2.93 6.62, 2.74 6.58 C2.55 6.55, 2.36 6.5, 2.18 6.43 C2 6.37, 1.82 6.29, 1.66 6.19 C1.49 6.09, 1.33 5.98, 1.18 5.86 C1.04 5.73, 0.9 5.6, 0.78 5.45 C0.65 5.3, 0.54 5.14, 0.44 4.98 C0.35 4.81, 0.27 4.63, 0.2 4.45 C0.13 4.27, 0.08 4.08, 0.05 3.89 C0.02 3.7, 0 3.51, 0 3.32 C0 3.13, 0.02 2.93, 0.05 2.74 C0.08 2.55, 0.13 2.36, 0.2 2.18 C0.27 2, 0.35 1.82, 0.44 1.66 C0.54 1.49, 0.65 1.33, 0.78 1.18 C0.9 1.04, 1.04 0.9, 1.18 0.78 C1.33 0.65, 1.49 0.54, 1.66 0.44 C1.82 0.35, 2 0.27, 2.18 0.2 C2.36 0.13, 2.55 0.08, 2.74 0.05 C2.93 0.02, 3.13 0, 3.32 0 C3.51 0, 3.7 0.02, 3.89 0.05 C4.08 0.08, 4.27 0.13, 4.45 0.2 C4.63 0.27, 4.81 0.35, 4.98 0.44 C5.14 0.54, 5.3 0.65, 5.45 0.78 C5.6 0.9, 5.73 1.04, 5.86 1.18 C5.98 1.33, 6.09 1.49, 6.19 1.66 C6.29 1.82, 6.37 2, 6.43 2.18 C6.5 2.36, 6.55 2.55, 6.58 2.74 C6.62 2.93, 6.63 3.22, 6.63 3.32 C6.64 3.41, 6.64 3.22, 6.63 3.32" stroke="#000000" stroke-width="2" fill="none"></path></g><g stroke-linecap="round" transform="translate(388.17479682555086 528.636412446419) rotate(0 3.317073197331638 3.3170731973314105)"><path d="M6.63 3.32 C6.63 3.51, 6.62 3.7, 6.58 3.89 C6.55 4.08, 6.5 4.27, 6.43 4.45 C6.37 4.63, 6.29 4.81, 6.19 4.98 C6.09 5.14, 5.98 5.3, 5.86 5.45 C5.73 5.6, 5.6 5.73, 5.45 5.86 C5.3 5.98, 5.14 6.09, 4.98 6.19 C4.81 6.29, 4.63 6.37, 4.45 6.43 C4.27 6.5, 4.08 6.55, 3.89 6.58 C3.7 6.62, 3.51 6.63, 3.32 6.63 C3.13 6.63, 2.93 6.62, 2.74 6.58 C2.55 6.55, 2.36 6.5, 2.18 6.43 C2 6.37, 1.82 6.29, 1.66 6.19 C1.49 6.09, 1.33 5.98, 1.18 5.86 C1.04 5.73, 0.9 5.6, 0.78 5.45 C0.65 5.3, 0.54 5.14, 0.44 4.98 C0.35 4.81, 0.27 4.63, 0.2 4.45 C0.13 4.27, 0.08 4.08, 0.05 3.89 C0.02 3.7, 0 3.51, 0 3.32 C0 3.13, 0.02 2.93, 0.05 2.74 C0.08 2.55, 0.13 2.36, 0.2 2.18 C0.27 2, 0.35 1.82, 0.44 1.66 C0.54 1.49, 0.65 1.33, 0.78 1.18 C0.9 1.04, 1.04 0.9, 1.18 0.78 C1.33 0.65, 1.49 0.54, 1.66 0.44 C1.82 0.35, 2 0.27, 2.18 0.2 C2.36 0.13, 2.55 0.08, 2.74 0.05 C2.93 0.02, 3.13 0, 3.32 0 C3.51 0, 3.7 0.02, 3.89 0.05 C4.08 0.08, 4.27 0.13, 4.45 0.2 C4.63 0.27, 4.81 0.35, 4.98 0.44 C5.14 0.54, 5.3 0.65, 5.45 0.78 C5.6 0.9, 5.73 1.04, 5.86 1.18 C5.98 1.33, 6.09 1.49, 6.19 1.66 C6.29 1.82, 6.37 2, 6.43 2.18 C6.5 2.36, 6.55 2.55, 6.58 2.74 C6.62 2.93, 6.63 3.22, 6.63 3.32 C6.64 3.41, 6.64 3.22, 6.63 3.32" stroke="#000000" stroke-width="2" fill="none"></path></g><g stroke-linecap="round" transform="translate(362.1910567797868 528.636412446419) rotate(0 3.317073197331638 3.3170731973314105)"><path d="M6.63 3.32 C6.63 3.51, 6.62 3.7, 6.58 3.89 C6.55 4.08, 6.5 4.27, 6.43 4.45 C6.37 4.63, 6.29 4.81, 6.19 4.98 C6.09 5.14, 5.98 5.3, 5.86 5.45 C5.73 5.6, 5.6 5.73, 5.45 5.86 C5.3 5.98, 5.14 6.09, 4.98 6.19 C4.81 6.29, 4.63 6.37, 4.45 6.43 C4.27 6.5, 4.08 6.55, 3.89 6.58 C3.7 6.62, 3.51 6.63, 3.32 6.63 C3.13 6.63, 2.93 6.62, 2.74 6.58 C2.55 6.55, 2.36 6.5, 2.18 6.43 C2 6.37, 1.82 6.29, 1.66 6.19 C1.49 6.09, 1.33 5.98, 1.18 5.86 C1.04 5.73, 0.9 5.6, 0.78 5.45 C0.65 5.3, 0.54 5.14, 0.44 4.98 C0.35 4.81, 0.27 4.63, 0.2 4.45 C0.13 4.27, 0.08 4.08, 0.05 3.89 C0.02 3.7, 0 3.51, 0 3.32 C0 3.13, 0.02 2.93, 0.05 2.74 C0.08 2.55, 0.13 2.36, 0.2 2.18 C0.27 2, 0.35 1.82, 0.44 1.66 C0.54 1.49, 0.65 1.33, 0.78 1.18 C0.9 1.04, 1.04 0.9, 1.18 0.78 C1.33 0.65, 1.49 0.54, 1.66 0.44 C1.82 0.35, 2 0.27, 2.18 0.2 C2.36 0.13, 2.55 0.08, 2.74 0.05 C2.93 0.02, 3.13 0, 3.32 0 C3.51 0, 3.7 0.02, 3.89 0.05 C4.08 0.08, 4.27 0.13, 4.45 0.2 C4.63 0.27, 4.81 0.35, 4.98 0.44 C5.14 0.54, 5.3 0.65, 5.45 0.78 C5.6 0.9, 5.73 1.04, 5.86 1.18 C5.98 1.33, 6.09 1.49, 6.19 1.66 C6.29 1.82, 6.37 2, 6.43 2.18 C6.5 2.36, 6.55 2.55, 6.58 2.74 C6.62 2.93, 6.63 3.22, 6.63 3.32 C6.64 3.41, 6.64 3.22, 6.63 3.32" stroke="#000000" stroke-width="2" fill="none"></path></g><g stroke-linecap="round" transform="translate(353.3455282535692 500.9941358019887) rotate(0 3.317073197331638 3.3170731973314105)"><path d="M6.63 3.32 C6.63 3.51, 6.62 3.7, 6.58 3.89 C6.55 4.08, 6.5 4.27, 6.43 4.45 C6.37 4.63, 6.29 4.81, 6.19 4.98 C6.09 5.14, 5.98 5.3, 5.86 5.45 C5.73 5.6, 5.6 5.73, 5.45 5.86 C5.3 5.98, 5.14 6.09, 4.98 6.19 C4.81 6.29, 4.63 6.37, 4.45 6.43 C4.27 6.5, 4.08 6.55, 3.89 6.58 C3.7 6.62, 3.51 6.63, 3.32 6.63 C3.13 6.63, 2.93 6.62, 2.74 6.58 C2.55 6.55, 2.36 6.5, 2.18 6.43 C2 6.37, 1.82 6.29, 1.66 6.19 C1.49 6.09, 1.33 5.98, 1.18 5.86 C1.04 5.73, 0.9 5.6, 0.78 5.45 C0.65 5.3, 0.54 5.14, 0.44 4.98 C0.35 4.81, 0.27 4.63, 0.2 4.45 C0.13 4.27, 0.08 4.08, 0.05 3.89 C0.02 3.7, 0 3.51, 0 3.32 C0 3.13, 0.02 2.93, 0.05 2.74 C0.08 2.55, 0.13 2.36, 0.2 2.18 C0.27 2, 0.35 1.82, 0.44 1.66 C0.54 1.49, 0.65 1.33, 0.78 1.18 C0.9 1.04, 1.04 0.9, 1.18 0.78 C1.33 0.65, 1.49 0.54, 1.66 0.44 C1.82 0.35, 2 0.27, 2.18 0.2 C2.36 0.13, 2.55 0.08, 2.74 0.05 C2.93 0.02, 3.13 0, 3.32 0 C3.51 0, 3.7 0.02, 3.89 0.05 C4.08 0.08, 4.27 0.13, 4.45 0.2 C4.63 0.27, 4.81 0.35, 4.98 0.44 C5.14 0.54, 5.3 0.65, 5.45 0.78 C5.6 0.9, 5.73 1.04, 5.86 1.18 C5.98 1.33, 6.09 1.49, 6.19 1.66 C6.29 1.82, 6.37 2, 6.43 2.18 C6.5 2.36, 6.55 2.55, 6.58 2.74 C6.62 2.93, 6.63 3.22, 6.63 3.32 C6.64 3.41, 6.64 3.22, 6.63 3.32" stroke="#000000" stroke-width="2" fill="none"></path></g><g stroke-linecap="round"><g transform="translate(358.87398358245537 502.09982686776675) rotate(0 8.292682993328981 -6.081300861774707)"><path d="M0 0 C4.09 -3, 8.18 -6, 16.59 -12.16 M0 0 C5.18 -3.8, 10.37 -7.6, 16.59 -12.16" stroke="#000000" stroke-width="2" fill="none"></path></g></g><mask></mask><g stroke-linecap="round"><g transform="translate(398.12601641754554 502.09982686776675) rotate(180 -8.292682993328981 -6.081300861774707)"><path d="M0 0 C-5.34 -3.91, -10.67 -7.83, -16.59 -12.16 M0 0 C-6.3 -4.62, -12.6 -9.24, -16.59 -12.16" stroke="#000000" stroke-width="2" fill="none"></path></g></g><mask></mask><g stroke-linecap="round"><g transform="translate(357.21544698378966 508.181127729541) rotate(0 3.317073197331638 9.951219591994686)"><path d="M0 0 C1.69 5.08, 3.38 10.15, 6.63 19.9 M0 0 C2 6, 4 12, 6.63 19.9" stroke="#000000" stroke-width="2" fill="none"></path></g></g><mask></mask><g stroke-linecap="round"><g transform="translate(399.78455301621125 508.181127729541) rotate(180 -3.317073197331638 9.951219591994686)"><path d="M0 0 C-2.19 6.58, -4.38 13.15, -6.63 19.9 M0 0 C-2.33 7, -4.67 14, -6.63 19.9" stroke="#000000" stroke-width="2" fill="none"></path></g></g><mask></mask><g stroke-linecap="round"><g transform="translate(368.82520317445005 531.4006401108627) rotate(0 9.951219591994686 0)"><path d="M0 0 C5.13 0, 10.27 0, 19.9 0 M0 0 C6.23 0, 12.46 0, 19.9 0" stroke="#000000" stroke-width="2" fill="none"></path></g></g><mask></mask><g stroke-linecap="round"><g transform="translate(378.22357723355617 491.59576174288213) rotate(0 0 3.0406504308871263)"><path d="M0 0 C0 2.08, 0 4.16, 0 6.08 M0 0 C0 1.27, 0 2.53, 0 6.08" stroke="#000000" stroke-width="2" fill="none"></path></g></g><mask></mask><g stroke-linecap="round"><g transform="translate(359.42682911534393 505.9697455979858) rotate(0 2.4878048979987852 1.1056910657771368)"><path d="M0 0 C1.25 0.56, 2.5 1.11, 4.98 2.21 M0 0 C1.15 0.51, 2.29 1.02, 4.98 2.21" stroke="#000000" stroke-width="2" fill="none"></path></g></g><mask></mask><g stroke-linecap="round"><g transform="translate(367.71951210867246 528.636412446419) rotate(0 1.1056910657771368 -1.9349593651099894)"><path d="M0 0 C0.85 -1.49, 1.71 -2.99, 2.21 -3.87 M0 0 C0.61 -1.07, 1.22 -2.13, 2.21 -3.87" stroke="#000000" stroke-width="2" fill="none"></path></g></g><mask></mask><g stroke-linecap="round"><g transform="translate(397.573170884657 505.9697455979858) rotate(0 -2.4878048979987852 0.8292682993328526)"><path d="M0 0 C-1.23 0.41, -2.45 0.82, -4.98 1.66 M0 0 C-1.35 0.45, -2.7 0.9, -4.98 1.66" stroke="#000000" stroke-width="2" fill="none"></path></g></g><mask></mask><g stroke-linecap="round"><g transform="translate(387.6219512926623 525.8721847819752) rotate(0 1.382113832221421 1.6585365986657052)"><path d="M0 0 C0.57 0.68, 1.13 1.36, 2.76 3.32 M0 0 C0.86 1.03, 1.72 2.07, 2.76 3.32" stroke="#000000" stroke-width="2" fill="none"></path></g></g><mask></mask><g stroke-linecap="round"><g transform="translate(369.3780487073386 514.2624285913153) rotate(0 9.951219591994686 -2.4878048979990126)"><path d="M0 0 C0.37 0.74, 0.83 3.22, 2.21 4.42 C3.59 5.62, 6.27 6.91, 8.29 7.19 C10.32 7.46, 12.72 6.91, 14.37 6.08 C16.03 5.25, 17.32 3.78, 18.24 2.21 C19.17 0.64, 20.09 -1.47, 19.9 -3.32 C19.72 -5.16, 18.34 -7.37, 17.14 -8.85 C15.94 -10.32, 14.47 -11.7, 12.72 -12.16 C10.96 -12.62, 8.66 -12.44, 6.63 -11.61 C4.61 -10.78, 1.57 -7.92, 0.55 -7.19 M0 0 C0.37 0.74, 0.83 3.22, 2.21 4.42 C3.59 5.62, 6.27 6.91, 8.29 7.19 C10.32 7.46, 12.72 6.91, 14.37 6.08 C16.03 5.25, 17.32 3.78, 18.24 2.21 C19.17 0.64, 20.09 -1.47, 19.9 -3.32 C19.72 -5.16, 18.34 -7.37, 17.14 -8.85 C15.94 -10.32, 14.47 -11.7, 12.72 -12.16 C10.96 -12.62, 8.66 -12.44, 6.63 -11.61 C4.61 -10.78, 1.57 -7.92, 0.55 -7.19" stroke="#000000" stroke-width="2" fill="none"></path></g><g transform="translate(369.3780487073386 514.2624285913153) rotate(0 9.951219591994686 -2.4878048979990126)"><path d="M2.48 -10.42 C1.96 -9.54, 1.43 -8.67, 0.55 -7.19 M2.48 -10.42 C1.73 -9.17, 0.99 -7.92, 0.55 -7.19" stroke="#000000" stroke-width="2" fill="none"></path></g><g transform="translate(369.3780487073386 514.2624285913153) rotate(0 9.951219591994686 -2.4878048979990126)"><path d="M4.1 -8.42 C3.14 -8.09, 2.18 -7.75, 0.55 -7.19 M4.1 -8.42 C2.73 -7.95, 1.36 -7.47, 0.55 -7.19" stroke="#000000" stroke-width="2" fill="none"></path></g></g><mask></mask><g mask="url(#mask-bVprEuO4OUweQdXjRaRwx)" stroke-linecap="round"><g transform="translate(160 516.9677419354839) rotate(0 87.5 0)"><path d="M1.24 1.63 C30.55 1.26, 144.28 -0.14, 173.56 -0.54 M-1.53 0.05 C28.93 -0.04, 149.57 2.49, 179.18 2.8" stroke="#1971c2" stroke-width="4" fill="none"></path></g><g transform="translate(160 516.9677419354839) rotate(0 87.5 0)"><path d="M156.72 9.94 C160.24 10.47, 165.19 8.99, 180.13 3.64 M155.87 10.1 C163.94 7.59, 172.86 4.34, 179.48 2.78" stroke="#1971c2" stroke-width="4" fill="none"></path></g><g transform="translate(160 516.9677419354839) rotate(0 87.5 0)"><path d="M156.99 -7.16 C160.56 -2.92, 165.45 -0.7, 180.13 3.64 M156.14 -7 C164.29 -3.35, 173.1 -0.45, 179.48 2.78" stroke="#1971c2" stroke-width="4" fill="none"></path></g></g><mask id="mask-bVprEuO4OUweQdXjRaRwx"><rect x="0" y="0" fill="#fff" width="435.0000000000002" height="616.9677419354839"></rect><rect x="203.5900421142578" y="504.4677419354839" fill="#000" width="87.81991577148438" height="25" opacity="1"></rect></mask><g transform="translate(203.5900421142578 504.4677419354839) rotate(0 45.23424082145107 13.62839641273058)"><text x="43.90995788574219" y="17.52" font-family="Virgil, Segoe UI Emoji" font-size="20px" fill="#1971c2" text-anchor="middle" style="white-space: pre;" direction="ltr" dominant-baseline="alphabetic">Snapshot</text></g><g mask="url(#mask-Fghx7BkKM2g9V0LGxdbuu)" stroke-linecap="round"><g transform="translate(411.0000000000009 516.9677419354839) rotate(0 91.49999999999955 -0.5)"><path d="M1.57 0.61 C32.27 0.19, 151.69 -2.14, 181.54 -2.29 M-1.03 -1.53 C30.86 -1.6, 155.94 -0.15, 187.15 0.65" stroke="#1971c2" stroke-width="4" fill="none"></path></g><g transform="translate(411.0000000000009 516.9677419354839) rotate(0 91.49999999999955 -0.5)"><path d="M163.95 7.75 C167.4 5.34, 173.65 5.13, 188.75 0.92 M163.54 8.62 C168.79 7.54, 175.82 4.39, 188.09 0.03" stroke="#1971c2" stroke-width="4" fill="none"></path></g><g transform="translate(411.0000000000009 516.9677419354839) rotate(0 91.49999999999955 -0.5)"><path d="M164.24 -9.35 C167.64 -8.28, 173.83 -5.01, 188.75 0.92 M163.83 -8.48 C169 -5.37, 175.95 -4.33, 188.09 0.03" stroke="#1971c2" stroke-width="4" fill="none"></path></g></g><mask id="mask-Fghx7BkKM2g9V0LGxdbuu"><rect x="0" y="0" fill="#fff" width="694.0000000000002" height="617.9677419354839"></rect><rect x="463.8600387573247" y="503.9677419354839" fill="#000" width="77.27992248535156" height="25" opacity="1"></rect></mask><g transform="translate(463.8600387573247 503.9677419354839) rotate(0 40.20066103324302 12.180298096537626)"><text x="38.63996124267578" y="17.52" font-family="Virgil, Segoe UI Emoji" font-size="20px" fill="#1971c2" text-anchor="middle" style="white-space: pre;" direction="ltr" dominant-baseline="alphabetic">Restore</text></g></svg>