<svg version="1.1" xmlns="http://www.w3.org/2000/svg" viewBox="0 0 811.1960232740257 504.9547905476302" width="811.1960232740257" height="504.9547905476302">
  <!-- svg-source:excalidraw -->
  
  <defs>
    <style class="style-fonts">
      @font-face {
        font-family: "Virgil";
        src: url("https://excalidraw.com/Virgil.woff2");
      }
      @font-face {
        font-family: "Cascadia";
        src: url("https://excalidraw.com/Cascadia.woff2");
      }
      @font-face {
        font-family: "Assistant";
        src: url("https://excalidraw.com/Assistant-Regular.woff2");
      }
    </style>
    
  </defs>
  <rect x="0" y="0" width="811.1960232740257" height="504.9547905476302" fill="#ffffff"></rect><g stroke-linecap="round" transform="translate(179.49758992369289 10) rotate(0 226.1004217133202 64.31300884289976)"><path d="M32 0 C157.36 -4.39, 280.82 -6.47, 420.2 0 M32 0 C120 2.73, 204.74 2.24, 420.2 0 M420.2 0 C441.67 -1.53, 453.62 9.3, 452.2 32 M420.2 0 C439.73 -2.33, 451.1 11.6, 452.2 32 M452.2 32 C449.44 46.67, 450.57 56.97, 452.2 96.63 M452.2 32 C451.66 54.83, 450.72 77.7, 452.2 96.63 M452.2 96.63 C453.66 115.48, 442.67 129.12, 420.2 128.63 M452.2 96.63 C456.62 114.6, 439.96 132.26, 420.2 128.63 M420.2 128.63 C281.02 125.93, 136.98 124.87, 32 128.63 M420.2 128.63 C330.38 125.76, 242.01 125.89, 32 128.63 M32 128.63 C11.99 126.69, 0.72 116.73, 0 96.63 M32 128.63 C7.04 130.2, 3.93 115.45, 0 96.63 M0 96.63 C-0.57 73.73, 1.16 57.47, 0 32 M0 96.63 C2.82 80.84, 0.65 59.91, 0 32 M0 32 C3.36 11.56, 9.26 2.2, 32 0 M0 32 C1.34 7.25, 7.14 -2.38, 32 0" stroke="#7950f2" stroke-width="4" fill="none"></path></g><g transform="translate(321.86807694463005 61.81300884289885) rotate(0 83.72993469238281 12.5)"><text x="83.72993469238281" y="17.52" font-family="Virgil, Segoe UI Emoji" font-size="20px" fill="#7950f2" text-anchor="middle" style="white-space: pre;" direction="ltr" dominant-baseline="alphabetic">Key Points (ALB)</text></g><g transform="translate(57.62828507451286 208.41174253487952) rotate(0 347.9697265625 50)"><text x="0" y="17.52" font-family="Virgil, Segoe UI Emoji" font-size="20px" fill="#7950f2" text-anchor="start" style="white-space: pre;" direction="ltr" dominant-baseline="alphabetic">* ALB provides fixed hostname (xxx.region.elb.amazonaws.com)</text><text x="0" y="42.519999999999996" font-family="Virgil, Segoe UI Emoji" font-size="20px" fill="#7950f2" text-anchor="start" style="white-space: pre;" direction="ltr" dominant-baseline="alphabetic">* The application servers cannot see the client IP directly.</text><text x="0" y="67.52" font-family="Virgil, Segoe UI Emoji" font-size="20px" fill="#7950f2" text-anchor="start" style="white-space: pre;" direction="ltr" dominant-baseline="alphabetic">    - True IP of the client is inserted in the header X-Forwarded-For</text><text x="0" y="92.52" font-family="Virgil, Segoe UI Emoji" font-size="20px" fill="#7950f2" text-anchor="start" style="white-space: pre;" direction="ltr" dominant-baseline="alphabetic">    - Get port (X-Forwarded-Port) and protocol (X-Forwarded-Porto)</text></g><g transform="translate(21.509994506835938 398.8927253469101) rotate(0 44.109962463378906 12.5)"><text x="0" y="17.52" font-family="Virgil, Segoe UI Emoji" font-size="20px" fill="#7950f2" text-anchor="start" style="white-space: pre;" direction="ltr" dominant-baseline="alphabetic">Client IP</text></g><g transform="translate(10 434.063902057871) rotate(0 55.619956970214844 12.5)"><text x="0" y="17.52" font-family="Virgil, Segoe UI Emoji" font-size="20px" fill="#7950f2" text-anchor="start" style="white-space: pre;" direction="ltr" dominant-baseline="alphabetic">12.34.56.74</text></g><g stroke-opacity="0" fill-opacity="0" stroke-linecap="round" transform="translate(330.9676015149571 378.1974673839595) rotate(0 58.37866158183556 58.37866158183533)"><path d="M76.75 2.94 C85.15 4.94, 93.55 12.44, 99.8 19.09 C106.04 25.74, 111.64 34.14, 114.23 42.82 C116.83 51.49, 117.1 62.2, 115.36 71.12 C113.63 80.05, 109.47 89.58, 103.83 96.38 C98.18 103.17, 90.01 108.39, 81.5 111.89 C72.99 115.39, 61.82 118.03, 52.76 117.36 C43.7 116.69, 34.64 113.05, 27.16 107.86 C19.68 102.68, 12.37 94.1, 7.87 86.23 C3.37 78.36, 0.42 69.39, 0.15 60.65 C-0.13 51.91, 2.45 41.99, 6.22 33.79 C9.99 25.59, 15.62 16.87, 22.77 11.46 C29.91 6.04, 39.07 2.25, 49.07 1.31 C59.08 0.36, 76.62 4.64, 82.8 5.79 C88.97 6.95, 86.63 7.34, 86.11 8.24 M72.7 1.79 C81.13 2.9, 91.64 7.98, 98.17 14.08 C104.7 20.18, 108.69 29.62, 111.89 38.37 C115.09 47.12, 118.28 57.51, 117.38 66.57 C116.48 75.63, 112.1 85.27, 106.5 92.73 C100.91 100.2, 92.03 107.56, 83.81 111.37 C75.58 115.18, 65.99 115.84, 57.17 115.58 C48.34 115.33, 38.67 114.26, 30.86 109.85 C23.05 105.44, 15.31 96.56, 10.31 89.15 C5.31 81.74, 1.93 74.21, 0.86 65.41 C-0.21 56.6, 0.79 44.92, 3.9 36.31 C7.02 27.69, 12.86 19.6, 19.55 13.73 C26.23 7.86, 34.99 3.21, 44.02 1.09 C53.05 -1.03, 68.91 0.84, 73.73 1 C78.54 1.16, 73.06 1.19, 72.93 2.06" stroke="none" stroke-width="0" fill="#d0bfff"></path><path d="M40.92 2.81 C48.86 -0.71, 59.29 -0.18, 68.21 1.43 C77.13 3.05, 87.26 6.96, 94.45 12.49 C101.64 18.03, 107.53 26.43, 111.35 34.64 C115.17 42.86, 117.84 52.84, 117.36 61.79 C116.89 70.75, 113.31 80.52, 108.48 88.37 C103.65 96.22, 96.15 104.03, 88.38 108.88 C80.62 113.74, 70.65 117.11, 61.89 117.48 C53.12 117.84, 43.88 114.99, 35.8 111.07 C27.72 107.14, 19.23 100.85, 13.41 93.94 C7.59 87.04, 2.78 78.27, 0.89 69.63 C-1.01 61, -0.74 50.95, 2.03 42.13 C4.8 33.31, 9.94 23.59, 17.5 16.71 C25.07 9.83, 41.26 3.27, 47.41 0.85 C53.56 -1.58, 54.44 1.15, 54.43 2.16 M43.58 2.84 C51.66 -0.29, 63.1 -1.08, 72.1 0.97 C81.1 3.03, 90.83 9.19, 97.58 15.19 C104.32 21.19, 109.28 28.61, 112.57 37 C115.87 45.39, 118.46 56.6, 117.34 65.53 C116.23 74.45, 110.9 83.35, 105.91 90.55 C100.92 97.74, 95.26 104.5, 87.41 108.7 C79.56 112.9, 68.21 115.48, 58.81 115.74 C49.42 116, 39.22 114.4, 31.02 110.28 C22.82 106.16, 14.85 98.53, 9.62 91.01 C4.39 83.5, 0.47 73.95, -0.35 65.19 C-1.17 56.43, 1.21 46.6, 4.68 38.46 C8.15 30.31, 13.87 22.32, 20.47 16.33 C27.08 10.34, 40.16 4.89, 44.29 2.52 C48.42 0.15, 45.37 1.47, 45.28 2.1" stroke="#1e1e1e" stroke-width="1" fill="none"></path></g><g stroke-linecap="round" transform="translate(355.5685622933388 427.2680237039185) rotate(0 10.248342658633192 7.738544456518866)"><path d="M3.87 0 C8.02 0.66, 11.2 -2.43, 16.63 0 C19.61 1.24, 21.95 4.24, 20.5 3.87 C21.36 6.34, 21.49 6.79, 20.5 11.61 C19.64 13.59, 22.08 17.36, 16.63 15.48 C11.83 15.74, 5.53 13.13, 3.87 15.48 C0.43 18.34, 0.09 15.93, 0 11.61 C-0.02 8.07, 0.62 6.97, 0 3.87 C1.44 -2.22, 2.63 2.66, 3.87 0" stroke="none" stroke-width="0" fill="#d0bfff"></path><path d="M3.87 0 C7.59 1.35, 12.64 0.07, 16.63 0 M3.87 0 C7.83 -0.08, 11.73 0.37, 16.63 0 M16.63 0 C20.17 -0.32, 21.09 -0.11, 20.5 3.87 M16.63 0 C21.17 -1.4, 22.48 3.22, 20.5 3.87 M20.5 3.87 C20.41 5.7, 20.21 7.72, 20.5 11.61 M20.5 3.87 C20.34 7.01, 20.75 9.44, 20.5 11.61 M20.5 11.61 C20.7 13.16, 20.08 15.71, 16.63 15.48 M20.5 11.61 C20.49 15.62, 20.09 14.67, 16.63 15.48 M16.63 15.48 C11.93 16.25, 7.87 14.63, 3.87 15.48 M16.63 15.48 C12.88 14.96, 9.06 15.32, 3.87 15.48 M3.87 15.48 C-0.31 13.85, -1.18 12.76, 0 11.61 M3.87 15.48 C3.11 15.45, 2.21 15.84, 0 11.61 M0 11.61 C-0.51 8.26, -0.66 5.62, 0 3.87 M0 11.61 C0.18 8.68, -0.13 5.77, 0 3.87 M0 3.87 C1.7 0.62, 1.84 -0.26, 3.87 0 M0 3.87 C1.51 2.43, 3.02 1.44, 3.87 0" stroke="#1e1e1e" stroke-width="1" fill="none"></path></g><g stroke-linecap="round" transform="translate(379.2024953632472 427.2680237039185) rotate(0 10.248342658633192 7.738544456518866)"><path d="M3.87 0 C9.34 -2.32, 13.89 0.7, 16.63 0 C20.66 2.95, 17.33 1.29, 20.5 3.87 C21.58 5.55, 20.25 7.73, 20.5 11.61 C23.37 16.07, 21.14 16.18, 16.63 15.48 C11.36 13.28, 9.68 17.34, 3.87 15.48 C1.38 17.22, 0.66 12.5, 0 11.61 C0.56 9.17, 0.57 4.79, 0 3.87 C1.34 3.95, 0.57 -0.78, 3.87 0" stroke="none" stroke-width="0" fill="#d0bfff"></path><path d="M3.87 0 C7.5 -0.14, 9.79 0.62, 16.63 0 M3.87 0 C8.87 0.44, 13.2 -0.1, 16.63 0 M16.63 0 C19.8 -1.4, 22.21 0.07, 20.5 3.87 M16.63 0 C21.19 1.93, 18.68 2.71, 20.5 3.87 M20.5 3.87 C20.14 5.92, 21.12 6.49, 20.5 11.61 M20.5 3.87 C20.79 6.11, 20.52 8.83, 20.5 11.61 M20.5 11.61 C21.37 14.42, 19.2 16.72, 16.63 15.48 M20.5 11.61 C21.38 13.38, 20.93 17.11, 16.63 15.48 M16.63 15.48 C13.68 14.71, 8.87 16.53, 3.87 15.48 M16.63 15.48 C13.21 15.31, 10.11 14.87, 3.87 15.48 M3.87 15.48 C0.11 14.05, 1.58 14.17, 0 11.61 M3.87 15.48 C3.49 17.13, 1.08 15.13, 0 11.61 M0 11.61 C-0.58 7.95, 0.45 6.03, 0 3.87 M0 11.61 C-0.13 9.6, 0.28 8.22, 0 3.87 M0 3.87 C0.55 1.03, 2.6 0.99, 3.87 0 M0 3.87 C1.73 2.73, 0.47 -1.15, 3.87 0" stroke="#1e1e1e" stroke-width="1" fill="none"></path></g><g stroke-linecap="round" transform="translate(402.6272785829806 427.2680237039167) rotate(0 10.248342658633192 7.738544456518866)"><path d="M3.87 0 C8.43 1.01, 13.4 2.11, 16.63 0 C16.04 0, 19.21 3.51, 20.5 3.87 C20.27 6.42, 21.71 10.16, 20.5 11.61 C22.43 14.89, 17.43 15.04, 16.63 15.48 C12.04 17.08, 8.61 16.36, 3.87 15.48 C1.95 13.79, 1.89 13.97, 0 11.61 C0.5 8.53, 0.46 9.19, 0 3.87 C-0.72 0.51, -1.03 -0.52, 3.87 0" stroke="none" stroke-width="0" fill="#d0bfff"></path><path d="M3.87 0 C8.83 0.74, 14.76 0.55, 16.63 0 M3.87 0 C7.98 -0.19, 11.66 -0.53, 16.63 0 M16.63 0 C20.92 -1.22, 22.22 2.97, 20.5 3.87 M16.63 0 C17.39 1.42, 18.42 0.88, 20.5 3.87 M20.5 3.87 C21.1 5.68, 20.72 8.54, 20.5 11.61 M20.5 3.87 C20.6 6.36, 20.73 9.29, 20.5 11.61 M20.5 11.61 C20.49 15.43, 19.97 14.78, 16.63 15.48 M20.5 11.61 C22.22 15.82, 19.08 15.64, 16.63 15.48 M16.63 15.48 C11.77 16.37, 6.59 15.04, 3.87 15.48 M16.63 15.48 C13.15 14.94, 10.32 15.01, 3.87 15.48 M3.87 15.48 C2.87 15.46, 1.92 15.63, 0 11.61 M3.87 15.48 C2.37 16.42, 2.14 12.75, 0 11.61 M0 11.61 C0.47 10.46, -0.63 8.75, 0 3.87 M0 11.61 C0.34 9.55, 0.12 7.7, 0 3.87 M0 3.87 C1.31 2.28, 2.8 1.26, 3.87 0 M0 3.87 C-0.82 0.14, 3.19 0.78, 3.87 0" stroke="#1e1e1e" stroke-width="1" fill="none"></path></g><g stroke-linecap="round" transform="translate(377.94759626219 393.3857479753751) rotate(0 10.248342658633192 7.738544456518866)"><path d="M3.87 0 C7.38 1.8, 7.02 -0.08, 16.63 0 C17.92 2.22, 22.64 3.86, 20.5 3.87 C21.58 6.72, 21.21 8.38, 20.5 11.61 C18.72 13.75, 19.8 12.23, 16.63 15.48 C14.1 16.77, 11.88 14.58, 3.87 15.48 C3.18 15.26, -2.79 15.62, 0 11.61 C0.46 10.15, -0.33 6.34, 0 3.87 C-2.32 0.76, -2.26 -0.83, 3.87 0" stroke="none" stroke-width="0" fill="#d0bfff"></path><path d="M3.87 0 C8.37 0.48, 11.48 0.9, 16.63 0 M3.87 0 C8.75 -0.43, 13.81 -0.37, 16.63 0 M16.63 0 C20.93 1.68, 18.92 2.52, 20.5 3.87 M16.63 0 C17.13 -0.41, 20.84 0.28, 20.5 3.87 M20.5 3.87 C20.82 6.42, 20.93 10.01, 20.5 11.61 M20.5 3.87 C20.67 5.55, 20.5 7.37, 20.5 11.61 M20.5 11.61 C21.26 13.49, 20.71 16.9, 16.63 15.48 M20.5 11.61 C20.37 14.35, 20.61 16.94, 16.63 15.48 M16.63 15.48 C12.82 15.22, 9.8 14.74, 3.87 15.48 M16.63 15.48 C12.58 14.92, 9.79 15.37, 3.87 15.48 M3.87 15.48 C3.21 16.92, 0.94 15.01, 0 11.61 M3.87 15.48 C3.43 14.04, -1.97 12.31, 0 11.61 M0 11.61 C-0.74 10.36, -0.44 8.03, 0 3.87 M0 11.61 C0.04 9.99, 0.19 8.67, 0 3.87 M0 3.87 C1.51 2.55, 0.57 -1, 3.87 0 M0 3.87 C1.9 2.07, 2.14 0.59, 3.87 0" stroke="#1e1e1e" stroke-width="1" fill="none"></path></g><g stroke-linecap="round"><g transform="translate(388.156528950813 408.4869542778288) rotate(0 0 9.37996607009245)"><path d="M0.24 -0.01 C0.25 3.13, 0.42 16.02, 0.42 19.13 M-0.3 -0.49 C-0.35 2.47, 0.15 15.07, 0.2 18.36" stroke="#1e1e1e" stroke-width="1" fill="none"></path></g></g><mask></mask><g stroke-linecap="round"><g transform="translate(364.9184194610352 427.4889500585323) rotate(0 23.60120495055571 -4.7807569002407035)"><path d="M0 0 C0.36 -3.36, -0.08 -7.07, 0 -10.53 M0 0 C0.18 -2.2, -0.25 -4.68, 0 -10.53 M0 -10.53 C9.46 -10.01, 20.61 -11.37, 47.2 -10.53 M0 -10.53 C16.15 -11.09, 31.54 -10.9, 47.2 -10.53 M47.2 -10.53 C47.57 -6.36, 47.01 -2.2, 47.2 0.97 M47.2 -10.53 C47.37 -6.08, 47.01 -2.06, 47.2 0.97" stroke="#1e1e1e" stroke-width="1" fill="none"></path></g></g><mask></mask><g transform="translate(369.5262710313632 450.2369824929792) rotate(0 19.819992065429688 12.5)"><text x="19.819992065429688" y="17.52" font-family="Virgil, Segoe UI Emoji" font-size="20px" fill="#1e1e1e" text-anchor="middle" style="white-space: pre;" direction="ltr" dominant-baseline="alphabetic">ALB</text></g><g stroke-linecap="round" transform="translate(727.1450122446136 391.4938697265479) rotate(0 37.02550551470608 38.048023897058556)"><path d="M74.05 38.05 C74.05 40.03, 73.9 42.04, 73.6 44 C73.29 45.96, 72.84 47.92, 72.24 49.81 C71.64 51.69, 70.89 53.55, 70.02 55.32 C69.14 57.09, 68.11 58.81, 66.98 60.41 C65.84 62.02, 64.57 63.55, 63.21 64.95 C61.84 66.35, 60.35 67.66, 58.79 68.83 C57.23 70, 55.55 71.05, 53.83 71.95 C52.11 72.85, 50.3 73.62, 48.47 74.23 C46.63 74.85, 44.72 75.32, 42.82 75.63 C40.91 75.94, 38.96 76.1, 37.03 76.1 C35.09 76.1, 33.14 75.94, 31.23 75.63 C29.33 75.32, 27.42 74.85, 25.58 74.23 C23.75 73.62, 21.94 72.85, 20.22 71.95 C18.5 71.05, 16.82 70, 15.26 68.83 C13.7 67.66, 12.21 66.35, 10.84 64.95 C9.48 63.55, 8.21 62.02, 7.07 60.41 C5.94 58.81, 4.91 57.09, 4.04 55.32 C3.16 53.55, 2.41 51.69, 1.81 49.81 C1.22 47.92, 0.76 45.96, 0.46 44 C0.15 42.04, 0 40.03, 0 38.05 C0 36.06, 0.15 34.06, 0.46 32.1 C0.76 30.14, 1.22 28.18, 1.81 26.29 C2.41 24.4, 3.16 22.54, 4.04 20.77 C4.91 19.01, 5.94 17.29, 7.07 15.68 C8.21 14.08, 9.48 12.55, 10.84 11.14 C12.21 9.74, 13.7 8.43, 15.26 7.27 C16.82 6.1, 18.5 5.05, 20.22 4.15 C21.94 3.25, 23.75 2.48, 25.58 1.86 C27.42 1.25, 29.33 0.78, 31.23 0.47 C33.14 0.16, 35.09 0, 37.03 0 C38.96 0, 40.91 0.16, 42.82 0.47 C44.72 0.78, 46.63 1.25, 48.47 1.86 C50.3 2.48, 52.11 3.25, 53.83 4.15 C55.55 5.05, 57.23 6.1, 58.79 7.27 C60.35 8.43, 61.84 9.74, 63.21 11.14 C64.57 12.55, 65.84 14.08, 66.98 15.68 C68.11 17.29, 69.14 19.01, 70.02 20.77 C70.89 22.54, 71.64 24.4, 72.24 26.29 C72.84 28.18, 73.29 30.14, 73.6 32.1 C73.9 34.06, 73.98 37.06, 74.05 38.05 C74.13 39.04, 74.13 37.06, 74.05 38.05" stroke="none" stroke-width="0" fill="#fd7e14"></path><path d="M74.05 38.05 C74.05 40.03, 73.9 42.04, 73.6 44 C73.29 45.96, 72.84 47.92, 72.24 49.81 C71.64 51.69, 70.89 53.55, 70.02 55.32 C69.14 57.09, 68.11 58.81, 66.98 60.41 C65.84 62.02, 64.57 63.55, 63.21 64.95 C61.84 66.35, 60.35 67.66, 58.79 68.83 C57.23 70, 55.55 71.05, 53.83 71.95 C52.11 72.85, 50.3 73.62, 48.47 74.23 C46.63 74.85, 44.72 75.32, 42.82 75.63 C40.91 75.94, 38.96 76.1, 37.03 76.1 C35.09 76.1, 33.14 75.94, 31.23 75.63 C29.33 75.32, 27.42 74.85, 25.58 74.23 C23.75 73.62, 21.94 72.85, 20.22 71.95 C18.5 71.05, 16.82 70, 15.26 68.83 C13.7 67.66, 12.21 66.35, 10.84 64.95 C9.48 63.55, 8.21 62.02, 7.07 60.41 C5.94 58.81, 4.91 57.09, 4.04 55.32 C3.16 53.55, 2.41 51.69, 1.81 49.81 C1.22 47.92, 0.76 45.96, 0.46 44 C0.15 42.04, 0 40.03, 0 38.05 C0 36.06, 0.15 34.06, 0.46 32.1 C0.76 30.14, 1.22 28.18, 1.81 26.29 C2.41 24.4, 3.16 22.54, 4.04 20.77 C4.91 19.01, 5.94 17.29, 7.07 15.68 C8.21 14.08, 9.48 12.55, 10.84 11.14 C12.21 9.74, 13.7 8.43, 15.26 7.27 C16.82 6.1, 18.5 5.05, 20.22 4.15 C21.94 3.25, 23.75 2.48, 25.58 1.86 C27.42 1.25, 29.33 0.78, 31.23 0.47 C33.14 0.16, 35.09 0, 37.03 0 C38.96 0, 40.91 0.16, 42.82 0.47 C44.72 0.78, 46.63 1.25, 48.47 1.86 C50.3 2.48, 52.11 3.25, 53.83 4.15 C55.55 5.05, 57.23 6.1, 58.79 7.27 C60.35 8.43, 61.84 9.74, 63.21 11.14 C64.57 12.55, 65.84 14.08, 66.98 15.68 C68.11 17.29, 69.14 19.01, 70.02 20.77 C70.89 22.54, 71.64 24.4, 72.24 26.29 C72.84 28.18, 73.29 30.14, 73.6 32.1 C73.9 34.06, 73.98 37.06, 74.05 38.05 C74.13 39.04, 74.13 37.06, 74.05 38.05" stroke="#fd7e14" stroke-width="2" fill="none"></path></g><g stroke-linecap="round" transform="translate(747.9457934946136 404.78316200596055) rotate(0 15.088981586224236 16.206341911764866)"><path d="M7.54 0 C11.31 0, 15.08 0, 22.63 0 C27.66 0, 30.18 2.51, 30.18 7.54 C30.18 13.3, 30.18 19.05, 30.18 24.87 C30.18 29.9, 27.66 32.41, 22.63 32.41 C18.03 32.41, 13.42 32.41, 7.54 32.41 C2.51 32.41, 0 29.9, 0 24.87 C0 18.71, 0 12.54, 0 7.54 C0 2.51, 2.51 0, 7.54 0" stroke="none" stroke-width="0" fill="#fd7e14"></path><path d="M7.54 0 C12.17 0, 16.8 0, 22.63 0 M7.54 0 C11.54 0, 15.54 0, 22.63 0 M22.63 0 C27.66 0, 30.18 2.51, 30.18 7.54 M22.63 0 C27.66 0, 30.18 2.51, 30.18 7.54 M30.18 7.54 C30.18 11.04, 30.18 14.54, 30.18 24.87 M30.18 7.54 C30.18 13.08, 30.18 18.61, 30.18 24.87 M30.18 24.87 C30.18 29.9, 27.66 32.41, 22.63 32.41 M30.18 24.87 C30.18 29.9, 27.66 32.41, 22.63 32.41 M22.63 32.41 C18.73 32.41, 14.83 32.41, 7.54 32.41 M22.63 32.41 C19.02 32.41, 15.41 32.41, 7.54 32.41 M7.54 32.41 C2.51 32.41, 0 29.9, 0 24.87 M7.54 32.41 C2.51 32.41, 0 29.9, 0 24.87 M0 24.87 C0 20.43, 0 15.99, 0 7.54 M0 24.87 C0 20.59, 0 16.31, 0 7.54 M0 7.54 C0 2.51, 2.51 0, 7.54 0 M0 7.54 C0 2.51, 2.51 0, 7.54 0" stroke="#fff" stroke-width="2" fill="none"></path></g><g transform="translate(754.7941390828491 445.1321969324308) rotate(0 8.5 5.5)"><text x="0" y="8.78423918395483" font-family="Cascadia, Segoe UI Emoji" font-size="9.453912815126058px" fill="#fff" text-anchor="start" style="white-space: pre;" direction="ltr" dominant-baseline="alphabetic">EC2</text></g><g stroke-linecap="round"><g transform="translate(123.05021085665976 412.9611960312941) rotate(0 101.0016068404766 -2.0332288268427874)"><path d="M-2.56 0.79 C31.71 -0.21, 169.58 -4.64, 204.03 -5.04 M1.25 -1.24 C35.47 -1.94, 169.18 -1.19, 202.9 -1.94" stroke="#7950f2" stroke-width="1" fill="none"></path></g><g transform="translate(123.05021085665976 412.9611960312941) rotate(0 101.0016068404766 -2.0332288268427874)"><path d="M180.03 8.22 C184.45 6.41, 192.64 1.56, 201.38 -1.06 M179.74 6.93 C188.35 3.57, 198.29 -0.18, 203.78 -2.17" stroke="#7950f2" stroke-width="1" fill="none"></path></g><g transform="translate(123.05021085665976 412.9611960312941) rotate(0 101.0016068404766 -2.0332288268427874)"><path d="M179.91 -8.88 C184.42 -6.52, 192.64 -7.2, 201.38 -1.06 M179.63 -10.17 C188.14 -6.89, 198.12 -4.01, 203.78 -2.17" stroke="#7950f2" stroke-width="1" fill="none"></path></g></g><mask></mask><g stroke-linecap="round"><g transform="translate(316.965061092591 441.708345128156) rotate(0 -93.94275282845456 2.3673617367403494)"><path d="M2.19 -1.54 C-28.97 -0.65, -155.21 1.97, -187.27 2.9 M-0.06 3.79 C-31.51 5.23, -158.42 5.04, -189.17 5.54" stroke="#7950f2" stroke-width="1" fill="none"></path></g><g transform="translate(316.965061092591 441.708345128156) rotate(0 -93.94275282845456 2.3673617367403494)"><path d="M-166.84 -2.73 C-173.9 -2.08, -179.89 1.79, -187.49 5 M-165.52 -2.77 C-173.23 0.16, -180.22 1.31, -189.27 4.77" stroke="#7950f2" stroke-width="1" fill="none"></path></g><g transform="translate(316.965061092591 441.708345128156) rotate(0 -93.94275282845456 2.3673617367403494)"><path d="M-166.72 14.37 C-173.67 10.07, -179.69 9, -187.49 5 M-165.41 14.33 C-173.09 12.21, -180.12 8.31, -189.27 4.77" stroke="#7950f2" stroke-width="1" fill="none"></path></g></g><mask></mask><g mask="url(#mask-zTwtfGumCUqhazugQWJBK)" stroke-linecap="round"><g transform="translate(457.81945100718576 409.29191580656516) rotate(0 131.1004406506836 3.232616058197891)"><path d="M1.38 -1.29 C44.84 -0.1, 217.9 5.84, 261.13 7.54 M-1.31 4.17 C41.64 4.48, 215.07 3.03, 258.31 3.11" stroke="#7950f2" stroke-width="1" fill="none"></path></g><g transform="translate(457.81945100718576 409.29191580656516) rotate(0 131.1004406506836 3.232616058197891)"><path d="M233.92 10.98 C242.95 7.88, 251.25 6.56, 257.5 2.71 M234.43 12.56 C242.17 9.46, 248.85 6.48, 258.6 4.07" stroke="#7950f2" stroke-width="1" fill="none"></path></g><g transform="translate(457.81945100718576 409.29191580656516) rotate(0 131.1004406506836 3.232616058197891)"><path d="M233.86 -6.12 C242.93 -3.87, 251.24 0.16, 257.5 2.71 M234.36 -4.55 C242.19 -2.89, 248.88 -1.1, 258.6 4.07" stroke="#7950f2" stroke-width="1" fill="none"></path></g></g><mask id="mask-zTwtfGumCUqhazugQWJBK"><rect x="0" y="0" fill="#fff" width="820.020332308553" height="515.7571479229609"></rect><rect x="517.9999316358967" y="402.52453186476305" fill="#000" width="141.8399200439453" height="20" opacity="1"></rect></mask><g transform="translate(517.9999316358962 402.52453186476305) rotate(0 69.72710102848714 9.889008463919708)"><text x="70.91996002197266" y="14.016" font-family="Virgil, Segoe UI Emoji" font-size="16px" fill="#7950f2" text-anchor="middle" style="white-space: pre;" direction="ltr" dominant-baseline="alphabetic">Load Balancer IP</text></g><g mask="url(#mask-0cSqzLEycGzY3Be49NssZ)" stroke-linecap="round"><g transform="translate(713.7827478804625 443.5881843429852) rotate(0 -127.59065666843458 0.6233340102671718)"><path d="M-2.26 2.17 C-45.55 1.85, -214.81 -0.63, -257.17 -1.09 M1.7 0.88 C-40.93 0.76, -208.42 1.16, -251.85 1.27" stroke="#7950f2" stroke-width="1" fill="none"></path></g><g transform="translate(713.7827478804625 443.5881843429852) rotate(0 -127.59065666843458 0.6233340102671718)"><path d="M-226.83 -8.75 C-239.23 -5.02, -248.07 -0.93, -251.68 1.18 M-227.8 -7.47 C-237.71 -4.31, -246.16 0.07, -251.27 1.6" stroke="#7950f2" stroke-width="1" fill="none"></path></g><g transform="translate(713.7827478804625 443.5881843429852) rotate(0 -127.59065666843458 0.6233340102671718)"><path d="M-226.79 8.35 C-239.25 5.37, -248.11 2.76, -251.68 1.18 M-227.76 9.63 C-237.53 6.12, -246 3.82, -251.27 1.6" stroke="#7950f2" stroke-width="1" fill="none"></path></g></g><mask id="mask-0cSqzLEycGzY3Be49NssZ"><rect x="0" y="0" fill="#fff" width="1068.9640612173316" height="544.8348523635195"></rect><rect x="537.6241285655428" y="434.21151835325327" fill="#000" width="97.13592529296875" height="20" opacity="1"></rect></mask><g transform="translate(537.6241285655433 434.21151835325327) rotate(0 48.42456212781394 9.918352447449251)"><text x="48.567962646484375" y="14.016" font-family="Virgil, Segoe UI Emoji" font-size="16px" fill="#7950f2" text-anchor="middle" style="white-space: pre;" direction="ltr" dominant-baseline="alphabetic">(Private IP)</text></g></svg>