<svg version="1.1" xmlns="http://www.w3.org/2000/svg" viewBox="0 0 798.4595947265625 798.0590224495372" width="798.4595947265625" height="798.0590224495372">
  <!-- svg-source:excalidraw -->
  
  <defs>
    <style class="style-fonts">
      @font-face {
        font-family: "Virgil";
        src: url("https://excalidraw.com/Virgil.woff2");
      }
      @font-face {
        font-family: "Cascadia";
        src: url("https://excalidraw.com/Cascadia.woff2");
      }
      @font-face {
        font-family: "Assistant";
        src: url("https://excalidraw.com/Assistant-Regular.woff2");
      }
    </style>
    
  </defs>
  <rect x="0" y="0" width="798.4595947265625" height="798.0590224495372" fill="#ffffff"></rect><g stroke-linecap="round" transform="translate(210.74572030282707 10) rotate(0 188.48407706045418 64.30632679965265)"><path d="M32 0 C134.49 2.87, 240.37 -0.47, 344.97 0 M32 0 C123.68 -2.67, 213.35 -4.8, 344.97 0 M344.97 0 C368.1 -1.4, 375.4 13.42, 376.97 32 M344.97 0 C370.51 -1.84, 373.98 9.78, 376.97 32 M376.97 32 C380.58 60.63, 378.64 78.56, 376.97 96.61 M376.97 32 C378.9 46.79, 376.57 58.39, 376.97 96.61 M376.97 96.61 C376.53 120.82, 369.94 125.05, 344.97 128.61 M376.97 96.61 C372.56 117.66, 362.34 132.17, 344.97 128.61 M344.97 128.61 C272.6 131.7, 204.93 129.64, 32 128.61 M344.97 128.61 C236.74 126.89, 126.67 127.47, 32 128.61 M32 128.61 C8.29 131.9, -0.94 119.08, 0 96.61 M32 128.61 C9.68 127.87, -1.87 119.3, 0 96.61 M0 96.61 C1.75 79.72, 3.92 63.67, 0 32 M0 96.61 C0.76 81.05, -0.14 68.8, 0 32 M0 32 C1.07 7.95, 7.39 2.92, 32 0 M0 32 C1.63 10.68, 8.79 -3.26, 32 0" stroke="#2f9e44" stroke-width="4" fill="none"></path></g><g transform="translate(304.83985900878906 61.8063267996522) rotate(0 94.38993835449219 12.5)"><text x="94.38993835449219" y="17.52" font-family="Virgil, Segoe UI Emoji" font-size="20px" fill="#2f9e44" text-anchor="middle" style="white-space: pre;" direction="ltr" dominant-baseline="alphabetic">RDS Read Replicas</text></g><g transform="translate(271.6898956298828 162.2421447501365) rotate(0 127.53990173339844 12.5)"><text x="0" y="17.52" font-family="Virgil, Segoe UI Emoji" font-size="20px" fill="#1971c2" text-anchor="start" style="white-space: pre;" direction="ltr" dominant-baseline="alphabetic">Used for Read Scalability</text></g><g transform="translate(10 203.7623045924629) rotate(0 389.22979736328125 12.5)"><text x="0" y="17.52" font-family="Virgil, Segoe UI Emoji" font-size="20px" fill="#1971c2" text-anchor="start" style="white-space: pre;" direction="ltr" dominant-baseline="alphabetic">* Main DB will get slow if many read and write operation happens on same DB</text></g><g stroke-linecap="round" transform="translate(120.85599842040938 297.1826642376973) rotate(0 278.3737989428719 38.217419854868695)"><path d="M0.62 -0.56 C207.77 3.27, 418.93 4.53, 557.11 -0.09 M0.02 0.04 C167.08 -1.92, 333.22 -1.2, 556 0.6 M556.24 -0.18 C557.57 32.11, 555.59 59.46, 556.79 79.45 M558.21 1.09 C555.51 14.74, 555.71 33.49, 558.52 78.32 M555.35 75.09 C344.73 75.38, 134.82 77.29, 0.35 77.07 M557.4 77.19 C396.63 73.85, 234.85 74.2, -0.05 76.34 M-2.24 74.84 C-3.82 59.19, 2.86 41.86, -1.9 1.7 M-0.67 77.59 C-1.59 52.61, 2.13 26.57, -0.37 -0.38" stroke="#1971c2" stroke-width="2" fill="none"></path></g><g transform="translate(348.2498474121094 322.90008409256643) rotate(0 50.979949951171875 12.5)"><text x="50.979949951171875" y="17.52" font-family="Virgil, Segoe UI Emoji" font-size="20px" fill="#1971c2" text-anchor="middle" style="white-space: pre;" direction="ltr" dominant-baseline="alphabetic">Application</text></g><g stroke-linecap="round" transform="translate(336.0516980829798 488.84543867782304) rotate(0 45.072302550506265 46.31704606587982)"><path d="M90.14 46.32 C90.14 48.51, 89.99 50.73, 89.69 52.91 C89.38 55.08, 88.92 57.26, 88.32 59.37 C87.72 61.47, 86.96 63.56, 86.07 65.56 C85.18 67.56, 84.15 69.51, 82.99 71.36 C81.83 73.21, 80.54 74.99, 79.14 76.65 C77.74 78.31, 76.2 79.88, 74.59 81.32 C72.97 82.76, 71.24 84.09, 69.44 85.28 C67.64 86.47, 65.74 87.54, 63.8 88.45 C61.85 89.36, 59.82 90.14, 57.77 90.76 C55.72 91.38, 53.6 91.85, 51.49 92.16 C49.37 92.48, 47.21 92.63, 45.07 92.63 C42.93 92.63, 40.77 92.48, 38.66 92.16 C36.54 91.85, 34.43 91.38, 32.37 90.76 C30.32 90.14, 28.29 89.36, 26.35 88.45 C24.4 87.54, 22.5 86.47, 20.7 85.28 C18.91 84.09, 17.17 82.76, 15.56 81.32 C13.94 79.88, 12.41 78.31, 11.01 76.65 C9.61 74.99, 8.31 73.21, 7.16 71.36 C6 69.51, 4.96 67.56, 4.07 65.56 C3.18 63.56, 2.43 61.47, 1.83 59.37 C1.22 57.26, 0.76 55.08, 0.46 52.91 C0.15 50.73, 0 48.51, 0 46.32 C0 44.12, 0.15 41.9, 0.46 39.73 C0.76 37.55, 1.22 35.38, 1.83 33.27 C2.43 31.16, 3.18 29.07, 4.07 27.08 C4.96 25.08, 6 23.12, 7.16 21.28 C8.31 19.43, 9.61 17.65, 11.01 15.99 C12.41 14.33, 13.94 12.75, 15.56 11.31 C17.17 9.87, 18.91 8.54, 20.7 7.35 C22.5 6.16, 24.4 5.1, 26.35 4.19 C28.29 3.27, 30.32 2.5, 32.37 1.88 C34.43 1.26, 36.54 0.78, 38.66 0.47 C40.77 0.16, 42.93 0, 45.07 0 C47.21 0, 49.37 0.16, 51.49 0.47 C53.6 0.78, 55.72 1.26, 57.77 1.88 C59.82 2.5, 61.85 3.27, 63.8 4.19 C65.74 5.1, 67.64 6.16, 69.44 7.35 C71.24 8.54, 72.97 9.87, 74.59 11.31 C76.2 12.75, 77.74 14.33, 79.14 15.99 C80.54 17.65, 81.83 19.43, 82.99 21.28 C84.15 23.12, 85.18 25.08, 86.07 27.08 C86.96 29.07, 87.72 31.16, 88.32 33.27 C88.92 35.38, 89.38 37.55, 89.69 39.73 C89.99 41.9, 90.07 45.22, 90.14 46.32 C90.22 47.42, 90.22 45.22, 90.14 46.32" stroke="none" stroke-width="0" fill="#3175d7"></path><path d="M90.14 46.32 C90.14 48.51, 89.99 50.73, 89.69 52.91 C89.38 55.08, 88.92 57.26, 88.32 59.37 C87.72 61.47, 86.96 63.56, 86.07 65.56 C85.18 67.56, 84.15 69.51, 82.99 71.36 C81.83 73.21, 80.54 74.99, 79.14 76.65 C77.74 78.31, 76.2 79.88, 74.59 81.32 C72.97 82.76, 71.24 84.09, 69.44 85.28 C67.64 86.47, 65.74 87.54, 63.8 88.45 C61.85 89.36, 59.82 90.14, 57.77 90.76 C55.72 91.38, 53.6 91.85, 51.49 92.16 C49.37 92.48, 47.21 92.63, 45.07 92.63 C42.93 92.63, 40.77 92.48, 38.66 92.16 C36.54 91.85, 34.43 91.38, 32.37 90.76 C30.32 90.14, 28.29 89.36, 26.35 88.45 C24.4 87.54, 22.5 86.47, 20.7 85.28 C18.91 84.09, 17.17 82.76, 15.56 81.32 C13.94 79.88, 12.41 78.31, 11.01 76.65 C9.61 74.99, 8.31 73.21, 7.16 71.36 C6 69.51, 4.96 67.56, 4.07 65.56 C3.18 63.56, 2.43 61.47, 1.83 59.37 C1.22 57.26, 0.76 55.08, 0.46 52.91 C0.15 50.73, 0 48.51, 0 46.32 C0 44.12, 0.15 41.9, 0.46 39.73 C0.76 37.55, 1.22 35.38, 1.83 33.27 C2.43 31.16, 3.18 29.07, 4.07 27.08 C4.96 25.08, 6 23.12, 7.16 21.28 C8.31 19.43, 9.61 17.65, 11.01 15.99 C12.41 14.33, 13.94 12.75, 15.56 11.31 C17.17 9.87, 18.91 8.54, 20.7 7.35 C22.5 6.16, 24.4 5.1, 26.35 4.19 C28.29 3.27, 30.32 2.5, 32.37 1.88 C34.43 1.26, 36.54 0.78, 38.66 0.47 C40.77 0.16, 42.93 0, 45.07 0 C47.21 0, 49.37 0.16, 51.49 0.47 C53.6 0.78, 55.72 1.26, 57.77 1.88 C59.82 2.5, 61.85 3.27, 63.8 4.19 C65.74 5.1, 67.64 6.16, 69.44 7.35 C71.24 8.54, 72.97 9.87, 74.59 11.31 C76.2 12.75, 77.74 14.33, 79.14 15.99 C80.54 17.65, 81.83 19.43, 82.99 21.28 C84.15 23.12, 85.18 25.08, 86.07 27.08 C86.96 29.07, 87.72 31.16, 88.32 33.27 C88.92 35.38, 89.38 37.55, 89.69 39.73 C89.99 41.9, 90.07 45.22, 90.14 46.32 C90.22 47.42, 90.22 45.22, 90.14 46.32" stroke="#fff" stroke-width="2" fill="none"></path></g><g stroke-linecap="round"><g transform="translate(363.4522625664922 508.4980378580476) rotate(0 17.536037446819137 18.401960433343902)" fill-rule="evenodd"><path d="M0 0 C0.28 4.92, 0.63 23.76, 1.66 29.52 C2.68 35.27, 3.35 33.32, 6.15 34.53 C8.96 35.75, 14.59 36.74, 18.5 36.8 C22.4 36.87, 26.82 36.27, 29.58 34.91 C32.34 33.55, 34.2 34.43, 35.07 28.63 C35.94 22.83, 35.06 4.77, 34.81 0.09 C34.56 -4.59, 39.29 0.54, 33.58 0.53 C27.86 0.53, 6.04 0.14, 0.53 0.06" stroke="none" stroke-width="0" fill="#3175d7" fill-rule="evenodd"></path><path d="M0 0 C0.28 4.92, 0.63 23.76, 1.66 29.52 C2.68 35.27, 3.35 33.32, 6.15 34.53 C8.96 35.75, 14.59 36.74, 18.5 36.8 C22.4 36.87, 26.82 36.27, 29.58 34.91 C32.34 33.55, 34.2 34.43, 35.07 28.63 C35.94 22.83, 35.06 4.77, 34.81 0.09 C34.56 -4.59, 39.29 0.54, 33.58 0.53 C27.86 0.53, 6.04 0.14, 0.53 0.06 M0 0 C0.28 4.92, 0.63 23.76, 1.66 29.52 C2.68 35.27, 3.35 33.32, 6.15 34.53 C8.96 35.75, 14.59 36.74, 18.5 36.8 C22.4 36.87, 26.82 36.27, 29.58 34.91 C32.34 33.55, 34.2 34.43, 35.07 28.63 C35.94 22.83, 35.06 4.77, 34.81 0.09 C34.56 -4.59, 39.29 0.54, 33.58 0.53 C27.86 0.53, 6.04 0.14, 0.53 0.06" stroke="#fff" stroke-width="2" fill="none"></path></g></g><mask></mask><g stroke-linecap="round" transform="translate(363.12899134321924 503.41120121204585) rotate(0 17.774273544485823 4.887901039687222)"><path d="M35.55 4.89 C35.55 5.17, 35.46 5.46, 35.28 5.74 C35.1 6.02, 34.83 6.29, 34.48 6.56 C34.12 6.83, 33.68 7.09, 33.17 7.33 C32.65 7.58, 32.05 7.81, 31.39 8.03 C30.73 8.25, 29.99 8.45, 29.2 8.63 C28.41 8.81, 27.55 8.98, 26.66 9.12 C25.77 9.26, 24.82 9.38, 23.85 9.48 C22.89 9.58, 21.87 9.65, 20.86 9.7 C19.85 9.75, 18.8 9.78, 17.77 9.78 C16.75 9.78, 15.7 9.75, 14.69 9.7 C13.67 9.65, 12.66 9.58, 11.7 9.48 C10.73 9.38, 9.78 9.26, 8.89 9.12 C8 8.98, 7.14 8.81, 6.35 8.63 C5.56 8.45, 4.82 8.25, 4.16 8.03 C3.5 7.81, 2.9 7.58, 2.38 7.33 C1.87 7.09, 1.42 6.83, 1.07 6.56 C0.72 6.29, 0.45 6.02, 0.27 5.74 C0.09 5.46, 0 5.17, 0 4.89 C0 4.6, 0.09 4.32, 0.27 4.04 C0.45 3.76, 0.72 3.48, 1.07 3.22 C1.42 2.95, 1.87 2.69, 2.38 2.44 C2.9 2.2, 3.5 1.96, 4.16 1.75 C4.82 1.53, 5.56 1.33, 6.35 1.14 C7.14 0.96, 8 0.8, 8.89 0.65 C9.78 0.51, 10.73 0.39, 11.7 0.29 C12.66 0.2, 13.67 0.12, 14.69 0.07 C15.7 0.03, 16.75 0, 17.77 0 C18.8 0, 19.85 0.03, 20.86 0.07 C21.87 0.12, 22.89 0.2, 23.85 0.29 C24.82 0.39, 25.77 0.51, 26.66 0.65 C27.55 0.8, 28.41 0.96, 29.2 1.14 C29.99 1.33, 30.73 1.53, 31.39 1.75 C32.05 1.96, 32.65 2.2, 33.17 2.44 C33.68 2.69, 34.12 2.95, 34.48 3.22 C34.83 3.48, 35.1 3.76, 35.28 4.04 C35.46 4.32, 35.5 4.75, 35.55 4.89 C35.59 5.03, 35.59 4.75, 35.55 4.89" stroke="none" stroke-width="0" fill="#3175d7"></path><path d="M35.55 4.89 C35.55 5.17, 35.46 5.46, 35.28 5.74 C35.1 6.02, 34.83 6.29, 34.48 6.56 C34.12 6.83, 33.68 7.09, 33.17 7.33 C32.65 7.58, 32.05 7.81, 31.39 8.03 C30.73 8.25, 29.99 8.45, 29.2 8.63 C28.41 8.81, 27.55 8.98, 26.66 9.12 C25.77 9.26, 24.82 9.38, 23.85 9.48 C22.89 9.58, 21.87 9.65, 20.86 9.7 C19.85 9.75, 18.8 9.78, 17.77 9.78 C16.75 9.78, 15.7 9.75, 14.69 9.7 C13.67 9.65, 12.66 9.58, 11.7 9.48 C10.73 9.38, 9.78 9.26, 8.89 9.12 C8 8.98, 7.14 8.81, 6.35 8.63 C5.56 8.45, 4.82 8.25, 4.16 8.03 C3.5 7.81, 2.9 7.58, 2.38 7.33 C1.87 7.09, 1.42 6.83, 1.07 6.56 C0.72 6.29, 0.45 6.02, 0.27 5.74 C0.09 5.46, 0 5.17, 0 4.89 C0 4.6, 0.09 4.32, 0.27 4.04 C0.45 3.76, 0.72 3.48, 1.07 3.22 C1.42 2.95, 1.87 2.69, 2.38 2.44 C2.9 2.2, 3.5 1.96, 4.16 1.75 C4.82 1.53, 5.56 1.33, 6.35 1.14 C7.14 0.96, 8 0.8, 8.89 0.65 C9.78 0.51, 10.73 0.39, 11.7 0.29 C12.66 0.2, 13.67 0.12, 14.69 0.07 C15.7 0.03, 16.75 0, 17.77 0 C18.8 0, 19.85 0.03, 20.86 0.07 C21.87 0.12, 22.89 0.2, 23.85 0.29 C24.82 0.39, 25.77 0.51, 26.66 0.65 C27.55 0.8, 28.41 0.96, 29.2 1.14 C29.99 1.33, 30.73 1.53, 31.39 1.75 C32.05 1.96, 32.65 2.2, 33.17 2.44 C33.68 2.69, 34.12 2.95, 34.48 3.22 C34.83 3.48, 35.1 3.76, 35.28 4.04 C35.46 4.32, 35.5 4.75, 35.55 4.89 C35.59 5.03, 35.59 4.75, 35.55 4.89" stroke="#fff" stroke-width="2" fill="none"></path></g><g transform="translate(372.47597023690196 551.3735207961709) rotate(0 10.44241908223239 6.99573827404447)"><text x="10.442419082232243" y="11.20408936897139" font-family="Cascadia, Segoe UI Emoji" font-size="11.892851964235062px" fill="#fff" text-anchor="middle" style="white-space: pre;" direction="ltr" dominant-baseline="alphabetic">RDS</text></g><g transform="translate(350.5063269537877 589.6819521108782) rotate(0 30.617673679699237 16.738303811228434)"><text x="0" y="11.730203310908838" font-family="Virgil, Segoe UI Emoji" font-size="13.390643048982694px" fill="#1971c2" text-anchor="start" style="white-space: pre;" direction="ltr" dominant-baseline="alphabetic">RDS DB </text><text x="0" y="28.468507122137204" font-family="Virgil, Segoe UI Emoji" font-size="13.390643048982694px" fill="#1971c2" text-anchor="start" style="white-space: pre;" direction="ltr" dominant-baseline="alphabetic">instance</text></g><g stroke-linecap="round" transform="translate(170.69000286263054 488.84543867782304) rotate(0 45.072302550506265 46.31704606587982)"><path d="M90.14 46.32 C90.14 48.51, 89.99 50.73, 89.69 52.91 C89.38 55.08, 88.92 57.26, 88.32 59.37 C87.72 61.47, 86.96 63.56, 86.07 65.56 C85.18 67.56, 84.15 69.51, 82.99 71.36 C81.83 73.21, 80.54 74.99, 79.14 76.65 C77.74 78.31, 76.2 79.88, 74.59 81.32 C72.97 82.76, 71.24 84.09, 69.44 85.28 C67.64 86.47, 65.74 87.54, 63.8 88.45 C61.85 89.36, 59.82 90.14, 57.77 90.76 C55.72 91.38, 53.6 91.85, 51.49 92.16 C49.37 92.48, 47.21 92.63, 45.07 92.63 C42.93 92.63, 40.77 92.48, 38.66 92.16 C36.54 91.85, 34.43 91.38, 32.37 90.76 C30.32 90.14, 28.29 89.36, 26.35 88.45 C24.4 87.54, 22.5 86.47, 20.7 85.28 C18.91 84.09, 17.17 82.76, 15.56 81.32 C13.94 79.88, 12.41 78.31, 11.01 76.65 C9.61 74.99, 8.31 73.21, 7.16 71.36 C6 69.51, 4.96 67.56, 4.07 65.56 C3.18 63.56, 2.43 61.47, 1.83 59.37 C1.22 57.26, 0.76 55.08, 0.46 52.91 C0.15 50.73, 0 48.51, 0 46.32 C0 44.12, 0.15 41.9, 0.46 39.73 C0.76 37.55, 1.22 35.38, 1.83 33.27 C2.43 31.16, 3.18 29.07, 4.07 27.08 C4.96 25.08, 6 23.12, 7.16 21.28 C8.31 19.43, 9.61 17.65, 11.01 15.99 C12.41 14.33, 13.94 12.75, 15.56 11.31 C17.17 9.87, 18.91 8.54, 20.7 7.35 C22.5 6.16, 24.4 5.1, 26.35 4.19 C28.29 3.27, 30.32 2.5, 32.37 1.88 C34.43 1.26, 36.54 0.78, 38.66 0.47 C40.77 0.16, 42.93 0, 45.07 0 C47.21 0, 49.37 0.16, 51.49 0.47 C53.6 0.78, 55.72 1.26, 57.77 1.88 C59.82 2.5, 61.85 3.27, 63.8 4.19 C65.74 5.1, 67.64 6.16, 69.44 7.35 C71.24 8.54, 72.97 9.87, 74.59 11.31 C76.2 12.75, 77.74 14.33, 79.14 15.99 C80.54 17.65, 81.83 19.43, 82.99 21.28 C84.15 23.12, 85.18 25.08, 86.07 27.08 C86.96 29.07, 87.72 31.16, 88.32 33.27 C88.92 35.38, 89.38 37.55, 89.69 39.73 C89.99 41.9, 90.07 45.22, 90.14 46.32 C90.22 47.42, 90.22 45.22, 90.14 46.32" stroke="none" stroke-width="0" fill="#3175d7"></path><path d="M90.14 46.32 C90.14 48.51, 89.99 50.73, 89.69 52.91 C89.38 55.08, 88.92 57.26, 88.32 59.37 C87.72 61.47, 86.96 63.56, 86.07 65.56 C85.18 67.56, 84.15 69.51, 82.99 71.36 C81.83 73.21, 80.54 74.99, 79.14 76.65 C77.74 78.31, 76.2 79.88, 74.59 81.32 C72.97 82.76, 71.24 84.09, 69.44 85.28 C67.64 86.47, 65.74 87.54, 63.8 88.45 C61.85 89.36, 59.82 90.14, 57.77 90.76 C55.72 91.38, 53.6 91.85, 51.49 92.16 C49.37 92.48, 47.21 92.63, 45.07 92.63 C42.93 92.63, 40.77 92.48, 38.66 92.16 C36.54 91.85, 34.43 91.38, 32.37 90.76 C30.32 90.14, 28.29 89.36, 26.35 88.45 C24.4 87.54, 22.5 86.47, 20.7 85.28 C18.91 84.09, 17.17 82.76, 15.56 81.32 C13.94 79.88, 12.41 78.31, 11.01 76.65 C9.61 74.99, 8.31 73.21, 7.16 71.36 C6 69.51, 4.96 67.56, 4.07 65.56 C3.18 63.56, 2.43 61.47, 1.83 59.37 C1.22 57.26, 0.76 55.08, 0.46 52.91 C0.15 50.73, 0 48.51, 0 46.32 C0 44.12, 0.15 41.9, 0.46 39.73 C0.76 37.55, 1.22 35.38, 1.83 33.27 C2.43 31.16, 3.18 29.07, 4.07 27.08 C4.96 25.08, 6 23.12, 7.16 21.28 C8.31 19.43, 9.61 17.65, 11.01 15.99 C12.41 14.33, 13.94 12.75, 15.56 11.31 C17.17 9.87, 18.91 8.54, 20.7 7.35 C22.5 6.16, 24.4 5.1, 26.35 4.19 C28.29 3.27, 30.32 2.5, 32.37 1.88 C34.43 1.26, 36.54 0.78, 38.66 0.47 C40.77 0.16, 42.93 0, 45.07 0 C47.21 0, 49.37 0.16, 51.49 0.47 C53.6 0.78, 55.72 1.26, 57.77 1.88 C59.82 2.5, 61.85 3.27, 63.8 4.19 C65.74 5.1, 67.64 6.16, 69.44 7.35 C71.24 8.54, 72.97 9.87, 74.59 11.31 C76.2 12.75, 77.74 14.33, 79.14 15.99 C80.54 17.65, 81.83 19.43, 82.99 21.28 C84.15 23.12, 85.18 25.08, 86.07 27.08 C86.96 29.07, 87.72 31.16, 88.32 33.27 C88.92 35.38, 89.38 37.55, 89.69 39.73 C89.99 41.9, 90.07 45.22, 90.14 46.32 C90.22 47.42, 90.22 45.22, 90.14 46.32" stroke="#fff" stroke-width="2" fill="none"></path></g><g stroke-linecap="round"><g transform="translate(198.09056734614114 508.4980378580476) rotate(0 17.536037446819137 18.401960433343902)" fill-rule="evenodd"><path d="M0 0 C0.28 4.92, 0.63 23.76, 1.66 29.52 C2.68 35.27, 3.35 33.32, 6.15 34.53 C8.96 35.75, 14.59 36.74, 18.5 36.8 C22.4 36.87, 26.82 36.27, 29.58 34.91 C32.34 33.55, 34.2 34.43, 35.07 28.63 C35.94 22.83, 35.06 4.77, 34.81 0.09 C34.56 -4.59, 39.29 0.54, 33.58 0.53 C27.86 0.53, 6.04 0.14, 0.53 0.06" stroke="none" stroke-width="0" fill="#3175d7" fill-rule="evenodd"></path><path d="M0 0 C0.28 4.92, 0.63 23.76, 1.66 29.52 C2.68 35.27, 3.35 33.32, 6.15 34.53 C8.96 35.75, 14.59 36.74, 18.5 36.8 C22.4 36.87, 26.82 36.27, 29.58 34.91 C32.34 33.55, 34.2 34.43, 35.07 28.63 C35.94 22.83, 35.06 4.77, 34.81 0.09 C34.56 -4.59, 39.29 0.54, 33.58 0.53 C27.86 0.53, 6.04 0.14, 0.53 0.06 M0 0 C0.28 4.92, 0.63 23.76, 1.66 29.52 C2.68 35.27, 3.35 33.32, 6.15 34.53 C8.96 35.75, 14.59 36.74, 18.5 36.8 C22.4 36.87, 26.82 36.27, 29.58 34.91 C32.34 33.55, 34.2 34.43, 35.07 28.63 C35.94 22.83, 35.06 4.77, 34.81 0.09 C34.56 -4.59, 39.29 0.54, 33.58 0.53 C27.86 0.53, 6.04 0.14, 0.53 0.06" stroke="#fff" stroke-width="2" fill="none"></path></g></g><mask></mask><g stroke-linecap="round" transform="translate(197.76729612286817 503.41120121204494) rotate(0 17.774273544485823 4.887901039687222)"><path d="M35.55 4.89 C35.55 5.17, 35.46 5.46, 35.28 5.74 C35.1 6.02, 34.83 6.29, 34.48 6.56 C34.12 6.83, 33.68 7.09, 33.17 7.33 C32.65 7.58, 32.05 7.81, 31.39 8.03 C30.73 8.25, 29.99 8.45, 29.2 8.63 C28.41 8.81, 27.55 8.98, 26.66 9.12 C25.77 9.26, 24.82 9.38, 23.85 9.48 C22.89 9.58, 21.87 9.65, 20.86 9.7 C19.85 9.75, 18.8 9.78, 17.77 9.78 C16.75 9.78, 15.7 9.75, 14.69 9.7 C13.67 9.65, 12.66 9.58, 11.7 9.48 C10.73 9.38, 9.78 9.26, 8.89 9.12 C8 8.98, 7.14 8.81, 6.35 8.63 C5.56 8.45, 4.82 8.25, 4.16 8.03 C3.5 7.81, 2.9 7.58, 2.38 7.33 C1.87 7.09, 1.42 6.83, 1.07 6.56 C0.72 6.29, 0.45 6.02, 0.27 5.74 C0.09 5.46, 0 5.17, 0 4.89 C0 4.6, 0.09 4.32, 0.27 4.04 C0.45 3.76, 0.72 3.48, 1.07 3.22 C1.42 2.95, 1.87 2.69, 2.38 2.44 C2.9 2.2, 3.5 1.96, 4.16 1.75 C4.82 1.53, 5.56 1.33, 6.35 1.14 C7.14 0.96, 8 0.8, 8.89 0.65 C9.78 0.51, 10.73 0.39, 11.7 0.29 C12.66 0.2, 13.67 0.12, 14.69 0.07 C15.7 0.03, 16.75 0, 17.77 0 C18.8 0, 19.85 0.03, 20.86 0.07 C21.87 0.12, 22.89 0.2, 23.85 0.29 C24.82 0.39, 25.77 0.51, 26.66 0.65 C27.55 0.8, 28.41 0.96, 29.2 1.14 C29.99 1.33, 30.73 1.53, 31.39 1.75 C32.05 1.96, 32.65 2.2, 33.17 2.44 C33.68 2.69, 34.12 2.95, 34.48 3.22 C34.83 3.48, 35.1 3.76, 35.28 4.04 C35.46 4.32, 35.5 4.75, 35.55 4.89 C35.59 5.03, 35.59 4.75, 35.55 4.89" stroke="none" stroke-width="0" fill="#3175d7"></path><path d="M35.55 4.89 C35.55 5.17, 35.46 5.46, 35.28 5.74 C35.1 6.02, 34.83 6.29, 34.48 6.56 C34.12 6.83, 33.68 7.09, 33.17 7.33 C32.65 7.58, 32.05 7.81, 31.39 8.03 C30.73 8.25, 29.99 8.45, 29.2 8.63 C28.41 8.81, 27.55 8.98, 26.66 9.12 C25.77 9.26, 24.82 9.38, 23.85 9.48 C22.89 9.58, 21.87 9.65, 20.86 9.7 C19.85 9.75, 18.8 9.78, 17.77 9.78 C16.75 9.78, 15.7 9.75, 14.69 9.7 C13.67 9.65, 12.66 9.58, 11.7 9.48 C10.73 9.38, 9.78 9.26, 8.89 9.12 C8 8.98, 7.14 8.81, 6.35 8.63 C5.56 8.45, 4.82 8.25, 4.16 8.03 C3.5 7.81, 2.9 7.58, 2.38 7.33 C1.87 7.09, 1.42 6.83, 1.07 6.56 C0.72 6.29, 0.45 6.02, 0.27 5.74 C0.09 5.46, 0 5.17, 0 4.89 C0 4.6, 0.09 4.32, 0.27 4.04 C0.45 3.76, 0.72 3.48, 1.07 3.22 C1.42 2.95, 1.87 2.69, 2.38 2.44 C2.9 2.2, 3.5 1.96, 4.16 1.75 C4.82 1.53, 5.56 1.33, 6.35 1.14 C7.14 0.96, 8 0.8, 8.89 0.65 C9.78 0.51, 10.73 0.39, 11.7 0.29 C12.66 0.2, 13.67 0.12, 14.69 0.07 C15.7 0.03, 16.75 0, 17.77 0 C18.8 0, 19.85 0.03, 20.86 0.07 C21.87 0.12, 22.89 0.2, 23.85 0.29 C24.82 0.39, 25.77 0.51, 26.66 0.65 C27.55 0.8, 28.41 0.96, 29.2 1.14 C29.99 1.33, 30.73 1.53, 31.39 1.75 C32.05 1.96, 32.65 2.2, 33.17 2.44 C33.68 2.69, 34.12 2.95, 34.48 3.22 C34.83 3.48, 35.1 3.76, 35.28 4.04 C35.46 4.32, 35.5 4.75, 35.55 4.89 C35.59 5.03, 35.59 4.75, 35.55 4.89" stroke="#fff" stroke-width="2" fill="none"></path></g><g transform="translate(207.06308668771544 551.3735207961718) rotate(0 10.493607411066932 6.99573827404447)"><text x="10.493607411066733" y="11.20408936897139" font-family="Cascadia, Segoe UI Emoji" font-size="11.892851964235062px" fill="#fff" text-anchor="middle" style="white-space: pre;" direction="ltr" dominant-baseline="alphabetic">RDS</text></g><g transform="translate(170.97065308078982 597.1116650756403) rotate(0 44.79165233234744 25.10745571684265)"><text x="0" y="11.730203310908838" font-family="Virgil, Segoe UI Emoji" font-size="13.390643048982694px" fill="#1971c2" text-anchor="start" style="white-space: pre;" direction="ltr" dominant-baseline="alphabetic">RDS DB </text><text x="0" y="28.468507122137204" font-family="Virgil, Segoe UI Emoji" font-size="13.390643048982694px" fill="#1971c2" text-anchor="start" style="white-space: pre;" direction="ltr" dominant-baseline="alphabetic">instance read</text><text x="0" y="45.206810933365574" font-family="Virgil, Segoe UI Emoji" font-size="13.390643048982694px" fill="#1971c2" text-anchor="start" style="white-space: pre;" direction="ltr" dominant-baseline="alphabetic">replica</text></g><g stroke-linecap="round" transform="translate(513.9633443927496 488.84543867782213) rotate(0 45.072302550506265 46.31704606587982)"><path d="M90.14 46.32 C90.14 48.51, 89.99 50.73, 89.69 52.91 C89.38 55.08, 88.92 57.26, 88.32 59.37 C87.72 61.47, 86.96 63.56, 86.07 65.56 C85.18 67.56, 84.15 69.51, 82.99 71.36 C81.83 73.21, 80.54 74.99, 79.14 76.65 C77.74 78.31, 76.2 79.88, 74.59 81.32 C72.97 82.76, 71.24 84.09, 69.44 85.28 C67.64 86.47, 65.74 87.54, 63.8 88.45 C61.85 89.36, 59.82 90.14, 57.77 90.76 C55.72 91.38, 53.6 91.85, 51.49 92.16 C49.37 92.48, 47.21 92.63, 45.07 92.63 C42.93 92.63, 40.77 92.48, 38.66 92.16 C36.54 91.85, 34.43 91.38, 32.37 90.76 C30.32 90.14, 28.29 89.36, 26.35 88.45 C24.4 87.54, 22.5 86.47, 20.7 85.28 C18.91 84.09, 17.17 82.76, 15.56 81.32 C13.94 79.88, 12.41 78.31, 11.01 76.65 C9.61 74.99, 8.31 73.21, 7.16 71.36 C6 69.51, 4.96 67.56, 4.07 65.56 C3.18 63.56, 2.43 61.47, 1.83 59.37 C1.22 57.26, 0.76 55.08, 0.46 52.91 C0.15 50.73, 0 48.51, 0 46.32 C0 44.12, 0.15 41.9, 0.46 39.73 C0.76 37.55, 1.22 35.38, 1.83 33.27 C2.43 31.16, 3.18 29.07, 4.07 27.08 C4.96 25.08, 6 23.12, 7.16 21.28 C8.31 19.43, 9.61 17.65, 11.01 15.99 C12.41 14.33, 13.94 12.75, 15.56 11.31 C17.17 9.87, 18.91 8.54, 20.7 7.35 C22.5 6.16, 24.4 5.1, 26.35 4.19 C28.29 3.27, 30.32 2.5, 32.37 1.88 C34.43 1.26, 36.54 0.78, 38.66 0.47 C40.77 0.16, 42.93 0, 45.07 0 C47.21 0, 49.37 0.16, 51.49 0.47 C53.6 0.78, 55.72 1.26, 57.77 1.88 C59.82 2.5, 61.85 3.27, 63.8 4.19 C65.74 5.1, 67.64 6.16, 69.44 7.35 C71.24 8.54, 72.97 9.87, 74.59 11.31 C76.2 12.75, 77.74 14.33, 79.14 15.99 C80.54 17.65, 81.83 19.43, 82.99 21.28 C84.15 23.12, 85.18 25.08, 86.07 27.08 C86.96 29.07, 87.72 31.16, 88.32 33.27 C88.92 35.38, 89.38 37.55, 89.69 39.73 C89.99 41.9, 90.07 45.22, 90.14 46.32 C90.22 47.42, 90.22 45.22, 90.14 46.32" stroke="none" stroke-width="0" fill="#3175d7"></path><path d="M90.14 46.32 C90.14 48.51, 89.99 50.73, 89.69 52.91 C89.38 55.08, 88.92 57.26, 88.32 59.37 C87.72 61.47, 86.96 63.56, 86.07 65.56 C85.18 67.56, 84.15 69.51, 82.99 71.36 C81.83 73.21, 80.54 74.99, 79.14 76.65 C77.74 78.31, 76.2 79.88, 74.59 81.32 C72.97 82.76, 71.24 84.09, 69.44 85.28 C67.64 86.47, 65.74 87.54, 63.8 88.45 C61.85 89.36, 59.82 90.14, 57.77 90.76 C55.72 91.38, 53.6 91.85, 51.49 92.16 C49.37 92.48, 47.21 92.63, 45.07 92.63 C42.93 92.63, 40.77 92.48, 38.66 92.16 C36.54 91.85, 34.43 91.38, 32.37 90.76 C30.32 90.14, 28.29 89.36, 26.35 88.45 C24.4 87.54, 22.5 86.47, 20.7 85.28 C18.91 84.09, 17.17 82.76, 15.56 81.32 C13.94 79.88, 12.41 78.31, 11.01 76.65 C9.61 74.99, 8.31 73.21, 7.16 71.36 C6 69.51, 4.96 67.56, 4.07 65.56 C3.18 63.56, 2.43 61.47, 1.83 59.37 C1.22 57.26, 0.76 55.08, 0.46 52.91 C0.15 50.73, 0 48.51, 0 46.32 C0 44.12, 0.15 41.9, 0.46 39.73 C0.76 37.55, 1.22 35.38, 1.83 33.27 C2.43 31.16, 3.18 29.07, 4.07 27.08 C4.96 25.08, 6 23.12, 7.16 21.28 C8.31 19.43, 9.61 17.65, 11.01 15.99 C12.41 14.33, 13.94 12.75, 15.56 11.31 C17.17 9.87, 18.91 8.54, 20.7 7.35 C22.5 6.16, 24.4 5.1, 26.35 4.19 C28.29 3.27, 30.32 2.5, 32.37 1.88 C34.43 1.26, 36.54 0.78, 38.66 0.47 C40.77 0.16, 42.93 0, 45.07 0 C47.21 0, 49.37 0.16, 51.49 0.47 C53.6 0.78, 55.72 1.26, 57.77 1.88 C59.82 2.5, 61.85 3.27, 63.8 4.19 C65.74 5.1, 67.64 6.16, 69.44 7.35 C71.24 8.54, 72.97 9.87, 74.59 11.31 C76.2 12.75, 77.74 14.33, 79.14 15.99 C80.54 17.65, 81.83 19.43, 82.99 21.28 C84.15 23.12, 85.18 25.08, 86.07 27.08 C86.96 29.07, 87.72 31.16, 88.32 33.27 C88.92 35.38, 89.38 37.55, 89.69 39.73 C89.99 41.9, 90.07 45.22, 90.14 46.32 C90.22 47.42, 90.22 45.22, 90.14 46.32" stroke="#fff" stroke-width="2" fill="none"></path></g><g stroke-linecap="round"><g transform="translate(541.3639088762611 508.4980378580467) rotate(0 17.536037446819137 18.401960433343902)" fill-rule="evenodd"><path d="M0 0 C0.28 4.92, 0.63 23.76, 1.66 29.52 C2.68 35.27, 3.35 33.32, 6.15 34.53 C8.96 35.75, 14.59 36.74, 18.5 36.8 C22.4 36.87, 26.82 36.27, 29.58 34.91 C32.34 33.55, 34.2 34.43, 35.07 28.63 C35.94 22.83, 35.06 4.77, 34.81 0.09 C34.56 -4.59, 39.29 0.54, 33.58 0.53 C27.86 0.53, 6.04 0.14, 0.53 0.06" stroke="none" stroke-width="0" fill="#3175d7" fill-rule="evenodd"></path><path d="M0 0 C0.28 4.92, 0.63 23.76, 1.66 29.52 C2.68 35.27, 3.35 33.32, 6.15 34.53 C8.96 35.75, 14.59 36.74, 18.5 36.8 C22.4 36.87, 26.82 36.27, 29.58 34.91 C32.34 33.55, 34.2 34.43, 35.07 28.63 C35.94 22.83, 35.06 4.77, 34.81 0.09 C34.56 -4.59, 39.29 0.54, 33.58 0.53 C27.86 0.53, 6.04 0.14, 0.53 0.06 M0 0 C0.28 4.92, 0.63 23.76, 1.66 29.52 C2.68 35.27, 3.35 33.32, 6.15 34.53 C8.96 35.75, 14.59 36.74, 18.5 36.8 C22.4 36.87, 26.82 36.27, 29.58 34.91 C32.34 33.55, 34.2 34.43, 35.07 28.63 C35.94 22.83, 35.06 4.77, 34.81 0.09 C34.56 -4.59, 39.29 0.54, 33.58 0.53 C27.86 0.53, 6.04 0.14, 0.53 0.06" stroke="#fff" stroke-width="2" fill="none"></path></g></g><mask></mask><g stroke-linecap="round" transform="translate(541.0406376529872 503.4112012120422) rotate(0 17.774273544485823 4.887901039687222)"><path d="M35.55 4.89 C35.55 5.17, 35.46 5.46, 35.28 5.74 C35.1 6.02, 34.83 6.29, 34.48 6.56 C34.12 6.83, 33.68 7.09, 33.17 7.33 C32.65 7.58, 32.05 7.81, 31.39 8.03 C30.73 8.25, 29.99 8.45, 29.2 8.63 C28.41 8.81, 27.55 8.98, 26.66 9.12 C25.77 9.26, 24.82 9.38, 23.85 9.48 C22.89 9.58, 21.87 9.65, 20.86 9.7 C19.85 9.75, 18.8 9.78, 17.77 9.78 C16.75 9.78, 15.7 9.75, 14.69 9.7 C13.67 9.65, 12.66 9.58, 11.7 9.48 C10.73 9.38, 9.78 9.26, 8.89 9.12 C8 8.98, 7.14 8.81, 6.35 8.63 C5.56 8.45, 4.82 8.25, 4.16 8.03 C3.5 7.81, 2.9 7.58, 2.38 7.33 C1.87 7.09, 1.42 6.83, 1.07 6.56 C0.72 6.29, 0.45 6.02, 0.27 5.74 C0.09 5.46, 0 5.17, 0 4.89 C0 4.6, 0.09 4.32, 0.27 4.04 C0.45 3.76, 0.72 3.48, 1.07 3.22 C1.42 2.95, 1.87 2.69, 2.38 2.44 C2.9 2.2, 3.5 1.96, 4.16 1.75 C4.82 1.53, 5.56 1.33, 6.35 1.14 C7.14 0.96, 8 0.8, 8.89 0.65 C9.78 0.51, 10.73 0.39, 11.7 0.29 C12.66 0.2, 13.67 0.12, 14.69 0.07 C15.7 0.03, 16.75 0, 17.77 0 C18.8 0, 19.85 0.03, 20.86 0.07 C21.87 0.12, 22.89 0.2, 23.85 0.29 C24.82 0.39, 25.77 0.51, 26.66 0.65 C27.55 0.8, 28.41 0.96, 29.2 1.14 C29.99 1.33, 30.73 1.53, 31.39 1.75 C32.05 1.96, 32.65 2.2, 33.17 2.44 C33.68 2.69, 34.12 2.95, 34.48 3.22 C34.83 3.48, 35.1 3.76, 35.28 4.04 C35.46 4.32, 35.5 4.75, 35.55 4.89 C35.59 5.03, 35.59 4.75, 35.55 4.89" stroke="none" stroke-width="0" fill="#3175d7"></path><path d="M35.55 4.89 C35.55 5.17, 35.46 5.46, 35.28 5.74 C35.1 6.02, 34.83 6.29, 34.48 6.56 C34.12 6.83, 33.68 7.09, 33.17 7.33 C32.65 7.58, 32.05 7.81, 31.39 8.03 C30.73 8.25, 29.99 8.45, 29.2 8.63 C28.41 8.81, 27.55 8.98, 26.66 9.12 C25.77 9.26, 24.82 9.38, 23.85 9.48 C22.89 9.58, 21.87 9.65, 20.86 9.7 C19.85 9.75, 18.8 9.78, 17.77 9.78 C16.75 9.78, 15.7 9.75, 14.69 9.7 C13.67 9.65, 12.66 9.58, 11.7 9.48 C10.73 9.38, 9.78 9.26, 8.89 9.12 C8 8.98, 7.14 8.81, 6.35 8.63 C5.56 8.45, 4.82 8.25, 4.16 8.03 C3.5 7.81, 2.9 7.58, 2.38 7.33 C1.87 7.09, 1.42 6.83, 1.07 6.56 C0.72 6.29, 0.45 6.02, 0.27 5.74 C0.09 5.46, 0 5.17, 0 4.89 C0 4.6, 0.09 4.32, 0.27 4.04 C0.45 3.76, 0.72 3.48, 1.07 3.22 C1.42 2.95, 1.87 2.69, 2.38 2.44 C2.9 2.2, 3.5 1.96, 4.16 1.75 C4.82 1.53, 5.56 1.33, 6.35 1.14 C7.14 0.96, 8 0.8, 8.89 0.65 C9.78 0.51, 10.73 0.39, 11.7 0.29 C12.66 0.2, 13.67 0.12, 14.69 0.07 C15.7 0.03, 16.75 0, 17.77 0 C18.8 0, 19.85 0.03, 20.86 0.07 C21.87 0.12, 22.89 0.2, 23.85 0.29 C24.82 0.39, 25.77 0.51, 26.66 0.65 C27.55 0.8, 28.41 0.96, 29.2 1.14 C29.99 1.33, 30.73 1.53, 31.39 1.75 C32.05 1.96, 32.65 2.2, 33.17 2.44 C33.68 2.69, 34.12 2.95, 34.48 3.22 C34.83 3.48, 35.1 3.76, 35.28 4.04 C35.46 4.32, 35.5 4.75, 35.55 4.89 C35.59 5.03, 35.59 4.75, 35.55 4.89" stroke="#fff" stroke-width="2" fill="none"></path></g><g transform="translate(550.3364282178336 551.373520796169) rotate(0 10.493607411066932 6.99573827404447)"><text x="10.493607411066733" y="11.20408936897139" font-family="Cascadia, Segoe UI Emoji" font-size="11.892851964235062px" fill="#fff" text-anchor="middle" style="white-space: pre;" direction="ltr" dominant-baseline="alphabetic">RDS</text></g><g transform="translate(514.243994610908 597.9322923400314) rotate(0 44.79165233234744 25.10745571684265)"><text x="0" y="11.730203310908838" font-family="Virgil, Segoe UI Emoji" font-size="13.390643048982694px" fill="#1971c2" text-anchor="start" style="white-space: pre;" direction="ltr" dominant-baseline="alphabetic">RDS DB </text><text x="0" y="28.468507122137204" font-family="Virgil, Segoe UI Emoji" font-size="13.390643048982694px" fill="#1971c2" text-anchor="start" style="white-space: pre;" direction="ltr" dominant-baseline="alphabetic">instance read</text><text x="0" y="45.206810933365574" font-family="Virgil, Segoe UI Emoji" font-size="13.390643048982694px" fill="#1971c2" text-anchor="start" style="white-space: pre;" direction="ltr" dominant-baseline="alphabetic">replica</text></g><g stroke-linecap="round"><g transform="translate(333.4754209656194 531.1316598299436) rotate(0 -33.62559024794518 1.17679507953153)"><path d="M1.57 2.35 C-9.33 2.83, -53.97 1.48, -65.68 1.16 M-1.03 1.16 C-12.13 2.16, -55.36 3.93, -67.06 4.14" stroke="#1971c2" stroke-width="4" fill="none"></path></g><g transform="translate(333.4754209656194 531.1316598299436) rotate(0 -33.62559024794518 1.17679507953153)"><path d="M-42.17 -4.03 C-51.49 -3.35, -58.77 1.75, -67.73 2.35 M-44.47 -4.99 C-50.94 -2.96, -56.58 0.24, -66.55 4.86" stroke="#1971c2" stroke-width="4" fill="none"></path></g><g transform="translate(333.4754209656194 531.1316598299436) rotate(0 -33.62559024794518 1.17679507953153)"><path d="M-41.63 13.06 C-51.01 8.8, -58.44 8.93, -67.73 2.35 M-43.93 12.1 C-50.57 9.11, -56.37 7.29, -66.55 4.86" stroke="#1971c2" stroke-width="4" fill="none"></path></g></g><mask></mask><g stroke-linecap="round"><g transform="translate(429.74177848266027 536.885568338007) rotate(0 38.03652785801114 2.091837814077735e-11)"><path d="M-0.32 -0.04 C12.93 -0.13, 64.6 -2.37, 77.2 -2.47 M-3.94 -2.53 C9.25 -2.18, 62.74 -0.96, 75.58 -0.18" stroke="#1971c2" stroke-width="4" fill="none"></path></g><g transform="translate(429.74177848266027 536.885568338007) rotate(0 38.03652785801114 2.091837814077735e-11)"><path d="M51.74 8.26 C55.22 5.28, 61.69 2.64, 73.95 0.54 M52.11 6.95 C57.19 5.5, 64.1 3.97, 75.51 -0.4" stroke="#1971c2" stroke-width="4" fill="none"></path></g><g transform="translate(429.74177848266027 536.885568338007) rotate(0 38.03652785801114 2.091837814077735e-11)"><path d="M52.4 -8.83 C55.61 -8.11, 61.94 -7.04, 73.95 0.54 M52.77 -10.14 C57.55 -7.14, 64.28 -4.22, 75.51 -0.4" stroke="#1971c2" stroke-width="4" fill="none"></path></g></g><mask></mask><g transform="translate(291.65483777179816 541.5854233095752) rotate(0 27.09296417236328 13.75)"><text x="0" y="9.636" font-family="Virgil, Segoe UI Emoji" font-size="11px" fill="#1971c2" text-anchor="start" style="white-space: pre;" direction="ltr" dominant-baseline="alphabetic">async</text><text x="0" y="23.386" font-family="Virgil, Segoe UI Emoji" font-size="11px" fill="#1971c2" text-anchor="start" style="white-space: pre;" direction="ltr" dominant-baseline="alphabetic">replication</text></g><g transform="translate(440.07891293290686 541.990023255822) rotate(0 27.09296417236328 13.75)"><text x="0" y="9.636" font-family="Virgil, Segoe UI Emoji" font-size="11px" fill="#1971c2" text-anchor="start" style="white-space: pre;" direction="ltr" dominant-baseline="alphabetic">async</text><text x="0" y="23.386" font-family="Virgil, Segoe UI Emoji" font-size="11px" fill="#1971c2" text-anchor="start" style="white-space: pre;" direction="ltr" dominant-baseline="alphabetic">replication</text></g><g mask="url(#mask-bpCXoVznvalUQ0Xp-11pv)" stroke-linecap="round"><g transform="translate(207.67087809072837 487.79794351383316) rotate(0 -1.415459994624598 -55.67475978857419)"><path d="M1.11 0.84 C1.95 -43.83, 2.44 -81.13, -2.67 -110.04 M-0.13 -1.19 C2.09 -41.45, -0.21 -83.53, -3.79 -112.32" stroke="#1971c2" stroke-width="2" fill="none"></path></g><g transform="translate(207.67087809072837 487.79794351383316) rotate(0 -1.415459994624598 -55.67475978857419)"><path d="M7.52 -89.33 C3.6 -99.07, 0.3 -105.17, -3.71 -111.67 M6.9 -90.35 C3.91 -97.84, -0.83 -106.18, -4.27 -112.8" stroke="#1971c2" stroke-width="2" fill="none"></path></g><g transform="translate(207.67087809072837 487.79794351383316) rotate(0 -1.415459994624598 -55.67475978857419)"><path d="M-9.51 -87.7 C-6.96 -98.14, -3.8 -104.86, -3.71 -111.67 M-10.13 -88.71 C-6.58 -96.69, -4.78 -105.65, -4.27 -112.8" stroke="#1971c2" stroke-width="2" fill="none"></path></g></g><mask id="mask-bpCXoVznvalUQ0Xp-11pv"><rect x="0" y="0" fill="#fff" width="310.50179807997756" height="699.1474630909815"></rect><rect x="192.71993378213847" y="425.24818372525897" fill="#000" width="27.070968627929688" height="13.75" opacity="1"></rect></mask><g transform="translate(192.71993378213847 425.2481837252599) rotate(0 13.87263558347513 6.808575089089572)"><text x="13.535484313964844" y="9.636" font-family="Virgil, Segoe UI Emoji" font-size="11px" fill="#1971c2" text-anchor="middle" style="white-space: pre;" direction="ltr" dominant-baseline="alphabetic">Read</text></g><g mask="url(#mask-z7d6_p2R0OS1tcaSdiq78)" stroke-linecap="round"><g transform="translate(365.25875749228635 484.02338352816787) rotate(0 -1.8872799928331006 -53.78747979574109)"><path d="M-3.54 3.55 C2.16 -40.56, 1.1 -81.4, -0.14 -109.01 M1.94 0.62 C-1.04 -38.13, 0.08 -76.53, -1.93 -107.6" stroke="#1971c2" stroke-width="2" fill="none"></path></g><g transform="translate(365.25875749228635 484.02338352816787) rotate(0 -1.8872799928331006 -53.78747979574109)"><path d="M5.75 -82.69 C5.66 -92.97, 2.21 -101.58, -0.12 -108.32 M8.49 -84.15 C3.76 -92.46, 1.58 -100.59, -1.01 -107.62" stroke="#1971c2" stroke-width="2" fill="none"></path></g><g transform="translate(365.25875749228635 484.02338352816787) rotate(0 -1.8872799928331006 -53.78747979574109)"><path d="M-11.33 -82.02 C-4.85 -92.44, -1.71 -101.31, -0.12 -108.32 M-8.59 -83.49 C-7.16 -92.05, -3.16 -100.43, -1.01 -107.62" stroke="#1971c2" stroke-width="2" fill="none"></path></g></g><mask id="mask-z7d6_p2R0OS1tcaSdiq78"><rect x="0" y="0" fill="#fff" width="469.03331747795255" height="691.59834311965"></rect><rect x="349.8359931854884" y="423.3609037324277" fill="#000" width="27.070968627929688" height="13.75" opacity="1"></rect></mask><g transform="translate(349.8359931854884 423.3609037324268) rotate(0 14.620835275299214 7.935160119086504)"><text x="13.535484313964844" y="9.636" font-family="Virgil, Segoe UI Emoji" font-size="11px" fill="#1971c2" text-anchor="middle" style="white-space: pre;" direction="ltr" dominant-baseline="alphabetic">Read</text></g><g mask="url(#mask-NJoyYdgBRiso2IPWdc09r)" stroke-linecap="round"><g transform="translate(397.34251737044724 372.6738639510186) rotate(0 1.4154599946250528 55.67475978857465)"><path d="M-1.69 3.45 C-1.27 30.14, -4.13 54.57, -1.12 113.67 M0.51 1.63 C2.08 41.18, 4.02 82.79, 2.89 111.6" stroke="#1971c2" stroke-width="2" fill="none"></path></g><g transform="translate(397.34251737044724 372.6738639510186) rotate(0 1.4154599946250528 55.67475978857465)"><path d="M-6.28 89.74 C-3.54 95.19, -3.27 99.47, 0.91 112.76 M-5.18 88.83 C-2.43 96.48, 1.15 105.12, 2.91 111.72" stroke="#1971c2" stroke-width="2" fill="none"></path></g><g transform="translate(397.34251737044724 372.6738639510186) rotate(0 1.4154599946250528 55.67475978857465)"><path d="M10.82 89.91 C9.34 95.25, 5.39 99.5, 0.91 112.76 M11.92 89 C8.19 96.47, 5.29 105.05, 2.91 111.72" stroke="#1971c2" stroke-width="2" fill="none"></path></g></g><mask id="mask-NJoyYdgBRiso2IPWdc09r"><rect x="0" y="0" fill="#fff" width="500.17343735969735" height="584.0233835281679"></rect><rect x="385.722988961752" y="421.47362373959277" fill="#000" width="26.069976806640625" height="13.75" opacity="1"></rect></mask><g transform="translate(385.722988961752 421.4736237395937) rotate(0 11.9730161980915 8.848467637785234)"><text x="13.034988403320312" y="9.636" font-family="Virgil, Segoe UI Emoji" font-size="11px" fill="#1971c2" text-anchor="middle" style="white-space: pre;" direction="ltr" dominant-baseline="alphabetic">write</text></g><g mask="url(#mask-htKx3-2TEmUktWSiijQeC)" stroke-linecap="round"><g transform="translate(557.7613167612553 480.24882354250167) rotate(0 -0.47181999820804776 -49.54109981186684)"><path d="M3.67 2.37 C-0.08 -28.63, -4.69 -56.68, 3.05 -102.01 M-1.5 0.85 C-0.91 -22.74, 0.17 -43.65, -2.84 -100.88" stroke="#1971c2" stroke-width="2" fill="none"></path></g><g transform="translate(557.7613167612553 480.24882354250167) rotate(0 -0.47181999820804776 -49.54109981186684)"><path d="M8.49 -76.56 C4.13 -84.6, -0.74 -91.1, -0.84 -102.34 M5.9 -77.32 C4 -83.3, 2.54 -87.9, -3.79 -101.77" stroke="#1971c2" stroke-width="2" fill="none"></path></g><g transform="translate(557.7613167612553 480.24882354250167) rotate(0 -0.47181999820804776 -49.54109981186684)"><path d="M-8.6 -75.87 C-8.08 -83.97, -8.09 -90.66, -0.84 -102.34 M-11.18 -76.63 C-9.3 -82.69, -6.97 -87.44, -3.79 -101.77" stroke="#1971c2" stroke-width="2" fill="none"></path></g></g><mask id="mask-htKx3-2TEmUktWSiijQeC"><rect x="0" y="0" fill="#fff" width="658.7049567576714" height="679.3310231662354"></rect><rect x="543.7540124490824" y="423.8327237306348" fill="#000" width="27.070968627929688" height="13.75" opacity="1"></rect></mask><g transform="translate(543.7540124490824 423.8327237306339) rotate(0 14.42165379691869 6.596046786755323)"><text x="13.535484313964844" y="9.636" font-family="Virgil, Segoe UI Emoji" font-size="11px" fill="#1971c2" text-anchor="middle" style="white-space: pre;" direction="ltr" dominant-baseline="alphabetic">Read</text></g><g transform="translate(123.52593994140625 669.6263828114706) rotate(0 142.1759033203125 10)"><text x="0" y="14.016" font-family="Virgil, Segoe UI Emoji" font-size="16px" fill="#1971c2" text-anchor="start" style="white-space: pre;" direction="ltr" dominant-baseline="alphabetic">* Can create upto 15 read replicas.</text></g><g transform="translate(123.52593994140625 702.4372626908262) rotate(0 275.703857421875 10)"><text x="0" y="14.016" font-family="Virgil, Segoe UI Emoji" font-size="16px" fill="#1971c2" text-anchor="start" style="white-space: pre;" direction="ltr" dominant-baseline="alphabetic">* Async replication so reads are eventually consistent. Not instantly.</text></g><g transform="translate(123.52593994140625 735.2481425701817) rotate(0 202.72793579101562 10)"><text x="0" y="14.016" font-family="Virgil, Segoe UI Emoji" font-size="16px" fill="#e03131" text-anchor="start" style="white-space: pre;" direction="ltr" dominant-baseline="alphabetic">* We can be promoted and made to be as main DB</text></g><g transform="translate(123.52593994140625 768.0590224495372) rotate(0 157.90390014648438 10)"><text x="0" y="14.016" font-family="Virgil, Segoe UI Emoji" font-size="16px" fill="#e03131" text-anchor="start" style="white-space: pre;" direction="ltr" dominant-baseline="alphabetic">* Within AZ, Cross AZ and Cross region</text></g></svg>