<svg version="1.1" xmlns="http://www.w3.org/2000/svg" viewBox="0 0 638.2196044921875 589" width="638.2196044921875" height="589">
  <!-- svg-source:excalidraw -->
  
  <defs>
    <style class="style-fonts">
      @font-face {
        font-family: "Virgil";
        src: url("https://excalidraw.com/Virgil.woff2");
      }
      @font-face {
        font-family: "Cascadia";
        src: url("https://excalidraw.com/Cascadia.woff2");
      }
      @font-face {
        font-family: "Assistant";
        src: url("https://excalidraw.com/Assistant-Regular.woff2");
      }
    </style>
    
  </defs>
  <rect x="0" y="0" width="638.2196044921875" height="589" fill="#ffffff"></rect><g stroke-linecap="round" transform="translate(129.60980224609375 10) rotate(0 189.5 58)"><path d="M29 0 C140.63 -0.51, 252.17 -3.74, 350 0 M29 0 C122.52 2.65, 214.61 4.13, 350 0 M350 0 C372.38 -1.91, 380.78 10.05, 379 29 M350 0 C366.64 -0.24, 380.88 8.93, 379 29 M379 29 C379.15 49.33, 382.21 74.58, 379 87 M379 29 C378.86 50.81, 380.72 75.42, 379 87 M379 87 C378.71 106.77, 368.78 118.52, 350 116 M379 87 C380.92 105.72, 368.12 113.32, 350 116 M350 116 C252.21 116.21, 152.7 117.3, 29 116 M350 116 C243.63 115.38, 135.82 115.6, 29 116 M29 116 C12.84 113.71, -0.19 109.63, 0 87 M29 116 C9.27 114.21, -3.2 109.24, 0 87 M0 87 C-3.92 75.13, 1.36 65.43, 0 29 M0 87 C-1.19 70.12, 1.39 52.61, 0 29 M0 29 C3.21 12.74, 11.95 3.7, 29 0 M0 29 C-3.73 8.98, 9.09 -4.42, 29 0" stroke="#2f9e44" stroke-width="4" fill="none"></path></g><g transform="translate(257.9598388671875 55.5) rotate(0 61.14996337890625 12.5)"><text x="61.14996337890625" y="17.52" font-family="Virgil, Segoe UI Emoji" font-size="20px" fill="#2f9e44" text-anchor="middle" style="white-space: pre;" direction="ltr" dominant-baseline="alphabetic">Amazon RDS</text></g><g transform="translate(177.659912109375 142) rotate(0 141.44989013671875 12.5)"><text x="0" y="17.52" font-family="Virgil, Segoe UI Emoji" font-size="20px" fill="#2f9e44" text-anchor="start" style="white-space: pre;" direction="ltr" dominant-baseline="alphabetic">Relational Database service</text></g><g transform="translate(10 202) rotate(0 150.04991149902344 12.5)"><text x="0" y="17.52" font-family="Virgil, Segoe UI Emoji" font-size="20px" fill="#6741d9" text-anchor="start" style="white-space: pre;" direction="ltr" dominant-baseline="alphabetic">* Managed DB service by AWS</text></g><g transform="translate(10 261) rotate(0 152.2598876953125 12.5)"><text x="0" y="17.52" font-family="Virgil, Segoe UI Emoji" font-size="20px" fill="#6741d9" text-anchor="start" style="white-space: pre;" direction="ltr" dominant-baseline="alphabetic">* Uses SQL as query language</text></g><g transform="translate(10 320) rotate(0 309.10980224609375 12.5)"><text x="0" y="17.52" font-family="Virgil, Segoe UI Emoji" font-size="20px" fill="#6741d9" text-anchor="start" style="white-space: pre;" direction="ltr" dominant-baseline="alphabetic">* Allows us to create database in the cloud managed by AWS</text></g><g transform="translate(10 379) rotate(0 206.7698516845703 100)"><text x="0" y="17.52" font-family="Virgil, Segoe UI Emoji" font-size="20px" fill="#6741d9" text-anchor="start" style="white-space: pre;" direction="ltr" dominant-baseline="alphabetic">* Supports following database engines :</text><text x="0" y="42.519999999999996" font-family="Virgil, Segoe UI Emoji" font-size="20px" fill="#6741d9" text-anchor="start" style="white-space: pre;" direction="ltr" dominant-baseline="alphabetic">    - Postgres</text><text x="0" y="67.52" font-family="Virgil, Segoe UI Emoji" font-size="20px" fill="#6741d9" text-anchor="start" style="white-space: pre;" direction="ltr" dominant-baseline="alphabetic">    - MySQL</text><text x="0" y="92.52" font-family="Virgil, Segoe UI Emoji" font-size="20px" fill="#6741d9" text-anchor="start" style="white-space: pre;" direction="ltr" dominant-baseline="alphabetic">    - MariaDB</text><text x="0" y="117.52" font-family="Virgil, Segoe UI Emoji" font-size="20px" fill="#6741d9" text-anchor="start" style="white-space: pre;" direction="ltr" dominant-baseline="alphabetic">    - Oracle</text><text x="0" y="142.52" font-family="Virgil, Segoe UI Emoji" font-size="20px" fill="#6741d9" text-anchor="start" style="white-space: pre;" direction="ltr" dominant-baseline="alphabetic">    - Microsoft SQL server</text><text x="0" y="167.52" font-family="Virgil, Segoe UI Emoji" font-size="20px" fill="#6741d9" text-anchor="start" style="white-space: pre;" direction="ltr" dominant-baseline="alphabetic">    - IBM DB2</text><text x="0" y="192.52" font-family="Virgil, Segoe UI Emoji" font-size="20px" fill="#6741d9" text-anchor="start" style="white-space: pre;" direction="ltr" dominant-baseline="alphabetic">    - Aurora (AWS Proprietary database)</text></g></svg>