<svg version="1.1" xmlns="http://www.w3.org/2000/svg" viewBox="0 0 609.2316284179688 607.5" width="609.2316284179688" height="607.5">
  <!-- svg-source:excalidraw -->
  
  <defs>
    <style class="style-fonts">
      @font-face {
        font-family: "Virgil";
        src: url("https://excalidraw.com/Virgil.woff2");
      }
      @font-face {
        font-family: "Cascadia";
        src: url("https://excalidraw.com/Cascadia.woff2");
      }
      @font-face {
        font-family: "Assistant";
        src: url("https://excalidraw.com/Assistant-Regular.woff2");
      }
    </style>
    
  </defs>
  <rect x="0" y="0" width="609.2316284179688" height="607.5" fill="#ffffff"></rect><g stroke-linecap="round" transform="translate(82.11581420898438 10) rotate(0 222.5000000000001 40)"><path d="M20 0 C177.49 -4.14, 329.06 -3.58, 425 0 M20 0 C150.8 -3.53, 283.22 -2.34, 425 0 M425 0 C437.98 3.37, 443.86 7.94, 445 20 M425 0 C436.3 -3.9, 446.43 9.52, 445 20 M445 20 C444.96 31.26, 444.19 44.42, 445 60 M445 20 C443.73 35.38, 444.4 47.78, 445 60 M445 60 C443.73 72.79, 442.29 76.65, 425 80 M445 60 C447.17 71.51, 433.93 84.1, 425 80 M425 80 C322.12 81.81, 216.48 82.49, 20 80 M425 80 C298.33 77.13, 171.15 75.74, 20 80 M20 80 C8.55 78.17, 0.2 72.62, 0 60 M20 80 C3.79 78.89, -1.9 74.67, 0 60 M0 60 C3.31 49.72, 1.16 31.22, 0 20 M0 60 C0.75 49.37, 0.58 36.44, 0 20 M0 20 C1.75 8.92, 3.16 -1.42, 20 0 M0 20 C2.84 9.23, 8.87 1.32, 20 0" stroke="#1971c2" stroke-width="4" fill="none"></path></g><g transform="translate(201.15987396240234 40) rotate(0 103.45594024658203 10)"><text x="0" y="14.016" font-family="Virgil, Segoe UI Emoji" font-size="16px" fill="#1971c2" text-anchor="start" style="white-space: pre;" direction="ltr" dominant-baseline="alphabetic">EBS (Elastic Block Store)</text></g><g transform="translate(10 120) rotate(0 294.6158142089844 10)"><text x="0" y="14.016" font-family="Virgil, Segoe UI Emoji" font-size="16px" fill="#1e1e1e" text-anchor="start" style="white-space: pre;" direction="ltr" dominant-baseline="alphabetic">It is a network drive that we can attach to EC2 instance while they run</text></g><g transform="translate(11 169) rotate(0 173.64788818359375 10)"><text x="0" y="14.016" font-family="Virgil, Segoe UI Emoji" font-size="16px" fill="#c2255c" text-anchor="start" style="white-space: pre;" direction="ltr" dominant-baseline="alphabetic">-&gt; Persis data, even after EC2 termination</text></g><g transform="translate(11 202) rotate(0 158.3074951171875 10.44271294379405)"><text x="0" y="14.636506462021565" font-family="Virgil, Segoe UI Emoji" font-size="16.70834071007028px" fill="#c2255c" text-anchor="start" style="white-space: pre;" direction="ltr" dominant-baseline="alphabetic">-&gt; Mounted to one instance at a time</text></g><g transform="translate(11 237.5) rotate(0 164.73193359375 10)"><text x="0" y="14.016" font-family="Virgil, Segoe UI Emoji" font-size="16px" fill="#c2255c" text-anchor="start" style="white-space: pre;" direction="ltr" dominant-baseline="alphabetic">-&gt; Bound to specific availability zone</text></g><g transform="translate(10 272) rotate(0 199.71189880371094 10)"><text x="0" y="14.016" font-family="Virgil, Segoe UI Emoji" font-size="16px" fill="#c2255c" text-anchor="start" style="white-space: pre;" direction="ltr" dominant-baseline="alphabetic">-&gt; Detach from one instance and attack to other</text></g><g stroke-linecap="round" transform="translate(18.615814208984148 324.5) rotate(0 153.0000000000001 136.5)"><path d="M32 0 C119.53 0.93, 206.86 0.98, 274 0 M32 0 C122.4 0.14, 212.2 -1.26, 274 0 M274 0 C292.16 -3.94, 309.06 13.42, 306 32 M274 0 C293.94 4.28, 301.91 7.77, 306 32 M306 32 C308.12 93.95, 309.8 151.56, 306 241 M306 32 C304.36 97.46, 302.55 163.27, 306 241 M306 241 C307.36 262.53, 298.66 272.01, 274 273 M306 241 C309.06 260.1, 297.3 277.37, 274 273 M274 273 C179.17 266.68, 83.79 266.29, 32 273 M274 273 C214.36 269.78, 155.27 269.95, 32 273 M32 273 C10.95 270.65, -2.15 266.16, 0 241 M32 273 C7.93 272.82, 0.71 266.19, 0 241 M0 241 C-1.63 162.77, 3.3 84.64, 0 32 M0 241 C3.75 169.4, 2.64 98.47, 0 32 M0 32 C-2.47 11.7, 9.21 -3.29, 32 0 M0 32 C4.4 9.76, 8.18 0.77, 32 0" stroke="#c2255c" stroke-width="4" fill="none"></path></g><g transform="translate(125.1118469238279 347.4375) rotate(0 46.50396728515625 10)"><text x="0" y="14.016" font-family="Virgil, Segoe UI Emoji" font-size="16px" fill="#c2255c" text-anchor="start" style="white-space: pre;" direction="ltr" dominant-baseline="alphabetic">US-EAST-1A</text></g><g stroke-linecap="round" transform="translate(225.27960524300966 502.0986248136669) rotate(0 17.118297888138954 17.11829788813884)"><path d="M0 0 C0 0, 0 0, 0 0 M0 0 C0 0, 0 0, 0 0 M0.13 12.04 C3.65 8, 7.16 3.95, 10.63 -0.03 M0.13 12.04 C2.29 9.56, 4.44 7.09, 10.63 -0.03 M0.27 24.08 C6.38 17.05, 12.49 10.02, 21.26 -0.07 M0.27 24.08 C4.95 18.7, 9.63 13.31, 21.26 -0.07 M1.71 34.61 C11.16 23.74, 20.62 12.86, 31.89 -0.1 M1.71 34.61 C7.82 27.59, 13.92 20.56, 31.89 -0.1 M12.34 34.58 C17.02 29.19, 21.7 23.81, 34.65 8.92 M12.34 34.58 C20.78 24.87, 29.23 15.15, 34.65 8.92 M22.97 34.54 C25.45 31.69, 27.93 28.84, 34.12 21.71 M22.97 34.54 C27.31 29.56, 31.64 24.57, 34.12 21.71 M33.6 34.51 C33.74 34.36, 33.87 34.2, 34.26 33.75 M33.6 34.51 C33.86 34.21, 34.12 33.92, 34.26 33.75 M-0.35 33.93 C-0.35 33.93, -0.35 33.93, -0.35 33.93 M-0.35 33.93 C-0.35 33.93, -0.35 33.93, -0.35 33.93 M12.45 34.46 C9.38 31.79, 6.32 29.13, 0.37 23.96 M12.45 34.46 C8.54 31.06, 4.64 27.67, 0.37 23.96 M24.49 34.32 C16.56 27.44, 8.64 20.55, 0.34 13.33 M24.49 34.32 C18.63 29.23, 12.77 24.14, 0.34 13.33 M34.27 32.22 C22.36 21.87, 10.45 11.52, 0.3 2.7 M34.27 32.22 C21.67 21.27, 9.07 10.32, 0.3 2.7 M34.23 21.59 C25.21 13.75, 16.19 5.91, 9.33 -0.06 M34.23 21.59 C27.94 16.13, 21.66 10.66, 9.33 -0.06 M34.95 11.62 C30.81 8.02, 26.68 4.43, 21.37 -0.19 M34.95 11.62 C31.36 8.5, 27.77 5.37, 21.37 -0.19 M34.92 0.99 C34.61 0.72, 34.31 0.46, 33.41 -0.32 M34.92 0.99 C34.41 0.55, 33.9 0.11, 33.41 -0.32" stroke="#40c05788" stroke-width="1" fill="none"></path><path d="M0 0 C8.46 0, 16.92 0, 34.24 0 M0 0 C10.17 0, 20.35 0, 34.24 0 M34.24 0 C34.24 12.58, 34.24 25.16, 34.24 34.24 M34.24 0 C34.24 9.31, 34.24 18.61, 34.24 34.24 M34.24 34.24 C25.72 34.24, 17.21 34.24, 0 34.24 M34.24 34.24 C23.68 34.24, 13.13 34.24, 0 34.24 M0 34.24 C0 25.42, 0 16.6, 0 0 M0 34.24 C0 26.98, 0 19.72, 0 0" stroke="#000000" stroke-width="2" fill="none"></path></g><g transform="translate(231.8293056281086 539.012565394225) rotate(0 10.568597503039882 6.312751073829077)"><text x="10.56859750303985" y="8.690553978304878" font-family="Virgil, Segoe UI Emoji" font-size="10.52125178971535px" fill="#000000" text-anchor="middle" style="white-space: pre;" direction="ltr" dominant-baseline="alphabetic">EBS</text></g><g stroke-linecap="round"><g transform="translate(252.3697286696281 528.3146374893113) rotate(347.8150297286332 1.1876249709636113 1.7910905213448132)"><path d="M0 0 C0.93 1.4, 1.85 2.79, 2.38 3.58 M0 0 C0.74 1.11, 1.47 2.22, 2.38 3.58" stroke="#000000" stroke-width="2" fill="none"></path></g></g><mask></mask><g stroke-linecap="round"><g transform="translate(254.21256279458134 506.1311036443594) rotate(1.7147489031136585 -1.2831250436330492 1.890607444987836)"><path d="M0 0 C-0.97 1.43, -1.94 2.85, -2.57 3.78 M0 0 C-0.88 1.29, -1.76 2.59, -2.57 3.78" stroke="#000000" stroke-width="2" fill="none"></path></g></g><mask></mask><g stroke-linecap="round"><g transform="translate(256.43199954836314 529.9669336280449) rotate(330.3350417630171 -1.8484483583456495 1.3219486716766369)"><path d="M0 0 C-0.42 0.79, -0.83 1.58, -1.4 2.64 M0 0 C-0.47 0.89, -0.94 1.78, -1.4 2.64 M-1.4 2.64 C-1.93 2.28, -2.47 1.91, -3.7 1.07 M-1.4 2.64 C-2.21 2.09, -3.02 1.54, -3.7 1.07" stroke="#000000" stroke-width="2" fill="none"></path></g></g><mask></mask><g stroke-linecap="round"><g transform="translate(231.65863352277643 505.79248157602706) rotate(142.4753661383674 -1.7046029324476422 1.1648974721210834)"><path d="M0 0 C-0.58 0.83, -1.15 1.67, -1.61 2.33 M0 0 C-0.36 0.53, -0.73 1.05, -1.61 2.33 M-1.61 2.33 C-2.11 1.74, -2.62 1.15, -3.41 0.22 M-1.61 2.33 C-2.32 1.5, -3.03 0.66, -3.41 0.22" stroke="#000000" stroke-width="2" fill="none"></path></g></g><mask></mask><g stroke-linecap="round"><g transform="translate(229.96535625778642 506.4940897655915) rotate(347.8150297286332 1.1876249709636113 1.7910905213448132)"><path d="M0 0 C0.62 0.93, 1.23 1.86, 2.38 3.58 M0 0 C0.69 1.04, 1.38 2.07, 2.38 3.58" stroke="#000000" stroke-width="2" fill="none"></path></g></g><mask></mask><g stroke-linecap="round"><g transform="translate(232.6081318538777 528.1838306058407) rotate(3.9451862290376525 -1.2831250436330492 1.890607444987836)"><path d="M0 0 C-0.94 1.39, -1.89 2.78, -2.57 3.78 M0 0 C-0.7 1.03, -1.4 2.06, -2.57 3.78" stroke="#000000" stroke-width="2" fill="none"></path></g></g><mask></mask><g stroke-linecap="round"><g transform="translate(255.91542723570183 505.37662533816274) rotate(220.82937908555525 -1.7046029324476422 1.1648974721210834)"><path d="M0 0 C-0.45 0.65, -0.89 1.3, -1.61 2.33 M0 0 C-0.52 0.75, -1.03 1.5, -1.61 2.33 M-1.61 2.33 C-2.06 1.8, -2.51 1.27, -3.41 0.22 M-1.61 2.33 C-2.21 1.62, -2.81 0.92, -3.41 0.22" stroke="#000000" stroke-width="2" fill="none"></path></g></g><mask></mask><g stroke-linecap="round"><g transform="translate(231.67328958562985 530.4215249898243) rotate(38.039922017610984 -1.7046029324476422 1.1648974721210834)"><path d="M0 0 C-0.63 0.91, -1.26 1.82, -1.61 2.33 M0 0 C-0.52 0.75, -1.03 1.5, -1.61 2.33 M-1.61 2.33 C-2.05 1.81, -2.49 1.3, -3.41 0.22 M-1.61 2.33 C-2.05 1.81, -2.49 1.3, -3.41 0.22" stroke="#000000" stroke-width="2" fill="none"></path></g></g><mask></mask><g stroke-linecap="round"><g transform="translate(236.09780317350464 511.6416423801538) rotate(0 6.085338244802415 7.909534511999027)"><path d="M0 0 C0 2.24, -0.04 10.78, 0 13.42 C0.04 16.06, -0.07 15.29, 0.21 15.84 C0.49 16.4, 1.07 16.47, 1.68 16.73 C2.29 17, 3.11 17.29, 3.87 17.44 C4.62 17.59, 5.48 17.62, 6.21 17.62 C6.93 17.62, 7.56 17.54, 8.2 17.44 C8.85 17.33, 9.45 17.27, 10.07 16.99 C10.7 16.71, 11.61 16.34, 11.94 15.75 C12.27 15.15, 12.03 15.74, 12.07 13.42 C12.11 11.1, 12.18 4.07, 12.17 1.83 C12.16 -0.42, 12.29 0.42, 12.02 -0.06 C11.74 -0.54, 11.04 -0.8, 10.5 -1.06 C9.97 -1.33, 9.46 -1.51, 8.81 -1.63 C8.16 -1.76, 7.2 -1.77, 6.6 -1.8 C6 -1.83, 5.93 -1.86, 5.2 -1.8 C4.47 -1.74, 3.08 -1.73, 2.22 -1.43 C1.35 -1.13, 0.37 -0.24, 0 0 M0 0 C0 2.24, -0.04 10.78, 0 13.42 C0.04 16.06, -0.07 15.29, 0.21 15.84 C0.49 16.4, 1.07 16.47, 1.68 16.73 C2.29 17, 3.11 17.29, 3.87 17.44 C4.62 17.59, 5.48 17.62, 6.21 17.62 C6.93 17.62, 7.56 17.54, 8.2 17.44 C8.85 17.33, 9.45 17.27, 10.07 16.99 C10.7 16.71, 11.61 16.34, 11.94 15.75 C12.27 15.15, 12.03 15.74, 12.07 13.42 C12.11 11.1, 12.18 4.07, 12.17 1.83 C12.16 -0.42, 12.29 0.42, 12.02 -0.06 C11.74 -0.54, 11.04 -0.8, 10.5 -1.06 C9.97 -1.33, 9.46 -1.51, 8.81 -1.63 C8.16 -1.76, 7.2 -1.77, 6.6 -1.8 C6 -1.83, 5.93 -1.86, 5.2 -1.8 C4.47 -1.74, 3.08 -1.73, 2.22 -1.43 C1.35 -1.13, 0.37 -0.24, 0 0" stroke="#000000" stroke-width="2" fill="none"></path></g></g><mask></mask><g stroke-linecap="round" transform="translate(236.05299223040083 509.77520019842905) rotate(0 6.074563899215718 1.6516428160493888)"><path d="M12.15 1.65 C12.15 1.75, 12.12 1.84, 12.06 1.94 C12 2.03, 11.9 2.13, 11.78 2.22 C11.66 2.31, 11.51 2.39, 11.34 2.48 C11.16 2.56, 10.95 2.64, 10.73 2.71 C10.5 2.79, 10.25 2.86, 9.98 2.92 C9.71 2.98, 9.42 3.03, 9.11 3.08 C8.81 3.13, 8.48 3.17, 8.15 3.2 C7.82 3.24, 7.48 3.26, 7.13 3.28 C6.78 3.29, 6.43 3.3, 6.07 3.3 C5.72 3.3, 5.37 3.29, 5.02 3.28 C4.67 3.26, 4.33 3.24, 4 3.2 C3.67 3.17, 3.34 3.13, 3.04 3.08 C2.73 3.03, 2.44 2.98, 2.17 2.92 C1.9 2.86, 1.65 2.79, 1.42 2.71 C1.2 2.64, 0.99 2.56, 0.81 2.48 C0.64 2.39, 0.49 2.31, 0.37 2.22 C0.25 2.13, 0.15 2.03, 0.09 1.94 C0.03 1.84, 0 1.75, 0 1.65 C0 1.56, 0.03 1.46, 0.09 1.36 C0.15 1.27, 0.25 1.18, 0.37 1.09 C0.49 1, 0.64 0.91, 0.81 0.83 C0.99 0.74, 1.2 0.66, 1.42 0.59 C1.65 0.52, 1.9 0.45, 2.17 0.39 C2.44 0.32, 2.73 0.27, 3.04 0.22 C3.34 0.17, 3.67 0.13, 4 0.1 C4.33 0.07, 4.67 0.04, 5.02 0.03 C5.37 0.01, 5.72 0, 6.07 0 C6.43 0, 6.78 0.01, 7.13 0.03 C7.48 0.04, 7.82 0.07, 8.15 0.1 C8.48 0.13, 8.81 0.17, 9.11 0.22 C9.42 0.27, 9.71 0.32, 9.98 0.39 C10.25 0.45, 10.5 0.52, 10.73 0.59 C10.95 0.66, 11.16 0.74, 11.34 0.83 C11.51 0.91, 11.66 1, 11.78 1.09 C11.9 1.18, 12 1.27, 12.06 1.36 C12.12 1.46, 12.13 1.6, 12.15 1.65 C12.16 1.7, 12.16 1.6, 12.15 1.65" stroke="none" stroke-width="0" fill="#ffffff"></path><path d="M12.15 1.65 C12.15 1.75, 12.12 1.84, 12.06 1.94 C12 2.03, 11.9 2.13, 11.78 2.22 C11.66 2.31, 11.51 2.39, 11.34 2.48 C11.16 2.56, 10.95 2.64, 10.73 2.71 C10.5 2.79, 10.25 2.86, 9.98 2.92 C9.71 2.98, 9.42 3.03, 9.11 3.08 C8.81 3.13, 8.48 3.17, 8.15 3.2 C7.82 3.24, 7.48 3.26, 7.13 3.28 C6.78 3.29, 6.43 3.3, 6.07 3.3 C5.72 3.3, 5.37 3.29, 5.02 3.28 C4.67 3.26, 4.33 3.24, 4 3.2 C3.67 3.17, 3.34 3.13, 3.04 3.08 C2.73 3.03, 2.44 2.98, 2.17 2.92 C1.9 2.86, 1.65 2.79, 1.42 2.71 C1.2 2.64, 0.99 2.56, 0.81 2.48 C0.64 2.39, 0.49 2.31, 0.37 2.22 C0.25 2.13, 0.15 2.03, 0.09 1.94 C0.03 1.84, 0 1.75, 0 1.65 C0 1.56, 0.03 1.46, 0.09 1.36 C0.15 1.27, 0.25 1.18, 0.37 1.09 C0.49 1, 0.64 0.91, 0.81 0.83 C0.99 0.74, 1.2 0.66, 1.42 0.59 C1.65 0.52, 1.9 0.45, 2.17 0.39 C2.44 0.32, 2.73 0.27, 3.04 0.22 C3.34 0.17, 3.67 0.13, 4 0.1 C4.33 0.07, 4.67 0.04, 5.02 0.03 C5.37 0.01, 5.72 0, 6.07 0 C6.43 0, 6.78 0.01, 7.13 0.03 C7.48 0.04, 7.82 0.07, 8.15 0.1 C8.48 0.13, 8.81 0.17, 9.11 0.22 C9.42 0.27, 9.71 0.32, 9.98 0.39 C10.25 0.45, 10.5 0.52, 10.73 0.59 C10.95 0.66, 11.16 0.74, 11.34 0.83 C11.51 0.91, 11.66 1, 11.78 1.09 C11.9 1.18, 12 1.27, 12.06 1.36 C12.12 1.46, 12.13 1.6, 12.15 1.65 C12.16 1.7, 12.16 1.6, 12.15 1.65" stroke="#000000" stroke-width="2" fill="none"></path></g><g stroke-linecap="round" transform="translate(151.10738906787992 502.0986248136669) rotate(0 17.118297888138954 17.11829788813884)"><path d="M0 0 C0 0, 0 0, 0 0 M0 0 C0 0, 0 0, 0 0 M0.13 12.04 C3.36 8.33, 6.58 4.63, 10.63 -0.03 M0.13 12.04 C2.57 9.24, 5.01 6.43, 10.63 -0.03 M0.27 24.08 C8.17 14.99, 16.08 5.89, 21.26 -0.07 M0.27 24.08 C8.1 15.07, 15.93 6.07, 21.26 -0.07 M1.71 34.61 C9.07 26.15, 16.43 17.68, 31.89 -0.1 M1.71 34.61 C11.14 23.76, 20.58 12.91, 31.89 -0.1 M12.34 34.58 C20.67 25, 28.99 15.43, 34.65 8.92 M12.34 34.58 C19.99 25.78, 27.64 16.97, 34.65 8.92 M22.97 34.54 C25.61 31.51, 28.24 28.48, 34.12 21.71 M22.97 34.54 C27.25 29.62, 31.53 24.7, 34.12 21.71 M33.6 34.51 C33.79 34.29, 33.99 34.07, 34.26 33.75 M33.6 34.51 C33.8 34.28, 34 34.06, 34.26 33.75 M-0.35 33.93 C-0.35 33.93, -0.35 33.93, -0.35 33.93 M-0.35 33.93 C-0.35 33.93, -0.35 33.93, -0.35 33.93 M12.45 34.46 C9.34 31.76, 6.24 29.06, 0.37 23.96 M12.45 34.46 C9.28 31.7, 6.11 28.95, 0.37 23.96 M24.49 34.32 C18.25 28.9, 12 23.47, 0.34 13.33 M24.49 34.32 C18.76 29.34, 13.03 24.36, 0.34 13.33 M34.27 32.22 C27.35 26.21, 20.44 20.21, 0.3 2.7 M34.27 32.22 C21.27 20.93, 8.28 9.63, 0.3 2.7 M34.23 21.59 C28.92 16.98, 23.61 12.36, 9.33 -0.06 M34.23 21.59 C27.4 15.65, 20.56 9.71, 9.33 -0.06 M34.95 11.62 C31.08 8.25, 27.21 4.89, 21.37 -0.19 M34.95 11.62 C30.23 7.52, 25.52 3.42, 21.37 -0.19 M34.92 0.99 C34.5 0.63, 34.09 0.27, 33.41 -0.32 M34.92 0.99 C34.6 0.71, 34.27 0.43, 33.41 -0.32" stroke="#40c05788" stroke-width="1" fill="none"></path><path d="M0 0 C11.7 0, 23.41 0, 34.24 0 M0 0 C7.53 0, 15.07 0, 34.24 0 M34.24 0 C34.24 7.61, 34.24 15.23, 34.24 34.24 M34.24 0 C34.24 10.7, 34.24 21.4, 34.24 34.24 M34.24 34.24 C22.47 34.24, 10.71 34.24, 0 34.24 M34.24 34.24 C20.76 34.24, 7.28 34.24, 0 34.24 M0 34.24 C0 25.59, 0 16.95, 0 0 M0 34.24 C0 27.35, 0 20.46, 0 0" stroke="#000000" stroke-width="2" fill="none"></path></g><g transform="translate(157.65708945297933 539.0125653942259) rotate(0 10.568597503039882 6.312751073829077)"><text x="10.56859750303985" y="8.690553978304878" font-family="Virgil, Segoe UI Emoji" font-size="10.52125178971535px" fill="#000000" text-anchor="middle" style="white-space: pre;" direction="ltr" dominant-baseline="alphabetic">EBS</text></g><g stroke-linecap="round"><g transform="translate(178.1975124944986 528.3146374893113) rotate(347.8150297286332 1.1876249709636113 1.7910905213448132)"><path d="M0 0 C0.89 1.34, 1.77 2.67, 2.38 3.58 M0 0 C0.83 1.25, 1.66 2.5, 2.38 3.58" stroke="#000000" stroke-width="2" fill="none"></path></g></g><mask></mask><g stroke-linecap="round"><g transform="translate(180.04034661945207 506.1311036443594) rotate(1.7147489031136585 -1.2831250436330492 1.890607444987836)"><path d="M0 0 C-0.93 1.36, -1.85 2.73, -2.57 3.78 M0 0 C-0.68 1, -1.36 2, -2.57 3.78" stroke="#000000" stroke-width="2" fill="none"></path></g></g><mask></mask><g stroke-linecap="round"><g transform="translate(182.25978337323363 529.9669336280458) rotate(330.3350417630171 -1.8484483583456495 1.3219486716766369)"><path d="M0 0 C-0.53 1, -1.05 2, -1.4 2.64 M0 0 C-0.4 0.75, -0.79 1.5, -1.4 2.64 M-1.4 2.64 C-1.98 2.25, -2.56 1.85, -3.7 1.07 M-1.4 2.64 C-1.91 2.29, -2.42 1.94, -3.7 1.07" stroke="#000000" stroke-width="2" fill="none"></path></g></g><mask></mask><g stroke-linecap="round"><g transform="translate(157.48641734764692 505.79248157602797) rotate(142.4753661383674 -1.7046029324476422 1.1648974721210834)"><path d="M0 0 C-0.63 0.92, -1.26 1.83, -1.61 2.33 M0 0 C-0.59 0.85, -1.17 1.7, -1.61 2.33 M-1.61 2.33 C-2.23 1.6, -2.86 0.87, -3.41 0.22 M-1.61 2.33 C-2.32 1.5, -3.03 0.66, -3.41 0.22" stroke="#000000" stroke-width="2" fill="none"></path></g></g><mask></mask><g stroke-linecap="round"><g transform="translate(155.79314008265692 506.4940897655906) rotate(347.8150297286332 1.1876249709636113 1.7910905213448132)"><path d="M0 0 C0.59 0.89, 1.18 1.79, 2.38 3.58 M0 0 C0.56 0.84, 1.12 1.68, 2.38 3.58" stroke="#000000" stroke-width="2" fill="none"></path></g></g><mask></mask><g stroke-linecap="round"><g transform="translate(158.43591567874842 528.1838306058407) rotate(3.9451862290376525 -1.2831250436330492 1.890607444987836)"><path d="M0 0 C-0.57 0.84, -1.14 1.68, -2.57 3.78 M0 0 C-0.8 1.18, -1.6 2.36, -2.57 3.78" stroke="#000000" stroke-width="2" fill="none"></path></g></g><mask></mask><g stroke-linecap="round"><g transform="translate(181.74321106057232 505.37662533816365) rotate(220.82937908555525 -1.7046029324476422 1.1648974721210834)"><path d="M0 0 C-0.64 0.93, -1.28 1.86, -1.61 2.33 M0 0 C-0.39 0.57, -0.79 1.15, -1.61 2.33 M-1.61 2.33 C-2.29 1.53, -2.98 0.73, -3.41 0.22 M-1.61 2.33 C-2.15 1.7, -2.69 1.06, -3.41 0.22" stroke="#000000" stroke-width="2" fill="none"></path></g></g><mask></mask><g stroke-linecap="round"><g transform="translate(157.50107341050034 530.4215249898243) rotate(38.039922017610984 -1.7046029324476422 1.1648974721210834)"><path d="M0 0 C-0.38 0.56, -0.77 1.11, -1.61 2.33 M0 0 C-0.39 0.56, -0.78 1.13, -1.61 2.33 M-1.61 2.33 C-1.99 1.88, -2.38 1.43, -3.41 0.22 M-1.61 2.33 C-2.28 1.55, -2.95 0.76, -3.41 0.22" stroke="#000000" stroke-width="2" fill="none"></path></g></g><mask></mask><g stroke-linecap="round"><g transform="translate(161.92558699837537 511.6416423801538) rotate(0 6.085338244802415 7.909534511999027)"><path d="M0 0 C0 2.24, -0.04 10.78, 0 13.42 C0.04 16.06, -0.07 15.29, 0.21 15.84 C0.49 16.4, 1.07 16.47, 1.68 16.73 C2.29 17, 3.11 17.29, 3.87 17.44 C4.62 17.59, 5.48 17.62, 6.21 17.62 C6.93 17.62, 7.56 17.54, 8.2 17.44 C8.85 17.33, 9.45 17.27, 10.07 16.99 C10.7 16.71, 11.61 16.34, 11.94 15.75 C12.27 15.15, 12.03 15.74, 12.07 13.42 C12.11 11.1, 12.18 4.07, 12.17 1.83 C12.16 -0.42, 12.29 0.42, 12.02 -0.06 C11.74 -0.54, 11.04 -0.8, 10.5 -1.06 C9.97 -1.33, 9.46 -1.51, 8.81 -1.63 C8.16 -1.76, 7.2 -1.77, 6.6 -1.8 C6 -1.83, 5.93 -1.86, 5.2 -1.8 C4.47 -1.74, 3.08 -1.73, 2.22 -1.43 C1.35 -1.13, 0.37 -0.24, 0 0 M0 0 C0 2.24, -0.04 10.78, 0 13.42 C0.04 16.06, -0.07 15.29, 0.21 15.84 C0.49 16.4, 1.07 16.47, 1.68 16.73 C2.29 17, 3.11 17.29, 3.87 17.44 C4.62 17.59, 5.48 17.62, 6.21 17.62 C6.93 17.62, 7.56 17.54, 8.2 17.44 C8.85 17.33, 9.45 17.27, 10.07 16.99 C10.7 16.71, 11.61 16.34, 11.94 15.75 C12.27 15.15, 12.03 15.74, 12.07 13.42 C12.11 11.1, 12.18 4.07, 12.17 1.83 C12.16 -0.42, 12.29 0.42, 12.02 -0.06 C11.74 -0.54, 11.04 -0.8, 10.5 -1.06 C9.97 -1.33, 9.46 -1.51, 8.81 -1.63 C8.16 -1.76, 7.2 -1.77, 6.6 -1.8 C6 -1.83, 5.93 -1.86, 5.2 -1.8 C4.47 -1.74, 3.08 -1.73, 2.22 -1.43 C1.35 -1.13, 0.37 -0.24, 0 0" stroke="#000000" stroke-width="2" fill="none"></path></g></g><mask></mask><g stroke-linecap="round" transform="translate(161.88077605527155 509.77520019842814) rotate(0 6.074563899215718 1.6516428160493888)"><path d="M12.15 1.65 C12.15 1.75, 12.12 1.84, 12.06 1.94 C12 2.03, 11.9 2.13, 11.78 2.22 C11.66 2.31, 11.51 2.39, 11.34 2.48 C11.16 2.56, 10.95 2.64, 10.73 2.71 C10.5 2.79, 10.25 2.86, 9.98 2.92 C9.71 2.98, 9.42 3.03, 9.11 3.08 C8.81 3.13, 8.48 3.17, 8.15 3.2 C7.82 3.24, 7.48 3.26, 7.13 3.28 C6.78 3.29, 6.43 3.3, 6.07 3.3 C5.72 3.3, 5.37 3.29, 5.02 3.28 C4.67 3.26, 4.33 3.24, 4 3.2 C3.67 3.17, 3.34 3.13, 3.04 3.08 C2.73 3.03, 2.44 2.98, 2.17 2.92 C1.9 2.86, 1.65 2.79, 1.42 2.71 C1.2 2.64, 0.99 2.56, 0.81 2.48 C0.64 2.39, 0.49 2.31, 0.37 2.22 C0.25 2.13, 0.15 2.03, 0.09 1.94 C0.03 1.84, 0 1.75, 0 1.65 C0 1.56, 0.03 1.46, 0.09 1.36 C0.15 1.27, 0.25 1.18, 0.37 1.09 C0.49 1, 0.64 0.91, 0.81 0.83 C0.99 0.74, 1.2 0.66, 1.42 0.59 C1.65 0.52, 1.9 0.45, 2.17 0.39 C2.44 0.32, 2.73 0.27, 3.04 0.22 C3.34 0.17, 3.67 0.13, 4 0.1 C4.33 0.07, 4.67 0.04, 5.02 0.03 C5.37 0.01, 5.72 0, 6.07 0 C6.43 0, 6.78 0.01, 7.13 0.03 C7.48 0.04, 7.82 0.07, 8.15 0.1 C8.48 0.13, 8.81 0.17, 9.11 0.22 C9.42 0.27, 9.71 0.32, 9.98 0.39 C10.25 0.45, 10.5 0.52, 10.73 0.59 C10.95 0.66, 11.16 0.74, 11.34 0.83 C11.51 0.91, 11.66 1, 11.78 1.09 C11.9 1.18, 12 1.27, 12.06 1.36 C12.12 1.46, 12.13 1.6, 12.15 1.65 C12.16 1.7, 12.16 1.6, 12.15 1.65" stroke="none" stroke-width="0" fill="#ffffff"></path><path d="M12.15 1.65 C12.15 1.75, 12.12 1.84, 12.06 1.94 C12 2.03, 11.9 2.13, 11.78 2.22 C11.66 2.31, 11.51 2.39, 11.34 2.48 C11.16 2.56, 10.95 2.64, 10.73 2.71 C10.5 2.79, 10.25 2.86, 9.98 2.92 C9.71 2.98, 9.42 3.03, 9.11 3.08 C8.81 3.13, 8.48 3.17, 8.15 3.2 C7.82 3.24, 7.48 3.26, 7.13 3.28 C6.78 3.29, 6.43 3.3, 6.07 3.3 C5.72 3.3, 5.37 3.29, 5.02 3.28 C4.67 3.26, 4.33 3.24, 4 3.2 C3.67 3.17, 3.34 3.13, 3.04 3.08 C2.73 3.03, 2.44 2.98, 2.17 2.92 C1.9 2.86, 1.65 2.79, 1.42 2.71 C1.2 2.64, 0.99 2.56, 0.81 2.48 C0.64 2.39, 0.49 2.31, 0.37 2.22 C0.25 2.13, 0.15 2.03, 0.09 1.94 C0.03 1.84, 0 1.75, 0 1.65 C0 1.56, 0.03 1.46, 0.09 1.36 C0.15 1.27, 0.25 1.18, 0.37 1.09 C0.49 1, 0.64 0.91, 0.81 0.83 C0.99 0.74, 1.2 0.66, 1.42 0.59 C1.65 0.52, 1.9 0.45, 2.17 0.39 C2.44 0.32, 2.73 0.27, 3.04 0.22 C3.34 0.17, 3.67 0.13, 4 0.1 C4.33 0.07, 4.67 0.04, 5.02 0.03 C5.37 0.01, 5.72 0, 6.07 0 C6.43 0, 6.78 0.01, 7.13 0.03 C7.48 0.04, 7.82 0.07, 8.15 0.1 C8.48 0.13, 8.81 0.17, 9.11 0.22 C9.42 0.27, 9.71 0.32, 9.98 0.39 C10.25 0.45, 10.5 0.52, 10.73 0.59 C10.95 0.66, 11.16 0.74, 11.34 0.83 C11.51 0.91, 11.66 1, 11.78 1.09 C11.9 1.18, 12 1.27, 12.06 1.36 C12.12 1.46, 12.13 1.6, 12.15 1.65 C12.16 1.7, 12.16 1.6, 12.15 1.65" stroke="#000000" stroke-width="2" fill="none"></path></g><g stroke-linecap="round" transform="translate(79.43535995483376 502.0986248136669) rotate(0 17.118297888138954 17.11829788813884)"><path d="M0 0 C0 0, 0 0, 0 0 M0 0 C0 0, 0 0, 0 0 M0.13 12.04 C4.05 7.54, 7.97 3.03, 10.63 -0.03 M0.13 12.04 C2.4 9.43, 4.67 6.82, 10.63 -0.03 M0.27 24.08 C7.35 15.93, 14.44 7.78, 21.26 -0.07 M0.27 24.08 C6.8 16.57, 13.33 9.06, 21.26 -0.07 M1.71 34.61 C9.83 25.27, 17.96 15.93, 31.89 -0.1 M1.71 34.61 C12.18 22.58, 22.64 10.54, 31.89 -0.1 M12.34 34.58 C20.43 25.27, 28.52 15.96, 34.65 8.92 M12.34 34.58 C20.11 25.64, 27.88 16.7, 34.65 8.92 M22.97 34.54 C25.51 31.62, 28.06 28.69, 34.12 21.71 M22.97 34.54 C26.78 30.16, 30.6 25.77, 34.12 21.71 M33.6 34.51 C33.74 34.35, 33.87 34.2, 34.26 33.75 M33.6 34.51 C33.82 34.26, 34.04 34, 34.26 33.75 M-0.35 33.93 C-0.35 33.93, -0.35 33.93, -0.35 33.93 M-0.35 33.93 C-0.35 33.93, -0.35 33.93, -0.35 33.93 M12.45 34.46 C9.28 31.7, 6.1 28.94, 0.37 23.96 M12.45 34.46 C8.16 30.73, 3.87 27, 0.37 23.96 M24.49 34.32 C15.81 26.78, 7.13 19.23, 0.34 13.33 M24.49 34.32 C16.27 27.18, 8.05 20.04, 0.34 13.33 M34.27 32.22 C25.71 24.79, 17.16 17.36, 0.3 2.7 M34.27 32.22 C27.27 26.14, 20.28 20.06, 0.3 2.7 M34.23 21.59 C25.99 14.43, 17.75 7.27, 9.33 -0.06 M34.23 21.59 C24.51 13.14, 14.79 4.69, 9.33 -0.06 M34.95 11.62 C31.77 8.86, 28.6 6.1, 21.37 -0.19 M34.95 11.62 C32.22 9.24, 29.48 6.86, 21.37 -0.19 M34.92 0.99 C34.37 0.51, 33.82 0.04, 33.41 -0.32 M34.92 0.99 C34.32 0.47, 33.71 -0.06, 33.41 -0.32" stroke="#40c05788" stroke-width="1" fill="none"></path><path d="M0 0 C10.17 0, 20.34 0, 34.24 0 M0 0 C7.07 0, 14.14 0, 34.24 0 M34.24 0 C34.24 11.98, 34.24 23.97, 34.24 34.24 M34.24 0 C34.24 7.77, 34.24 15.54, 34.24 34.24 M34.24 34.24 C25.38 34.24, 16.52 34.24, 0 34.24 M34.24 34.24 C22.81 34.24, 11.39 34.24, 0 34.24 M0 34.24 C0 23.06, 0 11.89, 0 0 M0 34.24 C0 25.14, 0 16.04, 0 0" stroke="#000000" stroke-width="2" fill="none"></path></g><g transform="translate(85.9863360656293 539.0125653942259) rotate(0 10.56732177734375 6.312751073829077)"><text x="10.56732177734375" y="8.690553978304878" font-family="Virgil, Segoe UI Emoji" font-size="10.52125178971535px" fill="#000000" text-anchor="middle" style="white-space: pre;" direction="ltr" dominant-baseline="alphabetic">EBS</text></g><g stroke-linecap="round"><g transform="translate(106.52548338145243 528.3146374893113) rotate(347.8150297286332 1.1876249709636113 1.7910905213448132)"><path d="M0 0 C0.93 1.4, 1.85 2.8, 2.38 3.58 M0 0 C0.77 1.17, 1.55 2.33, 2.38 3.58" stroke="#000000" stroke-width="2" fill="none"></path></g></g><mask></mask><g stroke-linecap="round"><g transform="translate(108.3683175064059 506.1311036443594) rotate(1.7147489031136585 -1.2831250436330492 1.890607444987836)"><path d="M0 0 C-0.87 1.28, -1.74 2.56, -2.57 3.78 M0 0 C-0.96 1.41, -1.91 2.82, -2.57 3.78" stroke="#000000" stroke-width="2" fill="none"></path></g></g><mask></mask><g stroke-linecap="round"><g transform="translate(110.58775426018747 529.9669336280458) rotate(330.3350417630171 -1.8484483583456495 1.3219486716766369)"><path d="M0 0 C-0.35 0.67, -0.71 1.34, -1.4 2.64 M0 0 C-0.32 0.61, -0.64 1.21, -1.4 2.64 M-1.4 2.64 C-1.88 2.32, -2.36 1.99, -3.7 1.07 M-1.4 2.64 C-1.88 2.32, -2.36 1.99, -3.7 1.07" stroke="#000000" stroke-width="2" fill="none"></path></g></g><mask></mask><g stroke-linecap="round"><g transform="translate(85.81438823460098 505.79248157602797) rotate(142.4753661383674 -1.7046029324476422 1.1648974721210834)"><path d="M0 0 C-0.64 0.93, -1.28 1.86, -1.61 2.33 M0 0 C-0.62 0.89, -1.23 1.79, -1.61 2.33 M-1.61 2.33 C-2.27 1.55, -2.94 0.77, -3.41 0.22 M-1.61 2.33 C-2.21 1.62, -2.81 0.92, -3.41 0.22" stroke="#000000" stroke-width="2" fill="none"></path></g></g><mask></mask><g stroke-linecap="round"><g transform="translate(84.12111096961075 506.4940897655906) rotate(347.8150297286332 1.1876249709636113 1.7910905213448132)"><path d="M0 0 C0.95 1.43, 1.89 2.85, 2.38 3.58 M0 0 C0.92 1.39, 1.84 2.78, 2.38 3.58" stroke="#000000" stroke-width="2" fill="none"></path></g></g><mask></mask><g stroke-linecap="round"><g transform="translate(86.76388656570225 528.1838306058407) rotate(3.9451862290376525 -1.2831250436330492 1.890607444987836)"><path d="M0 0 C-0.9 1.32, -1.8 2.65, -2.57 3.78 M0 0 C-0.58 0.86, -1.16 1.72, -2.57 3.78" stroke="#000000" stroke-width="2" fill="none"></path></g></g><mask></mask><g stroke-linecap="round"><g transform="translate(110.07118194752616 505.37662533816365) rotate(220.82937908555525 -1.7046029324476422 1.1648974721210834)"><path d="M0 0 C-0.6 0.87, -1.2 1.74, -1.61 2.33 M0 0 C-0.46 0.67, -0.92 1.34, -1.61 2.33 M-1.61 2.33 C-2.04 1.82, -2.48 1.31, -3.41 0.22 M-1.61 2.33 C-2.07 1.78, -2.54 1.24, -3.41 0.22" stroke="#000000" stroke-width="2" fill="none"></path></g></g><mask></mask><g stroke-linecap="round"><g transform="translate(85.82904429745417 530.4215249898243) rotate(38.039922017610984 -1.7046029324476422 1.1648974721210834)"><path d="M0 0 C-0.53 0.77, -1.05 1.53, -1.61 2.33 M0 0 C-0.52 0.75, -1.04 1.51, -1.61 2.33 M-1.61 2.33 C-2.16 1.68, -2.72 1.02, -3.41 0.22 M-1.61 2.33 C-2.28 1.54, -2.96 0.74, -3.41 0.22" stroke="#000000" stroke-width="2" fill="none"></path></g></g><mask></mask><g stroke-linecap="round"><g transform="translate(90.2535578853292 511.6416423801538) rotate(0 6.085338244802415 7.909534511999027)"><path d="M0 0 C0 2.24, -0.04 10.78, 0 13.42 C0.04 16.06, -0.07 15.29, 0.21 15.84 C0.49 16.4, 1.07 16.47, 1.68 16.73 C2.29 17, 3.11 17.29, 3.87 17.44 C4.62 17.59, 5.48 17.62, 6.21 17.62 C6.93 17.62, 7.56 17.54, 8.2 17.44 C8.85 17.33, 9.45 17.27, 10.07 16.99 C10.7 16.71, 11.61 16.34, 11.94 15.75 C12.27 15.15, 12.03 15.74, 12.07 13.42 C12.11 11.1, 12.18 4.07, 12.17 1.83 C12.16 -0.42, 12.29 0.42, 12.02 -0.06 C11.74 -0.54, 11.04 -0.8, 10.5 -1.06 C9.97 -1.33, 9.46 -1.51, 8.81 -1.63 C8.16 -1.76, 7.2 -1.77, 6.6 -1.8 C6 -1.83, 5.93 -1.86, 5.2 -1.8 C4.47 -1.74, 3.08 -1.73, 2.22 -1.43 C1.35 -1.13, 0.37 -0.24, 0 0 M0 0 C0 2.24, -0.04 10.78, 0 13.42 C0.04 16.06, -0.07 15.29, 0.21 15.84 C0.49 16.4, 1.07 16.47, 1.68 16.73 C2.29 17, 3.11 17.29, 3.87 17.44 C4.62 17.59, 5.48 17.62, 6.21 17.62 C6.93 17.62, 7.56 17.54, 8.2 17.44 C8.85 17.33, 9.45 17.27, 10.07 16.99 C10.7 16.71, 11.61 16.34, 11.94 15.75 C12.27 15.15, 12.03 15.74, 12.07 13.42 C12.11 11.1, 12.18 4.07, 12.17 1.83 C12.16 -0.42, 12.29 0.42, 12.02 -0.06 C11.74 -0.54, 11.04 -0.8, 10.5 -1.06 C9.97 -1.33, 9.46 -1.51, 8.81 -1.63 C8.16 -1.76, 7.2 -1.77, 6.6 -1.8 C6 -1.83, 5.93 -1.86, 5.2 -1.8 C4.47 -1.74, 3.08 -1.73, 2.22 -1.43 C1.35 -1.13, 0.37 -0.24, 0 0" stroke="#000000" stroke-width="2" fill="none"></path></g></g><mask></mask><g stroke-linecap="round" transform="translate(90.20874694222539 509.77520019842814) rotate(0 6.074563899215718 1.6516428160493888)"><path d="M12.15 1.65 C12.15 1.75, 12.12 1.84, 12.06 1.94 C12 2.03, 11.9 2.13, 11.78 2.22 C11.66 2.31, 11.51 2.39, 11.34 2.48 C11.16 2.56, 10.95 2.64, 10.73 2.71 C10.5 2.79, 10.25 2.86, 9.98 2.92 C9.71 2.98, 9.42 3.03, 9.11 3.08 C8.81 3.13, 8.48 3.17, 8.15 3.2 C7.82 3.24, 7.48 3.26, 7.13 3.28 C6.78 3.29, 6.43 3.3, 6.07 3.3 C5.72 3.3, 5.37 3.29, 5.02 3.28 C4.67 3.26, 4.33 3.24, 4 3.2 C3.67 3.17, 3.34 3.13, 3.04 3.08 C2.73 3.03, 2.44 2.98, 2.17 2.92 C1.9 2.86, 1.65 2.79, 1.42 2.71 C1.2 2.64, 0.99 2.56, 0.81 2.48 C0.64 2.39, 0.49 2.31, 0.37 2.22 C0.25 2.13, 0.15 2.03, 0.09 1.94 C0.03 1.84, 0 1.75, 0 1.65 C0 1.56, 0.03 1.46, 0.09 1.36 C0.15 1.27, 0.25 1.18, 0.37 1.09 C0.49 1, 0.64 0.91, 0.81 0.83 C0.99 0.74, 1.2 0.66, 1.42 0.59 C1.65 0.52, 1.9 0.45, 2.17 0.39 C2.44 0.32, 2.73 0.27, 3.04 0.22 C3.34 0.17, 3.67 0.13, 4 0.1 C4.33 0.07, 4.67 0.04, 5.02 0.03 C5.37 0.01, 5.72 0, 6.07 0 C6.43 0, 6.78 0.01, 7.13 0.03 C7.48 0.04, 7.82 0.07, 8.15 0.1 C8.48 0.13, 8.81 0.17, 9.11 0.22 C9.42 0.27, 9.71 0.32, 9.98 0.39 C10.25 0.45, 10.5 0.52, 10.73 0.59 C10.95 0.66, 11.16 0.74, 11.34 0.83 C11.51 0.91, 11.66 1, 11.78 1.09 C11.9 1.18, 12 1.27, 12.06 1.36 C12.12 1.46, 12.13 1.6, 12.15 1.65 C12.16 1.7, 12.16 1.6, 12.15 1.65" stroke="none" stroke-width="0" fill="#ffffff"></path><path d="M12.15 1.65 C12.15 1.75, 12.12 1.84, 12.06 1.94 C12 2.03, 11.9 2.13, 11.78 2.22 C11.66 2.31, 11.51 2.39, 11.34 2.48 C11.16 2.56, 10.95 2.64, 10.73 2.71 C10.5 2.79, 10.25 2.86, 9.98 2.92 C9.71 2.98, 9.42 3.03, 9.11 3.08 C8.81 3.13, 8.48 3.17, 8.15 3.2 C7.82 3.24, 7.48 3.26, 7.13 3.28 C6.78 3.29, 6.43 3.3, 6.07 3.3 C5.72 3.3, 5.37 3.29, 5.02 3.28 C4.67 3.26, 4.33 3.24, 4 3.2 C3.67 3.17, 3.34 3.13, 3.04 3.08 C2.73 3.03, 2.44 2.98, 2.17 2.92 C1.9 2.86, 1.65 2.79, 1.42 2.71 C1.2 2.64, 0.99 2.56, 0.81 2.48 C0.64 2.39, 0.49 2.31, 0.37 2.22 C0.25 2.13, 0.15 2.03, 0.09 1.94 C0.03 1.84, 0 1.75, 0 1.65 C0 1.56, 0.03 1.46, 0.09 1.36 C0.15 1.27, 0.25 1.18, 0.37 1.09 C0.49 1, 0.64 0.91, 0.81 0.83 C0.99 0.74, 1.2 0.66, 1.42 0.59 C1.65 0.52, 1.9 0.45, 2.17 0.39 C2.44 0.32, 2.73 0.27, 3.04 0.22 C3.34 0.17, 3.67 0.13, 4 0.1 C4.33 0.07, 4.67 0.04, 5.02 0.03 C5.37 0.01, 5.72 0, 6.07 0 C6.43 0, 6.78 0.01, 7.13 0.03 C7.48 0.04, 7.82 0.07, 8.15 0.1 C8.48 0.13, 8.81 0.17, 9.11 0.22 C9.42 0.27, 9.71 0.32, 9.98 0.39 C10.25 0.45, 10.5 0.52, 10.73 0.59 C10.95 0.66, 11.16 0.74, 11.34 0.83 C11.51 0.91, 11.66 1, 11.78 1.09 C11.9 1.18, 12 1.27, 12.06 1.36 C12.12 1.46, 12.13 1.6, 12.15 1.65 C12.16 1.7, 12.16 1.6, 12.15 1.65" stroke="#000000" stroke-width="2" fill="none"></path></g><g stroke-linecap="round" transform="translate(82.95027497235424 383.38947610294053) rotate(0 22.25393804180692 22.868516030983756)"><path d="M44.51 22.87 C44.51 24.19, 44.39 25.54, 44.17 26.84 C43.95 28.14, 43.61 29.45, 43.17 30.69 C42.73 31.93, 42.17 33.16, 41.53 34.3 C40.88 35.45, 40.13 36.55, 39.3 37.57 C38.47 38.58, 37.55 39.54, 36.56 40.39 C35.57 41.24, 34.5 42.01, 33.38 42.67 C32.27 43.34, 31.08 43.91, 29.87 44.36 C28.65 44.81, 27.39 45.16, 26.12 45.39 C24.85 45.62, 23.54 45.74, 22.25 45.74 C20.97 45.74, 19.66 45.62, 18.39 45.39 C17.12 45.16, 15.85 44.81, 14.64 44.36 C13.43 43.91, 12.24 43.34, 11.13 42.67 C10.01 42.01, 8.94 41.24, 7.95 40.39 C6.96 39.54, 6.03 38.58, 5.21 37.57 C4.38 36.55, 3.63 35.45, 2.98 34.3 C2.34 33.16, 1.78 31.93, 1.34 30.69 C0.9 29.45, 0.56 28.14, 0.34 26.84 C0.11 25.54, 0 24.19, 0 22.87 C0 21.54, 0.11 20.2, 0.34 18.9 C0.56 17.59, 0.9 16.29, 1.34 15.05 C1.78 13.8, 2.34 12.58, 2.98 11.43 C3.63 10.29, 4.38 9.18, 5.21 8.17 C6.03 7.15, 6.96 6.2, 7.95 5.35 C8.94 4.5, 10.01 3.73, 11.13 3.06 C12.24 2.4, 13.43 1.83, 14.64 1.38 C15.85 0.93, 17.12 0.58, 18.39 0.35 C19.66 0.12, 20.97 0, 22.25 0 C23.54 0, 24.85 0.12, 26.12 0.35 C27.39 0.58, 28.65 0.93, 29.87 1.38 C31.08 1.83, 32.27 2.4, 33.38 3.06 C34.5 3.73, 35.57 4.5, 36.56 5.35 C37.55 6.2, 38.47 7.15, 39.3 8.17 C40.13 9.18, 40.88 10.29, 41.53 11.43 C42.17 12.58, 42.73 13.8, 43.17 15.05 C43.61 16.29, 43.95 17.59, 44.17 18.9 C44.39 20.2, 44.45 22.21, 44.51 22.87 C44.56 23.53, 44.56 22.21, 44.51 22.87" stroke="none" stroke-width="0" fill="#fd7e14"></path><path d="M44.51 22.87 C44.51 24.19, 44.39 25.54, 44.17 26.84 C43.95 28.14, 43.61 29.45, 43.17 30.69 C42.73 31.93, 42.17 33.16, 41.53 34.3 C40.88 35.45, 40.13 36.55, 39.3 37.57 C38.47 38.58, 37.55 39.54, 36.56 40.39 C35.57 41.24, 34.5 42.01, 33.38 42.67 C32.27 43.34, 31.08 43.91, 29.87 44.36 C28.65 44.81, 27.39 45.16, 26.12 45.39 C24.85 45.62, 23.54 45.74, 22.25 45.74 C20.97 45.74, 19.66 45.62, 18.39 45.39 C17.12 45.16, 15.85 44.81, 14.64 44.36 C13.43 43.91, 12.24 43.34, 11.13 42.67 C10.01 42.01, 8.94 41.24, 7.95 40.39 C6.96 39.54, 6.03 38.58, 5.21 37.57 C4.38 36.55, 3.63 35.45, 2.98 34.3 C2.34 33.16, 1.78 31.93, 1.34 30.69 C0.9 29.45, 0.56 28.14, 0.34 26.84 C0.11 25.54, 0 24.19, 0 22.87 C0 21.54, 0.11 20.2, 0.34 18.9 C0.56 17.59, 0.9 16.29, 1.34 15.05 C1.78 13.8, 2.34 12.58, 2.98 11.43 C3.63 10.29, 4.38 9.18, 5.21 8.17 C6.03 7.15, 6.96 6.2, 7.95 5.35 C8.94 4.5, 10.01 3.73, 11.13 3.06 C12.24 2.4, 13.43 1.83, 14.64 1.38 C15.85 0.93, 17.12 0.58, 18.39 0.35 C19.66 0.12, 20.97 0, 22.25 0 C23.54 0, 24.85 0.12, 26.12 0.35 C27.39 0.58, 28.65 0.93, 29.87 1.38 C31.08 1.83, 32.27 2.4, 33.38 3.06 C34.5 3.73, 35.57 4.5, 36.56 5.35 C37.55 6.2, 38.47 7.15, 39.3 8.17 C40.13 9.18, 40.88 10.29, 41.53 11.43 C42.17 12.58, 42.73 13.8, 43.17 15.05 C43.61 16.29, 43.95 17.59, 44.17 18.9 C44.39 20.2, 44.45 22.21, 44.51 22.87 C44.56 23.53, 44.56 22.21, 44.51 22.87" stroke="#fd7e14" stroke-width="2" fill="none"></path></g><g stroke-linecap="round" transform="translate(95.4524485611746 391.37691835104215) rotate(0 9.069133740805569 9.740715859922602)"><path d="M4.53 0 C6.43 0, 8.32 0, 13.6 0 C16.63 0, 18.14 1.51, 18.14 4.53 C18.14 7.86, 18.14 11.18, 18.14 14.95 C18.14 17.97, 16.63 19.48, 13.6 19.48 C11.72 19.48, 9.84 19.48, 4.53 19.48 C1.51 19.48, 0 17.97, 0 14.95 C0 12.77, 0 10.59, 0 4.53 C0 1.51, 1.51 0, 4.53 0" stroke="none" stroke-width="0" fill="#fd7e14"></path><path d="M4.53 0 C7.34 0, 10.14 0, 13.6 0 M4.53 0 C7.51 0, 10.48 0, 13.6 0 M13.6 0 C16.63 0, 18.14 1.51, 18.14 4.53 M13.6 0 C16.63 0, 18.14 1.51, 18.14 4.53 M18.14 4.53 C18.14 8, 18.14 11.46, 18.14 14.95 M18.14 4.53 C18.14 6.8, 18.14 9.06, 18.14 14.95 M18.14 14.95 C18.14 17.97, 16.63 19.48, 13.6 19.48 M18.14 14.95 C18.14 17.97, 16.63 19.48, 13.6 19.48 M13.6 19.48 C11.68 19.48, 9.75 19.48, 4.53 19.48 M13.6 19.48 C11.49 19.48, 9.38 19.48, 4.53 19.48 M4.53 19.48 C1.51 19.48, 0 17.97, 0 14.95 M4.53 19.48 C1.51 19.48, 0 17.97, 0 14.95 M0 14.95 C0 11.44, 0 7.94, 0 4.53 M0 14.95 C0 11.2, 0 7.46, 0 4.53 M0 4.53 C0 1.51, 1.51 0, 4.53 0 M0 4.53 C0 1.51, 1.51 0, 4.53 0" stroke="#fff" stroke-width="2" fill="none"></path></g><g transform="translate(99.5686019071145 415.628442018794) rotate(0 5.108869432727374 3.3057390447061152)"><text x="0" y="5.27970953607913" font-family="Cascadia, Segoe UI Emoji" font-size="5.682212494219624px" fill="#fff" text-anchor="start" style="white-space: pre;" direction="ltr" dominant-baseline="alphabetic">EC2</text></g><g stroke-linecap="round" transform="translate(198.95027497235446 383.7099682368662) rotate(0 21.942058946477914 22.548023897058556)"><path d="M43.88 22.55 C43.88 23.85, 43.77 25.18, 43.55 26.46 C43.33 27.75, 43 29.03, 42.56 30.26 C42.13 31.49, 41.58 32.69, 40.94 33.82 C40.31 34.95, 39.57 36.04, 38.75 37.04 C37.93 38.04, 37.02 38.98, 36.05 39.82 C35.07 40.66, 34.01 41.42, 32.91 42.08 C31.81 42.73, 30.64 43.29, 29.45 43.74 C28.25 44.18, 27 44.53, 25.75 44.75 C24.5 44.98, 23.21 45.1, 21.94 45.1 C20.67 45.1, 19.38 44.98, 18.13 44.75 C16.88 44.53, 15.63 44.18, 14.44 43.74 C13.24 43.29, 12.07 42.73, 10.97 42.08 C9.87 41.42, 8.81 40.66, 7.84 39.82 C6.87 38.98, 5.95 38.04, 5.13 37.04 C4.32 36.04, 3.57 34.95, 2.94 33.82 C2.3 32.69, 1.76 31.49, 1.32 30.26 C0.89 29.03, 0.55 27.75, 0.33 26.46 C0.11 25.18, 0 23.85, 0 22.55 C0 21.24, 0.11 19.92, 0.33 18.63 C0.55 17.35, 0.89 16.06, 1.32 14.84 C1.76 13.61, 2.3 12.4, 2.94 11.27 C3.57 10.14, 4.32 9.05, 5.13 8.05 C5.95 7.05, 6.87 6.11, 7.84 5.28 C8.81 4.44, 9.87 3.67, 10.97 3.02 C12.07 2.37, 13.24 1.81, 14.44 1.36 C15.63 0.91, 16.88 0.57, 18.13 0.34 C19.38 0.12, 20.67 0, 21.94 0 C23.21 0, 24.5 0.12, 25.75 0.34 C27 0.57, 28.25 0.91, 29.45 1.36 C30.64 1.81, 31.81 2.37, 32.91 3.02 C34.01 3.67, 35.07 4.44, 36.05 5.28 C37.02 6.11, 37.93 7.05, 38.75 8.05 C39.57 9.05, 40.31 10.14, 40.94 11.27 C41.58 12.4, 42.13 13.61, 42.56 14.84 C43 16.06, 43.33 17.35, 43.55 18.63 C43.77 19.92, 43.83 21.9, 43.88 22.55 C43.94 23.2, 43.94 21.9, 43.88 22.55" stroke="none" stroke-width="0" fill="#fd7e14"></path><path d="M43.88 22.55 C43.88 23.85, 43.77 25.18, 43.55 26.46 C43.33 27.75, 43 29.03, 42.56 30.26 C42.13 31.49, 41.58 32.69, 40.94 33.82 C40.31 34.95, 39.57 36.04, 38.75 37.04 C37.93 38.04, 37.02 38.98, 36.05 39.82 C35.07 40.66, 34.01 41.42, 32.91 42.08 C31.81 42.73, 30.64 43.29, 29.45 43.74 C28.25 44.18, 27 44.53, 25.75 44.75 C24.5 44.98, 23.21 45.1, 21.94 45.1 C20.67 45.1, 19.38 44.98, 18.13 44.75 C16.88 44.53, 15.63 44.18, 14.44 43.74 C13.24 43.29, 12.07 42.73, 10.97 42.08 C9.87 41.42, 8.81 40.66, 7.84 39.82 C6.87 38.98, 5.95 38.04, 5.13 37.04 C4.32 36.04, 3.57 34.95, 2.94 33.82 C2.3 32.69, 1.76 31.49, 1.32 30.26 C0.89 29.03, 0.55 27.75, 0.33 26.46 C0.11 25.18, 0 23.85, 0 22.55 C0 21.24, 0.11 19.92, 0.33 18.63 C0.55 17.35, 0.89 16.06, 1.32 14.84 C1.76 13.61, 2.3 12.4, 2.94 11.27 C3.57 10.14, 4.32 9.05, 5.13 8.05 C5.95 7.05, 6.87 6.11, 7.84 5.28 C8.81 4.44, 9.87 3.67, 10.97 3.02 C12.07 2.37, 13.24 1.81, 14.44 1.36 C15.63 0.91, 16.88 0.57, 18.13 0.34 C19.38 0.12, 20.67 0, 21.94 0 C23.21 0, 24.5 0.12, 25.75 0.34 C27 0.57, 28.25 0.91, 29.45 1.36 C30.64 1.81, 31.81 2.37, 32.91 3.02 C34.01 3.67, 35.07 4.44, 36.05 5.28 C37.02 6.11, 37.93 7.05, 38.75 8.05 C39.57 9.05, 40.31 10.14, 40.94 11.27 C41.58 12.4, 42.13 13.61, 42.56 14.84 C43 16.06, 43.33 17.35, 43.55 18.63 C43.77 19.92, 43.83 21.9, 43.88 22.55 C43.94 23.2, 43.94 21.9, 43.88 22.55" stroke="#fd7e14" stroke-width="2" fill="none"></path></g><g stroke-linecap="round" transform="translate(211.27723612995464 391.5854700159316) rotate(0 8.942033844095818 9.604204036957071)"><path d="M4.47 0 C6.57 0, 8.67 0, 13.41 0 C16.39 0, 17.88 1.49, 17.88 4.47 C17.88 8.25, 17.88 12.03, 17.88 14.74 C17.88 17.72, 16.39 19.21, 13.41 19.21 C10.68 19.21, 7.95 19.21, 4.47 19.21 C1.49 19.21, 0 17.72, 0 14.74 C0 12.01, 0 9.29, 0 4.47 C0 1.49, 1.49 0, 4.47 0" stroke="none" stroke-width="0" fill="#fd7e14"></path><path d="M4.47 0 C7.08 0, 9.69 0, 13.41 0 M4.47 0 C6.64 0, 8.81 0, 13.41 0 M13.41 0 C16.39 0, 17.88 1.49, 17.88 4.47 M13.41 0 C16.39 0, 17.88 1.49, 17.88 4.47 M17.88 4.47 C17.88 7.25, 17.88 10.03, 17.88 14.74 M17.88 4.47 C17.88 8.35, 17.88 12.23, 17.88 14.74 M17.88 14.74 C17.88 17.72, 16.39 19.21, 13.41 19.21 M17.88 14.74 C17.88 17.72, 16.39 19.21, 13.41 19.21 M13.41 19.21 C10.23 19.21, 7.05 19.21, 4.47 19.21 M13.41 19.21 C9.89 19.21, 6.36 19.21, 4.47 19.21 M4.47 19.21 C1.49 19.21, 0 17.72, 0 14.74 M4.47 19.21 C1.49 19.21, 0 17.72, 0 14.74 M0 14.74 C0 12.37, 0 9.99, 0 4.47 M0 14.74 C0 11.46, 0 8.18, 0 4.47 M0 4.47 C0 1.49, 1.49 0, 4.47 0 M0 4.47 C0 1.49, 1.49 0, 4.47 0" stroke="#fff" stroke-width="2" fill="none"></path></g><g transform="translate(215.33570340795654 415.4971193096453) rotate(0 5.037270888063517 3.259410574629328)"><text x="0" y="5.205716742955579" font-family="Cascadia, Segoe UI Emoji" font-size="5.602578800226473px" fill="#fff" text-anchor="start" style="white-space: pre;" direction="ltr" dominant-baseline="alphabetic">EC2</text></g><g stroke-linecap="round"><g transform="translate(100.59114216769467 499.98160266689774) rotate(0 1.7334305709965747 -31.445831083348367)"><path d="M-0.44 -0.79 C0.29 -11.66, 5.05 -52.97, 5.27 -63.66 M-4.13 -3.69 C-3.69 -14.28, 2.28 -50.58, 4.01 -60.45" stroke="#2f9e44" stroke-width="1" fill="none"></path></g><g transform="translate(100.59114216769467 499.98160266689774) rotate(0 1.7334305709965747 -31.445831083348367)"><path d="M8.01 -34.58 C6.38 -45.89, 3.97 -53.1, 2.85 -59.96 M8.5 -35.58 C5.9 -45.55, 5.77 -54.75, 3.07 -60.98" stroke="#2f9e44" stroke-width="1" fill="none"></path></g><g transform="translate(100.59114216769467 499.98160266689774) rotate(0 1.7334305709965747 -31.445831083348367)"><path d="M-8.86 -37.4 C-4.88 -47.74, -1.68 -54.02, 2.85 -59.96 M-8.36 -38.4 C-4.5 -47.14, 1.82 -55.27, 3.07 -60.98" stroke="#2f9e44" stroke-width="1" fill="none"></path></g></g><mask></mask><g stroke-linecap="round"><g transform="translate(170.79971751281005 499.9257953716351) rotate(0 23.108563400567732 -33.44348921558458)"><path d="M-1.91 -0.58 C6.1 -11.15, 39.56 -53.67, 47.65 -64.38 M2.24 -3.36 C10.05 -14.58, 39.06 -57.05, 46.2 -68.03" stroke="#2f9e44" stroke-width="1" fill="none"></path></g><g transform="translate(170.79971751281005 499.9257953716351) rotate(0 23.108563400567732 -33.44348921558458)"><path d="M39.82 -42.72 C43.81 -50.31, 45.2 -59.23, 44.81 -67.38 M40.11 -43.91 C42.54 -52.03, 42.93 -58.49, 45.23 -68.21" stroke="#2f9e44" stroke-width="1" fill="none"></path></g><g transform="translate(170.79971751281005 499.9257953716351) rotate(0 23.108563400567732 -33.44348921558458)"><path d="M25.61 -52.23 C33.62 -57.02, 39.06 -63.22, 44.81 -67.38 M25.9 -53.42 C32.74 -58.52, 37.53 -62.03, 45.23 -68.21" stroke="#2f9e44" stroke-width="1" fill="none"></path></g></g><mask></mask><g stroke-linecap="round"><g transform="translate(243.99993788935467 498.58863680079594) rotate(0 -7.630466512555358 -30.426903630452216)"><path d="M-1.05 1.49 C-3.05 -8.58, -11.85 -48.73, -14.44 -59.32 M3.57 -0.18 C1.5 -11.16, -12.45 -53.6, -16.23 -63.5" stroke="#2f9e44" stroke-width="1" fill="none"></path></g><g transform="translate(243.99993788935467 498.58863680079594) rotate(0 -7.630466512555358 -30.426903630452216)"><path d="M0.62 -43.54 C-2.77 -49.26, -8.08 -51.76, -17.24 -63.38 M-0.99 -43.27 C-5.11 -49.88, -11.91 -56.47, -17.22 -63.06" stroke="#2f9e44" stroke-width="1" fill="none"></path></g><g transform="translate(243.99993788935467 498.58863680079594) rotate(0 -7.630466512555358 -30.426903630452216)"><path d="M-15.53 -37.92 C-15.52 -44.77, -17.4 -48.47, -17.24 -63.38 M-17.14 -37.65 C-15.9 -46.02, -17.35 -54.48, -17.22 -63.06" stroke="#2f9e44" stroke-width="1" fill="none"></path></g></g><mask></mask><g transform="translate(82.97578048706009 557.3125) rotate(0 16.087486267089844 8.125)"><text x="0" y="11.388" font-family="Virgil, Segoe UI Emoji" font-size="13px" fill="#2f9e44" text-anchor="start" style="white-space: pre;" direction="ltr" dominant-baseline="alphabetic">10GB</text></g><g transform="translate(153.88829421997025 557.3125) rotate(0 20.559486389160156 8.125)"><text x="0" y="11.388" font-family="Virgil, Segoe UI Emoji" font-size="13px" fill="#2f9e44" text-anchor="start" style="white-space: pre;" direction="ltr" dominant-baseline="alphabetic">100GB</text></g><g transform="translate(225.88829421997048 558.3125) rotate(0 18.95398712158203 8.125)"><text x="0" y="11.388" font-family="Virgil, Segoe UI Emoji" font-size="13px" fill="#2f9e44" text-anchor="start" style="white-space: pre;" direction="ltr" dominant-baseline="alphabetic">20GB</text></g><g transform="translate(355.0000000000002 326) rotate(0 96.48777770996094 36.89440668220914)"><text x="0" y="12.927800101446127" font-family="Virgil, Segoe UI Emoji" font-size="14.75776267288371px" fill="#6741d9" text-anchor="start" style="white-space: pre;" direction="ltr" dominant-baseline="alphabetic">* Enable/Disable delete </text><text x="0" y="31.375003442550764" font-family="Virgil, Segoe UI Emoji" font-size="14.75776267288371px" fill="#6741d9" text-anchor="start" style="white-space: pre;" direction="ltr" dominant-baseline="alphabetic">on Termination to </text><text x="0" y="49.8222067836554" font-family="Virgil, Segoe UI Emoji" font-size="14.75776267288371px" fill="#6741d9" text-anchor="start" style="white-space: pre;" direction="ltr" dominant-baseline="alphabetic">delete/preserve EBS while</text><text x="0" y="68.26941012476003" font-family="Virgil, Segoe UI Emoji" font-size="14.75776267288371px" fill="#6741d9" text-anchor="start" style="white-space: pre;" direction="ltr" dominant-baseline="alphabetic">deleting EC2</text></g><g transform="translate(357.0000000000002 429) rotate(0 111.96237182617176 16.25)"><text x="0" y="11.388" font-family="Virgil, Segoe UI Emoji" font-size="13px" fill="#6741d9" text-anchor="start" style="white-space: pre;" direction="ltr" dominant-baseline="alphabetic">* EBS Volume and EC2 Instance </text><text x="0" y="27.637999999999998" font-family="Virgil, Segoe UI Emoji" font-size="13px" fill="#6741d9" text-anchor="start" style="white-space: pre;" direction="ltr" dominant-baseline="alphabetic">should be in same Availability Zone</text></g></svg>