<svg version="1.1" xmlns="http://www.w3.org/2000/svg" viewBox="0 0 877.7859497070312 739" width="877.7859497070312" height="739">
  <!-- svg-source:excalidraw -->
  
  <defs>
    <style class="style-fonts">
      @font-face {
        font-family: "Virgil";
        src: url("https://excalidraw.com/Virgil.woff2");
      }
      @font-face {
        font-family: "Cascadia";
        src: url("https://excalidraw.com/Cascadia.woff2");
      }
      @font-face {
        font-family: "Assistant";
        src: url("https://excalidraw.com/Assistant-Regular.woff2");
      }
    </style>
    
  </defs>
  <rect x="0" y="0" width="877.7859497070312" height="739" fill="#ffffff"></rect><g stroke-linecap="round" transform="translate(166.89297485351562 10) rotate(0 271 66)"><path d="M32 0 C204.6 -1.44, 373.4 -0.05, 510 0 M32 0 C163.23 4.36, 294.19 3.55, 510 0 M510 0 C531.01 -1.6, 541.2 8.3, 542 32 M510 0 C531.16 1.7, 545.09 14.65, 542 32 M542 32 C542.43 52.61, 538.09 76.46, 542 100 M542 32 C543.39 58.58, 541.49 85.41, 542 100 M542 100 C545.01 123.31, 528.3 133.45, 510 132 M542 100 C545.26 124.84, 534.5 130.12, 510 132 M510 132 C374.75 132.76, 238.48 133.9, 32 132 M510 132 C354.92 129.03, 198.55 127.82, 32 132 M32 132 C12.86 132.3, 0.98 123.31, 0 100 M32 132 C11.8 134.05, -4.21 117.38, 0 100 M0 100 C1.03 78.82, 3.21 50.11, 0 32 M0 100 C1.16 83.33, -0.71 66.78, 0 32 M0 32 C1.38 8.07, 12.09 -1.12, 32 0 M0 32 C2.46 14.62, 6.67 0.26, 32 0" stroke="#1971c2" stroke-width="4" fill="none"></path></g><g transform="translate(404.8929748535156 58) rotate(0 35.40599060058594 22.5)"><text x="0" y="31.536" font-family="Virgil, Segoe UI Emoji" font-size="36px" fill="#1971c2" text-anchor="start" style="white-space: pre;" direction="ltr" dominant-baseline="alphabetic">AMI</text></g><g transform="translate(13.903106689453125 171) rotate(0 176.60913380589977 17.66091954022977)"><text x="0" y="24.753544827586204" font-family="Virgil, Segoe UI Emoji" font-size="28.257471264367815px" fill="#7950f2" text-anchor="start" style="white-space: pre;" direction="ltr" dominant-baseline="alphabetic">-&gt; Amazon Machine Image</text></g><g transform="translate(13.903106689453125 215.9091954022988) rotate(0 288.89936930338536 17.40862068965498)"><text x="0" y="24.39992275862069" font-family="Virgil, Segoe UI Emoji" font-size="27.85379310344828px" fill="#7950f2" text-anchor="start" style="white-space: pre;" direction="ltr" dominant-baseline="alphabetic">-&gt; AMI are quite similar to docker images</text></g><g transform="translate(13.903106689453125 258.54770114942494) rotate(0 339.9971241216549 17.40862068965498)"><text x="0" y="24.39992275862069" font-family="Virgil, Segoe UI Emoji" font-size="27.85379310344828px" fill="#7950f2" text-anchor="start" style="white-space: pre;" direction="ltr" dominant-baseline="alphabetic">-&gt; Add your required software and configurations</text></g><g transform="translate(13.903106689453125 307.2413793103451) rotate(0 355.3799624388246 17.66091954022977)"><text x="0" y="24.753544827586204" font-family="Virgil, Segoe UI Emoji" font-size="28.257471264367815px" fill="#7950f2" text-anchor="start" style="white-space: pre;" direction="ltr" dominant-baseline="alphabetic">-&gt; Less boot time as all software is pre-packaged</text></g><g transform="translate(13.903106689453125 355.17816091954046) rotate(0 346.2103528954517 17.66091954022977)"><text x="0" y="24.753544827586204" font-family="Virgil, Segoe UI Emoji" font-size="28.257471264367815px" fill="#7950f2" text-anchor="start" style="white-space: pre;" direction="ltr" dominant-baseline="alphabetic">-&gt; Built for specific region (can be copied across)</text></g><g transform="translate(13.903106689453125 404) rotate(0 423.9898681640625 35)"><text x="0" y="24.528" font-family="Virgil, Segoe UI Emoji" font-size="28px" fill="#e03131" text-anchor="start" style="white-space: pre;" direction="ltr" dominant-baseline="alphabetic">* Launch EC2 from either public AMI, Your own AMI </text><text x="0" y="59.528" font-family="Virgil, Segoe UI Emoji" font-size="28px" fill="#e03131" text-anchor="start" style="white-space: pre;" direction="ltr" dominant-baseline="alphabetic">  or AWS marketplace AMI (made and sold by someone else) </text></g><g stroke-linecap="round" transform="translate(47.28594970703125 495) rotate(0 98.5 90)"><path d="M32 0 C65.99 -1.56, 93.42 0.44, 165 0 M32 0 C77.79 0.29, 126.41 0.53, 165 0 M165 0 C189.79 0.2, 200.48 8.86, 197 32 M165 0 C184.81 2.31, 201.57 11.23, 197 32 M197 32 C198.08 62.25, 191.36 95.83, 197 148 M197 32 C196.02 73.39, 196.75 116.71, 197 148 M197 148 C193.05 169.94, 184.04 182.33, 165 180 M197 148 C194.89 167.88, 184.27 176.16, 165 180 M165 180 C123.46 183.69, 75.81 178.93, 32 180 M165 180 C118.05 177.64, 70.45 180.26, 32 180 M32 180 C13.37 182.75, 1.64 171.12, 0 148 M32 180 C13.9 176.03, -0.09 167.84, 0 148 M0 148 C-3.56 114.77, -2.89 87.37, 0 32 M0 148 C1.86 116.21, -0.51 82.97, 0 32 M0 32 C3 10.03, 6.98 -2.79, 32 0 M0 32 C-2.98 10.2, 6.19 -2.41, 32 0" stroke="#2f9e44" stroke-width="4" fill="none"></path></g><g stroke-linecap="round" transform="translate(108.7604441923254 555.9519761029414) rotate(0 37.025505514705856 38.048023897058556)"><path d="M74.05 38.05 C74.05 40.03, 73.9 42.04, 73.6 44 C73.29 45.96, 72.84 47.92, 72.24 49.81 C71.64 51.69, 70.89 53.55, 70.02 55.32 C69.14 57.09, 68.11 58.81, 66.98 60.41 C65.84 62.02, 64.57 63.55, 63.21 64.95 C61.84 66.35, 60.35 67.66, 58.79 68.83 C57.23 70, 55.55 71.05, 53.83 71.95 C52.11 72.85, 50.3 73.62, 48.47 74.23 C46.63 74.85, 44.72 75.32, 42.82 75.63 C40.91 75.94, 38.96 76.1, 37.03 76.1 C35.09 76.1, 33.14 75.94, 31.23 75.63 C29.33 75.32, 27.42 74.85, 25.58 74.23 C23.75 73.62, 21.94 72.85, 20.22 71.95 C18.5 71.05, 16.82 70, 15.26 68.83 C13.7 67.66, 12.21 66.35, 10.84 64.95 C9.48 63.55, 8.21 62.02, 7.07 60.41 C5.94 58.81, 4.91 57.09, 4.04 55.32 C3.16 53.55, 2.41 51.69, 1.81 49.81 C1.22 47.92, 0.76 45.96, 0.46 44 C0.15 42.04, 0 40.03, 0 38.05 C0 36.06, 0.15 34.06, 0.46 32.1 C0.76 30.14, 1.22 28.18, 1.81 26.29 C2.41 24.4, 3.16 22.54, 4.04 20.77 C4.91 19.01, 5.94 17.29, 7.07 15.68 C8.21 14.08, 9.48 12.55, 10.84 11.14 C12.21 9.74, 13.7 8.43, 15.26 7.27 C16.82 6.1, 18.5 5.05, 20.22 4.15 C21.94 3.25, 23.75 2.48, 25.58 1.86 C27.42 1.25, 29.33 0.78, 31.23 0.47 C33.14 0.16, 35.09 0, 37.03 0 C38.96 0, 40.91 0.16, 42.82 0.47 C44.72 0.78, 46.63 1.25, 48.47 1.86 C50.3 2.48, 52.11 3.25, 53.83 4.15 C55.55 5.05, 57.23 6.1, 58.79 7.27 C60.35 8.43, 61.84 9.74, 63.21 11.14 C64.57 12.55, 65.84 14.08, 66.98 15.68 C68.11 17.29, 69.14 19.01, 70.02 20.77 C70.89 22.54, 71.64 24.4, 72.24 26.29 C72.84 28.18, 73.29 30.14, 73.6 32.1 C73.9 34.06, 73.98 37.06, 74.05 38.05 C74.13 39.04, 74.13 37.06, 74.05 38.05" stroke="none" stroke-width="0" fill="#b2f2bb"></path><path d="M74.05 38.05 C74.05 40.03, 73.9 42.04, 73.6 44 C73.29 45.96, 72.84 47.92, 72.24 49.81 C71.64 51.69, 70.89 53.55, 70.02 55.32 C69.14 57.09, 68.11 58.81, 66.98 60.41 C65.84 62.02, 64.57 63.55, 63.21 64.95 C61.84 66.35, 60.35 67.66, 58.79 68.83 C57.23 70, 55.55 71.05, 53.83 71.95 C52.11 72.85, 50.3 73.62, 48.47 74.23 C46.63 74.85, 44.72 75.32, 42.82 75.63 C40.91 75.94, 38.96 76.1, 37.03 76.1 C35.09 76.1, 33.14 75.94, 31.23 75.63 C29.33 75.32, 27.42 74.85, 25.58 74.23 C23.75 73.62, 21.94 72.85, 20.22 71.95 C18.5 71.05, 16.82 70, 15.26 68.83 C13.7 67.66, 12.21 66.35, 10.84 64.95 C9.48 63.55, 8.21 62.02, 7.07 60.41 C5.94 58.81, 4.91 57.09, 4.04 55.32 C3.16 53.55, 2.41 51.69, 1.81 49.81 C1.22 47.92, 0.76 45.96, 0.46 44 C0.15 42.04, 0 40.03, 0 38.05 C0 36.06, 0.15 34.06, 0.46 32.1 C0.76 30.14, 1.22 28.18, 1.81 26.29 C2.41 24.4, 3.16 22.54, 4.04 20.77 C4.91 19.01, 5.94 17.29, 7.07 15.68 C8.21 14.08, 9.48 12.55, 10.84 11.14 C12.21 9.74, 13.7 8.43, 15.26 7.27 C16.82 6.1, 18.5 5.05, 20.22 4.15 C21.94 3.25, 23.75 2.48, 25.58 1.86 C27.42 1.25, 29.33 0.78, 31.23 0.47 C33.14 0.16, 35.09 0, 37.03 0 C38.96 0, 40.91 0.16, 42.82 0.47 C44.72 0.78, 46.63 1.25, 48.47 1.86 C50.3 2.48, 52.11 3.25, 53.83 4.15 C55.55 5.05, 57.23 6.1, 58.79 7.27 C60.35 8.43, 61.84 9.74, 63.21 11.14 C64.57 12.55, 65.84 14.08, 66.98 15.68 C68.11 17.29, 69.14 19.01, 70.02 20.77 C70.89 22.54, 71.64 24.4, 72.24 26.29 C72.84 28.18, 73.29 30.14, 73.6 32.1 C73.9 34.06, 73.98 37.06, 74.05 38.05 C74.13 39.04, 74.13 37.06, 74.05 38.05" stroke="#40c057" stroke-width="2" fill="none"></path></g><g stroke-linecap="round" transform="translate(129.5612254423254 569.2412683823532) rotate(0 15.08898158622435 16.206341911764866)"><path d="M7.54 0 C12.64 0, 17.73 0, 22.63 0 C27.66 0, 30.18 2.51, 30.18 7.54 C30.18 13.4, 30.18 19.25, 30.18 24.87 C30.18 29.9, 27.66 32.41, 22.63 32.41 C17.79 32.41, 12.94 32.41, 7.54 32.41 C2.51 32.41, 0 29.9, 0 24.87 C0 20.06, 0 15.26, 0 7.54 C0 2.51, 2.51 0, 7.54 0" stroke="none" stroke-width="0" fill="#b2f2bb"></path><path d="M7.54 0 C12.97 0, 18.39 0, 22.63 0 M7.54 0 C13.29 0, 19.04 0, 22.63 0 M22.63 0 C27.66 0, 30.18 2.51, 30.18 7.54 M22.63 0 C27.66 0, 30.18 2.51, 30.18 7.54 M30.18 7.54 C30.18 13.69, 30.18 19.83, 30.18 24.87 M30.18 7.54 C30.18 12.94, 30.18 18.34, 30.18 24.87 M30.18 24.87 C30.18 29.9, 27.66 32.41, 22.63 32.41 M30.18 24.87 C30.18 29.9, 27.66 32.41, 22.63 32.41 M22.63 32.41 C18.86 32.41, 15.08 32.41, 7.54 32.41 M22.63 32.41 C17.67 32.41, 12.71 32.41, 7.54 32.41 M7.54 32.41 C2.51 32.41, 0 29.9, 0 24.87 M7.54 32.41 C2.51 32.41, 0 29.9, 0 24.87 M0 24.87 C0 19.6, 0 14.34, 0 7.54 M0 24.87 C0 19.57, 0 14.28, 0 7.54 M0 7.54 C0 2.51, 2.51 0, 7.54 0 M0 7.54 C0 2.51, 2.51 0, 7.54 0" stroke="#40c057" stroke-width="2" fill="none"></path></g><g transform="translate(136.40957103056076 609.5903033088234) rotate(0 8.5 5.5)"><text x="0" y="8.78423918395483" font-family="Cascadia, Segoe UI Emoji" font-size="9.453912815126058px" fill="#099268" text-anchor="start" style="white-space: pre;" direction="ltr" dominant-baseline="alphabetic">EC2</text></g><g transform="translate(73.08397674560547 506) rotate(0 72.70197296142578 17.5)"><text x="0" y="24.528" font-family="Virgil, Segoe UI Emoji" font-size="28px" fill="#099268" text-anchor="start" style="white-space: pre;" direction="ltr" dominant-baseline="alphabetic">us-east-1a</text></g><g transform="translate(10 688) rotate(0 135.78594970703125 17.5)"><text x="0" y="24.528" font-family="Virgil, Segoe UI Emoji" font-size="28px" fill="#099268" text-anchor="start" style="white-space: pre;" direction="ltr" dominant-baseline="alphabetic">launch ec2 instance</text></g><g stroke-linecap="round" transform="translate(633.5 501) rotate(0 98.5 90)"><path d="M32 0 C70.4 -0.34, 108.35 1.2, 165 0 M32 0 C64.77 1.02, 94.79 -0.7, 165 0 M165 0 C189.07 2.91, 193.53 13.69, 197 32 M165 0 C186.47 -0.56, 198.87 12.87, 197 32 M197 32 C200.73 52.56, 197.36 82, 197 148 M197 32 C198.2 64.47, 197.4 99.08, 197 148 M197 148 C197.76 172.77, 183.63 182.38, 165 180 M197 148 C192.4 167.58, 190.44 178.25, 165 180 M165 180 C126.62 178.62, 86.86 178.85, 32 180 M165 180 C122.25 179.28, 78.04 180.07, 32 180 M32 180 C11.52 178.59, 1.04 172.94, 0 148 M32 180 C15.01 178.21, 1.71 167.01, 0 148 M0 148 C4.54 110.66, -0.85 73.62, 0 32 M0 148 C-0.06 118.46, -1.55 87.82, 0 32 M0 32 C-1.98 12.01, 9.59 -3.21, 32 0 M0 32 C-3.25 13.28, 8.39 -0.42, 32 0" stroke="#4dabf7" stroke-width="4" fill="none"></path></g><g stroke-linecap="round" transform="translate(694.9744944852941 561.9519761029424) rotate(0 37.025505514705856 38.04802389705901)"><path d="M74.05 38.05 C74.05 40.03, 73.9 42.04, 73.6 44 C73.29 45.96, 72.84 47.92, 72.24 49.81 C71.64 51.69, 70.89 53.55, 70.02 55.32 C69.14 57.09, 68.11 58.81, 66.98 60.41 C65.84 62.02, 64.57 63.55, 63.21 64.95 C61.84 66.35, 60.35 67.66, 58.79 68.83 C57.23 70, 55.55 71.05, 53.83 71.95 C52.11 72.85, 50.3 73.62, 48.47 74.23 C46.63 74.85, 44.72 75.32, 42.82 75.63 C40.91 75.94, 38.96 76.1, 37.03 76.1 C35.09 76.1, 33.14 75.94, 31.23 75.63 C29.33 75.32, 27.42 74.85, 25.58 74.23 C23.75 73.62, 21.94 72.85, 20.22 71.95 C18.5 71.05, 16.82 70, 15.26 68.83 C13.7 67.66, 12.21 66.35, 10.84 64.95 C9.48 63.55, 8.21 62.02, 7.07 60.41 C5.94 58.81, 4.91 57.09, 4.04 55.32 C3.16 53.55, 2.41 51.69, 1.81 49.81 C1.22 47.92, 0.76 45.96, 0.46 44 C0.15 42.04, 0 40.03, 0 38.05 C0 36.06, 0.15 34.06, 0.46 32.1 C0.76 30.14, 1.22 28.18, 1.81 26.29 C2.41 24.4, 3.16 22.54, 4.04 20.77 C4.91 19.01, 5.94 17.29, 7.07 15.68 C8.21 14.08, 9.48 12.55, 10.84 11.14 C12.21 9.74, 13.7 8.43, 15.26 7.27 C16.82 6.1, 18.5 5.05, 20.22 4.15 C21.94 3.25, 23.75 2.48, 25.58 1.86 C27.42 1.25, 29.33 0.78, 31.23 0.47 C33.14 0.16, 35.09 0, 37.03 0 C38.96 0, 40.91 0.16, 42.82 0.47 C44.72 0.78, 46.63 1.25, 48.47 1.86 C50.3 2.48, 52.11 3.25, 53.83 4.15 C55.55 5.05, 57.23 6.1, 58.79 7.27 C60.35 8.43, 61.84 9.74, 63.21 11.14 C64.57 12.55, 65.84 14.08, 66.98 15.68 C68.11 17.29, 69.14 19.01, 70.02 20.77 C70.89 22.54, 71.64 24.4, 72.24 26.29 C72.84 28.18, 73.29 30.14, 73.6 32.1 C73.9 34.06, 73.98 37.06, 74.05 38.05 C74.13 39.04, 74.13 37.06, 74.05 38.05" stroke="none" stroke-width="0" fill="#4dabf7"></path><path d="M74.05 38.05 C74.05 40.03, 73.9 42.04, 73.6 44 C73.29 45.96, 72.84 47.92, 72.24 49.81 C71.64 51.69, 70.89 53.55, 70.02 55.32 C69.14 57.09, 68.11 58.81, 66.98 60.41 C65.84 62.02, 64.57 63.55, 63.21 64.95 C61.84 66.35, 60.35 67.66, 58.79 68.83 C57.23 70, 55.55 71.05, 53.83 71.95 C52.11 72.85, 50.3 73.62, 48.47 74.23 C46.63 74.85, 44.72 75.32, 42.82 75.63 C40.91 75.94, 38.96 76.1, 37.03 76.1 C35.09 76.1, 33.14 75.94, 31.23 75.63 C29.33 75.32, 27.42 74.85, 25.58 74.23 C23.75 73.62, 21.94 72.85, 20.22 71.95 C18.5 71.05, 16.82 70, 15.26 68.83 C13.7 67.66, 12.21 66.35, 10.84 64.95 C9.48 63.55, 8.21 62.02, 7.07 60.41 C5.94 58.81, 4.91 57.09, 4.04 55.32 C3.16 53.55, 2.41 51.69, 1.81 49.81 C1.22 47.92, 0.76 45.96, 0.46 44 C0.15 42.04, 0 40.03, 0 38.05 C0 36.06, 0.15 34.06, 0.46 32.1 C0.76 30.14, 1.22 28.18, 1.81 26.29 C2.41 24.4, 3.16 22.54, 4.04 20.77 C4.91 19.01, 5.94 17.29, 7.07 15.68 C8.21 14.08, 9.48 12.55, 10.84 11.14 C12.21 9.74, 13.7 8.43, 15.26 7.27 C16.82 6.1, 18.5 5.05, 20.22 4.15 C21.94 3.25, 23.75 2.48, 25.58 1.86 C27.42 1.25, 29.33 0.78, 31.23 0.47 C33.14 0.16, 35.09 0, 37.03 0 C38.96 0, 40.91 0.16, 42.82 0.47 C44.72 0.78, 46.63 1.25, 48.47 1.86 C50.3 2.48, 52.11 3.25, 53.83 4.15 C55.55 5.05, 57.23 6.1, 58.79 7.27 C60.35 8.43, 61.84 9.74, 63.21 11.14 C64.57 12.55, 65.84 14.08, 66.98 15.68 C68.11 17.29, 69.14 19.01, 70.02 20.77 C70.89 22.54, 71.64 24.4, 72.24 26.29 C72.84 28.18, 73.29 30.14, 73.6 32.1 C73.9 34.06, 73.98 37.06, 74.05 38.05 C74.13 39.04, 74.13 37.06, 74.05 38.05" stroke="#ffffff" stroke-width="2" fill="none"></path></g><g stroke-linecap="round" transform="translate(715.7752757352941 575.2412683823532) rotate(0 15.088981586224236 16.206341911764866)"><path d="M7.54 0 C13.47 0, 19.39 0, 22.63 0 C27.66 0, 30.18 2.51, 30.18 7.54 C30.18 12.96, 30.18 18.38, 30.18 24.87 C30.18 29.9, 27.66 32.41, 22.63 32.41 C18.33 32.41, 14.03 32.41, 7.54 32.41 C2.51 32.41, 0 29.9, 0 24.87 C0 19.91, 0 14.95, 0 7.54 C0 2.51, 2.51 0, 7.54 0" stroke="none" stroke-width="0" fill="#4dabf7"></path><path d="M7.54 0 C12.28 0, 17.01 0, 22.63 0 M7.54 0 C13.36 0, 19.17 0, 22.63 0 M22.63 0 C27.66 0, 30.18 2.51, 30.18 7.54 M22.63 0 C27.66 0, 30.18 2.51, 30.18 7.54 M30.18 7.54 C30.18 11.09, 30.18 14.63, 30.18 24.87 M30.18 7.54 C30.18 12.2, 30.18 16.86, 30.18 24.87 M30.18 24.87 C30.18 29.9, 27.66 32.41, 22.63 32.41 M30.18 24.87 C30.18 29.9, 27.66 32.41, 22.63 32.41 M22.63 32.41 C19.45 32.41, 16.27 32.41, 7.54 32.41 M22.63 32.41 C18.67 32.41, 14.7 32.41, 7.54 32.41 M7.54 32.41 C2.51 32.41, 0 29.9, 0 24.87 M7.54 32.41 C2.51 32.41, 0 29.9, 0 24.87 M0 24.87 C0 20.09, 0 15.3, 0 7.54 M0 24.87 C0 19.57, 0 14.27, 0 7.54 M0 7.54 C0 2.51, 2.51 0, 7.54 0 M0 7.54 C0 2.51, 2.51 0, 7.54 0" stroke="#ffffff" stroke-width="2" fill="none"></path></g><g transform="translate(722.6236213235297 615.5903033088234) rotate(0 8.5 5.5)"><text x="0" y="8.78423918395483" font-family="Cascadia, Segoe UI Emoji" font-size="9.453912815126058px" fill="#ffffff" text-anchor="start" style="white-space: pre;" direction="ltr" dominant-baseline="alphabetic">EC2</text></g><g transform="translate(659.2980270385742 512) rotate(0 70.4759750366211 17.5)"><text x="0" y="24.528" font-family="Virgil, Segoe UI Emoji" font-size="28px" fill="#4dabf7" text-anchor="start" style="white-space: pre;" direction="ltr" dominant-baseline="alphabetic">us-east-1b</text></g><g transform="translate(596.2140502929688 694) rotate(0 135.78594970703125 17.5)"><text x="0" y="24.528" font-family="Virgil, Segoe UI Emoji" font-size="28px" fill="#4dabf7" text-anchor="start" style="white-space: pre;" direction="ltr" dominant-baseline="alphabetic">launch ec2 instance</text></g><g mask="url(#mask-rHPn0NEaiR80yiHscs8XQ)" stroke-linecap="round"><g transform="translate(211 591) rotate(0 79 0.5)"><path d="M-1.51 0.63 C25.08 0.47, 132.4 0.33, 158.91 0.07 M2.87 -1.49 C29.22 -1.35, 131.73 2.75, 157.17 3.2" stroke="#099268" stroke-width="4" fill="none"></path></g><g transform="translate(211 591) rotate(0 79 0.5)"><path d="M133.89 11.7 C139.33 8.69, 145.24 8.7, 157.67 3.16 M133.4 11.26 C140.74 8.89, 149.84 6.76, 157.63 3.36" stroke="#099268" stroke-width="4" fill="none"></path></g><g transform="translate(211 591) rotate(0 79 0.5)"><path d="M134.4 -5.4 C139.76 -3.66, 145.53 1.09, 157.67 3.16 M133.91 -5.83 C141.05 -2.44, 149.98 1.19, 157.63 3.36" stroke="#099268" stroke-width="4" fill="none"></path></g></g><mask id="mask-rHPn0NEaiR80yiHscs8XQ"><rect x="0" y="0" fill="#fff" width="469" height="692"></rect><rect x="244.2000274658203" y="581.4999999999991" fill="#000" width="91.59994506835938" height="20" opacity="1"></rect></mask><g transform="translate(244.2000274658203 581.4999999999991) rotate(0 45.50181947089732 10.354454508722029)"><text x="45.79997253417969" y="14.016" font-family="Virgil, Segoe UI Emoji" font-size="16px" fill="#099268" text-anchor="middle" style="white-space: pre;" direction="ltr" dominant-baseline="alphabetic">create AMI</text></g><g stroke-linecap="round" transform="translate(396.2919616699219 555) rotate(0 32.5 29.5)"><path d="M20.93 1.64 C27.09 -0.82, 38.13 -1.18, 45.02 1.1 C51.92 3.39, 59.22 9.44, 62.3 15.34 C65.39 21.24, 65.38 30.37, 63.52 36.5 C61.66 42.64, 56.39 48.47, 51.13 52.14 C45.88 55.81, 39.05 58.66, 31.97 58.51 C24.89 58.37, 14.14 55.74, 8.65 51.26 C3.15 46.79, -0.5 38.23, -1 31.64 C-1.51 25.05, 0.98 17.27, 5.63 11.73 C10.27 6.18, 22.06 0.45, 26.87 -1.61 C31.69 -3.66, 34.45 -1.38, 34.54 -0.6 M43.18 2.18 C50 3.5, 58.51 8.88, 61.6 14.72 C64.69 20.56, 63.49 30.79, 61.72 37.23 C59.95 43.67, 56.34 49.53, 51 53.36 C45.67 57.19, 36.4 60.05, 29.73 60.21 C23.06 60.37, 16.02 58.32, 10.96 54.32 C5.9 50.32, 0.69 42.77, -0.62 36.23 C-1.93 29.7, -0.44 20.82, 3.12 15.1 C6.68 9.39, 13.51 4.56, 20.73 1.95 C27.95 -0.66, 42.22 -0.53, 46.42 -0.58 C50.63 -0.64, 46.66 1.16, 45.95 1.62" stroke="none" stroke-width="0" fill="#ffc9c9"></path><path d="M10.02 9.1 C14.49 4.86, 22.53 1.27, 29.67 0.34 C36.81 -0.59, 47.34 -0.04, 52.88 3.51 C58.42 7.06, 61.27 15.46, 62.92 21.64 C64.57 27.81, 65.6 34.59, 62.79 40.57 C59.98 46.56, 52.77 54.9, 46.05 57.57 C39.33 60.23, 29.04 58.78, 22.45 56.58 C15.87 54.38, 10.47 49.5, 6.54 44.36 C2.6 39.21, -3.18 32.38, -1.16 25.72 C0.85 19.06, 13.73 8.3, 18.62 4.38 C23.52 0.46, 27.9 2.08, 28.21 2.17 M26.3 -1.31 C33.01 -2.92, 44.08 -1.09, 50.68 3.03 C57.28 7.16, 64.41 16.78, 65.89 23.42 C67.36 30.05, 63.1 37.04, 59.55 42.83 C55.99 48.62, 49.96 55.17, 44.55 58.16 C39.15 61.14, 33.73 62.32, 27.13 60.71 C20.53 59.11, 9.03 54.15, 4.95 48.52 C0.86 42.88, 1.93 33.45, 2.64 26.89 C3.34 20.33, 4.8 13.56, 9.18 9.14 C13.56 4.72, 25.89 2.15, 28.91 0.37 C31.94 -1.4, 26.96 -1.58, 27.31 -1.51" stroke="#f08c00" stroke-width="4" fill="none"></path></g><g transform="translate(413.0750064791132 574.640349954997) rotate(0 15.735984802246094 10)"><text x="15.735984802246094" y="14.016" font-family="Virgil, Segoe UI Emoji" font-size="16px" fill="#1e1e1e" text-anchor="middle" style="white-space: pre;" direction="ltr" dominant-baseline="alphabetic">AMI</text></g><g transform="translate(381 523) rotate(0 47.791961669921875 10)"><text x="0" y="14.016" font-family="Virgil, Segoe UI Emoji" font-size="16px" fill="#1e1e1e" text-anchor="start" style="white-space: pre;" direction="ltr" dominant-baseline="alphabetic">Custom AMI</text></g><g mask="url(#mask-ZHU6bZkFs16tgTYgJ5sLf)" stroke-linecap="round"><g transform="translate(472.26797142667783 588.9999816745303) rotate(0 80.11601428666108 0.9890865961315285)"><path d="M1.9 -2.56 C28.29 -2.45, 134.2 -0.24, 160.27 0.06 M-0.52 2.23 C25.34 2.69, 130.61 2.87, 158.05 2.65" stroke="#4dabf7" stroke-width="4" fill="none"></path></g><g transform="translate(472.26797142667783 588.9999816745303) rotate(0 80.11601428666108 0.9890865961315285)"><path d="M132.75 11.28 C141.85 6.55, 149.91 4.23, 157.26 2.64 M134.52 11.79 C143.42 7.17, 152.34 5.32, 157.55 3.42" stroke="#4dabf7" stroke-width="4" fill="none"></path></g><g transform="translate(472.26797142667783 588.9999816745303) rotate(0 80.11601428666108 0.9890865961315285)"><path d="M132.71 -5.82 C141.79 -4.26, 149.87 -0.3, 157.26 2.64 M134.48 -5.31 C143.47 -3.57, 152.4 0.93, 157.55 3.42" stroke="#4dabf7" stroke-width="4" fill="none"></path></g></g><mask id="mask-ZHU6bZkFs16tgTYgJ5sLf"><rect x="0" y="0" fill="#fff" width="732.5" height="690.9781548667934"></rect><rect x="507.8720151933194" y="569.9890682706628" fill="#000" width="89.02394104003906" height="40" opacity="1"></rect></mask><g transform="translate(507.8720151933194 569.9890682706609) rotate(0 44.27018713179973 19.1037758127909)"><text x="44.51197052001953" y="14.016" font-family="Virgil, Segoe UI Emoji" font-size="16px" fill="#4dabf7" text-anchor="middle" style="white-space: pre;" direction="ltr" dominant-baseline="alphabetic">launch from</text><text x="44.51197052001953" y="34.016" font-family="Virgil, Segoe UI Emoji" font-size="16px" fill="#4dabf7" text-anchor="middle" style="white-space: pre;" direction="ltr" dominant-baseline="alphabetic">AMI</text></g><g transform="translate(315.4031066894531 638) rotate(0 133.66390991210938 10)"><text x="0" y="14.016" font-family="Virgil, Segoe UI Emoji" font-size="16px" fill="#c2255c" text-anchor="start" style="white-space: pre;" direction="ltr" dominant-baseline="alphabetic">*This will also create a snapshot</text></g><g transform="translate(88.38250950520705 640.6453948258941) rotate(0 54.85596466064453 10)"><text x="0" y="14.016" font-family="Virgil, Segoe UI Emoji" font-size="16px" fill="#c2255c" text-anchor="start" style="white-space: pre;" direction="ltr" dominant-baseline="alphabetic">install apache</text></g><g transform="translate(653.9227261578553 644.5389591401981) rotate(0 79.5439453125 10)"><text x="0" y="14.016" font-family="Virgil, Segoe UI Emoji" font-size="16px" fill="#c2255c" text-anchor="start" style="white-space: pre;" direction="ltr" dominant-baseline="alphabetic">apache pre installed</text></g></svg>