<svg version="1.1" xmlns="http://www.w3.org/2000/svg" viewBox="0 0 1273.307495117187 1221.0191538641393" width="1273.307495117187" height="1221.0191538641393">
  <!-- svg-source:excalidraw -->
  
  <defs>
    <style class="style-fonts">
      @font-face {
        font-family: "Virgil";
        src: url("https://excalidraw.com/Virgil.woff2");
      }
      @font-face {
        font-family: "Cascadia";
        src: url("https://excalidraw.com/Cascadia.woff2");
      }
      @font-face {
        font-family: "Assistant";
        src: url("https://excalidraw.com/Assistant-Regular.woff2");
      }
    </style>
    
  </defs>
  <rect x="0" y="0" width="1273.307495117187" height="1221.0191538641393" fill="#ffffff"></rect><g stroke-linecap="round" transform="translate(360.5440170975112 10) rotate(0 267.98973534389415 69.08517256740652)"><path d="M32 0 C129.55 -1.67, 227.61 0.48, 503.98 0 M32 0 C152.94 -2.73, 273.55 -1.8, 503.98 0 M503.98 0 C526.32 -0.44, 535.63 13.26, 535.98 32 M503.98 0 C524.9 -1.22, 540.2 8.21, 535.98 32 M535.98 32 C536.72 57.59, 533.62 86.04, 535.98 106.17 M535.98 32 C537.57 56.58, 535.54 83.18, 535.98 106.17 M535.98 106.17 C532.71 125.45, 528.71 134.6, 503.98 138.17 M535.98 106.17 C534.31 127.02, 521.98 134.77, 503.98 138.17 M503.98 138.17 C333.68 139.55, 162.95 137.57, 32 138.17 M503.98 138.17 C332.1 138.06, 160.03 138.51, 32 138.17 M32 138.17 C8.64 138.79, 3.35 129.03, 0 106.17 M32 138.17 C10.76 135.39, -0.5 130.48, 0 106.17 M0 106.17 C-1.24 83.08, 1.14 54.12, 0 32 M0 106.17 C2.95 87.85, 2.99 73.21, 0 32 M0 32 C1.29 14.07, 9.63 -1.56, 32 0 M0 32 C1.57 10.06, 11.37 0.26, 32 0" stroke="#1971c2" stroke-width="4" fill="none"></path></g><g transform="translate(460.92581176757676 61.58517256740561) rotate(0 167.60794067382812 17.5)"><text x="167.60794067382812" y="24.528" font-family="Virgil, Segoe UI Emoji" font-size="28px" fill="#1971c2" text-anchor="middle" style="white-space: pre;" direction="ltr" dominant-baseline="alphabetic">Gateway Load Balancer</text></g><g transform="translate(465.3638305664058 214.9390721126383) rotate(0 163.169921875 17.5)"><text x="0" y="24.528" font-family="Virgil, Segoe UI Emoji" font-size="28px" fill="#1971c2" text-anchor="start" style="white-space: pre;" direction="ltr" dominant-baseline="alphabetic">Analyze network traffic</text></g><g transform="translate(10 316.7077990904618) rotate(0 626.6537475585935 70)"><text x="0" y="24.528" font-family="Virgil, Segoe UI Emoji" font-size="28px" fill="#e8590c" text-anchor="start" style="white-space: pre;" direction="ltr" dominant-baseline="alphabetic">-&gt; Operates at network layer (layer 3) to handle IP traffic.</text><text x="0" y="59.528" font-family="Virgil, Segoe UI Emoji" font-size="28px" fill="#e8590c" text-anchor="start" style="white-space: pre;" direction="ltr" dominant-baseline="alphabetic">-&gt; Designed to work with virtual appliances like firewalls and intrusion detection systems.</text><text x="0" y="94.52799999999999" font-family="Virgil, Segoe UI Emoji" font-size="28px" fill="#e8590c" text-anchor="start" style="white-space: pre;" direction="ltr" dominant-baseline="alphabetic">-&gt; Traffic is directed to Gateway load balancer and it decided whether to allow traffic </text><text x="0" y="129.528" font-family="Virgil, Segoe UI Emoji" font-size="28px" fill="#e8590c" text-anchor="start" style="white-space: pre;" direction="ltr" dominant-baseline="alphabetic">    to the destination application or drop the incoming traffic.</text></g><g stroke-linecap="round" transform="translate(486.1730545069572 1004.5228138824423) rotate(0 116.91336896022585 103.24816999084851)"><path d="M32 0 C72.29 0.31, 102.65 1.3, 201.83 0 M32 0 C72.4 0.26, 112.72 -0.24, 201.83 0 M201.83 0 C225.93 2.69, 234.65 14.31, 233.83 32 M201.83 0 C225.57 2.41, 230.24 15.1, 233.83 32 M233.83 32 C229.75 60.51, 228.99 93.28, 233.83 174.5 M233.83 32 C236.53 83.26, 235.73 133.81, 233.83 174.5 M233.83 174.5 C233.19 199.2, 220.71 205.76, 201.83 206.5 M233.83 174.5 C236.87 197.16, 221.25 205.2, 201.83 206.5 M201.83 206.5 C145.22 202.4, 95.05 200.54, 32 206.5 M201.83 206.5 C135.04 206.74, 64.66 204.53, 32 206.5 M32 206.5 C10.27 202.88, 3.67 199.18, 0 174.5 M32 206.5 C6.62 208.61, -1.31 193.38, 0 174.5 M0 174.5 C4.59 121.57, 5.01 64.12, 0 32 M0 174.5 C1.35 143.55, 1.22 115.28, 0 32 M0 32 C2.89 9.76, 11 1.95, 32 0 M0 32 C4.26 12.47, 13.83 -4.07, 32 0" stroke="#2f9e44" stroke-width="4" fill="none"></path></g><g stroke-linecap="round" transform="translate(559.9874961883111 1056.0577610068558) rotate(0 37.025505514705856 38.048023897058556)"><path d="M74.05 38.05 C74.05 40.03, 73.9 42.04, 73.6 44 C73.29 45.96, 72.84 47.92, 72.24 49.81 C71.64 51.69, 70.89 53.55, 70.02 55.32 C69.14 57.09, 68.11 58.81, 66.98 60.41 C65.84 62.02, 64.57 63.55, 63.21 64.95 C61.84 66.35, 60.35 67.66, 58.79 68.83 C57.23 70, 55.55 71.05, 53.83 71.95 C52.11 72.85, 50.3 73.62, 48.47 74.23 C46.63 74.85, 44.72 75.32, 42.82 75.63 C40.91 75.94, 38.96 76.1, 37.03 76.1 C35.09 76.1, 33.14 75.94, 31.23 75.63 C29.33 75.32, 27.42 74.85, 25.58 74.23 C23.75 73.62, 21.94 72.85, 20.22 71.95 C18.5 71.05, 16.82 70, 15.26 68.83 C13.7 67.66, 12.21 66.35, 10.84 64.95 C9.48 63.55, 8.21 62.02, 7.07 60.41 C5.94 58.81, 4.91 57.09, 4.04 55.32 C3.16 53.55, 2.41 51.69, 1.81 49.81 C1.22 47.92, 0.76 45.96, 0.46 44 C0.15 42.04, 0 40.03, 0 38.05 C0 36.06, 0.15 34.06, 0.46 32.1 C0.76 30.14, 1.22 28.18, 1.81 26.29 C2.41 24.4, 3.16 22.54, 4.04 20.77 C4.91 19.01, 5.94 17.29, 7.07 15.68 C8.21 14.08, 9.48 12.55, 10.84 11.14 C12.21 9.74, 13.7 8.43, 15.26 7.27 C16.82 6.1, 18.5 5.05, 20.22 4.15 C21.94 3.25, 23.75 2.48, 25.58 1.86 C27.42 1.25, 29.33 0.78, 31.23 0.47 C33.14 0.16, 35.09 0, 37.03 0 C38.96 0, 40.91 0.16, 42.82 0.47 C44.72 0.78, 46.63 1.25, 48.47 1.86 C50.3 2.48, 52.11 3.25, 53.83 4.15 C55.55 5.05, 57.23 6.1, 58.79 7.27 C60.35 8.43, 61.84 9.74, 63.21 11.14 C64.57 12.55, 65.84 14.08, 66.98 15.68 C68.11 17.29, 69.14 19.01, 70.02 20.77 C70.89 22.54, 71.64 24.4, 72.24 26.29 C72.84 28.18, 73.29 30.14, 73.6 32.1 C73.9 34.06, 73.98 37.06, 74.05 38.05 C74.13 39.04, 74.13 37.06, 74.05 38.05" stroke="none" stroke-width="0" fill="#fd7e14"></path><path d="M74.05 38.05 C74.05 40.03, 73.9 42.04, 73.6 44 C73.29 45.96, 72.84 47.92, 72.24 49.81 C71.64 51.69, 70.89 53.55, 70.02 55.32 C69.14 57.09, 68.11 58.81, 66.98 60.41 C65.84 62.02, 64.57 63.55, 63.21 64.95 C61.84 66.35, 60.35 67.66, 58.79 68.83 C57.23 70, 55.55 71.05, 53.83 71.95 C52.11 72.85, 50.3 73.62, 48.47 74.23 C46.63 74.85, 44.72 75.32, 42.82 75.63 C40.91 75.94, 38.96 76.1, 37.03 76.1 C35.09 76.1, 33.14 75.94, 31.23 75.63 C29.33 75.32, 27.42 74.85, 25.58 74.23 C23.75 73.62, 21.94 72.85, 20.22 71.95 C18.5 71.05, 16.82 70, 15.26 68.83 C13.7 67.66, 12.21 66.35, 10.84 64.95 C9.48 63.55, 8.21 62.02, 7.07 60.41 C5.94 58.81, 4.91 57.09, 4.04 55.32 C3.16 53.55, 2.41 51.69, 1.81 49.81 C1.22 47.92, 0.76 45.96, 0.46 44 C0.15 42.04, 0 40.03, 0 38.05 C0 36.06, 0.15 34.06, 0.46 32.1 C0.76 30.14, 1.22 28.18, 1.81 26.29 C2.41 24.4, 3.16 22.54, 4.04 20.77 C4.91 19.01, 5.94 17.29, 7.07 15.68 C8.21 14.08, 9.48 12.55, 10.84 11.14 C12.21 9.74, 13.7 8.43, 15.26 7.27 C16.82 6.1, 18.5 5.05, 20.22 4.15 C21.94 3.25, 23.75 2.48, 25.58 1.86 C27.42 1.25, 29.33 0.78, 31.23 0.47 C33.14 0.16, 35.09 0, 37.03 0 C38.96 0, 40.91 0.16, 42.82 0.47 C44.72 0.78, 46.63 1.25, 48.47 1.86 C50.3 2.48, 52.11 3.25, 53.83 4.15 C55.55 5.05, 57.23 6.1, 58.79 7.27 C60.35 8.43, 61.84 9.74, 63.21 11.14 C64.57 12.55, 65.84 14.08, 66.98 15.68 C68.11 17.29, 69.14 19.01, 70.02 20.77 C70.89 22.54, 71.64 24.4, 72.24 26.29 C72.84 28.18, 73.29 30.14, 73.6 32.1 C73.9 34.06, 73.98 37.06, 74.05 38.05 C74.13 39.04, 74.13 37.06, 74.05 38.05" stroke="#fd7e14" stroke-width="2" fill="none"></path></g><g stroke-linecap="round" transform="translate(574.5084061147813 1069.3171819627387) rotate(0 16.738507149760608 17.978017165134588)"><path d="M8.37 0 C13.85 0, 19.34 0, 25.11 0 C30.69 0, 33.48 2.79, 33.48 8.37 C33.48 15.58, 33.48 22.79, 33.48 27.59 C33.48 33.17, 30.69 35.96, 25.11 35.96 C19.05 35.96, 12.99 35.96, 8.37 35.96 C2.79 35.96, 0 33.17, 0 27.59 C0 21.69, 0 15.79, 0 8.37 C0 2.79, 2.79 0, 8.37 0" stroke="none" stroke-width="0" fill="#fd7e14"></path><path d="M8.37 0 C14.23 0, 20.08 0, 25.11 0 M8.37 0 C13.08 0, 17.79 0, 25.11 0 M25.11 0 C30.69 0, 33.48 2.79, 33.48 8.37 M25.11 0 C30.69 0, 33.48 2.79, 33.48 8.37 M33.48 8.37 C33.48 15.3, 33.48 22.23, 33.48 27.59 M33.48 8.37 C33.48 13.31, 33.48 18.25, 33.48 27.59 M33.48 27.59 C33.48 33.17, 30.69 35.96, 25.11 35.96 M33.48 27.59 C33.48 33.17, 30.69 35.96, 25.11 35.96 M25.11 35.96 C18.9 35.96, 12.68 35.96, 8.37 35.96 M25.11 35.96 C20.15 35.96, 15.19 35.96, 8.37 35.96 M8.37 35.96 C2.79 35.96, 0 33.17, 0 27.59 M8.37 35.96 C2.79 35.96, 0 33.17, 0 27.59 M0 27.59 C0 21.98, 0 16.38, 0 8.37 M0 27.59 C0 21.37, 0 15.16, 0 8.37 M0 8.37 C0 2.79, 2.79 0, 8.37 0 M0 8.37 C0 2.79, 2.79 0, 8.37 0" stroke="#fff" stroke-width="2" fill="none"></path></g><g stroke-linecap="round" transform="translate(579.8065431391719 1075.1756594651542) rotate(0 16.738507149760608 17.978017165134588)"><path d="M8.37 0 C14.79 0, 21.21 0, 25.11 0 C30.69 0, 33.48 2.79, 33.48 8.37 C33.48 15.14, 33.48 21.91, 33.48 27.59 C33.48 33.17, 30.69 35.96, 25.11 35.96 C18.71 35.96, 12.3 35.96, 8.37 35.96 C2.79 35.96, 0 33.17, 0 27.59 C0 23.74, 0 19.88, 0 8.37 C0 2.79, 2.79 0, 8.37 0" stroke="none" stroke-width="0" fill="#fd7e14"></path><path d="M8.37 0 C12.66 0, 16.96 0, 25.11 0 M8.37 0 C12.53 0, 16.69 0, 25.11 0 M25.11 0 C30.69 0, 33.48 2.79, 33.48 8.37 M25.11 0 C30.69 0, 33.48 2.79, 33.48 8.37 M33.48 8.37 C33.48 14.49, 33.48 20.62, 33.48 27.59 M33.48 8.37 C33.48 15.77, 33.48 23.18, 33.48 27.59 M33.48 27.59 C33.48 33.17, 30.69 35.96, 25.11 35.96 M33.48 27.59 C33.48 33.17, 30.69 35.96, 25.11 35.96 M25.11 35.96 C20.54 35.96, 15.97 35.96, 8.37 35.96 M25.11 35.96 C21.56 35.96, 18.01 35.96, 8.37 35.96 M8.37 35.96 C2.79 35.96, 0 33.17, 0 27.59 M8.37 35.96 C2.79 35.96, 0 33.17, 0 27.59 M0 27.59 C0 20.08, 0 12.56, 0 8.37 M0 27.59 C0 20.72, 0 13.85, 0 8.37 M0 8.37 C0 2.79, 2.79 0, 8.37 0 M0 8.37 C0 2.79, 2.79 0, 8.37 0" stroke="#fff" stroke-width="2" fill="none"></path></g><g stroke-linecap="round" transform="translate(585.4345332420376 1081.7768185883524) rotate(0 16.738507149760608 17.978017165134588)"><path d="M8.37 0 C14.36 0, 20.36 0, 25.11 0 C30.69 0, 33.48 2.79, 33.48 8.37 C33.48 14.41, 33.48 20.45, 33.48 27.59 C33.48 33.17, 30.69 35.96, 25.11 35.96 C21.6 35.96, 18.09 35.96, 8.37 35.96 C2.79 35.96, 0 33.17, 0 27.59 C0 23.45, 0 19.32, 0 8.37 C0 2.79, 2.79 0, 8.37 0" stroke="none" stroke-width="0" fill="#fd7e14"></path><path d="M8.37 0 C12.58 0, 16.8 0, 25.11 0 M8.37 0 C14.83 0, 21.29 0, 25.11 0 M25.11 0 C30.69 0, 33.48 2.79, 33.48 8.37 M25.11 0 C30.69 0, 33.48 2.79, 33.48 8.37 M33.48 8.37 C33.48 12.74, 33.48 17.1, 33.48 27.59 M33.48 8.37 C33.48 12.52, 33.48 16.68, 33.48 27.59 M33.48 27.59 C33.48 33.17, 30.69 35.96, 25.11 35.96 M33.48 27.59 C33.48 33.17, 30.69 35.96, 25.11 35.96 M25.11 35.96 C20.14 35.96, 15.18 35.96, 8.37 35.96 M25.11 35.96 C20.93 35.96, 16.75 35.96, 8.37 35.96 M8.37 35.96 C2.79 35.96, 0 33.17, 0 27.59 M8.37 35.96 C2.79 35.96, 0 33.17, 0 27.59 M0 27.59 C0 21.35, 0 15.12, 0 8.37 M0 27.59 C0 22.03, 0 16.48, 0 8.37 M0 8.37 C0 2.79, 2.79 0, 8.37 0 M0 8.37 C0 2.79, 2.79 0, 8.37 0" stroke="#fff" stroke-width="2" fill="none"></path></g><g transform="translate(540.8338503844666 1021.6696574107773) rotate(0 68.47994232177734 12.5)"><text x="0" y="17.52" font-family="Virgil, Segoe UI Emoji" font-size="20px" fill="#2f9e44" text-anchor="start" style="white-space: pre;" direction="ltr" dominant-baseline="alphabetic">Target Group</text></g><g transform="translate(515.0218078867542 1145.7298698993382) rotate(0 92.11991882324219 25)"><text x="0" y="17.52" font-family="Virgil, Segoe UI Emoji" font-size="20px" fill="#2f9e44" text-anchor="start" style="white-space: pre;" direction="ltr" dominant-baseline="alphabetic">3rd party Security</text><text x="0" y="42.519999999999996" font-family="Virgil, Segoe UI Emoji" font-size="20px" fill="#2f9e44" text-anchor="start" style="white-space: pre;" direction="ltr" dominant-baseline="alphabetic">virtual appliances</text></g><g stroke-linecap="round" transform="translate(547.5338033062076 765.2491853553947) rotate(0 44.16495435316119 44.16495435316119)"><path d="M63.25 5 C70.17 8.06, 77.17 15.86, 81.31 22.51 C85.46 29.15, 88.21 37.07, 88.12 44.86 C88.03 52.65, 85.13 62.66, 80.77 69.23 C76.41 75.79, 69.45 81.31, 61.96 84.23 C54.46 87.16, 43.72 88.14, 35.79 86.79 C27.86 85.43, 20.02 81.49, 14.36 76.08 C8.69 70.66, 3.76 61.99, 1.81 54.3 C-0.13 46.6, 0.13 37.3, 2.69 29.93 C5.26 22.56, 11.01 15, 17.2 10.06 C23.4 5.11, 30.93 0.33, 39.87 0.26 C48.81 0.19, 64.65 7.11, 70.83 9.62 C77.01 12.13, 77.32 14.94, 76.94 15.32 M47.28 -0.2 C55.01 -0.49, 65 4.17, 71.58 8.73 C78.17 13.29, 83.97 19.67, 86.78 27.16 C89.6 34.65, 90.23 45.44, 88.47 53.67 C86.7 61.89, 81.88 71.13, 76.17 76.52 C70.47 81.9, 62.22 84.34, 54.25 85.99 C46.27 87.64, 35.73 88.87, 28.3 86.43 C20.88 83.98, 14.63 77.73, 9.69 71.31 C4.76 64.89, -0.38 55.69, -1.33 47.93 C-2.28 40.16, 0.15 31.58, 3.99 24.73 C7.84 17.88, 14.33 10.89, 21.73 6.84 C29.14 2.79, 44.04 1.38, 48.42 0.43 C52.79 -0.52, 48.5 0.26, 48.01 1.12" stroke="#000000" stroke-width="1" fill="none"></path></g><g stroke-linecap="round"><g transform="translate(560.4848833197016 794.1529959735508) rotate(0 29.53030269598503 15.76486284373641)" fill-rule="evenodd"><path d="M1.89 0.22 L-0.48 26.91 L14.68 26.63 L15.01 17.57 L42.75 36.69 L38.43 41.02 L48.34 39.44 L47.65 46.03 L57.37 43.82 L57.73 33.52 L49.67 32.5 L47.64 36.49 L45.32 28.71 L42.99 32.85 L19.17 14.87 L37.71 16.09 L38.69 17.49 L49.33 16.18 L49.13 18.45 L59.04 19.94 L59.35 8.8 L49.51 11.3 L49.87 11.59 L38.92 7.69 L40.21 10.42 L20.2 12.24 L43.1 -0.37 L45.8 -0.66 L47.94 -4.99 L48.22 -3.69 L60.14 -1.54 L59.07 -13.1 L49.42 -11.47 L45.84 -7.01 L39.21 -6.63 L42.41 -5.98 L13.03 11.4 L15.58 1.85 L1.27 -0.84" stroke="none" stroke-width="0" fill="#fff" fill-rule="evenodd"></path><path d="M0 0 C-0.25 9.49, -1.18 21.53, 0.24 26.17 M0 0 C-0.65 5.96, 0.16 12.15, 0.24 26.17 M0.24 26.17 C3.76 25.79, 7.03 25.31, 13.97 26.3 M0.24 26.17 C5.14 26.38, 9.63 25.87, 13.97 26.3 M13.97 26.3 C14.03 22.05, 14.23 19.83, 14.18 16.24 M13.97 26.3 C14.43 22.62, 14.56 18.45, 14.18 16.24 M14.18 16.24 C26.23 23.82, 32.98 29.5, 41.64 35.46 M14.18 16.24 C22.95 23.13, 32.75 30.67, 41.64 35.46 M41.64 35.46 C41.3 36.63, 40.78 36.86, 39.65 39.15 M41.64 35.46 C40.88 36.65, 40.22 38.33, 39.65 39.15 M39.65 39.15 C43.17 40.05, 45.36 40.34, 48.72 40.84 M39.65 39.15 C43.16 39.76, 46.35 40.61, 48.72 40.84 M48.72 40.84 C48.92 41.99, 48.81 42.94, 48.72 44.73 M48.72 40.84 C48.76 41.71, 48.86 42.59, 48.72 44.73 M48.72 44.73 C51.41 43.86, 56.29 45.31, 59.04 44.21 M48.72 44.73 C51.71 44.66, 54.27 44.56, 59.04 44.21 M59.04 44.21 C59.05 40.46, 58.77 36.99, 59.06 33.54 M59.04 44.21 C58.6 41.31, 58.6 38.58, 59.06 33.54 M59.06 33.54 C57.47 34.05, 53.98 32.75, 48.79 33.67 M59.06 33.54 C55.23 33.17, 51.34 33.11, 48.79 33.67 M48.79 33.67 C48.72 34.66, 48.98 35.51, 48.74 36.79 M48.79 33.67 C48.68 34.82, 48.93 35.59, 48.74 36.79 M48.74 36.79 C47.43 35.46, 46.12 33.46, 44.83 30.4 M48.74 36.79 C48.29 35.2, 46.76 34.39, 44.83 30.4 M44.83 30.4 C44.34 31.06, 43.37 32.64, 42.87 33.13 M44.83 30.4 C44.18 31.25, 43.45 32.13, 42.87 33.13 M42.87 33.13 C34.65 29.72, 30.97 22.05, 19.27 15.38 M42.87 33.13 C34.87 27.88, 27.05 20.87, 19.27 15.38 M19.27 15.38 C22.58 17.44, 30.9 15.27, 39.32 15.36 M19.27 15.38 C24.5 14.56, 32.28 15.3, 39.32 15.36 M39.32 15.36 C39.37 15.85, 39.13 16.47, 39.2 18.21 M39.32 15.36 C39.18 16.09, 39.3 16.5, 39.2 18.21 M39.2 18.21 C41.08 17.68, 43.96 16.27, 48.01 15.36 M39.2 18.21 C41.05 17.57, 43.13 17.08, 48.01 15.36 M48.01 15.36 C48.27 17.7, 48.05 19.23, 48.01 20.45 M48.01 15.36 C48.07 16.31, 48.02 17.52, 48.01 20.45 M48.01 20.45 C50.34 20.92, 53.61 21.45, 58.94 20.37 M48.01 20.45 C50.78 20.97, 53.65 20.83, 58.94 20.37 M58.94 20.37 C59.94 16.27, 59.98 12.52, 59.06 9.34 M58.94 20.37 C59.28 17.4, 58.55 14.03, 59.06 9.34 M59.06 9.34 C56.55 10.17, 52.62 8.55, 48.05 9.34 M59.06 9.34 C55.82 8.9, 53.2 9.56, 48.05 9.34 M48.05 9.34 C48.05 10.51, 47.68 11, 47.89 12.75 M48.05 9.34 C47.84 10.16, 47.94 10.86, 47.89 12.75 M47.89 12.75 C46.28 11.86, 42.61 11.54, 39.22 9.26 M47.89 12.75 C46.19 12.28, 43.75 11.27, 39.22 9.26 M39.22 9.26 C39.39 9.9, 39.48 10.17, 39.41 11.62 M39.22 9.26 C39.37 9.89, 39.25 10.38, 39.41 11.62 M39.41 11.62 C35.04 10.61, 29.81 13.01, 19.51 11.4 M39.41 11.62 C33.32 11.74, 25.5 10.59, 19.51 11.4 M19.51 11.4 C26.62 9.19, 32.63 2.96, 42.21 -1.79 M19.51 11.4 C24.94 9.12, 29.23 6.1, 42.21 -1.79 M42.21 -1.79 C42.46 -1.43, 43.22 -0.38, 43.93 0.84 M42.21 -1.79 C42.69 -1.23, 43.19 -0.53, 43.93 0.84 M43.93 0.84 C45.63 -1.54, 47.16 -3.89, 47.98 -5.23 M43.93 0.84 C45.16 -0.52, 45.81 -2.11, 47.98 -5.23 M47.98 -5.23 C47.72 -4.11, 48.17 -3.29, 48.01 -1.84 M47.98 -5.23 C47.94 -4.12, 47.93 -2.97, 48.01 -1.84 M48.01 -1.84 C51.8 -2.34, 53.2 -1.31, 58.85 -1.74 M48.01 -1.84 C52.25 -2.1, 55.4 -1.86, 58.85 -1.74 M58.85 -1.74 C59.46 -5.7, 59.17 -9.43, 58.78 -13.07 M58.85 -1.74 C59.3 -4.73, 59.25 -7.87, 58.78 -13.07 M58.78 -13.07 C56.37 -12.69, 53.4 -12.52, 47.72 -13.2 M58.78 -13.07 C55.88 -12.94, 52.56 -12.58, 47.72 -13.2 M47.72 -13.2 C47.37 -11.6, 47.59 -9.44, 47.63 -8.6 M47.72 -13.2 C47.91 -11.72, 47.47 -10.47, 47.63 -8.6 M47.63 -8.6 C46.02 -8.99, 43.06 -7.45, 39.6 -7.27 M47.63 -8.6 C44.27 -7.77, 40.95 -7.46, 39.6 -7.27 M39.6 -7.27 C39.75 -6.2, 40.42 -5.06, 40.76 -4.03 M39.6 -7.27 C39.88 -6.42, 40.05 -5.92, 40.76 -4.03 M40.76 -4.03 C32.74 -0.25, 27 2.89, 14.08 11.18 M40.76 -4.03 C32.98 0.42, 26.07 4.45, 14.08 11.18 M14.08 11.18 C13.33 8.55, 13.39 5.1, 13.73 0 M14.08 11.18 C14.32 8.38, 13.99 5.76, 13.73 0 M13.73 0 C9.6 1.35, 7.77 -1.14, 0 0 M13.73 0 C8.8 -0.2, 3.56 0.67, 0 0 M0 0 C0 0, 0 0, 0 0 M0 0 C0 0, 0 0, 0 0" stroke="#000000" stroke-width="1" fill="none"></path></g></g><mask></mask><g stroke-linecap="round"><g transform="translate(575.7417395771176 863.751708910062) rotate(0 -0.19080433232693395 65.07130844254334)"><path d="M0 0 C-0.06 21.69, -0.32 108.45, -0.38 130.14 M0 0 C-0.06 21.69, -0.32 108.45, -0.38 130.14" stroke="#2f9e44" stroke-width="1" fill="none"></path></g><g transform="translate(575.7417395771176 863.751708910062) rotate(0 -0.19080433232693395 65.07130844254334)"><path d="M-8.86 106.63 C-6.77 112.43, -4.68 118.23, -0.38 130.14 M-8.86 106.63 C-6.03 114.49, -3.19 122.36, -0.38 130.14" stroke="#2f9e44" stroke-width="1" fill="none"></path></g><g transform="translate(575.7417395771176 863.751708910062) rotate(0 -0.19080433232693395 65.07130844254334)"><path d="M8.24 106.68 C6.11 112.47, 3.98 118.26, -0.38 130.14 M8.24 106.68 C5.35 114.53, 2.47 122.38, -0.38 130.14" stroke="#2f9e44" stroke-width="1" fill="none"></path></g></g><mask></mask><g stroke-linecap="round"><g transform="translate(607.1641752212131 996.9310366772315) rotate(0 -0.1642982894763918 -67.63644641613791)"><path d="M0 0 C-0.05 -22.55, -0.27 -112.73, -0.33 -135.27 M0 0 C-0.05 -22.55, -0.27 -112.73, -0.33 -135.27" stroke="#2f9e44" stroke-width="1" fill="none"></path></g><g transform="translate(607.1641752212131 996.9310366772315) rotate(0 -0.1642982894763918 -67.63644641613791)"><path d="M8.28 -111.8 C5.43 -119.58, 2.58 -127.35, -0.33 -135.27 M8.28 -111.8 C6.12 -117.68, 3.96 -123.57, -0.33 -135.27" stroke="#2f9e44" stroke-width="1" fill="none"></path></g><g transform="translate(607.1641752212131 996.9310366772315) rotate(0 -0.1642982894763918 -67.63644641613791)"><path d="M-8.82 -111.76 C-6.01 -119.55, -3.19 -127.34, -0.33 -135.27 M-8.82 -111.76 C-6.69 -117.65, -4.57 -123.54, -0.33 -135.27" stroke="#2f9e44" stroke-width="1" fill="none"></path></g></g><mask></mask><g transform="translate(668.3757074319842 783.4714075776174) rotate(0 100.22595977783203 35)"><text x="100.22595977783203" y="24.528" font-family="Virgil, Segoe UI Emoji" font-size="28px" fill="#2f9e44" text-anchor="middle" style="white-space: pre;" direction="ltr" dominant-baseline="alphabetic">Gateway</text><text x="100.22595977783203" y="59.528" font-family="Virgil, Segoe UI Emoji" font-size="28px" fill="#2f9e44" text-anchor="middle" style="white-space: pre;" direction="ltr" dominant-baseline="alphabetic">Load Balancer</text></g><g stroke-opacity="0" fill-opacity="0" stroke-linecap="round" transform="translate(184.85752235841892 527.8372282935652) rotate(0 58.378661581835786 58.37866158183533)"><path d="M58.99 0.88 C67.68 0.34, 77.89 3.31, 85.82 7.5 C93.75 11.69, 101.33 18.6, 106.55 26.01 C111.76 33.41, 116.22 43.05, 117.09 51.92 C117.97 60.79, 115.25 70.83, 111.79 79.22 C108.32 87.62, 102.95 96.18, 96.31 102.29 C89.66 108.41, 80.79 113.79, 71.91 115.91 C63.03 118.03, 51.95 117.35, 43.05 115.03 C34.14 112.71, 24.94 107.99, 18.48 102.01 C12.01 96.03, 7.19 87.72, 4.26 79.15 C1.32 70.58, -0.23 59.51, 0.86 50.58 C1.95 41.65, 5.8 33.06, 10.82 25.58 C15.85 18.1, 22.51 9.97, 31 5.72 C39.48 1.47, 56.45 0.87, 61.73 0.09 C67 -0.69, 62.85 0.2, 62.64 1.02 M64.82 1.15 C73.32 1.13, 82.52 4.62, 89.8 9.26 C97.07 13.9, 104.23 20.97, 108.48 28.99 C112.73 37, 115.05 48.27, 115.28 57.36 C115.52 66.44, 113.69 75.44, 109.89 83.5 C106.08 91.55, 99.58 100.36, 92.47 105.69 C85.37 111.02, 76.1 114.02, 67.26 115.48 C58.43 116.94, 48.22 117.45, 39.44 114.43 C30.67 111.42, 20.99 104.13, 14.62 97.39 C8.26 90.65, 3.49 82.29, 1.25 73.97 C-0.99 65.64, -0.74 56.41, 1.2 47.42 C3.14 38.44, 7.24 27.23, 12.9 20.05 C18.56 12.88, 26.87 7.47, 35.14 4.36 C43.42 1.26, 57.73 1.86, 62.54 1.42 C67.36 0.98, 64.01 1.2, 64.04 1.73" stroke="#1e1e1e" stroke-width="1" fill="none"></path></g><g stroke-linecap="round"><g transform="translate(214.5436662856414 607.6775780087664) rotate(0 27.17391304347825 -24.19758917393483)"><path d="M0.02 -0.91 C0.66 -6.08, 0.47 -24.06, 4.99 -32.01 C9.51 -39.97, 20.18 -47.99, 27.14 -48.62 C34.1 -49.25, 42.15 -43.49, 46.75 -35.8 C51.35 -28.11, 62.53 -8.27, 54.74 -2.5 C46.95 3.28, 9.22 -1.51, 0.02 -1.17 M-1.42 1.22 C-0.54 -3.64, 2.4 -22.34, 7.13 -30.45 C11.85 -38.55, 20.22 -46.69, 26.92 -47.41 C33.62 -48.14, 42.92 -42.44, 47.34 -34.82 C51.77 -27.19, 61.12 -7.61, 53.47 -1.67 C45.82 4.28, 10.37 0.28, 1.45 0.84" stroke="#1e1e1e" stroke-width="1" fill="none"></path></g></g><mask></mask><g stroke-linecap="round" transform="translate(228.28943025888339 534.0439253713848) rotate(0 13.913043478260988 12.173913043478024)"><path d="M16.83 0.45 C19.71 0.79, 23.55 2.77, 25.3 4.78 C27.05 6.79, 27.55 9.93, 27.33 12.52 C27.11 15.11, 25.91 18.31, 23.98 20.33 C22.06 22.34, 18.77 24.24, 15.77 24.6 C12.78 24.96, 8.61 23.93, 6.02 22.49 C3.44 21.05, 1.03 18.43, 0.26 15.98 C-0.51 13.54, 0.15 10.26, 1.39 7.81 C2.63 5.36, 5.01 2.44, 7.68 1.27 C10.34 0.1, 15.8 0.94, 17.39 0.78 C18.98 0.63, 17.25 0.21, 17.23 0.34 M11.26 0.26 C14.13 -0.24, 18.79 0.14, 21.54 1.56 C24.29 2.99, 26.89 6.29, 27.76 8.81 C28.63 11.32, 28.02 14.36, 26.75 16.66 C25.49 18.96, 22.9 21.28, 20.17 22.59 C17.44 23.9, 13.32 25.03, 10.37 24.53 C7.43 24.02, 4.26 21.65, 2.48 19.56 C0.7 17.47, -0.47 14.63, -0.3 12 C-0.12 9.37, 1.48 5.69, 3.51 3.78 C5.54 1.87, 10.6 1.2, 11.9 0.54 C13.19 -0.12, 11.32 -0.29, 11.28 -0.18" stroke="#1e1e1e" stroke-width="1" fill="none"></path></g><g transform="translate(219.86250028743734 613.3878543794181) rotate(0 22.33997344970703 12.5)"><text x="22.33997344970703" y="17.52" font-family="Virgil, Segoe UI Emoji" font-size="20px" fill="#1e1e1e" text-anchor="middle" style="white-space: pre;" direction="ltr" dominant-baseline="alphabetic">User</text></g><g stroke-linecap="round" transform="translate(931.9845792435731 540.5760887731321) rotate(0 44.413258149071225 45.639801102267484)"><path d="M88.83 45.64 C88.83 47.8, 88.67 49.99, 88.37 52.14 C88.07 54.28, 87.62 56.42, 87.03 58.5 C86.43 60.58, 85.69 62.63, 84.81 64.6 C83.94 66.57, 82.92 68.49, 81.78 70.31 C80.64 72.14, 79.36 73.89, 77.98 75.53 C76.6 77.16, 75.09 78.71, 73.5 80.13 C71.91 81.55, 70.2 82.86, 68.42 84.03 C66.65 85.2, 64.78 86.26, 62.86 87.16 C60.95 88.05, 58.95 88.82, 56.93 89.43 C54.9 90.04, 52.82 90.51, 50.73 90.82 C48.65 91.12, 46.52 91.28, 44.41 91.28 C42.31 91.28, 40.18 91.12, 38.09 90.82 C36.01 90.51, 33.92 90.04, 31.9 89.43 C29.88 88.82, 27.88 88.05, 25.96 87.16 C24.05 86.26, 22.17 85.2, 20.4 84.03 C18.63 82.86, 16.92 81.55, 15.33 80.13 C13.74 78.71, 12.23 77.16, 10.85 75.53 C9.47 73.89, 8.19 72.14, 7.05 70.31 C5.91 68.49, 4.89 66.57, 4.01 64.6 C3.14 62.63, 2.39 60.58, 1.8 58.5 C1.21 56.42, 0.75 54.28, 0.45 52.14 C0.15 49.99, 0 47.8, 0 45.64 C0 43.47, 0.15 41.29, 0.45 39.14 C0.75 37, 1.21 34.86, 1.8 32.78 C2.39 30.7, 3.14 28.65, 4.01 26.68 C4.89 24.71, 5.91 22.79, 7.05 20.97 C8.19 19.14, 9.47 17.39, 10.85 15.75 C12.23 14.12, 13.74 12.57, 15.33 11.15 C16.92 9.73, 18.63 8.42, 20.4 7.25 C22.17 6.07, 24.05 5.02, 25.96 4.12 C27.88 3.22, 29.88 2.46, 31.9 1.85 C33.92 1.24, 36.01 0.77, 38.09 0.46 C40.18 0.16, 42.31 0, 44.41 0 C46.52 0, 48.65 0.16, 50.73 0.46 C52.82 0.77, 54.9 1.24, 56.93 1.85 C58.95 2.46, 60.95 3.22, 62.86 4.12 C64.78 5.02, 66.65 6.07, 68.42 7.25 C70.2 8.42, 71.91 9.73, 73.5 11.15 C75.09 12.57, 76.6 14.12, 77.98 15.75 C79.36 17.39, 80.64 19.14, 81.78 20.97 C82.92 22.79, 83.94 24.71, 84.81 26.68 C85.69 28.65, 86.43 30.7, 87.03 32.78 C87.62 34.86, 88.07 37, 88.37 39.14 C88.67 41.29, 88.75 44.56, 88.83 45.64 C88.9 46.72, 88.9 44.56, 88.83 45.64" stroke="none" stroke-width="0" fill="#fd7e14"></path><path d="M88.83 45.64 C88.83 47.8, 88.67 49.99, 88.37 52.14 C88.07 54.28, 87.62 56.42, 87.03 58.5 C86.43 60.58, 85.69 62.63, 84.81 64.6 C83.94 66.57, 82.92 68.49, 81.78 70.31 C80.64 72.14, 79.36 73.89, 77.98 75.53 C76.6 77.16, 75.09 78.71, 73.5 80.13 C71.91 81.55, 70.2 82.86, 68.42 84.03 C66.65 85.2, 64.78 86.26, 62.86 87.16 C60.95 88.05, 58.95 88.82, 56.93 89.43 C54.9 90.04, 52.82 90.51, 50.73 90.82 C48.65 91.12, 46.52 91.28, 44.41 91.28 C42.31 91.28, 40.18 91.12, 38.09 90.82 C36.01 90.51, 33.92 90.04, 31.9 89.43 C29.88 88.82, 27.88 88.05, 25.96 87.16 C24.05 86.26, 22.17 85.2, 20.4 84.03 C18.63 82.86, 16.92 81.55, 15.33 80.13 C13.74 78.71, 12.23 77.16, 10.85 75.53 C9.47 73.89, 8.19 72.14, 7.05 70.31 C5.91 68.49, 4.89 66.57, 4.01 64.6 C3.14 62.63, 2.39 60.58, 1.8 58.5 C1.21 56.42, 0.75 54.28, 0.45 52.14 C0.15 49.99, 0 47.8, 0 45.64 C0 43.47, 0.15 41.29, 0.45 39.14 C0.75 37, 1.21 34.86, 1.8 32.78 C2.39 30.7, 3.14 28.65, 4.01 26.68 C4.89 24.71, 5.91 22.79, 7.05 20.97 C8.19 19.14, 9.47 17.39, 10.85 15.75 C12.23 14.12, 13.74 12.57, 15.33 11.15 C16.92 9.73, 18.63 8.42, 20.4 7.25 C22.17 6.07, 24.05 5.02, 25.96 4.12 C27.88 3.22, 29.88 2.46, 31.9 1.85 C33.92 1.24, 36.01 0.77, 38.09 0.46 C40.18 0.16, 42.31 0, 44.41 0 C46.52 0, 48.65 0.16, 50.73 0.46 C52.82 0.77, 54.9 1.24, 56.93 1.85 C58.95 2.46, 60.95 3.22, 62.86 4.12 C64.78 5.02, 66.65 6.07, 68.42 7.25 C70.2 8.42, 71.91 9.73, 73.5 11.15 C75.09 12.57, 76.6 14.12, 77.98 15.75 C79.36 17.39, 80.64 19.14, 81.78 20.97 C82.92 22.79, 83.94 24.71, 84.81 26.68 C85.69 28.65, 86.43 30.7, 87.03 32.78 C87.62 34.86, 88.07 37, 88.37 39.14 C88.67 41.29, 88.75 44.56, 88.83 45.64 C88.9 46.72, 88.9 44.56, 88.83 45.64" stroke="#fd7e14" stroke-width="2" fill="none"></path></g><g stroke-linecap="round" transform="translate(952.8785317305578 561.9441207836007) rotate(0 22.51877736543338 24.186324526521275)"><path d="M11.26 0 C17.45 0, 23.65 0, 33.78 0 C41.28 0, 45.04 3.75, 45.04 11.26 C45.04 16.92, 45.04 22.58, 45.04 37.11 C45.04 44.62, 41.28 48.37, 33.78 48.37 C27.21 48.37, 20.64 48.37, 11.26 48.37 C3.75 48.37, 0 44.62, 0 37.11 C0 27.2, 0 17.29, 0 11.26 C0 3.75, 3.75 0, 11.26 0" stroke="none" stroke-width="0" fill="#fd7e14"></path><path d="M11.26 0 C16 0, 20.75 0, 33.78 0 M11.26 0 C18.89 0, 26.53 0, 33.78 0 M33.78 0 C41.28 0, 45.04 3.75, 45.04 11.26 M33.78 0 C41.28 0, 45.04 3.75, 45.04 11.26 M45.04 11.26 C45.04 17.68, 45.04 24.11, 45.04 37.11 M45.04 11.26 C45.04 21.52, 45.04 31.77, 45.04 37.11 M45.04 37.11 C45.04 44.62, 41.28 48.37, 33.78 48.37 M45.04 37.11 C45.04 44.62, 41.28 48.37, 33.78 48.37 M33.78 48.37 C27.39 48.37, 21.01 48.37, 11.26 48.37 M33.78 48.37 C25.36 48.37, 16.93 48.37, 11.26 48.37 M11.26 48.37 C3.75 48.37, 0 44.62, 0 37.11 M11.26 48.37 C3.75 48.37, 0 44.62, 0 37.11 M0 37.11 C0 29.7, 0 22.28, 0 11.26 M0 37.11 C0 27.8, 0 18.49, 0 11.26 M0 11.26 C0 3.75, 3.75 0, 11.26 0 M0 11.26 C0 3.75, 3.75 0, 11.26 0" stroke="#fff" stroke-width="2" fill="none"></path></g><g mask="url(#mask-hoXLMGHe_MQoSjxfPaZk4)" stroke-linecap="round"><g transform="translate(267.5298709969252 573.3098686265439) rotate(0 154.1130772657525 91.86050418303421)"><path d="M0 0 C44.79 3.8, 217.38 -7.84, 268.75 22.78 C320.12 53.4, 301.65 156.9, 308.23 183.72 M0 0 C44.79 3.8, 217.38 -7.84, 268.75 22.78 C320.12 53.4, 301.65 156.9, 308.23 183.72" stroke="#2f9e44" stroke-width="1" fill="none"></path></g><g transform="translate(267.5298709969252 573.3098686265439) rotate(0 154.1130772657525 91.86050418303421)"><path d="M298.69 160.61 C301.32 166.97, 303.94 173.33, 308.23 183.72 M298.69 160.61 C300.8 165.72, 302.91 170.83, 308.23 183.72" stroke="#2f9e44" stroke-width="1" fill="none"></path></g><g transform="translate(267.5298709969252 573.3098686265439) rotate(0 154.1130772657525 91.86050418303421)"><path d="M315.78 159.89 C313.7 166.45, 311.62 173, 308.23 183.72 M315.78 159.89 C314.11 165.16, 312.44 170.43, 308.23 183.72" stroke="#2f9e44" stroke-width="1" fill="none"></path></g></g><mask id="mask-hoXLMGHe_MQoSjxfPaZk4"><rect x="0" y="0" fill="#fff" width="675.7560255284302" height="857.0308769926123"></rect><rect x="502.728819156554" y="583.5852002421725" fill="#000" width="67.09992980957031" height="25" opacity="1"></rect></mask><g transform="translate(502.728819156554 583.5852002421725) rotate(0 -81.08587089387584 81.5851725674056)"><text x="33.549964904785156" y="17.52" font-family="Virgil, Segoe UI Emoji" font-size="20px" fill="#2f9e44" text-anchor="middle" style="white-space: pre;" direction="ltr" dominant-baseline="alphabetic">traffic</text></g><g mask="url(#mask-F38rvKlsc-13DhCxvb8LB)" stroke-linecap="round"><g transform="translate(600.0497125851002 755.5125215515673) rotate(0 165.4803154622491 -86.52002566008196)"><path d="M0 0 C5.82 -26.57, -20.24 -130.59, 34.92 -159.43 C90.08 -188.27, 281.62 -170.77, 330.96 -173.04 M0 0 C5.82 -26.57, -20.24 -130.59, 34.92 -159.43 C90.08 -188.27, 281.62 -170.77, 330.96 -173.04" stroke="#2f9e44" stroke-width="1" fill="none"></path></g><g transform="translate(600.0497125851002 755.5125215515673) rotate(0 165.4803154622491 -86.52002566008196)"><path d="M307.3 -164.96 C314.78 -167.51, 322.25 -170.07, 330.96 -173.04 M307.3 -164.96 C315.02 -167.6, 322.74 -170.23, 330.96 -173.04" stroke="#2f9e44" stroke-width="1" fill="none"></path></g><g transform="translate(600.0497125851002 755.5125215515673) rotate(0 165.4803154622491 -86.52002566008196)"><path d="M307.64 -182.06 C315.01 -179.21, 322.38 -176.36, 330.96 -173.04 M307.64 -182.06 C315.25 -179.12, 322.86 -176.17, 330.96 -173.04" stroke="#2f9e44" stroke-width="1" fill="none"></path></g></g><mask id="mask-F38rvKlsc-13DhCxvb8LB"><rect x="0" y="0" fill="#fff" width="1031.0103435095984" height="1028.5525728717312"></rect><rect x="601.4219228242773" y="583.5852002421725" fill="#000" width="67.09992980957031" height="25" opacity="1"></rect></mask><g transform="translate(601.4219228242782 583.5852002421725) rotate(0 163.5066730352628 83.80319612316089)"><text x="33.549964904785156" y="17.52" font-family="Virgil, Segoe UI Emoji" font-size="20px" fill="#2f9e44" text-anchor="middle" style="white-space: pre;" direction="ltr" dominant-baseline="alphabetic">traffic</text></g><g transform="translate(849.5701967577911 659.8561287659304) rotate(0 119.43988800048828 12.5)"><text x="119.43988800048828" y="17.52" font-family="Virgil, Segoe UI Emoji" font-size="20px" fill="#2f9e44" text-anchor="middle" style="white-space: pre;" direction="ltr" dominant-baseline="alphabetic">Application (Destination)</text></g></svg>