<svg version="1.1" xmlns="http://www.w3.org/2000/svg" viewBox="0 0 1043 674" width="1043" height="674">
  <!-- svg-source:excalidraw -->
  
  <defs>
    <style class="style-fonts">
      @font-face {
        font-family: "Virgil";
        src: url("https://excalidraw.com/Virgil.woff2");
      }
      @font-face {
        font-family: "Cascadia";
        src: url("https://excalidraw.com/Cascadia.woff2");
      }
      @font-face {
        font-family: "Assistant";
        src: url("https://excalidraw.com/Assistant-Regular.woff2");
      }
    </style>
    
  </defs>
  <rect x="0" y="0" width="1043" height="674" fill="#ffffff"></rect><g stroke-linecap="round" transform="translate(279 10) rotate(0 244 29)"><path d="M14.5 0 C142.03 1.21, 269.01 0.21, 473.5 0 M14.5 0 C153.89 0.78, 294.6 1.17, 473.5 0 M473.5 0 C482.31 -0.38, 488.02 6.07, 488 14.5 M473.5 0 C482.63 2.26, 487.03 2.85, 488 14.5 M488 14.5 C487.23 21.34, 489.32 27.92, 488 43.5 M488 14.5 C487.18 21.43, 488.48 30.87, 488 43.5 M488 43.5 C487.34 52.6, 484.56 57.03, 473.5 58 M488 43.5 C488.98 51.35, 483.37 59.25, 473.5 58 M473.5 58 C336.65 56.21, 198.27 56.22, 14.5 58 M473.5 58 C303.81 56.9, 134.59 56.91, 14.5 58 M14.5 58 C4.78 59.79, 0.09 54.16, 0 43.5 M14.5 58 C6.34 59.24, 2.16 51.77, 0 43.5 M0 43.5 C1.19 34.78, -0.28 25.06, 0 14.5 M0 43.5 C0.48 33.19, -0.67 23.84, 0 14.5 M0 14.5 C1.16 5.98, 3.84 0.63, 14.5 0 M0 14.5 C-0.6 5.51, 6.48 -0.95, 14.5 0" stroke="#f08c00" stroke-width="2" fill="none"></path></g><g transform="translate(327.65809631347656 21.5) rotate(0 195.34190368652344 17.5)"><text x="195.34190368652344" y="24.528" font-family="Virgil, Segoe UI Emoji" font-size="28px" fill="#f08c00" text-anchor="middle" style="white-space: pre;" direction="ltr" dominant-baseline="alphabetic">EC2 sizing and configuration</text></g><g transform="translate(10 125) rotate(0 106.1799087524414 12.5)"><text x="0" y="17.52" font-family="Virgil, Segoe UI Emoji" font-size="20px" fill="#1971c2" text-anchor="start" style="white-space: pre;" direction="ltr" dominant-baseline="alphabetic">-&gt; Operating System: </text></g><g transform="translate(242 125) rotate(0 123.90992736816406 12.5)"><text x="0" y="17.52" font-family="Virgil, Segoe UI Emoji" font-size="20px" fill="#1e1e1e" text-anchor="start" style="white-space: pre;" direction="ltr" dominant-baseline="alphabetic">Windows / MacOS / Linux</text></g><g transform="translate(10 181.5) rotate(0 128.5098876953125 12.5)"><text x="0" y="17.52" font-family="Virgil, Segoe UI Emoji" font-size="20px" fill="#1971c2" text-anchor="start" style="white-space: pre;" direction="ltr" dominant-baseline="alphabetic">-&gt; Compute power / cores:</text></g><g transform="translate(290 181.5) rotate(0 20.189987182617188 12.5)"><text x="0" y="17.52" font-family="Virgil, Segoe UI Emoji" font-size="20px" fill="#1e1e1e" text-anchor="start" style="white-space: pre;" direction="ltr" dominant-baseline="alphabetic">CPU</text></g><g transform="translate(10 238) rotate(0 50.369956970214844 12.5)"><text x="0" y="17.52" font-family="Virgil, Segoe UI Emoji" font-size="20px" fill="#1971c2" text-anchor="start" style="white-space: pre;" direction="ltr" dominant-baseline="alphabetic">-&gt; Memory:</text></g><g transform="translate(129 238) rotate(0 20.99999237060547 12.5)"><text x="0" y="17.52" font-family="Virgil, Segoe UI Emoji" font-size="20px" fill="#1e1e1e" text-anchor="start" style="white-space: pre;" direction="ltr" dominant-baseline="alphabetic">RAM</text></g><g transform="translate(10 294.5) rotate(0 92.61992645263672 12.5)"><text x="0" y="17.52" font-family="Virgil, Segoe UI Emoji" font-size="20px" fill="#1971c2" text-anchor="start" style="white-space: pre;" direction="ltr" dominant-baseline="alphabetic">-&gt; Storage space: </text></g><g transform="translate(216 294.5) rotate(0 118.49992370605469 25)"><text x="0" y="17.52" font-family="Virgil, Segoe UI Emoji" font-size="20px" fill="#1e1e1e" text-anchor="start" style="white-space: pre;" direction="ltr" dominant-baseline="alphabetic">-&gt; Network (EBS / EFS)</text><text x="0" y="42.519999999999996" font-family="Virgil, Segoe UI Emoji" font-size="20px" fill="#1e1e1e" text-anchor="start" style="white-space: pre;" direction="ltr" dominant-baseline="alphabetic">-&gt; EC2 Instance Store</text></g><g transform="translate(10 376) rotate(0 87.83993530273438 12.5)"><text x="0" y="17.52" font-family="Virgil, Segoe UI Emoji" font-size="20px" fill="#1971c2" text-anchor="start" style="white-space: pre;" direction="ltr" dominant-baseline="alphabetic">-&gt; Network Card: </text></g><g transform="translate(199 376) rotate(0 183.9698486328125 12.5)"><text x="0" y="17.52" font-family="Virgil, Segoe UI Emoji" font-size="20px" fill="#1e1e1e" text-anchor="start" style="white-space: pre;" direction="ltr" dominant-baseline="alphabetic">speed of the card, public IP address</text></g><g transform="translate(10 432.5) rotate(0 88.08993530273438 12.5)"><text x="0" y="17.52" font-family="Virgil, Segoe UI Emoji" font-size="20px" fill="#1971c2" text-anchor="start" style="white-space: pre;" direction="ltr" dominant-baseline="alphabetic">-&gt; Firewall Rules: </text></g><g transform="translate(205 432.5) rotate(0 74.96991729736328 12.5)"><text x="0" y="17.52" font-family="Virgil, Segoe UI Emoji" font-size="20px" fill="#1e1e1e" text-anchor="start" style="white-space: pre;" direction="ltr" dominant-baseline="alphabetic">Security groups</text></g><g transform="translate(10 489) rotate(0 98.10990905761719 12.5)"><text x="0" y="17.52" font-family="Virgil, Segoe UI Emoji" font-size="20px" fill="#1971c2" text-anchor="start" style="white-space: pre;" direction="ltr" dominant-baseline="alphabetic">-&gt; Bootstrap Script</text></g><g transform="translate(234 489) rotate(0 237.4298095703125 87.5)"><text x="0" y="17.52" font-family="Virgil, Segoe UI Emoji" font-size="20px" fill="#1e1e1e" text-anchor="start" style="white-space: pre;" direction="ltr" dominant-baseline="alphabetic">EC2 User Data</text><text x="0" y="42.519999999999996" font-family="Virgil, Segoe UI Emoji" font-size="20px" fill="#1e1e1e" text-anchor="start" style="white-space: pre;" direction="ltr" dominant-baseline="alphabetic"></text><text x="0" y="67.52" font-family="Virgil, Segoe UI Emoji" font-size="20px" fill="#1e1e1e" text-anchor="start" style="white-space: pre;" direction="ltr" dominant-baseline="alphabetic">-&gt; run only once at the first launch of instance</text><text x="0" y="92.52" font-family="Virgil, Segoe UI Emoji" font-size="20px" fill="#1e1e1e" text-anchor="start" style="white-space: pre;" direction="ltr" dominant-baseline="alphabetic">-&gt; automate boot tasks</text><text x="0" y="117.52" font-family="Virgil, Segoe UI Emoji" font-size="20px" fill="#1e1e1e" text-anchor="start" style="white-space: pre;" direction="ltr" dominant-baseline="alphabetic">-&gt; installing updates / softwares</text><text x="0" y="142.52" font-family="Virgil, Segoe UI Emoji" font-size="20px" fill="#1e1e1e" text-anchor="start" style="white-space: pre;" direction="ltr" dominant-baseline="alphabetic">-&gt; runs with root user only (sudo)</text><text x="0" y="167.52" font-family="Virgil, Segoe UI Emoji" font-size="20px" fill="#1e1e1e" text-anchor="start" style="white-space: pre;" direction="ltr" dominant-baseline="alphabetic">-&gt; downloading common files from internet</text></g><g stroke-linecap="round" transform="translate(737 399) rotate(0 148 132.5)"><path d="M32 0 C84.97 -1.61, 135.14 0.13, 264 0 M264 0 C284.36 0.85, 294.42 10.84, 296 32 M296 32 C294.47 103.93, 296.01 172.93, 296 233 M296 233 C296.05 255.72, 286.01 264.3, 264 265 M264 265 C205.34 264.87, 150.64 264.99, 32 265 M32 265 C11.66 266.31, 1.08 256.22, 0 233 M0 233 C-2.07 186.04, 0.24 136.65, 0 32 M0 32 C0.83 11.51, 11.08 1.62, 32 0" stroke="#2f9e44" stroke-width="2.5" fill="none" stroke-dasharray="8 10"></path></g><g transform="translate(782 420) rotate(0 104.70594787597656 17.5)"><text x="0" y="24.528" font-family="Virgil, Segoe UI Emoji" font-size="28px" fill="#2f9e44" text-anchor="start" style="white-space: pre;" direction="ltr" dominant-baseline="alphabetic">Key file format</text></g><g transform="translate(756 471) rotate(0 46.801979064941406 17.5)"><text x="0" y="24.528" font-family="Virgil, Segoe UI Emoji" font-size="28px" fill="#2f9e44" text-anchor="start" style="white-space: pre;" direction="ltr" dominant-baseline="alphabetic">-&gt; .pem</text></g><g transform="translate(778 511) rotate(0 103.85990905761719 12.5)"><text x="0" y="17.52" font-family="Virgil, Segoe UI Emoji" font-size="20px" fill="#1e1e1e" text-anchor="start" style="white-space: pre;" direction="ltr" dominant-baseline="alphabetic">-&gt; for SSH (OpenSSH)</text></g><g transform="translate(756 555) rotate(0 44.00196838378906 17.5)"><text x="0" y="24.528" font-family="Virgil, Segoe UI Emoji" font-size="28px" fill="#2f9e44" text-anchor="start" style="white-space: pre;" direction="ltr" dominant-baseline="alphabetic">-&gt; .ppk</text></g><g transform="translate(778 593) rotate(0 118.67990112304688 25)"><text x="0" y="17.52" font-family="Virgil, Segoe UI Emoji" font-size="20px" fill="#1e1e1e" text-anchor="start" style="white-space: pre;" direction="ltr" dominant-baseline="alphabetic">-&gt; for PUTTY (Only in </text><text x="0" y="42.519999999999996" font-family="Virgil, Segoe UI Emoji" font-size="20px" fill="#1e1e1e" text-anchor="start" style="white-space: pre;" direction="ltr" dominant-baseline="alphabetic">Win7/8)</text></g><g stroke-linecap="round" transform="translate(721 102) rotate(0 137.5 89.5)"><path d="M32 0 C95.73 1.6, 156.59 1.61, 243 0 M243 0 C265.72 0.68, 274.3 9.62, 275 32 M275 32 C274.9 59.69, 275.04 84.79, 275 147 M275 147 C276.31 169.41, 266.22 177.78, 243 179 M243 179 C173.98 178.26, 102.57 178.19, 32 179 M32 179 C11.51 179.41, 1.62 169.42, 0 147 M0 147 C1.87 118.16, -0.29 87.65, 0 32 M0 32 C-0.53 11.25, 12.1 -0.83, 32 0" stroke="#1971c2" stroke-width="2.5" fill="none" stroke-dasharray="8 10"></path></g><g transform="translate(756.6000823974609 129) rotate(0 100.39991760253906 12.5)"><text x="100.39991760253906" y="17.52" font-family="Virgil, Segoe UI Emoji" font-size="20px" fill="#1971c2" text-anchor="middle" style="white-space: pre;" direction="ltr" dominant-baseline="alphabetic">SSH -&gt; Secure Shell </text></g><g transform="translate(754 173) rotate(0 105.80975341796875 37.5)"><text x="0" y="17.52" font-family="Virgil, Segoe UI Emoji" font-size="20px" fill="#1e1e1e" text-anchor="start" style="white-space: pre;" direction="ltr" dominant-baseline="alphabetic">network that enables</text><text x="0" y="42.519999999999996" font-family="Virgil, Segoe UI Emoji" font-size="20px" fill="#1e1e1e" text-anchor="start" style="white-space: pre;" direction="ltr" dominant-baseline="alphabetic">two computers to </text><text x="0" y="67.52" font-family="Virgil, Segoe UI Emoji" font-size="20px" fill="#1e1e1e" text-anchor="start" style="white-space: pre;" direction="ltr" dominant-baseline="alphabetic">communicate</text></g><g mask="url(#mask-xAd_7X_OcrYRcz1MMKZ15)" stroke-linecap="round"><g transform="translate(860.8291707141716 292) rotate(0 0.9797626136673898 46.5)"><path d="M0 0 C0.54 27.08, 0.33 56.17, 1.96 93 M0 0 C0.47 21.66, 1.52 42.88, 1.96 93" stroke="#1971c2" stroke-width="2" fill="none"></path></g><g transform="translate(860.8291707141716 292) rotate(0 0.9797626136673898 46.5)"><path d="M-6.92 69.63 C-4.76 75.62, -2.88 83.65, 1.96 93 M-6.92 69.63 C-4.86 75.37, -2.22 80.73, 1.96 93" stroke="#1971c2" stroke-width="2" fill="none"></path></g><g transform="translate(860.8291707141716 292) rotate(0 0.9797626136673898 46.5)"><path d="M10.18 69.39 C7.16 75.51, 3.88 83.62, 1.96 93 M10.18 69.39 C8.35 75.34, 7.09 80.76, 1.96 93" stroke="#1971c2" stroke-width="2" fill="none"></path></g></g><mask id="mask-xAd_7X_OcrYRcz1MMKZ15"><rect x="0" y="0" fill="#fff" width="962.7886959415064" height="485"></rect><rect x="830.9609566432687" y="328.5" fill="#000" width="61.695953369140625" height="20" opacity="1"></rect></mask><g transform="translate(830.9609566432687 328.5) rotate(0 30.847976684570312 10)"><text x="30.847976684570312" y="14.016" font-family="Virgil, Segoe UI Emoji" font-size="16px" fill="#1971c2" text-anchor="middle" style="white-space: pre;" direction="ltr" dominant-baseline="alphabetic">required</text></g></svg>