<svg version="1.1" xmlns="http://www.w3.org/2000/svg" viewBox="0 0 1264.54345703125 433.2539682539682" width="1264.54345703125" height="433.2539682539682">
  <!-- svg-source:excalidraw -->
  
  <defs>
    <style class="style-fonts">
      @font-face {
        font-family: "Virgil";
        src: url("https://excalidraw.com/Virgil.woff2");
      }
      @font-face {
        font-family: "Cascadia";
        src: url("https://excalidraw.com/Cascadia.woff2");
      }
      @font-face {
        font-family: "Assistant";
        src: url("https://excalidraw.com/Assistant-Regular.woff2");
      }
    </style>
    
  </defs>
  <rect x="0" y="0" width="1264.54345703125" height="433.2539682539682" fill="#ffffff"></rect><g stroke-linecap="round" transform="translate(346.4939507378467 10) rotate(0 285.7777777777778 95.66666666666697)"><path d="M32 0 C232.7 2.81, 431.37 2.92, 539.56 0 M32 0 C211.09 1.14, 390.14 0.94, 539.56 0 M539.56 0 C561.74 -2.14, 570.46 8.95, 571.56 32 M539.56 0 C563.53 2.44, 566.99 8.62, 571.56 32 M571.56 32 C566.92 60.07, 568.94 89.98, 571.56 159.33 M571.56 32 C569.73 71.83, 569.45 114.77, 571.56 159.33 M571.56 159.33 C573.44 178.67, 562.57 188.04, 539.56 191.33 M571.56 159.33 C573.89 179.98, 561.21 188.67, 539.56 191.33 M539.56 191.33 C416.29 194.9, 293.67 192.59, 32 191.33 M539.56 191.33 C361.69 189.59, 183 189.31, 32 191.33 M32 191.33 C9.08 193.69, -1.12 178.52, 0 159.33 M32 191.33 C12.44 193.45, 1.61 184.59, 0 159.33 M0 159.33 C2.7 113.96, 0.56 76.59, 0 32 M0 159.33 C3.3 122.42, 1.32 85.31, 0 32 M0 32 C-3.96 10.31, 10.57 0.75, 32 0 M0 32 C4.39 11.83, 12.59 -2.56, 32 0" stroke="#2f9e44" stroke-width="4" fill="none"></path></g><g transform="translate(540.2217712402335 88.16666666666788) rotate(0 92.04995727539062 17.5)"><text x="0" y="24.528" font-family="Virgil, Segoe UI Emoji" font-size="28px" fill="#2f9e44" text-anchor="start" style="white-space: pre;" direction="ltr" dominant-baseline="alphabetic">ALB Creation</text></g><g transform="translate(10 248.2539682539682) rotate(0 622.271728515625 87.5)"><text x="0" y="24.528" font-family="Virgil, Segoe UI Emoji" font-size="28px" fill="#7950f2" text-anchor="start" style="white-space: pre;" direction="ltr" dominant-baseline="alphabetic">1. Launch 2 EC2 instances.</text><text x="0" y="59.528" font-family="Virgil, Segoe UI Emoji" font-size="28px" fill="#7950f2" text-anchor="start" style="white-space: pre;" direction="ltr" dominant-baseline="alphabetic">2. Create a new application load balancer from EC2 sidebar.</text><text x="0" y="94.52799999999999" font-family="Virgil, Segoe UI Emoji" font-size="28px" fill="#7950f2" text-anchor="start" style="white-space: pre;" direction="ltr" dominant-baseline="alphabetic">3. Create new security group that will allow http traffic into Load Balancer.</text><text x="0" y="129.528" font-family="Virgil, Segoe UI Emoji" font-size="28px" fill="#7950f2" text-anchor="start" style="white-space: pre;" direction="ltr" dominant-baseline="alphabetic">4. Now add target group</text><text x="0" y="164.528" font-family="Virgil, Segoe UI Emoji" font-size="28px" fill="#7950f2" text-anchor="start" style="white-space: pre;" direction="ltr" dominant-baseline="alphabetic">5. Target group lets you redirect traffic coming to Load Balancer to EC2 instances    </text></g></svg>