<svg version="1.1" xmlns="http://www.w3.org/2000/svg" viewBox="0 0 535.5112157117228 504.74965381278344" width="535.5112157117228" height="504.74965381278344">
  <!-- svg-source:excalidraw -->
  
  <defs>
    <style class="style-fonts">
      @font-face {
        font-family: "Virgil";
        src: url("https://excalidraw.com/Virgil.woff2");
      }
      @font-face {
        font-family: "Cascadia";
        src: url("https://excalidraw.com/Cascadia.woff2");
      }
      @font-face {
        font-family: "Assistant";
        src: url("https://excalidraw.com/Assistant-Regular.woff2");
      }
    </style>
    
  </defs>
  <rect x="0" y="0" width="535.5112157117228" height="504.74965381278344" fill="#ffffff"></rect><g stroke-linecap="round" transform="translate(46.31891266803086 351.1030921705242) rotate(0 46.96731894849199 48.26439636383202)"><path d="M93.93 48.26 C93.93 50.36, 93.8 52.48, 93.53 54.56 C93.27 56.65, 92.86 58.73, 92.33 60.76 C91.81 62.78, 91.14 64.79, 90.36 66.73 C89.58 68.67, 88.66 70.58, 87.64 72.4 C86.62 74.22, 85.47 75.98, 84.23 77.65 C82.99 79.31, 81.62 80.91, 80.18 82.39 C78.73 83.88, 77.18 85.28, 75.56 86.56 C73.94 87.83, 72.22 89.01, 70.45 90.06 C68.68 91.11, 66.83 92.05, 64.94 92.85 C63.05 93.66, 61.1 94.34, 59.12 94.88 C57.15 95.43, 55.12 95.84, 53.1 96.12 C51.07 96.39, 49.01 96.53, 46.97 96.53 C44.92 96.53, 42.86 96.39, 40.84 96.12 C38.81 95.84, 36.79 95.43, 34.81 94.88 C32.84 94.34, 30.88 93.66, 28.99 92.85 C27.11 92.05, 25.25 91.11, 23.48 90.06 C21.71 89.01, 20 87.83, 18.38 86.56 C16.75 85.28, 15.2 83.88, 13.76 82.39 C12.31 80.91, 10.95 79.31, 9.71 77.65 C8.46 75.98, 7.31 74.22, 6.29 72.4 C5.27 70.58, 4.36 68.67, 3.58 66.73 C2.79 64.79, 2.13 62.78, 1.6 60.76 C1.07 58.73, 0.67 56.65, 0.4 54.56 C0.14 52.48, 0 50.36, 0 48.26 C0 46.16, 0.14 44.05, 0.4 41.96 C0.67 39.88, 1.07 37.8, 1.6 35.77 C2.13 33.74, 2.79 31.73, 3.58 29.79 C4.36 27.85, 5.27 25.95, 6.29 24.13 C7.31 22.31, 8.46 20.55, 9.71 18.88 C10.95 17.22, 12.31 15.62, 13.76 14.14 C15.2 12.65, 16.75 11.25, 18.38 9.97 C20 8.7, 21.71 7.52, 23.48 6.47 C25.25 5.42, 27.11 4.48, 28.99 3.67 C30.88 2.87, 32.84 2.19, 34.81 1.64 C36.79 1.1, 38.81 0.69, 40.84 0.41 C42.86 0.14, 44.92 0, 46.97 0 C49.01 0, 51.07 0.14, 53.1 0.41 C55.12 0.69, 57.15 1.1, 59.12 1.64 C61.1 2.19, 63.05 2.87, 64.94 3.67 C66.83 4.48, 68.68 5.42, 70.45 6.47 C72.22 7.52, 73.94 8.7, 75.56 9.97 C77.18 11.25, 78.73 12.65, 80.18 14.14 C81.62 15.62, 82.99 17.22, 84.23 18.88 C85.47 20.55, 86.62 22.31, 87.64 24.13 C88.66 25.95, 89.58 27.85, 90.36 29.79 C91.14 31.73, 91.81 33.74, 92.33 35.77 C92.86 37.8, 93.27 39.88, 93.53 41.96 C93.8 44.05, 93.87 47.21, 93.93 48.26 C94 49.31, 94 47.21, 93.93 48.26" stroke="none" stroke-width="0" fill="#3175d7"></path><path d="M93.93 48.26 C93.93 50.36, 93.8 52.48, 93.53 54.56 C93.27 56.65, 92.86 58.73, 92.33 60.76 C91.81 62.78, 91.14 64.79, 90.36 66.73 C89.58 68.67, 88.66 70.58, 87.64 72.4 C86.62 74.22, 85.47 75.98, 84.23 77.65 C82.99 79.31, 81.62 80.91, 80.18 82.39 C78.73 83.88, 77.18 85.28, 75.56 86.56 C73.94 87.83, 72.22 89.01, 70.45 90.06 C68.68 91.11, 66.83 92.05, 64.94 92.85 C63.05 93.66, 61.1 94.34, 59.12 94.88 C57.15 95.43, 55.12 95.84, 53.1 96.12 C51.07 96.39, 49.01 96.53, 46.97 96.53 C44.92 96.53, 42.86 96.39, 40.84 96.12 C38.81 95.84, 36.79 95.43, 34.81 94.88 C32.84 94.34, 30.88 93.66, 28.99 92.85 C27.11 92.05, 25.25 91.11, 23.48 90.06 C21.71 89.01, 20 87.83, 18.38 86.56 C16.75 85.28, 15.2 83.88, 13.76 82.39 C12.31 80.91, 10.95 79.31, 9.71 77.65 C8.46 75.98, 7.31 74.22, 6.29 72.4 C5.27 70.58, 4.36 68.67, 3.58 66.73 C2.79 64.79, 2.13 62.78, 1.6 60.76 C1.07 58.73, 0.67 56.65, 0.4 54.56 C0.14 52.48, 0 50.36, 0 48.26 C0 46.16, 0.14 44.05, 0.4 41.96 C0.67 39.88, 1.07 37.8, 1.6 35.77 C2.13 33.74, 2.79 31.73, 3.58 29.79 C4.36 27.85, 5.27 25.95, 6.29 24.13 C7.31 22.31, 8.46 20.55, 9.71 18.88 C10.95 17.22, 12.31 15.62, 13.76 14.14 C15.2 12.65, 16.75 11.25, 18.38 9.97 C20 8.7, 21.71 7.52, 23.48 6.47 C25.25 5.42, 27.11 4.48, 28.99 3.67 C30.88 2.87, 32.84 2.19, 34.81 1.64 C36.79 1.1, 38.81 0.69, 40.84 0.41 C42.86 0.14, 44.92 0, 46.97 0 C49.01 0, 51.07 0.14, 53.1 0.41 C55.12 0.69, 57.15 1.1, 59.12 1.64 C61.1 2.19, 63.05 2.87, 64.94 3.67 C66.83 4.48, 68.68 5.42, 70.45 6.47 C72.22 7.52, 73.94 8.7, 75.56 9.97 C77.18 11.25, 78.73 12.65, 80.18 14.14 C81.62 15.62, 82.99 17.22, 84.23 18.88 C85.47 20.55, 86.62 22.31, 87.64 24.13 C88.66 25.95, 89.58 27.85, 90.36 29.79 C91.14 31.73, 91.81 33.74, 92.33 35.77 C92.86 37.8, 93.27 39.88, 93.53 41.96 C93.8 44.05, 93.87 47.21, 93.93 48.26 C94 49.31, 94 47.21, 93.93 48.26" stroke="#fff" stroke-width="2" fill="none"></path></g><g stroke-linecap="round"><g transform="translate(68.50910550496155 378.3814127449914) rotate(0 24.47054746804406 25.678893972189144)" fill-rule="evenodd"><path d="M0 0 C0.39 6.86, 0.88 33.16, 2.31 41.19 C3.74 49.22, 4.67 46.49, 8.59 48.19 C12.5 49.88, 20.36 51.27, 25.81 51.36 C31.26 51.44, 37.42 50.61, 41.27 48.71 C45.13 46.81, 47.72 48.05, 48.94 39.95 C50.16 31.86, 48.93 6.66, 48.58 0.12 C48.23 -6.41, 54.83 0.75, 46.85 0.74 C38.88 0.73, 8.43 0.19, 0.74 0.08" stroke="none" stroke-width="0" fill="#3175d7" fill-rule="evenodd"></path><path d="M0 0 C0.39 6.86, 0.88 33.16, 2.31 41.19 C3.74 49.22, 4.67 46.49, 8.59 48.19 C12.5 49.88, 20.36 51.27, 25.81 51.36 C31.26 51.44, 37.42 50.61, 41.27 48.71 C45.13 46.81, 47.72 48.05, 48.94 39.95 C50.16 31.86, 48.93 6.66, 48.58 0.12 C48.23 -6.41, 54.83 0.75, 46.85 0.74 C38.88 0.73, 8.43 0.19, 0.74 0.08 M0 0 C0.39 6.86, 0.88 33.16, 2.31 41.19 C3.74 49.22, 4.67 46.49, 8.59 48.19 C12.5 49.88, 20.36 51.27, 25.81 51.36 C31.26 51.44, 37.42 50.61, 41.27 48.71 C45.13 46.81, 47.72 48.05, 48.94 39.95 C50.16 31.86, 48.93 6.66, 48.58 0.12 C48.23 -6.41, 54.83 0.75, 46.85 0.74 C38.88 0.73, 8.43 0.19, 0.74 0.08" stroke="#fff" stroke-width="2" fill="none"></path></g></g><mask></mask><g stroke-linecap="round" transform="translate(68.05799881463281 371.2830201927536) rotate(0 24.802992454788182 6.820789176204016)"><path d="M49.61 6.82 C49.61 7.22, 49.48 7.62, 49.23 8.01 C48.98 8.39, 48.6 8.78, 48.11 9.15 C47.62 9.52, 47 9.89, 46.28 10.23 C45.57 10.57, 44.73 10.9, 43.8 11.21 C42.88 11.51, 41.85 11.79, 40.75 12.05 C39.65 12.3, 38.45 12.53, 37.2 12.73 C35.96 12.93, 34.64 13.1, 33.29 13.23 C31.94 13.37, 30.52 13.47, 29.11 13.54 C27.7 13.61, 26.24 13.64, 24.8 13.64 C23.37 13.64, 21.91 13.61, 20.5 13.54 C19.08 13.47, 17.67 13.37, 16.32 13.23 C14.97 13.1, 13.64 12.93, 12.4 12.73 C11.16 12.53, 9.96 12.3, 8.86 12.05 C7.76 11.79, 6.73 11.51, 5.8 11.21 C4.88 10.9, 4.04 10.57, 3.32 10.23 C2.61 9.89, 1.99 9.52, 1.5 9.15 C1 8.78, 0.63 8.39, 0.38 8.01 C0.13 7.62, 0 7.22, 0 6.82 C0 6.43, 0.13 6.03, 0.38 5.64 C0.63 5.25, 1 4.86, 1.5 4.49 C1.99 4.12, 2.61 3.75, 3.32 3.41 C4.04 3.07, 4.88 2.74, 5.8 2.44 C6.73 2.13, 7.76 1.85, 8.86 1.6 C9.96 1.34, 11.16 1.11, 12.4 0.91 C13.64 0.72, 14.97 0.55, 16.32 0.41 C17.67 0.28, 19.08 0.17, 20.5 0.1 C21.91 0.04, 23.37 0, 24.8 0 C26.24 0, 27.7 0.04, 29.11 0.1 C30.52 0.17, 31.94 0.28, 33.29 0.41 C34.64 0.55, 35.96 0.72, 37.2 0.91 C38.45 1.11, 39.65 1.34, 40.75 1.6 C41.85 1.85, 42.88 2.13, 43.8 2.44 C44.73 2.74, 45.57 3.07, 46.28 3.41 C47 3.75, 47.62 4.12, 48.11 4.49 C48.6 4.86, 48.98 5.25, 49.23 5.64 C49.48 6.03, 49.54 6.62, 49.61 6.82 C49.67 7.02, 49.67 6.62, 49.61 6.82" stroke="none" stroke-width="0" fill="#3175d7"></path><path d="M49.61 6.82 C49.61 7.22, 49.48 7.62, 49.23 8.01 C48.98 8.39, 48.6 8.78, 48.11 9.15 C47.62 9.52, 47 9.89, 46.28 10.23 C45.57 10.57, 44.73 10.9, 43.8 11.21 C42.88 11.51, 41.85 11.79, 40.75 12.05 C39.65 12.3, 38.45 12.53, 37.2 12.73 C35.96 12.93, 34.64 13.1, 33.29 13.23 C31.94 13.37, 30.52 13.47, 29.11 13.54 C27.7 13.61, 26.24 13.64, 24.8 13.64 C23.37 13.64, 21.91 13.61, 20.5 13.54 C19.08 13.47, 17.67 13.37, 16.32 13.23 C14.97 13.1, 13.64 12.93, 12.4 12.73 C11.16 12.53, 9.96 12.3, 8.86 12.05 C7.76 11.79, 6.73 11.51, 5.8 11.21 C4.88 10.9, 4.04 10.57, 3.32 10.23 C2.61 9.89, 1.99 9.52, 1.5 9.15 C1 8.78, 0.63 8.39, 0.38 8.01 C0.13 7.62, 0 7.22, 0 6.82 C0 6.43, 0.13 6.03, 0.38 5.64 C0.63 5.25, 1 4.86, 1.5 4.49 C1.99 4.12, 2.61 3.75, 3.32 3.41 C4.04 3.07, 4.88 2.74, 5.8 2.44 C6.73 2.13, 7.76 1.85, 8.86 1.6 C9.96 1.34, 11.16 1.11, 12.4 0.91 C13.64 0.72, 14.97 0.55, 16.32 0.41 C17.67 0.28, 19.08 0.17, 20.5 0.1 C21.91 0.04, 23.37 0, 24.8 0 C26.24 0, 27.7 0.04, 29.11 0.1 C30.52 0.17, 31.94 0.28, 33.29 0.41 C34.64 0.55, 35.96 0.72, 37.2 0.91 C38.45 1.11, 39.65 1.34, 40.75 1.6 C41.85 1.85, 42.88 2.13, 43.8 2.44 C44.73 2.74, 45.57 3.07, 46.28 3.41 C47 3.75, 47.62 4.12, 48.11 4.49 C48.6 4.86, 48.98 5.25, 49.23 5.64 C49.48 6.03, 49.54 6.62, 49.61 6.82 C49.67 7.02, 49.67 6.62, 49.61 6.82" stroke="#fff" stroke-width="2" fill="none"></path></g><g stroke-linecap="round" transform="translate(405.6304202313231 351.1030921705242) rotate(0 46.96731894849199 48.26439636383202)"><path d="M93.93 48.26 C93.93 50.36, 93.8 52.48, 93.53 54.56 C93.27 56.65, 92.86 58.73, 92.33 60.76 C91.81 62.78, 91.14 64.79, 90.36 66.73 C89.58 68.67, 88.66 70.58, 87.64 72.4 C86.62 74.22, 85.47 75.98, 84.23 77.65 C82.99 79.31, 81.62 80.91, 80.18 82.39 C78.73 83.88, 77.18 85.28, 75.56 86.56 C73.94 87.83, 72.22 89.01, 70.45 90.06 C68.68 91.11, 66.83 92.05, 64.94 92.85 C63.05 93.66, 61.1 94.34, 59.12 94.88 C57.15 95.43, 55.12 95.84, 53.1 96.12 C51.07 96.39, 49.01 96.53, 46.97 96.53 C44.92 96.53, 42.86 96.39, 40.84 96.12 C38.81 95.84, 36.79 95.43, 34.81 94.88 C32.84 94.34, 30.88 93.66, 28.99 92.85 C27.11 92.05, 25.25 91.11, 23.48 90.06 C21.71 89.01, 20 87.83, 18.38 86.56 C16.75 85.28, 15.2 83.88, 13.76 82.39 C12.31 80.91, 10.95 79.31, 9.71 77.65 C8.46 75.98, 7.31 74.22, 6.29 72.4 C5.27 70.58, 4.36 68.67, 3.58 66.73 C2.79 64.79, 2.13 62.78, 1.6 60.76 C1.07 58.73, 0.67 56.65, 0.4 54.56 C0.14 52.48, 0 50.36, 0 48.26 C0 46.16, 0.14 44.05, 0.4 41.96 C0.67 39.88, 1.07 37.8, 1.6 35.77 C2.13 33.74, 2.79 31.73, 3.58 29.79 C4.36 27.85, 5.27 25.95, 6.29 24.13 C7.31 22.31, 8.46 20.55, 9.71 18.88 C10.95 17.22, 12.31 15.62, 13.76 14.14 C15.2 12.65, 16.75 11.25, 18.38 9.97 C20 8.7, 21.71 7.52, 23.48 6.47 C25.25 5.42, 27.11 4.48, 28.99 3.67 C30.88 2.87, 32.84 2.19, 34.81 1.64 C36.79 1.1, 38.81 0.69, 40.84 0.41 C42.86 0.14, 44.92 0, 46.97 0 C49.01 0, 51.07 0.14, 53.1 0.41 C55.12 0.69, 57.15 1.1, 59.12 1.64 C61.1 2.19, 63.05 2.87, 64.94 3.67 C66.83 4.48, 68.68 5.42, 70.45 6.47 C72.22 7.52, 73.94 8.7, 75.56 9.97 C77.18 11.25, 78.73 12.65, 80.18 14.14 C81.62 15.62, 82.99 17.22, 84.23 18.88 C85.47 20.55, 86.62 22.31, 87.64 24.13 C88.66 25.95, 89.58 27.85, 90.36 29.79 C91.14 31.73, 91.81 33.74, 92.33 35.77 C92.86 37.8, 93.27 39.88, 93.53 41.96 C93.8 44.05, 93.87 47.21, 93.93 48.26 C94 49.31, 94 47.21, 93.93 48.26" stroke="none" stroke-width="0" fill="#3175d7"></path><path d="M93.93 48.26 C93.93 50.36, 93.8 52.48, 93.53 54.56 C93.27 56.65, 92.86 58.73, 92.33 60.76 C91.81 62.78, 91.14 64.79, 90.36 66.73 C89.58 68.67, 88.66 70.58, 87.64 72.4 C86.62 74.22, 85.47 75.98, 84.23 77.65 C82.99 79.31, 81.62 80.91, 80.18 82.39 C78.73 83.88, 77.18 85.28, 75.56 86.56 C73.94 87.83, 72.22 89.01, 70.45 90.06 C68.68 91.11, 66.83 92.05, 64.94 92.85 C63.05 93.66, 61.1 94.34, 59.12 94.88 C57.15 95.43, 55.12 95.84, 53.1 96.12 C51.07 96.39, 49.01 96.53, 46.97 96.53 C44.92 96.53, 42.86 96.39, 40.84 96.12 C38.81 95.84, 36.79 95.43, 34.81 94.88 C32.84 94.34, 30.88 93.66, 28.99 92.85 C27.11 92.05, 25.25 91.11, 23.48 90.06 C21.71 89.01, 20 87.83, 18.38 86.56 C16.75 85.28, 15.2 83.88, 13.76 82.39 C12.31 80.91, 10.95 79.31, 9.71 77.65 C8.46 75.98, 7.31 74.22, 6.29 72.4 C5.27 70.58, 4.36 68.67, 3.58 66.73 C2.79 64.79, 2.13 62.78, 1.6 60.76 C1.07 58.73, 0.67 56.65, 0.4 54.56 C0.14 52.48, 0 50.36, 0 48.26 C0 46.16, 0.14 44.05, 0.4 41.96 C0.67 39.88, 1.07 37.8, 1.6 35.77 C2.13 33.74, 2.79 31.73, 3.58 29.79 C4.36 27.85, 5.27 25.95, 6.29 24.13 C7.31 22.31, 8.46 20.55, 9.71 18.88 C10.95 17.22, 12.31 15.62, 13.76 14.14 C15.2 12.65, 16.75 11.25, 18.38 9.97 C20 8.7, 21.71 7.52, 23.48 6.47 C25.25 5.42, 27.11 4.48, 28.99 3.67 C30.88 2.87, 32.84 2.19, 34.81 1.64 C36.79 1.1, 38.81 0.69, 40.84 0.41 C42.86 0.14, 44.92 0, 46.97 0 C49.01 0, 51.07 0.14, 53.1 0.41 C55.12 0.69, 57.15 1.1, 59.12 1.64 C61.1 2.19, 63.05 2.87, 64.94 3.67 C66.83 4.48, 68.68 5.42, 70.45 6.47 C72.22 7.52, 73.94 8.7, 75.56 9.97 C77.18 11.25, 78.73 12.65, 80.18 14.14 C81.62 15.62, 82.99 17.22, 84.23 18.88 C85.47 20.55, 86.62 22.31, 87.64 24.13 C88.66 25.95, 89.58 27.85, 90.36 29.79 C91.14 31.73, 91.81 33.74, 92.33 35.77 C92.86 37.8, 93.27 39.88, 93.53 41.96 C93.8 44.05, 93.87 47.21, 93.93 48.26 C94 49.31, 94 47.21, 93.93 48.26" stroke="#fff" stroke-width="2" fill="none"></path></g><g stroke-linecap="round"><g transform="translate(427.820613068252 378.3814127449932) rotate(0 24.47054746804406 25.678893972189144)" fill-rule="evenodd"><path d="M0 0 C0.39 6.86, 0.88 33.16, 2.31 41.19 C3.74 49.22, 4.67 46.49, 8.59 48.19 C12.5 49.88, 20.36 51.27, 25.81 51.36 C31.26 51.44, 37.42 50.61, 41.27 48.71 C45.13 46.81, 47.72 48.05, 48.94 39.95 C50.16 31.86, 48.93 6.66, 48.58 0.12 C48.23 -6.41, 54.83 0.75, 46.85 0.74 C38.88 0.73, 8.43 0.19, 0.74 0.08" stroke="none" stroke-width="0" fill="#3175d7" fill-rule="evenodd"></path><path d="M0 0 C0.39 6.86, 0.88 33.16, 2.31 41.19 C3.74 49.22, 4.67 46.49, 8.59 48.19 C12.5 49.88, 20.36 51.27, 25.81 51.36 C31.26 51.44, 37.42 50.61, 41.27 48.71 C45.13 46.81, 47.72 48.05, 48.94 39.95 C50.16 31.86, 48.93 6.66, 48.58 0.12 C48.23 -6.41, 54.83 0.75, 46.85 0.74 C38.88 0.73, 8.43 0.19, 0.74 0.08 M0 0 C0.39 6.86, 0.88 33.16, 2.31 41.19 C3.74 49.22, 4.67 46.49, 8.59 48.19 C12.5 49.88, 20.36 51.27, 25.81 51.36 C31.26 51.44, 37.42 50.61, 41.27 48.71 C45.13 46.81, 47.72 48.05, 48.94 39.95 C50.16 31.86, 48.93 6.66, 48.58 0.12 C48.23 -6.41, 54.83 0.75, 46.85 0.74 C38.88 0.73, 8.43 0.19, 0.74 0.08" stroke="#fff" stroke-width="2" fill="none"></path></g></g><mask></mask><g stroke-linecap="round" transform="translate(427.36950637792506 371.28302019275725) rotate(0 24.802992454788182 6.820789176204016)"><path d="M49.61 6.82 C49.61 7.22, 49.48 7.62, 49.23 8.01 C48.98 8.39, 48.6 8.78, 48.11 9.15 C47.62 9.52, 47 9.89, 46.28 10.23 C45.57 10.57, 44.73 10.9, 43.8 11.21 C42.88 11.51, 41.85 11.79, 40.75 12.05 C39.65 12.3, 38.45 12.53, 37.2 12.73 C35.96 12.93, 34.64 13.1, 33.29 13.23 C31.94 13.37, 30.52 13.47, 29.11 13.54 C27.7 13.61, 26.24 13.64, 24.8 13.64 C23.37 13.64, 21.91 13.61, 20.5 13.54 C19.08 13.47, 17.67 13.37, 16.32 13.23 C14.97 13.1, 13.64 12.93, 12.4 12.73 C11.16 12.53, 9.96 12.3, 8.86 12.05 C7.76 11.79, 6.73 11.51, 5.8 11.21 C4.88 10.9, 4.04 10.57, 3.32 10.23 C2.61 9.89, 1.99 9.52, 1.5 9.15 C1 8.78, 0.63 8.39, 0.38 8.01 C0.13 7.62, 0 7.22, 0 6.82 C0 6.43, 0.13 6.03, 0.38 5.64 C0.63 5.25, 1 4.86, 1.5 4.49 C1.99 4.12, 2.61 3.75, 3.32 3.41 C4.04 3.07, 4.88 2.74, 5.8 2.44 C6.73 2.13, 7.76 1.85, 8.86 1.6 C9.96 1.34, 11.16 1.11, 12.4 0.91 C13.64 0.72, 14.97 0.55, 16.32 0.41 C17.67 0.28, 19.08 0.17, 20.5 0.1 C21.91 0.04, 23.37 0, 24.8 0 C26.24 0, 27.7 0.04, 29.11 0.1 C30.52 0.17, 31.94 0.28, 33.29 0.41 C34.64 0.55, 35.96 0.72, 37.2 0.91 C38.45 1.11, 39.65 1.34, 40.75 1.6 C41.85 1.85, 42.88 2.13, 43.8 2.44 C44.73 2.74, 45.57 3.07, 46.28 3.41 C47 3.75, 47.62 4.12, 48.11 4.49 C48.6 4.86, 48.98 5.25, 49.23 5.64 C49.48 6.03, 49.54 6.62, 49.61 6.82 C49.67 7.02, 49.67 6.62, 49.61 6.82" stroke="none" stroke-width="0" fill="#3175d7"></path><path d="M49.61 6.82 C49.61 7.22, 49.48 7.62, 49.23 8.01 C48.98 8.39, 48.6 8.78, 48.11 9.15 C47.62 9.52, 47 9.89, 46.28 10.23 C45.57 10.57, 44.73 10.9, 43.8 11.21 C42.88 11.51, 41.85 11.79, 40.75 12.05 C39.65 12.3, 38.45 12.53, 37.2 12.73 C35.96 12.93, 34.64 13.1, 33.29 13.23 C31.94 13.37, 30.52 13.47, 29.11 13.54 C27.7 13.61, 26.24 13.64, 24.8 13.64 C23.37 13.64, 21.91 13.61, 20.5 13.54 C19.08 13.47, 17.67 13.37, 16.32 13.23 C14.97 13.1, 13.64 12.93, 12.4 12.73 C11.16 12.53, 9.96 12.3, 8.86 12.05 C7.76 11.79, 6.73 11.51, 5.8 11.21 C4.88 10.9, 4.04 10.57, 3.32 10.23 C2.61 9.89, 1.99 9.52, 1.5 9.15 C1 8.78, 0.63 8.39, 0.38 8.01 C0.13 7.62, 0 7.22, 0 6.82 C0 6.43, 0.13 6.03, 0.38 5.64 C0.63 5.25, 1 4.86, 1.5 4.49 C1.99 4.12, 2.61 3.75, 3.32 3.41 C4.04 3.07, 4.88 2.74, 5.8 2.44 C6.73 2.13, 7.76 1.85, 8.86 1.6 C9.96 1.34, 11.16 1.11, 12.4 0.91 C13.64 0.72, 14.97 0.55, 16.32 0.41 C17.67 0.28, 19.08 0.17, 20.5 0.1 C21.91 0.04, 23.37 0, 24.8 0 C26.24 0, 27.7 0.04, 29.11 0.1 C30.52 0.17, 31.94 0.28, 33.29 0.41 C34.64 0.55, 35.96 0.72, 37.2 0.91 C38.45 1.11, 39.65 1.34, 40.75 1.6 C41.85 1.85, 42.88 2.13, 43.8 2.44 C44.73 2.74, 45.57 3.07, 46.28 3.41 C47 3.75, 47.62 4.12, 48.11 4.49 C48.6 4.86, 48.98 5.25, 49.23 5.64 C49.48 6.03, 49.54 6.62, 49.61 6.82 C49.67 7.02, 49.67 6.62, 49.61 6.82" stroke="#fff" stroke-width="2" fill="none"></path></g><g stroke-linecap="round" transform="translate(10.00000000000091 10) rotate(0 71.63118715367773 68.06861607748033)"><path d="M56.64 1.71 C66.27 -1.12, 79.38 0.13, 89.33 2.45 C99.28 4.76, 108.35 9.44, 116.35 15.57 C124.35 21.7, 132.99 30.23, 137.32 39.21 C141.65 48.18, 142.46 59.49, 142.33 69.43 C142.2 79.37, 141.05 90.02, 136.56 98.87 C132.07 107.73, 123.82 116.58, 115.38 122.54 C106.93 128.5, 95.96 132.7, 85.89 134.61 C75.82 136.53, 64.96 136.36, 54.98 134.03 C45 131.7, 34.1 127, 26.01 120.63 C17.92 114.26, 10.69 104.64, 6.44 95.8 C2.19 86.96, 0.36 77.15, 0.52 67.59 C0.68 58.02, 2.7 47.41, 7.39 38.4 C12.09 29.4, 19.32 19.99, 28.69 13.55 C38.06 7.1, 56.75 1.66, 63.64 -0.27 C70.52 -2.2, 70.04 0.77, 69.99 1.96 M41.26 5.9 C49.88 1.05, 63.06 -0.31, 73.64 0.11 C84.23 0.53, 95.52 3.87, 104.76 8.42 C114.01 12.97, 123.13 19.59, 129.13 27.42 C135.13 35.25, 138.51 45.74, 140.74 55.41 C142.97 65.07, 144.84 75.97, 142.53 85.4 C140.23 94.83, 133.63 104.42, 126.91 111.97 C120.18 119.53, 111.32 126.7, 102.17 130.72 C93.01 134.74, 82.37 136.31, 71.98 136.08 C61.58 135.85, 49.35 133.75, 39.81 129.34 C30.28 124.93, 21.27 117.69, 14.77 109.61 C8.27 101.53, 2.81 90.65, 0.81 80.86 C-1.2 71.07, 0.17 60.11, 2.75 50.88 C5.34 41.66, 9.93 32.8, 16.3 25.51 C22.67 18.23, 36.43 10, 40.98 7.19 C45.54 4.38, 42.94 7.58, 43.64 8.68" stroke="#1e1e1e" stroke-width="1" fill="none"></path></g><g transform="translate(40.69632290841764 57.936836063110604) rotate(0 40.783966064453125 20)"><text x="40.783966064453125" y="14.016" font-family="Virgil, Segoe UI Emoji" font-size="16px" fill="#6741d9" text-anchor="middle" style="white-space: pre;" direction="ltr" dominant-baseline="alphabetic">Production</text><text x="40.783966064453125" y="34.016" font-family="Virgil, Segoe UI Emoji" font-size="16px" fill="#6741d9" text-anchor="middle" style="white-space: pre;" direction="ltr" dominant-baseline="alphabetic">Application</text></g><g mask="url(#mask-Al7kRWOnkXF_zDmgvduvu)" stroke-linecap="round"><g transform="translate(60.28693558306077 162.94276701939452) rotate(0 0.2183940026466189 89.63622738218328)"><path d="M0.37 2.73 C1.22 32.19, 2.47 147.74, 2.57 176.99 M-2.87 1.74 C-1.97 31.45, 1.1 149.54, 1.5 179.38" stroke="#6741d9" stroke-width="4" fill="none"></path></g><g transform="translate(60.28693558306077 162.94276701939452) rotate(0 0.2183940026466189 89.63622738218328)"><path d="M-5.59 157.6 C-7.25 161.38, -4.46 164.37, 2.22 179.6 M-8.42 155.67 C-5.5 163.3, -1.81 171.44, 0.84 179.49" stroke="#6741d9" stroke-width="4" fill="none"></path></g><g transform="translate(60.28693558306077 162.94276701939452) rotate(0 0.2183940026466189 89.63622738218328)"><path d="M11.51 157.24 C6.25 161.12, 5.45 164.19, 2.22 179.6 M8.67 155.32 C6.09 162.98, 4.26 171.23, 0.84 179.49" stroke="#6741d9" stroke-width="4" fill="none"></path></g></g><mask id="mask-Al7kRWOnkXF_zDmgvduvu"><rect x="0" y="0" fill="#fff" width="160.723723588354" height="442.2152217837611"></rect><rect x="40.44934508863662" y="242.5789944015778" fill="#000" width="40.111968994140625" height="20" opacity="1"></rect></mask><g transform="translate(40.44934508863662 242.5789944015778) rotate(0 19.689988521598934 10.923676744103432)"><text x="20.055984497070312" y="14.016" font-family="Virgil, Segoe UI Emoji" font-size="16px" fill="#1e1e1e" text-anchor="middle" style="white-space: pre;" direction="ltr" dominant-baseline="alphabetic">Write</text></g><g mask="url(#mask-O65plkzaklrxb1qc_q2D4)" stroke-linecap="round"><g transform="translate(115.75057739021668 342.3097569315778) rotate(0 0.2447722792735476 -89.65553882771383)"><path d="M-0.88 -0.29 C-1.36 -30.19, -0.86 -148.72, -0.48 -178.37 M3.84 -2.91 C2.68 -33.77, -2.61 -152.83, -3.25 -182.87" stroke="#6741d9" stroke-width="4" fill="none"></path></g><g transform="translate(115.75057739021668 342.3097569315778) rotate(0 0.2447722792735476 -89.65553882771383)"><path d="M5.9 -160.38 C3.07 -168.06, -0.42 -177.22, -2.56 -181.65 M6.06 -159.91 C2.15 -169.39, -1.6 -178.21, -3.47 -182.88" stroke="#6741d9" stroke-width="4" fill="none"></path></g><g transform="translate(115.75057739021668 342.3097569315778) rotate(0 0.2447722792735476 -89.65553882771383)"><path d="M-11.19 -159.79 C-7.4 -167.65, -4.28 -177.03, -2.56 -181.65 M-11.03 -159.32 C-8.44 -169.14, -5.69 -178.17, -3.47 -182.88" stroke="#6741d9" stroke-width="4" fill="none"></path></g></g><mask id="mask-O65plkzaklrxb1qc_q2D4"><rect x="0" y="0" fill="#fff" width="216.24012194876377" height="621.6208345870054"></rect><rect x="93.94736840728365" y="242.65421810386397" fill="#000" width="44.09596252441406" height="20" opacity="1"></rect></mask><g transform="translate(93.94736840728365 242.65421810386397) rotate(0 22.101342606246362 8.077817463390602)"><text x="22.04798126220703" y="14.016" font-family="Virgil, Segoe UI Emoji" font-size="16px" fill="#1e1e1e" text-anchor="middle" style="white-space: pre;" direction="ltr" dominant-baseline="alphabetic">reads</text></g><g stroke-linecap="round" transform="translate(377.20251722748253 10) rotate(0 71.63118715367727 68.06861607748033)"><path d="M53.52 2.09 C62.8 -1.26, 73.94 -0.11, 84.15 1.76 C94.36 3.63, 106.23 7.47, 114.79 13.32 C123.36 19.17, 130.96 28.37, 135.54 36.86 C140.11 45.35, 141.82 54.41, 142.23 64.24 C142.63 74.08, 141.82 86.8, 137.95 95.87 C134.08 104.94, 126.77 112.46, 119.01 118.66 C111.24 124.85, 101.28 130.35, 91.37 133.04 C81.47 135.74, 69.76 136.41, 59.58 134.81 C49.4 133.21, 38.77 129.07, 30.29 123.46 C21.81 117.85, 13.74 110.06, 8.71 101.15 C3.67 92.25, 0.44 80.18, 0.07 70.02 C-0.3 59.86, 2.29 49.12, 6.49 40.17 C10.69 31.23, 15.39 23.14, 25.29 16.36 C35.2 9.58, 57.07 2.04, 65.92 -0.53 C74.77 -3.1, 78.46 -0.17, 78.42 0.93 M88.03 1.45 C97.78 2.82, 109.87 10.5, 117.95 16.93 C126.04 23.35, 132.5 31.06, 136.55 39.98 C140.61 48.9, 142.31 60.37, 142.28 70.45 C142.25 80.53, 141.12 92.03, 136.38 100.46 C131.63 108.89, 122.33 115.06, 113.82 121.03 C105.32 126.99, 95.59 134.14, 85.34 136.23 C75.1 138.33, 62.39 136.04, 52.34 133.6 C42.29 131.15, 32.76 127.84, 25.02 121.56 C17.29 115.28, 10.26 104.96, 5.93 95.92 C1.61 86.88, -1.42 77.35, -0.92 67.3 C-0.41 57.26, 3.89 44.52, 8.98 35.66 C14.08 26.79, 21.7 20, 29.65 14.11 C37.6 8.21, 46.73 2.07, 56.69 0.28 C66.64 -1.52, 84.17 2.81, 89.35 3.35 C94.54 3.9, 88.07 2.71, 87.79 3.55" stroke="#1e1e1e" stroke-width="1" fill="none"></path></g><g transform="translate(407.89884013589926 57.936836063110604) rotate(0 40.783966064453125 20)"><text x="40.783966064453125" y="14.016" font-family="Virgil, Segoe UI Emoji" font-size="16px" fill="#6741d9" text-anchor="middle" style="white-space: pre;" direction="ltr" dominant-baseline="alphabetic">Reporting</text><text x="40.783966064453125" y="34.016" font-family="Virgil, Segoe UI Emoji" font-size="16px" fill="#6741d9" text-anchor="middle" style="white-space: pre;" direction="ltr" dominant-baseline="alphabetic">Application</text></g><g mask="url(#mask-VeioBGsEkPBjgeWbzaVSH)" stroke-linecap="round"><g transform="translate(451.11801241989997 335.4068634496325) rotate(0 1.142154019370082 -87.37478248181105)"><path d="M-1.88 -0.11 C-1.51 -29.08, 0.76 -145.49, 1.15 -174.42 M2.29 -2.63 C2.28 -31.03, -2.38 -141.28, -1.71 -170.61" stroke="#1e1e1e" stroke-width="4" fill="none"></path></g><g transform="translate(451.11801241989997 335.4068634496325) rotate(0 1.142154019370082 -87.37478248181105)"><path d="M7.07 -148.04 C5.12 -154.69, 3.35 -159.66, -3.56 -169.24 M6.51 -147.49 C4.16 -152.23, 1.93 -158.09, -1.03 -171.07" stroke="#1e1e1e" stroke-width="4" fill="none"></path></g><g transform="translate(451.11801241989997 335.4068634496325) rotate(0 1.142154019370082 -87.37478248181105)"><path d="M-10.03 -147.82 C-7.51 -154.42, -4.81 -159.44, -3.56 -169.24 M-10.59 -147.27 C-8.7 -152.02, -6.69 -157.93, -1.03 -171.07" stroke="#1e1e1e" stroke-width="4" fill="none"></path></g></g><mask id="mask-VeioBGsEkPBjgeWbzaVSH"><rect x="0" y="0" fill="#fff" width="553.4023204586401" height="610.1564284132546"></rect><rect x="430.21218517706257" y="238.03208096782146" fill="#000" width="44.09596252441406" height="20" opacity="1"></rect></mask><g transform="translate(430.21218517706257 238.03208096782146) rotate(0 21.109185557955243 10.112268729135394)"><text x="22.04798126220703" y="14.016" font-family="Virgil, Segoe UI Emoji" font-size="16px" fill="#1e1e1e" text-anchor="middle" style="white-space: pre;" direction="ltr" dominant-baseline="alphabetic">reads</text></g><g mask="url(#mask-wK0XM71X9_vz6C1N79kHH)" stroke-linecap="round"><g transform="translate(150.73150532557065 398.2253345149875) rotate(0 123.92371110165323 1.1421540193696273)"><path d="M-0.81 1 C40.7 1.4, 205.08 3.21, 246.52 3.52 M3.94 -0.93 C45.19 -1.47, 203.22 -2.02, 243.57 -0.82" stroke="#1e1e1e" stroke-width="4" fill="none"></path></g><g transform="translate(150.73150532557065 398.2253345149875) rotate(0 123.92371110165323 1.1421540193696273)"><path d="M220.7 6.54 C225.77 5.83, 230.23 4.92, 243.72 -1.38 M219.05 7.24 C224.73 5.07, 229.48 5.25, 244.4 0.08" stroke="#1e1e1e" stroke-width="4" fill="none"></path></g><g transform="translate(150.73150532557065 398.2253345149875) rotate(0 123.92371110165323 1.1421540193696273)"><path d="M220.88 -10.56 C225.99 -7.7, 230.41 -5.02, 243.72 -1.38 M219.24 -9.86 C224.76 -8.56, 229.47 -4.9, 244.4 0.08" stroke="#1e1e1e" stroke-width="4" fill="none"></path></g></g><mask id="mask-wK0XM71X9_vz6C1N79kHH"><rect x="0" y="0" fill="#fff" width="498.5789275288771" height="500.50964255372674"></rect><rect x="235.24724218405936" y="379.3674885343571" fill="#000" width="78.81594848632812" height="40" opacity="1"></rect></mask><g transform="translate(235.24724218405936 379.3674885343571) rotate(0 38.341385967657516 19.850124953110935)"><text x="39.40797424316406" y="14.016" font-family="Virgil, Segoe UI Emoji" font-size="16px" fill="#1e1e1e" text-anchor="middle" style="white-space: pre;" direction="ltr" dominant-baseline="alphabetic">Async</text><text x="39.40797424316406" y="34.016" font-family="Virgil, Segoe UI Emoji" font-size="16px" fill="#1e1e1e" text-anchor="middle" style="white-space: pre;" direction="ltr" dominant-baseline="alphabetic">replication</text></g><g transform="translate(66.21210789218549 454.19088146411923) rotate(0 32.583984375 20)"><text x="0" y="14.016" font-family="Virgil, Segoe UI Emoji" font-size="16px" fill="#1e1e1e" text-anchor="start" style="white-space: pre;" direction="ltr" dominant-baseline="alphabetic">RDS DB</text><text x="0" y="34.016" font-family="Virgil, Segoe UI Emoji" font-size="16px" fill="#1e1e1e" text-anchor="start" style="white-space: pre;" direction="ltr" dominant-baseline="alphabetic">instance</text></g><g transform="translate(412.8232579480509 454.74965381278344) rotate(0 56.34397888183594 20)"><text x="0" y="14.016" font-family="Virgil, Segoe UI Emoji" font-size="16px" fill="#1e1e1e" text-anchor="start" style="white-space: pre;" direction="ltr" dominant-baseline="alphabetic">RDS instance </text><text x="0" y="34.016" font-family="Virgil, Segoe UI Emoji" font-size="16px" fill="#1e1e1e" text-anchor="start" style="white-space: pre;" direction="ltr" dominant-baseline="alphabetic">read replica</text></g></svg>